<?xml version="1.0" encoding="UTF-8" standalone="no"?>
<!DOCTYPE svg PUBLIC "-//W3C//DTD SVG 1.1//EN"
 "http://www.w3.org/Graphics/SVG/1.1/DTD/svg11.dtd">
<!-- Generated by graphviz version 8.1.0 (20230707.0739)
 -->
<!-- Pages: 1 -->
<svg width="2341pt" height="133pt"
 viewBox="0.00 0.00 2340.52 132.50" xmlns="http://www.w3.org/2000/svg" xmlns:xlink="http://www.w3.org/1999/xlink">
<g id="graph0" class="graph" transform="scale(1 1) rotate(0) translate(4 128.5)">
<polygon fill="white" stroke="none" points="-4,4 -4,-128.5 2336.52,-128.5 2336.52,4 -4,4"/>
<!-- idBottle1 -->
<g id="node1" class="node">
<title>idBottle1</title>
<ellipse fill="none" stroke="black" cx="1182.46" cy="-106.5" rx="45.21" ry="18"/>
<text text-anchor="middle" x="1182.46" y="-101.45" font-family="Times,serif" font-size="14.00">idBottle1</text>
</g>
<!-- brown -->
<g id="node2" class="node">
<title>brown</title>
<ellipse fill="none" stroke="black" cx="34.46" cy="-18" rx="34.46" ry="18"/>
<text text-anchor="middle" x="34.46" y="-12.95" font-family="Times,serif" font-size="14.00">brown</text>
</g>
<!-- idBottle1&#45;&gt;brown -->
<g id="edge1" class="edge">
<title>idBottle1&#45;&gt;brown</title>
<path fill="none" stroke="black" d="M1137.02,-105.17C934.32,-103.55 120.54,-95.51 72.71,-70.5 62.13,-64.97 53.7,-55.03 47.48,-45.35"/>
<polygon fill="black" stroke="black" points="50.05,-43.81 41.99,-36.93 44,-47.33 50.05,-43.81"/>
<text text-anchor="middle" x="138.34" y="-57.2" font-family="Times,serif" font-size="14.00">idBottle1_prop_idColor</text>
</g>
<!-- broken -->
<g id="node3" class="node">
<title>broken</title>
<ellipse fill="none" stroke="black" cx="187.46" cy="-18" rx="36.51" ry="18"/>
<text text-anchor="middle" x="187.46" y="-12.95" font-family="Times,serif" font-size="14.00">broken</text>
</g>
<!-- idBottle1&#45;&gt;broken -->
<g id="edge2" class="edge">
<title>idBottle1&#45;&gt;broken</title>
<path fill="none" stroke="black" d="M1137.08,-104.97C952.18,-102.69 263.42,-92.7 222.96,-70.5 212.93,-64.99 205.14,-55.29 199.45,-45.78"/>
<polygon fill="black" stroke="black" points="202.08,-44.29 194.27,-37.13 195.91,-47.6 202.08,-44.29"/>
<text text-anchor="middle" x="296.21" y="-57.2" font-family="Times,serif" font-size="14.00">idBottle1_prop_idIntegrity</text>
</g>
<!-- sharp -->
<g id="node4" class="node">
<title>sharp</title>
<ellipse fill="none" stroke="black" cx="356.46" cy="-18" rx="30.88" ry="18"/>
<text text-anchor="middle" x="356.46" y="-12.95" font-family="Times,serif" font-size="14.00">sharp</text>
</g>
<!-- idBottle1&#45;&gt;sharp -->
<g id="edge3" class="edge">
<title>idBottle1&#45;&gt;sharp</title>
<path fill="none" stroke="black" d="M1136.94,-105.98C977.71,-107.32 451.84,-108.78 387.46,-70.5 378.11,-64.94 371.23,-55.36 366.36,-45.96"/>
<polygon fill="black" stroke="black" points="369.18,-44.69 361.85,-37.04 362.8,-47.59 369.18,-44.69"/>
<text text-anchor="middle" x="465.46" y="-57.2" font-family="Times,serif" font-size="14.00">idBottle1_prop_idDescriptor</text>
</g>
<!-- shiny -->
<g id="node5" class="node">
<title>shiny</title>
<ellipse fill="none" stroke="black" cx="502.46" cy="-18" rx="30.88" ry="18"/>
<text text-anchor="middle" x="502.46" y="-12.95" font-family="Times,serif" font-size="14.00">shiny</text>
</g>
<!-- idBottle1&#45;&gt;shiny -->
<g id="edge4" class="edge">
<title>idBottle1&#45;&gt;shiny</title>
<path fill="none" stroke="black" d="M1136.8,-105.95C1014.55,-106.68 682.14,-105.29 578.96,-70.5 559.87,-64.06 541.05,-51.5 526.86,-40.4"/>
<polygon fill="black" stroke="black" points="529.63,-37.33 519.66,-33.74 525.22,-42.76 529.63,-37.33"/>
<text text-anchor="middle" x="664.21" y="-57.2" font-family="Times,serif" font-size="14.00">idBottle1_prop_idDescriptor_1</text>
</g>
<!-- idRockPile1 -->
<g id="node6" class="node">
<title>idRockPile1</title>
<ellipse fill="none" stroke="black" cx="607.46" cy="-18" rx="56.47" ry="18"/>
<text text-anchor="middle" x="607.46" y="-12.95" font-family="Times,serif" font-size="14.00">idRockPile1</text>
</g>
<!-- idBottle1&#45;&gt;idRockPile1 -->
<g id="edge5" class="edge">
<title>idBottle1&#45;&gt;idRockPile1</title>
<path fill="none" stroke="black" d="M1138.24,-102.27C1073.47,-97.24 949.13,-86.43 844.21,-70.5 767.24,-58.81 748.32,-53.52 672.46,-36 668.42,-35.07 664.25,-34.06 660.06,-33.03"/>
<polygon fill="black" stroke="black" points="661.23,-29.47 650.68,-30.42 659.53,-36.25 661.23,-29.47"/>
<text text-anchor="middle" x="862.09" y="-57.2" font-family="Times,serif" font-size="14.00">isNear</text>
</g>
<!-- idRockyArea1 -->
<g id="node7" class="node">
<title>idRockyArea1</title>
<ellipse fill="none" stroke="black" cx="746.46" cy="-18" rx="64.66" ry="18"/>
<text text-anchor="middle" x="746.46" y="-12.95" font-family="Times,serif" font-size="14.00">idRockyArea1</text>
</g>
<!-- idBottle1&#45;&gt;idRockyArea1 -->
<g id="edge6" class="edge">
<title>idBottle1&#45;&gt;idRockyArea1</title>
<path fill="none" stroke="black" d="M1139.44,-100.3C1092.65,-94.35 1015.77,-83.69 950.21,-70.5 899.32,-60.26 842.06,-45.49 801.23,-34.4"/>
<polygon fill="black" stroke="black" points="802.26,-30.78 791.69,-31.51 800.41,-37.53 802.26,-30.78"/>
<text text-anchor="middle" x="968.09" y="-57.2" font-family="Times,serif" font-size="14.00">isNear</text>
</g>
<!-- idPebble1 -->
<g id="node8" class="node">
<title>idPebble1</title>
<ellipse fill="none" stroke="black" cx="876.46" cy="-18" rx="47.77" ry="18"/>
<text text-anchor="middle" x="876.46" y="-12.95" font-family="Times,serif" font-size="14.00">idPebble1</text>
</g>
<!-- idBottle1&#45;&gt;idPebble1 -->
<g id="edge7" class="edge">
<title>idBottle1&#45;&gt;idPebble1</title>
<path fill="none" stroke="black" d="M1144.47,-96.32C1116.85,-89.52 1078.6,-79.85 1045.21,-70.5 1003.24,-58.75 955.8,-44.15 921.93,-33.5"/>
<polygon fill="black" stroke="black" points="923.47,-30 912.88,-30.33 921.36,-36.68 923.47,-30"/>
<text text-anchor="middle" x="1063.09" y="-57.2" font-family="Times,serif" font-size="14.00">isNear</text>
</g>
<!-- idGlowingArea1 -->
<g id="node9" class="node">
<title>idGlowingArea1</title>
<ellipse fill="none" stroke="black" cx="1015.46" cy="-18" rx="72.85" ry="18"/>
<text text-anchor="middle" x="1015.46" y="-12.95" font-family="Times,serif" font-size="14.00">idGlowingArea1</text>
</g>
<!-- idBottle1&#45;&gt;idGlowingArea1 -->
<g id="edge8" class="edge">
<title>idBottle1&#45;&gt;idGlowingArea1</title>
<path fill="none" stroke="black" d="M1155.63,-91.6C1128.59,-77.6 1086.54,-55.82 1055.55,-39.76"/>
<polygon fill="black" stroke="black" points="1057.39,-36.26 1046.91,-34.77 1054.18,-42.48 1057.39,-36.26"/>
<text text-anchor="middle" x="1139.96" y="-57.2" font-family="Times,serif" font-size="14.00">isWestOf</text>
</g>
<!-- idGlowingGrass1 -->
<g id="node10" class="node">
<title>idGlowingGrass1</title>
<ellipse fill="none" stroke="black" cx="1182.46" cy="-18" rx="75.92" ry="18"/>
<text text-anchor="middle" x="1182.46" y="-12.95" font-family="Times,serif" font-size="14.00">idGlowingGrass1</text>
</g>
<!-- idBottle1&#45;&gt;idGlowingGrass1 -->
<g id="edge9" class="edge">
<title>idBottle1&#45;&gt;idGlowingGrass1</title>
<path fill="none" stroke="black" d="M1182.46,-88.41C1182.46,-76.64 1182.46,-60.73 1182.46,-47.11"/>
<polygon fill="black" stroke="black" points="1185.96,-47.35 1182.46,-37.35 1178.96,-47.35 1185.96,-47.35"/>
<text text-anchor="middle" x="1207.96" y="-57.2" font-family="Times,serif" font-size="14.00">isWestOf</text>
</g>
<!-- idCave1 -->
<g id="node11" class="node">
<title>idCave1</title>
<ellipse fill="none" stroke="black" cx="1318.46" cy="-18" rx="41.63" ry="18"/>
<text text-anchor="middle" x="1318.46" y="-12.95" font-family="Times,serif" font-size="14.00">idCave1</text>
</g>
<!-- idBottle1&#45;&gt;idCave1 -->
<g id="edge10" class="edge">
<title>idBottle1&#45;&gt;idCave1</title>
<path fill="none" stroke="black" d="M1205.84,-90.63C1228.2,-76.41 1262.08,-54.86 1286.84,-39.11"/>
<polygon fill="black" stroke="black" points="1288.28,-41.71 1294.84,-33.39 1284.52,-35.8 1288.28,-41.71"/>
<text text-anchor="middle" x="1288.96" y="-57.2" font-family="Times,serif" font-size="14.00">isWestOf</text>
</g>
<!-- idClearing1 -->
<g id="node12" class="node">
<title>idClearing1</title>
<ellipse fill="none" stroke="black" cx="1432.46" cy="-18" rx="54.42" ry="18"/>
<text text-anchor="middle" x="1432.46" y="-12.95" font-family="Times,serif" font-size="14.00">idClearing1</text>
</g>
<!-- idBottle1&#45;&gt;idClearing1 -->
<g id="edge11" class="edge">
<title>idBottle1&#45;&gt;idClearing1</title>
<path fill="none" stroke="black" d="M1221.98,-97.23C1249.41,-91.03 1286.61,-81.7 1318.46,-70.5 1344.28,-61.42 1372.31,-48.8 1394.12,-38.32"/>
<polygon fill="black" stroke="black" points="1395.51,-41.05 1402.97,-33.53 1392.45,-34.75 1395.51,-41.05"/>
<text text-anchor="middle" x="1382.96" y="-57.2" font-family="Times,serif" font-size="14.00">isWestOf</text>
</g>
<!-- idBranch1 -->
<g id="node13" class="node">
<title>idBranch1</title>
<ellipse fill="none" stroke="black" cx="1554.46" cy="-18" rx="49.3" ry="18"/>
<text text-anchor="middle" x="1554.46" y="-12.95" font-family="Times,serif" font-size="14.00">idBranch1</text>
</g>
<!-- idBottle1&#45;&gt;idBranch1 -->
<g id="edge12" class="edge">
<title>idBottle1&#45;&gt;idBranch1</title>
<path fill="none" stroke="black" d="M1226.21,-101.43C1272.86,-96.5 1348.66,-86.75 1412.46,-70.5 1447.2,-61.65 1485.34,-47.56 1513.33,-36.36"/>
<polygon fill="black" stroke="black" points="1514.2,-39.38 1522.16,-32.38 1511.58,-32.89 1514.2,-39.38"/>
<text text-anchor="middle" x="1489.96" y="-57.2" font-family="Times,serif" font-size="14.00">isWestOf</text>
</g>
<!-- idGrass1 -->
<g id="node14" class="node">
<title>idGrass1</title>
<ellipse fill="none" stroke="black" cx="1665.46" cy="-18" rx="43.67" ry="18"/>
<text text-anchor="middle" x="1665.46" y="-12.95" font-family="Times,serif" font-size="14.00">idGrass1</text>
</g>
<!-- idBottle1&#45;&gt;idGrass1 -->
<g id="edge13" class="edge">
<title>idBottle1&#45;&gt;idGrass1</title>
<path fill="none" stroke="black" d="M1227.71,-104.18C1292.91,-101.51 1416.74,-93.61 1519.46,-70.5 1556.48,-62.17 1597.07,-47.37 1626.03,-35.76"/>
<polygon fill="black" stroke="black" points="1627.2,-38.66 1635.15,-31.65 1624.56,-32.18 1627.2,-38.66"/>
<text text-anchor="middle" x="1602.96" y="-57.2" font-family="Times,serif" font-size="14.00">isWestOf</text>
</g>
<!-- idPlayer -->
<g id="node15" class="node">
<title>idPlayer</title>
<ellipse fill="none" stroke="black" cx="1768.46" cy="-18" rx="41.63" ry="18"/>
<text text-anchor="middle" x="1768.46" y="-12.95" font-family="Times,serif" font-size="14.00">idPlayer</text>
</g>
<!-- idBottle1&#45;&gt;idPlayer -->
<g id="edge14" class="edge">
<title>idBottle1&#45;&gt;idPlayer</title>
<path fill="none" stroke="black" d="M1228.12,-106.19C1310.13,-106.51 1487.35,-102.92 1632.46,-70.5 1666.98,-62.79 1704.45,-48.09 1731.3,-36.37"/>
<polygon fill="black" stroke="black" points="1732.33,-39.3 1740.05,-32.04 1729.49,-32.9 1732.33,-39.3"/>
<text text-anchor="middle" x="1711.96" y="-57.2" font-family="Times,serif" font-size="14.00">isWestOf</text>
</g>
<!-- idPlayerBackside -->
<g id="node16" class="node">
<title>idPlayerBackside</title>
<ellipse fill="none" stroke="black" cx="1903.46" cy="-18" rx="75.41" ry="18"/>
<text text-anchor="middle" x="1903.46" y="-12.95" font-family="Times,serif" font-size="14.00">idPlayerBackside</text>
</g>
<!-- idBottle1&#45;&gt;idPlayerBackside -->
<g id="edge15" class="edge">
<title>idBottle1&#45;&gt;idPlayerBackside</title>
<path fill="none" stroke="black" d="M1227.67,-104.1C1342.51,-100.31 1643.26,-88.89 1741.46,-70.5 1780.72,-63.15 1823.75,-49.17 1855.59,-37.63"/>
<polygon fill="black" stroke="black" points="1856.34,-40.72 1864.52,-33.98 1853.93,-34.15 1856.34,-40.72"/>
<text text-anchor="middle" x="1830.96" y="-57.2" font-family="Times,serif" font-size="14.00">isWestOf</text>
</g>
<!-- idPlayerLeftHand -->
<g id="node17" class="node">
<title>idPlayerLeftHand</title>
<ellipse fill="none" stroke="black" cx="2073.46" cy="-18" rx="76.94" ry="18"/>
<text text-anchor="middle" x="2073.46" y="-12.95" font-family="Times,serif" font-size="14.00">idPlayerLeftHand</text>
</g>
<!-- idBottle1&#45;&gt;idPlayerLeftHand -->
<g id="edge16" class="edge">
<title>idBottle1&#45;&gt;idPlayerLeftHand</title>
<path fill="none" stroke="black" d="M1227.97,-106.05C1337.51,-106.76 1624.27,-104.85 1860.46,-70.5 1914.26,-62.68 1974.36,-47.54 2016.97,-35.7"/>
<polygon fill="black" stroke="black" points="2017.73,-38.84 2026.41,-32.76 2015.84,-32.1 2017.73,-38.84"/>
<text text-anchor="middle" x="1968.96" y="-57.2" font-family="Times,serif" font-size="14.00">isWestOf</text>
</g>
<!-- idPlayerRightHand -->
<g id="node18" class="node">
<title>idPlayerRightHand</title>
<ellipse fill="none" stroke="black" cx="2250.46" cy="-18" rx="82.06" ry="18"/>
<text text-anchor="middle" x="2250.46" y="-12.95" font-family="Times,serif" font-size="14.00">idPlayerRightHand</text>
</g>
<!-- idBottle1&#45;&gt;idPlayerRightHand -->
<g id="edge17" class="edge">
<title>idBottle1&#45;&gt;idPlayerRightHand</title>
<path fill="none" stroke="black" d="M1227.78,-106.07C1351.71,-107.09 1706.43,-106.37 1998.46,-70.5 2063.63,-62.49 2137.08,-46.69 2187.79,-34.7"/>
<polygon fill="black" stroke="black" points="2188.34,-37.92 2197.25,-32.2 2186.71,-31.12 2188.34,-37.92"/>
<text text-anchor="middle" x="2121.96" y="-57.2" font-family="Times,serif" font-size="14.00">isWestOf</text>
</g>
</g>
</svg>
