<?xml version="1.0" encoding="UTF-8" standalone="no"?>
<!DOCTYPE svg PUBLIC "-//W3C//DTD SVG 1.1//EN"
 "http://www.w3.org/Graphics/SVG/1.1/DTD/svg11.dtd">
<!-- Generated by graphviz version 8.1.0 (20230707.0739)
 -->
<!-- Pages: 1 -->
<svg width="1505pt" height="133pt"
 viewBox="0.00 0.00 1504.93 132.50" xmlns="http://www.w3.org/2000/svg" xmlns:xlink="http://www.w3.org/1999/xlink">
<g id="graph0" class="graph" transform="scale(1 1) rotate(0) translate(4 128.5)">
<polygon fill="white" stroke="none" points="-4,4 -4,-128.5 1500.93,-128.5 1500.93,4 -4,4"/>
<!-- idBranch1 -->
<g id="node1" class="node">
<title>idBranch1</title>
<ellipse fill="none" stroke="black" cx="735.46" cy="-106.5" rx="49.3" ry="18"/>
<text text-anchor="middle" x="735.46" y="-101.45" font-family="Times,serif" font-size="14.00">idBranch1</text>
</g>
<!-- idBranch1&#45;&gt;idBranch1 -->
<g id="edge6" class="edge">
<title>idBranch1&#45;&gt;idBranch1</title>
<path fill="none" stroke="black" d="M779.8,-114.77C792.74,-114.49 802.77,-111.73 802.77,-106.5 802.77,-102.82 797.81,-100.37 790.37,-99.14"/>
<polygon fill="black" stroke="black" points="791.06,-95.6 780.8,-98.23 790.46,-102.57 791.06,-95.6"/>
<text text-anchor="middle" x="820.39" y="-101.45" font-family="Times,serif" font-size="14.00">isNear</text>
</g>
<!-- brown -->
<g id="node2" class="node">
<title>brown</title>
<ellipse fill="none" stroke="black" cx="34.46" cy="-18" rx="34.46" ry="18"/>
<text text-anchor="middle" x="34.46" y="-12.95" font-family="Times,serif" font-size="14.00">brown</text>
</g>
<!-- idBranch1&#45;&gt;brown -->
<g id="edge1" class="edge">
<title>idBranch1&#45;&gt;brown</title>
<path fill="none" stroke="black" d="M685.9,-104.77C564.06,-102.62 252.5,-94.83 151.71,-70.5 121.59,-63.23 89.51,-48.61 66.54,-36.8"/>
<polygon fill="black" stroke="black" points="68.45,-33.33 57.97,-31.77 65.2,-39.52 68.45,-33.33"/>
<text text-anchor="middle" x="220.34" y="-57.2" font-family="Times,serif" font-size="14.00">idBranch1_prop_idColor</text>
</g>
<!-- idClearing1 -->
<g id="node3" class="node">
<title>idClearing1</title>
<ellipse fill="none" stroke="black" cx="167.46" cy="-18" rx="54.42" ry="18"/>
<text text-anchor="middle" x="167.46" y="-12.95" font-family="Times,serif" font-size="14.00">idClearing1</text>
</g>
<!-- idBranch1&#45;&gt;idClearing1 -->
<g id="edge2" class="edge">
<title>idBranch1&#45;&gt;idClearing1</title>
<path fill="none" stroke="black" d="M686.53,-103.56C614.57,-100.12 476.15,-91.24 360.21,-70.5 310.35,-61.58 254.55,-46.04 215.87,-34.36"/>
<polygon fill="black" stroke="black" points="217.02,-30.75 206.43,-31.18 214.98,-37.44 217.02,-30.75"/>
<text text-anchor="middle" x="378.09" y="-57.2" font-family="Times,serif" font-size="14.00">isNear</text>
</g>
<!-- idTheTrees1 -->
<g id="node4" class="node">
<title>idTheTrees1</title>
<ellipse fill="none" stroke="black" cx="297.46" cy="-18" rx="57.49" ry="18"/>
<text text-anchor="middle" x="297.46" y="-12.95" font-family="Times,serif" font-size="14.00">idTheTrees1</text>
</g>
<!-- idBranch1&#45;&gt;idTheTrees1 -->
<g id="edge3" class="edge">
<title>idBranch1&#45;&gt;idTheTrees1</title>
<path fill="none" stroke="black" d="M687.06,-102.22C630.99,-97.79 536.09,-88.3 456.21,-70.5 417.34,-61.84 374.44,-47.63 343.05,-36.33"/>
<polygon fill="black" stroke="black" points="344.46,-32.75 333.86,-32.62 342.06,-39.33 344.46,-32.75"/>
<text text-anchor="middle" x="484.59" y="-57.2" font-family="Times,serif" font-size="14.00">isInsideOf</text>
</g>
<!-- idPlayer -->
<g id="node5" class="node">
<title>idPlayer</title>
<ellipse fill="none" stroke="black" cx="414.46" cy="-18" rx="41.63" ry="18"/>
<text text-anchor="middle" x="414.46" y="-12.95" font-family="Times,serif" font-size="14.00">idPlayer</text>
</g>
<!-- idBranch1&#45;&gt;idPlayer -->
<g id="edge4" class="edge">
<title>idBranch1&#45;&gt;idPlayer</title>
<path fill="none" stroke="black" d="M691.82,-97.79C657.88,-91.45 609.74,-81.71 568.21,-70.5 521.3,-57.84 510.52,-51.49 464.46,-36 461.91,-35.14 459.29,-34.26 456.65,-33.37"/>
<polygon fill="black" stroke="black" points="458.05,-29.81 447.46,-29.91 455.81,-36.44 458.05,-29.81"/>
<text text-anchor="middle" x="586.09" y="-57.2" font-family="Times,serif" font-size="14.00">isNear</text>
</g>
<!-- idGrass1 -->
<g id="node6" class="node">
<title>idGrass1</title>
<ellipse fill="none" stroke="black" cx="517.46" cy="-18" rx="43.67" ry="18"/>
<text text-anchor="middle" x="517.46" y="-12.95" font-family="Times,serif" font-size="14.00">idGrass1</text>
</g>
<!-- idBranch1&#45;&gt;idGrass1 -->
<g id="edge5" class="edge">
<title>idBranch1&#45;&gt;idGrass1</title>
<path fill="none" stroke="black" d="M702.82,-92.55C664.28,-77.26 600.14,-51.8 558.32,-35.21"/>
<polygon fill="black" stroke="black" points="559.79,-31.63 549.2,-31.2 557.21,-38.14 559.79,-31.63"/>
<text text-anchor="middle" x="664.09" y="-57.2" font-family="Times,serif" font-size="14.00">isNear</text>
</g>
<!-- idGlowingArea1 -->
<g id="node7" class="node">
<title>idGlowingArea1</title>
<ellipse fill="none" stroke="black" cx="652.46" cy="-18" rx="72.85" ry="18"/>
<text text-anchor="middle" x="652.46" y="-12.95" font-family="Times,serif" font-size="14.00">idGlowingArea1</text>
</g>
<!-- idBranch1&#45;&gt;idGlowingArea1 -->
<g id="edge7" class="edge">
<title>idBranch1&#45;&gt;idGlowingArea1</title>
<path fill="none" stroke="black" d="M719.85,-89.23C707.49,-76.35 690.02,-58.15 675.97,-43.5"/>
<polygon fill="black" stroke="black" points="679.02,-41.58 669.57,-36.79 673.97,-46.43 679.02,-41.58"/>
<text text-anchor="middle" x="728.84" y="-57.2" font-family="Times,serif" font-size="14.00">isNorthOf</text>
</g>
<!-- idGlowingGrass1 -->
<g id="node8" class="node">
<title>idGlowingGrass1</title>
<ellipse fill="none" stroke="black" cx="819.46" cy="-18" rx="75.92" ry="18"/>
<text text-anchor="middle" x="819.46" y="-12.95" font-family="Times,serif" font-size="14.00">idGlowingGrass1</text>
</g>
<!-- idBranch1&#45;&gt;idGlowingGrass1 -->
<g id="edge8" class="edge">
<title>idBranch1&#45;&gt;idGlowingGrass1</title>
<path fill="none" stroke="black" d="M751.26,-89.23C763.77,-76.35 781.45,-58.15 795.67,-43.5"/>
<polygon fill="black" stroke="black" points="797.7,-46.4 802.16,-36.79 792.68,-41.52 797.7,-46.4"/>
<text text-anchor="middle" x="812.84" y="-57.2" font-family="Times,serif" font-size="14.00">isNorthOf</text>
</g>
<!-- idCave1 -->
<g id="node9" class="node">
<title>idCave1</title>
<ellipse fill="none" stroke="black" cx="955.46" cy="-18" rx="41.63" ry="18"/>
<text text-anchor="middle" x="955.46" y="-12.95" font-family="Times,serif" font-size="14.00">idCave1</text>
</g>
<!-- idBranch1&#45;&gt;idCave1 -->
<g id="edge9" class="edge">
<title>idBranch1&#45;&gt;idCave1</title>
<path fill="none" stroke="black" d="M773.45,-94.57C794.58,-88.17 821.23,-79.58 844.46,-70.5 870.08,-60.49 898.19,-47.43 919.7,-36.96"/>
<polygon fill="black" stroke="black" points="920.96,-39.76 928.4,-32.21 917.88,-33.47 920.96,-39.76"/>
<text text-anchor="middle" x="909.84" y="-57.2" font-family="Times,serif" font-size="14.00">isSouthOf</text>
</g>
<!-- idRockyArea1 -->
<g id="node10" class="node">
<title>idRockyArea1</title>
<ellipse fill="none" stroke="black" cx="1079.46" cy="-18" rx="64.66" ry="18"/>
<text text-anchor="middle" x="1079.46" y="-12.95" font-family="Times,serif" font-size="14.00">idRockyArea1</text>
</g>
<!-- idBranch1&#45;&gt;idRockyArea1 -->
<g id="edge10" class="edge">
<title>idBranch1&#45;&gt;idRockyArea1</title>
<path fill="none" stroke="black" d="M781.82,-100.17C823.92,-94.73 887.51,-85.01 941.46,-70.5 973.65,-61.84 1008.84,-48.65 1035.62,-37.78"/>
<polygon fill="black" stroke="black" points="1036.53,-40.78 1044.46,-33.75 1033.88,-34.31 1036.53,-40.78"/>
<text text-anchor="middle" x="1015.71" y="-57.2" font-family="Times,serif" font-size="14.00">isEastOf</text>
</g>
<!-- idBottle1 -->
<g id="node11" class="node">
<title>idBottle1</title>
<ellipse fill="none" stroke="black" cx="1207.46" cy="-18" rx="45.21" ry="18"/>
<text text-anchor="middle" x="1207.46" y="-12.95" font-family="Times,serif" font-size="14.00">idBottle1</text>
</g>
<!-- idBranch1&#45;&gt;idBottle1 -->
<g id="edge11" class="edge">
<title>idBranch1&#45;&gt;idBottle1</title>
<path fill="none" stroke="black" d="M784.03,-102.79C844.94,-98.74 952.3,-89.47 1042.46,-70.5 1093.02,-59.86 1104.16,-51.42 1153.46,-36 1156.41,-35.08 1159.44,-34.13 1162.5,-33.17"/>
<polygon fill="black" stroke="black" points="1163.41,-36.24 1171.9,-29.9 1161.31,-29.56 1163.41,-36.24"/>
<text text-anchor="middle" x="1123.71" y="-57.2" font-family="Times,serif" font-size="14.00">isEastOf</text>
</g>
<!-- idPebble1 -->
<g id="node12" class="node">
<title>idPebble1</title>
<ellipse fill="none" stroke="black" cx="1318.46" cy="-18" rx="47.77" ry="18"/>
<text text-anchor="middle" x="1318.46" y="-12.95" font-family="Times,serif" font-size="14.00">idPebble1</text>
</g>
<!-- idBranch1&#45;&gt;idPebble1 -->
<g id="edge12" class="edge">
<title>idBranch1&#45;&gt;idPebble1</title>
<path fill="none" stroke="black" d="M784.8,-104.73C863.02,-102.75 1020.01,-95.7 1150.46,-70.5 1193.71,-62.15 1241.61,-46.84 1275.16,-35.07"/>
<polygon fill="black" stroke="black" points="1276.27,-38.04 1284.52,-31.39 1273.93,-31.44 1276.27,-38.04"/>
<text text-anchor="middle" x="1239.71" y="-57.2" font-family="Times,serif" font-size="14.00">isEastOf</text>
</g>
<!-- idRockPile1 -->
<g id="node13" class="node">
<title>idRockPile1</title>
<ellipse fill="none" stroke="black" cx="1440.46" cy="-18" rx="56.47" ry="18"/>
<text text-anchor="middle" x="1440.46" y="-12.95" font-family="Times,serif" font-size="14.00">idRockPile1</text>
</g>
<!-- idBranch1&#45;&gt;idRockPile1 -->
<g id="edge13" class="edge">
<title>idBranch1&#45;&gt;idRockPile1</title>
<path fill="none" stroke="black" d="M784.95,-105.88C879.36,-105.81 1091.39,-101.78 1266.46,-70.5 1310.59,-62.62 1359.41,-47.59 1394.08,-35.79"/>
<polygon fill="black" stroke="black" points="1395.05,-38.81 1403.37,-32.25 1392.77,-32.2 1395.05,-38.81"/>
<text text-anchor="middle" x="1357.71" y="-57.2" font-family="Times,serif" font-size="14.00">isEastOf</text>
</g>
</g>
</svg>
