<?xml version="1.0" encoding="UTF-8" standalone="no"?>
<!DOCTYPE svg PUBLIC "-//W3C//DTD SVG 1.1//EN"
 "http://www.w3.org/Graphics/SVG/1.1/DTD/svg11.dtd">
<!-- Generated by graphviz version 8.1.0 (20230707.0739)
 -->
<!-- Pages: 1 -->
<svg width="1889pt" height="133pt"
 viewBox="0.00 0.00 1888.77 132.50" xmlns="http://www.w3.org/2000/svg" xmlns:xlink="http://www.w3.org/1999/xlink">
<g id="graph0" class="graph" transform="scale(1 1) rotate(0) translate(4 128.5)">
<polygon fill="white" stroke="none" points="-4,4 -4,-128.5 1884.77,-128.5 1884.77,4 -4,4"/>
<!-- idCave1 -->
<g id="node1" class="node">
<title>idCave1</title>
<ellipse fill="none" stroke="black" cx="900.3" cy="-106.5" rx="41.63" ry="18"/>
<text text-anchor="middle" x="900.3" y="-101.45" font-family="Times,serif" font-size="14.00">idCave1</text>
</g>
<!-- dark -->
<g id="node2" class="node">
<title>dark</title>
<ellipse fill="none" stroke="black" cx="27.3" cy="-18" rx="27.3" ry="18"/>
<text text-anchor="middle" x="27.3" y="-12.95" font-family="Times,serif" font-size="14.00">dark</text>
</g>
<!-- idCave1&#45;&gt;dark -->
<g id="edge1" class="edge">
<title>idCave1&#45;&gt;dark</title>
<path fill="none" stroke="black" d="M858.35,-105.31C722.26,-104.39 294.03,-99.26 159.05,-70.5 123.21,-62.87 84.4,-46.64 58.25,-34.43"/>
<polygon fill="black" stroke="black" points="60.07,-30.94 49.54,-29.8 57.06,-37.26 60.07,-30.94"/>
<text text-anchor="middle" x="217.42" y="-57.2" font-family="Times,serif" font-size="14.00">idCave1_prop_idTint</text>
</g>
<!-- idClearing1 -->
<g id="node3" class="node">
<title>idClearing1</title>
<ellipse fill="none" stroke="black" cx="146.3" cy="-18" rx="54.42" ry="18"/>
<text text-anchor="middle" x="146.3" y="-12.95" font-family="Times,serif" font-size="14.00">idClearing1</text>
</g>
<!-- idCave1&#45;&gt;idClearing1 -->
<g id="edge2" class="edge">
<title>idCave1&#45;&gt;idClearing1</title>
<path fill="none" stroke="black" d="M858.65,-104.98C768.12,-103.36 546.8,-96.81 363.55,-70.5 305.41,-62.16 240,-45.65 196.28,-33.57"/>
<polygon fill="black" stroke="black" points="197.5,-29.99 186.92,-30.67 195.61,-36.73 197.5,-29.99"/>
<text text-anchor="middle" x="391.67" y="-57.2" font-family="Times,serif" font-size="14.00">isNorthOf</text>
</g>
<!-- idGlowingArea1 -->
<g id="node4" class="node">
<title>idGlowingArea1</title>
<ellipse fill="none" stroke="black" cx="291.3" cy="-18" rx="72.85" ry="18"/>
<text text-anchor="middle" x="291.3" y="-12.95" font-family="Times,serif" font-size="14.00">idGlowingArea1</text>
</g>
<!-- idCave1&#45;&gt;idGlowingArea1 -->
<g id="edge3" class="edge">
<title>idCave1&#45;&gt;idGlowingArea1</title>
<path fill="none" stroke="black" d="M858.65,-104.11C784.97,-101.15 627,-92.61 495.55,-70.5 444.56,-61.93 387.6,-47.12 346.81,-35.57"/>
<polygon fill="black" stroke="black" points="347.86,-31.95 337.28,-32.56 345.94,-38.68 347.86,-31.95"/>
<text text-anchor="middle" x="523.67" y="-57.2" font-family="Times,serif" font-size="14.00">isNorthOf</text>
</g>
<!-- idRockyArea1 -->
<g id="node5" class="node">
<title>idRockyArea1</title>
<ellipse fill="none" stroke="black" cx="447.3" cy="-18" rx="64.66" ry="18"/>
<text text-anchor="middle" x="447.3" y="-12.95" font-family="Times,serif" font-size="14.00">idRockyArea1</text>
</g>
<!-- idCave1&#45;&gt;idRockyArea1 -->
<g id="edge4" class="edge">
<title>idCave1&#45;&gt;idRockyArea1</title>
<path fill="none" stroke="black" d="M859.11,-102.79C803.11,-98.57 700.04,-88.95 613.8,-70.5 573.35,-61.85 528.62,-47.75 495.72,-36.49"/>
<polygon fill="black" stroke="black" points="497.06,-32.91 486.47,-32.94 494.78,-39.52 497.06,-32.91"/>
<text text-anchor="middle" x="637.55" y="-57.2" font-family="Times,serif" font-size="14.00">isEastOf</text>
</g>
<!-- idBottle1 -->
<g id="node6" class="node">
<title>idBottle1</title>
<ellipse fill="none" stroke="black" cx="575.3" cy="-18" rx="45.21" ry="18"/>
<text text-anchor="middle" x="575.3" y="-12.95" font-family="Times,serif" font-size="14.00">idBottle1</text>
</g>
<!-- idCave1&#45;&gt;idBottle1 -->
<g id="edge5" class="edge">
<title>idCave1&#45;&gt;idBottle1</title>
<path fill="none" stroke="black" d="M860.92,-100.11C822.86,-94.43 763.79,-84.38 713.8,-70.5 679.93,-61.1 642.65,-47.01 615.3,-35.95"/>
<polygon fill="black" stroke="black" points="616.92,-32.42 606.34,-31.87 614.27,-38.89 616.92,-32.42"/>
<text text-anchor="middle" x="737.55" y="-57.2" font-family="Times,serif" font-size="14.00">isEastOf</text>
</g>
<!-- idBranch1 -->
<g id="node7" class="node">
<title>idBranch1</title>
<ellipse fill="none" stroke="black" cx="688.3" cy="-18" rx="49.3" ry="18"/>
<text text-anchor="middle" x="688.3" y="-12.95" font-family="Times,serif" font-size="14.00">idBranch1</text>
</g>
<!-- idCave1&#45;&gt;idBranch1 -->
<g id="edge6" class="edge">
<title>idCave1&#45;&gt;idBranch1</title>
<path fill="none" stroke="black" d="M868.01,-94.84C848.6,-88.24 823.47,-79.35 801.55,-70.5 776.3,-60.31 748.46,-47.67 726.71,-37.46"/>
<polygon fill="black" stroke="black" points="728.4,-33.92 717.86,-32.82 725.41,-40.25 728.4,-33.92"/>
<text text-anchor="middle" x="829.67" y="-57.2" font-family="Times,serif" font-size="14.00">isNorthOf</text>
</g>
<!-- idGlowingGrass1 -->
<g id="node8" class="node">
<title>idGlowingGrass1</title>
<ellipse fill="none" stroke="black" cx="831.3" cy="-18" rx="75.92" ry="18"/>
<text text-anchor="middle" x="831.3" y="-12.95" font-family="Times,serif" font-size="14.00">idGlowingGrass1</text>
</g>
<!-- idCave1&#45;&gt;idGlowingGrass1 -->
<g id="edge7" class="edge">
<title>idCave1&#45;&gt;idGlowingGrass1</title>
<path fill="none" stroke="black" d="M887.32,-89.23C877.3,-76.67 863.24,-59.05 851.72,-44.6"/>
<polygon fill="black" stroke="black" points="853.9,-42.72 844.92,-37.08 848.42,-47.08 853.9,-42.72"/>
<text text-anchor="middle" x="899.67" y="-57.2" font-family="Times,serif" font-size="14.00">isNorthOf</text>
</g>
<!-- idGrass1 -->
<g id="node9" class="node">
<title>idGrass1</title>
<ellipse fill="none" stroke="black" cx="969.3" cy="-18" rx="43.67" ry="18"/>
<text text-anchor="middle" x="969.3" y="-12.95" font-family="Times,serif" font-size="14.00">idGrass1</text>
</g>
<!-- idCave1&#45;&gt;idGrass1 -->
<g id="edge8" class="edge">
<title>idCave1&#45;&gt;idGrass1</title>
<path fill="none" stroke="black" d="M915.11,-89.38C920.34,-83.53 926.19,-76.81 931.3,-70.5 938.07,-62.13 945.16,-52.71 951.36,-44.24"/>
<polygon fill="black" stroke="black" points="954.65,-46.67 957.68,-36.52 948.98,-42.56 954.65,-46.67"/>
<text text-anchor="middle" x="970.67" y="-57.2" font-family="Times,serif" font-size="14.00">isNorthOf</text>
</g>
<!-- idPebble1 -->
<g id="node10" class="node">
<title>idPebble1</title>
<ellipse fill="none" stroke="black" cx="1078.3" cy="-18" rx="47.77" ry="18"/>
<text text-anchor="middle" x="1078.3" y="-12.95" font-family="Times,serif" font-size="14.00">idPebble1</text>
</g>
<!-- idCave1&#45;&gt;idPebble1 -->
<g id="edge9" class="edge">
<title>idCave1&#45;&gt;idPebble1</title>
<path fill="none" stroke="black" d="M934.75,-96.17C954.96,-90.09 980.69,-81.29 1002.3,-70.5 1018.79,-62.27 1035.89,-50.96 1049.69,-41.04"/>
<polygon fill="black" stroke="black" points="1051.25,-43.5 1057.24,-34.76 1047.11,-37.86 1051.25,-43.5"/>
<text text-anchor="middle" x="1054.55" y="-57.2" font-family="Times,serif" font-size="14.00">isEastOf</text>
</g>
<!-- idPlayer -->
<g id="node11" class="node">
<title>idPlayer</title>
<ellipse fill="none" stroke="black" cx="1185.3" cy="-18" rx="41.63" ry="18"/>
<text text-anchor="middle" x="1185.3" y="-12.95" font-family="Times,serif" font-size="14.00">idPlayer</text>
</g>
<!-- idCave1&#45;&gt;idPlayer -->
<g id="edge10" class="edge">
<title>idCave1&#45;&gt;idPlayer</title>
<path fill="none" stroke="black" d="M940.28,-100.91C977.49,-95.91 1034.14,-86.41 1081.3,-70.5 1105.96,-62.18 1132.21,-49.14 1152.17,-38.27"/>
<polygon fill="black" stroke="black" points="1153.66,-40.89 1160.71,-32.98 1150.27,-34.77 1153.66,-40.89"/>
<text text-anchor="middle" x="1147.67" y="-57.2" font-family="Times,serif" font-size="14.00">isNorthOf</text>
</g>
<!-- idPlayerBackside -->
<g id="node12" class="node">
<title>idPlayerBackside</title>
<ellipse fill="none" stroke="black" cx="1320.3" cy="-18" rx="75.41" ry="18"/>
<text text-anchor="middle" x="1320.3" y="-12.95" font-family="Times,serif" font-size="14.00">idPlayerBackside</text>
</g>
<!-- idCave1&#45;&gt;idPlayerBackside -->
<g id="edge11" class="edge">
<title>idCave1&#45;&gt;idPlayerBackside</title>
<path fill="none" stroke="black" d="M941.48,-103.24C996.38,-99.57 1096.26,-90.6 1179.3,-70.5 1212.2,-62.54 1248.02,-49.39 1275.32,-38.38"/>
<polygon fill="black" stroke="black" points="1276.41,-41.3 1284.34,-34.28 1273.76,-34.82 1276.41,-41.3"/>
<text text-anchor="middle" x="1258.67" y="-57.2" font-family="Times,serif" font-size="14.00">isNorthOf</text>
</g>
<!-- idPlayerLeftHand -->
<g id="node13" class="node">
<title>idPlayerLeftHand</title>
<ellipse fill="none" stroke="black" cx="1490.3" cy="-18" rx="76.94" ry="18"/>
<text text-anchor="middle" x="1490.3" y="-12.95" font-family="Times,serif" font-size="14.00">idPlayerLeftHand</text>
</g>
<!-- idCave1&#45;&gt;idPlayerLeftHand -->
<g id="edge12" class="edge">
<title>idCave1&#45;&gt;idPlayerLeftHand</title>
<path fill="none" stroke="black" d="M941.86,-103.99C1013.46,-100.89 1164.52,-92.19 1290.3,-70.5 1339.65,-61.99 1394.7,-47.43 1434.52,-35.96"/>
<polygon fill="black" stroke="black" points="1435.45,-39.04 1444.08,-32.89 1433.5,-32.32 1435.45,-39.04"/>
<text text-anchor="middle" x="1390.67" y="-57.2" font-family="Times,serif" font-size="14.00">isNorthOf</text>
</g>
<!-- idPlayerRightHand -->
<g id="node14" class="node">
<title>idPlayerRightHand</title>
<ellipse fill="none" stroke="black" cx="1667.3" cy="-18" rx="82.06" ry="18"/>
<text text-anchor="middle" x="1667.3" y="-12.95" font-family="Times,serif" font-size="14.00">idPlayerRightHand</text>
</g>
<!-- idCave1&#45;&gt;idPlayerRightHand -->
<g id="edge13" class="edge">
<title>idCave1&#45;&gt;idPlayerRightHand</title>
<path fill="none" stroke="black" d="M942.11,-104.68C1030.93,-102.51 1244.82,-94.98 1422.3,-70.5 1484.87,-61.87 1555.36,-46.44 1604.61,-34.71"/>
<polygon fill="black" stroke="black" points="1605.19,-37.93 1614.1,-32.19 1603.56,-31.13 1605.19,-37.93"/>
<text text-anchor="middle" x="1544.67" y="-57.2" font-family="Times,serif" font-size="14.00">isNorthOf</text>
</g>
<!-- idRockPile1 -->
<g id="node15" class="node">
<title>idRockPile1</title>
<ellipse fill="none" stroke="black" cx="1824.3" cy="-18" rx="56.47" ry="18"/>
<text text-anchor="middle" x="1824.3" y="-12.95" font-family="Times,serif" font-size="14.00">idRockPile1</text>
</g>
<!-- idCave1&#45;&gt;idRockPile1 -->
<g id="edge14" class="edge">
<title>idCave1&#45;&gt;idRockPile1</title>
<path fill="none" stroke="black" d="M942,-105.3C1048.21,-104.38 1337.39,-99.19 1576.3,-70.5 1658.04,-60.68 1677.95,-53.94 1758.3,-36 1762.65,-35.03 1767.15,-33.97 1771.66,-32.88"/>
<polygon fill="black" stroke="black" points="1772.28,-36.09 1781.14,-30.29 1770.6,-29.29 1772.28,-36.09"/>
<text text-anchor="middle" x="1700.55" y="-57.2" font-family="Times,serif" font-size="14.00">isEastOf</text>
</g>
</g>
</svg>
