<?xml version="1.0" encoding="UTF-8" standalone="no"?>
<!DOCTYPE svg PUBLIC "-//W3C//DTD SVG 1.1//EN"
 "http://www.w3.org/Graphics/SVG/1.1/DTD/svg11.dtd">
<!-- Generated by graphviz version 8.1.0 (20230707.0739)
 -->
<!-- Pages: 1 -->
<svg width="1545pt" height="133pt"
 viewBox="0.00 0.00 1544.67 132.50" xmlns="http://www.w3.org/2000/svg" xmlns:xlink="http://www.w3.org/1999/xlink">
<g id="graph0" class="graph" transform="scale(1 1) rotate(0) translate(4 128.5)">
<polygon fill="white" stroke="none" points="-4,4 -4,-128.5 1540.67,-128.5 1540.67,4 -4,4"/>
<!-- idClearing1 -->
<g id="node1" class="node">
<title>idClearing1</title>
<ellipse fill="none" stroke="black" cx="761.46" cy="-106.5" rx="54.42" ry="18"/>
<text text-anchor="middle" x="761.46" y="-101.45" font-family="Times,serif" font-size="14.00">idClearing1</text>
</g>
<!-- idClearing1&#45;&gt;idClearing1 -->
<g id="edge6" class="edge">
<title>idClearing1&#45;&gt;idClearing1</title>
<path fill="none" stroke="black" d="M810.54,-114.74C823.8,-114.3 833.88,-111.56 833.88,-106.5 833.88,-102.95 828.9,-100.53 821.33,-99.26"/>
<polygon fill="black" stroke="black" points="821.82,-95.7 811.54,-98.26 821.18,-102.67 821.82,-95.7"/>
<text text-anchor="middle" x="851.51" y="-101.45" font-family="Times,serif" font-size="14.00">isNear</text>
</g>
<!-- grassy -->
<g id="node2" class="node">
<title>grassy</title>
<ellipse fill="none" stroke="black" cx="34.46" cy="-18" rx="34.46" ry="18"/>
<text text-anchor="middle" x="34.46" y="-12.95" font-family="Times,serif" font-size="14.00">grassy</text>
</g>
<!-- idClearing1&#45;&gt;grassy -->
<g id="edge1" class="edge">
<title>idClearing1&#45;&gt;grassy</title>
<path fill="none" stroke="black" d="M706.71,-105.19C575.52,-103.99 246.23,-98.22 139.96,-70.5 113.35,-63.56 85.49,-49.63 65.08,-38"/>
<polygon fill="black" stroke="black" points="67.1,-34.55 56.7,-32.52 63.57,-40.59 67.1,-34.55"/>
<text text-anchor="middle" x="225.21" y="-57.2" font-family="Times,serif" font-size="14.00">idClearing1_prop_idDescriptor</text>
</g>
<!-- idPlayer -->
<g id="node3" class="node">
<title>idPlayer</title>
<ellipse fill="none" stroke="black" cx="204.46" cy="-18" rx="41.63" ry="18"/>
<text text-anchor="middle" x="204.46" y="-12.95" font-family="Times,serif" font-size="14.00">idPlayer</text>
</g>
<!-- idClearing1&#45;&gt;idPlayer -->
<g id="edge2" class="edge">
<title>idClearing1&#45;&gt;idPlayer</title>
<path fill="none" stroke="black" d="M707.37,-103.43C633.44,-99.94 496.91,-91.12 382.21,-70.5 334.58,-61.94 281.46,-45.62 245.8,-33.64"/>
<polygon fill="black" stroke="black" points="247.37,-30.14 236.78,-30.23 245.12,-36.76 247.37,-30.14"/>
<text text-anchor="middle" x="400.09" y="-57.2" font-family="Times,serif" font-size="14.00">isNear</text>
</g>
<!-- idGrass1 -->
<g id="node4" class="node">
<title>idGrass1</title>
<ellipse fill="none" stroke="black" cx="307.46" cy="-18" rx="43.67" ry="18"/>
<text text-anchor="middle" x="307.46" y="-12.95" font-family="Times,serif" font-size="14.00">idGrass1</text>
</g>
<!-- idClearing1&#45;&gt;idGrass1 -->
<g id="edge3" class="edge">
<title>idClearing1&#45;&gt;idGrass1</title>
<path fill="none" stroke="black" d="M709.05,-100.99C653.6,-95.72 563.71,-85.72 487.21,-70.5 429.95,-59.11 416.44,-52.59 360.46,-36 357.51,-35.12 354.47,-34.2 351.41,-33.26"/>
<polygon fill="black" stroke="black" points="352.63,-29.66 342.04,-30.02 350.54,-36.34 352.63,-29.66"/>
<text text-anchor="middle" x="505.09" y="-57.2" font-family="Times,serif" font-size="14.00">isNear</text>
</g>
<!-- idBranch1 -->
<g id="node5" class="node">
<title>idBranch1</title>
<ellipse fill="none" stroke="black" cx="418.46" cy="-18" rx="49.3" ry="18"/>
<text text-anchor="middle" x="418.46" y="-12.95" font-family="Times,serif" font-size="14.00">idBranch1</text>
</g>
<!-- idClearing1&#45;&gt;idBranch1 -->
<g id="edge4" class="edge">
<title>idClearing1&#45;&gt;idBranch1</title>
<path fill="none" stroke="black" d="M713.42,-97.81C676.69,-91.55 624.93,-81.9 580.21,-70.5 540.01,-60.26 495.12,-45.71 462.84,-34.68"/>
<polygon fill="black" stroke="black" points="464.42,-31.18 453.83,-31.24 462.15,-37.8 464.42,-31.18"/>
<text text-anchor="middle" x="598.09" y="-57.2" font-family="Times,serif" font-size="14.00">isNear</text>
</g>
<!-- idTheTrees1 -->
<g id="node6" class="node">
<title>idTheTrees1</title>
<ellipse fill="none" stroke="black" cx="543.46" cy="-18" rx="57.49" ry="18"/>
<text text-anchor="middle" x="543.46" y="-12.95" font-family="Times,serif" font-size="14.00">idTheTrees1</text>
</g>
<!-- idClearing1&#45;&gt;idTheTrees1 -->
<g id="edge5" class="edge">
<title>idClearing1&#45;&gt;idTheTrees1</title>
<path fill="none" stroke="black" d="M722.61,-93.68C702.59,-87.31 677.89,-79.03 656.21,-70.5 631.49,-60.78 604.39,-48.45 582.96,-38.3"/>
<polygon fill="black" stroke="black" points="584.77,-34.81 574.23,-33.66 581.75,-41.13 584.77,-34.81"/>
<text text-anchor="middle" x="684.59" y="-57.2" font-family="Times,serif" font-size="14.00">isInsideOf</text>
</g>
<!-- idRockyArea1 -->
<g id="node7" class="node">
<title>idRockyArea1</title>
<ellipse fill="none" stroke="black" cx="683.46" cy="-18" rx="64.66" ry="18"/>
<text text-anchor="middle" x="683.46" y="-12.95" font-family="Times,serif" font-size="14.00">idRockyArea1</text>
</g>
<!-- idClearing1&#45;&gt;idRockyArea1 -->
<g id="edge7" class="edge">
<title>idClearing1&#45;&gt;idRockyArea1</title>
<path fill="none" stroke="black" d="M746.42,-88.82C734.95,-76.1 718.96,-58.37 705.97,-43.96"/>
<polygon fill="black" stroke="black" points="709.02,-42 699.72,-36.92 703.82,-46.69 709.02,-42"/>
<text text-anchor="middle" x="752.71" y="-57.2" font-family="Times,serif" font-size="14.00">isEastOf</text>
</g>
<!-- idGlowingArea1 -->
<g id="node8" class="node">
<title>idGlowingArea1</title>
<ellipse fill="none" stroke="black" cx="839.46" cy="-18" rx="72.85" ry="18"/>
<text text-anchor="middle" x="839.46" y="-12.95" font-family="Times,serif" font-size="14.00">idGlowingArea1</text>
</g>
<!-- idClearing1&#45;&gt;idGlowingArea1 -->
<g id="edge8" class="edge">
<title>idClearing1&#45;&gt;idGlowingArea1</title>
<path fill="none" stroke="black" d="M776.5,-88.82C787.97,-76.1 803.96,-58.37 816.95,-43.96"/>
<polygon fill="black" stroke="black" points="819.11,-46.69 823.2,-36.92 813.91,-42 819.11,-46.69"/>
<text text-anchor="middle" x="834.84" y="-57.2" font-family="Times,serif" font-size="14.00">isNorthOf</text>
</g>
<!-- idRockPile1 -->
<g id="node9" class="node">
<title>idRockPile1</title>
<ellipse fill="none" stroke="black" cx="986.46" cy="-18" rx="56.47" ry="18"/>
<text text-anchor="middle" x="986.46" y="-12.95" font-family="Times,serif" font-size="14.00">idRockPile1</text>
</g>
<!-- idClearing1&#45;&gt;idRockPile1 -->
<g id="edge9" class="edge">
<title>idClearing1&#45;&gt;idRockPile1</title>
<path fill="none" stroke="black" d="M800.13,-93.46C820.09,-87.04 844.73,-78.77 866.46,-70.5 892.95,-60.42 922.18,-47.91 945.16,-37.74"/>
<polygon fill="black" stroke="black" points="946.21,-40.66 953.92,-33.39 943.36,-34.26 946.21,-40.66"/>
<text text-anchor="middle" x="929.71" y="-57.2" font-family="Times,serif" font-size="14.00">isEastOf</text>
</g>
<!-- idPebble1 -->
<g id="node10" class="node">
<title>idPebble1</title>
<ellipse fill="none" stroke="black" cx="1108.46" cy="-18" rx="47.77" ry="18"/>
<text text-anchor="middle" x="1108.46" y="-12.95" font-family="Times,serif" font-size="14.00">idPebble1</text>
</g>
<!-- idClearing1&#45;&gt;idPebble1 -->
<g id="edge10" class="edge">
<title>idClearing1&#45;&gt;idPebble1</title>
<path fill="none" stroke="black" d="M811.19,-98.67C850.86,-92.72 907.67,-83.07 956.46,-70.5 993.99,-60.83 1035.61,-46.46 1065.8,-35.36"/>
<polygon fill="black" stroke="black" points="1066.82,-38.34 1074.98,-31.58 1064.38,-31.78 1066.82,-38.34"/>
<text text-anchor="middle" x="1034.71" y="-57.2" font-family="Times,serif" font-size="14.00">isEastOf</text>
</g>
<!-- idGlowingGrass1 -->
<g id="node11" class="node">
<title>idGlowingGrass1</title>
<ellipse fill="none" stroke="black" cx="1250.46" cy="-18" rx="75.92" ry="18"/>
<text text-anchor="middle" x="1250.46" y="-12.95" font-family="Times,serif" font-size="14.00">idGlowingGrass1</text>
</g>
<!-- idClearing1&#45;&gt;idGlowingGrass1 -->
<g id="edge11" class="edge">
<title>idClearing1&#45;&gt;idGlowingGrass1</title>
<path fill="none" stroke="black" d="M814.4,-101.74C874.62,-96.9 975.74,-87.08 1061.46,-70.5 1107.39,-61.61 1158.54,-47.41 1196.03,-36.16"/>
<polygon fill="black" stroke="black" points="1196.67,-39.32 1205.23,-33.08 1194.64,-32.62 1196.67,-39.32"/>
<text text-anchor="middle" x="1157.84" y="-57.2" font-family="Times,serif" font-size="14.00">isNorthOf</text>
</g>
<!-- idCave1 -->
<g id="node12" class="node">
<title>idCave1</title>
<ellipse fill="none" stroke="black" cx="1386.46" cy="-18" rx="41.63" ry="18"/>
<text text-anchor="middle" x="1386.46" y="-12.95" font-family="Times,serif" font-size="14.00">idCave1</text>
</g>
<!-- idClearing1&#45;&gt;idCave1 -->
<g id="edge12" class="edge">
<title>idClearing1&#45;&gt;idCave1</title>
<path fill="none" stroke="black" d="M815.49,-103.69C896.97,-100.37 1055.99,-91.6 1189.46,-70.5 1255.32,-60.09 1271.33,-54.23 1335.46,-36 1338.41,-35.16 1341.44,-34.26 1344.48,-33.32"/>
<polygon fill="black" stroke="black" points="1345.3,-36.42 1353.77,-30.05 1343.18,-29.75 1345.3,-36.42"/>
<text text-anchor="middle" x="1297.84" y="-57.2" font-family="Times,serif" font-size="14.00">isSouthOf</text>
</g>
<!-- idBottle1 -->
<g id="node13" class="node">
<title>idBottle1</title>
<ellipse fill="none" stroke="black" cx="1491.46" cy="-18" rx="45.21" ry="18"/>
<text text-anchor="middle" x="1491.46" y="-12.95" font-family="Times,serif" font-size="14.00">idBottle1</text>
</g>
<!-- idClearing1&#45;&gt;idBottle1 -->
<g id="edge13" class="edge">
<title>idClearing1&#45;&gt;idBottle1</title>
<path fill="none" stroke="black" d="M815.79,-103.86C938.1,-99.88 1231.98,-88.71 1329.46,-70.5 1371.61,-62.63 1418.09,-47.1 1450.41,-35.15"/>
<polygon fill="black" stroke="black" points="1451.25,-38.2 1459.39,-31.41 1448.8,-31.64 1451.25,-38.2"/>
<text text-anchor="middle" x="1416.71" y="-57.2" font-family="Times,serif" font-size="14.00">isEastOf</text>
</g>
</g>
</svg>
