<?xml version="1.0" encoding="UTF-8" standalone="no"?>
<!DOCTYPE svg PUBLIC "-//W3C//DTD SVG 1.1//EN"
 "http://www.w3.org/Graphics/SVG/1.1/DTD/svg11.dtd">
<!-- Generated by graphviz version 8.1.0 (20230707.0739)
 -->
<!-- Pages: 1 -->
<svg width="2008pt" height="133pt"
 viewBox="0.00 0.00 2008.18 132.50" xmlns="http://www.w3.org/2000/svg" xmlns:xlink="http://www.w3.org/1999/xlink">
<g id="graph0" class="graph" transform="scale(1 1) rotate(0) translate(4 128.5)">
<polygon fill="white" stroke="none" points="-4,4 -4,-128.5 2004.18,-128.5 2004.18,4 -4,4"/>
<!-- idGlowingArea1 -->
<g id="node1" class="node">
<title>idGlowingArea1</title>
<ellipse fill="none" stroke="black" cx="974.12" cy="-106.5" rx="72.85" ry="18"/>
<text text-anchor="middle" x="974.12" y="-101.45" font-family="Times,serif" font-size="14.00">idGlowingArea1</text>
</g>
<!-- idGlowingArea1&#45;&gt;idGlowingArea1 -->
<g id="edge6" class="edge">
<title>idGlowingArea1&#45;&gt;idGlowingArea1</title>
<path fill="none" stroke="black" d="M1039.85,-114.57C1054.38,-113.81 1064.96,-111.12 1064.96,-106.5 1064.96,-103.14 1059.38,-100.8 1050.75,-99.48"/>
<polygon fill="black" stroke="black" points="1051.15,-95.91 1040.85,-98.43 1050.47,-102.87 1051.15,-95.91"/>
<text text-anchor="middle" x="1082.59" y="-101.45" font-family="Times,serif" font-size="14.00">isNear</text>
</g>
<!-- glowing -->
<g id="node2" class="node">
<title>glowing</title>
<ellipse fill="none" stroke="black" cx="41.12" cy="-18" rx="41.12" ry="18"/>
<text text-anchor="middle" x="41.12" y="-12.95" font-family="Times,serif" font-size="14.00">glowing</text>
</g>
<!-- idGlowingArea1&#45;&gt;glowing -->
<g id="edge1" class="edge">
<title>idGlowingArea1&#45;&gt;glowing</title>
<path fill="none" stroke="black" d="M900.98,-106.08C726.83,-106.86 291.66,-105.17 150.62,-70.5 123.32,-63.79 94.64,-50.02 73.48,-38.41"/>
<polygon fill="black" stroke="black" points="75.46,-34.95 65.03,-33.09 72.03,-41.05 75.46,-34.95"/>
<text text-anchor="middle" x="249.37" y="-57.2" font-family="Times,serif" font-size="14.00">idGlowingArea1_prop_idDescriptor</text>
</g>
<!-- idGlowingGrass1 -->
<g id="node3" class="node">
<title>idGlowingGrass1</title>
<ellipse fill="none" stroke="black" cx="218.12" cy="-18" rx="75.92" ry="18"/>
<text text-anchor="middle" x="218.12" y="-12.95" font-family="Times,serif" font-size="14.00">idGlowingGrass1</text>
</g>
<!-- idGlowingArea1&#45;&gt;idGlowingGrass1 -->
<g id="edge2" class="edge">
<title>idGlowingArea1&#45;&gt;idGlowingGrass1</title>
<path fill="none" stroke="black" d="M901.17,-104.69C796.97,-102.65 599.77,-95.49 433.87,-70.5 379.45,-62.3 318.57,-47.21 275.38,-35.48"/>
<polygon fill="black" stroke="black" points="276.37,-31.84 265.8,-32.57 274.52,-38.59 276.37,-31.84"/>
<text text-anchor="middle" x="451.74" y="-57.2" font-family="Times,serif" font-size="14.00">isNear</text>
</g>
<!-- idTheTrees1 -->
<g id="node4" class="node">
<title>idTheTrees1</title>
<ellipse fill="none" stroke="black" cx="369.12" cy="-18" rx="57.49" ry="18"/>
<text text-anchor="middle" x="369.12" y="-12.95" font-family="Times,serif" font-size="14.00">idTheTrees1</text>
</g>
<!-- idGlowingArea1&#45;&gt;idTheTrees1 -->
<g id="edge3" class="edge">
<title>idGlowingArea1&#45;&gt;idTheTrees1</title>
<path fill="none" stroke="black" d="M901.47,-104.4C814.55,-102 664.92,-94.4 538.87,-70.5 496.23,-62.41 449.09,-47.62 415.33,-35.96"/>
<polygon fill="black" stroke="black" points="416.9,-32.45 406.3,-32.45 414.59,-39.06 416.9,-32.45"/>
<text text-anchor="middle" x="567.24" y="-57.2" font-family="Times,serif" font-size="14.00">isInsideOf</text>
</g>
<!-- idClearing1 -->
<g id="node5" class="node">
<title>idClearing1</title>
<ellipse fill="none" stroke="black" cx="499.12" cy="-18" rx="54.42" ry="18"/>
<text text-anchor="middle" x="499.12" y="-12.95" font-family="Times,serif" font-size="14.00">idClearing1</text>
</g>
<!-- idGlowingArea1&#45;&gt;idClearing1 -->
<g id="edge4" class="edge">
<title>idGlowingArea1&#45;&gt;idClearing1</title>
<path fill="none" stroke="black" d="M903.17,-101.97C838.11,-97.72 739.42,-88.76 655.37,-70.5 616.62,-62.08 573.96,-47.65 543.01,-36.21"/>
<polygon fill="black" stroke="black" points="544.58,-32.68 533.99,-32.45 542.12,-39.24 544.58,-32.68"/>
<text text-anchor="middle" x="683.49" y="-57.2" font-family="Times,serif" font-size="14.00">isSouthOf</text>
</g>
<!-- idRockyArea1 -->
<g id="node6" class="node">
<title>idRockyArea1</title>
<ellipse fill="none" stroke="black" cx="636.12" cy="-18" rx="64.66" ry="18"/>
<text text-anchor="middle" x="636.12" y="-12.95" font-family="Times,serif" font-size="14.00">idRockyArea1</text>
</g>
<!-- idGlowingArea1&#45;&gt;idRockyArea1 -->
<g id="edge5" class="edge">
<title>idGlowingArea1&#45;&gt;idRockyArea1</title>
<path fill="none" stroke="black" d="M907.68,-98.84C864.61,-93.51 807.62,-84.56 758.62,-70.5 730.41,-62.41 700,-49.64 676.53,-38.85"/>
<polygon fill="black" stroke="black" points="678.14,-35.27 667.6,-34.21 675.18,-41.61 678.14,-35.27"/>
<text text-anchor="middle" x="782.37" y="-57.2" font-family="Times,serif" font-size="14.00">isEastOf</text>
</g>
<!-- idPlayer -->
<g id="node7" class="node">
<title>idPlayer</title>
<ellipse fill="none" stroke="black" cx="760.12" cy="-18" rx="41.63" ry="18"/>
<text text-anchor="middle" x="760.12" y="-12.95" font-family="Times,serif" font-size="14.00">idPlayer</text>
</g>
<!-- idGlowingArea1&#45;&gt;idPlayer -->
<g id="edge7" class="edge">
<title>idGlowingArea1&#45;&gt;idPlayer</title>
<path fill="none" stroke="black" d="M916.57,-95.07C891.87,-89.48 863.06,-81.45 838.37,-70.5 820.68,-62.66 802.54,-50.99 788.18,-40.74"/>
<polygon fill="black" stroke="black" points="790.47,-37.34 780.33,-34.26 786.33,-42.99 790.47,-37.34"/>
<text text-anchor="middle" x="866.49" y="-57.2" font-family="Times,serif" font-size="14.00">isSouthOf</text>
</g>
<!-- idGrass1 -->
<g id="node8" class="node">
<title>idGrass1</title>
<ellipse fill="none" stroke="black" cx="863.12" cy="-18" rx="43.67" ry="18"/>
<text text-anchor="middle" x="863.12" y="-12.95" font-family="Times,serif" font-size="14.00">idGrass1</text>
</g>
<!-- idGlowingArea1&#45;&gt;idGrass1 -->
<g id="edge8" class="edge">
<title>idGlowingArea1&#45;&gt;idGrass1</title>
<path fill="none" stroke="black" d="M944.52,-89.74C934.9,-84.13 924.39,-77.47 915.37,-70.5 904.76,-62.31 894.05,-52.16 885.11,-43.03"/>
<polygon fill="black" stroke="black" points="888.2,-41.16 878.76,-36.36 883.15,-46 888.2,-41.16"/>
<text text-anchor="middle" x="943.49" y="-57.2" font-family="Times,serif" font-size="14.00">isSouthOf</text>
</g>
<!-- idBranch1 -->
<g id="node9" class="node">
<title>idBranch1</title>
<ellipse fill="none" stroke="black" cx="974.12" cy="-18" rx="49.3" ry="18"/>
<text text-anchor="middle" x="974.12" y="-12.95" font-family="Times,serif" font-size="14.00">idBranch1</text>
</g>
<!-- idGlowingArea1&#45;&gt;idBranch1 -->
<g id="edge9" class="edge">
<title>idGlowingArea1&#45;&gt;idBranch1</title>
<path fill="none" stroke="black" d="M974.12,-88.41C974.12,-76.64 974.12,-60.73 974.12,-47.11"/>
<polygon fill="black" stroke="black" points="977.62,-47.35 974.12,-37.35 970.62,-47.35 977.62,-47.35"/>
<text text-anchor="middle" x="1001.49" y="-57.2" font-family="Times,serif" font-size="14.00">isSouthOf</text>
</g>
<!-- idRockPile1 -->
<g id="node10" class="node">
<title>idRockPile1</title>
<ellipse fill="none" stroke="black" cx="1098.12" cy="-18" rx="56.47" ry="18"/>
<text text-anchor="middle" x="1098.12" y="-12.95" font-family="Times,serif" font-size="14.00">idRockPile1</text>
</g>
<!-- idGlowingArea1&#45;&gt;idRockPile1 -->
<g id="edge10" class="edge">
<title>idGlowingArea1&#45;&gt;idRockPile1</title>
<path fill="none" stroke="black" d="M1002.81,-89.52C1012.6,-83.8 1023.5,-77.12 1033.12,-70.5 1045.87,-61.72 1059.39,-51.22 1070.77,-42.01"/>
<polygon fill="black" stroke="black" points="1072.49,-44.3 1078.01,-35.26 1068.06,-38.89 1072.49,-44.3"/>
<text text-anchor="middle" x="1079.37" y="-57.2" font-family="Times,serif" font-size="14.00">isEastOf</text>
</g>
<!-- idPebble1 -->
<g id="node11" class="node">
<title>idPebble1</title>
<ellipse fill="none" stroke="black" cx="1220.12" cy="-18" rx="47.77" ry="18"/>
<text text-anchor="middle" x="1220.12" y="-12.95" font-family="Times,serif" font-size="14.00">idPebble1</text>
</g>
<!-- idGlowingArea1&#45;&gt;idPebble1 -->
<g id="edge11" class="edge">
<title>idGlowingArea1&#45;&gt;idPebble1</title>
<path fill="none" stroke="black" d="M1026.76,-93.66C1051.18,-87.63 1080.43,-79.64 1106.12,-70.5 1132.38,-61.16 1160.96,-48.24 1182.94,-37.68"/>
<polygon fill="black" stroke="black" points="1184.07,-40.53 1191.54,-33.01 1181.01,-34.24 1184.07,-40.53"/>
<text text-anchor="middle" x="1168.37" y="-57.2" font-family="Times,serif" font-size="14.00">isEastOf</text>
</g>
<!-- idCave1 -->
<g id="node12" class="node">
<title>idCave1</title>
<ellipse fill="none" stroke="black" cx="1327.12" cy="-18" rx="41.63" ry="18"/>
<text text-anchor="middle" x="1327.12" y="-12.95" font-family="Times,serif" font-size="14.00">idCave1</text>
</g>
<!-- idGlowingArea1&#45;&gt;idCave1 -->
<g id="edge12" class="edge">
<title>idGlowingArea1&#45;&gt;idCave1</title>
<path fill="none" stroke="black" d="M1040.66,-98.74C1084.94,-93.33 1144.12,-84.31 1195.12,-70.5 1227.81,-61.64 1263.53,-47.41 1289.56,-36.15"/>
<polygon fill="black" stroke="black" points="1290.63,-39.06 1298.38,-31.84 1287.82,-32.65 1290.63,-39.06"/>
<text text-anchor="middle" x="1271.49" y="-57.2" font-family="Times,serif" font-size="14.00">isSouthOf</text>
</g>
<!-- idBottle1 -->
<g id="node13" class="node">
<title>idBottle1</title>
<ellipse fill="none" stroke="black" cx="1432.12" cy="-18" rx="45.21" ry="18"/>
<text text-anchor="middle" x="1432.12" y="-12.95" font-family="Times,serif" font-size="14.00">idBottle1</text>
</g>
<!-- idGlowingArea1&#45;&gt;idBottle1 -->
<g id="edge13" class="edge">
<title>idGlowingArea1&#45;&gt;idBottle1</title>
<path fill="none" stroke="black" d="M1046.33,-103.49C1113.66,-100.28 1216.42,-91.98 1303.12,-70.5 1335,-62.6 1369.48,-48.52 1394.77,-37.08"/>
<polygon fill="black" stroke="black" points="1396.04,-39.89 1403.66,-32.53 1393.12,-33.53 1396.04,-39.89"/>
<text text-anchor="middle" x="1377.37" y="-57.2" font-family="Times,serif" font-size="14.00">isEastOf</text>
</g>
<!-- idPlayerBackside -->
<g id="node14" class="node">
<title>idPlayerBackside</title>
<ellipse fill="none" stroke="black" cx="1571.12" cy="-18" rx="75.41" ry="18"/>
<text text-anchor="middle" x="1571.12" y="-12.95" font-family="Times,serif" font-size="14.00">idPlayerBackside</text>
</g>
<!-- idGlowingArea1&#45;&gt;idPlayerBackside -->
<g id="edge14" class="edge">
<title>idGlowingArea1&#45;&gt;idPlayerBackside</title>
<path fill="none" stroke="black" d="M1046.66,-104.4C1132.67,-101.99 1280,-94.39 1404.12,-70.5 1444.44,-62.74 1488.81,-48.79 1521.67,-37.36"/>
<polygon fill="black" stroke="black" points="1522.65,-40.38 1530.92,-33.75 1520.32,-33.77 1522.65,-40.38"/>
<text text-anchor="middle" x="1497.49" y="-57.2" font-family="Times,serif" font-size="14.00">isSouthOf</text>
</g>
<!-- idPlayerLeftHand -->
<g id="node15" class="node">
<title>idPlayerLeftHand</title>
<ellipse fill="none" stroke="black" cx="1741.12" cy="-18" rx="76.94" ry="18"/>
<text text-anchor="middle" x="1741.12" y="-12.95" font-family="Times,serif" font-size="14.00">idPlayerLeftHand</text>
</g>
<!-- idGlowingArea1&#45;&gt;idPlayerLeftHand -->
<g id="edge15" class="edge">
<title>idGlowingArea1&#45;&gt;idPlayerLeftHand</title>
<path fill="none" stroke="black" d="M1046.83,-104.97C1153.29,-103.27 1357.54,-96.54 1529.12,-70.5 1582.45,-62.4 1642.06,-47.38 1684.45,-35.63"/>
<polygon fill="black" stroke="black" points="1685.16,-38.79 1693.85,-32.73 1683.27,-32.05 1685.16,-38.79"/>
<text text-anchor="middle" x="1639.49" y="-57.2" font-family="Times,serif" font-size="14.00">isSouthOf</text>
</g>
<!-- idPlayerRightHand -->
<g id="node16" class="node">
<title>idPlayerRightHand</title>
<ellipse fill="none" stroke="black" cx="1918.12" cy="-18" rx="82.06" ry="18"/>
<text text-anchor="middle" x="1918.12" y="-12.95" font-family="Times,serif" font-size="14.00">idPlayerRightHand</text>
</g>
<!-- idGlowingArea1&#45;&gt;idPlayerRightHand -->
<g id="edge16" class="edge">
<title>idGlowingArea1&#45;&gt;idPlayerRightHand</title>
<path fill="none" stroke="black" d="M1047.2,-105.55C1174.48,-104.82 1444.89,-99.58 1671.12,-70.5 1734.46,-62.36 1805.77,-46.78 1855.43,-34.89"/>
<polygon fill="black" stroke="black" points="1856.1,-38.08 1865,-32.33 1854.45,-31.28 1856.1,-38.08"/>
<text text-anchor="middle" x="1794.49" y="-57.2" font-family="Times,serif" font-size="14.00">isSouthOf</text>
</g>
</g>
</svg>
