<?xml version="1.0" encoding="UTF-8" standalone="no"?>
<!DOCTYPE svg PUBLIC "-//W3C//DTD SVG 1.1//EN"
 "http://www.w3.org/Graphics/SVG/1.1/DTD/svg11.dtd">
<!-- Generated by graphviz version 8.1.0 (20230707.0739)
 -->
<!-- Pages: 1 -->
<svg width="2734pt" height="133pt"
 viewBox="0.00 0.00 2733.86 132.50" xmlns="http://www.w3.org/2000/svg" xmlns:xlink="http://www.w3.org/1999/xlink">
<g id="graph0" class="graph" transform="scale(1 1) rotate(0) translate(4 128.5)">
<polygon fill="white" stroke="none" points="-4,4 -4,-128.5 2729.86,-128.5 2729.86,4 -4,4"/>
<!-- idGlowingGrass1 -->
<g id="node1" class="node">
<title>idGlowingGrass1</title>
<ellipse fill="none" stroke="black" cx="1462.39" cy="-106.5" rx="75.92" ry="18"/>
<text text-anchor="middle" x="1462.39" y="-101.45" font-family="Times,serif" font-size="14.00">idGlowingGrass1</text>
</g>
<!-- idGlowingGrass1&#45;&gt;idGlowingGrass1 -->
<g id="edge8" class="edge">
<title>idGlowingGrass1&#45;&gt;idGlowingGrass1</title>
<path fill="none" stroke="black" d="M1531.19,-114.53C1545.78,-113.71 1556.31,-111.04 1556.31,-106.5 1556.31,-103.2 1550.75,-100.89 1542.11,-99.56"/>
<polygon fill="black" stroke="black" points="1542.49,-95.98 1532.19,-98.47 1541.79,-102.94 1542.49,-95.98"/>
<text text-anchor="middle" x="1573.93" y="-101.45" font-family="Times,serif" font-size="14.00">isNear</text>
</g>
<!-- green -->
<g id="node2" class="node">
<title>green</title>
<ellipse fill="none" stroke="black" cx="31.39" cy="-18" rx="31.39" ry="18"/>
<text text-anchor="middle" x="31.39" y="-12.95" font-family="Times,serif" font-size="14.00">green</text>
</g>
<!-- idGlowingGrass1&#45;&gt;green -->
<g id="edge1" class="edge">
<title>idGlowingGrass1&#45;&gt;green</title>
<path fill="none" stroke="black" d="M1386.11,-105.66C1101.88,-106.01 117.78,-104.72 60.64,-70.5 51.44,-64.99 44.88,-55.42 40.34,-46.02"/>
<polygon fill="black" stroke="black" points="43.27,-44.95 36.17,-37.08 36.81,-47.65 43.27,-44.95"/>
<text text-anchor="middle" x="148.77" y="-57.2" font-family="Times,serif" font-size="14.00">idGlowingGrass1_prop_idColor</text>
</g>
<!-- bright -->
<g id="node3" class="node">
<title>bright</title>
<ellipse fill="none" stroke="black" cx="229.39" cy="-18" rx="32.93" ry="18"/>
<text text-anchor="middle" x="229.39" y="-12.95" font-family="Times,serif" font-size="14.00">bright</text>
</g>
<!-- idGlowingGrass1&#45;&gt;bright -->
<g id="edge2" class="edge">
<title>idGlowingGrass1&#45;&gt;bright</title>
<path fill="none" stroke="black" d="M1386.41,-105.53C1128.36,-105.34 298.94,-102.27 251.89,-70.5 243.75,-65.01 238.54,-55.87 235.2,-46.81"/>
<polygon fill="black" stroke="black" points="238.31,-46 232.09,-37.43 231.61,-48.01 238.31,-46"/>
<text text-anchor="middle" x="335.64" y="-57.2" font-family="Times,serif" font-size="14.00">idGlowingGrass1_prop_idTint</text>
</g>
<!-- glowing -->
<g id="node4" class="node">
<title>glowing</title>
<ellipse fill="none" stroke="black" cx="419.39" cy="-18" rx="41.12" ry="18"/>
<text text-anchor="middle" x="419.39" y="-12.95" font-family="Times,serif" font-size="14.00">glowing</text>
</g>
<!-- idGlowingGrass1&#45;&gt;glowing -->
<g id="edge3" class="edge">
<title>idGlowingGrass1&#45;&gt;glowing</title>
<path fill="none" stroke="black" d="M1386.48,-105.4C1154.66,-104.76 469.38,-100.34 432.39,-70.5 425.33,-64.8 421.77,-55.87 420.07,-47.04"/>
<polygon fill="black" stroke="black" points="423.44,-46.67 418.79,-37.15 416.48,-47.49 423.44,-46.67"/>
<text text-anchor="middle" x="532.89" y="-57.2" font-family="Times,serif" font-size="14.00">idGlowingGrass1_prop_idDescriptor</text>
</g>
<!-- uncountable -->
<g id="node5" class="node">
<title>uncountable</title>
<ellipse fill="none" stroke="black" cx="643.39" cy="-18" rx="55.96" ry="18"/>
<text text-anchor="middle" x="643.39" y="-12.95" font-family="Times,serif" font-size="14.00">uncountable</text>
</g>
<!-- idGlowingGrass1&#45;&gt;uncountable -->
<g id="edge4" class="edge">
<title>idGlowingGrass1&#45;&gt;uncountable</title>
<path fill="none" stroke="black" d="M1386.28,-105.06C1187.91,-103.56 668.61,-97.08 643.14,-70.5 637.14,-64.24 635.72,-55.32 636.28,-46.67"/>
<polygon fill="black" stroke="black" points="639.85,-47.46 637.84,-37.06 632.92,-46.44 639.85,-47.46"/>
<text text-anchor="middle" x="748.02" y="-57.2" font-family="Times,serif" font-size="14.00">idGlowingGrass1_prop_idArticleType</text>
</g>
<!-- yes -->
<g id="node6" class="node">
<title>yes</title>
<ellipse fill="none" stroke="black" cx="828.39" cy="-18" rx="27" ry="18"/>
<text text-anchor="middle" x="828.39" y="-12.95" font-family="Times,serif" font-size="14.00">yes</text>
</g>
<!-- idGlowingGrass1&#45;&gt;yes -->
<g id="edge5" class="edge">
<title>idGlowingGrass1&#45;&gt;yes</title>
<path fill="none" stroke="black" d="M1386.63,-104.3C1237.7,-101.47 917.3,-92.83 872.39,-70.5 865.89,-67.27 855.42,-55.16 846.32,-43.5"/>
<polygon fill="black" stroke="black" points="848.56,-41.67 839.72,-35.83 842.99,-45.91 848.56,-41.67"/>
<text text-anchor="middle" x="975.89" y="-57.2" font-family="Times,serif" font-size="14.00">idGlowingGrass1_prop_idImmovable</text>
</g>
<!-- idGlowingArea1 -->
<g id="node7" class="node">
<title>idGlowingArea1</title>
<ellipse fill="none" stroke="black" cx="946.39" cy="-18" rx="72.85" ry="18"/>
<text text-anchor="middle" x="946.39" y="-12.95" font-family="Times,serif" font-size="14.00">idGlowingArea1</text>
</g>
<!-- idGlowingGrass1&#45;&gt;idGlowingArea1 -->
<g id="edge6" class="edge">
<title>idGlowingGrass1&#45;&gt;idGlowingArea1</title>
<path fill="none" stroke="black" d="M1389.21,-101.21C1323.53,-96.5 1224.74,-87.26 1140.14,-70.5 1114.37,-65.4 1108.73,-60.92 1083.39,-54 1058.54,-47.22 1031.05,-40.11 1007.25,-34.09"/>
<polygon fill="black" stroke="black" points="1008.15,-30.46 997.6,-31.41 1006.44,-37.25 1008.15,-30.46"/>
<text text-anchor="middle" x="1158.02" y="-57.2" font-family="Times,serif" font-size="14.00">isNear</text>
</g>
<!-- idTheTrees1 -->
<g id="node8" class="node">
<title>idTheTrees1</title>
<ellipse fill="none" stroke="black" cx="1094.39" cy="-18" rx="57.49" ry="18"/>
<text text-anchor="middle" x="1094.39" y="-12.95" font-family="Times,serif" font-size="14.00">idTheTrees1</text>
</g>
<!-- idGlowingGrass1&#45;&gt;idTheTrees1 -->
<g id="edge7" class="edge">
<title>idGlowingGrass1&#45;&gt;idTheTrees1</title>
<path fill="none" stroke="black" d="M1392.34,-99.2C1345.12,-93.95 1281.73,-84.96 1227.14,-70.5 1195.6,-62.15 1161.3,-48.72 1135.46,-37.67"/>
<polygon fill="black" stroke="black" points="1137.22,-34.18 1126.65,-33.41 1134.43,-40.6 1137.22,-34.18"/>
<text text-anchor="middle" x="1255.52" y="-57.2" font-family="Times,serif" font-size="14.00">isInsideOf</text>
</g>
<!-- idClearing1 -->
<g id="node9" class="node">
<title>idClearing1</title>
<ellipse fill="none" stroke="black" cx="1224.39" cy="-18" rx="54.42" ry="18"/>
<text text-anchor="middle" x="1224.39" y="-12.95" font-family="Times,serif" font-size="14.00">idClearing1</text>
</g>
<!-- idGlowingGrass1&#45;&gt;idClearing1 -->
<g id="edge9" class="edge">
<title>idGlowingGrass1&#45;&gt;idClearing1</title>
<path fill="none" stroke="black" d="M1405.44,-94.27C1380,-88.45 1349.89,-80.46 1323.64,-70.5 1301.49,-62.09 1277.9,-49.99 1259.27,-39.63"/>
<polygon fill="black" stroke="black" points="1261.18,-36.12 1250.75,-34.25 1257.74,-42.22 1261.18,-36.12"/>
<text text-anchor="middle" x="1351.77" y="-57.2" font-family="Times,serif" font-size="14.00">isSouthOf</text>
</g>
<!-- idCave1 -->
<g id="node10" class="node">
<title>idCave1</title>
<ellipse fill="none" stroke="black" cx="1338.39" cy="-18" rx="41.63" ry="18"/>
<text text-anchor="middle" x="1338.39" y="-12.95" font-family="Times,serif" font-size="14.00">idCave1</text>
</g>
<!-- idGlowingGrass1&#45;&gt;idCave1 -->
<g id="edge10" class="edge">
<title>idGlowingGrass1&#45;&gt;idCave1</title>
<path fill="none" stroke="black" d="M1433.83,-89.5C1424.08,-83.77 1413.23,-77.1 1403.64,-70.5 1390.57,-61.5 1376.69,-50.73 1365.1,-41.37"/>
<polygon fill="black" stroke="black" points="1367.7,-38.16 1357.74,-34.54 1363.27,-43.58 1367.7,-38.16"/>
<text text-anchor="middle" x="1431.77" y="-57.2" font-family="Times,serif" font-size="14.00">isSouthOf</text>
</g>
<!-- idRockyArea1 -->
<g id="node11" class="node">
<title>idRockyArea1</title>
<ellipse fill="none" stroke="black" cx="1462.39" cy="-18" rx="64.66" ry="18"/>
<text text-anchor="middle" x="1462.39" y="-12.95" font-family="Times,serif" font-size="14.00">idRockyArea1</text>
</g>
<!-- idGlowingGrass1&#45;&gt;idRockyArea1 -->
<g id="edge11" class="edge">
<title>idGlowingGrass1&#45;&gt;idRockyArea1</title>
<path fill="none" stroke="black" d="M1462.39,-88.41C1462.39,-76.64 1462.39,-60.73 1462.39,-47.11"/>
<polygon fill="black" stroke="black" points="1465.89,-47.35 1462.39,-37.35 1458.89,-47.35 1465.89,-47.35"/>
<text text-anchor="middle" x="1485.64" y="-57.2" font-family="Times,serif" font-size="14.00">isEastOf</text>
</g>
<!-- idBottle1 -->
<g id="node12" class="node">
<title>idBottle1</title>
<ellipse fill="none" stroke="black" cx="1590.39" cy="-18" rx="45.21" ry="18"/>
<text text-anchor="middle" x="1590.39" y="-12.95" font-family="Times,serif" font-size="14.00">idBottle1</text>
</g>
<!-- idGlowingGrass1&#45;&gt;idBottle1 -->
<g id="edge12" class="edge">
<title>idGlowingGrass1&#45;&gt;idBottle1</title>
<path fill="none" stroke="black" d="M1486.77,-89.03C1507.33,-75.13 1536.89,-55.15 1559.18,-40.09"/>
<polygon fill="black" stroke="black" points="1560.92,-42.47 1567.24,-33.97 1557,-36.67 1560.92,-42.47"/>
<text text-anchor="middle" x="1561.64" y="-57.2" font-family="Times,serif" font-size="14.00">isEastOf</text>
</g>
<!-- idBranch1 -->
<g id="node13" class="node">
<title>idBranch1</title>
<ellipse fill="none" stroke="black" cx="1703.39" cy="-18" rx="49.3" ry="18"/>
<text text-anchor="middle" x="1703.39" y="-12.95" font-family="Times,serif" font-size="14.00">idBranch1</text>
</g>
<!-- idGlowingGrass1&#45;&gt;idBranch1 -->
<g id="edge13" class="edge">
<title>idGlowingGrass1&#45;&gt;idBranch1</title>
<path fill="none" stroke="black" d="M1514.13,-93C1537.12,-86.97 1564.36,-79.16 1588.39,-70.5 1614.62,-61.04 1643.25,-48.23 1665.37,-37.76"/>
<polygon fill="black" stroke="black" points="1666.54,-40.6 1674.05,-33.13 1663.52,-34.29 1666.54,-40.6"/>
<text text-anchor="middle" x="1654.77" y="-57.2" font-family="Times,serif" font-size="14.00">isSouthOf</text>
</g>
<!-- idGrass1 -->
<g id="node14" class="node">
<title>idGrass1</title>
<ellipse fill="none" stroke="black" cx="1814.39" cy="-18" rx="43.67" ry="18"/>
<text text-anchor="middle" x="1814.39" y="-12.95" font-family="Times,serif" font-size="14.00">idGrass1</text>
</g>
<!-- idGlowingGrass1&#45;&gt;idGrass1 -->
<g id="edge14" class="edge">
<title>idGlowingGrass1&#45;&gt;idGrass1</title>
<path fill="none" stroke="black" d="M1531.38,-98.83C1576.11,-93.5 1635.35,-84.56 1686.39,-70.5 1717.65,-61.89 1751.63,-47.99 1776.73,-36.8"/>
<polygon fill="black" stroke="black" points="1777.89,-39.66 1785.56,-32.35 1775.01,-33.28 1777.89,-39.66"/>
<text text-anchor="middle" x="1760.77" y="-57.2" font-family="Times,serif" font-size="14.00">isSouthOf</text>
</g>
<!-- idPebble1 -->
<g id="node15" class="node">
<title>idPebble1</title>
<ellipse fill="none" stroke="black" cx="1923.39" cy="-18" rx="47.77" ry="18"/>
<text text-anchor="middle" x="1923.39" y="-12.95" font-family="Times,serif" font-size="14.00">idPebble1</text>
</g>
<!-- idGlowingGrass1&#45;&gt;idPebble1 -->
<g id="edge15" class="edge">
<title>idGlowingGrass1&#45;&gt;idPebble1</title>
<path fill="none" stroke="black" d="M1537.42,-103.28C1604.96,-99.93 1706.49,-91.53 1792.39,-70.5 1824.56,-62.62 1859.38,-48.66 1885.03,-37.25"/>
<polygon fill="black" stroke="black" points="1886.06,-40.17 1893.73,-32.87 1883.17,-33.8 1886.06,-40.17"/>
<text text-anchor="middle" x="1867.64" y="-57.2" font-family="Times,serif" font-size="14.00">isEastOf</text>
</g>
<!-- idPlayer -->
<g id="node16" class="node">
<title>idPlayer</title>
<ellipse fill="none" stroke="black" cx="2030.39" cy="-18" rx="41.63" ry="18"/>
<text text-anchor="middle" x="2030.39" y="-12.95" font-family="Times,serif" font-size="14.00">idPlayer</text>
</g>
<!-- idGlowingGrass1&#45;&gt;idPlayer -->
<g id="edge16" class="edge">
<title>idGlowingGrass1&#45;&gt;idPlayer</title>
<path fill="none" stroke="black" d="M1538.67,-105.75C1625.75,-104.56 1771.98,-98.06 1894.39,-70.5 1928.9,-62.73 1966.37,-48.04 1993.22,-36.33"/>
<polygon fill="black" stroke="black" points="1994.25,-39.26 2001.97,-32.01 1991.41,-32.87 1994.25,-39.26"/>
<text text-anchor="middle" x="1975.77" y="-57.2" font-family="Times,serif" font-size="14.00">isSouthOf</text>
</g>
<!-- idPlayerBackside -->
<g id="node17" class="node">
<title>idPlayerBackside</title>
<ellipse fill="none" stroke="black" cx="2165.39" cy="-18" rx="75.41" ry="18"/>
<text text-anchor="middle" x="2165.39" y="-12.95" font-family="Times,serif" font-size="14.00">idPlayerBackside</text>
</g>
<!-- idGlowingGrass1&#45;&gt;idPlayerBackside -->
<g id="edge17" class="edge">
<title>idGlowingGrass1&#45;&gt;idPlayerBackside</title>
<path fill="none" stroke="black" d="M1537.27,-103.01C1664.95,-98.39 1919.51,-87.36 2007.39,-70.5 2045.45,-63.2 2087.06,-49.38 2118.03,-37.89"/>
<polygon fill="black" stroke="black" points="2118.98,-40.9 2127.1,-34.1 2116.51,-34.35 2118.98,-40.9"/>
<text text-anchor="middle" x="2096.77" y="-57.2" font-family="Times,serif" font-size="14.00">isSouthOf</text>
</g>
<!-- idPlayerLeftHand -->
<g id="node18" class="node">
<title>idPlayerLeftHand</title>
<ellipse fill="none" stroke="black" cx="2335.39" cy="-18" rx="76.94" ry="18"/>
<text text-anchor="middle" x="2335.39" y="-12.95" font-family="Times,serif" font-size="14.00">idPlayerLeftHand</text>
</g>
<!-- idGlowingGrass1&#45;&gt;idPlayerLeftHand -->
<g id="edge18" class="edge">
<title>idGlowingGrass1&#45;&gt;idPlayerLeftHand</title>
<path fill="none" stroke="black" d="M1538.77,-106.21C1663.07,-106.32 1916.54,-102.12 2128.39,-70.5 2180.45,-62.73 2238.51,-47.71 2279.86,-35.89"/>
<polygon fill="black" stroke="black" points="2280.63,-39.02 2289.26,-32.88 2278.68,-32.3 2280.63,-39.02"/>
<text text-anchor="middle" x="2236.77" y="-57.2" font-family="Times,serif" font-size="14.00">isSouthOf</text>
</g>
<!-- idPlayerRightHand -->
<g id="node19" class="node">
<title>idPlayerRightHand</title>
<ellipse fill="none" stroke="black" cx="2512.39" cy="-18" rx="82.06" ry="18"/>
<text text-anchor="middle" x="2512.39" y="-12.95" font-family="Times,serif" font-size="14.00">idPlayerRightHand</text>
</g>
<!-- idGlowingGrass1&#45;&gt;idPlayerRightHand -->
<g id="edge19" class="edge">
<title>idGlowingGrass1&#45;&gt;idPlayerRightHand</title>
<path fill="none" stroke="black" d="M1538.58,-106.35C1682.03,-107.04 2001.77,-104.19 2268.39,-70.5 2331.02,-62.59 2401.45,-46.98 2450.49,-35.01"/>
<polygon fill="black" stroke="black" points="2451.06,-38.23 2459.93,-32.44 2449.38,-31.44 2451.06,-38.23"/>
<text text-anchor="middle" x="2390.77" y="-57.2" font-family="Times,serif" font-size="14.00">isSouthOf</text>
</g>
<!-- idRockPile1 -->
<g id="node20" class="node">
<title>idRockPile1</title>
<ellipse fill="none" stroke="black" cx="2669.39" cy="-18" rx="56.47" ry="18"/>
<text text-anchor="middle" x="2669.39" y="-12.95" font-family="Times,serif" font-size="14.00">idRockPile1</text>
</g>
<!-- idGlowingGrass1&#45;&gt;idRockPile1 -->
<g id="edge20" class="edge">
<title>idGlowingGrass1&#45;&gt;idRockPile1</title>
<path fill="none" stroke="black" d="M1538.06,-104.23C1733.46,-100.7 2251.59,-89.78 2422.39,-70.5 2490.32,-62.83 2567.21,-45.38 2616.9,-32.92"/>
<polygon fill="black" stroke="black" points="2617.55,-36.11 2626.38,-30.26 2615.83,-29.32 2617.55,-36.11"/>
<text text-anchor="middle" x="2541.64" y="-57.2" font-family="Times,serif" font-size="14.00">isEastOf</text>
</g>
</g>
</svg>
