<?xml version="1.0" encoding="UTF-8" standalone="no"?>
<!DOCTYPE svg PUBLIC "-//W3C//DTD SVG 1.1//EN"
 "http://www.w3.org/Graphics/SVG/1.1/DTD/svg11.dtd">
<!-- Generated by graphviz version 8.1.0 (20230707.0739)
 -->
<!-- Pages: 1 -->
<svg width="900pt" height="133pt"
 viewBox="0.00 0.00 900.14 132.50" xmlns="http://www.w3.org/2000/svg" xmlns:xlink="http://www.w3.org/1999/xlink">
<g id="graph0" class="graph" transform="scale(1 1) rotate(0) translate(4 128.5)">
<polygon fill="white" stroke="none" points="-4,4 -4,-128.5 896.14,-128.5 896.14,4 -4,4"/>
<!-- idGlowingFlower1 -->
<g id="node1" class="node">
<title>idGlowingFlower1</title>
<ellipse fill="none" stroke="black" cx="334.39" cy="-106.5" rx="81.04" ry="18"/>
<text text-anchor="middle" x="334.39" y="-101.45" font-family="Times,serif" font-size="14.00">idGlowingFlower1</text>
</g>
<!-- green -->
<g id="node2" class="node">
<title>green</title>
<ellipse fill="none" stroke="black" cx="31.39" cy="-18" rx="31.39" ry="18"/>
<text text-anchor="middle" x="31.39" y="-12.95" font-family="Times,serif" font-size="14.00">green</text>
</g>
<!-- idGlowingFlower1&#45;&gt;green -->
<g id="edge1" class="edge">
<title>idGlowingFlower1&#45;&gt;green</title>
<path fill="none" stroke="black" d="M253.33,-105.4C179.14,-103.62 76.44,-96.35 46.14,-70.5 39.28,-64.64 35.5,-55.83 33.45,-47.14"/>
<polygon fill="black" stroke="black" points="36.76,-46.72 31.68,-37.43 29.86,-47.87 36.76,-46.72"/>
<text text-anchor="middle" x="137.52" y="-57.2" font-family="Times,serif" font-size="14.00">idGlowingFlower1_prop_idColor</text>
</g>
<!-- bright -->
<g id="node3" class="node">
<title>bright</title>
<ellipse fill="none" stroke="black" cx="236.39" cy="-18" rx="32.93" ry="18"/>
<text text-anchor="middle" x="236.39" y="-12.95" font-family="Times,serif" font-size="14.00">bright</text>
</g>
<!-- idGlowingFlower1&#45;&gt;bright -->
<g id="edge2" class="edge">
<title>idGlowingFlower1&#45;&gt;bright</title>
<path fill="none" stroke="black" d="M271.22,-94.93C258.02,-89.73 245.63,-81.99 237.39,-70.5 232.59,-63.8 231.12,-55.26 231.19,-47.06"/>
<polygon fill="black" stroke="black" points="234.75,-47.56 232.1,-37.31 227.77,-46.98 234.75,-47.56"/>
<text text-anchor="middle" x="324.39" y="-57.2" font-family="Times,serif" font-size="14.00">idGlowingFlower1_prop_idTint</text>
</g>
<!-- glowing -->
<g id="node4" class="node">
<title>glowing</title>
<ellipse fill="none" stroke="black" cx="433.39" cy="-18" rx="41.12" ry="18"/>
<text text-anchor="middle" x="433.39" y="-12.95" font-family="Times,serif" font-size="14.00">glowing</text>
</g>
<!-- idGlowingFlower1&#45;&gt;glowing -->
<g id="edge3" class="edge">
<title>idGlowingFlower1&#45;&gt;glowing</title>
<path fill="none" stroke="black" d="M380.28,-91.28C391.52,-86.12 402.77,-79.32 411.39,-70.5 417.89,-63.85 422.6,-54.98 425.96,-46.48"/>
<polygon fill="black" stroke="black" points="429.58,-47.7 429.51,-37.11 422.96,-45.43 429.58,-47.7"/>
<text text-anchor="middle" x="527.64" y="-57.2" font-family="Times,serif" font-size="14.00">idGlowingFlower1_prop_idDescriptor</text>
</g>
<!-- true -->
<g id="node5" class="node">
<title>true</title>
<ellipse fill="none" stroke="black" cx="665.39" cy="-18" rx="27" ry="18"/>
<text text-anchor="middle" x="665.39" y="-12.95" font-family="Times,serif" font-size="14.00">true</text>
</g>
<!-- idGlowingFlower1&#45;&gt;true -->
<g id="edge4" class="edge">
<title>idGlowingFlower1&#45;&gt;true</title>
<path fill="none" stroke="black" d="M415.11,-104.29C492.05,-101.7 601.23,-93.88 636.39,-70.5 645.3,-64.58 651.77,-54.93 656.3,-45.58"/>
<polygon fill="black" stroke="black" points="659.79,-47.32 660.48,-36.74 653.35,-44.58 659.79,-47.32"/>
<text text-anchor="middle" x="771.77" y="-57.2" font-family="Times,serif" font-size="14.00">idGlowingFlower1_prop_idUnknownObject</text>
</g>
</g>
</svg>
