<?xml version="1.0" encoding="UTF-8" standalone="no"?>
<!DOCTYPE svg PUBLIC "-//W3C//DTD SVG 1.1//EN"
 "http://www.w3.org/Graphics/SVG/1.1/DTD/svg11.dtd">
<!-- Generated by graphviz version 8.1.0 (20230707.0739)
 -->
<!-- Pages: 1 -->
<svg width="1803pt" height="133pt"
 viewBox="0.00 0.00 1803.47 132.50" xmlns="http://www.w3.org/2000/svg" xmlns:xlink="http://www.w3.org/1999/xlink">
<g id="graph0" class="graph" transform="scale(1 1) rotate(0) translate(4 128.5)">
<polygon fill="white" stroke="none" points="-4,4 -4,-128.5 1799.47,-128.5 1799.47,4 -4,4"/>
<!-- idGrass1 -->
<g id="node1" class="node">
<title>idGrass1</title>
<ellipse fill="none" stroke="black" cx="881" cy="-106.5" rx="43.67" ry="18"/>
<text text-anchor="middle" x="881" y="-101.45" font-family="Times,serif" font-size="14.00">idGrass1</text>
</g>
<!-- idGrass1&#45;&gt;idGrass1 -->
<g id="edge7" class="edge">
<title>idGrass1&#45;&gt;idGrass1</title>
<path fill="none" stroke="black" d="M920.45,-114.79C932.87,-114.67 942.67,-111.9 942.67,-106.5 942.67,-102.79 938.04,-100.32 931.11,-99.1"/>
<polygon fill="black" stroke="black" points="931.7,-95.55 921.45,-98.21 931.12,-102.53 931.7,-95.55"/>
<text text-anchor="middle" x="960.3" y="-101.45" font-family="Times,serif" font-size="14.00">isNear</text>
</g>
<!-- tall -->
<g id="node2" class="node">
<title>tall</title>
<ellipse fill="none" stroke="black" cx="27" cy="-18" rx="27" ry="18"/>
<text text-anchor="middle" x="27" y="-12.95" font-family="Times,serif" font-size="14.00">tall</text>
</g>
<!-- idGrass1&#45;&gt;tall -->
<g id="edge1" class="edge">
<title>idGrass1&#45;&gt;tall</title>
<path fill="none" stroke="black" d="M836.92,-105.46C678.96,-105.07 146.88,-101.43 77.5,-70.5 64.28,-64.6 52.7,-53.53 43.97,-43.15"/>
<polygon fill="black" stroke="black" points="46.28,-41.43 37.34,-35.73 40.78,-45.76 46.28,-41.43"/>
<text text-anchor="middle" x="144.75" y="-57.2" font-family="Times,serif" font-size="14.00">idGrass1_prop_idHeight</text>
</g>
<!-- green -->
<g id="node3" class="node">
<title>green</title>
<ellipse fill="none" stroke="black" cx="184" cy="-18" rx="31.39" ry="18"/>
<text text-anchor="middle" x="184" y="-12.95" font-family="Times,serif" font-size="14.00">green</text>
</g>
<!-- idGrass1&#45;&gt;green -->
<g id="edge2" class="edge">
<title>idGrass1&#45;&gt;green</title>
<path fill="none" stroke="black" d="M837.26,-104.88C701.33,-102.71 292.13,-94.27 237.5,-70.5 224.02,-64.63 211.93,-53.77 202.67,-43.53"/>
<polygon fill="black" stroke="black" points="204.73,-41.55 195.58,-36.2 199.39,-46.08 204.73,-41.55"/>
<text text-anchor="middle" x="301.75" y="-57.2" font-family="Times,serif" font-size="14.00">idGrass1_prop_idColor</text>
</g>
<!-- uncountable -->
<g id="node4" class="node">
<title>uncountable</title>
<ellipse fill="none" stroke="black" cx="327" cy="-18" rx="55.96" ry="18"/>
<text text-anchor="middle" x="327" y="-12.95" font-family="Times,serif" font-size="14.00">uncountable</text>
</g>
<!-- idGrass1&#45;&gt;uncountable -->
<g id="edge3" class="edge">
<title>idGrass1&#45;&gt;uncountable</title>
<path fill="none" stroke="black" d="M837.01,-105.38C733.64,-104.6 477.97,-99.68 398,-70.5 381.26,-64.39 364.99,-53.11 352.26,-42.66"/>
<polygon fill="black" stroke="black" points="354.92,-39.47 345.05,-35.63 350.37,-44.79 354.92,-39.47"/>
<text text-anchor="middle" x="479" y="-57.2" font-family="Times,serif" font-size="14.00">idGrass1_prop_idArticleType</text>
</g>
<!-- idClearing1 -->
<g id="node5" class="node">
<title>idClearing1</title>
<ellipse fill="none" stroke="black" cx="455" cy="-18" rx="54.42" ry="18"/>
<text text-anchor="middle" x="455" y="-12.95" font-family="Times,serif" font-size="14.00">idClearing1</text>
</g>
<!-- idGrass1&#45;&gt;idClearing1 -->
<g id="edge4" class="edge">
<title>idGrass1&#45;&gt;idClearing1</title>
<path fill="none" stroke="black" d="M838.47,-101.78C787.33,-96.82 699.1,-86.75 624.75,-70.5 582.35,-61.23 535.19,-46.56 501.36,-35.25"/>
<polygon fill="black" stroke="black" points="502.91,-31.74 492.31,-31.85 500.67,-38.37 502.91,-31.74"/>
<text text-anchor="middle" x="642.62" y="-57.2" font-family="Times,serif" font-size="14.00">isNear</text>
</g>
<!-- idTheTrees1 -->
<g id="node6" class="node">
<title>idTheTrees1</title>
<ellipse fill="none" stroke="black" cx="585" cy="-18" rx="57.49" ry="18"/>
<text text-anchor="middle" x="585" y="-12.95" font-family="Times,serif" font-size="14.00">idTheTrees1</text>
</g>
<!-- idGrass1&#45;&gt;idTheTrees1 -->
<g id="edge5" class="edge">
<title>idGrass1&#45;&gt;idTheTrees1</title>
<path fill="none" stroke="black" d="M840.18,-99.59C804.7,-93.91 752.19,-84.16 707.75,-70.5 679.56,-61.83 648.97,-49.01 625.38,-38.33"/>
<polygon fill="black" stroke="black" points="626.95,-34.74 616.4,-33.75 624.03,-41.1 626.95,-34.74"/>
<text text-anchor="middle" x="736.12" y="-57.2" font-family="Times,serif" font-size="14.00">isInsideOf</text>
</g>
<!-- idPlayer -->
<g id="node7" class="node">
<title>idPlayer</title>
<ellipse fill="none" stroke="black" cx="702" cy="-18" rx="41.63" ry="18"/>
<text text-anchor="middle" x="702" y="-12.95" font-family="Times,serif" font-size="14.00">idPlayer</text>
</g>
<!-- idGrass1&#45;&gt;idPlayer -->
<g id="edge6" class="edge">
<title>idGrass1&#45;&gt;idPlayer</title>
<path fill="none" stroke="black" d="M851.05,-93.02C835.87,-86.55 817.21,-78.37 800.75,-70.5 779.16,-60.18 755.37,-47.8 736.55,-37.77"/>
<polygon fill="black" stroke="black" points="738.39,-34.25 727.92,-32.61 735.08,-40.42 738.39,-34.25"/>
<text text-anchor="middle" x="818.62" y="-57.2" font-family="Times,serif" font-size="14.00">isNear</text>
</g>
<!-- idBranch1 -->
<g id="node8" class="node">
<title>idBranch1</title>
<ellipse fill="none" stroke="black" cx="811" cy="-18" rx="49.3" ry="18"/>
<text text-anchor="middle" x="811" y="-12.95" font-family="Times,serif" font-size="14.00">idBranch1</text>
</g>
<!-- idGrass1&#45;&gt;idBranch1 -->
<g id="edge8" class="edge">
<title>idGrass1&#45;&gt;idBranch1</title>
<path fill="none" stroke="black" d="M867.83,-89.23C857.6,-76.59 843.22,-58.82 831.49,-44.32"/>
<polygon fill="black" stroke="black" points="833.6,-42.36 824.58,-36.79 828.15,-46.76 833.6,-42.36"/>
<text text-anchor="middle" x="870.62" y="-57.2" font-family="Times,serif" font-size="14.00">isNear</text>
</g>
<!-- idGlowingArea1 -->
<g id="node9" class="node">
<title>idGlowingArea1</title>
<ellipse fill="none" stroke="black" cx="951" cy="-18" rx="72.85" ry="18"/>
<text text-anchor="middle" x="951" y="-12.95" font-family="Times,serif" font-size="14.00">idGlowingArea1</text>
</g>
<!-- idGrass1&#45;&gt;idGlowingArea1 -->
<g id="edge9" class="edge">
<title>idGrass1&#45;&gt;idGlowingArea1</title>
<path fill="none" stroke="black" d="M894.17,-89.23C904.33,-76.67 918.59,-59.05 930.29,-44.6"/>
<polygon fill="black" stroke="black" points="933.6,-47.06 937.17,-37.08 928.16,-42.66 933.6,-47.06"/>
<text text-anchor="middle" x="950.38" y="-57.2" font-family="Times,serif" font-size="14.00">isNorthOf</text>
</g>
<!-- idGlowingGrass1 -->
<g id="node10" class="node">
<title>idGlowingGrass1</title>
<ellipse fill="none" stroke="black" cx="1118" cy="-18" rx="75.92" ry="18"/>
<text text-anchor="middle" x="1118" y="-12.95" font-family="Times,serif" font-size="14.00">idGlowingGrass1</text>
</g>
<!-- idGrass1&#45;&gt;idGlowingGrass1 -->
<g id="edge10" class="edge">
<title>idGrass1&#45;&gt;idGlowingGrass1</title>
<path fill="none" stroke="black" d="M913.83,-94.39C933.63,-87.62 959.32,-78.72 982,-70.5 1011.13,-59.94 1043.58,-47.67 1069.47,-37.76"/>
<polygon fill="black" stroke="black" points="1070.34,-40.79 1078.42,-33.94 1067.83,-34.26 1070.34,-40.79"/>
<text text-anchor="middle" x="1051.38" y="-57.2" font-family="Times,serif" font-size="14.00">isNorthOf</text>
</g>
<!-- idCave1 -->
<g id="node11" class="node">
<title>idCave1</title>
<ellipse fill="none" stroke="black" cx="1254" cy="-18" rx="41.63" ry="18"/>
<text text-anchor="middle" x="1254" y="-12.95" font-family="Times,serif" font-size="14.00">idCave1</text>
</g>
<!-- idGrass1&#45;&gt;idCave1 -->
<g id="edge11" class="edge">
<title>idGrass1&#45;&gt;idCave1</title>
<path fill="none" stroke="black" d="M921.88,-99.75C962.87,-93.67 1027.67,-83.21 1083,-70.5 1137.09,-58.08 1150,-52.44 1203,-36 1205.79,-35.14 1208.65,-34.23 1211.54,-33.3"/>
<polygon fill="black" stroke="black" points="1212.54,-36.33 1220.96,-29.91 1210.37,-29.68 1212.54,-36.33"/>
<text text-anchor="middle" x="1173.38" y="-57.2" font-family="Times,serif" font-size="14.00">isSouthOf</text>
</g>
<!-- idRockyArea1 -->
<g id="node12" class="node">
<title>idRockyArea1</title>
<ellipse fill="none" stroke="black" cx="1378" cy="-18" rx="64.66" ry="18"/>
<text text-anchor="middle" x="1378" y="-12.95" font-family="Times,serif" font-size="14.00">idRockyArea1</text>
</g>
<!-- idGrass1&#45;&gt;idRockyArea1 -->
<g id="edge12" class="edge">
<title>idGrass1&#45;&gt;idRockyArea1</title>
<path fill="none" stroke="black" d="M924.36,-103.33C986.87,-99.62 1105.71,-90.47 1205,-70.5 1247.6,-61.93 1294.8,-47.54 1329.13,-36.14"/>
<polygon fill="black" stroke="black" points="1329.98,-39.21 1338.35,-32.71 1327.75,-32.58 1329.98,-39.21"/>
<text text-anchor="middle" x="1291.25" y="-57.2" font-family="Times,serif" font-size="14.00">isEastOf</text>
</g>
<!-- idBottle1 -->
<g id="node13" class="node">
<title>idBottle1</title>
<ellipse fill="none" stroke="black" cx="1506" cy="-18" rx="45.21" ry="18"/>
<text text-anchor="middle" x="1506" y="-12.95" font-family="Times,serif" font-size="14.00">idBottle1</text>
</g>
<!-- idGrass1&#45;&gt;idBottle1 -->
<g id="edge13" class="edge">
<title>idGrass1&#45;&gt;idBottle1</title>
<path fill="none" stroke="black" d="M924.72,-104.48C1003.74,-102.1 1175.38,-94.39 1318,-70.5 1368.34,-62.07 1424.62,-45.7 1462.36,-33.67"/>
<polygon fill="black" stroke="black" points="1463.06,-36.8 1471.5,-30.4 1460.91,-30.14 1463.06,-36.8"/>
<text text-anchor="middle" x="1415.25" y="-57.2" font-family="Times,serif" font-size="14.00">isEastOf</text>
</g>
<!-- idPebble1 -->
<g id="node14" class="node">
<title>idPebble1</title>
<ellipse fill="none" stroke="black" cx="1617" cy="-18" rx="47.77" ry="18"/>
<text text-anchor="middle" x="1617" y="-12.95" font-family="Times,serif" font-size="14.00">idPebble1</text>
</g>
<!-- idGrass1&#45;&gt;idPebble1 -->
<g id="edge14" class="edge">
<title>idGrass1&#45;&gt;idPebble1</title>
<path fill="none" stroke="black" d="M925.03,-106.06C1020.17,-106.54 1251.68,-103.83 1442,-70.5 1487.66,-62.5 1538.31,-46.82 1573.32,-34.85"/>
<polygon fill="black" stroke="black" points="1574.36,-37.85 1582.66,-31.26 1572.07,-31.23 1574.36,-37.85"/>
<text text-anchor="middle" x="1534.25" y="-57.2" font-family="Times,serif" font-size="14.00">isEastOf</text>
</g>
<!-- idRockPile1 -->
<g id="node15" class="node">
<title>idRockPile1</title>
<ellipse fill="none" stroke="black" cx="1739" cy="-18" rx="56.47" ry="18"/>
<text text-anchor="middle" x="1739" y="-12.95" font-family="Times,serif" font-size="14.00">idRockPile1</text>
</g>
<!-- idGrass1&#45;&gt;idRockPile1 -->
<g id="edge15" class="edge">
<title>idGrass1&#45;&gt;idRockPile1</title>
<path fill="none" stroke="black" d="M924.78,-104.56C1054.91,-101.57 1437.87,-91.2 1561,-70.5 1606.62,-62.83 1657.16,-47.53 1692.69,-35.59"/>
<polygon fill="black" stroke="black" points="1693.42,-38.7 1701.75,-32.16 1691.16,-32.07 1693.42,-38.7"/>
<text text-anchor="middle" x="1654.25" y="-57.2" font-family="Times,serif" font-size="14.00">isEastOf</text>
</g>
</g>
</svg>
