<?xml version="1.0" encoding="UTF-8" standalone="no"?>
<!DOCTYPE svg PUBLIC "-//W3C//DTD SVG 1.1//EN"
 "http://www.w3.org/Graphics/SVG/1.1/DTD/svg11.dtd">
<!-- Generated by graphviz version 8.1.0 (20230707.0739)
 -->
<!-- Pages: 1 -->
<svg width="2049pt" height="133pt"
 viewBox="0.00 0.00 2049.36 132.50" xmlns="http://www.w3.org/2000/svg" xmlns:xlink="http://www.w3.org/1999/xlink">
<g id="graph0" class="graph" transform="scale(1 1) rotate(0) translate(4 128.5)">
<polygon fill="white" stroke="none" points="-4,4 -4,-128.5 2045.36,-128.5 2045.36,4 -4,4"/>
<!-- idPebble1 -->
<g id="node1" class="node">
<title>idPebble1</title>
<ellipse fill="none" stroke="black" cx="1027.3" cy="-106.5" rx="47.77" ry="18"/>
<text text-anchor="middle" x="1027.3" y="-101.45" font-family="Times,serif" font-size="14.00">idPebble1</text>
</g>
<!-- idPebble1&#45;&gt;idPebble1 -->
<g id="edge6" class="edge">
<title>idPebble1&#45;&gt;idPebble1</title>
<path fill="none" stroke="black" d="M1070.31,-114.78C1083.11,-114.53 1093.07,-111.77 1093.07,-106.5 1093.07,-102.88 1088.36,-100.44 1081.26,-99.19"/>
<polygon fill="black" stroke="black" points="1081.58,-95.62 1071.31,-98.22 1080.96,-102.59 1081.58,-95.62"/>
<text text-anchor="middle" x="1110.69" y="-101.45" font-family="Times,serif" font-size="14.00">isNear</text>
</g>
<!-- grey -->
<g id="node2" class="node">
<title>grey</title>
<ellipse fill="none" stroke="black" cx="27.3" cy="-18" rx="27.3" ry="18"/>
<text text-anchor="middle" x="27.3" y="-12.95" font-family="Times,serif" font-size="14.00">grey</text>
</g>
<!-- idPebble1&#45;&gt;grey -->
<g id="edge1" class="edge">
<title>idPebble1&#45;&gt;grey</title>
<path fill="none" stroke="black" d="M979.3,-105.13C802.3,-103.56 192.05,-96.33 108.8,-70.5 87.95,-64.03 67.19,-50.79 51.84,-39.35"/>
<polygon fill="black" stroke="black" points="54.53,-36.23 44.47,-32.89 50.25,-41.77 54.53,-36.23"/>
<text text-anchor="middle" x="176.05" y="-57.2" font-family="Times,serif" font-size="14.00">idPebble1_prop_idColor</text>
</g>
<!-- smooth -->
<g id="node3" class="node">
<title>smooth</title>
<ellipse fill="none" stroke="black" cx="184.3" cy="-18" rx="38.56" ry="18"/>
<text text-anchor="middle" x="184.3" y="-12.95" font-family="Times,serif" font-size="14.00">smooth</text>
</g>
<!-- idPebble1&#45;&gt;smooth -->
<g id="edge2" class="edge">
<title>idPebble1&#45;&gt;smooth</title>
<path fill="none" stroke="black" d="M979.18,-105.81C836.73,-106.31 418.88,-104.73 287.55,-70.5 262.01,-63.84 235.41,-50.4 215.61,-38.92"/>
<polygon fill="black" stroke="black" points="217.57,-35.42 207.19,-33.31 213.99,-41.43 217.57,-35.42"/>
<text text-anchor="middle" x="368.17" y="-57.2" font-family="Times,serif" font-size="14.00">idPebble1_prop_idDescriptor</text>
</g>
<!-- idRockyArea1 -->
<g id="node4" class="node">
<title>idRockyArea1</title>
<ellipse fill="none" stroke="black" cx="305.3" cy="-18" rx="64.66" ry="18"/>
<text text-anchor="middle" x="305.3" y="-12.95" font-family="Times,serif" font-size="14.00">idRockyArea1</text>
</g>
<!-- idPebble1&#45;&gt;idRockyArea1 -->
<g id="edge3" class="edge">
<title>idPebble1&#45;&gt;idRockyArea1</title>
<path fill="none" stroke="black" d="M979.64,-104.2C892.56,-101.34 702.05,-92.89 543.05,-70.5 480.25,-61.66 409.34,-45.47 361.42,-33.6"/>
<polygon fill="black" stroke="black" points="362.51,-30.01 351.96,-30.98 360.81,-36.8 362.51,-30.01"/>
<text text-anchor="middle" x="560.92" y="-57.2" font-family="Times,serif" font-size="14.00">isNear</text>
</g>
<!-- idTheTrees1 -->
<g id="node5" class="node">
<title>idTheTrees1</title>
<ellipse fill="none" stroke="black" cx="445.3" cy="-18" rx="57.49" ry="18"/>
<text text-anchor="middle" x="445.3" y="-12.95" font-family="Times,serif" font-size="14.00">idTheTrees1</text>
</g>
<!-- idPebble1&#45;&gt;idTheTrees1 -->
<g id="edge4" class="edge">
<title>idPebble1&#45;&gt;idTheTrees1</title>
<path fill="none" stroke="black" d="M979.97,-103.15C909.31,-99.16 772.18,-89.57 657.05,-70.5 591.8,-59.69 576.52,-51.8 512.3,-36 508.04,-34.95 503.63,-33.86 499.2,-32.75"/>
<polygon fill="black" stroke="black" points="500.43,-29.2 489.88,-30.16 498.73,-35.99 500.43,-29.2"/>
<text text-anchor="middle" x="685.42" y="-57.2" font-family="Times,serif" font-size="14.00">isInsideOf</text>
</g>
<!-- idRockPile1 -->
<g id="node6" class="node">
<title>idRockPile1</title>
<ellipse fill="none" stroke="black" cx="577.3" cy="-18" rx="56.47" ry="18"/>
<text text-anchor="middle" x="577.3" y="-12.95" font-family="Times,serif" font-size="14.00">idRockPile1</text>
</g>
<!-- idPebble1&#45;&gt;idRockPile1 -->
<g id="edge5" class="edge">
<title>idPebble1&#45;&gt;idRockPile1</title>
<path fill="none" stroke="black" d="M982.77,-99.6C936.47,-93.25 861.96,-82.44 798.05,-70.5 728.35,-57.48 711.22,-52.64 642.3,-36 638.27,-35.03 634.1,-34 629.92,-32.94"/>
<polygon fill="black" stroke="black" points="631.1,-29.38 620.55,-30.3 629.37,-36.16 631.1,-29.38"/>
<text text-anchor="middle" x="815.92" y="-57.2" font-family="Times,serif" font-size="14.00">isNear</text>
</g>
<!-- idGlowingArea1 -->
<g id="node7" class="node">
<title>idGlowingArea1</title>
<ellipse fill="none" stroke="black" cx="724.3" cy="-18" rx="72.85" ry="18"/>
<text text-anchor="middle" x="724.3" y="-12.95" font-family="Times,serif" font-size="14.00">idGlowingArea1</text>
</g>
<!-- idPebble1&#45;&gt;idGlowingArea1 -->
<g id="edge7" class="edge">
<title>idPebble1&#45;&gt;idGlowingArea1</title>
<path fill="none" stroke="black" d="M988.18,-95.84C961.17,-89.05 924.45,-79.59 892.3,-70.5 853.89,-59.64 810.86,-46.43 777.96,-36.11"/>
<polygon fill="black" stroke="black" points="779.24,-32.53 768.65,-32.86 777.14,-39.2 779.24,-32.53"/>
<text text-anchor="middle" x="917.8" y="-57.2" font-family="Times,serif" font-size="14.00">isWestOf</text>
</g>
<!-- idGlowingGrass1 -->
<g id="node8" class="node">
<title>idGlowingGrass1</title>
<ellipse fill="none" stroke="black" cx="891.3" cy="-18" rx="75.92" ry="18"/>
<text text-anchor="middle" x="891.3" y="-12.95" font-family="Times,serif" font-size="14.00">idGlowingGrass1</text>
</g>
<!-- idPebble1&#45;&gt;idGlowingGrass1 -->
<g id="edge8" class="edge">
<title>idPebble1&#45;&gt;idGlowingGrass1</title>
<path fill="none" stroke="black" d="M1003.61,-90.43C982.24,-76.84 950.54,-56.68 926.26,-41.24"/>
<polygon fill="black" stroke="black" points="928.34,-37.78 918.03,-35.37 924.59,-43.69 928.34,-37.78"/>
<text text-anchor="middle" x="997.8" y="-57.2" font-family="Times,serif" font-size="14.00">isWestOf</text>
</g>
<!-- idCave1 -->
<g id="node9" class="node">
<title>idCave1</title>
<ellipse fill="none" stroke="black" cx="1027.3" cy="-18" rx="41.63" ry="18"/>
<text text-anchor="middle" x="1027.3" y="-12.95" font-family="Times,serif" font-size="14.00">idCave1</text>
</g>
<!-- idPebble1&#45;&gt;idCave1 -->
<g id="edge9" class="edge">
<title>idPebble1&#45;&gt;idCave1</title>
<path fill="none" stroke="black" d="M1027.3,-88.41C1027.3,-76.64 1027.3,-60.73 1027.3,-47.11"/>
<polygon fill="black" stroke="black" points="1030.8,-47.35 1027.3,-37.35 1023.8,-47.35 1030.8,-47.35"/>
<text text-anchor="middle" x="1052.8" y="-57.2" font-family="Times,serif" font-size="14.00">isWestOf</text>
</g>
<!-- idClearing1 -->
<g id="node10" class="node">
<title>idClearing1</title>
<ellipse fill="none" stroke="black" cx="1141.3" cy="-18" rx="54.42" ry="18"/>
<text text-anchor="middle" x="1141.3" y="-12.95" font-family="Times,serif" font-size="14.00">idClearing1</text>
</g>
<!-- idPebble1&#45;&gt;idClearing1 -->
<g id="edge10" class="edge">
<title>idPebble1&#45;&gt;idClearing1</title>
<path fill="none" stroke="black" d="M1052.2,-90.76C1061.82,-84.78 1072.78,-77.62 1082.3,-70.5 1093.69,-61.97 1105.64,-51.81 1115.77,-42.77"/>
<polygon fill="black" stroke="black" points="1117.74,-45.81 1122.81,-36.51 1113.04,-40.62 1117.74,-45.81"/>
<text text-anchor="middle" x="1128.8" y="-57.2" font-family="Times,serif" font-size="14.00">isWestOf</text>
</g>
<!-- idBranch1 -->
<g id="node11" class="node">
<title>idBranch1</title>
<ellipse fill="none" stroke="black" cx="1263.3" cy="-18" rx="49.3" ry="18"/>
<text text-anchor="middle" x="1263.3" y="-12.95" font-family="Times,serif" font-size="14.00">idBranch1</text>
</g>
<!-- idPebble1&#45;&gt;idBranch1 -->
<g id="edge11" class="edge">
<title>idPebble1&#45;&gt;idBranch1</title>
<path fill="none" stroke="black" d="M1068.07,-96.77C1094.25,-90.64 1128.76,-81.57 1158.3,-70.5 1182.04,-61.6 1207.61,-49.13 1227.57,-38.68"/>
<polygon fill="black" stroke="black" points="1228.98,-41.37 1236.17,-33.59 1225.7,-35.19 1228.98,-41.37"/>
<text text-anchor="middle" x="1222.8" y="-57.2" font-family="Times,serif" font-size="14.00">isWestOf</text>
</g>
<!-- idGrass1 -->
<g id="node12" class="node">
<title>idGrass1</title>
<ellipse fill="none" stroke="black" cx="1374.3" cy="-18" rx="43.67" ry="18"/>
<text text-anchor="middle" x="1374.3" y="-12.95" font-family="Times,serif" font-size="14.00">idGrass1</text>
</g>
<!-- idPebble1&#45;&gt;idGrass1 -->
<g id="edge12" class="edge">
<title>idPebble1&#45;&gt;idGrass1</title>
<path fill="none" stroke="black" d="M1073.68,-101.63C1119.68,-97.02 1191.83,-87.68 1252.3,-70.5 1281.9,-62.09 1313.91,-48.39 1337.71,-37.23"/>
<polygon fill="black" stroke="black" points="1338.85,-40.09 1346.37,-32.63 1335.84,-33.77 1338.85,-40.09"/>
<text text-anchor="middle" x="1322.8" y="-57.2" font-family="Times,serif" font-size="14.00">isWestOf</text>
</g>
<!-- idPlayer -->
<g id="node13" class="node">
<title>idPlayer</title>
<ellipse fill="none" stroke="black" cx="1477.3" cy="-18" rx="41.63" ry="18"/>
<text text-anchor="middle" x="1477.3" y="-12.95" font-family="Times,serif" font-size="14.00">idPlayer</text>
</g>
<!-- idPebble1&#45;&gt;idPlayer -->
<g id="edge13" class="edge">
<title>idPebble1&#45;&gt;idPlayer</title>
<path fill="none" stroke="black" d="M1075.14,-104.57C1139.18,-102.37 1255.91,-95.01 1352.3,-70.5 1383.35,-62.6 1416.82,-48.49 1441.31,-37.03"/>
<polygon fill="black" stroke="black" points="1442.7,-39.77 1450.22,-32.3 1439.69,-33.45 1442.7,-39.77"/>
<text text-anchor="middle" x="1427.8" y="-57.2" font-family="Times,serif" font-size="14.00">isWestOf</text>
</g>
<!-- idPlayerBackside -->
<g id="node14" class="node">
<title>idPlayerBackside</title>
<ellipse fill="none" stroke="black" cx="1612.3" cy="-18" rx="75.41" ry="18"/>
<text text-anchor="middle" x="1612.3" y="-12.95" font-family="Times,serif" font-size="14.00">idPlayerBackside</text>
</g>
<!-- idPebble1&#45;&gt;idPlayerBackside -->
<g id="edge14" class="edge">
<title>idPebble1&#45;&gt;idPlayerBackside</title>
<path fill="none" stroke="black" d="M1075.22,-105.32C1155.21,-104.2 1320.6,-98.35 1457.3,-70.5 1494.33,-62.95 1534.82,-49.31 1565.12,-37.95"/>
<polygon fill="black" stroke="black" points="1566.29,-40.87 1574.4,-34.05 1563.8,-34.33 1566.29,-40.87"/>
<text text-anchor="middle" x="1543.8" y="-57.2" font-family="Times,serif" font-size="14.00">isWestOf</text>
</g>
<!-- idPlayerLeftHand -->
<g id="node15" class="node">
<title>idPlayerLeftHand</title>
<ellipse fill="none" stroke="black" cx="1782.3" cy="-18" rx="76.94" ry="18"/>
<text text-anchor="middle" x="1782.3" y="-12.95" font-family="Times,serif" font-size="14.00">idPlayerLeftHand</text>
</g>
<!-- idPebble1&#45;&gt;idPlayerLeftHand -->
<g id="edge15" class="edge">
<title>idPebble1&#45;&gt;idPlayerLeftHand</title>
<path fill="none" stroke="black" d="M1075.44,-105.28C1170.96,-104.2 1390.94,-98.58 1573.3,-70.5 1625.62,-62.44 1684.04,-47.53 1725.78,-35.82"/>
<polygon fill="black" stroke="black" points="1726.62,-38.94 1735.29,-32.84 1724.71,-32.2 1726.62,-38.94"/>
<text text-anchor="middle" x="1680.8" y="-57.2" font-family="Times,serif" font-size="14.00">isWestOf</text>
</g>
<!-- idPlayerRightHand -->
<g id="node16" class="node">
<title>idPlayerRightHand</title>
<ellipse fill="none" stroke="black" cx="1959.3" cy="-18" rx="82.06" ry="18"/>
<text text-anchor="middle" x="1959.3" y="-12.95" font-family="Times,serif" font-size="14.00">idPlayerRightHand</text>
</g>
<!-- idPebble1&#45;&gt;idPlayerRightHand -->
<g id="edge16" class="edge">
<title>idPebble1&#45;&gt;idPlayerRightHand</title>
<path fill="none" stroke="black" d="M1075.13,-105.55C1186.82,-105.13 1473.29,-100.9 1710.3,-70.5 1774.34,-62.28 1846.49,-46.65 1896.57,-34.75"/>
<polygon fill="black" stroke="black" points="1897.32,-37.93 1906.22,-32.19 1895.68,-31.12 1897.32,-37.93"/>
<text text-anchor="middle" x="1832.8" y="-57.2" font-family="Times,serif" font-size="14.00">isWestOf</text>
</g>
</g>
</svg>
