<?xml version="1.0" encoding="UTF-8" standalone="no"?>
<!DOCTYPE svg PUBLIC "-//W3C//DTD SVG 1.1//EN"
 "http://www.w3.org/Graphics/SVG/1.1/DTD/svg11.dtd">
<!-- Generated by graphviz version 8.1.0 (20230707.0739)
 -->
<!-- Pages: 1 -->
<svg width="1026pt" height="133pt"
 viewBox="0.00 0.00 1026.10 132.50" xmlns="http://www.w3.org/2000/svg" xmlns:xlink="http://www.w3.org/1999/xlink">
<g id="graph0" class="graph" transform="scale(1 1) rotate(0) translate(4 128.5)">
<polygon fill="white" stroke="none" points="-4,4 -4,-128.5 1022.1,-128.5 1022.1,4 -4,4"/>
<!-- idPlayerBackside -->
<g id="node1" class="node">
<title>idPlayerBackside</title>
<ellipse fill="none" stroke="black" cx="538.63" cy="-106.5" rx="75.41" ry="18"/>
<text text-anchor="middle" x="538.63" y="-101.45" font-family="Times,serif" font-size="14.00">idPlayerBackside</text>
</g>
<!-- idPlayer -->
<g id="node2" class="node">
<title>idPlayer</title>
<ellipse fill="none" stroke="black" cx="41.63" cy="-18" rx="41.63" ry="18"/>
<text text-anchor="middle" x="41.63" y="-12.95" font-family="Times,serif" font-size="14.00">idPlayer</text>
</g>
<!-- idPlayerBackside&#45;&gt;idPlayer -->
<g id="edge1" class="edge">
<title>idPlayerBackside&#45;&gt;idPlayer</title>
<path fill="none" stroke="black" d="M468.28,-99.59C379.33,-90.98 222.04,-71.95 91.63,-36 88.86,-35.24 86.03,-34.41 83.18,-33.54"/>
<polygon fill="black" stroke="black" points="84.52,-29.97 73.93,-30.27 82.39,-36.64 84.52,-29.97"/>
<text text-anchor="middle" x="267.25" y="-57.2" font-family="Times,serif" font-size="14.00">isNear</text>
</g>
<!-- idGlowingArea1 -->
<g id="node3" class="node">
<title>idGlowingArea1</title>
<ellipse fill="none" stroke="black" cx="173.63" cy="-18" rx="72.85" ry="18"/>
<text text-anchor="middle" x="173.63" y="-12.95" font-family="Times,serif" font-size="14.00">idGlowingArea1</text>
</g>
<!-- idPlayerBackside&#45;&gt;idGlowingArea1 -->
<g id="edge2" class="edge">
<title>idPlayerBackside&#45;&gt;idGlowingArea1</title>
<path fill="none" stroke="black" d="M477.43,-95.66C440.57,-89.34 392.81,-80.48 350.88,-70.5 309.06,-60.55 262.41,-46.89 227.46,-36.14"/>
<polygon fill="black" stroke="black" points="228.6,-32.52 218.01,-32.9 226.53,-39.21 228.6,-32.52"/>
<text text-anchor="middle" x="379" y="-57.2" font-family="Times,serif" font-size="14.00">isNorthOf</text>
</g>
<!-- idGlowingGrass1 -->
<g id="node4" class="node">
<title>idGlowingGrass1</title>
<ellipse fill="none" stroke="black" cx="340.63" cy="-18" rx="75.92" ry="18"/>
<text text-anchor="middle" x="340.63" y="-12.95" font-family="Times,serif" font-size="14.00">idGlowingGrass1</text>
</g>
<!-- idPlayerBackside&#45;&gt;idGlowingGrass1 -->
<g id="edge3" class="edge">
<title>idPlayerBackside&#45;&gt;idGlowingGrass1</title>
<path fill="none" stroke="black" d="M496.73,-91.13C480.11,-85.15 460.94,-77.88 443.88,-70.5 422.43,-61.22 399.09,-49.7 380.03,-39.92"/>
<polygon fill="black" stroke="black" points="381.98,-36.47 371.49,-34.98 378.76,-42.68 381.98,-36.47"/>
<text text-anchor="middle" x="472" y="-57.2" font-family="Times,serif" font-size="14.00">isNorthOf</text>
</g>
<!-- idCave1 -->
<g id="node5" class="node">
<title>idCave1</title>
<ellipse fill="none" stroke="black" cx="476.63" cy="-18" rx="41.63" ry="18"/>
<text text-anchor="middle" x="476.63" y="-12.95" font-family="Times,serif" font-size="14.00">idCave1</text>
</g>
<!-- idPlayerBackside&#45;&gt;idCave1 -->
<g id="edge4" class="edge">
<title>idPlayerBackside&#45;&gt;idCave1</title>
<path fill="none" stroke="black" d="M526.38,-88.41C517.35,-75.81 504.91,-58.46 494.73,-44.26"/>
<polygon fill="black" stroke="black" points="497.1,-42.56 488.43,-36.47 491.41,-46.63 497.1,-42.56"/>
<text text-anchor="middle" x="541" y="-57.2" font-family="Times,serif" font-size="14.00">isSouthOf</text>
</g>
<!-- idRockyArea1 -->
<g id="node6" class="node">
<title>idRockyArea1</title>
<ellipse fill="none" stroke="black" cx="600.63" cy="-18" rx="64.66" ry="18"/>
<text text-anchor="middle" x="600.63" y="-12.95" font-family="Times,serif" font-size="14.00">idRockyArea1</text>
</g>
<!-- idPlayerBackside&#45;&gt;idRockyArea1 -->
<g id="edge5" class="edge">
<title>idPlayerBackside&#45;&gt;idRockyArea1</title>
<path fill="none" stroke="black" d="M556.57,-88.9C562.07,-83.34 567.91,-76.91 572.63,-70.5 578.29,-62.81 583.56,-53.83 587.97,-45.55"/>
<polygon fill="black" stroke="black" points="591.45,-47.43 592.89,-36.93 585.22,-44.24 591.45,-47.43"/>
<text text-anchor="middle" x="606.88" y="-57.2" font-family="Times,serif" font-size="14.00">isEastOf</text>
</g>
<!-- idBottle1 -->
<g id="node7" class="node">
<title>idBottle1</title>
<ellipse fill="none" stroke="black" cx="728.63" cy="-18" rx="45.21" ry="18"/>
<text text-anchor="middle" x="728.63" y="-12.95" font-family="Times,serif" font-size="14.00">idBottle1</text>
</g>
<!-- idPlayerBackside&#45;&gt;idBottle1 -->
<g id="edge6" class="edge">
<title>idPlayerBackside&#45;&gt;idBottle1</title>
<path fill="none" stroke="black" d="M581.24,-91.27C597.81,-85.36 616.81,-78.11 633.63,-70.5 654.39,-61.1 676.85,-49.03 694.71,-38.93"/>
<polygon fill="black" stroke="black" points="696.17,-41.55 703.12,-33.55 692.7,-35.47 696.17,-41.55"/>
<text text-anchor="middle" x="688.88" y="-57.2" font-family="Times,serif" font-size="14.00">isEastOf</text>
</g>
<!-- idPebble1 -->
<g id="node8" class="node">
<title>idPebble1</title>
<ellipse fill="none" stroke="black" cx="839.63" cy="-18" rx="47.77" ry="18"/>
<text text-anchor="middle" x="839.63" y="-12.95" font-family="Times,serif" font-size="14.00">idPebble1</text>
</g>
<!-- idPlayerBackside&#45;&gt;idPebble1 -->
<g id="edge7" class="edge">
<title>idPlayerBackside&#45;&gt;idPebble1</title>
<path fill="none" stroke="black" d="M601.21,-96.24C635.42,-90.4 678.31,-81.82 715.63,-70.5 745.1,-61.56 777.18,-48.13 801.33,-37.23"/>
<polygon fill="black" stroke="black" points="802.52,-40.07 810.16,-32.73 799.61,-33.71 802.52,-40.07"/>
<text text-anchor="middle" x="784.88" y="-57.2" font-family="Times,serif" font-size="14.00">isEastOf</text>
</g>
<!-- idRockPile1 -->
<g id="node9" class="node">
<title>idRockPile1</title>
<ellipse fill="none" stroke="black" cx="961.63" cy="-18" rx="56.47" ry="18"/>
<text text-anchor="middle" x="961.63" y="-12.95" font-family="Times,serif" font-size="14.00">idRockPile1</text>
</g>
<!-- idPlayerBackside&#45;&gt;idRockPile1 -->
<g id="edge8" class="edge">
<title>idPlayerBackside&#45;&gt;idRockPile1</title>
<path fill="none" stroke="black" d="M610.04,-100.34C665.53,-95.37 744.15,-86.24 811.63,-70.5 848.21,-61.97 888.39,-47.91 917.96,-36.63"/>
<polygon fill="black" stroke="black" points="918.88,-39.64 926.95,-32.77 916.36,-33.11 918.88,-39.64"/>
<text text-anchor="middle" x="889.88" y="-57.2" font-family="Times,serif" font-size="14.00">isEastOf</text>
</g>
</g>
</svg>
