<?xml version="1.0" encoding="UTF-8" standalone="no"?>
<!DOCTYPE svg PUBLIC "-//W3C//DTD SVG 1.1//EN"
 "http://www.w3.org/Graphics/SVG/1.1/DTD/svg11.dtd">
<!-- Generated by graphviz version 8.1.0 (20230707.0739)
 -->
<!-- Pages: 1 -->
<svg width="1219pt" height="133pt"
 viewBox="0.00 0.00 1218.89 132.50" xmlns="http://www.w3.org/2000/svg" xmlns:xlink="http://www.w3.org/1999/xlink">
<g id="graph0" class="graph" transform="scale(1 1) rotate(0) translate(4 128.5)">
<polygon fill="white" stroke="none" points="-4,4 -4,-128.5 1214.89,-128.5 1214.89,4 -4,4"/>
<!-- idPlayerLeftHand -->
<g id="node1" class="node">
<title>idPlayerLeftHand</title>
<ellipse fill="none" stroke="black" cx="669.42" cy="-106.5" rx="76.94" ry="18"/>
<text text-anchor="middle" x="669.42" y="-101.45" font-family="Times,serif" font-size="14.00">idPlayerLeftHand</text>
</g>
<!-- idLocalLeft -->
<g id="node2" class="node">
<title>idLocalLeft</title>
<ellipse fill="none" stroke="black" cx="54.42" cy="-18" rx="54.42" ry="18"/>
<text text-anchor="middle" x="54.42" y="-12.95" font-family="Times,serif" font-size="14.00">idLocalLeft</text>
</g>
<!-- idPlayerLeftHand&#45;&gt;idLocalLeft -->
<g id="edge1" class="edge">
<title>idPlayerLeftHand&#45;&gt;idLocalLeft</title>
<path fill="none" stroke="black" d="M592.86,-103.83C471.2,-100.58 239.36,-91.75 159.92,-70.5 134.71,-63.76 108.33,-50.87 88.25,-39.68"/>
<polygon fill="black" stroke="black" points="90.35,-36.28 79.93,-34.36 86.88,-42.36 90.35,-36.28"/>
<text text-anchor="middle" x="257.17" y="-57.2" font-family="Times,serif" font-size="14.00">idPlayerLeftHand_prop_idLocation</text>
</g>
<!-- idPlayer -->
<g id="node3" class="node">
<title>idPlayer</title>
<ellipse fill="none" stroke="black" cx="234.42" cy="-18" rx="41.63" ry="18"/>
<text text-anchor="middle" x="234.42" y="-12.95" font-family="Times,serif" font-size="14.00">idPlayer</text>
</g>
<!-- idPlayerLeftHand&#45;&gt;idPlayer -->
<g id="edge2" class="edge">
<title>idPlayerLeftHand&#45;&gt;idPlayer</title>
<path fill="none" stroke="black" d="M602.1,-97.38C524.54,-87.1 393.73,-66.92 284.42,-36 281.66,-35.22 278.83,-34.38 275.99,-33.5"/>
<polygon fill="black" stroke="black" points="277.33,-29.93 266.74,-30.2 275.19,-36.6 277.33,-29.93"/>
<text text-anchor="middle" x="449.05" y="-57.2" font-family="Times,serif" font-size="14.00">isNear</text>
</g>
<!-- idGlowingArea1 -->
<g id="node4" class="node">
<title>idGlowingArea1</title>
<ellipse fill="none" stroke="black" cx="366.42" cy="-18" rx="72.85" ry="18"/>
<text text-anchor="middle" x="366.42" y="-12.95" font-family="Times,serif" font-size="14.00">idGlowingArea1</text>
</g>
<!-- idPlayerLeftHand&#45;&gt;idGlowingArea1 -->
<g id="edge3" class="edge">
<title>idPlayerLeftHand&#45;&gt;idGlowingArea1</title>
<path fill="none" stroke="black" d="M616.41,-93.16C589.95,-86.79 557.51,-78.65 528.67,-70.5 491.62,-60.03 450.27,-46.88 418.58,-36.48"/>
<polygon fill="black" stroke="black" points="419.82,-32.88 409.22,-33.07 417.63,-39.53 419.82,-32.88"/>
<text text-anchor="middle" x="556.8" y="-57.2" font-family="Times,serif" font-size="14.00">isNorthOf</text>
</g>
<!-- idGlowingGrass1 -->
<g id="node5" class="node">
<title>idGlowingGrass1</title>
<ellipse fill="none" stroke="black" cx="533.42" cy="-18" rx="75.92" ry="18"/>
<text text-anchor="middle" x="533.42" y="-12.95" font-family="Times,serif" font-size="14.00">idGlowingGrass1</text>
</g>
<!-- idPlayerLeftHand&#45;&gt;idGlowingGrass1 -->
<g id="edge4" class="edge">
<title>idPlayerLeftHand&#45;&gt;idGlowingGrass1</title>
<path fill="none" stroke="black" d="M641.75,-89.4C631.88,-83.56 620.71,-76.83 610.67,-70.5 595.94,-61.21 579.88,-50.59 566.24,-41.41"/>
<polygon fill="black" stroke="black" points="568.47,-38.02 558.23,-35.32 564.55,-43.82 568.47,-38.02"/>
<text text-anchor="middle" x="638.8" y="-57.2" font-family="Times,serif" font-size="14.00">isNorthOf</text>
</g>
<!-- idCave1 -->
<g id="node6" class="node">
<title>idCave1</title>
<ellipse fill="none" stroke="black" cx="669.42" cy="-18" rx="41.63" ry="18"/>
<text text-anchor="middle" x="669.42" y="-12.95" font-family="Times,serif" font-size="14.00">idCave1</text>
</g>
<!-- idPlayerLeftHand&#45;&gt;idCave1 -->
<g id="edge5" class="edge">
<title>idPlayerLeftHand&#45;&gt;idCave1</title>
<path fill="none" stroke="black" d="M669.42,-88.41C669.42,-76.64 669.42,-60.73 669.42,-47.11"/>
<polygon fill="black" stroke="black" points="672.92,-47.35 669.42,-37.35 665.92,-47.35 672.92,-47.35"/>
<text text-anchor="middle" x="696.8" y="-57.2" font-family="Times,serif" font-size="14.00">isSouthOf</text>
</g>
<!-- idRockyArea1 -->
<g id="node7" class="node">
<title>idRockyArea1</title>
<ellipse fill="none" stroke="black" cx="793.42" cy="-18" rx="64.66" ry="18"/>
<text text-anchor="middle" x="793.42" y="-12.95" font-family="Times,serif" font-size="14.00">idRockyArea1</text>
</g>
<!-- idPlayerLeftHand&#45;&gt;idRockyArea1 -->
<g id="edge6" class="edge">
<title>idPlayerLeftHand&#45;&gt;idRockyArea1</title>
<path fill="none" stroke="black" d="M698.42,-89.35C708.13,-83.66 718.91,-77.05 728.42,-70.5 741.09,-61.78 754.5,-51.38 765.82,-42.21"/>
<polygon fill="black" stroke="black" points="767.51,-44.53 773.03,-35.49 763.08,-39.12 767.51,-44.53"/>
<text text-anchor="middle" x="774.67" y="-57.2" font-family="Times,serif" font-size="14.00">isEastOf</text>
</g>
<!-- idBottle1 -->
<g id="node8" class="node">
<title>idBottle1</title>
<ellipse fill="none" stroke="black" cx="921.42" cy="-18" rx="45.21" ry="18"/>
<text text-anchor="middle" x="921.42" y="-12.95" font-family="Times,serif" font-size="14.00">idBottle1</text>
</g>
<!-- idPlayerLeftHand&#45;&gt;idBottle1 -->
<g id="edge7" class="edge">
<title>idPlayerLeftHand&#45;&gt;idBottle1</title>
<path fill="none" stroke="black" d="M722.94,-93.2C747.16,-87.15 775.99,-79.28 801.42,-70.5 829.42,-60.84 860.1,-47.62 883.43,-37"/>
<polygon fill="black" stroke="black" points="884.65,-39.83 892.27,-32.47 881.73,-33.47 884.65,-39.83"/>
<text text-anchor="middle" x="865.67" y="-57.2" font-family="Times,serif" font-size="14.00">isEastOf</text>
</g>
<!-- idPebble1 -->
<g id="node9" class="node">
<title>idPebble1</title>
<ellipse fill="none" stroke="black" cx="1032.42" cy="-18" rx="47.77" ry="18"/>
<text text-anchor="middle" x="1032.42" y="-12.95" font-family="Times,serif" font-size="14.00">idPebble1</text>
</g>
<!-- idPlayerLeftHand&#45;&gt;idPebble1 -->
<g id="edge8" class="edge">
<title>idPlayerLeftHand&#45;&gt;idPebble1</title>
<path fill="none" stroke="black" d="M738.46,-98.22C782.88,-92.67 841.59,-83.7 892.42,-70.5 926.65,-61.61 964.2,-47.55 991.78,-36.37"/>
<polygon fill="black" stroke="black" points="992.92,-39.27 1000.84,-32.24 990.26,-32.8 992.92,-39.27"/>
<text text-anchor="middle" x="966.67" y="-57.2" font-family="Times,serif" font-size="14.00">isEastOf</text>
</g>
<!-- idRockPile1 -->
<g id="node10" class="node">
<title>idRockPile1</title>
<ellipse fill="none" stroke="black" cx="1154.42" cy="-18" rx="56.47" ry="18"/>
<text text-anchor="middle" x="1154.42" y="-12.95" font-family="Times,serif" font-size="14.00">idRockPile1</text>
</g>
<!-- idPlayerLeftHand&#45;&gt;idRockPile1 -->
<g id="edge9" class="edge">
<title>idPlayerLeftHand&#45;&gt;idRockPile1</title>
<path fill="none" stroke="black" d="M744.09,-101.72C810.19,-97.37 909.01,-88.37 993.42,-70.5 1033.27,-62.06 1077.24,-47.64 1109.15,-36.19"/>
<polygon fill="black" stroke="black" points="1110.28,-39.14 1118.48,-32.44 1107.89,-32.56 1110.28,-39.14"/>
<text text-anchor="middle" x="1075.67" y="-57.2" font-family="Times,serif" font-size="14.00">isEastOf</text>
</g>
</g>
</svg>
