<?xml version="1.0" encoding="UTF-8" standalone="no"?>
<!DOCTYPE svg PUBLIC "-//W3C//DTD SVG 1.1//EN"
 "http://www.w3.org/Graphics/SVG/1.1/DTD/svg11.dtd">
<!-- Generated by graphviz version 8.1.0 (20230707.0739)
 -->
<!-- Pages: 1 -->
<svg width="1529pt" height="133pt"
 viewBox="0.00 0.00 1528.79 132.50" xmlns="http://www.w3.org/2000/svg" xmlns:xlink="http://www.w3.org/1999/xlink">
<g id="graph0" class="graph" transform="scale(1 1) rotate(0) translate(4 128.5)">
<polygon fill="white" stroke="none" points="-4,4 -4,-128.5 1524.79,-128.5 1524.79,4 -4,4"/>
<!-- idPlayer -->
<g id="node1" class="node">
<title>idPlayer</title>
<ellipse fill="none" stroke="black" cx="759.32" cy="-106.5" rx="41.63" ry="18"/>
<text text-anchor="middle" x="759.32" y="-101.45" font-family="Times,serif" font-size="14.00">idPlayer</text>
</g>
<!-- idPlayer&#45;&gt;idPlayer -->
<g id="edge4" class="edge">
<title>idPlayer&#45;&gt;idPlayer</title>
<path fill="none" stroke="black" d="M796.88,-114.8C809.16,-114.75 818.95,-111.99 818.95,-106.5 818.95,-102.73 814.32,-100.24 807.44,-99.04"/>
<polygon fill="black" stroke="black" points="808.12,-95.51 797.88,-98.2 807.57,-102.48 808.12,-95.51"/>
<text text-anchor="middle" x="836.57" y="-101.45" font-family="Times,serif" font-size="14.00">isNear</text>
</g>
<!-- false -->
<g id="node2" class="node">
<title>false</title>
<ellipse fill="none" stroke="black" cx="28.32" cy="-18" rx="28.32" ry="18"/>
<text text-anchor="middle" x="28.32" y="-12.95" font-family="Times,serif" font-size="14.00">false</text>
</g>
<!-- idPlayer&#45;&gt;false -->
<g id="edge1" class="edge">
<title>idPlayer&#45;&gt;false</title>
<path fill="none" stroke="black" d="M717.58,-105.17C597.02,-103.89 249.91,-97.86 140.07,-70.5 110.77,-63.2 79.76,-48.26 57.85,-36.34"/>
<polygon fill="black" stroke="black" points="59.91,-32.93 49.47,-31.12 56.51,-39.04 59.91,-32.93"/>
<text text-anchor="middle" x="220.95" y="-57.2" font-family="Times,serif" font-size="14.00">idPlayer_prop_idBottleFound</text>
</g>
<!-- idClearing1 -->
<g id="node3" class="node">
<title>idClearing1</title>
<ellipse fill="none" stroke="black" cx="176.32" cy="-18" rx="54.42" ry="18"/>
<text text-anchor="middle" x="176.32" y="-12.95" font-family="Times,serif" font-size="14.00">idClearing1</text>
</g>
<!-- idPlayer&#45;&gt;idClearing1 -->
<g id="edge2" class="edge">
<title>idPlayer&#45;&gt;idClearing1</title>
<path fill="none" stroke="black" d="M717.81,-103.89C647.04,-100.67 498.68,-91.81 375.07,-70.5 314.15,-60 300.14,-51.6 240.32,-36 236.3,-34.95 232.15,-33.86 227.97,-32.76"/>
<polygon fill="black" stroke="black" points="229.18,-29.2 218.62,-30.03 227.39,-35.97 229.18,-29.2"/>
<text text-anchor="middle" x="392.95" y="-57.2" font-family="Times,serif" font-size="14.00">isNear</text>
</g>
<!-- idTheTrees1 -->
<g id="node4" class="node">
<title>idTheTrees1</title>
<ellipse fill="none" stroke="black" cx="306.32" cy="-18" rx="57.49" ry="18"/>
<text text-anchor="middle" x="306.32" y="-12.95" font-family="Times,serif" font-size="14.00">idTheTrees1</text>
</g>
<!-- idPlayer&#45;&gt;idTheTrees1 -->
<g id="edge3" class="edge">
<title>idPlayer&#45;&gt;idTheTrees1</title>
<path fill="none" stroke="black" d="M718.32,-102.74C662.57,-98.48 559.95,-88.8 474.07,-70.5 432.53,-61.65 386.49,-47.16 353.16,-35.81"/>
<polygon fill="black" stroke="black" points="354.41,-32.19 343.81,-32.24 352.12,-38.81 354.41,-32.19"/>
<text text-anchor="middle" x="502.45" y="-57.2" font-family="Times,serif" font-size="14.00">isInsideOf</text>
</g>
<!-- idGrass1 -->
<g id="node5" class="node">
<title>idGrass1</title>
<ellipse fill="none" stroke="black" cx="425.32" cy="-18" rx="43.67" ry="18"/>
<text text-anchor="middle" x="425.32" y="-12.95" font-family="Times,serif" font-size="14.00">idGrass1</text>
</g>
<!-- idPlayer&#45;&gt;idGrass1 -->
<g id="edge5" class="edge">
<title>idPlayer&#45;&gt;idGrass1</title>
<path fill="none" stroke="black" d="M721.21,-98.78C686.54,-92.41 634.07,-82.1 589.07,-70.5 539.15,-57.63 527.48,-51.54 478.32,-36 475.38,-35.07 472.36,-34.11 469.31,-33.14"/>
<polygon fill="black" stroke="black" points="470.54,-29.54 459.95,-29.83 468.41,-36.21 470.54,-29.54"/>
<text text-anchor="middle" x="606.95" y="-57.2" font-family="Times,serif" font-size="14.00">isNear</text>
</g>
<!-- idBranch1 -->
<g id="node6" class="node">
<title>idBranch1</title>
<ellipse fill="none" stroke="black" cx="536.32" cy="-18" rx="49.3" ry="18"/>
<text text-anchor="middle" x="536.32" y="-12.95" font-family="Times,serif" font-size="14.00">idBranch1</text>
</g>
<!-- idPlayer&#45;&gt;idBranch1 -->
<g id="edge6" class="edge">
<title>idPlayer&#45;&gt;idBranch1</title>
<path fill="none" stroke="black" d="M729.25,-93.83C690.61,-78.85 623.31,-52.74 579.29,-35.67"/>
<polygon fill="black" stroke="black" points="580.76,-32.1 570.17,-31.74 578.23,-38.62 580.76,-32.1"/>
<text text-anchor="middle" x="685.95" y="-57.2" font-family="Times,serif" font-size="14.00">isNear</text>
</g>
<!-- idGlowingArea1 -->
<g id="node7" class="node">
<title>idGlowingArea1</title>
<ellipse fill="none" stroke="black" cx="676.32" cy="-18" rx="72.85" ry="18"/>
<text text-anchor="middle" x="676.32" y="-12.95" font-family="Times,serif" font-size="14.00">idGlowingArea1</text>
</g>
<!-- idPlayer&#45;&gt;idGlowingArea1 -->
<g id="edge7" class="edge">
<title>idPlayer&#45;&gt;idGlowingArea1</title>
<path fill="none" stroke="black" d="M744.1,-89.63C731.78,-76.8 714.21,-58.49 700.05,-43.73"/>
<polygon fill="black" stroke="black" points="703.03,-41.74 693.58,-36.95 697.98,-46.59 703.03,-41.74"/>
<text text-anchor="middle" x="752.7" y="-57.2" font-family="Times,serif" font-size="14.00">isNorthOf</text>
</g>
<!-- idGlowingGrass1 -->
<g id="node8" class="node">
<title>idGlowingGrass1</title>
<ellipse fill="none" stroke="black" cx="843.32" cy="-18" rx="75.92" ry="18"/>
<text text-anchor="middle" x="843.32" y="-12.95" font-family="Times,serif" font-size="14.00">idGlowingGrass1</text>
</g>
<!-- idPlayer&#45;&gt;idGlowingGrass1 -->
<g id="edge8" class="edge">
<title>idPlayer&#45;&gt;idGlowingGrass1</title>
<path fill="none" stroke="black" d="M774.73,-89.63C787.2,-76.8 804.98,-58.49 819.31,-43.73"/>
<polygon fill="black" stroke="black" points="821.41,-46.56 825.86,-36.95 816.38,-41.68 821.41,-46.56"/>
<text text-anchor="middle" x="836.7" y="-57.2" font-family="Times,serif" font-size="14.00">isNorthOf</text>
</g>
<!-- idCave1 -->
<g id="node9" class="node">
<title>idCave1</title>
<ellipse fill="none" stroke="black" cx="979.32" cy="-18" rx="41.63" ry="18"/>
<text text-anchor="middle" x="979.32" y="-12.95" font-family="Times,serif" font-size="14.00">idCave1</text>
</g>
<!-- idPlayer&#45;&gt;idCave1 -->
<g id="edge9" class="edge">
<title>idPlayer&#45;&gt;idCave1</title>
<path fill="none" stroke="black" d="M793.09,-95.83C814.81,-89.33 843.51,-80.19 868.32,-70.5 893.94,-60.49 922.04,-47.43 943.56,-36.96"/>
<polygon fill="black" stroke="black" points="944.82,-39.76 952.25,-32.21 941.73,-33.47 944.82,-39.76"/>
<text text-anchor="middle" x="933.7" y="-57.2" font-family="Times,serif" font-size="14.00">isSouthOf</text>
</g>
<!-- idRockyArea1 -->
<g id="node10" class="node">
<title>idRockyArea1</title>
<ellipse fill="none" stroke="black" cx="1103.32" cy="-18" rx="64.66" ry="18"/>
<text text-anchor="middle" x="1103.32" y="-12.95" font-family="Times,serif" font-size="14.00">idRockyArea1</text>
</g>
<!-- idPlayer&#45;&gt;idRockyArea1 -->
<g id="edge10" class="edge">
<title>idPlayer&#45;&gt;idRockyArea1</title>
<path fill="none" stroke="black" d="M799.29,-100.98C841.15,-95.72 908.57,-85.76 965.32,-70.5 997.51,-61.84 1032.7,-48.65 1059.48,-37.78"/>
<polygon fill="black" stroke="black" points="1060.39,-40.78 1068.31,-33.75 1057.73,-34.31 1060.39,-40.78"/>
<text text-anchor="middle" x="1039.57" y="-57.2" font-family="Times,serif" font-size="14.00">isEastOf</text>
</g>
<!-- idBottle1 -->
<g id="node11" class="node">
<title>idBottle1</title>
<ellipse fill="none" stroke="black" cx="1231.32" cy="-18" rx="45.21" ry="18"/>
<text text-anchor="middle" x="1231.32" y="-12.95" font-family="Times,serif" font-size="14.00">idBottle1</text>
</g>
<!-- idPlayer&#45;&gt;idBottle1 -->
<g id="edge11" class="edge">
<title>idPlayer&#45;&gt;idBottle1</title>
<path fill="none" stroke="black" d="M800.43,-103.27C859.7,-99.51 972.36,-90.28 1066.32,-70.5 1116.87,-59.86 1128.01,-51.42 1177.32,-36 1180.27,-35.08 1183.3,-34.13 1186.36,-33.17"/>
<polygon fill="black" stroke="black" points="1187.27,-36.24 1195.76,-29.9 1185.17,-29.56 1187.27,-36.24"/>
<text text-anchor="middle" x="1147.57" y="-57.2" font-family="Times,serif" font-size="14.00">isEastOf</text>
</g>
<!-- idPebble1 -->
<g id="node12" class="node">
<title>idPebble1</title>
<ellipse fill="none" stroke="black" cx="1342.32" cy="-18" rx="47.77" ry="18"/>
<text text-anchor="middle" x="1342.32" y="-12.95" font-family="Times,serif" font-size="14.00">idPebble1</text>
</g>
<!-- idPlayer&#45;&gt;idPebble1 -->
<g id="edge12" class="edge">
<title>idPlayer&#45;&gt;idPebble1</title>
<path fill="none" stroke="black" d="M801.25,-104.91C876.6,-103.2 1039.61,-96.52 1174.32,-70.5 1217.56,-62.15 1265.47,-46.84 1299.02,-35.07"/>
<polygon fill="black" stroke="black" points="1300.13,-38.04 1308.38,-31.39 1297.79,-31.44 1300.13,-38.04"/>
<text text-anchor="middle" x="1263.57" y="-57.2" font-family="Times,serif" font-size="14.00">isEastOf</text>
</g>
<!-- idRockPile1 -->
<g id="node13" class="node">
<title>idRockPile1</title>
<ellipse fill="none" stroke="black" cx="1464.32" cy="-18" rx="56.47" ry="18"/>
<text text-anchor="middle" x="1464.32" y="-12.95" font-family="Times,serif" font-size="14.00">idRockPile1</text>
</g>
<!-- idPlayer&#45;&gt;idRockPile1 -->
<g id="edge13" class="edge">
<title>idPlayer&#45;&gt;idRockPile1</title>
<path fill="none" stroke="black" d="M801.35,-105.88C891.63,-106.01 1110.47,-102.63 1290.32,-70.5 1334.45,-62.62 1383.27,-47.59 1417.94,-35.79"/>
<polygon fill="black" stroke="black" points="1418.91,-38.81 1427.23,-32.25 1416.63,-32.2 1418.91,-38.81"/>
<text text-anchor="middle" x="1381.57" y="-57.2" font-family="Times,serif" font-size="14.00">isEastOf</text>
</g>
</g>
</svg>
