<?xml version="1.0" encoding="UTF-8" standalone="no"?>
<!DOCTYPE svg PUBLIC "-//W3C//DTD SVG 1.1//EN"
 "http://www.w3.org/Graphics/SVG/1.1/DTD/svg11.dtd">
<!-- Generated by graphviz version 8.1.0 (20230707.0739)
 -->
<!-- Pages: 1 -->
<svg width="1200pt" height="133pt"
 viewBox="0.00 0.00 1199.79 132.50" xmlns="http://www.w3.org/2000/svg" xmlns:xlink="http://www.w3.org/1999/xlink">
<g id="graph0" class="graph" transform="scale(1 1) rotate(0) translate(4 128.5)">
<polygon fill="white" stroke="none" points="-4,4 -4,-128.5 1195.79,-128.5 1195.79,4 -4,4"/>
<!-- idPlayerRightHand -->
<g id="node1" class="node">
<title>idPlayerRightHand</title>
<ellipse fill="none" stroke="black" cx="650.32" cy="-106.5" rx="82.06" ry="18"/>
<text text-anchor="middle" x="650.32" y="-101.45" font-family="Times,serif" font-size="14.00">idPlayerRightHand</text>
</g>
<!-- right -->
<g id="node2" class="node">
<title>right</title>
<ellipse fill="none" stroke="black" cx="28.32" cy="-18" rx="28.32" ry="18"/>
<text text-anchor="middle" x="28.32" y="-12.95" font-family="Times,serif" font-size="14.00">right</text>
</g>
<!-- idPlayerRightHand&#45;&gt;right -->
<g id="edge1" class="edge">
<title>idPlayerRightHand&#45;&gt;right</title>
<path fill="none" stroke="black" d="M568.85,-103.82C444.43,-100.59 213.1,-91.88 133.32,-70.5 106.19,-63.23 77.71,-48.77 57.27,-37.02"/>
<polygon fill="black" stroke="black" points="59.31,-33.58 48.92,-31.52 55.76,-39.61 59.31,-33.58"/>
<text text-anchor="middle" x="233.82" y="-57.2" font-family="Times,serif" font-size="14.00">idPlayerRightHand_prop_idLocation</text>
</g>
<!-- idPlayer -->
<g id="node3" class="node">
<title>idPlayer</title>
<ellipse fill="none" stroke="black" cx="215.32" cy="-18" rx="41.63" ry="18"/>
<text text-anchor="middle" x="215.32" y="-12.95" font-family="Times,serif" font-size="14.00">idPlayer</text>
</g>
<!-- idPlayerRightHand&#45;&gt;idPlayer -->
<g id="edge2" class="edge">
<title>idPlayerRightHand&#45;&gt;idPlayer</title>
<path fill="none" stroke="black" d="M579.84,-96.96C501.92,-86.56 373.16,-66.5 265.32,-36 262.56,-35.22 259.73,-34.38 256.89,-33.5"/>
<polygon fill="black" stroke="black" points="258.23,-29.93 247.64,-30.2 256.09,-36.6 258.23,-29.93"/>
<text text-anchor="middle" x="429.95" y="-57.2" font-family="Times,serif" font-size="14.00">isNear</text>
</g>
<!-- idGlowingArea1 -->
<g id="node4" class="node">
<title>idGlowingArea1</title>
<ellipse fill="none" stroke="black" cx="347.32" cy="-18" rx="72.85" ry="18"/>
<text text-anchor="middle" x="347.32" y="-12.95" font-family="Times,serif" font-size="14.00">idGlowingArea1</text>
</g>
<!-- idPlayerRightHand&#45;&gt;idGlowingArea1 -->
<g id="edge3" class="edge">
<title>idPlayerRightHand&#45;&gt;idGlowingArea1</title>
<path fill="none" stroke="black" d="M595.63,-92.76C569.48,-86.45 537.8,-78.48 509.57,-70.5 472.52,-60.03 431.16,-46.88 399.48,-36.48"/>
<polygon fill="black" stroke="black" points="400.71,-32.88 390.12,-33.07 398.52,-39.53 400.71,-32.88"/>
<text text-anchor="middle" x="537.7" y="-57.2" font-family="Times,serif" font-size="14.00">isNorthOf</text>
</g>
<!-- idGlowingGrass1 -->
<g id="node5" class="node">
<title>idGlowingGrass1</title>
<ellipse fill="none" stroke="black" cx="514.32" cy="-18" rx="75.92" ry="18"/>
<text text-anchor="middle" x="514.32" y="-12.95" font-family="Times,serif" font-size="14.00">idGlowingGrass1</text>
</g>
<!-- idPlayerRightHand&#45;&gt;idGlowingGrass1 -->
<g id="edge4" class="edge">
<title>idPlayerRightHand&#45;&gt;idGlowingGrass1</title>
<path fill="none" stroke="black" d="M622.35,-89.23C612.55,-83.42 601.51,-76.77 591.57,-70.5 576.84,-61.21 560.78,-50.59 547.14,-41.41"/>
<polygon fill="black" stroke="black" points="549.37,-38.02 539.12,-35.32 545.45,-43.82 549.37,-38.02"/>
<text text-anchor="middle" x="619.7" y="-57.2" font-family="Times,serif" font-size="14.00">isNorthOf</text>
</g>
<!-- idCave1 -->
<g id="node6" class="node">
<title>idCave1</title>
<ellipse fill="none" stroke="black" cx="650.32" cy="-18" rx="41.63" ry="18"/>
<text text-anchor="middle" x="650.32" y="-12.95" font-family="Times,serif" font-size="14.00">idCave1</text>
</g>
<!-- idPlayerRightHand&#45;&gt;idCave1 -->
<g id="edge5" class="edge">
<title>idPlayerRightHand&#45;&gt;idCave1</title>
<path fill="none" stroke="black" d="M650.32,-88.41C650.32,-76.64 650.32,-60.73 650.32,-47.11"/>
<polygon fill="black" stroke="black" points="653.82,-47.35 650.32,-37.35 646.82,-47.35 653.82,-47.35"/>
<text text-anchor="middle" x="677.7" y="-57.2" font-family="Times,serif" font-size="14.00">isSouthOf</text>
</g>
<!-- idRockyArea1 -->
<g id="node7" class="node">
<title>idRockyArea1</title>
<ellipse fill="none" stroke="black" cx="774.32" cy="-18" rx="64.66" ry="18"/>
<text text-anchor="middle" x="774.32" y="-12.95" font-family="Times,serif" font-size="14.00">idRockyArea1</text>
</g>
<!-- idPlayerRightHand&#45;&gt;idRockyArea1 -->
<g id="edge6" class="edge">
<title>idPlayerRightHand&#45;&gt;idRockyArea1</title>
<path fill="none" stroke="black" d="M679.31,-89.35C689.03,-83.66 699.8,-77.05 709.32,-70.5 721.98,-61.78 735.39,-51.38 746.72,-42.21"/>
<polygon fill="black" stroke="black" points="748.41,-44.53 753.93,-35.49 743.98,-39.12 748.41,-44.53"/>
<text text-anchor="middle" x="755.57" y="-57.2" font-family="Times,serif" font-size="14.00">isEastOf</text>
</g>
<!-- idBottle1 -->
<g id="node8" class="node">
<title>idBottle1</title>
<ellipse fill="none" stroke="black" cx="902.32" cy="-18" rx="45.21" ry="18"/>
<text text-anchor="middle" x="902.32" y="-12.95" font-family="Times,serif" font-size="14.00">idBottle1</text>
</g>
<!-- idPlayerRightHand&#45;&gt;idBottle1 -->
<g id="edge7" class="edge">
<title>idPlayerRightHand&#45;&gt;idBottle1</title>
<path fill="none" stroke="black" d="M705.45,-92.8C729.32,-86.8 757.44,-79.08 782.32,-70.5 810.32,-60.84 841,-47.62 864.33,-37"/>
<polygon fill="black" stroke="black" points="865.55,-39.83 873.17,-32.47 862.62,-33.47 865.55,-39.83"/>
<text text-anchor="middle" x="846.57" y="-57.2" font-family="Times,serif" font-size="14.00">isEastOf</text>
</g>
<!-- idPebble1 -->
<g id="node9" class="node">
<title>idPebble1</title>
<ellipse fill="none" stroke="black" cx="1013.32" cy="-18" rx="47.77" ry="18"/>
<text text-anchor="middle" x="1013.32" y="-12.95" font-family="Times,serif" font-size="14.00">idPebble1</text>
</g>
<!-- idPlayerRightHand&#45;&gt;idPebble1 -->
<g id="edge8" class="edge">
<title>idPlayerRightHand&#45;&gt;idPebble1</title>
<path fill="none" stroke="black" d="M722.86,-97.78C766.84,-92.2 823.82,-83.36 873.32,-70.5 907.55,-61.61 945.1,-47.55 972.68,-36.37"/>
<polygon fill="black" stroke="black" points="973.82,-39.27 981.74,-32.24 971.16,-32.8 973.82,-39.27"/>
<text text-anchor="middle" x="947.57" y="-57.2" font-family="Times,serif" font-size="14.00">isEastOf</text>
</g>
<!-- idRockPile1 -->
<g id="node10" class="node">
<title>idRockPile1</title>
<ellipse fill="none" stroke="black" cx="1135.32" cy="-18" rx="56.47" ry="18"/>
<text text-anchor="middle" x="1135.32" y="-12.95" font-family="Times,serif" font-size="14.00">idRockPile1</text>
</g>
<!-- idPlayerRightHand&#45;&gt;idRockPile1 -->
<g id="edge9" class="edge">
<title>idPlayerRightHand&#45;&gt;idRockPile1</title>
<path fill="none" stroke="black" d="M729.59,-101.42C795.62,-96.95 891.85,-87.96 974.32,-70.5 1014.17,-62.06 1058.14,-47.64 1090.05,-36.19"/>
<polygon fill="black" stroke="black" points="1091.18,-39.14 1099.38,-32.44 1088.79,-32.56 1091.18,-39.14"/>
<text text-anchor="middle" x="1056.57" y="-57.2" font-family="Times,serif" font-size="14.00">isEastOf</text>
</g>
</g>
</svg>
