<?xml version="1.0" encoding="UTF-8" standalone="no"?>
<!DOCTYPE svg PUBLIC "-//W3C//DTD SVG 1.1//EN"
 "http://www.w3.org/Graphics/SVG/1.1/DTD/svg11.dtd">
<!-- Generated by graphviz version 8.1.0 (20230707.0739)
 -->
<!-- Pages: 1 -->
<svg width="2034pt" height="133pt"
 viewBox="0.00 0.00 2033.96 132.50" xmlns="http://www.w3.org/2000/svg" xmlns:xlink="http://www.w3.org/1999/xlink">
<g id="graph0" class="graph" transform="scale(1 1) rotate(0) translate(4 128.5)">
<polygon fill="white" stroke="none" points="-4,4 -4,-128.5 2029.96,-128.5 2029.96,4 -4,4"/>
<!-- idRockyArea1 -->
<g id="node1" class="node">
<title>idRockyArea1</title>
<ellipse fill="none" stroke="black" cx="968.9" cy="-106.5" rx="64.66" ry="18"/>
<text text-anchor="middle" x="968.9" y="-101.45" font-family="Times,serif" font-size="14.00">idRockyArea1</text>
</g>
<!-- idRockyArea1&#45;&gt;idRockyArea1 -->
<g id="edge7" class="edge">
<title>idRockyArea1&#45;&gt;idRockyArea1</title>
<path fill="none" stroke="black" d="M1027.22,-114.65C1041.2,-114.01 1051.56,-111.3 1051.56,-106.5 1051.56,-103.05 1046.21,-100.68 1038.01,-99.38"/>
<polygon fill="black" stroke="black" points="1038.51,-95.82 1028.22,-98.35 1037.84,-102.79 1038.51,-95.82"/>
<text text-anchor="middle" x="1069.19" y="-101.45" font-family="Times,serif" font-size="14.00">isNear</text>
</g>
<!-- rocky -->
<g id="node2" class="node">
<title>rocky</title>
<ellipse fill="none" stroke="black" cx="31.9" cy="-18" rx="31.9" ry="18"/>
<text text-anchor="middle" x="31.9" y="-12.95" font-family="Times,serif" font-size="14.00">rocky</text>
</g>
<!-- idRockyArea1&#45;&gt;rocky -->
<g id="edge1" class="edge">
<title>idRockyArea1&#45;&gt;rocky</title>
<path fill="none" stroke="black" d="M903.78,-105.99C735.11,-106.75 287.18,-105.31 143.4,-70.5 114.65,-63.54 84.31,-48.99 62.55,-37.13"/>
<polygon fill="black" stroke="black" points="64.63,-33.73 54.19,-31.91 61.22,-39.84 64.63,-33.73"/>
<text text-anchor="middle" x="236.15" y="-57.2" font-family="Times,serif" font-size="14.00">idRockyArea1_prop_idDescriptor</text>
</g>
<!-- idRockPile1 -->
<g id="node3" class="node">
<title>idRockPile1</title>
<ellipse fill="none" stroke="black" cx="207.9" cy="-18" rx="56.47" ry="18"/>
<text text-anchor="middle" x="207.9" y="-12.95" font-family="Times,serif" font-size="14.00">idRockPile1</text>
</g>
<!-- idRockyArea1&#45;&gt;idRockPile1 -->
<g id="edge2" class="edge">
<title>idRockyArea1&#45;&gt;idRockPile1</title>
<path fill="none" stroke="black" d="M904.02,-105.27C799.51,-104.03 587.7,-97.98 410.65,-70.5 357.61,-62.27 298.24,-46.37 257.52,-34.41"/>
<polygon fill="black" stroke="black" points="258.66,-30.8 248.07,-31.31 256.66,-37.51 258.66,-30.8"/>
<text text-anchor="middle" x="428.53" y="-57.2" font-family="Times,serif" font-size="14.00">isNear</text>
</g>
<!-- idPebble1 -->
<g id="node4" class="node">
<title>idPebble1</title>
<ellipse fill="none" stroke="black" cx="329.9" cy="-18" rx="47.77" ry="18"/>
<text text-anchor="middle" x="329.9" y="-12.95" font-family="Times,serif" font-size="14.00">idPebble1</text>
</g>
<!-- idRockyArea1&#45;&gt;idPebble1 -->
<g id="edge3" class="edge">
<title>idRockyArea1&#45;&gt;idPebble1</title>
<path fill="none" stroke="black" d="M904.65,-103.75C818.06,-100.63 659.37,-92.25 525.65,-70.5 473.39,-62 414.83,-45.66 375.5,-33.66"/>
<polygon fill="black" stroke="black" points="376.77,-30.08 366.18,-30.48 374.7,-36.77 376.77,-30.08"/>
<text text-anchor="middle" x="543.53" y="-57.2" font-family="Times,serif" font-size="14.00">isNear</text>
</g>
<!-- idTheTrees1 -->
<g id="node5" class="node">
<title>idTheTrees1</title>
<ellipse fill="none" stroke="black" cx="452.9" cy="-18" rx="57.49" ry="18"/>
<text text-anchor="middle" x="452.9" y="-12.95" font-family="Times,serif" font-size="14.00">idTheTrees1</text>
</g>
<!-- idRockyArea1&#45;&gt;idTheTrees1 -->
<g id="edge4" class="edge">
<title>idRockyArea1&#45;&gt;idTheTrees1</title>
<path fill="none" stroke="black" d="M905.49,-102.5C836.58,-98.43 723.48,-89.37 627.65,-70.5 583.78,-61.86 535.07,-47.06 500.25,-35.53"/>
<polygon fill="black" stroke="black" points="501.5,-31.93 490.9,-32.07 499.28,-38.57 501.5,-31.93"/>
<text text-anchor="middle" x="656.03" y="-57.2" font-family="Times,serif" font-size="14.00">isInsideOf</text>
</g>
<!-- idBottle1 -->
<g id="node6" class="node">
<title>idBottle1</title>
<ellipse fill="none" stroke="black" cx="573.9" cy="-18" rx="45.21" ry="18"/>
<text text-anchor="middle" x="573.9" y="-12.95" font-family="Times,serif" font-size="14.00">idBottle1</text>
</g>
<!-- idRockyArea1&#45;&gt;idBottle1 -->
<g id="edge5" class="edge">
<title>idRockyArea1&#45;&gt;idBottle1</title>
<path fill="none" stroke="black" d="M910.84,-98.17C866.44,-92.09 803.84,-82.52 749.65,-70.5 695.16,-58.41 682.4,-51.91 628.9,-36 625.75,-35.06 622.49,-34.08 619.22,-33.09"/>
<polygon fill="black" stroke="black" points="620.37,-29.48 609.78,-29.9 618.32,-36.17 620.37,-29.48"/>
<text text-anchor="middle" x="767.53" y="-57.2" font-family="Times,serif" font-size="14.00">isNear</text>
</g>
<!-- idClearing1 -->
<g id="node7" class="node">
<title>idClearing1</title>
<ellipse fill="none" stroke="black" cx="691.9" cy="-18" rx="54.42" ry="18"/>
<text text-anchor="middle" x="691.9" y="-12.95" font-family="Times,serif" font-size="14.00">idClearing1</text>
</g>
<!-- idRockyArea1&#45;&gt;idClearing1 -->
<g id="edge6" class="edge">
<title>idRockyArea1&#45;&gt;idClearing1</title>
<path fill="none" stroke="black" d="M921.22,-94.01C895.75,-87.61 863.96,-79.19 835.9,-70.5 802.25,-60.07 764.79,-46.62 736.52,-36.08"/>
<polygon fill="black" stroke="black" points="738.13,-32.57 727.54,-32.33 735.67,-39.12 738.13,-32.57"/>
<text text-anchor="middle" x="861.4" y="-57.2" font-family="Times,serif" font-size="14.00">isWestOf</text>
</g>
<!-- idGlowingArea1 -->
<g id="node8" class="node">
<title>idGlowingArea1</title>
<ellipse fill="none" stroke="black" cx="836.9" cy="-18" rx="72.85" ry="18"/>
<text text-anchor="middle" x="836.9" y="-12.95" font-family="Times,serif" font-size="14.00">idGlowingArea1</text>
</g>
<!-- idRockyArea1&#45;&gt;idGlowingArea1 -->
<g id="edge8" class="edge">
<title>idRockyArea1&#45;&gt;idGlowingArea1</title>
<path fill="none" stroke="black" d="M943.64,-89.59C934.27,-83.65 923.57,-76.81 913.9,-70.5 899.46,-61.07 883.6,-50.51 870.05,-41.41"/>
<polygon fill="black" stroke="black" points="872.34,-38.06 862.08,-35.38 868.43,-43.86 872.34,-38.06"/>
<text text-anchor="middle" x="939.4" y="-57.2" font-family="Times,serif" font-size="14.00">isWestOf</text>
</g>
<!-- idPlayer -->
<g id="node9" class="node">
<title>idPlayer</title>
<ellipse fill="none" stroke="black" cx="968.9" cy="-18" rx="41.63" ry="18"/>
<text text-anchor="middle" x="968.9" y="-12.95" font-family="Times,serif" font-size="14.00">idPlayer</text>
</g>
<!-- idRockyArea1&#45;&gt;idPlayer -->
<g id="edge9" class="edge">
<title>idRockyArea1&#45;&gt;idPlayer</title>
<path fill="none" stroke="black" d="M968.9,-88.41C968.9,-76.64 968.9,-60.73 968.9,-47.11"/>
<polygon fill="black" stroke="black" points="972.4,-47.35 968.9,-37.35 965.4,-47.35 972.4,-47.35"/>
<text text-anchor="middle" x="994.4" y="-57.2" font-family="Times,serif" font-size="14.00">isWestOf</text>
</g>
<!-- idGrass1 -->
<g id="node10" class="node">
<title>idGrass1</title>
<ellipse fill="none" stroke="black" cx="1071.9" cy="-18" rx="43.67" ry="18"/>
<text text-anchor="middle" x="1071.9" y="-12.95" font-family="Times,serif" font-size="14.00">idGrass1</text>
</g>
<!-- idRockyArea1&#45;&gt;idGrass1 -->
<g id="edge10" class="edge">
<title>idRockyArea1&#45;&gt;idGrass1</title>
<path fill="none" stroke="black" d="M996.43,-89.89C1005.52,-84.24 1015.46,-77.52 1023.9,-70.5 1033.59,-62.45 1043.26,-52.53 1051.35,-43.56"/>
<polygon fill="black" stroke="black" points="1054.6,-46.16 1058.57,-36.33 1049.34,-41.53 1054.6,-46.16"/>
<text text-anchor="middle" x="1066.4" y="-57.2" font-family="Times,serif" font-size="14.00">isWestOf</text>
</g>
<!-- idBranch1 -->
<g id="node11" class="node">
<title>idBranch1</title>
<ellipse fill="none" stroke="black" cx="1182.9" cy="-18" rx="49.3" ry="18"/>
<text text-anchor="middle" x="1182.9" y="-12.95" font-family="Times,serif" font-size="14.00">idBranch1</text>
</g>
<!-- idRockyArea1&#45;&gt;idBranch1 -->
<g id="edge11" class="edge">
<title>idRockyArea1&#45;&gt;idBranch1</title>
<path fill="none" stroke="black" d="M1019.4,-94.85C1043.12,-89.03 1071.48,-80.87 1095.9,-70.5 1115.21,-62.3 1135.46,-50.53 1151.56,-40.31"/>
<polygon fill="black" stroke="black" points="1153.02,-42.88 1159.52,-34.51 1149.22,-37 1153.02,-42.88"/>
<text text-anchor="middle" x="1154.4" y="-57.2" font-family="Times,serif" font-size="14.00">isWestOf</text>
</g>
<!-- idGlowingGrass1 -->
<g id="node12" class="node">
<title>idGlowingGrass1</title>
<ellipse fill="none" stroke="black" cx="1325.9" cy="-18" rx="75.92" ry="18"/>
<text text-anchor="middle" x="1325.9" y="-12.95" font-family="Times,serif" font-size="14.00">idGlowingGrass1</text>
</g>
<!-- idRockyArea1&#45;&gt;idGlowingGrass1 -->
<g id="edge12" class="edge">
<title>idRockyArea1&#45;&gt;idGlowingGrass1</title>
<path fill="none" stroke="black" d="M1027.92,-98.91C1071.47,-93.32 1131.93,-84.03 1183.9,-70.5 1216.53,-62.01 1252.21,-49.05 1279.63,-38.26"/>
<polygon fill="black" stroke="black" points="1280.72,-41.2 1288.72,-34.25 1278.13,-34.7 1280.72,-41.2"/>
<text text-anchor="middle" x="1261.4" y="-57.2" font-family="Times,serif" font-size="14.00">isWestOf</text>
</g>
<!-- idCave1 -->
<g id="node13" class="node">
<title>idCave1</title>
<ellipse fill="none" stroke="black" cx="1461.9" cy="-18" rx="41.63" ry="18"/>
<text text-anchor="middle" x="1461.9" y="-12.95" font-family="Times,serif" font-size="14.00">idCave1</text>
</g>
<!-- idRockyArea1&#45;&gt;idCave1 -->
<g id="edge13" class="edge">
<title>idRockyArea1&#45;&gt;idCave1</title>
<path fill="none" stroke="black" d="M1031.71,-101.87C1096.96,-97.36 1201.79,-88.02 1290.9,-70.5 1336.12,-61.61 1386.47,-45.69 1420.75,-33.89"/>
<polygon fill="black" stroke="black" points="1421.56,-36.97 1429.85,-30.37 1419.26,-30.36 1421.56,-36.97"/>
<text text-anchor="middle" x="1378.4" y="-57.2" font-family="Times,serif" font-size="14.00">isWestOf</text>
</g>
<!-- idPlayerBackside -->
<g id="node14" class="node">
<title>idPlayerBackside</title>
<ellipse fill="none" stroke="black" cx="1596.9" cy="-18" rx="75.41" ry="18"/>
<text text-anchor="middle" x="1596.9" y="-12.95" font-family="Times,serif" font-size="14.00">idPlayerBackside</text>
</g>
<!-- idRockyArea1&#45;&gt;idPlayerBackside -->
<g id="edge14" class="edge">
<title>idRockyArea1&#45;&gt;idPlayerBackside</title>
<path fill="none" stroke="black" d="M1033.35,-104.11C1119.35,-101.41 1276.1,-93.5 1407.9,-70.5 1454.45,-62.38 1506.14,-47.9 1543.68,-36.36"/>
<polygon fill="black" stroke="black" points="1544.37,-39.5 1552.88,-33.19 1542.29,-32.82 1544.37,-39.5"/>
<text text-anchor="middle" x="1507.4" y="-57.2" font-family="Times,serif" font-size="14.00">isWestOf</text>
</g>
<!-- idPlayerLeftHand -->
<g id="node15" class="node">
<title>idPlayerLeftHand</title>
<ellipse fill="none" stroke="black" cx="1766.9" cy="-18" rx="76.94" ry="18"/>
<text text-anchor="middle" x="1766.9" y="-12.95" font-family="Times,serif" font-size="14.00">idPlayerLeftHand</text>
</g>
<!-- idRockyArea1&#45;&gt;idPlayerLeftHand -->
<g id="edge15" class="edge">
<title>idRockyArea1&#45;&gt;idPlayerLeftHand</title>
<path fill="none" stroke="black" d="M1033.55,-104.85C1139.31,-103.04 1355.69,-96.2 1536.9,-70.5 1595.54,-62.18 1661.38,-46.81 1707.55,-35.02"/>
<polygon fill="black" stroke="black" points="1708.16,-38.22 1716.97,-32.33 1706.41,-31.44 1708.16,-38.22"/>
<text text-anchor="middle" x="1652.4" y="-57.2" font-family="Times,serif" font-size="14.00">isWestOf</text>
</g>
<!-- idPlayerRightHand -->
<g id="node16" class="node">
<title>idPlayerRightHand</title>
<ellipse fill="none" stroke="black" cx="1943.9" cy="-18" rx="82.06" ry="18"/>
<text text-anchor="middle" x="1943.9" y="-12.95" font-family="Times,serif" font-size="14.00">idPlayerRightHand</text>
</g>
<!-- idRockyArea1&#45;&gt;idPlayerRightHand -->
<g id="edge16" class="edge">
<title>idRockyArea1&#45;&gt;idPlayerRightHand</title>
<path fill="none" stroke="black" d="M1033.57,-105.46C1159.06,-104.68 1444.17,-99.54 1681.9,-70.5 1749.92,-62.19 1826.74,-46.31 1879.52,-34.37"/>
<polygon fill="black" stroke="black" points="1880.11,-37.59 1889.08,-31.96 1878.55,-30.77 1880.11,-37.59"/>
<text text-anchor="middle" x="1809.4" y="-57.2" font-family="Times,serif" font-size="14.00">isWestOf</text>
</g>
</g>
</svg>
