<?xml version="1.0" encoding="UTF-8" standalone="no"?>
<!DOCTYPE svg PUBLIC "-//W3C//DTD SVG 1.1//EN"
 "http://www.w3.org/Graphics/SVG/1.1/DTD/svg11.dtd">
<!-- Generated by graphviz version 8.1.0 (20230707.0739)
 -->
<!-- Pages: 1 -->
<svg width="2338pt" height="133pt"
 viewBox="0.00 0.00 2338.36 132.50" xmlns="http://www.w3.org/2000/svg" xmlns:xlink="http://www.w3.org/1999/xlink">
<g id="graph0" class="graph" transform="scale(1 1) rotate(0) translate(4 128.5)">
<polygon fill="white" stroke="none" points="-4,4 -4,-128.5 2334.36,-128.5 2334.36,4 -4,4"/>
<!-- idRockPile1 -->
<g id="node1" class="node">
<title>idRockPile1</title>
<ellipse fill="none" stroke="black" cx="1180.3" cy="-106.5" rx="56.47" ry="18"/>
<text text-anchor="middle" x="1180.3" y="-101.45" font-family="Times,serif" font-size="14.00">idRockPile1</text>
</g>
<!-- idRockPile1&#45;&gt;idRockPile1 -->
<g id="edge7" class="edge">
<title>idRockPile1&#45;&gt;idRockPile1</title>
<path fill="none" stroke="black" d="M1231.11,-114.72C1244.57,-114.25 1254.77,-111.51 1254.77,-106.5 1254.77,-102.98 1249.73,-100.57 1242.06,-99.3"/>
<polygon fill="black" stroke="black" points="1242.4,-95.72 1232.11,-98.28 1241.75,-102.69 1242.4,-95.72"/>
<text text-anchor="middle" x="1272.39" y="-101.45" font-family="Times,serif" font-size="14.00">isNear</text>
</g>
<!-- grey -->
<g id="node2" class="node">
<title>grey</title>
<ellipse fill="none" stroke="black" cx="27.3" cy="-18" rx="27.3" ry="18"/>
<text text-anchor="middle" x="27.3" y="-12.95" font-family="Times,serif" font-size="14.00">grey</text>
</g>
<!-- idRockPile1&#45;&gt;grey -->
<g id="edge1" class="edge">
<title>idRockPile1&#45;&gt;grey</title>
<path fill="none" stroke="black" d="M1123.72,-104.92C904.81,-102.5 123.09,-92.38 75.05,-70.5 62.52,-64.79 51.75,-54.1 43.63,-43.93"/>
<polygon fill="black" stroke="black" points="45.97,-42.21 37.2,-36.27 40.35,-46.38 45.97,-42.21"/>
<text text-anchor="middle" x="148.42" y="-57.2" font-family="Times,serif" font-size="14.00">idRockPile1_prop_idColor</text>
</g>
<!-- bumpy -->
<g id="node3" class="node">
<title>bumpy</title>
<ellipse fill="none" stroke="black" cx="196.3" cy="-18" rx="37.02" ry="18"/>
<text text-anchor="middle" x="196.3" y="-12.95" font-family="Times,serif" font-size="14.00">bumpy</text>
</g>
<!-- idRockPile1&#45;&gt;bumpy -->
<g id="edge2" class="edge">
<title>idRockPile1&#45;&gt;bumpy</title>
<path fill="none" stroke="black" d="M1123.67,-105.77C933.9,-106.35 327.79,-105.41 247.8,-70.5 234.58,-64.73 222.91,-53.88 214.04,-43.62"/>
<polygon fill="black" stroke="black" points="216.29,-41.83 207.28,-36.26 210.85,-46.24 216.29,-41.83"/>
<text text-anchor="middle" x="334.55" y="-57.2" font-family="Times,serif" font-size="14.00">idRockPile1_prop_idDescriptor</text>
</g>
<!-- yes -->
<g id="node4" class="node">
<title>yes</title>
<ellipse fill="none" stroke="black" cx="392.3" cy="-18" rx="27" ry="18"/>
<text text-anchor="middle" x="392.3" y="-12.95" font-family="Times,serif" font-size="14.00">yes</text>
</g>
<!-- idRockPile1&#45;&gt;yes -->
<g id="edge3" class="edge">
<title>idRockPile1&#45;&gt;yes</title>
<path fill="none" stroke="black" d="M1123.52,-105.02C962.31,-103.35 509.38,-96.38 447.8,-70.5 433.45,-64.47 420.51,-53.01 410.74,-42.43"/>
<polygon fill="black" stroke="black" points="412.82,-40.49 403.61,-35.25 407.54,-45.09 412.82,-40.49"/>
<text text-anchor="middle" x="537.55" y="-57.2" font-family="Times,serif" font-size="14.00">idRockPile1_prop_idImmovable</text>
</g>
<!-- idRockyArea1 -->
<g id="node5" class="node">
<title>idRockyArea1</title>
<ellipse fill="none" stroke="black" cx="502.3" cy="-18" rx="64.66" ry="18"/>
<text text-anchor="middle" x="502.3" y="-12.95" font-family="Times,serif" font-size="14.00">idRockyArea1</text>
</g>
<!-- idRockPile1&#45;&gt;idRockyArea1 -->
<g id="edge4" class="edge">
<title>idRockPile1&#45;&gt;idRockyArea1</title>
<path fill="none" stroke="black" d="M1123.96,-104.34C1035.51,-101.84 858.88,-94.08 711.05,-70.5 657.47,-61.95 597.44,-46.51 555.55,-34.76"/>
<polygon fill="black" stroke="black" points="556.62,-31.14 546.04,-31.78 554.71,-37.87 556.62,-31.14"/>
<text text-anchor="middle" x="728.92" y="-57.2" font-family="Times,serif" font-size="14.00">isNear</text>
</g>
<!-- idBottle1 -->
<g id="node6" class="node">
<title>idBottle1</title>
<ellipse fill="none" stroke="black" cx="630.3" cy="-18" rx="45.21" ry="18"/>
<text text-anchor="middle" x="630.3" y="-12.95" font-family="Times,serif" font-size="14.00">idBottle1</text>
</g>
<!-- idRockPile1&#45;&gt;idBottle1 -->
<g id="edge5" class="edge">
<title>idRockPile1&#45;&gt;idBottle1</title>
<path fill="none" stroke="black" d="M1124.89,-102.52C1054.72,-98.17 930.26,-88.57 825.05,-70.5 761.99,-59.67 746.94,-53.12 685.3,-36 681.97,-35.08 678.55,-34.09 675.11,-33.08"/>
<polygon fill="black" stroke="black" points="676.41,-29.52 665.83,-30.01 674.4,-36.23 676.41,-29.52"/>
<text text-anchor="middle" x="842.92" y="-57.2" font-family="Times,serif" font-size="14.00">isNear</text>
</g>
<!-- idTheTrees1 -->
<g id="node7" class="node">
<title>idTheTrees1</title>
<ellipse fill="none" stroke="black" cx="751.3" cy="-18" rx="57.49" ry="18"/>
<text text-anchor="middle" x="751.3" y="-12.95" font-family="Times,serif" font-size="14.00">idTheTrees1</text>
</g>
<!-- idRockPile1&#45;&gt;idTheTrees1 -->
<g id="edge6" class="edge">
<title>idRockPile1&#45;&gt;idTheTrees1</title>
<path fill="none" stroke="black" d="M1126.54,-100.4C1075,-94.96 995.18,-85.11 927.05,-70.5 883.38,-61.14 834.72,-46.54 799.69,-35.28"/>
<polygon fill="black" stroke="black" points="800.87,-31.66 790.28,-31.9 798.71,-38.32 800.87,-31.66"/>
<text text-anchor="middle" x="955.42" y="-57.2" font-family="Times,serif" font-size="14.00">isInsideOf</text>
</g>
<!-- idPebble1 -->
<g id="node8" class="node">
<title>idPebble1</title>
<ellipse fill="none" stroke="black" cx="874.3" cy="-18" rx="47.77" ry="18"/>
<text text-anchor="middle" x="874.3" y="-12.95" font-family="Times,serif" font-size="14.00">idPebble1</text>
</g>
<!-- idRockPile1&#45;&gt;idPebble1 -->
<g id="edge8" class="edge">
<title>idRockPile1&#45;&gt;idPebble1</title>
<path fill="none" stroke="black" d="M1136.27,-94.83C1109.28,-88.15 1074.07,-79.18 1043.05,-70.5 1001.08,-58.75 953.63,-44.15 919.76,-33.5"/>
<polygon fill="black" stroke="black" points="921.3,-30 910.71,-30.33 919.19,-36.68 921.3,-30"/>
<text text-anchor="middle" x="1060.92" y="-57.2" font-family="Times,serif" font-size="14.00">isNear</text>
</g>
<!-- idGlowingArea1 -->
<g id="node9" class="node">
<title>idGlowingArea1</title>
<ellipse fill="none" stroke="black" cx="1013.3" cy="-18" rx="72.85" ry="18"/>
<text text-anchor="middle" x="1013.3" y="-12.95" font-family="Times,serif" font-size="14.00">idGlowingArea1</text>
</g>
<!-- idRockPile1&#45;&gt;idGlowingArea1 -->
<g id="edge9" class="edge">
<title>idRockPile1&#45;&gt;idGlowingArea1</title>
<path fill="none" stroke="black" d="M1151.59,-90.63C1124.41,-76.55 1083.36,-55.29 1053.04,-39.59"/>
<polygon fill="black" stroke="black" points="1055.09,-36.19 1044.6,-34.7 1051.87,-42.4 1055.09,-36.19"/>
<text text-anchor="middle" x="1137.8" y="-57.2" font-family="Times,serif" font-size="14.00">isWestOf</text>
</g>
<!-- idGlowingGrass1 -->
<g id="node10" class="node">
<title>idGlowingGrass1</title>
<ellipse fill="none" stroke="black" cx="1180.3" cy="-18" rx="75.92" ry="18"/>
<text text-anchor="middle" x="1180.3" y="-12.95" font-family="Times,serif" font-size="14.00">idGlowingGrass1</text>
</g>
<!-- idRockPile1&#45;&gt;idGlowingGrass1 -->
<g id="edge10" class="edge">
<title>idRockPile1&#45;&gt;idGlowingGrass1</title>
<path fill="none" stroke="black" d="M1180.3,-88.41C1180.3,-76.64 1180.3,-60.73 1180.3,-47.11"/>
<polygon fill="black" stroke="black" points="1183.8,-47.35 1180.3,-37.35 1176.8,-47.35 1183.8,-47.35"/>
<text text-anchor="middle" x="1205.8" y="-57.2" font-family="Times,serif" font-size="14.00">isWestOf</text>
</g>
<!-- idCave1 -->
<g id="node11" class="node">
<title>idCave1</title>
<ellipse fill="none" stroke="black" cx="1316.3" cy="-18" rx="41.63" ry="18"/>
<text text-anchor="middle" x="1316.3" y="-12.95" font-family="Times,serif" font-size="14.00">idCave1</text>
</g>
<!-- idRockPile1&#45;&gt;idCave1 -->
<g id="edge11" class="edge">
<title>idRockPile1&#45;&gt;idCave1</title>
<path fill="none" stroke="black" d="M1204.93,-89.84C1227.22,-75.65 1260.21,-54.68 1284.49,-39.23"/>
<polygon fill="black" stroke="black" points="1286.1,-41.72 1292.66,-33.4 1282.34,-35.81 1286.1,-41.72"/>
<text text-anchor="middle" x="1286.8" y="-57.2" font-family="Times,serif" font-size="14.00">isWestOf</text>
</g>
<!-- idClearing1 -->
<g id="node12" class="node">
<title>idClearing1</title>
<ellipse fill="none" stroke="black" cx="1430.3" cy="-18" rx="54.42" ry="18"/>
<text text-anchor="middle" x="1430.3" y="-12.95" font-family="Times,serif" font-size="14.00">idClearing1</text>
</g>
<!-- idRockPile1&#45;&gt;idClearing1 -->
<g id="edge12" class="edge">
<title>idRockPile1&#45;&gt;idClearing1</title>
<path fill="none" stroke="black" d="M1226.53,-95.69C1253.12,-89.53 1286.97,-80.81 1316.3,-70.5 1342.12,-61.42 1370.15,-48.8 1391.95,-38.32"/>
<polygon fill="black" stroke="black" points="1393.35,-41.05 1400.81,-33.53 1390.29,-34.75 1393.35,-41.05"/>
<text text-anchor="middle" x="1380.8" y="-57.2" font-family="Times,serif" font-size="14.00">isWestOf</text>
</g>
<!-- idBranch1 -->
<g id="node13" class="node">
<title>idBranch1</title>
<ellipse fill="none" stroke="black" cx="1552.3" cy="-18" rx="49.3" ry="18"/>
<text text-anchor="middle" x="1552.3" y="-12.95" font-family="Times,serif" font-size="14.00">idBranch1</text>
</g>
<!-- idRockPile1&#45;&gt;idBranch1 -->
<g id="edge13" class="edge">
<title>idRockPile1&#45;&gt;idBranch1</title>
<path fill="none" stroke="black" d="M1233.88,-100.37C1280.87,-95.15 1350.8,-85.66 1410.3,-70.5 1445.04,-61.65 1483.17,-47.56 1511.16,-36.36"/>
<polygon fill="black" stroke="black" points="1512.04,-39.38 1519.99,-32.38 1509.41,-32.89 1512.04,-39.38"/>
<text text-anchor="middle" x="1487.8" y="-57.2" font-family="Times,serif" font-size="14.00">isWestOf</text>
</g>
<!-- idGrass1 -->
<g id="node14" class="node">
<title>idGrass1</title>
<ellipse fill="none" stroke="black" cx="1663.3" cy="-18" rx="43.67" ry="18"/>
<text text-anchor="middle" x="1663.3" y="-12.95" font-family="Times,serif" font-size="14.00">idGrass1</text>
</g>
<!-- idRockPile1&#45;&gt;idGrass1 -->
<g id="edge14" class="edge">
<title>idRockPile1&#45;&gt;idGrass1</title>
<path fill="none" stroke="black" d="M1236.41,-103.71C1303.83,-100.63 1420.03,-92.38 1517.3,-70.5 1554.31,-62.17 1594.9,-47.37 1623.86,-35.76"/>
<polygon fill="black" stroke="black" points="1625.04,-38.66 1632.98,-31.65 1622.4,-32.18 1625.04,-38.66"/>
<text text-anchor="middle" x="1600.8" y="-57.2" font-family="Times,serif" font-size="14.00">isWestOf</text>
</g>
<!-- idPlayer -->
<g id="node15" class="node">
<title>idPlayer</title>
<ellipse fill="none" stroke="black" cx="1766.3" cy="-18" rx="41.63" ry="18"/>
<text text-anchor="middle" x="1766.3" y="-12.95" font-family="Times,serif" font-size="14.00">idPlayer</text>
</g>
<!-- idRockPile1&#45;&gt;idPlayer -->
<g id="edge15" class="edge">
<title>idRockPile1&#45;&gt;idPlayer</title>
<path fill="none" stroke="black" d="M1237.18,-106.21C1323.31,-106.14 1491.49,-101.51 1630.3,-70.5 1664.82,-62.79 1702.29,-48.09 1729.14,-36.37"/>
<polygon fill="black" stroke="black" points="1730.16,-39.3 1737.88,-32.04 1727.32,-32.9 1730.16,-39.3"/>
<text text-anchor="middle" x="1709.8" y="-57.2" font-family="Times,serif" font-size="14.00">isWestOf</text>
</g>
<!-- idPlayerBackside -->
<g id="node16" class="node">
<title>idPlayerBackside</title>
<ellipse fill="none" stroke="black" cx="1901.3" cy="-18" rx="75.41" ry="18"/>
<text text-anchor="middle" x="1901.3" y="-12.95" font-family="Times,serif" font-size="14.00">idPlayerBackside</text>
</g>
<!-- idRockPile1&#45;&gt;idPlayerBackside -->
<g id="edge16" class="edge">
<title>idRockPile1&#45;&gt;idPlayerBackside</title>
<path fill="none" stroke="black" d="M1236.49,-103.73C1358.45,-99.61 1644.08,-88.34 1739.3,-70.5 1778.56,-63.15 1821.59,-49.17 1853.43,-37.63"/>
<polygon fill="black" stroke="black" points="1854.18,-40.72 1862.35,-33.98 1851.76,-34.15 1854.18,-40.72"/>
<text text-anchor="middle" x="1828.8" y="-57.2" font-family="Times,serif" font-size="14.00">isWestOf</text>
</g>
<!-- idPlayerLeftHand -->
<g id="node17" class="node">
<title>idPlayerLeftHand</title>
<ellipse fill="none" stroke="black" cx="2071.3" cy="-18" rx="76.94" ry="18"/>
<text text-anchor="middle" x="2071.3" y="-12.95" font-family="Times,serif" font-size="14.00">idPlayerLeftHand</text>
</g>
<!-- idRockPile1&#45;&gt;idPlayerLeftHand -->
<g id="edge17" class="edge">
<title>idRockPile1&#45;&gt;idPlayerLeftHand</title>
<path fill="none" stroke="black" d="M1236.9,-106.11C1353.7,-106.6 1629.69,-103.74 1858.3,-70.5 1912.09,-62.68 1972.19,-47.54 2014.8,-35.7"/>
<polygon fill="black" stroke="black" points="2015.56,-38.84 2024.24,-32.76 2013.67,-32.1 2015.56,-38.84"/>
<text text-anchor="middle" x="1966.8" y="-57.2" font-family="Times,serif" font-size="14.00">isWestOf</text>
</g>
<!-- idPlayerRightHand -->
<g id="node18" class="node">
<title>idPlayerRightHand</title>
<ellipse fill="none" stroke="black" cx="2248.3" cy="-18" rx="82.06" ry="18"/>
<text text-anchor="middle" x="2248.3" y="-12.95" font-family="Times,serif" font-size="14.00">idPlayerRightHand</text>
</g>
<!-- idRockPile1&#45;&gt;idPlayerRightHand -->
<g id="edge18" class="edge">
<title>idRockPile1&#45;&gt;idPlayerRightHand</title>
<path fill="none" stroke="black" d="M1236.94,-106.15C1370,-107.02 1712.71,-105.34 1996.3,-70.5 2061.47,-62.49 2134.91,-46.69 2185.62,-34.7"/>
<polygon fill="black" stroke="black" points="2186.17,-37.92 2195.09,-32.2 2184.55,-31.12 2186.17,-37.92"/>
<text text-anchor="middle" x="2119.8" y="-57.2" font-family="Times,serif" font-size="14.00">isWestOf</text>
</g>
</g>
</svg>
