<?xml version="1.0" encoding="UTF-8" standalone="no"?>
<!DOCTYPE svg PUBLIC "-//W3C//DTD SVG 1.1//EN"
 "http://www.w3.org/Graphics/SVG/1.1/DTD/svg11.dtd">
<!-- Generated by graphviz version 8.1.0 (20230707.0739)
 -->
<!-- Pages: 1 -->
<svg width="1273pt" height="133pt"
 viewBox="0.00 0.00 1273.34 132.50" xmlns="http://www.w3.org/2000/svg" xmlns:xlink="http://www.w3.org/1999/xlink">
<g id="graph0" class="graph" transform="scale(1 1) rotate(0) translate(4 128.5)">
<polygon fill="white" stroke="none" points="-4,4 -4,-128.5 1269.34,-128.5 1269.34,4 -4,4"/>
<!-- idTheTrees1 -->
<g id="node1" class="node">
<title>idTheTrees1</title>
<ellipse fill="none" stroke="black" cx="637.42" cy="-106.5" rx="57.49" ry="18"/>
<text text-anchor="middle" x="637.42" y="-101.45" font-family="Times,serif" font-size="14.00">idTheTrees1</text>
</g>
<!-- idClearing1 -->
<g id="node2" class="node">
<title>idClearing1</title>
<ellipse fill="none" stroke="black" cx="54.42" cy="-18" rx="54.42" ry="18"/>
<text text-anchor="middle" x="54.42" y="-12.95" font-family="Times,serif" font-size="14.00">idClearing1</text>
</g>
<!-- idTheTrees1&#45;&gt;idClearing1 -->
<g id="edge1" class="edge">
<title>idTheTrees1&#45;&gt;idClearing1</title>
<path fill="none" stroke="black" d="M582.01,-101.25C514.69,-95.75 397.76,-85.11 298.17,-70.5 217.26,-58.63 197.12,-54.33 117.42,-36 113.55,-35.11 109.56,-34.14 105.55,-33.14"/>
<polygon fill="black" stroke="black" points="106.53,-29.52 95.98,-30.42 104.79,-36.3 106.53,-29.52"/>
<text text-anchor="middle" x="316.05" y="-57.2" font-family="Times,serif" font-size="14.00">isNear</text>
</g>
<!-- idRockyArea1 -->
<g id="node3" class="node">
<title>idRockyArea1</title>
<ellipse fill="none" stroke="black" cx="191.42" cy="-18" rx="64.66" ry="18"/>
<text text-anchor="middle" x="191.42" y="-12.95" font-family="Times,serif" font-size="14.00">idRockyArea1</text>
</g>
<!-- idTheTrees1&#45;&gt;idRockyArea1 -->
<g id="edge2" class="edge">
<title>idTheTrees1&#45;&gt;idRockyArea1</title>
<path fill="none" stroke="black" d="M585.09,-98.69C538.69,-92.36 469.18,-82.18 409.17,-70.5 354.04,-59.77 291.73,-44.73 247.93,-33.68"/>
<polygon fill="black" stroke="black" points="249.04,-30.1 238.49,-31.03 247.32,-36.88 249.04,-30.1"/>
<text text-anchor="middle" x="427.05" y="-57.2" font-family="Times,serif" font-size="14.00">isNear</text>
</g>
<!-- idGlowingArea1 -->
<g id="node4" class="node">
<title>idGlowingArea1</title>
<ellipse fill="none" stroke="black" cx="347.42" cy="-18" rx="72.85" ry="18"/>
<text text-anchor="middle" x="347.42" y="-12.95" font-family="Times,serif" font-size="14.00">idGlowingArea1</text>
</g>
<!-- idTheTrees1&#45;&gt;idGlowingArea1 -->
<g id="edge3" class="edge">
<title>idTheTrees1&#45;&gt;idGlowingArea1</title>
<path fill="none" stroke="black" d="M592.01,-95.09C564.67,-88.58 529.25,-79.7 498.17,-70.5 464.16,-60.43 426.39,-47.53 397.17,-37.16"/>
<polygon fill="black" stroke="black" points="398.4,-33.52 387.81,-33.46 396.05,-40.12 398.4,-33.52"/>
<text text-anchor="middle" x="516.05" y="-57.2" font-family="Times,serif" font-size="14.00">isNear</text>
</g>
<!-- idPlayer -->
<g id="node5" class="node">
<title>idPlayer</title>
<ellipse fill="none" stroke="black" cx="479.42" cy="-18" rx="41.63" ry="18"/>
<text text-anchor="middle" x="479.42" y="-12.95" font-family="Times,serif" font-size="14.00">idPlayer</text>
</g>
<!-- idTheTrees1&#45;&gt;idPlayer -->
<g id="edge4" class="edge">
<title>idTheTrees1&#45;&gt;idPlayer</title>
<path fill="none" stroke="black" d="M606.64,-91.04C593.99,-84.92 579.26,-77.59 566.17,-70.5 547.76,-60.53 527.63,-48.64 511.4,-38.8"/>
<polygon fill="black" stroke="black" points="513.69,-35.49 503.33,-33.27 510.05,-41.47 513.69,-35.49"/>
<text text-anchor="middle" x="584.05" y="-57.2" font-family="Times,serif" font-size="14.00">isNear</text>
</g>
<!-- idGrass1 -->
<g id="node6" class="node">
<title>idGrass1</title>
<ellipse fill="none" stroke="black" cx="582.42" cy="-18" rx="43.67" ry="18"/>
<text text-anchor="middle" x="582.42" y="-12.95" font-family="Times,serif" font-size="14.00">idGrass1</text>
</g>
<!-- idTheTrees1&#45;&gt;idGrass1 -->
<g id="edge5" class="edge">
<title>idTheTrees1&#45;&gt;idGrass1</title>
<path fill="none" stroke="black" d="M626.56,-88.41C618.67,-76.01 607.86,-59.01 598.92,-44.94"/>
<polygon fill="black" stroke="black" points="601.4,-43.32 593.08,-36.76 595.49,-47.08 601.4,-43.32"/>
<text text-anchor="middle" x="633.05" y="-57.2" font-family="Times,serif" font-size="14.00">isNear</text>
</g>
<!-- idBranch1 -->
<g id="node7" class="node">
<title>idBranch1</title>
<ellipse fill="none" stroke="black" cx="693.42" cy="-18" rx="49.3" ry="18"/>
<text text-anchor="middle" x="693.42" y="-12.95" font-family="Times,serif" font-size="14.00">idBranch1</text>
</g>
<!-- idTheTrees1&#45;&gt;idBranch1 -->
<g id="edge6" class="edge">
<title>idTheTrees1&#45;&gt;idBranch1</title>
<path fill="none" stroke="black" d="M648.49,-88.41C656.51,-76.01 667.52,-59.01 676.63,-44.94"/>
<polygon fill="black" stroke="black" points="680.08,-47.06 682.57,-36.76 674.2,-43.25 680.08,-47.06"/>
<text text-anchor="middle" x="689.05" y="-57.2" font-family="Times,serif" font-size="14.00">isNear</text>
</g>
<!-- idRockPile1 -->
<g id="node8" class="node">
<title>idRockPile1</title>
<ellipse fill="none" stroke="black" cx="817.42" cy="-18" rx="56.47" ry="18"/>
<text text-anchor="middle" x="817.42" y="-12.95" font-family="Times,serif" font-size="14.00">idRockPile1</text>
</g>
<!-- idTheTrees1&#45;&gt;idRockPile1 -->
<g id="edge7" class="edge">
<title>idTheTrees1&#45;&gt;idRockPile1</title>
<path fill="none" stroke="black" d="M667.97,-90.87C681.05,-84.6 696.49,-77.19 710.42,-70.5 732.68,-59.81 757.53,-47.85 777.68,-38.15"/>
<polygon fill="black" stroke="black" points="778.96,-40.93 786.45,-33.44 775.92,-34.63 778.96,-40.93"/>
<text text-anchor="middle" x="761.05" y="-57.2" font-family="Times,serif" font-size="14.00">isNear</text>
</g>
<!-- idPebble1 -->
<g id="node9" class="node">
<title>idPebble1</title>
<ellipse fill="none" stroke="black" cx="939.42" cy="-18" rx="47.77" ry="18"/>
<text text-anchor="middle" x="939.42" y="-12.95" font-family="Times,serif" font-size="14.00">idPebble1</text>
</g>
<!-- idTheTrees1&#45;&gt;idPebble1 -->
<g id="edge8" class="edge">
<title>idTheTrees1&#45;&gt;idPebble1</title>
<path fill="none" stroke="black" d="M683.38,-95.4C712.02,-88.86 749.54,-79.85 782.42,-70.5 820.85,-59.58 863.93,-45.3 895.22,-34.55"/>
<polygon fill="black" stroke="black" points="896.05,-37.62 904.36,-31.05 893.77,-31 896.05,-37.62"/>
<text text-anchor="middle" x="853.05" y="-57.2" font-family="Times,serif" font-size="14.00">isNear</text>
</g>
<!-- idBottle1 -->
<g id="node10" class="node">
<title>idBottle1</title>
<ellipse fill="none" stroke="black" cx="1050.42" cy="-18" rx="45.21" ry="18"/>
<text text-anchor="middle" x="1050.42" y="-12.95" font-family="Times,serif" font-size="14.00">idBottle1</text>
</g>
<!-- idTheTrees1&#45;&gt;idBottle1 -->
<g id="edge9" class="edge">
<title>idTheTrees1&#45;&gt;idBottle1</title>
<path fill="none" stroke="black" d="M690.96,-99.59C739.22,-93.8 812,-83.88 874.42,-70.5 929.52,-58.69 942.43,-52.13 996.42,-36 999.38,-35.12 1002.42,-34.19 1005.49,-33.26"/>
<polygon fill="black" stroke="black" points="1006.38,-36.33 1014.9,-30.03 1004.31,-29.65 1006.38,-36.33"/>
<text text-anchor="middle" x="956.05" y="-57.2" font-family="Times,serif" font-size="14.00">isNear</text>
</g>
<!-- idGlowingGrass1 -->
<g id="node11" class="node">
<title>idGlowingGrass1</title>
<ellipse fill="none" stroke="black" cx="1189.42" cy="-18" rx="75.92" ry="18"/>
<text text-anchor="middle" x="1189.42" y="-12.95" font-family="Times,serif" font-size="14.00">idGlowingGrass1</text>
</g>
<!-- idTheTrees1&#45;&gt;idGlowingGrass1 -->
<g id="edge10" class="edge">
<title>idTheTrees1&#45;&gt;idGlowingGrass1</title>
<path fill="none" stroke="black" d="M693.69,-102.06C761.38,-97.37 878.3,-87.56 977.42,-70.5 1030.24,-61.41 1089.45,-46.63 1131.83,-35.23"/>
<polygon fill="black" stroke="black" points="1132.5,-38.41 1141.24,-32.41 1130.67,-31.65 1132.5,-38.41"/>
<text text-anchor="middle" x="1072.05" y="-57.2" font-family="Times,serif" font-size="14.00">isNear</text>
</g>
</g>
</svg>
