<?xml version="1.0" encoding="UTF-8" standalone="no"?>
<!DOCTYPE svg PUBLIC "-//W3C//DTD SVG 1.1//EN"
 "http://www.w3.org/Graphics/SVG/1.1/DTD/svg11.dtd">
<!-- Generated by graphviz version 8.1.0 (20230707.0739)
 -->
<!-- Pages: 1 -->
<svg width="3080pt" height="133pt"
 viewBox="0.00 0.00 3080.21 132.50" xmlns="http://www.w3.org/2000/svg" xmlns:xlink="http://www.w3.org/1999/xlink">
<g id="graph0" class="graph" transform="scale(1 1) rotate(0) translate(4 128.5)">
<polygon fill="white" stroke="none" points="-4,4 -4,-128.5 3076.21,-128.5 3076.21,4 -4,4"/>
<!-- idArea1 -->
<g id="node1" class="node">
<title>idArea1</title>
<ellipse fill="none" stroke="black" cx="1517" cy="-106.5" rx="40.6" ry="18"/>
<text text-anchor="middle" x="1517" y="-101.45" font-family="Times,serif" font-size="14.00">idArea1</text>
</g>
<!-- idArea1&#45;&gt;idArea1 -->
<g id="edge10" class="edge">
<title>idArea1&#45;&gt;idArea1</title>
<path fill="none" stroke="black" d="M1553.62,-114.8C1565.83,-114.8 1575.6,-112.03 1575.6,-106.5 1575.6,-102.7 1570.98,-100.2 1564.13,-99.01"/>
<polygon fill="black" stroke="black" points="1564.86,-95.48 1554.62,-98.2 1564.33,-102.46 1564.86,-95.48"/>
<text text-anchor="middle" x="1593.23" y="-101.45" font-family="Times,serif" font-size="14.00">isNear</text>
</g>
<!-- logged -->
<g id="node2" class="node">
<title>logged</title>
<ellipse fill="none" stroke="black" cx="36" cy="-18" rx="36" ry="18"/>
<text text-anchor="middle" x="36" y="-12.95" font-family="Times,serif" font-size="14.00">logged</text>
</g>
<!-- idArea1&#45;&gt;logged -->
<g id="edge1" class="edge">
<title>idArea1&#45;&gt;logged</title>
<path fill="none" stroke="black" d="M1476.22,-105.27C1250.47,-103.89 161.78,-95.96 95.75,-70.5 80.68,-64.69 66.81,-53.3 56.24,-42.71"/>
<polygon fill="black" stroke="black" points="59.24,-40.73 49.83,-35.87 54.15,-45.54 59.24,-40.73"/>
<text text-anchor="middle" x="170.62" y="-57.2" font-family="Times,serif" font-size="14.00">idArea1_prop_idDescriptor</text>
</g>
<!-- stumpy -->
<g id="node3" class="node">
<title>stumpy</title>
<ellipse fill="none" stroke="black" cx="208" cy="-18" rx="38.56" ry="18"/>
<text text-anchor="middle" x="208" y="-12.95" font-family="Times,serif" font-size="14.00">stumpy</text>
</g>
<!-- idArea1&#45;&gt;stumpy -->
<g id="edge2" class="edge">
<title>idArea1&#45;&gt;stumpy</title>
<path fill="none" stroke="black" d="M1476.03,-105.79C1274.51,-107.01 393.48,-110.03 278.25,-70.5 261.05,-64.6 244.5,-52.88 231.8,-42.11"/>
<polygon fill="black" stroke="black" points="234.46,-39.9 224.65,-35.89 229.81,-45.14 234.46,-39.9"/>
<text text-anchor="middle" x="360.37" y="-57.2" font-family="Times,serif" font-size="14.00">idArea1_prop_idDescriptor_1</text>
</g>
<!-- idStump1 -->
<g id="node4" class="node">
<title>idStump1</title>
<ellipse fill="none" stroke="black" cx="323" cy="-18" rx="47.26" ry="18"/>
<text text-anchor="middle" x="323" y="-12.95" font-family="Times,serif" font-size="14.00">idStump1</text>
</g>
<!-- idArea1&#45;&gt;idStump1 -->
<g id="edge3" class="edge">
<title>idArea1&#45;&gt;idStump1</title>
<path fill="none" stroke="black" d="M1476.06,-105.16C1313.17,-103.65 710.71,-96.39 521.75,-70.5 468.05,-63.14 408.02,-46.36 368.13,-33.94"/>
<polygon fill="black" stroke="black" points="369.27,-30.31 358.68,-30.64 367.17,-36.99 369.27,-30.31"/>
<text text-anchor="middle" x="539.62" y="-57.2" font-family="Times,serif" font-size="14.00">isNear</text>
</g>
<!-- idBumper1 -->
<g id="node5" class="node">
<title>idBumper1</title>
<ellipse fill="none" stroke="black" cx="441" cy="-18" rx="52.89" ry="18"/>
<text text-anchor="middle" x="441" y="-12.95" font-family="Times,serif" font-size="14.00">idBumper1</text>
</g>
<!-- idArea1&#45;&gt;idBumper1 -->
<g id="edge4" class="edge">
<title>idArea1&#45;&gt;idBumper1</title>
<path fill="none" stroke="black" d="M1476.25,-105.03C1325.83,-103.11 801.96,-94.81 636.75,-70.5 585,-62.89 527.25,-46.71 487.97,-34.51"/>
<polygon fill="black" stroke="black" points="489.24,-30.93 478.65,-31.26 487.14,-37.6 489.24,-30.93"/>
<text text-anchor="middle" x="654.62" y="-57.2" font-family="Times,serif" font-size="14.00">isNear</text>
</g>
<!-- idTheCar1 -->
<g id="node6" class="node">
<title>idTheCar1</title>
<ellipse fill="none" stroke="black" cx="562" cy="-18" rx="50.33" ry="18"/>
<text text-anchor="middle" x="562" y="-12.95" font-family="Times,serif" font-size="14.00">idTheCar1</text>
</g>
<!-- idArea1&#45;&gt;idTheCar1 -->
<g id="edge5" class="edge">
<title>idArea1&#45;&gt;idTheCar1</title>
<path fill="none" stroke="black" d="M1476.49,-104.84C1338.91,-102.43 890.2,-92.99 747.75,-70.5 698.8,-62.77 644.33,-46.75 607.1,-34.62"/>
<polygon fill="black" stroke="black" points="608.67,-31.12 598.08,-31.31 606.48,-37.77 608.67,-31.12"/>
<text text-anchor="middle" x="776.12" y="-57.2" font-family="Times,serif" font-size="14.00">isInsideOf</text>
</g>
<!-- idCarKey1 -->
<g id="node7" class="node">
<title>idCarKey1</title>
<ellipse fill="none" stroke="black" cx="682" cy="-18" rx="51.35" ry="18"/>
<text text-anchor="middle" x="682" y="-12.95" font-family="Times,serif" font-size="14.00">idCarKey1</text>
</g>
<!-- idArea1&#45;&gt;idCarKey1 -->
<g id="edge6" class="edge">
<title>idArea1&#45;&gt;idCarKey1</title>
<path fill="none" stroke="black" d="M1476.26,-105.74C1375.74,-105.79 1108.07,-102.62 887.75,-70.5 832.61,-62.46 770.76,-45.93 729.41,-33.76"/>
<polygon fill="black" stroke="black" points="730.67,-30.18 720.09,-30.69 728.68,-36.89 730.67,-30.18"/>
<text text-anchor="middle" x="905.62" y="-57.2" font-family="Times,serif" font-size="14.00">isNear</text>
</g>
<!-- idTheCarRoom1 -->
<g id="node8" class="node">
<title>idTheCarRoom1</title>
<ellipse fill="none" stroke="black" cx="825" cy="-18" rx="73.36" ry="18"/>
<text text-anchor="middle" x="825" y="-12.95" font-family="Times,serif" font-size="14.00">idTheCarRoom1</text>
</g>
<!-- idArea1&#45;&gt;idTheCarRoom1 -->
<g id="edge7" class="edge">
<title>idArea1&#45;&gt;idTheCarRoom1</title>
<path fill="none" stroke="black" d="M1476.01,-106.02C1386.93,-106.44 1169.39,-103.63 991,-70.5 950.57,-62.99 906.16,-48.89 873.45,-37.33"/>
<polygon fill="black" stroke="black" points="874.85,-33.76 864.26,-33.69 872.49,-40.35 874.85,-33.76"/>
<text text-anchor="middle" x="1016.5" y="-57.2" font-family="Times,serif" font-size="14.00">isWestOf</text>
</g>
<!-- idClearing1 -->
<g id="node9" class="node">
<title>idClearing1</title>
<ellipse fill="none" stroke="black" cx="971" cy="-18" rx="54.42" ry="18"/>
<text text-anchor="middle" x="971" y="-12.95" font-family="Times,serif" font-size="14.00">idClearing1</text>
</g>
<!-- idArea1&#45;&gt;idClearing1 -->
<g id="edge8" class="edge">
<title>idArea1&#45;&gt;idClearing1</title>
<path fill="none" stroke="black" d="M1476.08,-106.33C1399.77,-106.96 1231.08,-103.98 1094,-70.5 1064.28,-63.24 1032.48,-49.76 1008.65,-38.41"/>
<polygon fill="black" stroke="black" points="1010.48,-34.92 999.96,-33.7 1007.43,-41.22 1010.48,-34.92"/>
<text text-anchor="middle" x="1119.5" y="-57.2" font-family="Times,serif" font-size="14.00">isWestOf</text>
</g>
<!-- idDen1 -->
<g id="node10" class="node">
<title>idDen1</title>
<ellipse fill="none" stroke="black" cx="1081" cy="-18" rx="38.04" ry="18"/>
<text text-anchor="middle" x="1081" y="-12.95" font-family="Times,serif" font-size="14.00">idDen1</text>
</g>
<!-- idArea1&#45;&gt;idDen1 -->
<g id="edge9" class="edge">
<title>idArea1&#45;&gt;idDen1</title>
<path fill="none" stroke="black" d="M1476.09,-105.26C1413.89,-103.98 1292.3,-97.8 1193.25,-70.5 1165.46,-62.84 1135.91,-49.03 1114.11,-37.63"/>
<polygon fill="black" stroke="black" points="1116.14,-34.22 1105.67,-32.6 1112.84,-40.39 1116.14,-34.22"/>
<text text-anchor="middle" x="1221.37" y="-57.2" font-family="Times,serif" font-size="14.00">isNorthOf</text>
</g>
<!-- idPlayer -->
<g id="node11" class="node">
<title>idPlayer</title>
<ellipse fill="none" stroke="black" cx="1179" cy="-18" rx="41.63" ry="18"/>
<text text-anchor="middle" x="1179" y="-12.95" font-family="Times,serif" font-size="14.00">idPlayer</text>
</g>
<!-- idArea1&#45;&gt;idPlayer -->
<g id="edge11" class="edge">
<title>idArea1&#45;&gt;idPlayer</title>
<path fill="none" stroke="black" d="M1477.22,-102.46C1432.07,-98.28 1356.55,-89.06 1294,-70.5 1266.17,-62.25 1236.3,-48.71 1213.97,-37.59"/>
<polygon fill="black" stroke="black" points="1215.78,-34.08 1205.28,-32.68 1212.62,-40.32 1215.78,-34.08"/>
<text text-anchor="middle" x="1319.5" y="-57.2" font-family="Times,serif" font-size="14.00">isWestOf</text>
</g>
<!-- idCar1 -->
<g id="node12" class="node">
<title>idCar1</title>
<ellipse fill="none" stroke="black" cx="1275" cy="-18" rx="36" ry="18"/>
<text text-anchor="middle" x="1275" y="-12.95" font-family="Times,serif" font-size="14.00">idCar1</text>
</g>
<!-- idArea1&#45;&gt;idCar1 -->
<g id="edge12" class="edge">
<title>idArea1&#45;&gt;idCar1</title>
<path fill="none" stroke="black" d="M1481.18,-97.7C1454.55,-91.48 1417.53,-81.93 1386,-70.5 1359.44,-60.88 1330.53,-47.36 1308.88,-36.59"/>
<polygon fill="black" stroke="black" points="1310.68,-33.07 1300.17,-31.7 1307.53,-39.32 1310.68,-33.07"/>
<text text-anchor="middle" x="1411.5" y="-57.2" font-family="Times,serif" font-size="14.00">isWestOf</text>
</g>
<!-- idSideMirror1 -->
<g id="node13" class="node">
<title>idSideMirror1</title>
<ellipse fill="none" stroke="black" cx="1393" cy="-18" rx="64.15" ry="18"/>
<text text-anchor="middle" x="1393" y="-12.95" font-family="Times,serif" font-size="14.00">idSideMirror1</text>
</g>
<!-- idArea1&#45;&gt;idSideMirror1 -->
<g id="edge13" class="edge">
<title>idArea1&#45;&gt;idSideMirror1</title>
<path fill="none" stroke="black" d="M1494,-91.4C1484.05,-85.16 1472.34,-77.63 1462,-70.5 1448.96,-61.5 1434.89,-51.13 1422.88,-42.06"/>
<polygon fill="black" stroke="black" points="1425.22,-38.69 1415.14,-35.42 1420.99,-44.26 1425.22,-38.69"/>
<text text-anchor="middle" x="1487.5" y="-57.2" font-family="Times,serif" font-size="14.00">isWestOf</text>
</g>
<!-- idBush1 -->
<g id="node14" class="node">
<title>idBush1</title>
<ellipse fill="none" stroke="black" cx="1517" cy="-18" rx="41.63" ry="18"/>
<text text-anchor="middle" x="1517" y="-12.95" font-family="Times,serif" font-size="14.00">idBush1</text>
</g>
<!-- idArea1&#45;&gt;idBush1 -->
<g id="edge14" class="edge">
<title>idArea1&#45;&gt;idBush1</title>
<path fill="none" stroke="black" d="M1517,-88.41C1517,-76.64 1517,-60.73 1517,-47.11"/>
<polygon fill="black" stroke="black" points="1520.5,-47.35 1517,-37.35 1513.5,-47.35 1520.5,-47.35"/>
<text text-anchor="middle" x="1542.5" y="-57.2" font-family="Times,serif" font-size="14.00">isWestOf</text>
</g>
<!-- idWhistle1 -->
<g id="node15" class="node">
<title>idWhistle1</title>
<ellipse fill="none" stroke="black" cx="1628" cy="-18" rx="51.86" ry="18"/>
<text text-anchor="middle" x="1628" y="-12.95" font-family="Times,serif" font-size="14.00">idWhistle1</text>
</g>
<!-- idArea1&#45;&gt;idWhistle1 -->
<g id="edge15" class="edge">
<title>idArea1&#45;&gt;idWhistle1</title>
<path fill="none" stroke="black" d="M1540.9,-91.57C1550.79,-85.48 1562.21,-78.02 1572,-70.5 1583.13,-61.95 1594.66,-51.63 1604.35,-42.47"/>
<polygon fill="black" stroke="black" points="1606.22,-45.57 1611.01,-36.12 1601.37,-40.52 1606.22,-45.57"/>
<text text-anchor="middle" x="1617.5" y="-57.2" font-family="Times,serif" font-size="14.00">isWestOf</text>
</g>
<!-- idBear1 -->
<g id="node16" class="node">
<title>idBear1</title>
<ellipse fill="none" stroke="black" cx="1738" cy="-18" rx="40.09" ry="18"/>
<text text-anchor="middle" x="1738" y="-12.95" font-family="Times,serif" font-size="14.00">idBear1</text>
</g>
<!-- idArea1&#45;&gt;idBear1 -->
<g id="edge16" class="edge">
<title>idArea1&#45;&gt;idBear1</title>
<path fill="none" stroke="black" d="M1553.67,-98.22C1580.16,-92.35 1616.5,-83 1647,-70.5 1667.97,-61.9 1690.14,-49.44 1707.34,-38.93"/>
<polygon fill="black" stroke="black" points="1708.7,-41.58 1715.35,-33.32 1705.01,-35.63 1708.7,-41.58"/>
<text text-anchor="middle" x="1708.37" y="-57.2" font-family="Times,serif" font-size="14.00">isNorthOf</text>
</g>
<!-- idTire1 -->
<g id="node17" class="node">
<title>idTire1</title>
<ellipse fill="none" stroke="black" cx="1834" cy="-18" rx="38.04" ry="18"/>
<text text-anchor="middle" x="1834" y="-12.95" font-family="Times,serif" font-size="14.00">idTire1</text>
</g>
<!-- idArea1&#45;&gt;idTire1 -->
<g id="edge17" class="edge">
<title>idArea1&#45;&gt;idTire1</title>
<path fill="none" stroke="black" d="M1557.47,-103.34C1602.94,-99.97 1678.42,-91.48 1740,-70.5 1762.44,-62.85 1785.82,-50.06 1803.66,-39.14"/>
<polygon fill="black" stroke="black" points="1805.34,-41.59 1811.95,-33.31 1801.62,-35.66 1805.34,-41.59"/>
<text text-anchor="middle" x="1803.37" y="-57.2" font-family="Times,serif" font-size="14.00">isNorthOf</text>
</g>
<!-- idTaillight1 -->
<g id="node18" class="node">
<title>idTaillight1</title>
<ellipse fill="none" stroke="black" cx="1944" cy="-18" rx="54.42" ry="18"/>
<text text-anchor="middle" x="1944" y="-12.95" font-family="Times,serif" font-size="14.00">idTaillight1</text>
</g>
<!-- idArea1&#45;&gt;idTaillight1 -->
<g id="edge18" class="edge">
<title>idArea1&#45;&gt;idTaillight1</title>
<path fill="none" stroke="black" d="M1557.98,-105.29C1619.35,-104.02 1738.26,-97.85 1835,-70.5 1860.61,-63.26 1887.68,-50.5 1908.43,-39.49"/>
<polygon fill="black" stroke="black" points="1909.96,-42.11 1917.08,-34.26 1906.62,-35.95 1909.96,-42.11"/>
<text text-anchor="middle" x="1906.37" y="-57.2" font-family="Times,serif" font-size="14.00">isNorthOf</text>
</g>
<!-- idCrowbar1 -->
<g id="node19" class="node">
<title>idCrowbar1</title>
<ellipse fill="none" stroke="black" cx="2071" cy="-18" rx="54.93" ry="18"/>
<text text-anchor="middle" x="2071" y="-12.95" font-family="Times,serif" font-size="14.00">idCrowbar1</text>
</g>
<!-- idArea1&#45;&gt;idCrowbar1 -->
<g id="edge19" class="edge">
<title>idArea1&#45;&gt;idCrowbar1</title>
<path fill="none" stroke="black" d="M1557.94,-105.95C1633.88,-105.95 1801.3,-101.96 1938,-70.5 1970.38,-63.05 2005.35,-49.26 2031.31,-37.82"/>
<polygon fill="black" stroke="black" points="2032.45,-40.7 2040.14,-33.41 2029.58,-34.31 2032.45,-40.7"/>
<text text-anchor="middle" x="2016.5" y="-57.2" font-family="Times,serif" font-size="14.00">isWestOf</text>
</g>
<!-- idLock1 -->
<g id="node20" class="node">
<title>idLock1</title>
<ellipse fill="none" stroke="black" cx="2186" cy="-18" rx="41.63" ry="18"/>
<text text-anchor="middle" x="2186" y="-12.95" font-family="Times,serif" font-size="14.00">idLock1</text>
</g>
<!-- idArea1&#45;&gt;idLock1 -->
<g id="edge20" class="edge">
<title>idArea1&#45;&gt;idLock1</title>
<path fill="none" stroke="black" d="M1557.48,-104.32C1664.45,-100.96 1952.81,-90.29 2046,-70.5 2081.71,-62.91 2120.55,-48.06 2148.24,-36.25"/>
<polygon fill="black" stroke="black" points="2149.5,-39.09 2157.28,-31.89 2146.71,-32.67 2149.5,-39.09"/>
<text text-anchor="middle" x="2127.5" y="-57.2" font-family="Times,serif" font-size="14.00">isWestOf</text>
</g>
<!-- idPlayerBackside -->
<g id="node21" class="node">
<title>idPlayerBackside</title>
<ellipse fill="none" stroke="black" cx="2321" cy="-18" rx="75.41" ry="18"/>
<text text-anchor="middle" x="2321" y="-12.95" font-family="Times,serif" font-size="14.00">idPlayerBackside</text>
</g>
<!-- idArea1&#45;&gt;idPlayerBackside -->
<g id="edge21" class="edge">
<title>idArea1&#45;&gt;idPlayerBackside</title>
<path fill="none" stroke="black" d="M1557.79,-104.6C1679.91,-101.69 2041.21,-91.5 2157,-70.5 2196.87,-63.27 2240.59,-49.21 2272.86,-37.61"/>
<polygon fill="black" stroke="black" points="2273.72,-40.66 2281.91,-33.95 2271.32,-34.09 2273.72,-40.66"/>
<text text-anchor="middle" x="2247.5" y="-57.2" font-family="Times,serif" font-size="14.00">isWestOf</text>
</g>
<!-- idPlayerLeftHand -->
<g id="node22" class="node">
<title>idPlayerLeftHand</title>
<ellipse fill="none" stroke="black" cx="2491" cy="-18" rx="76.94" ry="18"/>
<text text-anchor="middle" x="2491" y="-12.95" font-family="Times,serif" font-size="14.00">idPlayerLeftHand</text>
</g>
<!-- idArea1&#45;&gt;idPlayerLeftHand -->
<g id="edge22" class="edge">
<title>idArea1&#45;&gt;idPlayerLeftHand</title>
<path fill="none" stroke="black" d="M1557.46,-104.65C1693.86,-101.63 2136.09,-90.51 2277,-70.5 2331.06,-62.82 2391.44,-47.67 2434.25,-35.78"/>
<polygon fill="black" stroke="black" points="2435.05,-38.91 2443.73,-32.83 2433.16,-32.17 2435.05,-38.91"/>
<text text-anchor="middle" x="2386.5" y="-57.2" font-family="Times,serif" font-size="14.00">isWestOf</text>
</g>
<!-- idPlayerRightHand -->
<g id="node23" class="node">
<title>idPlayerRightHand</title>
<ellipse fill="none" stroke="black" cx="2668" cy="-18" rx="82.06" ry="18"/>
<text text-anchor="middle" x="2668" y="-12.95" font-family="Times,serif" font-size="14.00">idPlayerRightHand</text>
</g>
<!-- idArea1&#45;&gt;idPlayerRightHand -->
<g id="edge23" class="edge">
<title>idArea1&#45;&gt;idPlayerRightHand</title>
<path fill="none" stroke="black" d="M1557.79,-104.79C1710.23,-102.02 2246.39,-90.99 2416,-70.5 2481.18,-62.62 2554.62,-46.8 2605.33,-34.77"/>
<polygon fill="black" stroke="black" points="2605.89,-37.99 2614.8,-32.26 2604.25,-31.19 2605.89,-37.99"/>
<text text-anchor="middle" x="2539.5" y="-57.2" font-family="Times,serif" font-size="14.00">isWestOf</text>
</g>
<!-- idSmoke1 -->
<g id="node24" class="node">
<title>idSmoke1</title>
<ellipse fill="none" stroke="black" cx="2817" cy="-18" rx="48.79" ry="18"/>
<text text-anchor="middle" x="2817" y="-12.95" font-family="Times,serif" font-size="14.00">idSmoke1</text>
</g>
<!-- idArea1&#45;&gt;idSmoke1 -->
<g id="edge24" class="edge">
<title>idArea1&#45;&gt;idSmoke1</title>
<path fill="none" stroke="black" d="M1557.92,-104.94C1726.47,-102.51 2367.64,-92.01 2569,-70.5 2654.34,-61.38 2675.48,-55.76 2759,-36 2762.63,-35.14 2766.37,-34.19 2770.13,-33.19"/>
<polygon fill="black" stroke="black" points="2770.94,-36.33 2779.64,-30.29 2769.07,-29.58 2770.94,-36.33"/>
<text text-anchor="middle" x="2706.5" y="-57.2" font-family="Times,serif" font-size="14.00">isWestOf</text>
</g>
<!-- idSpill1 -->
<g id="node25" class="node">
<title>idSpill1</title>
<ellipse fill="none" stroke="black" cx="2924" cy="-18" rx="40.09" ry="18"/>
<text text-anchor="middle" x="2924" y="-12.95" font-family="Times,serif" font-size="14.00">idSpill1</text>
</g>
<!-- idArea1&#45;&gt;idSpill1 -->
<g id="edge25" class="edge">
<title>idArea1&#45;&gt;idSpill1</title>
<path fill="none" stroke="black" d="M1557.74,-105.5C1742.28,-105.34 2500.8,-102.68 2736,-70.5 2787.94,-63.39 2845.87,-46.02 2883.52,-33.42"/>
<polygon fill="black" stroke="black" points="2884.23,-36.53 2892.58,-30 2881.98,-29.9 2884.23,-36.53"/>
<text text-anchor="middle" x="2840.5" y="-57.2" font-family="Times,serif" font-size="14.00">isWestOf</text>
</g>
<!-- idTrunk1 -->
<g id="node26" class="node">
<title>idTrunk1</title>
<ellipse fill="none" stroke="black" cx="3027" cy="-18" rx="45.21" ry="18"/>
<text text-anchor="middle" x="3027" y="-12.95" font-family="Times,serif" font-size="14.00">idTrunk1</text>
</g>
<!-- idArea1&#45;&gt;idTrunk1 -->
<g id="edge26" class="edge">
<title>idArea1&#45;&gt;idTrunk1</title>
<path fill="none" stroke="black" d="M1557.97,-105.15C1770.04,-103.24 2738.17,-93.32 2870,-70.5 2910.88,-63.42 2955.69,-47.9 2986.93,-35.74"/>
<polygon fill="black" stroke="black" points="2987.97,-38.69 2995.98,-31.76 2985.4,-32.19 2987.97,-38.69"/>
<text text-anchor="middle" x="2957.5" y="-57.2" font-family="Times,serif" font-size="14.00">isWestOf</text>
</g>
</g>
</svg>
