<?xml version="1.0" encoding="UTF-8" standalone="no"?>
<!DOCTYPE svg PUBLIC "-//W3C//DTD SVG 1.1//EN"
 "http://www.w3.org/Graphics/SVG/1.1/DTD/svg11.dtd">
<!-- Generated by graphviz version 8.1.0 (20230707.0739)
 -->
<!-- Pages: 1 -->
<svg width="3336pt" height="133pt"
 viewBox="0.00 0.00 3335.74 132.50" xmlns="http://www.w3.org/2000/svg" xmlns:xlink="http://www.w3.org/1999/xlink">
<g id="graph0" class="graph" transform="scale(1 1) rotate(0) translate(4 128.5)">
<polygon fill="white" stroke="none" points="-4,4 -4,-128.5 3331.74,-128.5 3331.74,4 -4,4"/>
<!-- idBear1 -->
<g id="node1" class="node">
<title>idBear1</title>
<ellipse fill="none" stroke="black" cx="1638.88" cy="-106.5" rx="40.09" ry="18"/>
<text text-anchor="middle" x="1638.88" y="-101.45" font-family="Times,serif" font-size="14.00">idBear1</text>
</g>
<!-- idBear1&#45;&gt;idBear1 -->
<g id="edge7" class="edge">
<title>idBear1&#45;&gt;idBear1</title>
<path fill="none" stroke="black" d="M1674.9,-114.8C1687.14,-114.84 1696.97,-112.07 1696.97,-106.5 1696.97,-102.67 1692.32,-100.16 1685.44,-98.99"/>
<polygon fill="black" stroke="black" points="1686.13,-95.45 1675.9,-98.2 1685.62,-102.43 1686.13,-95.45"/>
<text text-anchor="middle" x="1714.6" y="-101.45" font-family="Times,serif" font-size="14.00">isNear</text>
</g>
<!-- black -->
<g id="node2" class="node">
<title>black</title>
<ellipse fill="none" stroke="black" cx="30.88" cy="-18" rx="30.88" ry="18"/>
<text text-anchor="middle" x="30.88" y="-12.95" font-family="Times,serif" font-size="14.00">black</text>
</g>
<!-- idBear1&#45;&gt;black -->
<g id="edge1" class="edge">
<title>idBear1&#45;&gt;black</title>
<path fill="none" stroke="black" d="M1598.42,-105.63C1359.03,-106.29 136.04,-107.8 66.63,-70.5 56.35,-64.97 48.41,-55.04 42.65,-45.36"/>
<polygon fill="black" stroke="black" points="45.41,-44.11 37.61,-36.94 39.24,-47.41 45.41,-44.11"/>
<text text-anchor="middle" x="128" y="-57.2" font-family="Times,serif" font-size="14.00">idBear1_prop_idColor</text>
</g>
<!-- angry -->
<g id="node3" class="node">
<title>angry</title>
<ellipse fill="none" stroke="black" cx="175.88" cy="-18" rx="31.9" ry="18"/>
<text text-anchor="middle" x="175.88" y="-12.95" font-family="Times,serif" font-size="14.00">angry</text>
</g>
<!-- idBear1&#45;&gt;angry -->
<g id="edge2" class="edge">
<title>idBear1&#45;&gt;angry</title>
<path fill="none" stroke="black" d="M1598.47,-105.57C1372.32,-105.82 271.59,-105.24 209.38,-70.5 199.56,-65.02 192.15,-55.32 186.83,-45.81"/>
<polygon fill="black" stroke="black" points="189.61,-44.54 182.03,-37.15 183.34,-47.66 189.61,-44.54"/>
<text text-anchor="middle" x="284.13" y="-57.2" font-family="Times,serif" font-size="14.00">idBear1_prop_idDescriptor</text>
</g>
<!-- large -->
<g id="node4" class="node">
<title>large</title>
<ellipse fill="none" stroke="black" cx="347.88" cy="-18" rx="29.34" ry="18"/>
<text text-anchor="middle" x="347.88" y="-12.95" font-family="Times,serif" font-size="14.00">large</text>
</g>
<!-- idBear1&#45;&gt;large -->
<g id="edge3" class="edge">
<title>idBear1&#45;&gt;large</title>
<path fill="none" stroke="black" d="M1598.48,-105.49C1388.63,-105.3 430.64,-102.65 377.13,-70.5 367.94,-64.98 361.38,-55.41 356.84,-46.01"/>
<polygon fill="black" stroke="black" points="359.76,-44.94 352.67,-37.07 353.31,-47.64 359.76,-44.94"/>
<text text-anchor="middle" x="435.25" y="-57.2" font-family="Times,serif" font-size="14.00">idBear1_prop_idSize</text>
</g>
<!-- yes -->
<g id="node5" class="node">
<title>yes</title>
<ellipse fill="none" stroke="black" cx="485.88" cy="-18" rx="27" ry="18"/>
<text text-anchor="middle" x="485.88" y="-12.95" font-family="Times,serif" font-size="14.00">yes</text>
</g>
<!-- idBear1&#45;&gt;yes -->
<g id="edge4" class="edge">
<title>idBear1&#45;&gt;yes</title>
<path fill="none" stroke="black" d="M1598.49,-105.45C1402.08,-105.07 554.37,-101.62 508.38,-70.5 500.19,-64.96 494.96,-55.73 491.63,-46.61"/>
<polygon fill="black" stroke="black" points="494.73,-45.76 488.52,-37.17 488.02,-47.76 494.73,-45.76"/>
<text text-anchor="middle" x="586.13" y="-57.2" font-family="Times,serif" font-size="14.00">idBear1_prop_idImmovable</text>
</g>
<!-- idDen1 -->
<g id="node6" class="node">
<title>idDen1</title>
<ellipse fill="none" stroke="black" cx="568.88" cy="-18" rx="38.04" ry="18"/>
<text text-anchor="middle" x="568.88" y="-12.95" font-family="Times,serif" font-size="14.00">idDen1</text>
</g>
<!-- idBear1&#45;&gt;idDen1 -->
<g id="edge5" class="edge">
<title>idBear1&#45;&gt;idDen1</title>
<path fill="none" stroke="black" d="M1598.56,-105.33C1445.37,-104.48 899.57,-99.44 728.63,-70.5 685.78,-63.25 638.64,-46.97 606.75,-34.64"/>
<polygon fill="black" stroke="black" points="608.13,-31.03 597.55,-30.63 605.57,-37.54 608.13,-31.03"/>
<text text-anchor="middle" x="746.5" y="-57.2" font-family="Times,serif" font-size="14.00">isNear</text>
</g>
<!-- idTheCar1 -->
<g id="node7" class="node">
<title>idTheCar1</title>
<ellipse fill="none" stroke="black" cx="674.88" cy="-18" rx="50.33" ry="18"/>
<text text-anchor="middle" x="674.88" y="-12.95" font-family="Times,serif" font-size="14.00">idTheCar1</text>
</g>
<!-- idBear1&#45;&gt;idTheCar1 -->
<g id="edge6" class="edge">
<title>idBear1&#45;&gt;idTheCar1</title>
<path fill="none" stroke="black" d="M1598.55,-105.27C1456.11,-104.24 977.16,-98.69 826.63,-70.5 788.22,-63.31 746.29,-48.51 716.25,-36.61"/>
<polygon fill="black" stroke="black" points="717.73,-33.03 707.15,-32.54 715.12,-39.52 717.73,-33.03"/>
<text text-anchor="middle" x="855" y="-57.2" font-family="Times,serif" font-size="14.00">isInsideOf</text>
</g>
<!-- idTire1 -->
<g id="node8" class="node">
<title>idTire1</title>
<ellipse fill="none" stroke="black" cx="780.88" cy="-18" rx="38.04" ry="18"/>
<text text-anchor="middle" x="780.88" y="-12.95" font-family="Times,serif" font-size="14.00">idTire1</text>
</g>
<!-- idBear1&#45;&gt;idTire1 -->
<g id="edge8" class="edge">
<title>idBear1&#45;&gt;idTire1</title>
<path fill="none" stroke="black" d="M1598.87,-104.6C1471.93,-101.55 1079.18,-90.68 953.63,-70.5 906.59,-62.94 854.4,-46.15 819.82,-33.79"/>
<polygon fill="black" stroke="black" points="821.28,-30.24 810.68,-30.11 818.89,-36.82 821.28,-30.24"/>
<text text-anchor="middle" x="971.5" y="-57.2" font-family="Times,serif" font-size="14.00">isNear</text>
</g>
<!-- idTaillight1 -->
<g id="node9" class="node">
<title>idTaillight1</title>
<ellipse fill="none" stroke="black" cx="890.88" cy="-18" rx="54.42" ry="18"/>
<text text-anchor="middle" x="890.88" y="-12.95" font-family="Times,serif" font-size="14.00">idTaillight1</text>
</g>
<!-- idBear1&#45;&gt;idTaillight1 -->
<g id="edge9" class="edge">
<title>idBear1&#45;&gt;idTaillight1</title>
<path fill="none" stroke="black" d="M1598.63,-104.33C1484.75,-100.82 1161.82,-89.44 1057.63,-70.5 1015.4,-62.82 968.84,-47.87 935.68,-36.05"/>
<polygon fill="black" stroke="black" points="937,-32.44 926.41,-32.33 934.62,-39.02 937,-32.44"/>
<text text-anchor="middle" x="1075.5" y="-57.2" font-family="Times,serif" font-size="14.00">isNear</text>
</g>
<!-- idArea1 -->
<g id="node10" class="node">
<title>idArea1</title>
<ellipse fill="none" stroke="black" cx="1003.88" cy="-18" rx="40.6" ry="18"/>
<text text-anchor="middle" x="1003.88" y="-12.95" font-family="Times,serif" font-size="14.00">idArea1</text>
</g>
<!-- idBear1&#45;&gt;idArea1 -->
<g id="edge10" class="edge">
<title>idBear1&#45;&gt;idArea1</title>
<path fill="none" stroke="black" d="M1598.6,-106C1515.04,-106.3 1317.12,-103.14 1155.13,-70.5 1115.84,-62.58 1072.73,-47.2 1042.62,-35.3"/>
<polygon fill="black" stroke="black" points="1044.12,-31.73 1033.54,-31.25 1041.52,-38.23 1044.12,-31.73"/>
<text text-anchor="middle" x="1183.25" y="-57.2" font-family="Times,serif" font-size="14.00">isSouthOf</text>
</g>
<!-- idBumper1 -->
<g id="node11" class="node">
<title>idBumper1</title>
<ellipse fill="none" stroke="black" cx="1114.88" cy="-18" rx="52.89" ry="18"/>
<text text-anchor="middle" x="1114.88" y="-12.95" font-family="Times,serif" font-size="14.00">idBumper1</text>
</g>
<!-- idBear1&#45;&gt;idBumper1 -->
<g id="edge11" class="edge">
<title>idBear1&#45;&gt;idBumper1</title>
<path fill="none" stroke="black" d="M1598.74,-104.41C1531.41,-101.97 1391.71,-94.25 1276.13,-70.5 1235.61,-62.17 1190.89,-47.43 1158.85,-35.85"/>
<polygon fill="black" stroke="black" points="1160.51,-32.36 1149.91,-32.21 1158.1,-38.94 1160.51,-32.36"/>
<text text-anchor="middle" x="1304.25" y="-57.2" font-family="Times,serif" font-size="14.00">isSouthOf</text>
</g>
<!-- idCarKey1 -->
<g id="node12" class="node">
<title>idCarKey1</title>
<ellipse fill="none" stroke="black" cx="1236.88" cy="-18" rx="51.35" ry="18"/>
<text text-anchor="middle" x="1236.88" y="-12.95" font-family="Times,serif" font-size="14.00">idCarKey1</text>
</g>
<!-- idBear1&#45;&gt;idCarKey1 -->
<g id="edge12" class="edge">
<title>idBear1&#45;&gt;idCarKey1</title>
<path fill="none" stroke="black" d="M1599.52,-102.28C1549.96,-97.7 1462.41,-87.87 1389.13,-70.5 1351.6,-61.61 1310.22,-47.31 1280.08,-36.03"/>
<polygon fill="black" stroke="black" points="1281.51,-32.45 1270.92,-32.18 1279.03,-38.99 1281.51,-32.45"/>
<text text-anchor="middle" x="1417.25" y="-57.2" font-family="Times,serif" font-size="14.00">isSouthOf</text>
</g>
<!-- idStump1 -->
<g id="node13" class="node">
<title>idStump1</title>
<ellipse fill="none" stroke="black" cx="1353.88" cy="-18" rx="47.26" ry="18"/>
<text text-anchor="middle" x="1353.88" y="-12.95" font-family="Times,serif" font-size="14.00">idStump1</text>
</g>
<!-- idBear1&#45;&gt;idStump1 -->
<g id="edge13" class="edge">
<title>idBear1&#45;&gt;idStump1</title>
<path fill="none" stroke="black" d="M1602.88,-98C1573.4,-91.57 1530.75,-81.61 1494.13,-70.5 1460.56,-60.32 1423.33,-46.52 1395.66,-35.77"/>
<polygon fill="black" stroke="black" points="1397.14,-32.2 1386.55,-31.82 1394.59,-38.72 1397.14,-32.2"/>
<text text-anchor="middle" x="1522.25" y="-57.2" font-family="Times,serif" font-size="14.00">isSouthOf</text>
</g>
<!-- idTheCarRoom1 -->
<g id="node14" class="node">
<title>idTheCarRoom1</title>
<ellipse fill="none" stroke="black" cx="1492.88" cy="-18" rx="73.36" ry="18"/>
<text text-anchor="middle" x="1492.88" y="-12.95" font-family="Times,serif" font-size="14.00">idTheCarRoom1</text>
</g>
<!-- idBear1&#45;&gt;idTheCarRoom1 -->
<g id="edge14" class="edge">
<title>idBear1&#45;&gt;idTheCarRoom1</title>
<path fill="none" stroke="black" d="M1615.42,-91.6C1592.13,-77.8 1556.1,-56.46 1529.13,-40.48"/>
<polygon fill="black" stroke="black" points="1531.39,-37.16 1521,-35.07 1527.82,-43.18 1531.39,-37.16"/>
<text text-anchor="middle" x="1605.38" y="-57.2" font-family="Times,serif" font-size="14.00">isWestOf</text>
</g>
<!-- idClearing1 -->
<g id="node15" class="node">
<title>idClearing1</title>
<ellipse fill="none" stroke="black" cx="1638.88" cy="-18" rx="54.42" ry="18"/>
<text text-anchor="middle" x="1638.88" y="-12.95" font-family="Times,serif" font-size="14.00">idClearing1</text>
</g>
<!-- idBear1&#45;&gt;idClearing1 -->
<g id="edge15" class="edge">
<title>idBear1&#45;&gt;idClearing1</title>
<path fill="none" stroke="black" d="M1638.88,-88.41C1638.88,-76.64 1638.88,-60.73 1638.88,-47.11"/>
<polygon fill="black" stroke="black" points="1642.38,-47.35 1638.88,-37.35 1635.38,-47.35 1642.38,-47.35"/>
<text text-anchor="middle" x="1664.38" y="-57.2" font-family="Times,serif" font-size="14.00">isWestOf</text>
</g>
<!-- idBush1 -->
<g id="node16" class="node">
<title>idBush1</title>
<ellipse fill="none" stroke="black" cx="1752.88" cy="-18" rx="41.63" ry="18"/>
<text text-anchor="middle" x="1752.88" y="-12.95" font-family="Times,serif" font-size="14.00">idBush1</text>
</g>
<!-- idBear1&#45;&gt;idBush1 -->
<g id="edge16" class="edge">
<title>idBear1&#45;&gt;idBush1</title>
<path fill="none" stroke="black" d="M1662.41,-91.61C1672.35,-85.47 1683.91,-77.96 1693.88,-70.5 1705.73,-61.63 1718.18,-50.99 1728.57,-41.69"/>
<polygon fill="black" stroke="black" points="1730.35,-44.89 1735.41,-35.58 1725.65,-39.7 1730.35,-44.89"/>
<text text-anchor="middle" x="1740.38" y="-57.2" font-family="Times,serif" font-size="14.00">isWestOf</text>
</g>
<!-- idCar1 -->
<g id="node17" class="node">
<title>idCar1</title>
<ellipse fill="none" stroke="black" cx="1848.88" cy="-18" rx="36" ry="18"/>
<text text-anchor="middle" x="1848.88" y="-12.95" font-family="Times,serif" font-size="14.00">idCar1</text>
</g>
<!-- idBear1&#45;&gt;idCar1 -->
<g id="edge17" class="edge">
<title>idBear1&#45;&gt;idCar1</title>
<path fill="none" stroke="black" d="M1675.8,-98.9C1702.64,-93.33 1739.46,-84.06 1769.88,-70.5 1788.08,-62.38 1806.84,-50.34 1821.5,-39.94"/>
<polygon fill="black" stroke="black" points="1823.03,-42.43 1829.06,-33.73 1818.92,-36.77 1823.03,-42.43"/>
<text text-anchor="middle" x="1825.38" y="-57.2" font-family="Times,serif" font-size="14.00">isWestOf</text>
</g>
<!-- idCrowbar1 -->
<g id="node18" class="node">
<title>idCrowbar1</title>
<ellipse fill="none" stroke="black" cx="1957.88" cy="-18" rx="54.93" ry="18"/>
<text text-anchor="middle" x="1957.88" y="-12.95" font-family="Times,serif" font-size="14.00">idCrowbar1</text>
</g>
<!-- idBear1&#45;&gt;idCrowbar1 -->
<g id="edge18" class="edge">
<title>idBear1&#45;&gt;idCrowbar1</title>
<path fill="none" stroke="black" d="M1678.34,-102.71C1722.3,-98.78 1795.05,-89.81 1854.88,-70.5 1878.64,-62.83 1903.74,-50.39 1923.2,-39.65"/>
<polygon fill="black" stroke="black" points="1924.56,-42.34 1931.56,-34.39 1921.13,-36.24 1924.56,-42.34"/>
<text text-anchor="middle" x="1919.38" y="-57.2" font-family="Times,serif" font-size="14.00">isWestOf</text>
</g>
<!-- idLock1 -->
<g id="node19" class="node">
<title>idLock1</title>
<ellipse fill="none" stroke="black" cx="2072.88" cy="-18" rx="41.63" ry="18"/>
<text text-anchor="middle" x="2072.88" y="-12.95" font-family="Times,serif" font-size="14.00">idLock1</text>
</g>
<!-- idBear1&#45;&gt;idLock1 -->
<g id="edge19" class="edge">
<title>idBear1&#45;&gt;idLock1</title>
<path fill="none" stroke="black" d="M1679.17,-104.55C1738.94,-102.34 1854.23,-94.97 1948.88,-70.5 1979.68,-62.53 2012.89,-48.42 2037.18,-36.98"/>
<polygon fill="black" stroke="black" points="2038.51,-39.75 2046.01,-32.27 2035.48,-33.44 2038.51,-39.75"/>
<text text-anchor="middle" x="2023.38" y="-57.2" font-family="Times,serif" font-size="14.00">isWestOf</text>
</g>
<!-- idPlayer -->
<g id="node20" class="node">
<title>idPlayer</title>
<ellipse fill="none" stroke="black" cx="2173.88" cy="-18" rx="41.63" ry="18"/>
<text text-anchor="middle" x="2173.88" y="-12.95" font-family="Times,serif" font-size="14.00">idPlayer</text>
</g>
<!-- idBear1&#45;&gt;idPlayer -->
<g id="edge20" class="edge">
<title>idBear1&#45;&gt;idPlayer</title>
<path fill="none" stroke="black" d="M1679.24,-106.3C1754.09,-106.85 1918.99,-103.74 2052.88,-70.5 2083.12,-62.99 2115.52,-48.85 2139.17,-37.28"/>
<polygon fill="black" stroke="black" points="2140.35,-40.1 2147.74,-32.51 2137.23,-33.84 2140.35,-40.1"/>
<text text-anchor="middle" x="2126.38" y="-57.2" font-family="Times,serif" font-size="14.00">isWestOf</text>
</g>
<!-- idPlayerBackside -->
<g id="node21" class="node">
<title>idPlayerBackside</title>
<ellipse fill="none" stroke="black" cx="2308.88" cy="-18" rx="75.41" ry="18"/>
<text text-anchor="middle" x="2308.88" y="-12.95" font-family="Times,serif" font-size="14.00">idPlayerBackside</text>
</g>
<!-- idBear1&#45;&gt;idPlayerBackside -->
<g id="edge21" class="edge">
<title>idBear1&#45;&gt;idPlayerBackside</title>
<path fill="none" stroke="black" d="M1679.23,-106.27C1766.9,-107.17 1980.95,-105.26 2155.88,-70.5 2192.52,-63.22 2232.48,-49.56 2262.37,-38.14"/>
<polygon fill="black" stroke="black" points="2263.45,-41.09 2271.5,-34.2 2260.91,-34.56 2263.45,-41.09"/>
<text text-anchor="middle" x="2241.38" y="-57.2" font-family="Times,serif" font-size="14.00">isWestOf</text>
</g>
<!-- idPlayerLeftHand -->
<g id="node22" class="node">
<title>idPlayerLeftHand</title>
<ellipse fill="none" stroke="black" cx="2478.88" cy="-18" rx="76.94" ry="18"/>
<text text-anchor="middle" x="2478.88" y="-12.95" font-family="Times,serif" font-size="14.00">idPlayerLeftHand</text>
</g>
<!-- idBear1&#45;&gt;idPlayerLeftHand -->
<g id="edge22" class="edge">
<title>idBear1&#45;&gt;idPlayerLeftHand</title>
<path fill="none" stroke="black" d="M1679.44,-105.88C1780.15,-106.24 2049.46,-103.74 2270.88,-70.5 2323.17,-62.65 2381.51,-47.64 2423.06,-35.84"/>
<polygon fill="black" stroke="black" points="2423.87,-38.97 2432.52,-32.84 2421.94,-32.24 2423.87,-38.97"/>
<text text-anchor="middle" x="2377.38" y="-57.2" font-family="Times,serif" font-size="14.00">isWestOf</text>
</g>
<!-- idPlayerRightHand -->
<g id="node23" class="node">
<title>idPlayerRightHand</title>
<ellipse fill="none" stroke="black" cx="2655.88" cy="-18" rx="82.06" ry="18"/>
<text text-anchor="middle" x="2655.88" y="-12.95" font-family="Times,serif" font-size="14.00">idPlayerRightHand</text>
</g>
<!-- idBear1&#45;&gt;idPlayerRightHand -->
<g id="edge23" class="edge">
<title>idBear1&#45;&gt;idPlayerRightHand</title>
<path fill="none" stroke="black" d="M1679.05,-105.9C1793.36,-106.57 2130.09,-105.21 2406.88,-70.5 2470.95,-62.47 2543.09,-46.8 2593.16,-34.85"/>
<polygon fill="black" stroke="black" points="2593.92,-38.02 2602.82,-32.28 2592.28,-31.22 2593.92,-38.02"/>
<text text-anchor="middle" x="2529.38" y="-57.2" font-family="Times,serif" font-size="14.00">isWestOf</text>
</g>
<!-- idSideMirror1 -->
<g id="node24" class="node">
<title>idSideMirror1</title>
<ellipse fill="none" stroke="black" cx="2819.88" cy="-18" rx="64.15" ry="18"/>
<text text-anchor="middle" x="2819.88" y="-12.95" font-family="Times,serif" font-size="14.00">idSideMirror1</text>
</g>
<!-- idBear1&#45;&gt;idSideMirror1 -->
<g id="edge24" class="edge">
<title>idBear1&#45;&gt;idSideMirror1</title>
<path fill="none" stroke="black" d="M1679.39,-106.03C1808.3,-107.26 2220.47,-107.79 2558.88,-70.5 2629.75,-62.69 2710.05,-45.57 2762.64,-33.21"/>
<polygon fill="black" stroke="black" points="2763.18,-36.45 2772.1,-30.73 2761.56,-29.63 2763.18,-36.45"/>
<text text-anchor="middle" x="2686.38" y="-57.2" font-family="Times,serif" font-size="14.00">isWestOf</text>
</g>
<!-- idSmoke1 -->
<g id="node25" class="node">
<title>idSmoke1</title>
<ellipse fill="none" stroke="black" cx="2950.88" cy="-18" rx="48.79" ry="18"/>
<text text-anchor="middle" x="2950.88" y="-12.95" font-family="Times,serif" font-size="14.00">idSmoke1</text>
</g>
<!-- idBear1&#45;&gt;idSmoke1 -->
<g id="edge25" class="edge">
<title>idBear1&#45;&gt;idSmoke1</title>
<path fill="none" stroke="black" d="M1679.33,-105.05C1849.67,-103.03 2509.3,-93.84 2715.88,-70.5 2795.52,-61.5 2815.01,-54.96 2892.88,-36 2896.45,-35.13 2900.14,-34.18 2903.83,-33.19"/>
<polygon fill="black" stroke="black" points="2904.5,-36.36 2913.2,-30.31 2902.63,-29.61 2904.5,-36.36"/>
<text text-anchor="middle" x="2842.38" y="-57.2" font-family="Times,serif" font-size="14.00">isWestOf</text>
</g>
<!-- idSpill1 -->
<g id="node26" class="node">
<title>idSpill1</title>
<ellipse fill="none" stroke="black" cx="3057.88" cy="-18" rx="40.09" ry="18"/>
<text text-anchor="middle" x="3057.88" y="-12.95" font-family="Times,serif" font-size="14.00">idSpill1</text>
</g>
<!-- idBear1&#45;&gt;idSpill1 -->
<g id="edge26" class="edge">
<title>idBear1&#45;&gt;idSpill1</title>
<path fill="none" stroke="black" d="M1679.16,-105.54C1864.19,-105.53 2633.63,-103.48 2871.88,-70.5 2923.15,-63.4 2980.27,-46.12 3017.51,-33.53"/>
<polygon fill="black" stroke="black" points="3018.15,-36.67 3026.47,-30.11 3015.87,-30.05 3018.15,-36.67"/>
<text text-anchor="middle" x="2975.38" y="-57.2" font-family="Times,serif" font-size="14.00">isWestOf</text>
</g>
<!-- idTrunk1 -->
<g id="node27" class="node">
<title>idTrunk1</title>
<ellipse fill="none" stroke="black" cx="3160.88" cy="-18" rx="45.21" ry="18"/>
<text text-anchor="middle" x="3160.88" y="-12.95" font-family="Times,serif" font-size="14.00">idTrunk1</text>
</g>
<!-- idBear1&#45;&gt;idTrunk1 -->
<g id="edge27" class="edge">
<title>idBear1&#45;&gt;idTrunk1</title>
<path fill="none" stroke="black" d="M1679.2,-105.17C1891.13,-103.34 2871.59,-93.69 3004.88,-70.5 3045.4,-63.45 3089.77,-48 3120.79,-35.85"/>
<polygon fill="black" stroke="black" points="3121.78,-38.83 3129.78,-31.88 3119.19,-32.33 3121.78,-38.83"/>
<text text-anchor="middle" x="3092.38" y="-57.2" font-family="Times,serif" font-size="14.00">isWestOf</text>
</g>
<!-- idWhistle1 -->
<g id="node28" class="node">
<title>idWhistle1</title>
<ellipse fill="none" stroke="black" cx="3275.88" cy="-18" rx="51.86" ry="18"/>
<text text-anchor="middle" x="3275.88" y="-12.95" font-family="Times,serif" font-size="14.00">idWhistle1</text>
</g>
<!-- idBear1&#45;&gt;idWhistle1 -->
<g id="edge28" class="edge">
<title>idBear1&#45;&gt;idWhistle1</title>
<path fill="none" stroke="black" d="M1679.31,-105.27C1902.23,-103.88 2976.49,-95.93 3121.88,-70.5 3161.17,-63.63 3204.08,-48.62 3234.6,-36.57"/>
<polygon fill="black" stroke="black" points="3235.48,-39.58 3243.45,-32.61 3232.87,-33.09 3235.48,-39.58"/>
<text text-anchor="middle" x="3208.38" y="-57.2" font-family="Times,serif" font-size="14.00">isWestOf</text>
</g>
</g>
</svg>
