<?xml version="1.0" encoding="UTF-8" standalone="no"?>
<!DOCTYPE svg PUBLIC "-//W3C//DTD SVG 1.1//EN"
 "http://www.w3.org/Graphics/SVG/1.1/DTD/svg11.dtd">
<!-- Generated by graphviz version 8.1.0 (20230707.0739)
 -->
<!-- Pages: 1 -->
<svg width="2781pt" height="133pt"
 viewBox="0.00 0.00 2781.47 132.50" xmlns="http://www.w3.org/2000/svg" xmlns:xlink="http://www.w3.org/1999/xlink">
<g id="graph0" class="graph" transform="scale(1 1) rotate(0) translate(4 128.5)">
<polygon fill="white" stroke="none" points="-4,4 -4,-128.5 2777.47,-128.5 2777.47,4 -4,4"/>
<!-- idBumper1 -->
<g id="node1" class="node">
<title>idBumper1</title>
<ellipse fill="none" stroke="black" cx="1297.6" cy="-106.5" rx="52.89" ry="18"/>
<text text-anchor="middle" x="1297.6" y="-101.45" font-family="Times,serif" font-size="14.00">idBumper1</text>
</g>
<!-- idBumper1&#45;&gt;idBumper1 -->
<g id="edge4" class="edge">
<title>idBumper1&#45;&gt;idBumper1</title>
<path fill="none" stroke="black" d="M1345.31,-114.75C1358.45,-114.35 1368.49,-111.6 1368.49,-106.5 1368.49,-102.95 1363.64,-100.55 1356.26,-99.27"/>
<polygon fill="black" stroke="black" points="1356.59,-95.7 1346.31,-98.25 1355.94,-102.67 1356.59,-95.7"/>
<text text-anchor="middle" x="1386.12" y="-101.45" font-family="Times,serif" font-size="14.00">isNear</text>
</g>
<!-- idArea1 -->
<g id="node2" class="node">
<title>idArea1</title>
<ellipse fill="none" stroke="black" cx="40.6" cy="-18" rx="40.6" ry="18"/>
<text text-anchor="middle" x="40.6" y="-12.95" font-family="Times,serif" font-size="14.00">idArea1</text>
</g>
<!-- idBumper1&#45;&gt;idArea1 -->
<g id="edge1" class="edge">
<title>idBumper1&#45;&gt;idArea1</title>
<path fill="none" stroke="black" d="M1244.42,-105.4C1055.85,-104.8 419.65,-100.53 218.35,-70.5 170.05,-63.29 116.45,-46.49 80.86,-34.03"/>
<polygon fill="black" stroke="black" points="82.47,-30.53 71.87,-30.48 80.12,-37.12 82.47,-30.53"/>
<text text-anchor="middle" x="236.23" y="-57.2" font-family="Times,serif" font-size="14.00">isNear</text>
</g>
<!-- idTheCar1 -->
<g id="node3" class="node">
<title>idTheCar1</title>
<ellipse fill="none" stroke="black" cx="149.6" cy="-18" rx="50.33" ry="18"/>
<text text-anchor="middle" x="149.6" y="-12.95" font-family="Times,serif" font-size="14.00">idTheCar1</text>
</g>
<!-- idBumper1&#45;&gt;idTheCar1 -->
<g id="edge2" class="edge">
<title>idBumper1&#45;&gt;idTheCar1</title>
<path fill="none" stroke="black" d="M1244.63,-105.31C1068.77,-104.43 505.43,-99.36 326.35,-70.5 280.11,-63.05 228.9,-47.25 193.55,-35.11"/>
<polygon fill="black" stroke="black" points="195.17,-31.62 184.57,-31.63 192.86,-38.23 195.17,-31.62"/>
<text text-anchor="middle" x="354.73" y="-57.2" font-family="Times,serif" font-size="14.00">isInsideOf</text>
</g>
<!-- idStump1 -->
<g id="node4" class="node">
<title>idStump1</title>
<ellipse fill="none" stroke="black" cx="265.6" cy="-18" rx="47.26" ry="18"/>
<text text-anchor="middle" x="265.6" y="-12.95" font-family="Times,serif" font-size="14.00">idStump1</text>
</g>
<!-- idBumper1&#45;&gt;idStump1 -->
<g id="edge3" class="edge">
<title>idBumper1&#45;&gt;idStump1</title>
<path fill="none" stroke="black" d="M1244.5,-104.65C1085.54,-101.89 615.13,-92.07 463.35,-70.5 409.94,-62.91 350.21,-46.17 310.52,-33.82"/>
<polygon fill="black" stroke="black" points="311.71,-30.21 301.12,-30.55 309.61,-36.89 311.71,-30.21"/>
<text text-anchor="middle" x="481.23" y="-57.2" font-family="Times,serif" font-size="14.00">isNear</text>
</g>
<!-- idCarKey1 -->
<g id="node5" class="node">
<title>idCarKey1</title>
<ellipse fill="none" stroke="black" cx="382.6" cy="-18" rx="51.35" ry="18"/>
<text text-anchor="middle" x="382.6" y="-12.95" font-family="Times,serif" font-size="14.00">idCarKey1</text>
</g>
<!-- idBumper1&#45;&gt;idCarKey1 -->
<g id="edge5" class="edge">
<title>idBumper1&#45;&gt;idCarKey1</title>
<path fill="none" stroke="black" d="M1244.79,-104.31C1101.38,-100.87 706.92,-89.88 578.35,-70.5 526.47,-62.68 468.52,-46.46 429.23,-34.3"/>
<polygon fill="black" stroke="black" points="430.5,-30.72 419.91,-31.07 428.41,-37.4 430.5,-30.72"/>
<text text-anchor="middle" x="596.23" y="-57.2" font-family="Times,serif" font-size="14.00">isNear</text>
</g>
<!-- idTheCarRoom1 -->
<g id="node6" class="node">
<title>idTheCarRoom1</title>
<ellipse fill="none" stroke="black" cx="525.6" cy="-18" rx="73.36" ry="18"/>
<text text-anchor="middle" x="525.6" y="-12.95" font-family="Times,serif" font-size="14.00">idTheCarRoom1</text>
</g>
<!-- idBumper1&#45;&gt;idTheCarRoom1 -->
<g id="edge6" class="edge">
<title>idBumper1&#45;&gt;idTheCarRoom1</title>
<path fill="none" stroke="black" d="M1244.92,-104.39C1115.37,-101.37 784,-91.74 675.6,-70.5 639.47,-63.42 600.15,-49.68 570.84,-38.18"/>
<polygon fill="black" stroke="black" points="572.5,-34.67 561.91,-34.21 569.9,-41.17 572.5,-34.67"/>
<text text-anchor="middle" x="701.1" y="-57.2" font-family="Times,serif" font-size="14.00">isWestOf</text>
</g>
<!-- idDen1 -->
<g id="node7" class="node">
<title>idDen1</title>
<ellipse fill="none" stroke="black" cx="654.6" cy="-18" rx="38.04" ry="18"/>
<text text-anchor="middle" x="654.6" y="-12.95" font-family="Times,serif" font-size="14.00">idDen1</text>
</g>
<!-- idBumper1&#45;&gt;idDen1 -->
<g id="edge7" class="edge">
<title>idBumper1&#45;&gt;idDen1</title>
<path fill="none" stroke="black" d="M1245.01,-104.09C1131.59,-100.7 867.16,-90.83 779.85,-70.5 747.85,-63.05 713.47,-48.39 688.84,-36.61"/>
<polygon fill="black" stroke="black" points="690.76,-33.16 680.24,-31.93 687.7,-39.46 690.76,-33.16"/>
<text text-anchor="middle" x="807.98" y="-57.2" font-family="Times,serif" font-size="14.00">isNorthOf</text>
</g>
<!-- idClearing1 -->
<g id="node8" class="node">
<title>idClearing1</title>
<ellipse fill="none" stroke="black" cx="764.6" cy="-18" rx="54.42" ry="18"/>
<text text-anchor="middle" x="764.6" y="-12.95" font-family="Times,serif" font-size="14.00">idClearing1</text>
</g>
<!-- idBumper1&#45;&gt;idClearing1 -->
<g id="edge8" class="edge">
<title>idBumper1&#45;&gt;idClearing1</title>
<path fill="none" stroke="black" d="M1244.52,-106.25C1165.37,-106.2 1012.27,-101.54 886.6,-70.5 857.11,-63.21 825.57,-49.73 801.94,-38.39"/>
<polygon fill="black" stroke="black" points="803.85,-34.94 793.33,-33.68 800.77,-41.22 803.85,-34.94"/>
<text text-anchor="middle" x="912.1" y="-57.2" font-family="Times,serif" font-size="14.00">isWestOf</text>
</g>
<!-- idBear1 -->
<g id="node9" class="node">
<title>idBear1</title>
<ellipse fill="none" stroke="black" cx="877.6" cy="-18" rx="40.09" ry="18"/>
<text text-anchor="middle" x="877.6" y="-12.95" font-family="Times,serif" font-size="14.00">idBear1</text>
</g>
<!-- idBumper1&#45;&gt;idBear1 -->
<g id="edge9" class="edge">
<title>idBumper1&#45;&gt;idBear1</title>
<path fill="none" stroke="black" d="M1244.45,-105.12C1180.99,-103.4 1072.21,-96.48 982.85,-70.5 957.17,-63.03 930.1,-49.65 909.85,-38.4"/>
<polygon fill="black" stroke="black" points="911.92,-34.98 901.49,-33.08 908.46,-41.07 911.92,-34.98"/>
<text text-anchor="middle" x="1010.98" y="-57.2" font-family="Times,serif" font-size="14.00">isNorthOf</text>
</g>
<!-- idBush1 -->
<g id="node10" class="node">
<title>idBush1</title>
<ellipse fill="none" stroke="black" cx="977.6" cy="-18" rx="41.63" ry="18"/>
<text text-anchor="middle" x="977.6" y="-12.95" font-family="Times,serif" font-size="14.00">idBush1</text>
</g>
<!-- idBumper1&#45;&gt;idBush1 -->
<g id="edge10" class="edge">
<title>idBumper1&#45;&gt;idBush1</title>
<path fill="none" stroke="black" d="M1246.09,-101.84C1201.02,-97.57 1134.25,-88.63 1078.6,-70.5 1054.54,-62.66 1029.17,-49.7 1009.87,-38.75"/>
<polygon fill="black" stroke="black" points="1011.78,-35.23 1001.38,-33.24 1008.27,-41.28 1011.78,-35.23"/>
<text text-anchor="middle" x="1104.1" y="-57.2" font-family="Times,serif" font-size="14.00">isWestOf</text>
</g>
<!-- idCar1 -->
<g id="node11" class="node">
<title>idCar1</title>
<ellipse fill="none" stroke="black" cx="1073.6" cy="-18" rx="36" ry="18"/>
<text text-anchor="middle" x="1073.6" y="-12.95" font-family="Times,serif" font-size="14.00">idCar1</text>
</g>
<!-- idBumper1&#45;&gt;idCar1 -->
<g id="edge11" class="edge">
<title>idBumper1&#45;&gt;idCar1</title>
<path fill="none" stroke="black" d="M1253.12,-96.3C1227.61,-90.34 1195.26,-81.61 1167.6,-70.5 1145.75,-61.72 1122.53,-49.03 1104.64,-38.45"/>
<polygon fill="black" stroke="black" points="1106.66,-34.98 1096.28,-32.82 1103.05,-40.98 1106.66,-34.98"/>
<text text-anchor="middle" x="1193.1" y="-57.2" font-family="Times,serif" font-size="14.00">isWestOf</text>
</g>
<!-- idCrowbar1 -->
<g id="node12" class="node">
<title>idCrowbar1</title>
<ellipse fill="none" stroke="black" cx="1182.6" cy="-18" rx="54.93" ry="18"/>
<text text-anchor="middle" x="1182.6" y="-12.95" font-family="Times,serif" font-size="14.00">idCrowbar1</text>
</g>
<!-- idBumper1&#45;&gt;idCrowbar1 -->
<g id="edge12" class="edge">
<title>idBumper1&#45;&gt;idCrowbar1</title>
<path fill="none" stroke="black" d="M1272.18,-90.38C1262.7,-84.47 1251.97,-77.44 1242.6,-70.5 1231.06,-61.94 1218.92,-51.77 1208.61,-42.74"/>
<polygon fill="black" stroke="black" points="1211.23,-40.5 1201.43,-36.48 1206.58,-45.73 1211.23,-40.5"/>
<text text-anchor="middle" x="1268.1" y="-57.2" font-family="Times,serif" font-size="14.00">isWestOf</text>
</g>
<!-- idLock1 -->
<g id="node13" class="node">
<title>idLock1</title>
<ellipse fill="none" stroke="black" cx="1297.6" cy="-18" rx="41.63" ry="18"/>
<text text-anchor="middle" x="1297.6" y="-12.95" font-family="Times,serif" font-size="14.00">idLock1</text>
</g>
<!-- idBumper1&#45;&gt;idLock1 -->
<g id="edge13" class="edge">
<title>idBumper1&#45;&gt;idLock1</title>
<path fill="none" stroke="black" d="M1297.6,-88.41C1297.6,-76.64 1297.6,-60.73 1297.6,-47.11"/>
<polygon fill="black" stroke="black" points="1301.1,-47.35 1297.6,-37.35 1294.1,-47.35 1301.1,-47.35"/>
<text text-anchor="middle" x="1323.1" y="-57.2" font-family="Times,serif" font-size="14.00">isWestOf</text>
</g>
<!-- idPlayer -->
<g id="node14" class="node">
<title>idPlayer</title>
<ellipse fill="none" stroke="black" cx="1398.6" cy="-18" rx="41.63" ry="18"/>
<text text-anchor="middle" x="1398.6" y="-12.95" font-family="Times,serif" font-size="14.00">idPlayer</text>
</g>
<!-- idBumper1&#45;&gt;idPlayer -->
<g id="edge14" class="edge">
<title>idBumper1&#45;&gt;idPlayer</title>
<path fill="none" stroke="black" d="M1324.37,-90.51C1333.7,-84.77 1343.98,-77.83 1352.6,-70.5 1362.02,-62.5 1371.31,-52.59 1379.05,-43.61"/>
<polygon fill="black" stroke="black" points="1382.21,-46.29 1385.95,-36.38 1376.84,-41.8 1382.21,-46.29"/>
<text text-anchor="middle" x="1395.1" y="-57.2" font-family="Times,serif" font-size="14.00">isWestOf</text>
</g>
<!-- idPlayerBackside -->
<g id="node15" class="node">
<title>idPlayerBackside</title>
<ellipse fill="none" stroke="black" cx="1533.6" cy="-18" rx="75.41" ry="18"/>
<text text-anchor="middle" x="1533.6" y="-12.95" font-family="Times,serif" font-size="14.00">idPlayerBackside</text>
</g>
<!-- idBumper1&#45;&gt;idPlayerBackside -->
<g id="edge15" class="edge">
<title>idBumper1&#45;&gt;idPlayerBackside</title>
<path fill="none" stroke="black" d="M1340.52,-95.63C1365.41,-89.43 1397.16,-80.68 1424.6,-70.5 1448.21,-61.74 1473.71,-49.84 1494.1,-39.69"/>
<polygon fill="black" stroke="black" points="1495.31,-42.49 1502.67,-34.86 1492.16,-36.24 1495.31,-42.49"/>
<text text-anchor="middle" x="1487.1" y="-57.2" font-family="Times,serif" font-size="14.00">isWestOf</text>
</g>
<!-- idPlayerLeftHand -->
<g id="node16" class="node">
<title>idPlayerLeftHand</title>
<ellipse fill="none" stroke="black" cx="1703.6" cy="-18" rx="76.94" ry="18"/>
<text text-anchor="middle" x="1703.6" y="-12.95" font-family="Times,serif" font-size="14.00">idPlayerLeftHand</text>
</g>
<!-- idBumper1&#45;&gt;idPlayerLeftHand -->
<g id="edge16" class="edge">
<title>idBumper1&#45;&gt;idPlayerLeftHand</title>
<path fill="none" stroke="black" d="M1346.6,-99.25C1391.18,-93.18 1458.66,-83.07 1516.6,-70.5 1561.42,-60.78 1611.48,-46.82 1648.52,-35.89"/>
<polygon fill="black" stroke="black" points="1649.02,-39.1 1657.61,-32.9 1647.02,-32.39 1649.02,-39.1"/>
<text text-anchor="middle" x="1610.1" y="-57.2" font-family="Times,serif" font-size="14.00">isWestOf</text>
</g>
<!-- idPlayerRightHand -->
<g id="node17" class="node">
<title>idPlayerRightHand</title>
<ellipse fill="none" stroke="black" cx="1880.6" cy="-18" rx="82.06" ry="18"/>
<text text-anchor="middle" x="1880.6" y="-12.95" font-family="Times,serif" font-size="14.00">idPlayerRightHand</text>
</g>
<!-- idBumper1&#45;&gt;idPlayerRightHand -->
<g id="edge17" class="edge">
<title>idBumper1&#45;&gt;idPlayerRightHand</title>
<path fill="none" stroke="black" d="M1349.11,-101.98C1416.24,-96.99 1537.16,-86.64 1639.6,-70.5 1700.11,-60.97 1768.32,-45.99 1816.69,-34.64"/>
<polygon fill="black" stroke="black" points="1817.38,-37.83 1826.31,-32.13 1815.77,-31.02 1817.38,-37.83"/>
<text text-anchor="middle" x="1752.1" y="-57.2" font-family="Times,serif" font-size="14.00">isWestOf</text>
</g>
<!-- idSideMirror1 -->
<g id="node18" class="node">
<title>idSideMirror1</title>
<ellipse fill="none" stroke="black" cx="2044.6" cy="-18" rx="64.15" ry="18"/>
<text text-anchor="middle" x="2044.6" y="-12.95" font-family="Times,serif" font-size="14.00">idSideMirror1</text>
</g>
<!-- idBumper1&#45;&gt;idSideMirror1 -->
<g id="edge18" class="edge">
<title>idBumper1&#45;&gt;idSideMirror1</title>
<path fill="none" stroke="black" d="M1350.07,-103.55C1439.1,-99.84 1625.31,-90.28 1781.6,-70.5 1866.75,-59.72 1887.56,-53.4 1971.6,-36 1976.52,-34.98 1981.62,-33.88 1986.72,-32.75"/>
<polygon fill="black" stroke="black" points="1987.18,-36.01 1996.16,-30.4 1985.64,-29.18 1987.18,-36.01"/>
<text text-anchor="middle" x="1909.1" y="-57.2" font-family="Times,serif" font-size="14.00">isWestOf</text>
</g>
<!-- idSmoke1 -->
<g id="node19" class="node">
<title>idSmoke1</title>
<ellipse fill="none" stroke="black" cx="2175.6" cy="-18" rx="48.79" ry="18"/>
<text text-anchor="middle" x="2175.6" y="-12.95" font-family="Times,serif" font-size="14.00">idSmoke1</text>
</g>
<!-- idBumper1&#45;&gt;idSmoke1 -->
<g id="edge19" class="edge">
<title>idBumper1&#45;&gt;idSmoke1</title>
<path fill="none" stroke="black" d="M1350.58,-105.04C1460.57,-103.54 1721.52,-97.22 1938.6,-70.5 2019.02,-60.6 2038.86,-55.08 2117.6,-36 2121.18,-35.13 2124.86,-34.19 2128.56,-33.19"/>
<polygon fill="black" stroke="black" points="2129.22,-36.36 2137.93,-30.32 2127.35,-29.62 2129.22,-36.36"/>
<text text-anchor="middle" x="2067.1" y="-57.2" font-family="Times,serif" font-size="14.00">isWestOf</text>
</g>
<!-- idSpill1 -->
<g id="node20" class="node">
<title>idSpill1</title>
<ellipse fill="none" stroke="black" cx="2282.6" cy="-18" rx="40.09" ry="18"/>
<text text-anchor="middle" x="2282.6" y="-12.95" font-family="Times,serif" font-size="14.00">idSpill1</text>
</g>
<!-- idBumper1&#45;&gt;idSpill1 -->
<g id="edge20" class="edge">
<title>idBumper1&#45;&gt;idSpill1</title>
<path fill="none" stroke="black" d="M1350.65,-104.58C1504.98,-101.68 1952,-91.65 2096.6,-70.5 2147.67,-63.03 2204.61,-45.91 2241.88,-33.45"/>
<polygon fill="black" stroke="black" points="2242.5,-36.6 2250.85,-30.07 2240.25,-29.97 2242.5,-36.6"/>
<text text-anchor="middle" x="2195.1" y="-57.2" font-family="Times,serif" font-size="14.00">isWestOf</text>
</g>
<!-- idTaillight1 -->
<g id="node21" class="node">
<title>idTaillight1</title>
<ellipse fill="none" stroke="black" cx="2395.6" cy="-18" rx="54.42" ry="18"/>
<text text-anchor="middle" x="2395.6" y="-12.95" font-family="Times,serif" font-size="14.00">idTaillight1</text>
</g>
<!-- idBumper1&#45;&gt;idTaillight1 -->
<g id="edge21" class="edge">
<title>idBumper1&#45;&gt;idTaillight1</title>
<path fill="none" stroke="black" d="M1350.84,-105.27C1521.67,-104.25 2054.72,-98.81 2224.6,-70.5 2268.39,-63.2 2316.7,-47.96 2350.76,-35.94"/>
<polygon fill="black" stroke="black" points="2351.62,-38.99 2359.86,-32.32 2349.26,-32.4 2351.62,-38.99"/>
<text text-anchor="middle" x="2318.98" y="-57.2" font-family="Times,serif" font-size="14.00">isNorthOf</text>
</g>
<!-- idTire1 -->
<g id="node22" class="node">
<title>idTire1</title>
<ellipse fill="none" stroke="black" cx="2505.6" cy="-18" rx="38.04" ry="18"/>
<text text-anchor="middle" x="2505.6" y="-12.95" font-family="Times,serif" font-size="14.00">idTire1</text>
</g>
<!-- idBumper1&#45;&gt;idTire1 -->
<g id="edge22" class="edge">
<title>idBumper1&#45;&gt;idTire1</title>
<path fill="none" stroke="black" d="M1350.82,-105.67C1536.56,-105.94 2155.38,-104.25 2350.6,-70.5 2392.02,-63.34 2437.45,-47.2 2468.35,-34.89"/>
<polygon fill="black" stroke="black" points="2469.3,-37.87 2477.25,-30.87 2466.67,-31.39 2469.3,-37.87"/>
<text text-anchor="middle" x="2438.98" y="-57.2" font-family="Times,serif" font-size="14.00">isNorthOf</text>
</g>
<!-- idTrunk1 -->
<g id="node23" class="node">
<title>idTrunk1</title>
<ellipse fill="none" stroke="black" cx="2606.6" cy="-18" rx="45.21" ry="18"/>
<text text-anchor="middle" x="2606.6" y="-12.95" font-family="Times,serif" font-size="14.00">idTrunk1</text>
</g>
<!-- idBumper1&#45;&gt;idTrunk1 -->
<g id="edge23" class="edge">
<title>idBumper1&#45;&gt;idTrunk1</title>
<path fill="none" stroke="black" d="M1350.47,-104.95C1564.43,-102.6 2360.07,-92.44 2470.6,-70.5 2505.19,-63.64 2542.51,-48.93 2569.3,-36.99"/>
<polygon fill="black" stroke="black" points="2570.36,-39.89 2578.02,-32.57 2567.47,-33.52 2570.36,-39.89"/>
<text text-anchor="middle" x="2550.1" y="-57.2" font-family="Times,serif" font-size="14.00">isWestOf</text>
</g>
<!-- idWhistle1 -->
<g id="node24" class="node">
<title>idWhistle1</title>
<ellipse fill="none" stroke="black" cx="2721.6" cy="-18" rx="51.86" ry="18"/>
<text text-anchor="middle" x="2721.6" y="-12.95" font-family="Times,serif" font-size="14.00">idWhistle1</text>
</g>
<!-- idBumper1&#45;&gt;idWhistle1 -->
<g id="edge24" class="edge">
<title>idBumper1&#45;&gt;idWhistle1</title>
<path fill="none" stroke="black" d="M1350.7,-105.05C1577.35,-103.01 2457.79,-93.63 2579.6,-70.5 2615.28,-63.73 2653.92,-49.21 2681.87,-37.31"/>
<polygon fill="black" stroke="black" points="2682.87,-40.25 2690.66,-33.06 2680.09,-33.83 2682.87,-40.25"/>
<text text-anchor="middle" x="2661.1" y="-57.2" font-family="Times,serif" font-size="14.00">isWestOf</text>
</g>
</g>
</svg>
