<?xml version="1.0" encoding="UTF-8" standalone="no"?>
<!DOCTYPE svg PUBLIC "-//W3C//DTD SVG 1.1//EN"
 "http://www.w3.org/Graphics/SVG/1.1/DTD/svg11.dtd">
<!-- Generated by graphviz version 8.1.0 (20230707.0739)
 -->
<!-- Pages: 1 -->
<svg width="3033pt" height="133pt"
 viewBox="0.00 0.00 3032.60 132.50" xmlns="http://www.w3.org/2000/svg" xmlns:xlink="http://www.w3.org/1999/xlink">
<g id="graph0" class="graph" transform="scale(1 1) rotate(0) translate(4 128.5)">
<polygon fill="white" stroke="none" points="-4,4 -4,-128.5 3028.6,-128.5 3028.6,4 -4,4"/>
<!-- idBush1 -->
<g id="node1" class="node">
<title>idBush1</title>
<ellipse fill="none" stroke="black" cx="1498.39" cy="-106.5" rx="41.63" ry="18"/>
<text text-anchor="middle" x="1498.39" y="-101.45" font-family="Times,serif" font-size="14.00">idBush1</text>
</g>
<!-- idBush1&#45;&gt;idBush1 -->
<g id="edge7" class="edge">
<title>idBush1&#45;&gt;idBush1</title>
<path fill="none" stroke="black" d="M1535.95,-114.8C1548.23,-114.75 1558.02,-111.99 1558.02,-106.5 1558.02,-102.73 1553.39,-100.24 1546.51,-99.04"/>
<polygon fill="black" stroke="black" points="1547.19,-95.51 1536.95,-98.2 1546.64,-102.48 1547.19,-95.51"/>
<text text-anchor="middle" x="1575.64" y="-101.45" font-family="Times,serif" font-size="14.00">isNear</text>
</g>
<!-- green -->
<g id="node2" class="node">
<title>green</title>
<ellipse fill="none" stroke="black" cx="31.39" cy="-18" rx="31.39" ry="18"/>
<text text-anchor="middle" x="31.39" y="-12.95" font-family="Times,serif" font-size="14.00">green</text>
</g>
<!-- idBush1&#45;&gt;green -->
<g id="edge1" class="edge">
<title>idBush1&#45;&gt;green</title>
<path fill="none" stroke="black" d="M1456.6,-105.24C1230.17,-103.7 158.22,-95.17 92.89,-70.5 77.17,-64.56 62.6,-52.78 51.59,-41.97"/>
<polygon fill="black" stroke="black" points="54.71,-40.13 45.24,-35.38 49.68,-45 54.71,-40.13"/>
<text text-anchor="middle" x="155.64" y="-57.2" font-family="Times,serif" font-size="14.00">idBush1_prop_idColor</text>
</g>
<!-- yes -->
<g id="node3" class="node">
<title>yes</title>
<ellipse fill="none" stroke="black" cx="179.39" cy="-18" rx="27" ry="18"/>
<text text-anchor="middle" x="179.39" y="-12.95" font-family="Times,serif" font-size="14.00">yes</text>
</g>
<!-- idBush1&#45;&gt;yes -->
<g id="edge2" class="edge">
<title>idBush1&#45;&gt;yes</title>
<path fill="none" stroke="black" d="M1456.46,-105.79C1252.22,-106.99 366.72,-109.87 250.64,-70.5 232.5,-64.35 215.02,-51.85 201.92,-40.71"/>
<polygon fill="black" stroke="black" points="204.78,-38.68 194.97,-34.66 200.13,-43.91 204.78,-38.68"/>
<text text-anchor="middle" x="329.77" y="-57.2" font-family="Times,serif" font-size="14.00">idBush1_prop_idImmovable</text>
</g>
<!-- idClearing1 -->
<g id="node4" class="node">
<title>idClearing1</title>
<ellipse fill="none" stroke="black" cx="285.39" cy="-18" rx="54.42" ry="18"/>
<text text-anchor="middle" x="285.39" y="-12.95" font-family="Times,serif" font-size="14.00">idClearing1</text>
</g>
<!-- idBush1&#45;&gt;idClearing1 -->
<g id="edge3" class="edge">
<title>idBush1&#45;&gt;idClearing1</title>
<path fill="none" stroke="black" d="M1456.64,-105.19C1291.2,-103.77 681.44,-96.82 490.14,-70.5 435.69,-63.01 374.78,-46.62 333.66,-34.34"/>
<polygon fill="black" stroke="black" points="334.97,-30.77 324.39,-31.23 332.95,-37.47 334.97,-30.77"/>
<text text-anchor="middle" x="508.02" y="-57.2" font-family="Times,serif" font-size="14.00">isNear</text>
</g>
<!-- idWhistle1 -->
<g id="node5" class="node">
<title>idWhistle1</title>
<ellipse fill="none" stroke="black" cx="409.39" cy="-18" rx="51.86" ry="18"/>
<text text-anchor="middle" x="409.39" y="-12.95" font-family="Times,serif" font-size="14.00">idWhistle1</text>
</g>
<!-- idBush1&#45;&gt;idWhistle1 -->
<g id="edge4" class="edge">
<title>idBush1&#45;&gt;idWhistle1</title>
<path fill="none" stroke="black" d="M1456.52,-105.03C1303.19,-103.14 772.63,-94.94 605.14,-70.5 553.22,-62.92 495.28,-46.67 456,-34.43"/>
<polygon fill="black" stroke="black" points="457.27,-30.85 446.68,-31.18 455.17,-37.52 457.27,-30.85"/>
<text text-anchor="middle" x="623.02" y="-57.2" font-family="Times,serif" font-size="14.00">isNear</text>
</g>
<!-- idTheCar1 -->
<g id="node6" class="node">
<title>idTheCar1</title>
<ellipse fill="none" stroke="black" cx="529.39" cy="-18" rx="50.33" ry="18"/>
<text text-anchor="middle" x="529.39" y="-12.95" font-family="Times,serif" font-size="14.00">idTheCar1</text>
</g>
<!-- idBush1&#45;&gt;idTheCar1 -->
<g id="edge5" class="edge">
<title>idBush1&#45;&gt;idTheCar1</title>
<path fill="none" stroke="black" d="M1456.77,-104.83C1316.5,-102.37 861.72,-92.84 717.14,-70.5 667.53,-62.83 612.28,-46.73 574.64,-34.55"/>
<polygon fill="black" stroke="black" points="576.1,-31.02 565.51,-31.24 573.92,-37.67 576.1,-31.02"/>
<text text-anchor="middle" x="745.52" y="-57.2" font-family="Times,serif" font-size="14.00">isInsideOf</text>
</g>
<!-- idSideMirror1 -->
<g id="node7" class="node">
<title>idSideMirror1</title>
<ellipse fill="none" stroke="black" cx="661.39" cy="-18" rx="64.15" ry="18"/>
<text text-anchor="middle" x="661.39" y="-12.95" font-family="Times,serif" font-size="14.00">idSideMirror1</text>
</g>
<!-- idBush1&#45;&gt;idSideMirror1 -->
<g id="edge6" class="edge">
<title>idBush1&#45;&gt;idSideMirror1</title>
<path fill="none" stroke="black" d="M1456.66,-104.41C1332.65,-100.97 967.66,-89.48 850.14,-70.5 802.17,-62.75 748.88,-47.58 711.18,-35.7"/>
<polygon fill="black" stroke="black" points="712.57,-32.16 701.98,-32.45 710.45,-38.82 712.57,-32.16"/>
<text text-anchor="middle" x="868.02" y="-57.2" font-family="Times,serif" font-size="14.00">isNear</text>
</g>
<!-- idArea1 -->
<g id="node8" class="node">
<title>idArea1</title>
<ellipse fill="none" stroke="black" cx="784.39" cy="-18" rx="40.6" ry="18"/>
<text text-anchor="middle" x="784.39" y="-12.95" font-family="Times,serif" font-size="14.00">idArea1</text>
</g>
<!-- idBush1&#45;&gt;idArea1 -->
<g id="edge8" class="edge">
<title>idBush1&#45;&gt;idArea1</title>
<path fill="none" stroke="black" d="M1456.53,-105.78C1365.01,-105.74 1140.55,-102.1 955.89,-70.5 909.93,-62.64 858.96,-46.31 824.62,-34.14"/>
<polygon fill="black" stroke="black" points="826.12,-30.59 815.52,-30.5 823.75,-37.18 826.12,-30.59"/>
<text text-anchor="middle" x="979.64" y="-57.2" font-family="Times,serif" font-size="14.00">isEastOf</text>
</g>
<!-- idBumper1 -->
<g id="node9" class="node">
<title>idBumper1</title>
<ellipse fill="none" stroke="black" cx="895.39" cy="-18" rx="52.89" ry="18"/>
<text text-anchor="middle" x="895.39" y="-12.95" font-family="Times,serif" font-size="14.00">idBumper1</text>
</g>
<!-- idBush1&#45;&gt;idBumper1 -->
<g id="edge9" class="edge">
<title>idBush1&#45;&gt;idBumper1</title>
<path fill="none" stroke="black" d="M1456.66,-104.74C1380.43,-102.75 1213.83,-95.64 1075.89,-70.5 1029.5,-62.04 977.88,-46.69 941.76,-34.94"/>
<polygon fill="black" stroke="black" points="943.13,-31.38 932.54,-31.58 940.95,-38.03 943.13,-31.38"/>
<text text-anchor="middle" x="1099.64" y="-57.2" font-family="Times,serif" font-size="14.00">isEastOf</text>
</g>
<!-- idCarKey1 -->
<g id="node10" class="node">
<title>idCarKey1</title>
<ellipse fill="none" stroke="black" cx="1017.39" cy="-18" rx="51.35" ry="18"/>
<text text-anchor="middle" x="1017.39" y="-12.95" font-family="Times,serif" font-size="14.00">idCarKey1</text>
</g>
<!-- idBush1&#45;&gt;idCarKey1 -->
<g id="edge10" class="edge">
<title>idBush1&#45;&gt;idCarKey1</title>
<path fill="none" stroke="black" d="M1457.08,-103.23C1397.23,-99.4 1283.14,-90.08 1187.89,-70.5 1144.52,-61.58 1096.33,-46.53 1062.27,-34.99"/>
<polygon fill="black" stroke="black" points="1063.77,-31.47 1053.18,-31.54 1061.51,-38.09 1063.77,-31.47"/>
<text text-anchor="middle" x="1211.64" y="-57.2" font-family="Times,serif" font-size="14.00">isEastOf</text>
</g>
<!-- idStump1 -->
<g id="node11" class="node">
<title>idStump1</title>
<ellipse fill="none" stroke="black" cx="1134.39" cy="-18" rx="47.26" ry="18"/>
<text text-anchor="middle" x="1134.39" y="-12.95" font-family="Times,serif" font-size="14.00">idStump1</text>
</g>
<!-- idBush1&#45;&gt;idStump1 -->
<g id="edge11" class="edge">
<title>idBush1&#45;&gt;idStump1</title>
<path fill="none" stroke="black" d="M1458.86,-100.31C1417.8,-94.54 1351.86,-84.19 1295.89,-70.5 1255.26,-60.56 1209.97,-45.79 1177.72,-34.61"/>
<polygon fill="black" stroke="black" points="1179.32,-31.11 1168.72,-31.11 1177.01,-37.72 1179.32,-31.11"/>
<text text-anchor="middle" x="1319.64" y="-57.2" font-family="Times,serif" font-size="14.00">isEastOf</text>
</g>
<!-- idTheCarRoom1 -->
<g id="node12" class="node">
<title>idTheCarRoom1</title>
<ellipse fill="none" stroke="black" cx="1273.39" cy="-18" rx="73.36" ry="18"/>
<text text-anchor="middle" x="1273.39" y="-12.95" font-family="Times,serif" font-size="14.00">idTheCarRoom1</text>
</g>
<!-- idBush1&#45;&gt;idTheCarRoom1 -->
<g id="edge12" class="edge">
<title>idBush1&#45;&gt;idTheCarRoom1</title>
<path fill="none" stroke="black" d="M1463.26,-96.44C1439.9,-90.05 1408.69,-80.82 1381.89,-70.5 1358.59,-61.53 1333.34,-49.68 1313.07,-39.61"/>
<polygon fill="black" stroke="black" points="1314.76,-36.04 1304.25,-34.68 1311.62,-42.29 1314.76,-36.04"/>
<text text-anchor="middle" x="1405.64" y="-57.2" font-family="Times,serif" font-size="14.00">isEastOf</text>
</g>
<!-- idDen1 -->
<g id="node13" class="node">
<title>idDen1</title>
<ellipse fill="none" stroke="black" cx="1402.39" cy="-18" rx="38.04" ry="18"/>
<text text-anchor="middle" x="1402.39" y="-12.95" font-family="Times,serif" font-size="14.00">idDen1</text>
</g>
<!-- idBush1&#45;&gt;idDen1 -->
<g id="edge13" class="edge">
<title>idBush1&#45;&gt;idDen1</title>
<path fill="none" stroke="black" d="M1475.15,-91.1C1466.26,-85.17 1456.26,-77.94 1447.89,-70.5 1438.7,-62.33 1429.54,-52.39 1421.87,-43.43"/>
<polygon fill="black" stroke="black" points="1424.11,-41.67 1415.02,-36.23 1418.74,-46.15 1424.11,-41.67"/>
<text text-anchor="middle" x="1471.64" y="-57.2" font-family="Times,serif" font-size="14.00">isEastOf</text>
</g>
<!-- idBear1 -->
<g id="node14" class="node">
<title>idBear1</title>
<ellipse fill="none" stroke="black" cx="1498.39" cy="-18" rx="40.09" ry="18"/>
<text text-anchor="middle" x="1498.39" y="-12.95" font-family="Times,serif" font-size="14.00">idBear1</text>
</g>
<!-- idBush1&#45;&gt;idBear1 -->
<g id="edge14" class="edge">
<title>idBush1&#45;&gt;idBear1</title>
<path fill="none" stroke="black" d="M1498.39,-88.41C1498.39,-76.64 1498.39,-60.73 1498.39,-47.11"/>
<polygon fill="black" stroke="black" points="1501.89,-47.35 1498.39,-37.35 1494.89,-47.35 1501.89,-47.35"/>
<text text-anchor="middle" x="1521.64" y="-57.2" font-family="Times,serif" font-size="14.00">isEastOf</text>
</g>
<!-- idCar1 -->
<g id="node15" class="node">
<title>idCar1</title>
<ellipse fill="none" stroke="black" cx="1592.39" cy="-18" rx="36" ry="18"/>
<text text-anchor="middle" x="1592.39" y="-12.95" font-family="Times,serif" font-size="14.00">idCar1</text>
</g>
<!-- idBush1&#45;&gt;idCar1 -->
<g id="edge15" class="edge">
<title>idBush1&#45;&gt;idCar1</title>
<path fill="none" stroke="black" d="M1521.46,-91.14C1530.26,-85.21 1540.15,-77.98 1548.39,-70.5 1557.27,-62.44 1566.06,-52.62 1573.42,-43.73"/>
<polygon fill="black" stroke="black" points="1576.71,-46.23 1580.26,-36.25 1571.26,-41.84 1576.71,-46.23"/>
<text text-anchor="middle" x="1587.64" y="-57.2" font-family="Times,serif" font-size="14.00">isEastOf</text>
</g>
<!-- idCrowbar1 -->
<g id="node16" class="node">
<title>idCrowbar1</title>
<ellipse fill="none" stroke="black" cx="1701.39" cy="-18" rx="54.93" ry="18"/>
<text text-anchor="middle" x="1701.39" y="-12.95" font-family="Times,serif" font-size="14.00">idCrowbar1</text>
</g>
<!-- idBush1&#45;&gt;idCrowbar1 -->
<g id="edge16" class="edge">
<title>idBush1&#45;&gt;idCrowbar1</title>
<path fill="none" stroke="black" d="M1534.47,-97.02C1557.78,-90.96 1588.49,-81.88 1614.39,-70.5 1633.47,-62.12 1653.56,-50.44 1669.62,-40.32"/>
<polygon fill="black" stroke="black" points="1671.05,-42.92 1677.58,-34.58 1667.27,-37.03 1671.05,-42.92"/>
<text text-anchor="middle" x="1670.64" y="-57.2" font-family="Times,serif" font-size="14.00">isEastOf</text>
</g>
<!-- idLock1 -->
<g id="node17" class="node">
<title>idLock1</title>
<ellipse fill="none" stroke="black" cx="1816.39" cy="-18" rx="41.63" ry="18"/>
<text text-anchor="middle" x="1816.39" y="-12.95" font-family="Times,serif" font-size="14.00">idLock1</text>
</g>
<!-- idBush1&#45;&gt;idLock1 -->
<g id="edge17" class="edge">
<title>idBush1&#45;&gt;idLock1</title>
<path fill="none" stroke="black" d="M1538.67,-101.23C1579.33,-96.26 1643.63,-86.62 1697.39,-70.5 1726.32,-61.83 1757.6,-48.1 1780.84,-37"/>
<polygon fill="black" stroke="black" points="1782.12,-39.79 1789.59,-32.27 1779.06,-33.49 1782.12,-39.79"/>
<text text-anchor="middle" x="1764.64" y="-57.2" font-family="Times,serif" font-size="14.00">isEastOf</text>
</g>
<!-- idPlayer -->
<g id="node18" class="node">
<title>idPlayer</title>
<ellipse fill="none" stroke="black" cx="1917.39" cy="-18" rx="41.63" ry="18"/>
<text text-anchor="middle" x="1917.39" y="-12.95" font-family="Times,serif" font-size="14.00">idPlayer</text>
</g>
<!-- idBush1&#45;&gt;idPlayer -->
<g id="edge18" class="edge">
<title>idBush1&#45;&gt;idPlayer</title>
<path fill="none" stroke="black" d="M1539.8,-104.05C1597.15,-101.26 1703.61,-93.24 1791.39,-70.5 1822.76,-62.38 1856.67,-48.18 1881.4,-36.75"/>
<polygon fill="black" stroke="black" points="1882.51,-39.63 1890.07,-32.2 1879.53,-33.29 1882.51,-39.63"/>
<text text-anchor="middle" x="1864.64" y="-57.2" font-family="Times,serif" font-size="14.00">isEastOf</text>
</g>
<!-- idPlayerBackside -->
<g id="node19" class="node">
<title>idPlayerBackside</title>
<ellipse fill="none" stroke="black" cx="2052.39" cy="-18" rx="75.41" ry="18"/>
<text text-anchor="middle" x="2052.39" y="-12.95" font-family="Times,serif" font-size="14.00">idPlayerBackside</text>
</g>
<!-- idBush1&#45;&gt;idPlayerBackside -->
<g id="edge19" class="edge">
<title>idBush1&#45;&gt;idPlayerBackside</title>
<path fill="none" stroke="black" d="M1540.13,-104.8C1612.38,-102.91 1765.16,-95.98 1891.39,-70.5 1929.9,-62.73 1972.16,-49 2003.72,-37.67"/>
<polygon fill="black" stroke="black" points="2004.79,-40.64 2012.99,-33.93 2002.39,-34.07 2004.79,-40.64"/>
<text text-anchor="middle" x="1977.64" y="-57.2" font-family="Times,serif" font-size="14.00">isEastOf</text>
</g>
<!-- idPlayerLeftHand -->
<g id="node20" class="node">
<title>idPlayerLeftHand</title>
<ellipse fill="none" stroke="black" cx="2222.39" cy="-18" rx="76.94" ry="18"/>
<text text-anchor="middle" x="2222.39" y="-12.95" font-family="Times,serif" font-size="14.00">idPlayerLeftHand</text>
</g>
<!-- idBush1&#45;&gt;idPlayerLeftHand -->
<g id="edge20" class="edge">
<title>idBush1&#45;&gt;idPlayerLeftHand</title>
<path fill="none" stroke="black" d="M1540.29,-104.91C1627.27,-103.17 1833.53,-96.41 2004.39,-70.5 2059.45,-62.15 2121.12,-47.03 2164.78,-35.32"/>
<polygon fill="black" stroke="black" points="2165.46,-38.49 2174.2,-32.5 2163.63,-31.74 2165.46,-38.49"/>
<text text-anchor="middle" x="2112.64" y="-57.2" font-family="Times,serif" font-size="14.00">isEastOf</text>
</g>
<!-- idPlayerRightHand -->
<g id="node21" class="node">
<title>idPlayerRightHand</title>
<ellipse fill="none" stroke="black" cx="2399.39" cy="-18" rx="82.06" ry="18"/>
<text text-anchor="middle" x="2399.39" y="-12.95" font-family="Times,serif" font-size="14.00">idPlayerRightHand</text>
</g>
<!-- idBush1&#45;&gt;idPlayerRightHand -->
<g id="edge21" class="edge">
<title>idBush1&#45;&gt;idPlayerRightHand</title>
<path fill="none" stroke="black" d="M1540.19,-105.25C1642.71,-104.21 1914.64,-98.75 2139.39,-70.5 2206.67,-62.04 2282.63,-46.26 2335,-34.39"/>
<polygon fill="black" stroke="black" points="2335.51,-37.63 2344.47,-31.99 2333.95,-30.81 2335.51,-37.63"/>
<text text-anchor="middle" x="2263.64" y="-57.2" font-family="Times,serif" font-size="14.00">isEastOf</text>
</g>
<!-- idSmoke1 -->
<g id="node22" class="node">
<title>idSmoke1</title>
<ellipse fill="none" stroke="black" cx="2548.39" cy="-18" rx="48.79" ry="18"/>
<text text-anchor="middle" x="2548.39" y="-12.95" font-family="Times,serif" font-size="14.00">idSmoke1</text>
</g>
<!-- idBush1&#45;&gt;idSmoke1 -->
<g id="edge22" class="edge">
<title>idBush1&#45;&gt;idSmoke1</title>
<path fill="none" stroke="black" d="M1540.18,-105.51C1658.32,-105.15 2004.74,-101.32 2290.39,-70.5 2380.07,-60.82 2402.52,-56.39 2490.39,-36 2494.03,-35.16 2497.77,-34.22 2501.53,-33.23"/>
<polygon fill="black" stroke="black" points="2502.33,-36.36 2511.05,-30.34 2500.48,-29.61 2502.33,-36.36"/>
<text text-anchor="middle" x="2431.64" y="-57.2" font-family="Times,serif" font-size="14.00">isEastOf</text>
</g>
<!-- idSpill1 -->
<g id="node23" class="node">
<title>idSpill1</title>
<ellipse fill="none" stroke="black" cx="2655.39" cy="-18" rx="40.09" ry="18"/>
<text text-anchor="middle" x="2655.39" y="-12.95" font-family="Times,serif" font-size="14.00">idSpill1</text>
</g>
<!-- idBush1&#45;&gt;idSpill1 -->
<g id="edge23" class="edge">
<title>idBush1&#45;&gt;idSpill1</title>
<path fill="none" stroke="black" d="M1540.31,-105.05C1700.89,-103.14 2276.96,-94.72 2458.39,-70.5 2525.34,-61.56 2541.51,-54.76 2606.39,-36 2609.13,-35.21 2611.95,-34.35 2614.78,-33.45"/>
<polygon fill="black" stroke="black" points="2615.56,-36.55 2623.97,-30.11 2613.37,-29.9 2615.56,-36.55"/>
<text text-anchor="middle" x="2566.64" y="-57.2" font-family="Times,serif" font-size="14.00">isEastOf</text>
</g>
<!-- idTaillight1 -->
<g id="node24" class="node">
<title>idTaillight1</title>
<ellipse fill="none" stroke="black" cx="2768.39" cy="-18" rx="54.42" ry="18"/>
<text text-anchor="middle" x="2768.39" y="-12.95" font-family="Times,serif" font-size="14.00">idTaillight1</text>
</g>
<!-- idBush1&#45;&gt;idTaillight1 -->
<g id="edge24" class="edge">
<title>idBush1&#45;&gt;idTaillight1</title>
<path fill="none" stroke="black" d="M1540.17,-105.58C1714.56,-105.7 2384.93,-103.94 2593.39,-70.5 2638.45,-63.27 2688.23,-47.86 2723.14,-35.78"/>
<polygon fill="black" stroke="black" points="2724.2,-38.76 2732.47,-32.14 2721.88,-32.16 2724.2,-38.76"/>
<text text-anchor="middle" x="2685.64" y="-57.2" font-family="Times,serif" font-size="14.00">isEastOf</text>
</g>
<!-- idTire1 -->
<g id="node25" class="node">
<title>idTire1</title>
<ellipse fill="none" stroke="black" cx="2878.39" cy="-18" rx="38.04" ry="18"/>
<text text-anchor="middle" x="2878.39" y="-12.95" font-family="Times,serif" font-size="14.00">idTire1</text>
</g>
<!-- idBush1&#45;&gt;idTire1 -->
<g id="edge25" class="edge">
<title>idBush1&#45;&gt;idTire1</title>
<path fill="none" stroke="black" d="M1540.24,-105.71C1726.28,-106.44 2479.35,-107.03 2712.39,-70.5 2757.31,-63.46 2806.87,-46.86 2840.04,-34.4"/>
<polygon fill="black" stroke="black" points="2841.11,-37.35 2849.2,-30.52 2838.61,-30.81 2841.11,-37.35"/>
<text text-anchor="middle" x="2805.64" y="-57.2" font-family="Times,serif" font-size="14.00">isEastOf</text>
</g>
<!-- idTrunk1 -->
<g id="node26" class="node">
<title>idTrunk1</title>
<ellipse fill="none" stroke="black" cx="2979.39" cy="-18" rx="45.21" ry="18"/>
<text text-anchor="middle" x="2979.39" y="-12.95" font-family="Times,serif" font-size="14.00">idTrunk1</text>
</g>
<!-- idBush1&#45;&gt;idTrunk1 -->
<g id="edge26" class="edge">
<title>idBush1&#45;&gt;idTrunk1</title>
<path fill="none" stroke="black" d="M1540.19,-105.17C1752.12,-103.42 2702.93,-94.27 2832.39,-70.5 2870.22,-63.55 2911.39,-48.43 2940.51,-36.36"/>
<polygon fill="black" stroke="black" points="2941.43,-39.35 2949.28,-32.23 2938.71,-32.9 2941.43,-39.35"/>
<text text-anchor="middle" x="2913.64" y="-57.2" font-family="Times,serif" font-size="14.00">isEastOf</text>
</g>
</g>
</svg>
