<?xml version="1.0" encoding="UTF-8" standalone="no"?>
<!DOCTYPE svg PUBLIC "-//W3C//DTD SVG 1.1//EN"
 "http://www.w3.org/Graphics/SVG/1.1/DTD/svg11.dtd">
<!-- Generated by graphviz version 8.1.0 (20230707.0739)
 -->
<!-- Pages: 1 -->
<svg width="2952pt" height="133pt"
 viewBox="0.00 0.00 2951.74 132.50" xmlns="http://www.w3.org/2000/svg" xmlns:xlink="http://www.w3.org/1999/xlink">
<g id="graph0" class="graph" transform="scale(1 1) rotate(0) translate(4 128.5)">
<polygon fill="white" stroke="none" points="-4,4 -4,-128.5 2947.74,-128.5 2947.74,4 -4,4"/>
<!-- idCarKey1 -->
<g id="node1" class="node">
<title>idCarKey1</title>
<ellipse fill="none" stroke="black" cx="1409.88" cy="-106.5" rx="51.35" ry="18"/>
<text text-anchor="middle" x="1409.88" y="-101.45" font-family="Times,serif" font-size="14.00">idCarKey1</text>
</g>
<!-- idCarKey1&#45;&gt;idCarKey1 -->
<g id="edge6" class="edge">
<title>idCarKey1&#45;&gt;idCarKey1</title>
<path fill="none" stroke="black" d="M1456.23,-114.76C1469.24,-114.39 1479.23,-111.64 1479.23,-106.5 1479.23,-102.92 1474.4,-100.5 1467.08,-99.24"/>
<polygon fill="black" stroke="black" points="1467.5,-95.67 1457.23,-98.24 1466.86,-102.64 1467.5,-95.67"/>
<text text-anchor="middle" x="1496.86" y="-101.45" font-family="Times,serif" font-size="14.00">isNear</text>
</g>
<!-- black -->
<g id="node2" class="node">
<title>black</title>
<ellipse fill="none" stroke="black" cx="30.88" cy="-18" rx="30.88" ry="18"/>
<text text-anchor="middle" x="30.88" y="-12.95" font-family="Times,serif" font-size="14.00">black</text>
</g>
<!-- idCarKey1&#45;&gt;black -->
<g id="edge1" class="edge">
<title>idCarKey1&#45;&gt;black</title>
<path fill="none" stroke="black" d="M1358.28,-105.25C1120.37,-103.98 138.39,-97.12 79.13,-70.5 66.51,-64.83 55.63,-54.14 47.42,-43.97"/>
<polygon fill="black" stroke="black" points="49.71,-42.19 40.91,-36.29 44.11,-46.39 49.71,-42.19"/>
<text text-anchor="middle" x="149.25" y="-57.2" font-family="Times,serif" font-size="14.00">idCarKey1_prop_idColor</text>
</g>
<!-- true -->
<g id="node3" class="node">
<title>true</title>
<ellipse fill="none" stroke="black" cx="192.88" cy="-18" rx="27" ry="18"/>
<text text-anchor="middle" x="192.88" y="-12.95" font-family="Times,serif" font-size="14.00">true</text>
</g>
<!-- idCarKey1&#45;&gt;true -->
<g id="edge2" class="edge">
<title>idCarKey1&#45;&gt;true</title>
<path fill="none" stroke="black" d="M1358.27,-105.01C1139.34,-102.78 296.36,-92.77 244.63,-70.5 231.17,-64.71 219.31,-53.64 210.35,-43.25"/>
<polygon fill="black" stroke="black" points="212.54,-41.39 203.54,-35.8 207.1,-45.78 212.54,-41.39"/>
<text text-anchor="middle" x="343.5" y="-57.2" font-family="Times,serif" font-size="14.00">idCarKey1_prop_idUnknownObject</text>
</g>
<!-- idStump1 -->
<g id="node4" class="node">
<title>idStump1</title>
<ellipse fill="none" stroke="black" cx="338.88" cy="-18" rx="47.26" ry="18"/>
<text text-anchor="middle" x="338.88" y="-12.95" font-family="Times,serif" font-size="14.00">idStump1</text>
</g>
<!-- idCarKey1&#45;&gt;idStump1 -->
<g id="edge3" class="edge">
<title>idCarKey1&#45;&gt;idStump1</title>
<path fill="none" stroke="black" d="M1358.41,-105.14C1193.28,-103.71 678,-97.18 513.63,-70.5 467.65,-63.04 416.74,-47.12 381.79,-34.94"/>
<polygon fill="black" stroke="black" points="383.08,-31.33 372.48,-31.3 380.74,-37.93 383.08,-31.33"/>
<text text-anchor="middle" x="531.5" y="-57.2" font-family="Times,serif" font-size="14.00">isNear</text>
</g>
<!-- idArea1 -->
<g id="node5" class="node">
<title>idArea1</title>
<ellipse fill="none" stroke="black" cx="444.88" cy="-18" rx="40.6" ry="18"/>
<text text-anchor="middle" x="444.88" y="-12.95" font-family="Times,serif" font-size="14.00">idArea1</text>
</g>
<!-- idCarKey1&#45;&gt;idArea1 -->
<g id="edge4" class="edge">
<title>idCarKey1&#45;&gt;idArea1</title>
<path fill="none" stroke="black" d="M1358.27,-104.72C1206.52,-102.17 763.49,-92.97 620.63,-70.5 573.24,-63.04 520.65,-46.49 485.46,-34.15"/>
<polygon fill="black" stroke="black" points="486.72,-30.52 476.13,-30.47 484.37,-37.12 486.72,-30.52"/>
<text text-anchor="middle" x="638.5" y="-57.2" font-family="Times,serif" font-size="14.00">isNear</text>
</g>
<!-- idTheCar1 -->
<g id="node6" class="node">
<title>idTheCar1</title>
<ellipse fill="none" stroke="black" cx="553.88" cy="-18" rx="50.33" ry="18"/>
<text text-anchor="middle" x="553.88" y="-12.95" font-family="Times,serif" font-size="14.00">idTheCar1</text>
</g>
<!-- idCarKey1&#45;&gt;idTheCar1 -->
<g id="edge5" class="edge">
<title>idCarKey1&#45;&gt;idTheCar1</title>
<path fill="none" stroke="black" d="M1358.68,-104.46C1221.53,-101.42 848.07,-91.4 726.63,-70.5 681.91,-62.8 632.43,-47.3 597.92,-35.31"/>
<polygon fill="black" stroke="black" points="599.31,-31.74 588.72,-31.71 596.99,-38.34 599.31,-31.74"/>
<text text-anchor="middle" x="755" y="-57.2" font-family="Times,serif" font-size="14.00">isInsideOf</text>
</g>
<!-- idTheCarRoom1 -->
<g id="node7" class="node">
<title>idTheCarRoom1</title>
<ellipse fill="none" stroke="black" cx="695.88" cy="-18" rx="73.36" ry="18"/>
<text text-anchor="middle" x="695.88" y="-12.95" font-family="Times,serif" font-size="14.00">idTheCarRoom1</text>
</g>
<!-- idCarKey1&#45;&gt;idTheCarRoom1 -->
<g id="edge7" class="edge">
<title>idCarKey1&#45;&gt;idTheCarRoom1</title>
<path fill="none" stroke="black" d="M1358.51,-104.1C1238.45,-100.53 942.33,-89.98 844.88,-70.5 808.99,-63.32 769.93,-49.59 740.82,-38.11"/>
<polygon fill="black" stroke="black" points="742.54,-34.63 731.95,-34.16 739.93,-41.13 742.54,-34.63"/>
<text text-anchor="middle" x="870.38" y="-57.2" font-family="Times,serif" font-size="14.00">isWestOf</text>
</g>
<!-- idDen1 -->
<g id="node8" class="node">
<title>idDen1</title>
<ellipse fill="none" stroke="black" cx="824.88" cy="-18" rx="38.04" ry="18"/>
<text text-anchor="middle" x="824.88" y="-12.95" font-family="Times,serif" font-size="14.00">idDen1</text>
</g>
<!-- idCarKey1&#45;&gt;idDen1 -->
<g id="edge8" class="edge">
<title>idCarKey1&#45;&gt;idDen1</title>
<path fill="none" stroke="black" d="M1358.7,-103.68C1255.3,-99.67 1024.83,-88.92 948.13,-70.5 916.95,-63.01 883.51,-48.59 859.33,-36.91"/>
<polygon fill="black" stroke="black" points="861.09,-33.38 850.57,-32.1 857.99,-39.66 861.09,-33.38"/>
<text text-anchor="middle" x="976.25" y="-57.2" font-family="Times,serif" font-size="14.00">isNorthOf</text>
</g>
<!-- idClearing1 -->
<g id="node9" class="node">
<title>idClearing1</title>
<ellipse fill="none" stroke="black" cx="934.88" cy="-18" rx="54.42" ry="18"/>
<text text-anchor="middle" x="934.88" y="-12.95" font-family="Times,serif" font-size="14.00">idClearing1</text>
</g>
<!-- idCarKey1&#45;&gt;idClearing1 -->
<g id="edge9" class="edge">
<title>idCarKey1&#45;&gt;idClearing1</title>
<path fill="none" stroke="black" d="M1358.31,-105.4C1288.28,-104.16 1159.7,-97.88 1053.88,-70.5 1025.4,-63.13 994.99,-49.87 972.04,-38.65"/>
<polygon fill="black" stroke="black" points="973.89,-35.16 963.38,-33.83 970.76,-41.42 973.89,-35.16"/>
<text text-anchor="middle" x="1079.38" y="-57.2" font-family="Times,serif" font-size="14.00">isWestOf</text>
</g>
<!-- idBear1 -->
<g id="node10" class="node">
<title>idBear1</title>
<ellipse fill="none" stroke="black" cx="1047.88" cy="-18" rx="40.09" ry="18"/>
<text text-anchor="middle" x="1047.88" y="-12.95" font-family="Times,serif" font-size="14.00">idBear1</text>
</g>
<!-- idCarKey1&#45;&gt;idBear1 -->
<g id="edge10" class="edge">
<title>idCarKey1&#45;&gt;idBear1</title>
<path fill="none" stroke="black" d="M1358.59,-103.79C1304.99,-100.83 1219,-92.71 1148.13,-70.5 1123.96,-62.92 1098.6,-49.84 1079.44,-38.76"/>
<polygon fill="black" stroke="black" points="1081.41,-35.27 1071.02,-33.19 1077.84,-41.29 1081.41,-35.27"/>
<text text-anchor="middle" x="1176.25" y="-57.2" font-family="Times,serif" font-size="14.00">isNorthOf</text>
</g>
<!-- idBush1 -->
<g id="node11" class="node">
<title>idBush1</title>
<ellipse fill="none" stroke="black" cx="1147.88" cy="-18" rx="41.63" ry="18"/>
<text text-anchor="middle" x="1147.88" y="-12.95" font-family="Times,serif" font-size="14.00">idBush1</text>
</g>
<!-- idCarKey1&#45;&gt;idBush1 -->
<g id="edge11" class="edge">
<title>idCarKey1&#45;&gt;idBush1</title>
<path fill="none" stroke="black" d="M1362.19,-99.55C1327.74,-94.31 1280.49,-85.18 1240.88,-70.5 1219.27,-62.49 1196.61,-50.04 1179.07,-39.39"/>
<polygon fill="black" stroke="black" points="1181.24,-35.99 1170.89,-33.69 1177.55,-41.94 1181.24,-35.99"/>
<text text-anchor="middle" x="1266.38" y="-57.2" font-family="Times,serif" font-size="14.00">isWestOf</text>
</g>
<!-- idCar1 -->
<g id="node12" class="node">
<title>idCar1</title>
<ellipse fill="none" stroke="black" cx="1243.88" cy="-18" rx="36" ry="18"/>
<text text-anchor="middle" x="1243.88" y="-12.95" font-family="Times,serif" font-size="14.00">idCar1</text>
</g>
<!-- idCarKey1&#45;&gt;idCar1 -->
<g id="edge12" class="edge">
<title>idCarKey1&#45;&gt;idCar1</title>
<path fill="none" stroke="black" d="M1374.03,-93.15C1357.76,-87.06 1338.5,-79.17 1321.88,-70.5 1304.77,-61.57 1286.72,-49.82 1272.3,-39.8"/>
<polygon fill="black" stroke="black" points="1274.58,-36.42 1264.39,-33.51 1270.54,-42.14 1274.58,-36.42"/>
<text text-anchor="middle" x="1347.38" y="-57.2" font-family="Times,serif" font-size="14.00">isWestOf</text>
</g>
<!-- idCrowbar1 -->
<g id="node13" class="node">
<title>idCrowbar1</title>
<ellipse fill="none" stroke="black" cx="1352.88" cy="-18" rx="54.93" ry="18"/>
<text text-anchor="middle" x="1352.88" y="-12.95" font-family="Times,serif" font-size="14.00">idCrowbar1</text>
</g>
<!-- idCarKey1&#45;&gt;idCrowbar1 -->
<g id="edge13" class="edge">
<title>idCarKey1&#45;&gt;idCrowbar1</title>
<path fill="none" stroke="black" d="M1398.89,-88.82C1390.66,-76.34 1379.26,-59.03 1369.86,-44.77"/>
<polygon fill="black" stroke="black" points="1372.45,-43.35 1364.03,-36.92 1366.61,-47.2 1372.45,-43.35"/>
<text text-anchor="middle" x="1412.38" y="-57.2" font-family="Times,serif" font-size="14.00">isWestOf</text>
</g>
<!-- idLock1 -->
<g id="node14" class="node">
<title>idLock1</title>
<ellipse fill="none" stroke="black" cx="1467.88" cy="-18" rx="41.63" ry="18"/>
<text text-anchor="middle" x="1467.88" y="-12.95" font-family="Times,serif" font-size="14.00">idLock1</text>
</g>
<!-- idCarKey1&#45;&gt;idLock1 -->
<g id="edge14" class="edge">
<title>idCarKey1&#45;&gt;idLock1</title>
<path fill="none" stroke="black" d="M1426.49,-89.2C1431.77,-83.55 1437.39,-77.01 1441.88,-70.5 1447.16,-62.85 1452.03,-53.98 1456.09,-45.77"/>
<polygon fill="black" stroke="black" points="1459.66,-47.42 1460.77,-36.88 1453.33,-44.42 1459.66,-47.42"/>
<text text-anchor="middle" x="1477.38" y="-57.2" font-family="Times,serif" font-size="14.00">isWestOf</text>
</g>
<!-- idPlayer -->
<g id="node15" class="node">
<title>idPlayer</title>
<ellipse fill="none" stroke="black" cx="1568.88" cy="-18" rx="41.63" ry="18"/>
<text text-anchor="middle" x="1568.88" y="-12.95" font-family="Times,serif" font-size="14.00">idPlayer</text>
</g>
<!-- idCarKey1&#45;&gt;idPlayer -->
<g id="edge15" class="edge">
<title>idCarKey1&#45;&gt;idPlayer</title>
<path fill="none" stroke="black" d="M1449.48,-94.65C1467.62,-88.83 1489.01,-80.72 1506.88,-70.5 1520.53,-62.69 1534.14,-51.82 1545.11,-42.07"/>
<polygon fill="black" stroke="black" points="1546.93,-45.24 1551.95,-35.91 1542.21,-40.07 1546.93,-45.24"/>
<text text-anchor="middle" x="1556.38" y="-57.2" font-family="Times,serif" font-size="14.00">isWestOf</text>
</g>
<!-- idPlayerBackside -->
<g id="node16" class="node">
<title>idPlayerBackside</title>
<ellipse fill="none" stroke="black" cx="1703.88" cy="-18" rx="75.41" ry="18"/>
<text text-anchor="middle" x="1703.88" y="-12.95" font-family="Times,serif" font-size="14.00">idPlayerBackside</text>
</g>
<!-- idCarKey1&#45;&gt;idPlayerBackside -->
<g id="edge16" class="edge">
<title>idCarKey1&#45;&gt;idPlayerBackside</title>
<path fill="none" stroke="black" d="M1456.89,-98.97C1492.74,-93.32 1543.07,-83.93 1585.88,-70.5 1612.33,-62.21 1640.84,-49.86 1663.21,-39.34"/>
<polygon fill="black" stroke="black" points="1664.51,-42.12 1672.03,-34.65 1661.5,-35.8 1664.51,-42.12"/>
<text text-anchor="middle" x="1655.38" y="-57.2" font-family="Times,serif" font-size="14.00">isWestOf</text>
</g>
<!-- idPlayerLeftHand -->
<g id="node17" class="node">
<title>idPlayerLeftHand</title>
<ellipse fill="none" stroke="black" cx="1873.88" cy="-18" rx="76.94" ry="18"/>
<text text-anchor="middle" x="1873.88" y="-12.95" font-family="Times,serif" font-size="14.00">idPlayerLeftHand</text>
</g>
<!-- idCarKey1&#45;&gt;idPlayerLeftHand -->
<g id="edge17" class="edge">
<title>idCarKey1&#45;&gt;idPlayerLeftHand</title>
<path fill="none" stroke="black" d="M1459.39,-101.3C1514.71,-96.11 1606.76,-86.04 1684.88,-70.5 1730.61,-61.4 1781.57,-47.28 1819.04,-36.12"/>
<polygon fill="black" stroke="black" points="1819.67,-39.29 1828.24,-33.06 1817.65,-32.58 1819.67,-39.29"/>
<text text-anchor="middle" x="1779.38" y="-57.2" font-family="Times,serif" font-size="14.00">isWestOf</text>
</g>
<!-- idPlayerRightHand -->
<g id="node18" class="node">
<title>idPlayerRightHand</title>
<ellipse fill="none" stroke="black" cx="2050.88" cy="-18" rx="82.06" ry="18"/>
<text text-anchor="middle" x="2050.88" y="-12.95" font-family="Times,serif" font-size="14.00">idPlayerRightHand</text>
</g>
<!-- idCarKey1&#45;&gt;idPlayerRightHand -->
<g id="edge18" class="edge">
<title>idCarKey1&#45;&gt;idPlayerRightHand</title>
<path fill="none" stroke="black" d="M1460.5,-103.05C1536.49,-98.91 1684.4,-89.13 1808.88,-70.5 1870.1,-61.34 1939.07,-46.17 1987.68,-34.66"/>
<polygon fill="black" stroke="black" points="1988.43,-37.85 1997.34,-32.12 1986.81,-31.04 1988.43,-37.85"/>
<text text-anchor="middle" x="1922.38" y="-57.2" font-family="Times,serif" font-size="14.00">isWestOf</text>
</g>
<!-- idSideMirror1 -->
<g id="node19" class="node">
<title>idSideMirror1</title>
<ellipse fill="none" stroke="black" cx="2214.88" cy="-18" rx="64.15" ry="18"/>
<text text-anchor="middle" x="2214.88" y="-12.95" font-family="Times,serif" font-size="14.00">idSideMirror1</text>
</g>
<!-- idCarKey1&#45;&gt;idSideMirror1 -->
<g id="edge19" class="edge">
<title>idCarKey1&#45;&gt;idSideMirror1</title>
<path fill="none" stroke="black" d="M1461.25,-104.15C1557.72,-101.19 1772.42,-92.51 1951.88,-70.5 2022.95,-61.78 2103.62,-44.93 2156.66,-32.88"/>
<polygon fill="black" stroke="black" points="2157.25,-36.11 2166.22,-30.46 2155.69,-29.28 2157.25,-36.11"/>
<text text-anchor="middle" x="2079.38" y="-57.2" font-family="Times,serif" font-size="14.00">isWestOf</text>
</g>
<!-- idSmoke1 -->
<g id="node20" class="node">
<title>idSmoke1</title>
<ellipse fill="none" stroke="black" cx="2345.88" cy="-18" rx="48.79" ry="18"/>
<text text-anchor="middle" x="2345.88" y="-12.95" font-family="Times,serif" font-size="14.00">idSmoke1</text>
</g>
<!-- idCarKey1&#45;&gt;idSmoke1 -->
<g id="edge20" class="edge">
<title>idCarKey1&#45;&gt;idSmoke1</title>
<path fill="none" stroke="black" d="M1461.39,-105.39C1577.42,-104.6 1867.92,-99.61 2108.88,-70.5 2189.31,-60.78 2209.14,-55.08 2287.88,-36 2291.45,-35.13 2295.14,-34.19 2298.83,-33.19"/>
<polygon fill="black" stroke="black" points="2299.5,-36.36 2308.2,-30.32 2297.63,-29.62 2299.5,-36.36"/>
<text text-anchor="middle" x="2237.38" y="-57.2" font-family="Times,serif" font-size="14.00">isWestOf</text>
</g>
<!-- idSpill1 -->
<g id="node21" class="node">
<title>idSpill1</title>
<ellipse fill="none" stroke="black" cx="2452.88" cy="-18" rx="40.09" ry="18"/>
<text text-anchor="middle" x="2452.88" y="-12.95" font-family="Times,serif" font-size="14.00">idSpill1</text>
</g>
<!-- idCarKey1&#45;&gt;idSpill1 -->
<g id="edge21" class="edge">
<title>idCarKey1&#45;&gt;idSpill1</title>
<path fill="none" stroke="black" d="M1461.29,-104.79C1621.45,-102.35 2110.02,-93.21 2266.88,-70.5 2318.11,-63.08 2375.24,-45.87 2412.49,-33.38"/>
<polygon fill="black" stroke="black" points="2413.11,-36.52 2421.45,-29.99 2410.86,-29.89 2413.11,-36.52"/>
<text text-anchor="middle" x="2365.38" y="-57.2" font-family="Times,serif" font-size="14.00">isWestOf</text>
</g>
<!-- idTaillight1 -->
<g id="node22" class="node">
<title>idTaillight1</title>
<ellipse fill="none" stroke="black" cx="2565.88" cy="-18" rx="54.42" ry="18"/>
<text text-anchor="middle" x="2565.88" y="-12.95" font-family="Times,serif" font-size="14.00">idTaillight1</text>
</g>
<!-- idCarKey1&#45;&gt;idTaillight1 -->
<g id="edge22" class="edge">
<title>idCarKey1&#45;&gt;idTaillight1</title>
<path fill="none" stroke="black" d="M1461.46,-105.41C1637.33,-104.84 2212.66,-100.66 2394.88,-70.5 2438.82,-63.23 2487.28,-47.9 2521.36,-35.85"/>
<polygon fill="black" stroke="black" points="2522.23,-38.9 2530.46,-32.23 2519.86,-32.31 2522.23,-38.9"/>
<text text-anchor="middle" x="2489.25" y="-57.2" font-family="Times,serif" font-size="14.00">isNorthOf</text>
</g>
<!-- idTire1 -->
<g id="node23" class="node">
<title>idTire1</title>
<ellipse fill="none" stroke="black" cx="2675.88" cy="-18" rx="38.04" ry="18"/>
<text text-anchor="middle" x="2675.88" y="-12.95" font-family="Times,serif" font-size="14.00">idTire1</text>
</g>
<!-- idCarKey1&#45;&gt;idTire1 -->
<g id="edge23" class="edge">
<title>idCarKey1&#45;&gt;idTire1</title>
<path fill="none" stroke="black" d="M1461.36,-105.77C1651.41,-106.47 2313.22,-106.22 2520.88,-70.5 2562.31,-63.37 2607.73,-47.23 2638.63,-34.9"/>
<polygon fill="black" stroke="black" points="2639.58,-37.89 2647.53,-30.89 2636.94,-31.41 2639.58,-37.89"/>
<text text-anchor="middle" x="2609.25" y="-57.2" font-family="Times,serif" font-size="14.00">isNorthOf</text>
</g>
<!-- idTrunk1 -->
<g id="node24" class="node">
<title>idTrunk1</title>
<ellipse fill="none" stroke="black" cx="2776.88" cy="-18" rx="45.21" ry="18"/>
<text text-anchor="middle" x="2776.88" y="-12.95" font-family="Times,serif" font-size="14.00">idTrunk1</text>
</g>
<!-- idCarKey1&#45;&gt;idTrunk1 -->
<g id="edge24" class="edge">
<title>idCarKey1&#45;&gt;idTrunk1</title>
<path fill="none" stroke="black" d="M1461.24,-105.05C1679.49,-102.99 2524.15,-93.58 2640.88,-70.5 2675.47,-63.66 2712.79,-48.96 2739.58,-37"/>
<polygon fill="black" stroke="black" points="2740.64,-39.91 2748.3,-32.58 2737.74,-33.54 2740.64,-39.91"/>
<text text-anchor="middle" x="2720.38" y="-57.2" font-family="Times,serif" font-size="14.00">isWestOf</text>
</g>
<!-- idWhistle1 -->
<g id="node25" class="node">
<title>idWhistle1</title>
<ellipse fill="none" stroke="black" cx="2891.88" cy="-18" rx="51.86" ry="18"/>
<text text-anchor="middle" x="2891.88" y="-12.95" font-family="Times,serif" font-size="14.00">idWhistle1</text>
</g>
<!-- idCarKey1&#45;&gt;idWhistle1 -->
<g id="edge25" class="edge">
<title>idCarKey1&#45;&gt;idWhistle1</title>
<path fill="none" stroke="black" d="M1461.45,-105.13C1691.93,-103.35 2621.83,-94.73 2749.88,-70.5 2785.56,-63.75 2824.2,-49.23 2852.15,-37.32"/>
<polygon fill="black" stroke="black" points="2853.15,-40.27 2860.93,-33.07 2850.37,-33.85 2853.15,-40.27"/>
<text text-anchor="middle" x="2831.38" y="-57.2" font-family="Times,serif" font-size="14.00">isWestOf</text>
</g>
</g>
</svg>
