<?xml version="1.0" encoding="UTF-8" standalone="no"?>
<!DOCTYPE svg PUBLIC "-//W3C//DTD SVG 1.1//EN"
 "http://www.w3.org/Graphics/SVG/1.1/DTD/svg11.dtd">
<!-- Generated by graphviz version 8.1.0 (20230707.0739)
 -->
<!-- Pages: 1 -->
<svg width="2144pt" height="133pt"
 viewBox="0.00 0.00 2144.38 132.50" xmlns="http://www.w3.org/2000/svg" xmlns:xlink="http://www.w3.org/1999/xlink">
<g id="graph0" class="graph" transform="scale(1 1) rotate(0) translate(4 128.5)">
<polygon fill="white" stroke="none" points="-4,4 -4,-128.5 2140.38,-128.5 2140.38,4 -4,4"/>
<!-- idCarDoor1 -->
<g id="node1" class="node">
<title>idCarDoor1</title>
<ellipse fill="none" stroke="black" cx="997.88" cy="-106.5" rx="54.93" ry="18"/>
<text text-anchor="middle" x="997.88" y="-101.45" font-family="Times,serif" font-size="14.00">idCarDoor1</text>
</g>
<!-- black -->
<g id="node2" class="node">
<title>black</title>
<ellipse fill="none" stroke="black" cx="30.88" cy="-18" rx="30.88" ry="18"/>
<text text-anchor="middle" x="30.88" y="-12.95" font-family="Times,serif" font-size="14.00">black</text>
</g>
<!-- idCarDoor1&#45;&gt;black -->
<g id="edge1" class="edge">
<title>idCarDoor1&#45;&gt;black</title>
<path fill="none" stroke="black" d="M942.8,-104.74C748.92,-101.9 107.6,-90.98 68.88,-70.5 58.34,-64.93 49.97,-54.99 43.79,-45.31"/>
<polygon fill="black" stroke="black" points="46.38,-43.81 38.34,-36.9 40.32,-47.31 46.38,-43.81"/>
<text text-anchor="middle" x="140.88" y="-57.2" font-family="Times,serif" font-size="14.00">idCarDoor1_prop_idColor</text>
</g>
<!-- old -->
<g id="node3" class="node">
<title>old</title>
<ellipse fill="none" stroke="black" cx="197.88" cy="-18" rx="27" ry="18"/>
<text text-anchor="middle" x="197.88" y="-12.95" font-family="Times,serif" font-size="14.00">old</text>
</g>
<!-- idCarDoor1&#45;&gt;old -->
<g id="edge2" class="edge">
<title>idCarDoor1&#45;&gt;old</title>
<path fill="none" stroke="black" d="M942.49,-105.77C777.21,-106.2 295.13,-104.49 233.63,-70.5 223.41,-64.85 215.48,-54.9 209.71,-45.24"/>
<polygon fill="black" stroke="black" points="212.48,-43.99 204.66,-36.84 206.32,-47.31 212.48,-43.99"/>
<text text-anchor="middle" x="319" y="-57.2" font-family="Times,serif" font-size="14.00">idCarDoor1_prop_idDescriptor</text>
</g>
<!-- closed -->
<g id="node4" class="node">
<title>closed</title>
<ellipse fill="none" stroke="black" cx="390.88" cy="-18" rx="34.46" ry="18"/>
<text text-anchor="middle" x="390.88" y="-12.95" font-family="Times,serif" font-size="14.00">closed</text>
</g>
<!-- idCarDoor1&#45;&gt;closed -->
<g id="edge3" class="edge">
<title>idCarDoor1&#45;&gt;closed</title>
<path fill="none" stroke="black" d="M942.94,-104.94C808.07,-103.16 468.44,-96.17 424.38,-70.5 414.67,-64.84 407.27,-55.11 401.94,-45.63"/>
<polygon fill="black" stroke="black" points="404.72,-44.37 397.11,-37.01 398.46,-47.51 404.72,-44.37"/>
<text text-anchor="middle" x="509.63" y="-57.2" font-family="Times,serif" font-size="14.00">idCarDoor1_prop_idOpenState</text>
</g>
<!-- crumpled -->
<g id="node5" class="node">
<title>crumpled</title>
<ellipse fill="none" stroke="black" cx="583.88" cy="-18" rx="46.23" ry="18"/>
<text text-anchor="middle" x="583.88" y="-12.95" font-family="Times,serif" font-size="14.00">crumpled</text>
</g>
<!-- idCarDoor1&#45;&gt;crumpled -->
<g id="edge4" class="edge">
<title>idCarDoor1&#45;&gt;crumpled</title>
<path fill="none" stroke="black" d="M943.45,-103.38C843.68,-99.09 639.2,-88.23 612.13,-70.5 603.45,-64.82 597.21,-55.52 592.84,-46.38"/>
<polygon fill="black" stroke="black" points="595.73,-45.22 588.67,-37.32 589.27,-47.9 595.73,-45.22"/>
<text text-anchor="middle" x="704.75" y="-57.2" font-family="Times,serif" font-size="14.00">idCarDoor1_prop_idDescriptor_1</text>
</g>
<!-- visible -->
<g id="node6" class="node">
<title>visible</title>
<ellipse fill="none" stroke="black" cx="790.88" cy="-18" rx="35.49" ry="18"/>
<text text-anchor="middle" x="790.88" y="-12.95" font-family="Times,serif" font-size="14.00">visible</text>
</g>
<!-- idCarDoor1&#45;&gt;visible -->
<g id="edge5" class="edge">
<title>idCarDoor1&#45;&gt;visible</title>
<path fill="none" stroke="black" d="M944.76,-101.4C896.58,-96.67 830.12,-87.3 810.13,-70.5 802.96,-64.48 798.46,-55.51 795.63,-46.73"/>
<polygon fill="black" stroke="black" points="798.84,-46.15 792.95,-37.34 792.06,-47.9 798.84,-46.15"/>
<text text-anchor="middle" x="902.75" y="-57.2" font-family="Times,serif" font-size="14.00">idCarDoor1_prop_idDescriptor_2</text>
</g>
<!-- idLocalFront -->
<g id="node7" class="node">
<title>idLocalFront</title>
<ellipse fill="none" stroke="black" cx="997.88" cy="-18" rx="59.03" ry="18"/>
<text text-anchor="middle" x="997.88" y="-12.95" font-family="Times,serif" font-size="14.00">idLocalFront</text>
</g>
<!-- idCarDoor1&#45;&gt;idLocalFront -->
<g id="edge6" class="edge">
<title>idCarDoor1&#45;&gt;idLocalFront</title>
<path fill="none" stroke="black" d="M997.88,-88.41C997.88,-76.64 997.88,-60.73 997.88,-47.11"/>
<polygon fill="black" stroke="black" points="1001.38,-47.35 997.88,-37.35 994.38,-47.35 1001.38,-47.35"/>
<text text-anchor="middle" x="1078.5" y="-57.2" font-family="Times,serif" font-size="14.00">idCarDoor1_prop_idLocation</text>
</g>
<!-- left -->
<g id="node8" class="node">
<title>left</title>
<ellipse fill="none" stroke="black" cx="1181.88" cy="-18" rx="27" ry="18"/>
<text text-anchor="middle" x="1181.88" y="-12.95" font-family="Times,serif" font-size="14.00">left</text>
</g>
<!-- idCarDoor1&#45;&gt;left -->
<g id="edge7" class="edge">
<title>idCarDoor1&#45;&gt;left</title>
<path fill="none" stroke="black" d="M1049.23,-99.59C1090.12,-93.96 1143.18,-84.28 1159.88,-70.5 1167.24,-64.43 1172.19,-55.45 1175.49,-46.68"/>
<polygon fill="black" stroke="black" points="1179.1,-47.88 1178.76,-37.3 1172.42,-45.78 1179.1,-47.88"/>
<text text-anchor="middle" x="1259.25" y="-57.2" font-family="Times,serif" font-size="14.00">idCarDoor1_prop_idLocation_1</text>
</g>
<!-- idDriver -->
<g id="node9" class="node">
<title>idDriver</title>
<ellipse fill="none" stroke="black" cx="1379.88" cy="-18" rx="42.14" ry="18"/>
<text text-anchor="middle" x="1379.88" y="-12.95" font-family="Times,serif" font-size="14.00">idDriver</text>
</g>
<!-- idCarDoor1&#45;&gt;idDriver -->
<g id="edge8" class="edge">
<title>idCarDoor1&#45;&gt;idDriver</title>
<path fill="none" stroke="black" d="M1053.27,-106.1C1140.07,-106.05 1303.18,-101.64 1350.88,-70.5 1359.62,-64.79 1365.99,-55.49 1370.5,-46.35"/>
<polygon fill="black" stroke="black" points="1374.09,-47.87 1374.82,-37.3 1367.66,-45.11 1374.09,-47.87"/>
<text text-anchor="middle" x="1445.25" y="-57.2" font-family="Times,serif" font-size="14.00">idCarDoor1_prop_idCarSide</text>
</g>
<!-- idDriver1 -->
<g id="node10" class="node">
<title>idDriver1</title>
<ellipse fill="none" stroke="black" cx="1559.88" cy="-18" rx="46.75" ry="18"/>
<text text-anchor="middle" x="1559.88" y="-12.95" font-family="Times,serif" font-size="14.00">idDriver1</text>
</g>
<!-- idCarDoor1&#45;&gt;idDriver1 -->
<g id="edge9" class="edge">
<title>idCarDoor1&#45;&gt;idDriver1</title>
<path fill="none" stroke="black" d="M1052.87,-104.69C1180.28,-102.42 1487.9,-94.49 1527.88,-70.5 1537.23,-64.89 1544.25,-55.4 1549.29,-46.07"/>
<polygon fill="black" stroke="black" points="1552.85,-47.75 1554.01,-37.22 1546.54,-44.73 1552.85,-47.75"/>
<text text-anchor="middle" x="1628.88" y="-57.2" font-family="Times,serif" font-size="14.00">idCarDoor1_prop_idOwnedBy</text>
</g>
<!-- yes -->
<g id="node11" class="node">
<title>yes</title>
<ellipse fill="none" stroke="black" cx="1750.88" cy="-18" rx="27" ry="18"/>
<text text-anchor="middle" x="1750.88" y="-12.95" font-family="Times,serif" font-size="14.00">yes</text>
</g>
<!-- idCarDoor1&#45;&gt;yes -->
<g id="edge10" class="edge">
<title>idCarDoor1&#45;&gt;yes</title>
<path fill="none" stroke="black" d="M1053.09,-105.66C1211.5,-105.73 1659.81,-103.02 1716.88,-70.5 1726.76,-64.87 1734.29,-55.06 1739.72,-45.5"/>
<polygon fill="black" stroke="black" points="1743.23,-47.31 1744.63,-36.81 1736.99,-44.15 1743.23,-47.31"/>
<text text-anchor="middle" x="1822" y="-57.2" font-family="Times,serif" font-size="14.00">idCarDoor1_prop_idImmovable</text>
</g>
<!-- idCarDoorLock1 -->
<g id="node12" class="node">
<title>idCarDoorLock1</title>
<ellipse fill="none" stroke="black" cx="1949.88" cy="-18" rx="73.87" ry="18"/>
<text text-anchor="middle" x="1949.88" y="-12.95" font-family="Times,serif" font-size="14.00">idCarDoorLock1</text>
</g>
<!-- idCarDoor1&#45;&gt;idCarDoorLock1 -->
<g id="edge11" class="edge">
<title>idCarDoor1&#45;&gt;idCarDoorLock1</title>
<path fill="none" stroke="black" d="M1052.87,-104.75C1244.9,-101.94 1876.01,-91.16 1913.88,-70.5 1923.9,-65.03 1931.74,-55.43 1937.52,-45.98"/>
<polygon fill="black" stroke="black" points="1941.04,-47.83 1942.79,-37.38 1934.91,-44.46 1941.04,-47.83"/>
<text text-anchor="middle" x="2033.63" y="-57.2" font-family="Times,serif" font-size="14.00">idCarDoor1_prop_idLockMechanism</text>
</g>
</g>
</svg>
