<?xml version="1.0" encoding="UTF-8" standalone="no"?>
<!DOCTYPE svg PUBLIC "-//W3C//DTD SVG 1.1//EN"
 "http://www.w3.org/Graphics/SVG/1.1/DTD/svg11.dtd">
<!-- Generated by graphviz version 8.1.0 (20230707.0739)
 -->
<!-- Pages: 1 -->
<svg width="2207pt" height="133pt"
 viewBox="0.00 0.00 2206.74 132.50" xmlns="http://www.w3.org/2000/svg" xmlns:xlink="http://www.w3.org/1999/xlink">
<g id="graph0" class="graph" transform="scale(1 1) rotate(0) translate(4 128.5)">
<polygon fill="white" stroke="none" points="-4,4 -4,-128.5 2202.74,-128.5 2202.74,4 -4,4"/>
<!-- idCar1 -->
<g id="node1" class="node">
<title>idCar1</title>
<ellipse fill="none" stroke="black" cx="1125.88" cy="-106.5" rx="36" ry="18"/>
<text text-anchor="middle" x="1125.88" y="-101.45" font-family="Times,serif" font-size="14.00">idCar1</text>
</g>
<!-- idCar1&#45;&gt;idCar1 -->
<g id="edge8" class="edge">
<title>idCar1&#45;&gt;idCar1</title>
<path fill="none" stroke="black" d="M1158.3,-114.78C1170.16,-115.01 1179.88,-112.25 1179.88,-106.5 1179.88,-102.64 1175.49,-100.12 1169.01,-98.96"/>
<polygon fill="black" stroke="black" points="1169.52,-95.42 1159.3,-98.22 1169.03,-102.4 1169.52,-95.42"/>
<text text-anchor="middle" x="1197.5" y="-101.45" font-family="Times,serif" font-size="14.00">isNear</text>
</g>
<!-- black -->
<g id="node2" class="node">
<title>black</title>
<ellipse fill="none" stroke="black" cx="30.88" cy="-18" rx="30.88" ry="18"/>
<text text-anchor="middle" x="30.88" y="-12.95" font-family="Times,serif" font-size="14.00">black</text>
</g>
<!-- idCar1&#45;&gt;black -->
<g id="edge1" class="edge">
<title>idCar1&#45;&gt;black</title>
<path fill="none" stroke="black" d="M1089.68,-105.03C911.01,-102.61 129.75,-90.88 82.63,-70.5 69.36,-64.76 57.64,-53.91 48.73,-43.65"/>
<polygon fill="black" stroke="black" points="50.95,-41.83 41.92,-36.28 45.52,-46.25 50.95,-41.83"/>
<text text-anchor="middle" x="141" y="-57.2" font-family="Times,serif" font-size="14.00">idCar1_prop_idColor</text>
</g>
<!-- old -->
<g id="node3" class="node">
<title>old</title>
<ellipse fill="none" stroke="black" cx="169.88" cy="-18" rx="27" ry="18"/>
<text text-anchor="middle" x="169.88" y="-12.95" font-family="Times,serif" font-size="14.00">old</text>
</g>
<!-- idCar1&#45;&gt;old -->
<g id="edge2" class="edge">
<title>idCar1&#45;&gt;old</title>
<path fill="none" stroke="black" d="M1089.44,-105.55C931.1,-105.58 307.09,-103.58 226.38,-70.5 211.84,-64.54 198.67,-53.08 188.71,-42.49"/>
<polygon fill="black" stroke="black" points="191.7,-40.45 182.44,-35.29 186.46,-45.1 191.7,-40.45"/>
<text text-anchor="middle" x="298.13" y="-57.2" font-family="Times,serif" font-size="14.00">idCar1_prop_idDescriptor</text>
</g>
<!-- yes -->
<g id="node4" class="node">
<title>yes</title>
<ellipse fill="none" stroke="black" cx="325.88" cy="-18" rx="27" ry="18"/>
<text text-anchor="middle" x="325.88" y="-12.95" font-family="Times,serif" font-size="14.00">yes</text>
</g>
<!-- idCar1&#45;&gt;yes -->
<g id="edge3" class="edge">
<title>idCar1&#45;&gt;yes</title>
<path fill="none" stroke="black" d="M1089.58,-104.86C952.37,-102.28 469.75,-91.77 404.38,-70.5 384.48,-64.03 364.8,-51.1 350.13,-39.81"/>
<polygon fill="black" stroke="black" points="352.68,-36.57 342.68,-33.07 348.31,-42.05 352.68,-36.57"/>
<text text-anchor="middle" x="479.13" y="-57.2" font-family="Times,serif" font-size="14.00">idCar1_prop_idImmovable</text>
</g>
<!-- idTheCarRoom1 -->
<g id="node5" class="node">
<title>idTheCarRoom1</title>
<ellipse fill="none" stroke="black" cx="443.88" cy="-18" rx="73.36" ry="18"/>
<text text-anchor="middle" x="443.88" y="-12.95" font-family="Times,serif" font-size="14.00">idTheCarRoom1</text>
</g>
<!-- idCar1&#45;&gt;idTheCarRoom1 -->
<g id="edge4" class="edge">
<title>idCar1&#45;&gt;idTheCarRoom1</title>
<path fill="none" stroke="black" d="M1089.7,-105.44C1007.26,-104.76 799.4,-100 628.63,-70.5 583.09,-62.63 532.62,-48.16 495.96,-36.55"/>
<polygon fill="black" stroke="black" points="497.11,-32.93 486.52,-33.21 494.97,-39.59 497.11,-32.93"/>
<text text-anchor="middle" x="646.5" y="-57.2" font-family="Times,serif" font-size="14.00">isNear</text>
</g>
<!-- idSpill1 -->
<g id="node6" class="node">
<title>idSpill1</title>
<ellipse fill="none" stroke="black" cx="574.88" cy="-18" rx="40.09" ry="18"/>
<text text-anchor="middle" x="574.88" y="-12.95" font-family="Times,serif" font-size="14.00">idSpill1</text>
</g>
<!-- idCar1&#45;&gt;idSpill1 -->
<g id="edge5" class="edge">
<title>idCar1&#45;&gt;idSpill1</title>
<path fill="none" stroke="black" d="M1089.67,-105.18C1019.09,-103.92 858.43,-98 726.63,-70.5 687.16,-62.27 643.75,-46.85 613.51,-35.02"/>
<polygon fill="black" stroke="black" points="614.97,-31.44 604.39,-31.01 612.39,-37.95 614.97,-31.44"/>
<text text-anchor="middle" x="744.5" y="-57.2" font-family="Times,serif" font-size="14.00">isNear</text>
</g>
<!-- idTheCar1 -->
<g id="node7" class="node">
<title>idTheCar1</title>
<ellipse fill="none" stroke="black" cx="682.88" cy="-18" rx="50.33" ry="18"/>
<text text-anchor="middle" x="682.88" y="-12.95" font-family="Times,serif" font-size="14.00">idTheCar1</text>
</g>
<!-- idCar1&#45;&gt;idTheCar1 -->
<g id="edge6" class="edge">
<title>idCar1&#45;&gt;idTheCar1</title>
<path fill="none" stroke="black" d="M1089.89,-104.3C1031.99,-101.72 914.89,-93.85 818.63,-70.5 785.54,-62.47 749.58,-48.58 722.99,-37.24"/>
<polygon fill="black" stroke="black" points="724.49,-33.65 713.92,-32.89 721.71,-40.07 724.49,-33.65"/>
<text text-anchor="middle" x="847" y="-57.2" font-family="Times,serif" font-size="14.00">isInsideOf</text>
</g>
<!-- idPlayer -->
<g id="node8" class="node">
<title>idPlayer</title>
<ellipse fill="none" stroke="black" cx="792.88" cy="-18" rx="41.63" ry="18"/>
<text text-anchor="middle" x="792.88" y="-12.95" font-family="Times,serif" font-size="14.00">idPlayer</text>
</g>
<!-- idCar1&#45;&gt;idPlayer -->
<g id="edge7" class="edge">
<title>idCar1&#45;&gt;idPlayer</title>
<path fill="none" stroke="black" d="M1091.05,-101.39C1051.11,-96.22 983.88,-86.06 927.63,-70.5 894.39,-61.3 857.91,-47.1 831.31,-35.93"/>
<polygon fill="black" stroke="black" points="832.83,-32.36 822.26,-31.67 830.1,-38.8 832.83,-32.36"/>
<text text-anchor="middle" x="945.5" y="-57.2" font-family="Times,serif" font-size="14.00">isNear</text>
</g>
<!-- idArea1 -->
<g id="node9" class="node">
<title>idArea1</title>
<ellipse fill="none" stroke="black" cx="892.88" cy="-18" rx="40.6" ry="18"/>
<text text-anchor="middle" x="892.88" y="-12.95" font-family="Times,serif" font-size="14.00">idArea1</text>
</g>
<!-- idCar1&#45;&gt;idArea1 -->
<g id="edge9" class="edge">
<title>idCar1&#45;&gt;idArea1</title>
<path fill="none" stroke="black" d="M1093.71,-97.79C1068.74,-91.45 1033.43,-81.71 1003.38,-70.5 977.53,-60.85 949.36,-47.68 927.92,-37.07"/>
<polygon fill="black" stroke="black" points="929.8,-33.59 919.29,-32.24 926.66,-39.85 929.8,-33.59"/>
<text text-anchor="middle" x="1027.13" y="-57.2" font-family="Times,serif" font-size="14.00">isEastOf</text>
</g>
<!-- idBumper1 -->
<g id="node10" class="node">
<title>idBumper1</title>
<ellipse fill="none" stroke="black" cx="1003.88" cy="-18" rx="52.89" ry="18"/>
<text text-anchor="middle" x="1003.88" y="-12.95" font-family="Times,serif" font-size="14.00">idBumper1</text>
</g>
<!-- idCar1&#45;&gt;idBumper1 -->
<g id="edge10" class="edge">
<title>idCar1&#45;&gt;idBumper1</title>
<path fill="none" stroke="black" d="M1105.18,-91.28C1096.02,-84.96 1085.14,-77.39 1075.38,-70.5 1061.91,-60.98 1047.1,-50.34 1034.47,-41.22"/>
<polygon fill="black" stroke="black" points="1036.86,-37.91 1026.71,-34.88 1032.76,-43.58 1036.86,-37.91"/>
<text text-anchor="middle" x="1099.13" y="-57.2" font-family="Times,serif" font-size="14.00">isEastOf</text>
</g>
<!-- idCarKey1 -->
<g id="node11" class="node">
<title>idCarKey1</title>
<ellipse fill="none" stroke="black" cx="1125.88" cy="-18" rx="51.35" ry="18"/>
<text text-anchor="middle" x="1125.88" y="-12.95" font-family="Times,serif" font-size="14.00">idCarKey1</text>
</g>
<!-- idCar1&#45;&gt;idCarKey1 -->
<g id="edge11" class="edge">
<title>idCar1&#45;&gt;idCarKey1</title>
<path fill="none" stroke="black" d="M1125.88,-88.41C1125.88,-76.64 1125.88,-60.73 1125.88,-47.11"/>
<polygon fill="black" stroke="black" points="1129.38,-47.35 1125.88,-37.35 1122.38,-47.35 1129.38,-47.35"/>
<text text-anchor="middle" x="1149.13" y="-57.2" font-family="Times,serif" font-size="14.00">isEastOf</text>
</g>
<!-- idStump1 -->
<g id="node12" class="node">
<title>idStump1</title>
<ellipse fill="none" stroke="black" cx="1242.88" cy="-18" rx="47.26" ry="18"/>
<text text-anchor="middle" x="1242.88" y="-12.95" font-family="Times,serif" font-size="14.00">idStump1</text>
</g>
<!-- idCar1&#45;&gt;idStump1 -->
<g id="edge12" class="edge">
<title>idCar1&#45;&gt;idStump1</title>
<path fill="none" stroke="black" d="M1146.46,-91.4C1155.54,-85.1 1166.31,-77.52 1175.88,-70.5 1188.6,-61.16 1202.47,-50.58 1214.26,-41.44"/>
<polygon fill="black" stroke="black" points="1216.08,-43.69 1221.83,-34.79 1211.78,-38.16 1216.08,-43.69"/>
<text text-anchor="middle" x="1220.13" y="-57.2" font-family="Times,serif" font-size="14.00">isEastOf</text>
</g>
<!-- idDen1 -->
<g id="node13" class="node">
<title>idDen1</title>
<ellipse fill="none" stroke="black" cx="1345.88" cy="-18" rx="38.04" ry="18"/>
<text text-anchor="middle" x="1345.88" y="-12.95" font-family="Times,serif" font-size="14.00">idDen1</text>
</g>
<!-- idCar1&#45;&gt;idDen1 -->
<g id="edge13" class="edge">
<title>idCar1&#45;&gt;idDen1</title>
<path fill="none" stroke="black" d="M1158.05,-98.05C1182.77,-91.88 1217.54,-82.24 1246.88,-70.5 1269.86,-61.31 1294.55,-48.47 1313.53,-37.91"/>
<polygon fill="black" stroke="black" points="1314.9,-40.59 1321.89,-32.62 1311.46,-34.49 1314.9,-40.59"/>
<text text-anchor="middle" x="1304.13" y="-57.2" font-family="Times,serif" font-size="14.00">isEastOf</text>
</g>
<!-- idBear1 -->
<g id="node14" class="node">
<title>idBear1</title>
<ellipse fill="none" stroke="black" cx="1441.88" cy="-18" rx="40.09" ry="18"/>
<text text-anchor="middle" x="1441.88" y="-12.95" font-family="Times,serif" font-size="14.00">idBear1</text>
</g>
<!-- idCar1&#45;&gt;idBear1 -->
<g id="edge14" class="edge">
<title>idCar1&#45;&gt;idBear1</title>
<path fill="none" stroke="black" d="M1161.37,-102.33C1202.78,-97.97 1272.96,-88.53 1330.88,-70.5 1357.67,-62.16 1386.36,-48.72 1407.87,-37.66"/>
<polygon fill="black" stroke="black" points="1409.27,-40.35 1416.5,-32.61 1406.02,-34.15 1409.27,-40.35"/>
<text text-anchor="middle" x="1395.13" y="-57.2" font-family="Times,serif" font-size="14.00">isEastOf</text>
</g>
<!-- idTaillight1 -->
<g id="node15" class="node">
<title>idTaillight1</title>
<ellipse fill="none" stroke="black" cx="1554.88" cy="-18" rx="54.42" ry="18"/>
<text text-anchor="middle" x="1554.88" y="-12.95" font-family="Times,serif" font-size="14.00">idTaillight1</text>
</g>
<!-- idCar1&#45;&gt;idTaillight1 -->
<g id="edge15" class="edge">
<title>idCar1&#45;&gt;idTaillight1</title>
<path fill="none" stroke="black" d="M1161.94,-104.16C1218.21,-101.41 1329.98,-93.34 1421.88,-70.5 1453.91,-62.54 1488.65,-48.91 1514.59,-37.66"/>
<polygon fill="black" stroke="black" points="1515.68,-40.57 1523.42,-33.33 1512.86,-34.16 1515.68,-40.57"/>
<text text-anchor="middle" x="1494.13" y="-57.2" font-family="Times,serif" font-size="14.00">isEastOf</text>
</g>
<!-- idTire1 -->
<g id="node16" class="node">
<title>idTire1</title>
<ellipse fill="none" stroke="black" cx="1664.88" cy="-18" rx="38.04" ry="18"/>
<text text-anchor="middle" x="1664.88" y="-12.95" font-family="Times,serif" font-size="14.00">idTire1</text>
</g>
<!-- idCar1&#45;&gt;idTire1 -->
<g id="edge16" class="edge">
<title>idCar1&#45;&gt;idTire1</title>
<path fill="none" stroke="black" d="M1162.29,-105.34C1232.48,-104.35 1391.07,-98.85 1520.88,-70.5 1558.3,-62.33 1599.28,-47.01 1627.92,-35.19"/>
<polygon fill="black" stroke="black" points="1629.02,-38.11 1636.89,-31.02 1626.31,-31.65 1629.02,-38.11"/>
<text text-anchor="middle" x="1601.13" y="-57.2" font-family="Times,serif" font-size="14.00">isEastOf</text>
</g>
<!-- idClearing1 -->
<g id="node17" class="node">
<title>idClearing1</title>
<ellipse fill="none" stroke="black" cx="1774.88" cy="-18" rx="54.42" ry="18"/>
<text text-anchor="middle" x="1774.88" y="-12.95" font-family="Times,serif" font-size="14.00">idClearing1</text>
</g>
<!-- idCar1&#45;&gt;idClearing1 -->
<g id="edge17" class="edge">
<title>idCar1&#45;&gt;idClearing1</title>
<path fill="none" stroke="black" d="M1162.24,-106.26C1245.56,-107.3 1456.32,-105.87 1627.88,-70.5 1664.2,-63.01 1703.8,-48.76 1732.74,-37.15"/>
<polygon fill="black" stroke="black" points="1733.95,-40.03 1741.89,-33.01 1731.31,-33.55 1733.95,-40.03"/>
<text text-anchor="middle" x="1711.38" y="-57.2" font-family="Times,serif" font-size="14.00">isWestOf</text>
</g>
<!-- idBush1 -->
<g id="node18" class="node">
<title>idBush1</title>
<ellipse fill="none" stroke="black" cx="1888.88" cy="-18" rx="41.63" ry="18"/>
<text text-anchor="middle" x="1888.88" y="-12.95" font-family="Times,serif" font-size="14.00">idBush1</text>
</g>
<!-- idCar1&#45;&gt;idBush1 -->
<g id="edge18" class="edge">
<title>idCar1&#45;&gt;idBush1</title>
<path fill="none" stroke="black" d="M1161.84,-104.76C1275.95,-102.22 1628.9,-92.72 1740.88,-70.5 1779.19,-62.9 1821.08,-47.63 1850.48,-35.68"/>
<polygon fill="black" stroke="black" points="1851.43,-38.66 1859.34,-31.61 1848.76,-32.19 1851.43,-38.66"/>
<text text-anchor="middle" x="1825.38" y="-57.2" font-family="Times,serif" font-size="14.00">isWestOf</text>
</g>
<!-- idSideMirror1 -->
<g id="node19" class="node">
<title>idSideMirror1</title>
<ellipse fill="none" stroke="black" cx="2012.88" cy="-18" rx="64.15" ry="18"/>
<text text-anchor="middle" x="2012.88" y="-12.95" font-family="Times,serif" font-size="14.00">idSideMirror1</text>
</g>
<!-- idCar1&#45;&gt;idSideMirror1 -->
<g id="edge19" class="edge">
<title>idCar1&#45;&gt;idSideMirror1</title>
<path fill="none" stroke="black" d="M1162.07,-105.04C1289.88,-103.21 1719.66,-95.32 1854.88,-70.5 1893.89,-63.34 1936.56,-49.02 1967.71,-37.29"/>
<polygon fill="black" stroke="black" points="1968.72,-40.27 1976.81,-33.43 1966.22,-33.73 1968.72,-40.27"/>
<text text-anchor="middle" x="1942.38" y="-57.2" font-family="Times,serif" font-size="14.00">isWestOf</text>
</g>
<!-- idWhistle1 -->
<g id="node20" class="node">
<title>idWhistle1</title>
<ellipse fill="none" stroke="black" cx="2146.88" cy="-18" rx="51.86" ry="18"/>
<text text-anchor="middle" x="2146.88" y="-12.95" font-family="Times,serif" font-size="14.00">idWhistle1</text>
</g>
<!-- idCar1&#45;&gt;idWhistle1 -->
<g id="edge20" class="edge">
<title>idCar1&#45;&gt;idWhistle1</title>
<path fill="none" stroke="black" d="M1161.9,-105.18C1302.22,-103.76 1812.34,-96.86 1971.88,-70.5 2017.19,-63.01 2067.31,-47.49 2102.26,-35.43"/>
<polygon fill="black" stroke="black" points="2103.32,-38.42 2111.6,-31.81 2101,-31.81 2103.32,-38.42"/>
<text text-anchor="middle" x="2066.38" y="-57.2" font-family="Times,serif" font-size="14.00">isWestOf</text>
</g>
</g>
</svg>
