<?xml version="1.0" encoding="UTF-8" standalone="no"?>
<!DOCTYPE svg PUBLIC "-//W3C//DTD SVG 1.1//EN"
 "http://www.w3.org/Graphics/SVG/1.1/DTD/svg11.dtd">
<!-- Generated by graphviz version 8.1.0 (20230707.0739)
 -->
<!-- Pages: 1 -->
<svg width="2906pt" height="133pt"
 viewBox="0.00 0.00 2906.14 132.50" xmlns="http://www.w3.org/2000/svg" xmlns:xlink="http://www.w3.org/1999/xlink">
<g id="graph0" class="graph" transform="scale(1 1) rotate(0) translate(4 128.5)">
<polygon fill="white" stroke="none" points="-4,4 -4,-128.5 2902.14,-128.5 2902.14,4 -4,4"/>
<!-- idClearing1 -->
<g id="node1" class="node">
<title>idClearing1</title>
<ellipse fill="none" stroke="black" cx="1356.93" cy="-106.5" rx="54.42" ry="18"/>
<text text-anchor="middle" x="1356.93" y="-101.45" font-family="Times,serif" font-size="14.00">idClearing1</text>
</g>
<!-- idClearing1&#45;&gt;idClearing1 -->
<g id="edge7" class="edge">
<title>idClearing1&#45;&gt;idClearing1</title>
<path fill="none" stroke="black" d="M1406.01,-114.74C1419.26,-114.3 1429.35,-111.56 1429.35,-106.5 1429.35,-102.95 1424.36,-100.53 1416.79,-99.26"/>
<polygon fill="black" stroke="black" points="1417.29,-95.7 1407.01,-98.26 1416.64,-102.67 1417.29,-95.7"/>
<text text-anchor="middle" x="1446.97" y="-101.45" font-family="Times,serif" font-size="14.00">isNear</text>
</g>
<!-- bushy -->
<g id="node2" class="node">
<title>bushy</title>
<ellipse fill="none" stroke="black" cx="32.93" cy="-18" rx="32.93" ry="18"/>
<text text-anchor="middle" x="32.93" y="-12.95" font-family="Times,serif" font-size="14.00">bushy</text>
</g>
<!-- idClearing1&#45;&gt;bushy -->
<g id="edge1" class="edge">
<title>idClearing1&#45;&gt;bushy</title>
<path fill="none" stroke="black" d="M1302.37,-105.28C1080.61,-104.18 253.11,-98.27 139.43,-70.5 112.16,-63.84 83.66,-49.62 63.01,-37.8"/>
<polygon fill="black" stroke="black" points="64.94,-34.29 54.55,-32.24 61.4,-40.32 64.94,-34.29"/>
<text text-anchor="middle" x="224.68" y="-57.2" font-family="Times,serif" font-size="14.00">idClearing1_prop_idDescriptor</text>
</g>
<!-- idSideMirror1 -->
<g id="node3" class="node">
<title>idSideMirror1</title>
<ellipse fill="none" stroke="black" cx="192.93" cy="-18" rx="64.15" ry="18"/>
<text text-anchor="middle" x="192.93" y="-12.95" font-family="Times,serif" font-size="14.00">idSideMirror1</text>
</g>
<!-- idClearing1&#45;&gt;idSideMirror1 -->
<g id="edge2" class="edge">
<title>idClearing1&#45;&gt;idSideMirror1</title>
<path fill="none" stroke="black" d="M1302.29,-105.11C1125.01,-103.61 566.93,-96.84 388.68,-70.5 338.52,-63.09 282.73,-47.67 243.58,-35.63"/>
<polygon fill="black" stroke="black" points="244.84,-32.05 234.25,-32.41 242.75,-38.73 244.84,-32.05"/>
<text text-anchor="middle" x="406.55" y="-57.2" font-family="Times,serif" font-size="14.00">isNear</text>
</g>
<!-- idBush1 -->
<g id="node4" class="node">
<title>idBush1</title>
<ellipse fill="none" stroke="black" cx="316.93" cy="-18" rx="41.63" ry="18"/>
<text text-anchor="middle" x="316.93" y="-12.95" font-family="Times,serif" font-size="14.00">idBush1</text>
</g>
<!-- idClearing1&#45;&gt;idBush1 -->
<g id="edge3" class="edge">
<title>idClearing1&#45;&gt;idBush1</title>
<path fill="none" stroke="black" d="M1302.5,-104.84C1139.01,-102.62 653.87,-94.15 497.68,-70.5 448.64,-63.07 394.12,-46.31 357.9,-33.92"/>
<polygon fill="black" stroke="black" points="359.33,-30.36 348.74,-30.39 357.04,-36.97 359.33,-30.36"/>
<text text-anchor="middle" x="515.55" y="-57.2" font-family="Times,serif" font-size="14.00">isNear</text>
</g>
<!-- idTheCar1 -->
<g id="node5" class="node">
<title>idTheCar1</title>
<ellipse fill="none" stroke="black" cx="426.93" cy="-18" rx="50.33" ry="18"/>
<text text-anchor="middle" x="426.93" y="-12.95" font-family="Times,serif" font-size="14.00">idTheCar1</text>
</g>
<!-- idClearing1&#45;&gt;idTheCar1 -->
<g id="edge4" class="edge">
<title>idClearing1&#45;&gt;idTheCar1</title>
<path fill="none" stroke="black" d="M1302.54,-104.62C1153.35,-101.93 739.9,-92.65 605.68,-70.5 558.98,-62.8 507.18,-47.04 471.41,-34.97"/>
<polygon fill="black" stroke="black" points="472.9,-31.44 462.31,-31.52 470.64,-38.06 472.9,-31.44"/>
<text text-anchor="middle" x="634.05" y="-57.2" font-family="Times,serif" font-size="14.00">isInsideOf</text>
</g>
<!-- idWhistle1 -->
<g id="node6" class="node">
<title>idWhistle1</title>
<ellipse fill="none" stroke="black" cx="546.93" cy="-18" rx="51.86" ry="18"/>
<text text-anchor="middle" x="546.93" y="-12.95" font-family="Times,serif" font-size="14.00">idWhistle1</text>
</g>
<!-- idClearing1&#45;&gt;idWhistle1 -->
<g id="edge5" class="edge">
<title>idClearing1&#45;&gt;idWhistle1</title>
<path fill="none" stroke="black" d="M1302.23,-105.96C1194.34,-106.08 946.75,-102.47 741.68,-70.5 690.24,-62.48 632.78,-46.38 593.68,-34.3"/>
<polygon fill="black" stroke="black" points="595,-30.73 584.41,-31.09 592.91,-37.41 595,-30.73"/>
<text text-anchor="middle" x="759.55" y="-57.2" font-family="Times,serif" font-size="14.00">isNear</text>
</g>
<!-- idTheCarRoom1 -->
<g id="node7" class="node">
<title>idTheCarRoom1</title>
<ellipse fill="none" stroke="black" cx="689.93" cy="-18" rx="73.36" ry="18"/>
<text text-anchor="middle" x="689.93" y="-12.95" font-family="Times,serif" font-size="14.00">idTheCarRoom1</text>
</g>
<!-- idClearing1&#45;&gt;idTheCarRoom1 -->
<g id="edge6" class="edge">
<title>idClearing1&#45;&gt;idTheCarRoom1</title>
<path fill="none" stroke="black" d="M1303.05,-103.68C1188.92,-99.53 926.07,-88.32 838.43,-70.5 802.94,-63.28 764.34,-49.71 735.39,-38.31"/>
<polygon fill="black" stroke="black" points="736.77,-34.69 726.19,-34.22 734.17,-41.19 736.77,-34.69"/>
<text text-anchor="middle" x="862.18" y="-57.2" font-family="Times,serif" font-size="14.00">isEastOf</text>
</g>
<!-- idDen1 -->
<g id="node8" class="node">
<title>idDen1</title>
<ellipse fill="none" stroke="black" cx="818.93" cy="-18" rx="38.04" ry="18"/>
<text text-anchor="middle" x="818.93" y="-12.95" font-family="Times,serif" font-size="14.00">idDen1</text>
</g>
<!-- idClearing1&#45;&gt;idDen1 -->
<g id="edge8" class="edge">
<title>idClearing1&#45;&gt;idDen1</title>
<path fill="none" stroke="black" d="M1302.98,-103.29C1205.25,-98.91 1002.69,-88.01 934.43,-70.5 905.47,-63.07 874.65,-48.98 852.13,-37.41"/>
<polygon fill="black" stroke="black" points="853.89,-33.86 843.41,-32.31 850.63,-40.05 853.89,-33.86"/>
<text text-anchor="middle" x="958.18" y="-57.2" font-family="Times,serif" font-size="14.00">isEastOf</text>
</g>
<!-- idArea1 -->
<g id="node9" class="node">
<title>idArea1</title>
<ellipse fill="none" stroke="black" cx="915.93" cy="-18" rx="40.6" ry="18"/>
<text text-anchor="middle" x="915.93" y="-12.95" font-family="Times,serif" font-size="14.00">idArea1</text>
</g>
<!-- idClearing1&#45;&gt;idArea1 -->
<g id="edge9" class="edge">
<title>idClearing1&#45;&gt;idArea1</title>
<path fill="none" stroke="black" d="M1302.34,-104.95C1236.52,-103.1 1123.07,-96.04 1029.43,-70.5 1001.55,-62.9 971.87,-49.21 949.85,-37.86"/>
<polygon fill="black" stroke="black" points="951.79,-34.4 941.31,-32.84 948.53,-40.59 951.79,-34.4"/>
<text text-anchor="middle" x="1053.18" y="-57.2" font-family="Times,serif" font-size="14.00">isEastOf</text>
</g>
<!-- idPlayer -->
<g id="node10" class="node">
<title>idPlayer</title>
<ellipse fill="none" stroke="black" cx="1015.93" cy="-18" rx="41.63" ry="18"/>
<text text-anchor="middle" x="1015.93" y="-12.95" font-family="Times,serif" font-size="14.00">idPlayer</text>
</g>
<!-- idClearing1&#45;&gt;idPlayer -->
<g id="edge10" class="edge">
<title>idClearing1&#45;&gt;idPlayer</title>
<path fill="none" stroke="black" d="M1303.49,-102.66C1254.21,-98.88 1179.51,-90.2 1117.43,-70.5 1093.1,-62.78 1067.48,-49.74 1048.06,-38.71"/>
<polygon fill="black" stroke="black" points="1050.2,-35.32 1039.79,-33.33 1046.68,-41.38 1050.2,-35.32"/>
<text text-anchor="middle" x="1141.18" y="-57.2" font-family="Times,serif" font-size="14.00">isEastOf</text>
</g>
<!-- idCar1 -->
<g id="node11" class="node">
<title>idCar1</title>
<ellipse fill="none" stroke="black" cx="1111.93" cy="-18" rx="36" ry="18"/>
<text text-anchor="middle" x="1111.93" y="-12.95" font-family="Times,serif" font-size="14.00">idCar1</text>
</g>
<!-- idClearing1&#45;&gt;idCar1 -->
<g id="edge11" class="edge">
<title>idClearing1&#45;&gt;idCar1</title>
<path fill="none" stroke="black" d="M1307.49,-98.44C1276.1,-93 1235.03,-84.06 1200.43,-70.5 1179.48,-62.29 1157.61,-49.61 1140.86,-38.89"/>
<polygon fill="black" stroke="black" points="1143.4,-35.71 1133.11,-33.17 1139.57,-41.57 1143.4,-35.71"/>
<text text-anchor="middle" x="1224.18" y="-57.2" font-family="Times,serif" font-size="14.00">isEastOf</text>
</g>
<!-- idBear1 -->
<g id="node12" class="node">
<title>idBear1</title>
<ellipse fill="none" stroke="black" cx="1205.93" cy="-18" rx="40.09" ry="18"/>
<text text-anchor="middle" x="1205.93" y="-12.95" font-family="Times,serif" font-size="14.00">idBear1</text>
</g>
<!-- idClearing1&#45;&gt;idBear1 -->
<g id="edge12" class="edge">
<title>idClearing1&#45;&gt;idBear1</title>
<path fill="none" stroke="black" d="M1321.09,-92.51C1306.26,-86.57 1289.12,-78.97 1274.43,-70.5 1259.8,-62.07 1244.68,-50.99 1232.38,-41.28"/>
<polygon fill="black" stroke="black" points="1234.96,-38.05 1224.97,-34.5 1230.56,-43.5 1234.96,-38.05"/>
<text text-anchor="middle" x="1298.18" y="-57.2" font-family="Times,serif" font-size="14.00">isEastOf</text>
</g>
<!-- idTire1 -->
<g id="node13" class="node">
<title>idTire1</title>
<ellipse fill="none" stroke="black" cx="1301.93" cy="-18" rx="38.04" ry="18"/>
<text text-anchor="middle" x="1301.93" y="-12.95" font-family="Times,serif" font-size="14.00">idTire1</text>
</g>
<!-- idClearing1&#45;&gt;idTire1 -->
<g id="edge13" class="edge">
<title>idClearing1&#45;&gt;idTire1</title>
<path fill="none" stroke="black" d="M1346.06,-88.41C1338.17,-76.01 1327.37,-59.01 1318.42,-44.94"/>
<polygon fill="black" stroke="black" points="1320.9,-43.32 1312.58,-36.76 1314.99,-47.08 1320.9,-43.32"/>
<text text-anchor="middle" x="1358.18" y="-57.2" font-family="Times,serif" font-size="14.00">isEastOf</text>
</g>
<!-- idTaillight1 -->
<g id="node14" class="node">
<title>idTaillight1</title>
<ellipse fill="none" stroke="black" cx="1411.93" cy="-18" rx="54.42" ry="18"/>
<text text-anchor="middle" x="1411.93" y="-12.95" font-family="Times,serif" font-size="14.00">idTaillight1</text>
</g>
<!-- idClearing1&#45;&gt;idTaillight1 -->
<g id="edge14" class="edge">
<title>idClearing1&#45;&gt;idTaillight1</title>
<path fill="none" stroke="black" d="M1371.28,-88.9C1375.88,-83.24 1380.84,-76.75 1384.93,-70.5 1389.97,-62.78 1394.86,-54 1399.05,-45.91"/>
<polygon fill="black" stroke="black" points="1402.59,-47.67 1403.96,-37.16 1396.34,-44.52 1402.59,-47.67"/>
<text text-anchor="middle" x="1418.18" y="-57.2" font-family="Times,serif" font-size="14.00">isEastOf</text>
</g>
<!-- idStump1 -->
<g id="node15" class="node">
<title>idStump1</title>
<ellipse fill="none" stroke="black" cx="1531.93" cy="-18" rx="47.26" ry="18"/>
<text text-anchor="middle" x="1531.93" y="-12.95" font-family="Times,serif" font-size="14.00">idStump1</text>
</g>
<!-- idClearing1&#45;&gt;idStump1 -->
<g id="edge15" class="edge">
<title>idClearing1&#45;&gt;idStump1</title>
<path fill="none" stroke="black" d="M1393.01,-92.6C1409.15,-86.47 1428.25,-78.69 1444.93,-70.5 1463.63,-61.32 1483.69,-49.58 1499.83,-39.63"/>
<polygon fill="black" stroke="black" points="1501.21,-42.27 1507.84,-34.01 1497.51,-36.33 1501.21,-42.27"/>
<text text-anchor="middle" x="1498.18" y="-57.2" font-family="Times,serif" font-size="14.00">isEastOf</text>
</g>
<!-- idCarKey1 -->
<g id="node16" class="node">
<title>idCarKey1</title>
<ellipse fill="none" stroke="black" cx="1648.93" cy="-18" rx="51.35" ry="18"/>
<text text-anchor="middle" x="1648.93" y="-12.95" font-family="Times,serif" font-size="14.00">idCarKey1</text>
</g>
<!-- idClearing1&#45;&gt;idCarKey1 -->
<g id="edge16" class="edge">
<title>idClearing1&#45;&gt;idCarKey1</title>
<path fill="none" stroke="black" d="M1405.33,-97.91C1439.23,-91.99 1485.36,-82.72 1524.93,-70.5 1553.96,-61.53 1585.59,-48.34 1609.63,-37.56"/>
<polygon fill="black" stroke="black" points="1610.78,-40.42 1618.44,-33.1 1607.89,-34.05 1610.78,-40.42"/>
<text text-anchor="middle" x="1594.18" y="-57.2" font-family="Times,serif" font-size="14.00">isEastOf</text>
</g>
<!-- idBumper1 -->
<g id="node17" class="node">
<title>idBumper1</title>
<ellipse fill="none" stroke="black" cx="1770.93" cy="-18" rx="52.89" ry="18"/>
<text text-anchor="middle" x="1770.93" y="-12.95" font-family="Times,serif" font-size="14.00">idBumper1</text>
</g>
<!-- idClearing1&#45;&gt;idBumper1 -->
<g id="edge17" class="edge">
<title>idClearing1&#45;&gt;idBumper1</title>
<path fill="none" stroke="black" d="M1409.83,-101.6C1463.53,-96.92 1548.81,-87.48 1620.93,-70.5 1657.73,-61.83 1698.2,-47.65 1727.83,-36.36"/>
<polygon fill="black" stroke="black" points="1728.76,-39.36 1736.83,-32.5 1726.24,-32.83 1728.76,-39.36"/>
<text text-anchor="middle" x="1699.18" y="-57.2" font-family="Times,serif" font-size="14.00">isEastOf</text>
</g>
<!-- idCrowbar1 -->
<g id="node18" class="node">
<title>idCrowbar1</title>
<ellipse fill="none" stroke="black" cx="1896.93" cy="-18" rx="54.93" ry="18"/>
<text text-anchor="middle" x="1896.93" y="-12.95" font-family="Times,serif" font-size="14.00">idCrowbar1</text>
</g>
<!-- idClearing1&#45;&gt;idCrowbar1 -->
<g id="edge18" class="edge">
<title>idClearing1&#45;&gt;idCrowbar1</title>
<path fill="none" stroke="black" d="M1411.18,-103.71C1483.56,-100.56 1615.42,-92.16 1725.93,-70.5 1769.08,-62.04 1816.9,-47.15 1850.98,-35.55"/>
<polygon fill="black" stroke="black" points="1851.78,-38.63 1860.09,-32.06 1849.49,-32.01 1851.78,-38.63"/>
<text text-anchor="middle" x="1816.18" y="-57.2" font-family="Times,serif" font-size="14.00">isEastOf</text>
</g>
<!-- idLock1 -->
<g id="node19" class="node">
<title>idLock1</title>
<ellipse fill="none" stroke="black" cx="2011.93" cy="-18" rx="41.63" ry="18"/>
<text text-anchor="middle" x="2011.93" y="-12.95" font-family="Times,serif" font-size="14.00">idLock1</text>
</g>
<!-- idClearing1&#45;&gt;idLock1 -->
<g id="edge19" class="edge">
<title>idClearing1&#45;&gt;idLock1</title>
<path fill="none" stroke="black" d="M1411.7,-105.33C1502.19,-104.21 1688.28,-98.35 1842.93,-70.5 1887.93,-62.4 1937.83,-46.27 1971.66,-34.21"/>
<polygon fill="black" stroke="black" points="1972.41,-37.3 1980.62,-30.61 1970.03,-30.71 1972.41,-37.3"/>
<text text-anchor="middle" x="1932.18" y="-57.2" font-family="Times,serif" font-size="14.00">isEastOf</text>
</g>
<!-- idPlayerBackside -->
<g id="node20" class="node">
<title>idPlayerBackside</title>
<ellipse fill="none" stroke="black" cx="2146.93" cy="-18" rx="75.41" ry="18"/>
<text text-anchor="middle" x="2146.93" y="-12.95" font-family="Times,serif" font-size="14.00">idPlayerBackside</text>
</g>
<!-- idClearing1&#45;&gt;idPlayerBackside -->
<g id="edge20" class="edge">
<title>idClearing1&#45;&gt;idPlayerBackside</title>
<path fill="none" stroke="black" d="M1411.72,-106.13C1518.01,-106.51 1759.28,-103.28 1958.93,-70.5 2005.48,-62.86 2057.07,-48.27 2094.42,-36.56"/>
<polygon fill="black" stroke="black" points="2095.08,-39.71 2103.56,-33.35 2092.97,-33.04 2095.08,-39.71"/>
<text text-anchor="middle" x="2056.18" y="-57.2" font-family="Times,serif" font-size="14.00">isEastOf</text>
</g>
<!-- idPlayerLeftHand -->
<g id="node21" class="node">
<title>idPlayerLeftHand</title>
<ellipse fill="none" stroke="black" cx="2316.93" cy="-18" rx="76.94" ry="18"/>
<text text-anchor="middle" x="2316.93" y="-12.95" font-family="Times,serif" font-size="14.00">idPlayerLeftHand</text>
</g>
<!-- idClearing1&#45;&gt;idPlayerLeftHand -->
<g id="edge21" class="edge">
<title>idClearing1&#45;&gt;idPlayerLeftHand</title>
<path fill="none" stroke="black" d="M1411.4,-106C1532.63,-106.42 1833.7,-103.69 2082.93,-70.5 2142.98,-62.5 2210.45,-46.93 2257.45,-35"/>
<polygon fill="black" stroke="black" points="2258.23,-38.15 2267.05,-32.28 2256.5,-31.37 2258.23,-38.15"/>
<text text-anchor="middle" x="2197.18" y="-57.2" font-family="Times,serif" font-size="14.00">isEastOf</text>
</g>
<!-- idPlayerRightHand -->
<g id="node22" class="node">
<title>idPlayerRightHand</title>
<ellipse fill="none" stroke="black" cx="2493.93" cy="-18" rx="82.06" ry="18"/>
<text text-anchor="middle" x="2493.93" y="-12.95" font-family="Times,serif" font-size="14.00">idPlayerRightHand</text>
</g>
<!-- idClearing1&#45;&gt;idPlayerRightHand -->
<g id="edge22" class="edge">
<title>idClearing1&#45;&gt;idPlayerRightHand</title>
<path fill="none" stroke="black" d="M1411.67,-106.1C1548.89,-106.98 1918.44,-105.61 2223.93,-70.5 2294.59,-62.38 2374.51,-46.25 2428.94,-34.2"/>
<polygon fill="black" stroke="black" points="2429.48,-37.44 2438.48,-31.85 2427.95,-30.61 2429.48,-37.44"/>
<text text-anchor="middle" x="2352.18" y="-57.2" font-family="Times,serif" font-size="14.00">isEastOf</text>
</g>
<!-- idSmoke1 -->
<g id="node23" class="node">
<title>idSmoke1</title>
<ellipse fill="none" stroke="black" cx="2642.93" cy="-18" rx="48.79" ry="18"/>
<text text-anchor="middle" x="2642.93" y="-12.95" font-family="Times,serif" font-size="14.00">idSmoke1</text>
</g>
<!-- idClearing1&#45;&gt;idSmoke1 -->
<g id="edge23" class="edge">
<title>idClearing1&#45;&gt;idSmoke1</title>
<path fill="none" stroke="black" d="M1411.28,-104.58C1594.49,-101.35 2188.59,-89.61 2378.93,-70.5 2471.29,-61.22 2494.45,-56.76 2584.93,-36 2588.57,-35.17 2592.31,-34.23 2596.07,-33.25"/>
<polygon fill="black" stroke="black" points="2596.87,-36.39 2605.59,-30.37 2595.02,-29.63 2596.87,-36.39"/>
<text text-anchor="middle" x="2524.18" y="-57.2" font-family="Times,serif" font-size="14.00">isEastOf</text>
</g>
<!-- idSpill1 -->
<g id="node24" class="node">
<title>idSpill1</title>
<ellipse fill="none" stroke="black" cx="2749.93" cy="-18" rx="40.09" ry="18"/>
<text text-anchor="middle" x="2749.93" y="-12.95" font-family="Times,serif" font-size="14.00">idSpill1</text>
</g>
<!-- idClearing1&#45;&gt;idSpill1 -->
<g id="edge24" class="edge">
<title>idClearing1&#45;&gt;idSpill1</title>
<path fill="none" stroke="black" d="M1411.47,-105.33C1614.46,-104.46 2326.08,-99.37 2550.93,-70.5 2618.78,-61.79 2635.18,-54.91 2700.93,-36 2703.67,-35.21 2706.49,-34.36 2709.32,-33.46"/>
<polygon fill="black" stroke="black" points="2710.1,-36.56 2718.51,-30.12 2707.91,-29.91 2710.1,-36.56"/>
<text text-anchor="middle" x="2660.18" y="-57.2" font-family="Times,serif" font-size="14.00">isEastOf</text>
</g>
<!-- idTrunk1 -->
<g id="node25" class="node">
<title>idTrunk1</title>
<ellipse fill="none" stroke="black" cx="2852.93" cy="-18" rx="45.21" ry="18"/>
<text text-anchor="middle" x="2852.93" y="-12.95" font-family="Times,serif" font-size="14.00">idTrunk1</text>
</g>
<!-- idClearing1&#45;&gt;idTrunk1 -->
<g id="edge25" class="edge">
<title>idClearing1&#45;&gt;idTrunk1</title>
<path fill="none" stroke="black" d="M1411.59,-104.94C1645.98,-102.42 2559.92,-91.33 2686.93,-70.5 2730.59,-63.34 2778.69,-47.49 2811.83,-35.25"/>
<polygon fill="black" stroke="black" points="2812.9,-38.21 2821.03,-31.42 2810.44,-31.65 2812.9,-38.21"/>
<text text-anchor="middle" x="2775.18" y="-57.2" font-family="Times,serif" font-size="14.00">isEastOf</text>
</g>
</g>
</svg>
