<?xml version="1.0" encoding="UTF-8" standalone="no"?>
<!DOCTYPE svg PUBLIC "-//W3C//DTD SVG 1.1//EN"
 "http://www.w3.org/Graphics/SVG/1.1/DTD/svg11.dtd">
<!-- Generated by graphviz version 8.1.0 (20230707.0739)
 -->
<!-- Pages: 1 -->
<svg width="2064pt" height="133pt"
 viewBox="0.00 0.00 2063.74 132.50" xmlns="http://www.w3.org/2000/svg" xmlns:xlink="http://www.w3.org/1999/xlink">
<g id="graph0" class="graph" transform="scale(1 1) rotate(0) translate(4 128.5)">
<polygon fill="white" stroke="none" points="-4,4 -4,-128.5 2059.74,-128.5 2059.74,4 -4,4"/>
<!-- idCrowbar1 -->
<g id="node1" class="node">
<title>idCrowbar1</title>
<ellipse fill="none" stroke="black" cx="1099.88" cy="-106.5" rx="54.93" ry="18"/>
<text text-anchor="middle" x="1099.88" y="-101.45" font-family="Times,serif" font-size="14.00">idCrowbar1</text>
</g>
<!-- idCrowbar1&#45;&gt;idCrowbar1 -->
<g id="edge6" class="edge">
<title>idCrowbar1&#45;&gt;idCrowbar1</title>
<path fill="none" stroke="black" d="M1149.31,-114.74C1162.66,-114.3 1172.81,-111.56 1172.81,-106.5 1172.81,-102.95 1167.79,-100.53 1160.17,-99.26"/>
<polygon fill="black" stroke="black" points="1160.59,-95.69 1150.31,-98.26 1159.94,-102.66 1160.59,-95.69"/>
<text text-anchor="middle" x="1190.44" y="-101.45" font-family="Times,serif" font-size="14.00">isNear</text>
</g>
<!-- black -->
<g id="node2" class="node">
<title>black</title>
<ellipse fill="none" stroke="black" cx="30.88" cy="-18" rx="30.88" ry="18"/>
<text text-anchor="middle" x="30.88" y="-12.95" font-family="Times,serif" font-size="14.00">black</text>
</g>
<!-- idCrowbar1&#45;&gt;black -->
<g id="edge1" class="edge">
<title>idCrowbar1&#45;&gt;black</title>
<path fill="none" stroke="black" d="M1044.94,-105.18C835.92,-103.76 99.94,-96.91 57.88,-70.5 49.12,-65 43.05,-55.65 38.91,-46.42"/>
<polygon fill="black" stroke="black" points="41.87,-45.35 35.03,-37.26 35.33,-47.85 41.87,-45.35"/>
<text text-anchor="middle" x="129.88" y="-57.2" font-family="Times,serif" font-size="14.00">idCrowbar1_prop_idColor</text>
</g>
<!-- cool -->
<g id="node3" class="node">
<title>cool</title>
<ellipse fill="none" stroke="black" cx="197.88" cy="-18" rx="27" ry="18"/>
<text text-anchor="middle" x="197.88" y="-12.95" font-family="Times,serif" font-size="14.00">cool</text>
</g>
<!-- idCrowbar1&#45;&gt;cool -->
<g id="edge2" class="edge">
<title>idCrowbar1&#45;&gt;cool</title>
<path fill="none" stroke="black" d="M1044.78,-104.97C856.93,-102.96 251.28,-94.63 217.63,-70.5 209.88,-64.95 205.18,-55.93 202.31,-46.97"/>
<polygon fill="black" stroke="black" points="205.47,-46.18 199.66,-37.33 198.68,-47.88 205.47,-46.18"/>
<text text-anchor="middle" x="303" y="-57.2" font-family="Times,serif" font-size="14.00">idCrowbar1_prop_idDescriptor</text>
</g>
<!-- true -->
<g id="node4" class="node">
<title>true</title>
<ellipse fill="none" stroke="black" cx="390.88" cy="-18" rx="27" ry="18"/>
<text text-anchor="middle" x="390.88" y="-12.95" font-family="Times,serif" font-size="14.00">true</text>
</g>
<!-- idCrowbar1&#45;&gt;true -->
<g id="edge3" class="edge">
<title>idCrowbar1&#45;&gt;true</title>
<path fill="none" stroke="black" d="M1044.97,-104.57C884.43,-101.61 425.67,-91.37 401.38,-70.5 394.57,-64.65 391.44,-55.68 390.17,-46.86"/>
<polygon fill="black" stroke="black" points="393.6,-46.75 389.42,-37.01 386.62,-47.23 393.6,-46.75"/>
<text text-anchor="middle" x="503.13" y="-57.2" font-family="Times,serif" font-size="14.00">idCrowbar1_prop_idUnknownObject</text>
</g>
<!-- idTrunk1 -->
<g id="node5" class="node">
<title>idTrunk1</title>
<ellipse fill="none" stroke="black" cx="480.88" cy="-18" rx="45.21" ry="18"/>
<text text-anchor="middle" x="480.88" y="-12.95" font-family="Times,serif" font-size="14.00">idTrunk1</text>
</g>
<!-- idCrowbar1&#45;&gt;idTrunk1 -->
<g id="edge4" class="edge">
<title>idCrowbar1&#45;&gt;idTrunk1</title>
<path fill="none" stroke="black" d="M1045.68,-102.99C967.86,-98.89 820.14,-89.26 695.63,-70.5 623.8,-59.68 606.14,-54.41 535.88,-36 532.5,-35.11 529.01,-34.15 525.51,-33.15"/>
<polygon fill="black" stroke="black" points="526.66,-29.55 516.07,-30.07 524.68,-36.26 526.66,-29.55"/>
<text text-anchor="middle" x="713.5" y="-57.2" font-family="Times,serif" font-size="14.00">isNear</text>
</g>
<!-- idTheCarRoom1 -->
<g id="node6" class="node">
<title>idTheCarRoom1</title>
<ellipse fill="none" stroke="black" cx="617.88" cy="-18" rx="73.36" ry="18"/>
<text text-anchor="middle" x="617.88" y="-12.95" font-family="Times,serif" font-size="14.00">idTheCarRoom1</text>
</g>
<!-- idCrowbar1&#45;&gt;idTheCarRoom1 -->
<g id="edge5" class="edge">
<title>idCrowbar1&#45;&gt;idTheCarRoom1</title>
<path fill="none" stroke="black" d="M1046.33,-101.86C985.96,-97.15 885.08,-87.47 799.63,-70.5 755.57,-61.75 706.62,-47.62 670.63,-36.37"/>
<polygon fill="black" stroke="black" points="671.96,-32.8 661.37,-33.13 669.86,-39.48 671.96,-32.8"/>
<text text-anchor="middle" x="817.5" y="-57.2" font-family="Times,serif" font-size="14.00">isNear</text>
</g>
<!-- idArea1 -->
<g id="node7" class="node">
<title>idArea1</title>
<ellipse fill="none" stroke="black" cx="749.88" cy="-18" rx="40.6" ry="18"/>
<text text-anchor="middle" x="749.88" y="-12.95" font-family="Times,serif" font-size="14.00">idArea1</text>
</g>
<!-- idCrowbar1&#45;&gt;idArea1 -->
<g id="edge7" class="edge">
<title>idCrowbar1&#45;&gt;idArea1</title>
<path fill="none" stroke="black" d="M1048.69,-99.74C1005.71,-94.25 942.91,-84.7 889.38,-70.5 854.42,-61.23 815.94,-46.68 788.27,-35.41"/>
<polygon fill="black" stroke="black" points="789.8,-31.84 779.22,-31.27 787.13,-38.31 789.8,-31.84"/>
<text text-anchor="middle" x="913.13" y="-57.2" font-family="Times,serif" font-size="14.00">isEastOf</text>
</g>
<!-- idBumper1 -->
<g id="node8" class="node">
<title>idBumper1</title>
<ellipse fill="none" stroke="black" cx="860.88" cy="-18" rx="52.89" ry="18"/>
<text text-anchor="middle" x="860.88" y="-12.95" font-family="Times,serif" font-size="14.00">idBumper1</text>
</g>
<!-- idCrowbar1&#45;&gt;idBumper1 -->
<g id="edge8" class="edge">
<title>idCrowbar1&#45;&gt;idBumper1</title>
<path fill="none" stroke="black" d="M1057.63,-94.65C1034.32,-88.3 1004.99,-79.74 979.38,-70.5 952.66,-60.86 923.39,-48.16 900.62,-37.78"/>
<polygon fill="black" stroke="black" points="902.2,-34.19 891.65,-33.2 899.27,-40.55 902.2,-34.19"/>
<text text-anchor="middle" x="1003.13" y="-57.2" font-family="Times,serif" font-size="14.00">isEastOf</text>
</g>
<!-- idCarKey1 -->
<g id="node9" class="node">
<title>idCarKey1</title>
<ellipse fill="none" stroke="black" cx="982.88" cy="-18" rx="51.35" ry="18"/>
<text text-anchor="middle" x="982.88" y="-12.95" font-family="Times,serif" font-size="14.00">idCarKey1</text>
</g>
<!-- idCrowbar1&#45;&gt;idCarKey1 -->
<g id="edge9" class="edge">
<title>idCrowbar1&#45;&gt;idCarKey1</title>
<path fill="none" stroke="black" d="M1076.57,-89.72C1067.95,-83.8 1058.15,-76.93 1049.38,-70.5 1036.71,-61.21 1022.94,-50.64 1011.24,-41.5"/>
<polygon fill="black" stroke="black" points="1013.78,-38.25 1003.75,-34.83 1009.45,-43.76 1013.78,-38.25"/>
<text text-anchor="middle" x="1073.13" y="-57.2" font-family="Times,serif" font-size="14.00">isEastOf</text>
</g>
<!-- idStump1 -->
<g id="node10" class="node">
<title>idStump1</title>
<ellipse fill="none" stroke="black" cx="1099.88" cy="-18" rx="47.26" ry="18"/>
<text text-anchor="middle" x="1099.88" y="-12.95" font-family="Times,serif" font-size="14.00">idStump1</text>
</g>
<!-- idCrowbar1&#45;&gt;idStump1 -->
<g id="edge10" class="edge">
<title>idCrowbar1&#45;&gt;idStump1</title>
<path fill="none" stroke="black" d="M1099.88,-88.41C1099.88,-76.64 1099.88,-60.73 1099.88,-47.11"/>
<polygon fill="black" stroke="black" points="1103.38,-47.35 1099.88,-37.35 1096.38,-47.35 1103.38,-47.35"/>
<text text-anchor="middle" x="1123.13" y="-57.2" font-family="Times,serif" font-size="14.00">isEastOf</text>
</g>
<!-- idDen1 -->
<g id="node11" class="node">
<title>idDen1</title>
<ellipse fill="none" stroke="black" cx="1202.88" cy="-18" rx="38.04" ry="18"/>
<text text-anchor="middle" x="1202.88" y="-12.95" font-family="Times,serif" font-size="14.00">idDen1</text>
</g>
<!-- idCrowbar1&#45;&gt;idDen1 -->
<g id="edge11" class="edge">
<title>idCrowbar1&#45;&gt;idDen1</title>
<path fill="none" stroke="black" d="M1123.85,-89.87C1132.3,-84.07 1141.71,-77.25 1149.88,-70.5 1160.28,-61.9 1171.08,-51.67 1180.2,-42.61"/>
<polygon fill="black" stroke="black" points="1182.17,-45.58 1186.72,-36.01 1177.2,-40.65 1182.17,-45.58"/>
<text text-anchor="middle" x="1192.13" y="-57.2" font-family="Times,serif" font-size="14.00">isEastOf</text>
</g>
<!-- idBear1 -->
<g id="node12" class="node">
<title>idBear1</title>
<ellipse fill="none" stroke="black" cx="1298.88" cy="-18" rx="40.09" ry="18"/>
<text text-anchor="middle" x="1298.88" y="-12.95" font-family="Times,serif" font-size="14.00">idBear1</text>
</g>
<!-- idCrowbar1&#45;&gt;idBear1 -->
<g id="edge12" class="edge">
<title>idCrowbar1&#45;&gt;idBear1</title>
<path fill="none" stroke="black" d="M1144.49,-95.61C1167.3,-89.75 1195.18,-81.34 1218.88,-70.5 1236.92,-62.25 1255.63,-50.41 1270.42,-40.16"/>
<polygon fill="black" stroke="black" points="1271.94,-42.66 1278.09,-34.03 1267.9,-36.95 1271.94,-42.66"/>
<text text-anchor="middle" x="1272.13" y="-57.2" font-family="Times,serif" font-size="14.00">isEastOf</text>
</g>
<!-- idTaillight1 -->
<g id="node13" class="node">
<title>idTaillight1</title>
<ellipse fill="none" stroke="black" cx="1411.88" cy="-18" rx="54.42" ry="18"/>
<text text-anchor="middle" x="1411.88" y="-12.95" font-family="Times,serif" font-size="14.00">idTaillight1</text>
</g>
<!-- idCrowbar1&#45;&gt;idTaillight1 -->
<g id="edge13" class="edge">
<title>idCrowbar1&#45;&gt;idTaillight1</title>
<path fill="none" stroke="black" d="M1151.44,-100.07C1192.12,-94.93 1249.96,-85.68 1298.88,-70.5 1325.01,-62.39 1353,-49.67 1374.59,-38.9"/>
<polygon fill="black" stroke="black" points="1376,-41.6 1383.33,-33.95 1372.83,-35.36 1376,-41.6"/>
<text text-anchor="middle" x="1364.13" y="-57.2" font-family="Times,serif" font-size="14.00">isEastOf</text>
</g>
<!-- idTire1 -->
<g id="node14" class="node">
<title>idTire1</title>
<ellipse fill="none" stroke="black" cx="1521.88" cy="-18" rx="38.04" ry="18"/>
<text text-anchor="middle" x="1521.88" y="-12.95" font-family="Times,serif" font-size="14.00">idTire1</text>
</g>
<!-- idCrowbar1&#45;&gt;idTire1 -->
<g id="edge14" class="edge">
<title>idCrowbar1&#45;&gt;idTire1</title>
<path fill="none" stroke="black" d="M1154.26,-103.1C1213.29,-99.54 1309.96,-90.91 1390.88,-70.5 1424.14,-62.11 1460.31,-47.44 1486.2,-35.89"/>
<polygon fill="black" stroke="black" points="1487.27,-38.8 1494.94,-31.48 1484.38,-32.42 1487.27,-38.8"/>
<text text-anchor="middle" x="1462.13" y="-57.2" font-family="Times,serif" font-size="14.00">isEastOf</text>
</g>
<!-- idClearing1 -->
<g id="node15" class="node">
<title>idClearing1</title>
<ellipse fill="none" stroke="black" cx="1631.88" cy="-18" rx="54.42" ry="18"/>
<text text-anchor="middle" x="1631.88" y="-12.95" font-family="Times,serif" font-size="14.00">idClearing1</text>
</g>
<!-- idCrowbar1&#45;&gt;idClearing1 -->
<g id="edge15" class="edge">
<title>idCrowbar1&#45;&gt;idClearing1</title>
<path fill="none" stroke="black" d="M1154.99,-104.96C1230.99,-103.21 1371.86,-96.39 1488.88,-70.5 1523.99,-62.73 1562.24,-48.64 1590.34,-37.16"/>
<polygon fill="black" stroke="black" points="1591.31,-40.13 1599.2,-33.07 1588.63,-33.67 1591.31,-40.13"/>
<text text-anchor="middle" x="1571.38" y="-57.2" font-family="Times,serif" font-size="14.00">isWestOf</text>
</g>
<!-- idBush1 -->
<g id="node16" class="node">
<title>idBush1</title>
<ellipse fill="none" stroke="black" cx="1745.88" cy="-18" rx="41.63" ry="18"/>
<text text-anchor="middle" x="1745.88" y="-12.95" font-family="Times,serif" font-size="14.00">idBush1</text>
</g>
<!-- idCrowbar1&#45;&gt;idBush1 -->
<g id="edge16" class="edge">
<title>idCrowbar1&#45;&gt;idBush1</title>
<path fill="none" stroke="black" d="M1154.47,-103.56C1266.08,-99.28 1516.91,-88 1600.88,-70.5 1638.15,-62.73 1678.85,-47.65 1707.62,-35.81"/>
<polygon fill="black" stroke="black" points="1708.78,-38.7 1716.65,-31.62 1706.08,-32.25 1708.78,-38.7"/>
<text text-anchor="middle" x="1683.38" y="-57.2" font-family="Times,serif" font-size="14.00">isWestOf</text>
</g>
<!-- idSideMirror1 -->
<g id="node17" class="node">
<title>idSideMirror1</title>
<ellipse fill="none" stroke="black" cx="1869.88" cy="-18" rx="64.15" ry="18"/>
<text text-anchor="middle" x="1869.88" y="-12.95" font-family="Times,serif" font-size="14.00">idSideMirror1</text>
</g>
<!-- idCrowbar1&#45;&gt;idSideMirror1 -->
<g id="edge17" class="edge">
<title>idCrowbar1&#45;&gt;idSideMirror1</title>
<path fill="none" stroke="black" d="M1154.63,-104.19C1284.2,-100.81 1606.7,-90.59 1712.88,-70.5 1751.5,-63.19 1793.75,-48.96 1824.68,-37.3"/>
<polygon fill="black" stroke="black" points="1825.63,-40.3 1833.72,-33.46 1823.13,-33.76 1825.63,-40.3"/>
<text text-anchor="middle" x="1800.38" y="-57.2" font-family="Times,serif" font-size="14.00">isWestOf</text>
</g>
<!-- idWhistle1 -->
<g id="node18" class="node">
<title>idWhistle1</title>
<ellipse fill="none" stroke="black" cx="2003.88" cy="-18" rx="51.86" ry="18"/>
<text text-anchor="middle" x="2003.88" y="-12.95" font-family="Times,serif" font-size="14.00">idWhistle1</text>
</g>
<!-- idCrowbar1&#45;&gt;idWhistle1 -->
<g id="edge18" class="edge">
<title>idCrowbar1&#45;&gt;idWhistle1</title>
<path fill="none" stroke="black" d="M1154.85,-104.57C1301.58,-101.82 1700.17,-92.48 1829.88,-70.5 1874.78,-62.89 1924.45,-47.46 1959.19,-35.46"/>
<polygon fill="black" stroke="black" points="1960.18,-38.47 1968.46,-31.86 1957.87,-31.86 1960.18,-38.47"/>
<text text-anchor="middle" x="1923.38" y="-57.2" font-family="Times,serif" font-size="14.00">isWestOf</text>
</g>
</g>
</svg>
