<?xml version="1.0" encoding="UTF-8" standalone="no"?>
<!DOCTYPE svg PUBLIC "-//W3C//DTD SVG 1.1//EN"
 "http://www.w3.org/Graphics/SVG/1.1/DTD/svg11.dtd">
<!-- Generated by graphviz version 8.1.0 (20230707.0739)
 -->
<!-- Pages: 1 -->
<svg width="2810pt" height="133pt"
 viewBox="0.00 0.00 2810.30 132.50" xmlns="http://www.w3.org/2000/svg" xmlns:xlink="http://www.w3.org/1999/xlink">
<g id="graph0" class="graph" transform="scale(1 1) rotate(0) translate(4 128.5)">
<polygon fill="white" stroke="none" points="-4,4 -4,-128.5 2806.3,-128.5 2806.3,4 -4,4"/>
<!-- idDen1 -->
<g id="node1" class="node">
<title>idDen1</title>
<ellipse fill="none" stroke="black" cx="1319.09" cy="-106.5" rx="38.04" ry="18"/>
<text text-anchor="middle" x="1319.09" y="-101.45" font-family="Times,serif" font-size="14.00">idDen1</text>
</g>
<!-- idDen1&#45;&gt;idDen1 -->
<g id="edge7" class="edge">
<title>idDen1&#45;&gt;idDen1</title>
<path fill="none" stroke="black" d="M1353.29,-114.79C1365.35,-114.92 1375.14,-112.16 1375.14,-106.5 1375.14,-102.7 1370.72,-100.2 1364.16,-99.01"/>
<polygon fill="black" stroke="black" points="1364.53,-95.46 1354.29,-98.21 1364.01,-102.44 1364.53,-95.46"/>
<text text-anchor="middle" x="1392.76" y="-101.45" font-family="Times,serif" font-size="14.00">isNear</text>
</g>
<!-- idBear1 -->
<g id="node2" class="node">
<title>idBear1</title>
<ellipse fill="none" stroke="black" cx="40.09" cy="-18" rx="40.09" ry="18"/>
<text text-anchor="middle" x="40.09" y="-12.95" font-family="Times,serif" font-size="14.00">idBear1</text>
</g>
<!-- idDen1&#45;&gt;idBear1 -->
<g id="edge1" class="edge">
<title>idDen1&#45;&gt;idBear1</title>
<path fill="none" stroke="black" d="M1280.71,-105.61C1110.09,-105.89 419.43,-104.83 205.84,-70.5 161.41,-63.36 112.41,-47.02 79.3,-34.65"/>
<polygon fill="black" stroke="black" points="80.72,-31.07 70.13,-30.79 78.23,-37.61 80.72,-31.07"/>
<text text-anchor="middle" x="223.72" y="-57.2" font-family="Times,serif" font-size="14.00">isNear</text>
</g>
<!-- idTire1 -->
<g id="node3" class="node">
<title>idTire1</title>
<ellipse fill="none" stroke="black" cx="136.09" cy="-18" rx="38.04" ry="18"/>
<text text-anchor="middle" x="136.09" y="-12.95" font-family="Times,serif" font-size="14.00">idTire1</text>
</g>
<!-- idDen1&#45;&gt;idTire1 -->
<g id="edge2" class="edge">
<title>idDen1&#45;&gt;idTire1</title>
<path fill="none" stroke="black" d="M1280.77,-105.16C1122.22,-103.62 517.04,-96.13 327.84,-70.5 262.3,-61.62 246.46,-54.94 183.09,-36 180.51,-35.23 177.86,-34.39 175.2,-33.52"/>
<polygon fill="black" stroke="black" points="176.6,-29.96 166,-30.04 174.34,-36.58 176.6,-29.96"/>
<text text-anchor="middle" x="345.72" y="-57.2" font-family="Times,serif" font-size="14.00">isNear</text>
</g>
<!-- idTaillight1 -->
<g id="node4" class="node">
<title>idTaillight1</title>
<ellipse fill="none" stroke="black" cx="246.09" cy="-18" rx="54.42" ry="18"/>
<text text-anchor="middle" x="246.09" y="-12.95" font-family="Times,serif" font-size="14.00">idTaillight1</text>
</g>
<!-- idDen1&#45;&gt;idTaillight1 -->
<g id="edge3" class="edge">
<title>idDen1&#45;&gt;idTaillight1</title>
<path fill="none" stroke="black" d="M1280.86,-105.05C1134.39,-103.16 608.96,-94.81 443.84,-70.5 391.76,-62.83 333.61,-46.75 293.93,-34.58"/>
<polygon fill="black" stroke="black" points="295.09,-30.97 284.5,-31.34 293.01,-37.65 295.09,-30.97"/>
<text text-anchor="middle" x="461.72" y="-57.2" font-family="Times,serif" font-size="14.00">isNear</text>
</g>
<!-- idTheCar1 -->
<g id="node5" class="node">
<title>idTheCar1</title>
<ellipse fill="none" stroke="black" cx="369.09" cy="-18" rx="50.33" ry="18"/>
<text text-anchor="middle" x="369.09" y="-12.95" font-family="Times,serif" font-size="14.00">idTheCar1</text>
</g>
<!-- idDen1&#45;&gt;idTheCar1 -->
<g id="edge4" class="edge">
<title>idDen1&#45;&gt;idTheCar1</title>
<path fill="none" stroke="black" d="M1280.73,-104.87C1146.31,-102.48 697.02,-92.97 554.84,-70.5 505.9,-62.76 451.42,-46.75 414.2,-34.62"/>
<polygon fill="black" stroke="black" points="415.77,-31.12 405.17,-31.31 413.57,-37.77 415.77,-31.12"/>
<text text-anchor="middle" x="583.22" y="-57.2" font-family="Times,serif" font-size="14.00">isInsideOf</text>
</g>
<!-- idTheCarRoom1 -->
<g id="node6" class="node">
<title>idTheCarRoom1</title>
<ellipse fill="none" stroke="black" cx="511.09" cy="-18" rx="73.36" ry="18"/>
<text text-anchor="middle" x="511.09" y="-12.95" font-family="Times,serif" font-size="14.00">idTheCarRoom1</text>
</g>
<!-- idDen1&#45;&gt;idTheCarRoom1 -->
<g id="edge5" class="edge">
<title>idDen1&#45;&gt;idTheCarRoom1</title>
<path fill="none" stroke="black" d="M1280.99,-104.61C1161.85,-101.62 797.44,-91.01 681.09,-70.5 639.39,-63.15 593.52,-48.87 559.95,-37.21"/>
<polygon fill="black" stroke="black" points="561.54,-33.71 550.95,-33.68 559.22,-40.31 561.54,-33.71"/>
<text text-anchor="middle" x="706.59" y="-57.2" font-family="Times,serif" font-size="14.00">isWestOf</text>
</g>
<!-- idClearing1 -->
<g id="node7" class="node">
<title>idClearing1</title>
<ellipse fill="none" stroke="black" cx="657.09" cy="-18" rx="54.42" ry="18"/>
<text text-anchor="middle" x="657.09" y="-12.95" font-family="Times,serif" font-size="14.00">idClearing1</text>
</g>
<!-- idDen1&#45;&gt;idClearing1 -->
<g id="edge6" class="edge">
<title>idDen1&#45;&gt;idClearing1</title>
<path fill="none" stroke="black" d="M1280.97,-104.55C1175.34,-101.66 880.49,-91.88 786.09,-70.5 754.67,-63.38 720.91,-49.67 695.82,-38.18"/>
<polygon fill="black" stroke="black" points="697.51,-34.64 686.96,-33.58 694.54,-40.99 697.51,-34.64"/>
<text text-anchor="middle" x="811.59" y="-57.2" font-family="Times,serif" font-size="14.00">isWestOf</text>
</g>
<!-- idArea1 -->
<g id="node8" class="node">
<title>idArea1</title>
<ellipse fill="none" stroke="black" cx="770.09" cy="-18" rx="40.6" ry="18"/>
<text text-anchor="middle" x="770.09" y="-12.95" font-family="Times,serif" font-size="14.00">idArea1</text>
</g>
<!-- idDen1&#45;&gt;idArea1 -->
<g id="edge8" class="edge">
<title>idDen1&#45;&gt;idArea1</title>
<path fill="none" stroke="black" d="M1281.09,-104.04C1190.03,-100.27 961.44,-89.21 887.34,-70.5 858.05,-63.1 826.82,-49.05 803.96,-37.49"/>
<polygon fill="black" stroke="black" points="805.88,-34.03 795.39,-32.55 802.67,-40.25 805.88,-34.03"/>
<text text-anchor="middle" x="915.47" y="-57.2" font-family="Times,serif" font-size="14.00">isSouthOf</text>
</g>
<!-- idPlayer -->
<g id="node9" class="node">
<title>idPlayer</title>
<ellipse fill="none" stroke="black" cx="870.09" cy="-18" rx="41.63" ry="18"/>
<text text-anchor="middle" x="870.09" y="-12.95" font-family="Times,serif" font-size="14.00">idPlayer</text>
</g>
<!-- idDen1&#45;&gt;idPlayer -->
<g id="edge9" class="edge">
<title>idDen1&#45;&gt;idPlayer</title>
<path fill="none" stroke="black" d="M1281.06,-104.86C1219.89,-103.06 1096.25,-96.25 995.09,-70.5 964.04,-62.6 930.57,-48.48 906.08,-37.02"/>
<polygon fill="black" stroke="black" points="907.7,-33.44 897.17,-32.3 904.69,-39.76 907.7,-33.44"/>
<text text-anchor="middle" x="1020.59" y="-57.2" font-family="Times,serif" font-size="14.00">isWestOf</text>
</g>
<!-- idCar1 -->
<g id="node10" class="node">
<title>idCar1</title>
<ellipse fill="none" stroke="black" cx="966.09" cy="-18" rx="36" ry="18"/>
<text text-anchor="middle" x="966.09" y="-12.95" font-family="Times,serif" font-size="14.00">idCar1</text>
</g>
<!-- idDen1&#45;&gt;idCar1 -->
<g id="edge10" class="edge">
<title>idDen1&#45;&gt;idCar1</title>
<path fill="none" stroke="black" d="M1281.65,-102.11C1237.09,-97.51 1160.72,-87.8 1097.09,-70.5 1063.78,-61.44 1027.35,-46.7 1001.38,-35.31"/>
<polygon fill="black" stroke="black" points="1003.18,-31.83 992.62,-30.97 1000.34,-38.23 1003.18,-31.83"/>
<text text-anchor="middle" x="1122.59" y="-57.2" font-family="Times,serif" font-size="14.00">isWestOf</text>
</g>
<!-- idSideMirror1 -->
<g id="node11" class="node">
<title>idSideMirror1</title>
<ellipse fill="none" stroke="black" cx="1084.09" cy="-18" rx="64.15" ry="18"/>
<text text-anchor="middle" x="1084.09" y="-12.95" font-family="Times,serif" font-size="14.00">idSideMirror1</text>
</g>
<!-- idDen1&#45;&gt;idSideMirror1 -->
<g id="edge11" class="edge">
<title>idDen1&#45;&gt;idSideMirror1</title>
<path fill="none" stroke="black" d="M1284.86,-98.06C1258.54,-91.9 1221.49,-82.27 1190.09,-70.5 1166.82,-61.78 1141.76,-49.74 1121.86,-39.49"/>
<polygon fill="black" stroke="black" points="1123.73,-36 1113.25,-34.48 1120.49,-42.2 1123.73,-36"/>
<text text-anchor="middle" x="1215.59" y="-57.2" font-family="Times,serif" font-size="14.00">isWestOf</text>
</g>
<!-- idBush1 -->
<g id="node12" class="node">
<title>idBush1</title>
<ellipse fill="none" stroke="black" cx="1208.09" cy="-18" rx="41.63" ry="18"/>
<text text-anchor="middle" x="1208.09" y="-12.95" font-family="Times,serif" font-size="14.00">idBush1</text>
</g>
<!-- idDen1&#45;&gt;idBush1 -->
<g id="edge12" class="edge">
<title>idDen1&#45;&gt;idBush1</title>
<path fill="none" stroke="black" d="M1295.73,-91.9C1285.72,-85.75 1274.05,-78.15 1264.09,-70.5 1252.8,-61.82 1241.09,-51.32 1231.31,-42.07"/>
<polygon fill="black" stroke="black" points="1234.24,-40.07 1224.6,-35.66 1229.39,-45.11 1234.24,-40.07"/>
<text text-anchor="middle" x="1289.59" y="-57.2" font-family="Times,serif" font-size="14.00">isWestOf</text>
</g>
<!-- idWhistle1 -->
<g id="node13" class="node">
<title>idWhistle1</title>
<ellipse fill="none" stroke="black" cx="1319.09" cy="-18" rx="51.86" ry="18"/>
<text text-anchor="middle" x="1319.09" y="-12.95" font-family="Times,serif" font-size="14.00">idWhistle1</text>
</g>
<!-- idDen1&#45;&gt;idWhistle1 -->
<g id="edge13" class="edge">
<title>idDen1&#45;&gt;idWhistle1</title>
<path fill="none" stroke="black" d="M1319.09,-88.41C1319.09,-76.64 1319.09,-60.73 1319.09,-47.11"/>
<polygon fill="black" stroke="black" points="1322.59,-47.35 1319.09,-37.35 1315.59,-47.35 1322.59,-47.35"/>
<text text-anchor="middle" x="1344.59" y="-57.2" font-family="Times,serif" font-size="14.00">isWestOf</text>
</g>
<!-- idStump1 -->
<g id="node14" class="node">
<title>idStump1</title>
<ellipse fill="none" stroke="black" cx="1436.09" cy="-18" rx="47.26" ry="18"/>
<text text-anchor="middle" x="1436.09" y="-12.95" font-family="Times,serif" font-size="14.00">idStump1</text>
</g>
<!-- idDen1&#45;&gt;idStump1 -->
<g id="edge14" class="edge">
<title>idDen1&#45;&gt;idStump1</title>
<path fill="none" stroke="black" d="M1342,-91.82C1352.04,-85.6 1363.85,-77.97 1374.09,-70.5 1386.23,-61.65 1399.08,-51.17 1409.92,-41.99"/>
<polygon fill="black" stroke="black" points="1411.82,-44.11 1417.13,-34.95 1407.26,-38.8 1411.82,-44.11"/>
<text text-anchor="middle" x="1423.47" y="-57.2" font-family="Times,serif" font-size="14.00">isSouthOf</text>
</g>
<!-- idCarKey1 -->
<g id="node15" class="node">
<title>idCarKey1</title>
<ellipse fill="none" stroke="black" cx="1553.09" cy="-18" rx="51.35" ry="18"/>
<text text-anchor="middle" x="1553.09" y="-12.95" font-family="Times,serif" font-size="14.00">idCarKey1</text>
</g>
<!-- idDen1&#45;&gt;idCarKey1 -->
<g id="edge15" class="edge">
<title>idDen1&#45;&gt;idCarKey1</title>
<path fill="none" stroke="black" d="M1353.87,-98.88C1381.77,-93.02 1421.65,-83.39 1455.09,-70.5 1477.13,-62 1500.6,-49.8 1519.04,-39.4"/>
<polygon fill="black" stroke="black" points="1520.53,-42.01 1527.46,-34 1517.05,-35.93 1520.53,-42.01"/>
<text text-anchor="middle" x="1519.47" y="-57.2" font-family="Times,serif" font-size="14.00">isSouthOf</text>
</g>
<!-- idBumper1 -->
<g id="node16" class="node">
<title>idBumper1</title>
<ellipse fill="none" stroke="black" cx="1675.09" cy="-18" rx="52.89" ry="18"/>
<text text-anchor="middle" x="1675.09" y="-12.95" font-family="Times,serif" font-size="14.00">idBumper1</text>
</g>
<!-- idDen1&#45;&gt;idBumper1 -->
<g id="edge16" class="edge">
<title>idDen1&#45;&gt;idBumper1</title>
<path fill="none" stroke="black" d="M1356.65,-102.67C1403.02,-98.53 1483.99,-89.19 1551.09,-70.5 1580.56,-62.29 1612.41,-48.96 1636.45,-37.92"/>
<polygon fill="black" stroke="black" points="1637.66,-40.75 1645.24,-33.35 1634.7,-34.41 1637.66,-40.75"/>
<text text-anchor="middle" x="1624.47" y="-57.2" font-family="Times,serif" font-size="14.00">isSouthOf</text>
</g>
<!-- idCrowbar1 -->
<g id="node17" class="node">
<title>idCrowbar1</title>
<ellipse fill="none" stroke="black" cx="1801.09" cy="-18" rx="54.93" ry="18"/>
<text text-anchor="middle" x="1801.09" y="-12.95" font-family="Times,serif" font-size="14.00">idCrowbar1</text>
</g>
<!-- idDen1&#45;&gt;idCrowbar1 -->
<g id="edge17" class="edge">
<title>idDen1&#45;&gt;idCrowbar1</title>
<path fill="none" stroke="black" d="M1357.22,-104.48C1420.18,-102.15 1549.52,-94.6 1656.09,-70.5 1691.6,-62.47 1730.39,-48.4 1758.91,-36.99"/>
<polygon fill="black" stroke="black" points="1759.97,-39.93 1767.92,-32.92 1757.34,-33.44 1759.97,-39.93"/>
<text text-anchor="middle" x="1738.59" y="-57.2" font-family="Times,serif" font-size="14.00">isWestOf</text>
</g>
<!-- idLock1 -->
<g id="node18" class="node">
<title>idLock1</title>
<ellipse fill="none" stroke="black" cx="1916.09" cy="-18" rx="41.63" ry="18"/>
<text text-anchor="middle" x="1916.09" y="-12.95" font-family="Times,serif" font-size="14.00">idLock1</text>
</g>
<!-- idDen1&#45;&gt;idLock1 -->
<g id="edge18" class="edge">
<title>idDen1&#45;&gt;idLock1</title>
<path fill="none" stroke="black" d="M1357.4,-105.81C1435.52,-105.71 1618.48,-101.82 1768.09,-70.5 1806.32,-62.5 1848.22,-47.27 1877.65,-35.44"/>
<polygon fill="black" stroke="black" points="1878.58,-38.44 1886.51,-31.42 1875.93,-31.96 1878.58,-38.44"/>
<text text-anchor="middle" x="1851.59" y="-57.2" font-family="Times,serif" font-size="14.00">isWestOf</text>
</g>
<!-- idPlayerBackside -->
<g id="node19" class="node">
<title>idPlayerBackside</title>
<ellipse fill="none" stroke="black" cx="2051.09" cy="-18" rx="75.41" ry="18"/>
<text text-anchor="middle" x="2051.09" y="-12.95" font-family="Times,serif" font-size="14.00">idPlayerBackside</text>
</g>
<!-- idDen1&#45;&gt;idPlayerBackside -->
<g id="edge19" class="edge">
<title>idDen1&#45;&gt;idPlayerBackside</title>
<path fill="none" stroke="black" d="M1357.62,-106.16C1449.19,-107.06 1686.75,-105.5 1881.09,-70.5 1922.62,-63.02 1968.33,-48.82 2001.88,-37.22"/>
<polygon fill="black" stroke="black" points="2002.6,-40.33 2010.88,-33.72 2000.29,-33.72 2002.6,-40.33"/>
<text text-anchor="middle" x="1973.59" y="-57.2" font-family="Times,serif" font-size="14.00">isWestOf</text>
</g>
<!-- idPlayerLeftHand -->
<g id="node20" class="node">
<title>idPlayerLeftHand</title>
<ellipse fill="none" stroke="black" cx="2221.09" cy="-18" rx="76.94" ry="18"/>
<text text-anchor="middle" x="2221.09" y="-12.95" font-family="Times,serif" font-size="14.00">idPlayerLeftHand</text>
</g>
<!-- idDen1&#45;&gt;idPlayerLeftHand -->
<g id="edge20" class="edge">
<title>idDen1&#45;&gt;idPlayerLeftHand</title>
<path fill="none" stroke="black" d="M1357.52,-105.96C1461.88,-106.68 1759.13,-105.27 2003.09,-70.5 2058.4,-62.62 2120.28,-47.37 2163.94,-35.5"/>
<polygon fill="black" stroke="black" points="2164.64,-38.66 2173.36,-32.63 2162.79,-31.91 2164.64,-38.66"/>
<text text-anchor="middle" x="2113.59" y="-57.2" font-family="Times,serif" font-size="14.00">isWestOf</text>
</g>
<!-- idPlayerRightHand -->
<g id="node21" class="node">
<title>idPlayerRightHand</title>
<ellipse fill="none" stroke="black" cx="2398.09" cy="-18" rx="82.06" ry="18"/>
<text text-anchor="middle" x="2398.09" y="-12.95" font-family="Times,serif" font-size="14.00">idPlayerRightHand</text>
</g>
<!-- idDen1&#45;&gt;idPlayerRightHand -->
<g id="edge21" class="edge">
<title>idDen1&#45;&gt;idPlayerRightHand</title>
<path fill="none" stroke="black" d="M1357.46,-106C1475.28,-107.08 1842.11,-107.06 2143.09,-70.5 2209.02,-62.49 2283.34,-46.69 2334.66,-34.7"/>
<polygon fill="black" stroke="black" points="2335.32,-37.9 2344.25,-32.2 2333.71,-31.09 2335.32,-37.9"/>
<text text-anchor="middle" x="2267.59" y="-57.2" font-family="Times,serif" font-size="14.00">isWestOf</text>
</g>
<!-- idSmoke1 -->
<g id="node22" class="node">
<title>idSmoke1</title>
<ellipse fill="none" stroke="black" cx="2547.09" cy="-18" rx="48.79" ry="18"/>
<text text-anchor="middle" x="2547.09" y="-12.95" font-family="Times,serif" font-size="14.00">idSmoke1</text>
</g>
<!-- idDen1&#45;&gt;idSmoke1 -->
<g id="edge22" class="edge">
<title>idDen1&#45;&gt;idSmoke1</title>
<path fill="none" stroke="black" d="M1357.4,-104.86C1514.5,-102.11 2110,-90.55 2297.09,-70.5 2383.3,-61.26 2404.7,-55.89 2489.09,-36 2492.73,-35.14 2496.47,-34.2 2500.22,-33.2"/>
<polygon fill="black" stroke="black" points="2501.03,-36.33 2509.74,-30.3 2499.17,-29.59 2501.03,-36.33"/>
<text text-anchor="middle" x="2435.59" y="-57.2" font-family="Times,serif" font-size="14.00">isWestOf</text>
</g>
<!-- idSpill1 -->
<g id="node23" class="node">
<title>idSpill1</title>
<ellipse fill="none" stroke="black" cx="2654.09" cy="-18" rx="40.09" ry="18"/>
<text text-anchor="middle" x="2654.09" y="-12.95" font-family="Times,serif" font-size="14.00">idSpill1</text>
</g>
<!-- idDen1&#45;&gt;idSpill1 -->
<g id="edge23" class="edge">
<title>idDen1&#45;&gt;idSpill1</title>
<path fill="none" stroke="black" d="M1357.4,-105.42C1530.88,-104.87 2243.97,-100.78 2465.09,-70.5 2517.3,-63.35 2575.54,-45.99 2613.39,-33.4"/>
<polygon fill="black" stroke="black" points="2614.14,-36.5 2622.5,-29.99 2611.91,-29.87 2614.14,-36.5"/>
<text text-anchor="middle" x="2569.59" y="-57.2" font-family="Times,serif" font-size="14.00">isWestOf</text>
</g>
<!-- idTrunk1 -->
<g id="node24" class="node">
<title>idTrunk1</title>
<ellipse fill="none" stroke="black" cx="2757.09" cy="-18" rx="45.21" ry="18"/>
<text text-anchor="middle" x="2757.09" y="-12.95" font-family="Times,serif" font-size="14.00">idTrunk1</text>
</g>
<!-- idDen1&#45;&gt;idTrunk1 -->
<g id="edge24" class="edge">
<title>idDen1&#45;&gt;idTrunk1</title>
<path fill="none" stroke="black" d="M1357.2,-105.11C1556.47,-102.99 2474.23,-92.09 2599.09,-70.5 2640.21,-63.39 2685.31,-47.87 2716.76,-35.72"/>
<polygon fill="black" stroke="black" points="2717.85,-38.66 2725.87,-31.74 2715.29,-32.14 2717.85,-38.66"/>
<text text-anchor="middle" x="2686.59" y="-57.2" font-family="Times,serif" font-size="14.00">isWestOf</text>
</g>
</g>
</svg>
