<?xml version="1.0" encoding="UTF-8" standalone="no"?>
<!DOCTYPE svg PUBLIC "-//W3C//DTD SVG 1.1//EN"
 "http://www.w3.org/Graphics/SVG/1.1/DTD/svg11.dtd">
<!-- Generated by graphviz version 8.1.0 (20230707.0739)
 -->
<!-- Pages: 1 -->
<svg width="1614pt" height="133pt"
 viewBox="0.00 0.00 1614.35 132.50" xmlns="http://www.w3.org/2000/svg" xmlns:xlink="http://www.w3.org/1999/xlink">
<g id="graph0" class="graph" transform="scale(1 1) rotate(0) translate(4 128.5)">
<polygon fill="white" stroke="none" points="-4,4 -4,-128.5 1610.35,-128.5 1610.35,4 -4,4"/>
<!-- idLock1 -->
<g id="node1" class="node">
<title>idLock1</title>
<ellipse fill="none" stroke="black" cx="801.49" cy="-106.5" rx="41.63" ry="18"/>
<text text-anchor="middle" x="801.49" y="-101.45" font-family="Times,serif" font-size="14.00">idLock1</text>
</g>
<!-- locked -->
<g id="node2" class="node">
<title>locked</title>
<ellipse fill="none" stroke="black" cx="35.49" cy="-18" rx="35.49" ry="18"/>
<text text-anchor="middle" x="35.49" y="-12.95" font-family="Times,serif" font-size="14.00">locked</text>
</g>
<!-- idLock1&#45;&gt;locked -->
<g id="edge1" class="edge">
<title>idLock1&#45;&gt;locked</title>
<path fill="none" stroke="black" d="M759.68,-105.78C631.84,-106.27 247.63,-104.76 128.24,-70.5 105.23,-63.9 81.68,-50.73 64.07,-39.36"/>
<polygon fill="black" stroke="black" points="66.2,-35.91 55.94,-33.29 62.33,-41.74 66.2,-35.91"/>
<text text-anchor="middle" x="209.11" y="-57.2" font-family="Times,serif" font-size="14.00">idLock1_prop_idLockedState</text>
</g>
<!-- idTrunk1 -->
<g id="node3" class="node">
<title>idTrunk1</title>
<ellipse fill="none" stroke="black" cx="196.49" cy="-18" rx="45.21" ry="18"/>
<text text-anchor="middle" x="196.49" y="-12.95" font-family="Times,serif" font-size="14.00">idTrunk1</text>
</g>
<!-- idLock1&#45;&gt;idTrunk1 -->
<g id="edge2" class="edge">
<title>idLock1&#45;&gt;idTrunk1</title>
<path fill="none" stroke="black" d="M759.51,-105.48C679.89,-104.73 501.78,-99.59 355.24,-70.5 314.38,-62.39 269.35,-47.15 237.72,-35.34"/>
<polygon fill="black" stroke="black" points="239.12,-31.75 228.53,-31.49 236.64,-38.3 239.12,-31.75"/>
<text text-anchor="middle" x="373.11" y="-57.2" font-family="Times,serif" font-size="14.00">isNear</text>
</g>
<!-- idArea1 -->
<g id="node4" class="node">
<title>idArea1</title>
<ellipse fill="none" stroke="black" cx="300.49" cy="-18" rx="40.6" ry="18"/>
<text text-anchor="middle" x="300.49" y="-12.95" font-family="Times,serif" font-size="14.00">idArea1</text>
</g>
<!-- idLock1&#45;&gt;idArea1 -->
<g id="edge3" class="edge">
<title>idLock1&#45;&gt;idArea1</title>
<path fill="none" stroke="black" d="M759.84,-104.24C694.17,-101.6 562.81,-93.65 453.99,-70.5 414.27,-62.05 370.49,-46.74 339.89,-35"/>
<polygon fill="black" stroke="black" points="341.23,-31.37 330.64,-31.01 338.69,-37.9 341.23,-31.37"/>
<text text-anchor="middle" x="477.74" y="-57.2" font-family="Times,serif" font-size="14.00">isEastOf</text>
</g>
<!-- idBumper1 -->
<g id="node5" class="node">
<title>idBumper1</title>
<ellipse fill="none" stroke="black" cx="411.49" cy="-18" rx="52.89" ry="18"/>
<text text-anchor="middle" x="411.49" y="-12.95" font-family="Times,serif" font-size="14.00">idBumper1</text>
</g>
<!-- idLock1&#45;&gt;idBumper1 -->
<g id="edge4" class="edge">
<title>idLock1&#45;&gt;idBumper1</title>
<path fill="none" stroke="black" d="M760.61,-102.2C711.49,-97.66 626.83,-87.99 555.99,-70.5 520.87,-61.83 482.34,-47.87 453.9,-36.66"/>
<polygon fill="black" stroke="black" points="455.49,-33.13 444.91,-32.67 452.9,-39.63 455.49,-33.13"/>
<text text-anchor="middle" x="579.74" y="-57.2" font-family="Times,serif" font-size="14.00">isEastOf</text>
</g>
<!-- idCarKey1 -->
<g id="node6" class="node">
<title>idCarKey1</title>
<ellipse fill="none" stroke="black" cx="533.49" cy="-18" rx="51.35" ry="18"/>
<text text-anchor="middle" x="533.49" y="-12.95" font-family="Times,serif" font-size="14.00">idCarKey1</text>
</g>
<!-- idLock1&#45;&gt;idCarKey1 -->
<g id="edge5" class="edge">
<title>idLock1&#45;&gt;idCarKey1</title>
<path fill="none" stroke="black" d="M763.06,-98.93C731.65,-93.05 686.34,-83.36 647.99,-70.5 621.64,-61.67 593.14,-48.86 571.17,-38.23"/>
<polygon fill="black" stroke="black" points="573.08,-34.78 562.56,-33.52 570,-41.07 573.08,-34.78"/>
<text text-anchor="middle" x="671.74" y="-57.2" font-family="Times,serif" font-size="14.00">isEastOf</text>
</g>
<!-- idStump1 -->
<g id="node7" class="node">
<title>idStump1</title>
<ellipse fill="none" stroke="black" cx="650.49" cy="-18" rx="47.26" ry="18"/>
<text text-anchor="middle" x="650.49" y="-12.95" font-family="Times,serif" font-size="14.00">idStump1</text>
</g>
<!-- idLock1&#45;&gt;idStump1 -->
<g id="edge6" class="edge">
<title>idLock1&#45;&gt;idStump1</title>
<path fill="none" stroke="black" d="M771.35,-93.72C756.45,-87.48 738.41,-79.3 722.99,-70.5 707.84,-61.86 691.95,-50.82 678.92,-41.18"/>
<polygon fill="black" stroke="black" points="681.49,-37.98 671.39,-34.77 677.29,-43.58 681.49,-37.98"/>
<text text-anchor="middle" x="746.74" y="-57.2" font-family="Times,serif" font-size="14.00">isEastOf</text>
</g>
<!-- idDen1 -->
<g id="node8" class="node">
<title>idDen1</title>
<ellipse fill="none" stroke="black" cx="753.49" cy="-18" rx="38.04" ry="18"/>
<text text-anchor="middle" x="753.49" y="-12.95" font-family="Times,serif" font-size="14.00">idDen1</text>
</g>
<!-- idLock1&#45;&gt;idDen1 -->
<g id="edge7" class="edge">
<title>idLock1&#45;&gt;idDen1</title>
<path fill="none" stroke="black" d="M791.55,-88.84C788.15,-83.06 784.36,-76.52 780.99,-70.5 776.46,-62.41 771.66,-53.54 767.36,-45.47"/>
<polygon fill="black" stroke="black" points="770.01,-43.99 762.24,-36.79 763.82,-47.27 770.01,-43.99"/>
<text text-anchor="middle" x="804.74" y="-57.2" font-family="Times,serif" font-size="14.00">isEastOf</text>
</g>
<!-- idBear1 -->
<g id="node9" class="node">
<title>idBear1</title>
<ellipse fill="none" stroke="black" cx="849.49" cy="-18" rx="40.09" ry="18"/>
<text text-anchor="middle" x="849.49" y="-12.95" font-family="Times,serif" font-size="14.00">idBear1</text>
</g>
<!-- idLock1&#45;&gt;idBear1 -->
<g id="edge8" class="edge">
<title>idLock1&#45;&gt;idBear1</title>
<path fill="none" stroke="black" d="M814.75,-89.31C819.11,-83.57 823.79,-76.93 827.49,-70.5 831.86,-62.88 835.89,-54.22 839.27,-46.2"/>
<polygon fill="black" stroke="black" points="842.82,-47.76 843.32,-37.18 836.33,-45.14 842.82,-47.76"/>
<text text-anchor="middle" x="859.74" y="-57.2" font-family="Times,serif" font-size="14.00">isEastOf</text>
</g>
<!-- idTaillight1 -->
<g id="node10" class="node">
<title>idTaillight1</title>
<ellipse fill="none" stroke="black" cx="962.49" cy="-18" rx="54.42" ry="18"/>
<text text-anchor="middle" x="962.49" y="-12.95" font-family="Times,serif" font-size="14.00">idTaillight1</text>
</g>
<!-- idLock1&#45;&gt;idTaillight1 -->
<g id="edge9" class="edge">
<title>idLock1&#45;&gt;idTaillight1</title>
<path fill="none" stroke="black" d="M832.87,-94.35C849.23,-88.1 869.33,-79.72 886.49,-70.5 902.49,-61.9 919.32,-50.74 933.06,-41.01"/>
<polygon fill="black" stroke="black" points="934.53,-43.55 940.6,-34.87 930.44,-37.87 934.53,-43.55"/>
<text text-anchor="middle" x="935.74" y="-57.2" font-family="Times,serif" font-size="14.00">isEastOf</text>
</g>
<!-- idTire1 -->
<g id="node11" class="node">
<title>idTire1</title>
<ellipse fill="none" stroke="black" cx="1072.49" cy="-18" rx="38.04" ry="18"/>
<text text-anchor="middle" x="1072.49" y="-12.95" font-family="Times,serif" font-size="14.00">idTire1</text>
</g>
<!-- idLock1&#45;&gt;idTire1 -->
<g id="edge10" class="edge">
<title>idLock1&#45;&gt;idTire1</title>
<path fill="none" stroke="black" d="M840.2,-99.59C873.23,-93.96 921.7,-84.29 962.49,-70.5 988.87,-61.58 1017.31,-48.16 1038.66,-37.25"/>
<polygon fill="black" stroke="black" points="1039.97,-40 1047.24,-32.28 1036.75,-33.78 1039.97,-40"/>
<text text-anchor="middle" x="1026.74" y="-57.2" font-family="Times,serif" font-size="14.00">isEastOf</text>
</g>
<!-- idClearing1 -->
<g id="node12" class="node">
<title>idClearing1</title>
<ellipse fill="none" stroke="black" cx="1182.49" cy="-18" rx="54.42" ry="18"/>
<text text-anchor="middle" x="1182.49" y="-12.95" font-family="Times,serif" font-size="14.00">idClearing1</text>
</g>
<!-- idLock1&#45;&gt;idClearing1 -->
<g id="edge11" class="edge">
<title>idLock1&#45;&gt;idClearing1</title>
<path fill="none" stroke="black" d="M842.68,-102.85C893.08,-98.91 980.69,-89.78 1053.49,-70.5 1084.22,-62.36 1117.51,-48.95 1142.57,-37.85"/>
<polygon fill="black" stroke="black" points="1143.75,-40.71 1151.44,-33.41 1140.88,-34.32 1143.75,-40.71"/>
<text text-anchor="middle" x="1126.99" y="-57.2" font-family="Times,serif" font-size="14.00">isWestOf</text>
</g>
<!-- idBush1 -->
<g id="node13" class="node">
<title>idBush1</title>
<ellipse fill="none" stroke="black" cx="1296.49" cy="-18" rx="41.63" ry="18"/>
<text text-anchor="middle" x="1296.49" y="-12.95" font-family="Times,serif" font-size="14.00">idBush1</text>
</g>
<!-- idLock1&#45;&gt;idBush1 -->
<g id="edge12" class="edge">
<title>idLock1&#45;&gt;idBush1</title>
<path fill="none" stroke="black" d="M843.3,-104.8C910.25,-102.92 1045.26,-96 1156.49,-70.5 1191.96,-62.37 1230.68,-47.64 1258.39,-36.01"/>
<polygon fill="black" stroke="black" points="1259.62,-38.87 1267.44,-31.73 1256.87,-32.43 1259.62,-38.87"/>
<text text-anchor="middle" x="1236.99" y="-57.2" font-family="Times,serif" font-size="14.00">isWestOf</text>
</g>
<!-- idSideMirror1 -->
<g id="node14" class="node">
<title>idSideMirror1</title>
<ellipse fill="none" stroke="black" cx="1420.49" cy="-18" rx="64.15" ry="18"/>
<text text-anchor="middle" x="1420.49" y="-12.95" font-family="Times,serif" font-size="14.00">idSideMirror1</text>
</g>
<!-- idLock1&#45;&gt;idSideMirror1 -->
<g id="edge13" class="edge">
<title>idLock1&#45;&gt;idSideMirror1</title>
<path fill="none" stroke="black" d="M843.32,-105.8C925.35,-105.62 1112.72,-101.5 1266.49,-70.5 1303.94,-62.95 1344.89,-48.96 1375.15,-37.47"/>
<polygon fill="black" stroke="black" points="1376.31,-40.38 1384.38,-33.52 1373.79,-33.85 1376.31,-40.38"/>
<text text-anchor="middle" x="1352.99" y="-57.2" font-family="Times,serif" font-size="14.00">isWestOf</text>
</g>
<!-- idWhistle1 -->
<g id="node15" class="node">
<title>idWhistle1</title>
<ellipse fill="none" stroke="black" cx="1554.49" cy="-18" rx="51.86" ry="18"/>
<text text-anchor="middle" x="1554.49" y="-12.95" font-family="Times,serif" font-size="14.00">idWhistle1</text>
</g>
<!-- idLock1&#45;&gt;idWhistle1 -->
<g id="edge14" class="edge">
<title>idLock1&#45;&gt;idWhistle1</title>
<path fill="none" stroke="black" d="M843.44,-106.27C939.6,-107.31 1182.99,-105.88 1382.49,-70.5 1426.71,-62.66 1475.64,-47.33 1509.97,-35.42"/>
<polygon fill="black" stroke="black" points="1510.86,-38.47 1519.14,-31.85 1508.54,-31.86 1510.86,-38.47"/>
<text text-anchor="middle" x="1475.99" y="-57.2" font-family="Times,serif" font-size="14.00">isWestOf</text>
</g>
</g>
</svg>
