<?xml version="1.0" encoding="UTF-8" standalone="no"?>
<!DOCTYPE svg PUBLIC "-//W3C//DTD SVG 1.1//EN"
 "http://www.w3.org/Graphics/SVG/1.1/DTD/svg11.dtd">
<!-- Generated by graphviz version 8.1.0 (20230707.0739)
 -->
<!-- Pages: 1 -->
<svg width="736pt" height="133pt"
 viewBox="0.00 0.00 736.00 132.50" xmlns="http://www.w3.org/2000/svg" xmlns:xlink="http://www.w3.org/1999/xlink">
<g id="graph0" class="graph" transform="scale(1 1) rotate(0) translate(4 128.5)">
<polygon fill="white" stroke="none" points="-4,4 -4,-128.5 732,-128.5 732,4 -4,4"/>
<!-- idMan1 -->
<g id="node1" class="node">
<title>idMan1</title>
<ellipse fill="none" stroke="black" cx="307" cy="-106.5" rx="40.09" ry="18"/>
<text text-anchor="middle" x="307" y="-101.45" font-family="Times,serif" font-size="14.00">idMan1</text>
</g>
<!-- yes -->
<g id="node2" class="node">
<title>yes</title>
<ellipse fill="none" stroke="black" cx="27" cy="-18" rx="27" ry="18"/>
<text text-anchor="middle" x="27" y="-12.95" font-family="Times,serif" font-size="14.00">yes</text>
</g>
<!-- idMan1&#45;&gt;yes -->
<g id="edge1" class="edge">
<title>idMan1&#45;&gt;yes</title>
<path fill="none" stroke="black" d="M266.64,-105.36C201.08,-104.29 75.44,-98.53 42.5,-70.5 35.6,-64.63 31.7,-55.81 29.53,-47.12"/>
<polygon fill="black" stroke="black" points="32.81,-46.63 27.59,-37.42 25.93,-47.88 32.81,-46.63"/>
<text text-anchor="middle" x="120.25" y="-57.2" font-family="Times,serif" font-size="14.00">idMan1_prop_idImmovable</text>
</g>
<!-- true -->
<g id="node3" class="node">
<title>true</title>
<ellipse fill="none" stroke="black" cx="205" cy="-18" rx="27" ry="18"/>
<text text-anchor="middle" x="205" y="-12.95" font-family="Times,serif" font-size="14.00">true</text>
</g>
<!-- idMan1&#45;&gt;true -->
<g id="edge2" class="edge">
<title>idMan1&#45;&gt;true</title>
<path fill="none" stroke="black" d="M267.61,-102.45C245.8,-98.53 220.33,-89.8 206.25,-70.5 201.32,-63.74 199.83,-55.05 199.91,-46.74"/>
<polygon fill="black" stroke="black" points="203.48,-47.12 200.84,-36.86 196.5,-46.53 203.48,-47.12"/>
<text text-anchor="middle" x="297.38" y="-57.2" font-family="Times,serif" font-size="14.00">idMan1_prop_idUnknownObject</text>
</g>
<!-- unconscious -->
<g id="node4" class="node">
<title>unconscious</title>
<ellipse fill="none" stroke="black" cx="409" cy="-18" rx="56.47" ry="18"/>
<text text-anchor="middle" x="409" y="-12.95" font-family="Times,serif" font-size="14.00">unconscious</text>
</g>
<!-- idMan1&#45;&gt;unconscious -->
<g id="edge3" class="edge">
<title>idMan1&#45;&gt;unconscious</title>
<path fill="none" stroke="black" d="M341.1,-96.89C356.73,-91.49 374.51,-83.1 387,-70.5 393.55,-63.9 398.27,-55.04 401.62,-46.54"/>
<polygon fill="black" stroke="black" points="405.25,-47.74 405.17,-37.15 398.62,-45.48 405.25,-47.74"/>
<text text-anchor="middle" x="473.25" y="-57.2" font-family="Times,serif" font-size="14.00">idMan1_prop_idDescriptor</text>
</g>
<!-- familiar -->
<g id="node5" class="node">
<title>familiar</title>
<ellipse fill="none" stroke="black" cx="581" cy="-18" rx="40.6" ry="18"/>
<text text-anchor="middle" x="581" y="-12.95" font-family="Times,serif" font-size="14.00">familiar</text>
</g>
<!-- idMan1&#45;&gt;familiar -->
<g id="edge4" class="edge">
<title>idMan1&#45;&gt;familiar</title>
<path fill="none" stroke="black" d="M346.99,-104.02C407.69,-101.09 519.46,-92.76 552,-70.5 560.61,-64.61 566.96,-55.27 571.48,-46.15"/>
<polygon fill="black" stroke="black" points="575.06,-47.71 575.84,-37.14 568.64,-44.92 575.06,-47.71"/>
<text text-anchor="middle" x="647" y="-57.2" font-family="Times,serif" font-size="14.00">idMan1_prop_idDescriptor_1</text>
</g>
</g>
</svg>
