<?xml version="1.0" encoding="UTF-8" standalone="no"?>
<!DOCTYPE svg PUBLIC "-//W3C//DTD SVG 1.1//EN"
 "http://www.w3.org/Graphics/SVG/1.1/DTD/svg11.dtd">
<!-- Generated by graphviz version 8.1.0 (20230707.0739)
 -->
<!-- Pages: 1 -->
<svg width="1645pt" height="133pt"
 viewBox="0.00 0.00 1645.18 132.50" xmlns="http://www.w3.org/2000/svg" xmlns:xlink="http://www.w3.org/1999/xlink">
<g id="graph0" class="graph" transform="scale(1 1) rotate(0) translate(4 128.5)">
<polygon fill="white" stroke="none" points="-4,4 -4,-128.5 1641.18,-128.5 1641.18,4 -4,4"/>
<!-- idPlayerRightHand -->
<g id="node1" class="node">
<title>idPlayerRightHand</title>
<ellipse fill="none" stroke="black" cx="832.32" cy="-106.5" rx="82.06" ry="18"/>
<text text-anchor="middle" x="832.32" y="-101.45" font-family="Times,serif" font-size="14.00">idPlayerRightHand</text>
</g>
<!-- right -->
<g id="node2" class="node">
<title>right</title>
<ellipse fill="none" stroke="black" cx="28.32" cy="-18" rx="28.32" ry="18"/>
<text text-anchor="middle" x="28.32" y="-12.95" font-family="Times,serif" font-size="14.00">right</text>
</g>
<!-- idPlayerRightHand&#45;&gt;right -->
<g id="edge1" class="edge">
<title>idPlayerRightHand&#45;&gt;right</title>
<path fill="none" stroke="black" d="M749.88,-106.11C588.63,-106.53 237.13,-103.48 121.32,-70.5 97.44,-63.7 72.97,-49.82 55.13,-38.18"/>
<polygon fill="black" stroke="black" points="57.7,-35.02 47.44,-32.35 53.79,-40.83 57.7,-35.02"/>
<text text-anchor="middle" x="221.82" y="-57.2" font-family="Times,serif" font-size="14.00">idPlayerRightHand_prop_idLocation</text>
</g>
<!-- idPlayer -->
<g id="node3" class="node">
<title>idPlayer</title>
<ellipse fill="none" stroke="black" cx="231.32" cy="-18" rx="41.63" ry="18"/>
<text text-anchor="middle" x="231.32" y="-12.95" font-family="Times,serif" font-size="14.00">idPlayer</text>
</g>
<!-- idPlayerRightHand&#45;&gt;idPlayer -->
<g id="edge2" class="edge">
<title>idPlayerRightHand&#45;&gt;idPlayer</title>
<path fill="none" stroke="black" d="M750.08,-104.93C659.92,-102.95 511.4,-95.67 386.07,-70.5 345.79,-62.41 301.46,-46.95 270.61,-35.07"/>
<polygon fill="black" stroke="black" points="272.27,-31.57 261.69,-31.19 269.73,-38.09 272.27,-31.57"/>
<text text-anchor="middle" x="403.95" y="-57.2" font-family="Times,serif" font-size="14.00">isNear</text>
</g>
<!-- idArea1 -->
<g id="node4" class="node">
<title>idArea1</title>
<ellipse fill="none" stroke="black" cx="331.32" cy="-18" rx="40.6" ry="18"/>
<text text-anchor="middle" x="331.32" y="-12.95" font-family="Times,serif" font-size="14.00">idArea1</text>
</g>
<!-- idPlayerRightHand&#45;&gt;idArea1 -->
<g id="edge3" class="edge">
<title>idPlayerRightHand&#45;&gt;idArea1</title>
<path fill="none" stroke="black" d="M751.85,-102.38C680.92,-98.45 575.12,-89.71 484.82,-70.5 445.1,-62.05 401.33,-46.74 370.72,-35"/>
<polygon fill="black" stroke="black" points="372.06,-31.37 361.48,-31.01 369.53,-37.9 372.06,-31.37"/>
<text text-anchor="middle" x="508.57" y="-57.2" font-family="Times,serif" font-size="14.00">isEastOf</text>
</g>
<!-- idBumper1 -->
<g id="node5" class="node">
<title>idBumper1</title>
<ellipse fill="none" stroke="black" cx="442.32" cy="-18" rx="52.89" ry="18"/>
<text text-anchor="middle" x="442.32" y="-12.95" font-family="Times,serif" font-size="14.00">idBumper1</text>
</g>
<!-- idPlayerRightHand&#45;&gt;idBumper1 -->
<g id="edge4" class="edge">
<title>idPlayerRightHand&#45;&gt;idBumper1</title>
<path fill="none" stroke="black" d="M757.45,-98.77C708.43,-93.4 643.25,-84.43 586.82,-70.5 551.7,-61.83 513.17,-47.87 484.74,-36.66"/>
<polygon fill="black" stroke="black" points="486.33,-33.13 475.74,-32.67 483.74,-39.63 486.33,-33.13"/>
<text text-anchor="middle" x="610.57" y="-57.2" font-family="Times,serif" font-size="14.00">isEastOf</text>
</g>
<!-- idCarKey1 -->
<g id="node6" class="node">
<title>idCarKey1</title>
<ellipse fill="none" stroke="black" cx="564.32" cy="-18" rx="51.35" ry="18"/>
<text text-anchor="middle" x="564.32" y="-12.95" font-family="Times,serif" font-size="14.00">idCarKey1</text>
</g>
<!-- idPlayerRightHand&#45;&gt;idCarKey1 -->
<g id="edge5" class="edge">
<title>idPlayerRightHand&#45;&gt;idCarKey1</title>
<path fill="none" stroke="black" d="M770.67,-94.36C742.33,-88.5 708.49,-80.45 678.82,-70.5 652.48,-61.67 623.98,-48.86 602,-38.23"/>
<polygon fill="black" stroke="black" points="603.91,-34.78 593.39,-33.52 600.83,-41.07 603.91,-34.78"/>
<text text-anchor="middle" x="702.57" y="-57.2" font-family="Times,serif" font-size="14.00">isEastOf</text>
</g>
<!-- idStump1 -->
<g id="node7" class="node">
<title>idStump1</title>
<ellipse fill="none" stroke="black" cx="681.32" cy="-18" rx="47.26" ry="18"/>
<text text-anchor="middle" x="681.32" y="-12.95" font-family="Times,serif" font-size="14.00">idStump1</text>
</g>
<!-- idPlayerRightHand&#45;&gt;idStump1 -->
<g id="edge6" class="edge">
<title>idPlayerRightHand&#45;&gt;idStump1</title>
<path fill="none" stroke="black" d="M794.04,-90.24C781,-84.57 766.52,-77.75 753.82,-70.5 738.68,-61.86 722.78,-50.82 709.75,-41.18"/>
<polygon fill="black" stroke="black" points="712.33,-37.98 702.23,-34.77 708.12,-43.58 712.33,-37.98"/>
<text text-anchor="middle" x="777.57" y="-57.2" font-family="Times,serif" font-size="14.00">isEastOf</text>
</g>
<!-- idDen1 -->
<g id="node8" class="node">
<title>idDen1</title>
<ellipse fill="none" stroke="black" cx="784.32" cy="-18" rx="38.04" ry="18"/>
<text text-anchor="middle" x="784.32" y="-12.95" font-family="Times,serif" font-size="14.00">idDen1</text>
</g>
<!-- idPlayerRightHand&#45;&gt;idDen1 -->
<g id="edge7" class="edge">
<title>idPlayerRightHand&#45;&gt;idDen1</title>
<path fill="none" stroke="black" d="M822.17,-88.49C818.83,-82.8 815.12,-76.4 811.82,-70.5 807.3,-62.41 802.5,-53.54 798.2,-45.47"/>
<polygon fill="black" stroke="black" points="800.84,-43.99 793.07,-36.79 794.66,-47.27 800.84,-43.99"/>
<text text-anchor="middle" x="835.57" y="-57.2" font-family="Times,serif" font-size="14.00">isEastOf</text>
</g>
<!-- idBear1 -->
<g id="node9" class="node">
<title>idBear1</title>
<ellipse fill="none" stroke="black" cx="880.32" cy="-18" rx="40.09" ry="18"/>
<text text-anchor="middle" x="880.32" y="-12.95" font-family="Times,serif" font-size="14.00">idBear1</text>
</g>
<!-- idPlayerRightHand&#45;&gt;idBear1 -->
<g id="edge8" class="edge">
<title>idPlayerRightHand&#45;&gt;idBear1</title>
<path fill="none" stroke="black" d="M846.12,-88.6C850.33,-83.03 854.78,-76.67 858.32,-70.5 862.7,-62.88 866.73,-54.22 870.11,-46.2"/>
<polygon fill="black" stroke="black" points="873.65,-47.76 874.15,-37.18 867.16,-45.14 873.65,-47.76"/>
<text text-anchor="middle" x="890.57" y="-57.2" font-family="Times,serif" font-size="14.00">isEastOf</text>
</g>
<!-- idTaillight1 -->
<g id="node10" class="node">
<title>idTaillight1</title>
<ellipse fill="none" stroke="black" cx="993.32" cy="-18" rx="54.42" ry="18"/>
<text text-anchor="middle" x="993.32" y="-12.95" font-family="Times,serif" font-size="14.00">idTaillight1</text>
</g>
<!-- idPlayerRightHand&#45;&gt;idTaillight1 -->
<g id="edge9" class="edge">
<title>idPlayerRightHand&#45;&gt;idTaillight1</title>
<path fill="none" stroke="black" d="M873.31,-90.59C887.54,-84.91 903.4,-77.98 917.32,-70.5 933.33,-61.9 950.15,-50.74 963.89,-41.01"/>
<polygon fill="black" stroke="black" points="965.36,-43.55 971.44,-34.87 961.27,-37.87 965.36,-43.55"/>
<text text-anchor="middle" x="966.57" y="-57.2" font-family="Times,serif" font-size="14.00">isEastOf</text>
</g>
<!-- idTire1 -->
<g id="node11" class="node">
<title>idTire1</title>
<ellipse fill="none" stroke="black" cx="1103.32" cy="-18" rx="38.04" ry="18"/>
<text text-anchor="middle" x="1103.32" y="-12.95" font-family="Times,serif" font-size="14.00">idTire1</text>
</g>
<!-- idPlayerRightHand&#45;&gt;idTire1 -->
<g id="edge10" class="edge">
<title>idPlayerRightHand&#45;&gt;idTire1</title>
<path fill="none" stroke="black" d="M896.68,-94.93C926.5,-89.17 962.16,-81.03 993.32,-70.5 1019.71,-61.58 1048.15,-48.16 1069.5,-37.25"/>
<polygon fill="black" stroke="black" points="1070.81,-40 1078.07,-32.28 1067.58,-33.78 1070.81,-40"/>
<text text-anchor="middle" x="1057.57" y="-57.2" font-family="Times,serif" font-size="14.00">isEastOf</text>
</g>
<!-- idClearing1 -->
<g id="node12" class="node">
<title>idClearing1</title>
<ellipse fill="none" stroke="black" cx="1213.32" cy="-18" rx="54.42" ry="18"/>
<text text-anchor="middle" x="1213.32" y="-12.95" font-family="Times,serif" font-size="14.00">idClearing1</text>
</g>
<!-- idPlayerRightHand&#45;&gt;idClearing1 -->
<g id="edge11" class="edge">
<title>idPlayerRightHand&#45;&gt;idClearing1</title>
<path fill="none" stroke="black" d="M909.08,-99.69C959.5,-94.7 1026.57,-85.8 1084.32,-70.5 1115.05,-62.36 1148.34,-48.95 1173.41,-37.85"/>
<polygon fill="black" stroke="black" points="1174.58,-40.71 1182.27,-33.41 1171.71,-34.32 1174.58,-40.71"/>
<text text-anchor="middle" x="1157.82" y="-57.2" font-family="Times,serif" font-size="14.00">isWestOf</text>
</g>
<!-- idBush1 -->
<g id="node13" class="node">
<title>idBush1</title>
<ellipse fill="none" stroke="black" cx="1327.32" cy="-18" rx="41.63" ry="18"/>
<text text-anchor="middle" x="1327.32" y="-12.95" font-family="Times,serif" font-size="14.00">idBush1</text>
</g>
<!-- idPlayerRightHand&#45;&gt;idBush1 -->
<g id="edge12" class="edge">
<title>idPlayerRightHand&#45;&gt;idBush1</title>
<path fill="none" stroke="black" d="M913.63,-103.35C986.2,-100.04 1094.96,-91.68 1187.32,-70.5 1222.8,-62.37 1261.52,-47.64 1289.23,-36.01"/>
<polygon fill="black" stroke="black" points="1290.45,-38.87 1298.28,-31.73 1287.71,-32.43 1290.45,-38.87"/>
<text text-anchor="middle" x="1267.82" y="-57.2" font-family="Times,serif" font-size="14.00">isWestOf</text>
</g>
<!-- idSideMirror1 -->
<g id="node14" class="node">
<title>idSideMirror1</title>
<ellipse fill="none" stroke="black" cx="1451.32" cy="-18" rx="64.15" ry="18"/>
<text text-anchor="middle" x="1451.32" y="-12.95" font-family="Times,serif" font-size="14.00">idSideMirror1</text>
</g>
<!-- idPlayerRightHand&#45;&gt;idSideMirror1 -->
<g id="edge13" class="edge">
<title>idPlayerRightHand&#45;&gt;idSideMirror1</title>
<path fill="none" stroke="black" d="M914.63,-105.42C1008.23,-103.93 1165.18,-97.14 1297.32,-70.5 1334.77,-62.95 1375.73,-48.96 1405.98,-37.47"/>
<polygon fill="black" stroke="black" points="1407.15,-40.38 1415.22,-33.52 1404.63,-33.85 1407.15,-40.38"/>
<text text-anchor="middle" x="1383.82" y="-57.2" font-family="Times,serif" font-size="14.00">isWestOf</text>
</g>
<!-- idWhistle1 -->
<g id="node15" class="node">
<title>idWhistle1</title>
<ellipse fill="none" stroke="black" cx="1585.32" cy="-18" rx="51.86" ry="18"/>
<text text-anchor="middle" x="1585.32" y="-12.95" font-family="Times,serif" font-size="14.00">idWhistle1</text>
</g>
<!-- idPlayerRightHand&#45;&gt;idWhistle1 -->
<g id="edge14" class="edge">
<title>idPlayerRightHand&#45;&gt;idWhistle1</title>
<path fill="none" stroke="black" d="M914.8,-106.48C1028.07,-106.48 1237.71,-101.65 1413.32,-70.5 1457.55,-62.66 1506.48,-47.33 1540.81,-35.42"/>
<polygon fill="black" stroke="black" points="1541.7,-38.47 1549.97,-31.85 1539.38,-31.86 1541.7,-38.47"/>
<text text-anchor="middle" x="1506.82" y="-57.2" font-family="Times,serif" font-size="14.00">isWestOf</text>
</g>
</g>
</svg>
