<?xml version="1.0" encoding="UTF-8" standalone="no"?>
<!DOCTYPE svg PUBLIC "-//W3C//DTD SVG 1.1//EN"
 "http://www.w3.org/Graphics/SVG/1.1/DTD/svg11.dtd">
<!-- Generated by graphviz version 8.1.0 (20230707.0739)
 -->
<!-- Pages: 1 -->
<svg width="1455pt" height="133pt"
 viewBox="0.00 0.00 1455.49 132.50" xmlns="http://www.w3.org/2000/svg" xmlns:xlink="http://www.w3.org/1999/xlink">
<g id="graph0" class="graph" transform="scale(1 1) rotate(0) translate(4 128.5)">
<polygon fill="white" stroke="none" points="-4,4 -4,-128.5 1451.49,-128.5 1451.49,4 -4,4"/>
<!-- idPlayerBackside -->
<g id="node1" class="node">
<title>idPlayerBackside</title>
<ellipse fill="none" stroke="black" cx="690.63" cy="-106.5" rx="75.41" ry="18"/>
<text text-anchor="middle" x="690.63" y="-101.45" font-family="Times,serif" font-size="14.00">idPlayerBackside</text>
</g>
<!-- idPlayer -->
<g id="node2" class="node">
<title>idPlayer</title>
<ellipse fill="none" stroke="black" cx="41.63" cy="-18" rx="41.63" ry="18"/>
<text text-anchor="middle" x="41.63" y="-12.95" font-family="Times,serif" font-size="14.00">idPlayer</text>
</g>
<!-- idPlayerBackside&#45;&gt;idPlayer -->
<g id="edge1" class="edge">
<title>idPlayerBackside&#45;&gt;idPlayer</title>
<path fill="none" stroke="black" d="M615.09,-105.84C517.65,-104.98 343.35,-99.04 197.38,-70.5 156.7,-62.55 111.93,-46.99 80.87,-35.05"/>
<polygon fill="black" stroke="black" points="82.48,-31.53 71.89,-31.15 79.93,-38.05 82.48,-31.53"/>
<text text-anchor="middle" x="215.25" y="-57.2" font-family="Times,serif" font-size="14.00">isNear</text>
</g>
<!-- idArea1 -->
<g id="node3" class="node">
<title>idArea1</title>
<ellipse fill="none" stroke="black" cx="141.63" cy="-18" rx="40.6" ry="18"/>
<text text-anchor="middle" x="141.63" y="-12.95" font-family="Times,serif" font-size="14.00">idArea1</text>
</g>
<!-- idPlayerBackside&#45;&gt;idArea1 -->
<g id="edge2" class="edge">
<title>idPlayerBackside&#45;&gt;idArea1</title>
<path fill="none" stroke="black" d="M615.73,-103.91C535.83,-101.05 405.92,-93.02 296.13,-70.5 255.81,-62.23 211.4,-46.72 180.58,-34.87"/>
<polygon fill="black" stroke="black" points="182.26,-31.38 171.67,-31.01 179.72,-37.9 182.26,-31.38"/>
<text text-anchor="middle" x="319.88" y="-57.2" font-family="Times,serif" font-size="14.00">isEastOf</text>
</g>
<!-- idBumper1 -->
<g id="node4" class="node">
<title>idBumper1</title>
<ellipse fill="none" stroke="black" cx="252.63" cy="-18" rx="52.89" ry="18"/>
<text text-anchor="middle" x="252.63" y="-12.95" font-family="Times,serif" font-size="14.00">idBumper1</text>
</g>
<!-- idPlayerBackside&#45;&gt;idBumper1 -->
<g id="edge3" class="edge">
<title>idPlayerBackside&#45;&gt;idBumper1</title>
<path fill="none" stroke="black" d="M618.25,-101.14C559.01,-96.53 473.37,-87.49 400.13,-70.5 364,-62.12 324.4,-48 295.33,-36.67"/>
<polygon fill="black" stroke="black" points="296.71,-33.05 286.12,-32.63 294.14,-39.56 296.71,-33.05"/>
<text text-anchor="middle" x="423.88" y="-57.2" font-family="Times,serif" font-size="14.00">isEastOf</text>
</g>
<!-- idCarKey1 -->
<g id="node5" class="node">
<title>idCarKey1</title>
<ellipse fill="none" stroke="black" cx="374.63" cy="-18" rx="51.35" ry="18"/>
<text text-anchor="middle" x="374.63" y="-12.95" font-family="Times,serif" font-size="14.00">idCarKey1</text>
</g>
<!-- idPlayerBackside&#45;&gt;idCarKey1 -->
<g id="edge4" class="edge">
<title>idPlayerBackside&#45;&gt;idCarKey1</title>
<path fill="none" stroke="black" d="M624.34,-97.71C585.57,-92.18 535.97,-83.41 493.13,-70.5 465.25,-62.1 435.18,-48.98 412.31,-38.08"/>
<polygon fill="black" stroke="black" points="414.18,-34.62 403.65,-33.42 411.13,-40.92 414.18,-34.62"/>
<text text-anchor="middle" x="516.88" y="-57.2" font-family="Times,serif" font-size="14.00">isEastOf</text>
</g>
<!-- idStump1 -->
<g id="node6" class="node">
<title>idStump1</title>
<ellipse fill="none" stroke="black" cx="491.63" cy="-18" rx="47.26" ry="18"/>
<text text-anchor="middle" x="491.63" y="-12.95" font-family="Times,serif" font-size="14.00">idStump1</text>
</g>
<!-- idPlayerBackside&#45;&gt;idStump1 -->
<g id="edge5" class="edge">
<title>idPlayerBackside&#45;&gt;idStump1</title>
<path fill="none" stroke="black" d="M638.8,-93.12C618.22,-87.39 594.62,-79.77 574.13,-70.5 555.91,-62.26 536.89,-50.62 521.71,-40.49"/>
<polygon fill="black" stroke="black" points="524.04,-37.16 513.8,-34.43 520.1,-42.95 524.04,-37.16"/>
<text text-anchor="middle" x="597.88" y="-57.2" font-family="Times,serif" font-size="14.00">isEastOf</text>
</g>
<!-- idDen1 -->
<g id="node7" class="node">
<title>idDen1</title>
<ellipse fill="none" stroke="black" cx="594.63" cy="-18" rx="38.04" ry="18"/>
<text text-anchor="middle" x="594.63" y="-12.95" font-family="Times,serif" font-size="14.00">idDen1</text>
</g>
<!-- idPlayerBackside&#45;&gt;idDen1 -->
<g id="edge6" class="edge">
<title>idPlayerBackside&#45;&gt;idDen1</title>
<path fill="none" stroke="black" d="M664.56,-89.19C656.42,-83.65 647.62,-77.16 640.13,-70.5 630.94,-62.33 621.77,-52.39 614.1,-43.43"/>
<polygon fill="black" stroke="black" points="616.35,-41.67 607.25,-36.23 610.98,-46.15 616.35,-41.67"/>
<text text-anchor="middle" x="663.88" y="-57.2" font-family="Times,serif" font-size="14.00">isEastOf</text>
</g>
<!-- idBear1 -->
<g id="node8" class="node">
<title>idBear1</title>
<ellipse fill="none" stroke="black" cx="690.63" cy="-18" rx="40.09" ry="18"/>
<text text-anchor="middle" x="690.63" y="-12.95" font-family="Times,serif" font-size="14.00">idBear1</text>
</g>
<!-- idPlayerBackside&#45;&gt;idBear1 -->
<g id="edge7" class="edge">
<title>idPlayerBackside&#45;&gt;idBear1</title>
<path fill="none" stroke="black" d="M690.63,-88.41C690.63,-76.64 690.63,-60.73 690.63,-47.11"/>
<polygon fill="black" stroke="black" points="694.13,-47.35 690.63,-37.35 687.13,-47.35 694.13,-47.35"/>
<text text-anchor="middle" x="713.88" y="-57.2" font-family="Times,serif" font-size="14.00">isEastOf</text>
</g>
<!-- idTaillight1 -->
<g id="node9" class="node">
<title>idTaillight1</title>
<ellipse fill="none" stroke="black" cx="803.63" cy="-18" rx="54.42" ry="18"/>
<text text-anchor="middle" x="803.63" y="-12.95" font-family="Times,serif" font-size="14.00">idTaillight1</text>
</g>
<!-- idPlayerBackside&#45;&gt;idTaillight1 -->
<g id="edge8" class="edge">
<title>idPlayerBackside&#45;&gt;idTaillight1</title>
<path fill="none" stroke="black" d="M714.79,-89.12C723.08,-83.37 732.35,-76.77 740.63,-70.5 752.54,-61.48 765.35,-51.13 776.3,-42.08"/>
<polygon fill="black" stroke="black" points="778.18,-44.24 783.62,-35.16 773.7,-38.86 778.18,-44.24"/>
<text text-anchor="middle" x="783.88" y="-57.2" font-family="Times,serif" font-size="14.00">isEastOf</text>
</g>
<!-- idTire1 -->
<g id="node10" class="node">
<title>idTire1</title>
<ellipse fill="none" stroke="black" cx="913.63" cy="-18" rx="38.04" ry="18"/>
<text text-anchor="middle" x="913.63" y="-12.95" font-family="Times,serif" font-size="14.00">idTire1</text>
</g>
<!-- idPlayerBackside&#45;&gt;idTire1 -->
<g id="edge9" class="edge">
<title>idPlayerBackside&#45;&gt;idTire1</title>
<path fill="none" stroke="black" d="M741.51,-92.84C763.12,-86.9 788.4,-79.22 810.63,-70.5 834.67,-61.07 860.67,-48.05 880.54,-37.45"/>
<polygon fill="black" stroke="black" points="881.91,-40.15 889.04,-32.32 878.58,-33.99 881.91,-40.15"/>
<text text-anchor="middle" x="868.88" y="-57.2" font-family="Times,serif" font-size="14.00">isEastOf</text>
</g>
<!-- idClearing1 -->
<g id="node11" class="node">
<title>idClearing1</title>
<ellipse fill="none" stroke="black" cx="1023.63" cy="-18" rx="54.42" ry="18"/>
<text text-anchor="middle" x="1023.63" y="-12.95" font-family="Times,serif" font-size="14.00">idClearing1</text>
</g>
<!-- idPlayerBackside&#45;&gt;idClearing1 -->
<g id="edge10" class="edge">
<title>idPlayerBackside&#45;&gt;idClearing1</title>
<path fill="none" stroke="black" d="M757.44,-97.76C797.9,-92.18 850.29,-83.33 895.63,-70.5 925.81,-61.96 958.61,-48.68 983.45,-37.74"/>
<polygon fill="black" stroke="black" points="984.53,-40.65 992.23,-33.38 981.68,-34.26 984.53,-40.65"/>
<text text-anchor="middle" x="968.13" y="-57.2" font-family="Times,serif" font-size="14.00">isWestOf</text>
</g>
<!-- idBush1 -->
<g id="node12" class="node">
<title>idBush1</title>
<ellipse fill="none" stroke="black" cx="1137.63" cy="-18" rx="41.63" ry="18"/>
<text text-anchor="middle" x="1137.63" y="-12.95" font-family="Times,serif" font-size="14.00">idBush1</text>
</g>
<!-- idPlayerBackside&#45;&gt;idBush1 -->
<g id="edge11" class="edge">
<title>idPlayerBackside&#45;&gt;idBush1</title>
<path fill="none" stroke="black" d="M764.05,-102.06C826.78,-97.96 919.07,-89.14 997.63,-70.5 1033.04,-62.1 1071.77,-47.4 1099.49,-35.85"/>
<polygon fill="black" stroke="black" points="1100.71,-38.71 1108.55,-31.6 1097.98,-32.27 1100.71,-38.71"/>
<text text-anchor="middle" x="1075.13" y="-57.2" font-family="Times,serif" font-size="14.00">isWestOf</text>
</g>
<!-- idSideMirror1 -->
<g id="node13" class="node">
<title>idSideMirror1</title>
<ellipse fill="none" stroke="black" cx="1261.63" cy="-18" rx="64.15" ry="18"/>
<text text-anchor="middle" x="1261.63" y="-12.95" font-family="Times,serif" font-size="14.00">idSideMirror1</text>
</g>
<!-- idPlayerBackside&#45;&gt;idSideMirror1 -->
<g id="edge12" class="edge">
<title>idPlayerBackside&#45;&gt;idSideMirror1</title>
<path fill="none" stroke="black" d="M765.78,-104.38C849.31,-101.93 987.82,-94.26 1104.63,-70.5 1143.02,-62.69 1185.12,-48.56 1216.06,-37.07"/>
<polygon fill="black" stroke="black" points="1216.98,-40.09 1225.1,-33.29 1214.51,-33.54 1216.98,-40.09"/>
<text text-anchor="middle" x="1192.13" y="-57.2" font-family="Times,serif" font-size="14.00">isWestOf</text>
</g>
<!-- idWhistle1 -->
<g id="node14" class="node">
<title>idWhistle1</title>
<ellipse fill="none" stroke="black" cx="1395.63" cy="-18" rx="51.86" ry="18"/>
<text text-anchor="middle" x="1395.63" y="-12.95" font-family="Times,serif" font-size="14.00">idWhistle1</text>
</g>
<!-- idPlayerBackside&#45;&gt;idWhistle1 -->
<g id="edge13" class="edge">
<title>idPlayerBackside&#45;&gt;idWhistle1</title>
<path fill="none" stroke="black" d="M766.45,-105.76C870.06,-104.93 1061.33,-99.14 1221.63,-70.5 1266.31,-62.52 1315.82,-47.2 1350.57,-35.34"/>
<polygon fill="black" stroke="black" points="1351.55,-38.36 1359.85,-31.78 1349.26,-31.75 1351.55,-38.36"/>
<text text-anchor="middle" x="1315.13" y="-57.2" font-family="Times,serif" font-size="14.00">isWestOf</text>
</g>
</g>
</svg>
