<?xml version="1.0" encoding="UTF-8" standalone="no"?>
<!DOCTYPE svg PUBLIC "-//W3C//DTD SVG 1.1//EN"
 "http://www.w3.org/Graphics/SVG/1.1/DTD/svg11.dtd">
<!-- Generated by graphviz version 8.1.0 (20230707.0739)
 -->
<!-- Pages: 1 -->
<svg width="1664pt" height="133pt"
 viewBox="0.00 0.00 1664.29 132.50" xmlns="http://www.w3.org/2000/svg" xmlns:xlink="http://www.w3.org/1999/xlink">
<g id="graph0" class="graph" transform="scale(1 1) rotate(0) translate(4 128.5)">
<polygon fill="white" stroke="none" points="-4,4 -4,-128.5 1660.29,-128.5 1660.29,4 -4,4"/>
<!-- idPlayerLeftHand -->
<g id="node1" class="node">
<title>idPlayerLeftHand</title>
<ellipse fill="none" stroke="black" cx="851.42" cy="-106.5" rx="76.94" ry="18"/>
<text text-anchor="middle" x="851.42" y="-101.45" font-family="Times,serif" font-size="14.00">idPlayerLeftHand</text>
</g>
<!-- idLocalLeft -->
<g id="node2" class="node">
<title>idLocalLeft</title>
<ellipse fill="none" stroke="black" cx="54.42" cy="-18" rx="54.42" ry="18"/>
<text text-anchor="middle" x="54.42" y="-12.95" font-family="Times,serif" font-size="14.00">idLocalLeft</text>
</g>
<!-- idPlayerLeftHand&#45;&gt;idLocalLeft -->
<g id="edge1" class="edge">
<title>idPlayerLeftHand&#45;&gt;idLocalLeft</title>
<path fill="none" stroke="black" d="M774.11,-106.02C616.58,-106.38 263.58,-103.33 147.92,-70.5 125.66,-64.18 102.87,-51.77 85.36,-40.72"/>
<polygon fill="black" stroke="black" points="87.51,-37.29 77.22,-34.76 83.69,-43.15 87.51,-37.29"/>
<text text-anchor="middle" x="245.17" y="-57.2" font-family="Times,serif" font-size="14.00">idPlayerLeftHand_prop_idLocation</text>
</g>
<!-- idPlayer -->
<g id="node3" class="node">
<title>idPlayer</title>
<ellipse fill="none" stroke="black" cx="250.42" cy="-18" rx="41.63" ry="18"/>
<text text-anchor="middle" x="250.42" y="-12.95" font-family="Times,serif" font-size="14.00">idPlayer</text>
</g>
<!-- idPlayerLeftHand&#45;&gt;idPlayer -->
<g id="edge2" class="edge">
<title>idPlayerLeftHand&#45;&gt;idPlayer</title>
<path fill="none" stroke="black" d="M774.46,-105.04C684.9,-103.23 532.98,-96.17 405.17,-70.5 364.89,-62.41 320.56,-46.95 289.71,-35.07"/>
<polygon fill="black" stroke="black" points="291.38,-31.57 280.79,-31.19 288.83,-38.09 291.38,-31.57"/>
<text text-anchor="middle" x="423.05" y="-57.2" font-family="Times,serif" font-size="14.00">isNear</text>
</g>
<!-- idArea1 -->
<g id="node4" class="node">
<title>idArea1</title>
<ellipse fill="none" stroke="black" cx="350.42" cy="-18" rx="40.6" ry="18"/>
<text text-anchor="middle" x="350.42" y="-12.95" font-family="Times,serif" font-size="14.00">idArea1</text>
</g>
<!-- idPlayerLeftHand&#45;&gt;idArea1 -->
<g id="edge3" class="edge">
<title>idPlayerLeftHand&#45;&gt;idArea1</title>
<path fill="none" stroke="black" d="M775.79,-102.64C704.89,-98.85 596.29,-90.15 503.92,-70.5 464.2,-62.05 420.43,-46.74 389.83,-35"/>
<polygon fill="black" stroke="black" points="391.17,-31.37 380.58,-31.01 388.63,-37.9 391.17,-31.37"/>
<text text-anchor="middle" x="527.67" y="-57.2" font-family="Times,serif" font-size="14.00">isEastOf</text>
</g>
<!-- idBumper1 -->
<g id="node5" class="node">
<title>idBumper1</title>
<ellipse fill="none" stroke="black" cx="461.42" cy="-18" rx="52.89" ry="18"/>
<text text-anchor="middle" x="461.42" y="-12.95" font-family="Times,serif" font-size="14.00">idBumper1</text>
</g>
<!-- idPlayerLeftHand&#45;&gt;idBumper1 -->
<g id="edge4" class="edge">
<title>idPlayerLeftHand&#45;&gt;idBumper1</title>
<path fill="none" stroke="black" d="M780.33,-99.18C730.92,-93.86 663.81,-84.79 605.92,-70.5 570.8,-61.83 532.28,-47.87 503.84,-36.66"/>
<polygon fill="black" stroke="black" points="505.43,-33.13 494.85,-32.67 502.84,-39.63 505.43,-33.13"/>
<text text-anchor="middle" x="629.67" y="-57.2" font-family="Times,serif" font-size="14.00">isEastOf</text>
</g>
<!-- idCarKey1 -->
<g id="node6" class="node">
<title>idCarKey1</title>
<ellipse fill="none" stroke="black" cx="583.42" cy="-18" rx="51.35" ry="18"/>
<text text-anchor="middle" x="583.42" y="-12.95" font-family="Times,serif" font-size="14.00">idCarKey1</text>
</g>
<!-- idPlayerLeftHand&#45;&gt;idCarKey1 -->
<g id="edge5" class="edge">
<title>idPlayerLeftHand&#45;&gt;idCarKey1</title>
<path fill="none" stroke="black" d="M791.99,-94.81C763.21,-88.92 728.37,-80.71 697.92,-70.5 671.58,-61.67 643.08,-48.86 621.1,-38.23"/>
<polygon fill="black" stroke="black" points="623.02,-34.78 612.5,-33.52 619.93,-41.07 623.02,-34.78"/>
<text text-anchor="middle" x="721.67" y="-57.2" font-family="Times,serif" font-size="14.00">isEastOf</text>
</g>
<!-- idStump1 -->
<g id="node7" class="node">
<title>idStump1</title>
<ellipse fill="none" stroke="black" cx="700.42" cy="-18" rx="47.26" ry="18"/>
<text text-anchor="middle" x="700.42" y="-12.95" font-family="Times,serif" font-size="14.00">idStump1</text>
</g>
<!-- idPlayerLeftHand&#45;&gt;idStump1 -->
<g id="edge6" class="edge">
<title>idPlayerLeftHand&#45;&gt;idStump1</title>
<path fill="none" stroke="black" d="M813.54,-90.42C800.4,-84.71 785.75,-77.82 772.92,-70.5 757.78,-61.86 741.89,-50.82 728.85,-41.18"/>
<polygon fill="black" stroke="black" points="731.43,-37.98 721.33,-34.77 727.22,-43.58 731.43,-37.98"/>
<text text-anchor="middle" x="796.67" y="-57.2" font-family="Times,serif" font-size="14.00">isEastOf</text>
</g>
<!-- idDen1 -->
<g id="node8" class="node">
<title>idDen1</title>
<ellipse fill="none" stroke="black" cx="803.42" cy="-18" rx="38.04" ry="18"/>
<text text-anchor="middle" x="803.42" y="-12.95" font-family="Times,serif" font-size="14.00">idDen1</text>
</g>
<!-- idPlayerLeftHand&#45;&gt;idDen1 -->
<g id="edge7" class="edge">
<title>idPlayerLeftHand&#45;&gt;idDen1</title>
<path fill="none" stroke="black" d="M841.28,-88.49C837.93,-82.8 834.22,-76.4 830.92,-70.5 826.4,-62.41 821.6,-53.54 817.3,-45.47"/>
<polygon fill="black" stroke="black" points="819.95,-43.99 812.17,-36.79 813.76,-47.27 819.95,-43.99"/>
<text text-anchor="middle" x="854.67" y="-57.2" font-family="Times,serif" font-size="14.00">isEastOf</text>
</g>
<!-- idBear1 -->
<g id="node9" class="node">
<title>idBear1</title>
<ellipse fill="none" stroke="black" cx="899.42" cy="-18" rx="40.09" ry="18"/>
<text text-anchor="middle" x="899.42" y="-12.95" font-family="Times,serif" font-size="14.00">idBear1</text>
</g>
<!-- idPlayerLeftHand&#45;&gt;idBear1 -->
<g id="edge8" class="edge">
<title>idPlayerLeftHand&#45;&gt;idBear1</title>
<path fill="none" stroke="black" d="M865.22,-88.6C869.43,-83.03 873.88,-76.67 877.42,-70.5 881.8,-62.88 885.83,-54.22 889.21,-46.2"/>
<polygon fill="black" stroke="black" points="892.76,-47.76 893.25,-37.18 886.27,-45.14 892.76,-47.76"/>
<text text-anchor="middle" x="909.67" y="-57.2" font-family="Times,serif" font-size="14.00">isEastOf</text>
</g>
<!-- idTaillight1 -->
<g id="node10" class="node">
<title>idTaillight1</title>
<ellipse fill="none" stroke="black" cx="1012.42" cy="-18" rx="54.42" ry="18"/>
<text text-anchor="middle" x="1012.42" y="-12.95" font-family="Times,serif" font-size="14.00">idTaillight1</text>
</g>
<!-- idPlayerLeftHand&#45;&gt;idTaillight1 -->
<g id="edge9" class="edge">
<title>idPlayerLeftHand&#45;&gt;idTaillight1</title>
<path fill="none" stroke="black" d="M891.98,-90.76C906.32,-85.05 922.36,-78.05 936.42,-70.5 952.43,-61.9 969.26,-50.74 982.99,-41.01"/>
<polygon fill="black" stroke="black" points="984.46,-43.55 990.54,-34.87 980.38,-37.87 984.46,-43.55"/>
<text text-anchor="middle" x="985.67" y="-57.2" font-family="Times,serif" font-size="14.00">isEastOf</text>
</g>
<!-- idTire1 -->
<g id="node11" class="node">
<title>idTire1</title>
<ellipse fill="none" stroke="black" cx="1122.42" cy="-18" rx="38.04" ry="18"/>
<text text-anchor="middle" x="1122.42" y="-12.95" font-family="Times,serif" font-size="14.00">idTire1</text>
</g>
<!-- idPlayerLeftHand&#45;&gt;idTire1 -->
<g id="edge10" class="edge">
<title>idPlayerLeftHand&#45;&gt;idTire1</title>
<path fill="none" stroke="black" d="M913.08,-95.45C943.43,-89.66 980.31,-81.35 1012.42,-70.5 1038.81,-61.58 1067.25,-48.16 1088.6,-37.25"/>
<polygon fill="black" stroke="black" points="1089.91,-40 1097.17,-32.28 1086.68,-33.78 1089.91,-40"/>
<text text-anchor="middle" x="1076.67" y="-57.2" font-family="Times,serif" font-size="14.00">isEastOf</text>
</g>
<!-- idClearing1 -->
<g id="node12" class="node">
<title>idClearing1</title>
<ellipse fill="none" stroke="black" cx="1232.42" cy="-18" rx="54.42" ry="18"/>
<text text-anchor="middle" x="1232.42" y="-12.95" font-family="Times,serif" font-size="14.00">idClearing1</text>
</g>
<!-- idPlayerLeftHand&#45;&gt;idClearing1 -->
<g id="edge11" class="edge">
<title>idPlayerLeftHand&#45;&gt;idClearing1</title>
<path fill="none" stroke="black" d="M924.03,-100.1C974.88,-95.19 1044.07,-86.22 1103.42,-70.5 1134.15,-62.36 1167.45,-48.95 1192.51,-37.85"/>
<polygon fill="black" stroke="black" points="1193.69,-40.71 1201.37,-33.41 1190.82,-34.32 1193.69,-40.71"/>
<text text-anchor="middle" x="1176.92" y="-57.2" font-family="Times,serif" font-size="14.00">isWestOf</text>
</g>
<!-- idBush1 -->
<g id="node13" class="node">
<title>idBush1</title>
<ellipse fill="none" stroke="black" cx="1346.42" cy="-18" rx="41.63" ry="18"/>
<text text-anchor="middle" x="1346.42" y="-12.95" font-family="Times,serif" font-size="14.00">idBush1</text>
</g>
<!-- idPlayerLeftHand&#45;&gt;idBush1 -->
<g id="edge12" class="edge">
<title>idPlayerLeftHand&#45;&gt;idBush1</title>
<path fill="none" stroke="black" d="M927.81,-103.56C1000.31,-100.42 1111.95,-92.16 1206.42,-70.5 1241.9,-62.37 1280.62,-47.64 1308.33,-36.01"/>
<polygon fill="black" stroke="black" points="1309.55,-38.87 1317.38,-31.73 1306.81,-32.43 1309.55,-38.87"/>
<text text-anchor="middle" x="1286.92" y="-57.2" font-family="Times,serif" font-size="14.00">isWestOf</text>
</g>
<!-- idSideMirror1 -->
<g id="node14" class="node">
<title>idSideMirror1</title>
<ellipse fill="none" stroke="black" cx="1470.42" cy="-18" rx="64.15" ry="18"/>
<text text-anchor="middle" x="1470.42" y="-12.95" font-family="Times,serif" font-size="14.00">idSideMirror1</text>
</g>
<!-- idPlayerLeftHand&#45;&gt;idSideMirror1 -->
<g id="edge13" class="edge">
<title>idPlayerLeftHand&#45;&gt;idSideMirror1</title>
<path fill="none" stroke="black" d="M928.74,-105.5C1021.67,-104.17 1181.91,-97.62 1316.42,-70.5 1353.87,-62.95 1394.83,-48.96 1425.09,-37.47"/>
<polygon fill="black" stroke="black" points="1426.25,-40.38 1434.32,-33.52 1423.73,-33.85 1426.25,-40.38"/>
<text text-anchor="middle" x="1402.92" y="-57.2" font-family="Times,serif" font-size="14.00">isWestOf</text>
</g>
<!-- idWhistle1 -->
<g id="node15" class="node">
<title>idWhistle1</title>
<ellipse fill="none" stroke="black" cx="1604.42" cy="-18" rx="51.86" ry="18"/>
<text text-anchor="middle" x="1604.42" y="-12.95" font-family="Times,serif" font-size="14.00">idWhistle1</text>
</g>
<!-- idPlayerLeftHand&#45;&gt;idWhistle1 -->
<g id="edge14" class="edge">
<title>idPlayerLeftHand&#45;&gt;idWhistle1</title>
<path fill="none" stroke="black" d="M928.68,-106.48C1040.63,-106.63 1254.07,-102.13 1432.42,-70.5 1476.65,-62.66 1525.58,-47.33 1559.91,-35.42"/>
<polygon fill="black" stroke="black" points="1560.8,-38.47 1569.07,-31.85 1558.48,-31.86 1560.8,-38.47"/>
<text text-anchor="middle" x="1525.92" y="-57.2" font-family="Times,serif" font-size="14.00">isWestOf</text>
</g>
</g>
</svg>
