<?xml version="1.0" encoding="UTF-8" standalone="no"?>
<!DOCTYPE svg PUBLIC "-//W3C//DTD SVG 1.1//EN"
 "http://www.w3.org/Graphics/SVG/1.1/DTD/svg11.dtd">
<!-- Generated by graphviz version 8.1.0 (20230707.0739)
 -->
<!-- Pages: 1 -->
<svg width="1832pt" height="133pt"
 viewBox="0.00 0.00 1832.18 132.50" xmlns="http://www.w3.org/2000/svg" xmlns:xlink="http://www.w3.org/1999/xlink">
<g id="graph0" class="graph" transform="scale(1 1) rotate(0) translate(4 128.5)">
<polygon fill="white" stroke="none" points="-4,4 -4,-128.5 1828.18,-128.5 1828.18,4 -4,4"/>
<!-- idPlayer -->
<g id="node1" class="node">
<title>idPlayer</title>
<ellipse fill="none" stroke="black" cx="919.32" cy="-106.5" rx="41.63" ry="18"/>
<text text-anchor="middle" x="919.32" y="-101.45" font-family="Times,serif" font-size="14.00">idPlayer</text>
</g>
<!-- idPlayer&#45;&gt;idPlayer -->
<g id="edge4" class="edge">
<title>idPlayer&#45;&gt;idPlayer</title>
<path fill="none" stroke="black" d="M956.88,-114.8C969.16,-114.75 978.95,-111.99 978.95,-106.5 978.95,-102.73 974.32,-100.24 967.44,-99.04"/>
<polygon fill="black" stroke="black" points="968.12,-95.51 957.88,-98.2 967.57,-102.48 968.12,-95.51"/>
<text text-anchor="middle" x="996.57" y="-101.45" font-family="Times,serif" font-size="14.00">isNear</text>
</g>
<!-- false -->
<g id="node2" class="node">
<title>false</title>
<ellipse fill="none" stroke="black" cx="28.32" cy="-18" rx="28.32" ry="18"/>
<text text-anchor="middle" x="28.32" y="-12.95" font-family="Times,serif" font-size="14.00">false</text>
</g>
<!-- idPlayer&#45;&gt;false -->
<g id="edge1" class="edge">
<title>idPlayer&#45;&gt;false</title>
<path fill="none" stroke="black" d="M877.6,-105.94C735.91,-107.06 274.08,-107.7 131.07,-70.5 104.47,-63.58 76.75,-49.2 56.82,-37.39"/>
<polygon fill="black" stroke="black" points="58.78,-33.88 48.42,-31.67 55.15,-39.86 58.78,-33.88"/>
<text text-anchor="middle" x="208.95" y="-57.2" font-family="Times,serif" font-size="14.00">idPlayer_prop_idEatenBerry</text>
</g>
<!-- idTheCarRoom1 -->
<g id="node3" class="node">
<title>idTheCarRoom1</title>
<ellipse fill="none" stroke="black" cx="177.32" cy="-18" rx="73.36" ry="18"/>
<text text-anchor="middle" x="177.32" y="-12.95" font-family="Times,serif" font-size="14.00">idTheCarRoom1</text>
</g>
<!-- idPlayer&#45;&gt;idTheCarRoom1 -->
<g id="edge2" class="edge">
<title>idPlayer&#45;&gt;idTheCarRoom1</title>
<path fill="none" stroke="black" d="M877.39,-105.84C784.08,-105.96 552.52,-102.66 362.07,-70.5 316.35,-62.78 265.7,-48.22 229.02,-36.55"/>
<polygon fill="black" stroke="black" points="230.17,-32.92 219.58,-33.18 228.03,-39.58 230.17,-32.92"/>
<text text-anchor="middle" x="379.95" y="-57.2" font-family="Times,serif" font-size="14.00">isNear</text>
</g>
<!-- idTheCar1 -->
<g id="node4" class="node">
<title>idTheCar1</title>
<ellipse fill="none" stroke="black" cx="319.32" cy="-18" rx="50.33" ry="18"/>
<text text-anchor="middle" x="319.32" y="-12.95" font-family="Times,serif" font-size="14.00">idTheCar1</text>
</g>
<!-- idPlayer&#45;&gt;idTheCar1 -->
<g id="edge3" class="edge">
<title>idPlayer&#45;&gt;idTheCar1</title>
<path fill="none" stroke="black" d="M877.61,-103.93C778.93,-99.97 533.35,-88.56 453.07,-70.5 420.17,-63.1 384.63,-49.1 358.45,-37.57"/>
<polygon fill="black" stroke="black" points="360.11,-34.03 349.55,-33.13 357.24,-40.41 360.11,-34.03"/>
<text text-anchor="middle" x="481.45" y="-57.2" font-family="Times,serif" font-size="14.00">isInsideOf</text>
</g>
<!-- idCar1 -->
<g id="node5" class="node">
<title>idCar1</title>
<ellipse fill="none" stroke="black" cx="423.32" cy="-18" rx="36" ry="18"/>
<text text-anchor="middle" x="423.32" y="-12.95" font-family="Times,serif" font-size="14.00">idCar1</text>
</g>
<!-- idPlayer&#45;&gt;idCar1 -->
<g id="edge5" class="edge">
<title>idPlayer&#45;&gt;idCar1</title>
<path fill="none" stroke="black" d="M877.58,-104.32C811.74,-101.78 680.08,-93.97 571.07,-70.5 532.11,-62.11 489.28,-46.43 459.81,-34.56"/>
<polygon fill="black" stroke="black" points="461.56,-31.08 450.98,-30.54 458.91,-37.56 461.56,-31.08"/>
<text text-anchor="middle" x="588.95" y="-57.2" font-family="Times,serif" font-size="14.00">isNear</text>
</g>
<!-- idArea1 -->
<g id="node6" class="node">
<title>idArea1</title>
<ellipse fill="none" stroke="black" cx="518.32" cy="-18" rx="40.6" ry="18"/>
<text text-anchor="middle" x="518.32" y="-12.95" font-family="Times,serif" font-size="14.00">idArea1</text>
</g>
<!-- idPlayer&#45;&gt;idArea1 -->
<g id="edge6" class="edge">
<title>idPlayer&#45;&gt;idArea1</title>
<path fill="none" stroke="black" d="M878.41,-102.54C827.37,-98.25 737.71,-88.75 662.82,-70.5 626.06,-61.54 585.6,-46.67 556.87,-35.2"/>
<polygon fill="black" stroke="black" points="558.43,-31.65 547.84,-31.15 555.8,-38.14 558.43,-31.65"/>
<text text-anchor="middle" x="686.57" y="-57.2" font-family="Times,serif" font-size="14.00">isEastOf</text>
</g>
<!-- idBumper1 -->
<g id="node7" class="node">
<title>idBumper1</title>
<ellipse fill="none" stroke="black" cx="629.32" cy="-18" rx="52.89" ry="18"/>
<text text-anchor="middle" x="629.32" y="-12.95" font-family="Times,serif" font-size="14.00">idBumper1</text>
</g>
<!-- idPlayer&#45;&gt;idBumper1 -->
<g id="edge7" class="edge">
<title>idPlayer&#45;&gt;idBumper1</title>
<path fill="none" stroke="black" d="M881.17,-98.91C848.58,-92.85 800.63,-82.94 759.82,-70.5 729.31,-61.2 695.86,-47.94 670.47,-37.2"/>
<polygon fill="black" stroke="black" points="672.03,-33.63 661.46,-32.92 669.28,-40.07 672.03,-33.63"/>
<text text-anchor="middle" x="783.57" y="-57.2" font-family="Times,serif" font-size="14.00">isEastOf</text>
</g>
<!-- idCarKey1 -->
<g id="node8" class="node">
<title>idCarKey1</title>
<ellipse fill="none" stroke="black" cx="751.32" cy="-18" rx="51.35" ry="18"/>
<text text-anchor="middle" x="751.32" y="-12.95" font-family="Times,serif" font-size="14.00">idCarKey1</text>
</g>
<!-- idPlayer&#45;&gt;idCarKey1 -->
<g id="edge8" class="edge">
<title>idPlayer&#45;&gt;idCarKey1</title>
<path fill="none" stroke="black" d="M889.48,-93.55C874.13,-87.15 855.25,-78.87 838.82,-70.5 820.44,-61.14 800.58,-49.57 784.43,-39.78"/>
<polygon fill="black" stroke="black" points="786.75,-36.48 776.39,-34.24 783.09,-42.45 786.75,-36.48"/>
<text text-anchor="middle" x="862.57" y="-57.2" font-family="Times,serif" font-size="14.00">isEastOf</text>
</g>
<!-- idStump1 -->
<g id="node9" class="node">
<title>idStump1</title>
<ellipse fill="none" stroke="black" cx="868.32" cy="-18" rx="47.26" ry="18"/>
<text text-anchor="middle" x="868.32" y="-12.95" font-family="Times,serif" font-size="14.00">idStump1</text>
</g>
<!-- idPlayer&#45;&gt;idStump1 -->
<g id="edge9" class="edge">
<title>idPlayer&#45;&gt;idStump1</title>
<path fill="none" stroke="black" d="M909.49,-88.82C902.2,-76.46 892.12,-59.36 883.76,-45.18"/>
<polygon fill="black" stroke="black" points="886.39,-43.76 878.3,-36.92 880.36,-47.31 886.39,-43.76"/>
<text text-anchor="middle" x="922.57" y="-57.2" font-family="Times,serif" font-size="14.00">isEastOf</text>
</g>
<!-- idDen1 -->
<g id="node10" class="node">
<title>idDen1</title>
<ellipse fill="none" stroke="black" cx="971.32" cy="-18" rx="38.04" ry="18"/>
<text text-anchor="middle" x="971.32" y="-12.95" font-family="Times,serif" font-size="14.00">idDen1</text>
</g>
<!-- idPlayer&#45;&gt;idDen1 -->
<g id="edge10" class="edge">
<title>idPlayer&#45;&gt;idDen1</title>
<path fill="none" stroke="black" d="M934.77,-89.57C939.81,-83.85 945.18,-77.16 949.32,-70.5 954.03,-62.92 958.19,-54.16 961.59,-46.03"/>
<polygon fill="black" stroke="black" points="965.19,-47.46 965.6,-36.87 958.68,-44.89 965.19,-47.46"/>
<text text-anchor="middle" x="981.57" y="-57.2" font-family="Times,serif" font-size="14.00">isEastOf</text>
</g>
<!-- idBear1 -->
<g id="node11" class="node">
<title>idBear1</title>
<ellipse fill="none" stroke="black" cx="1067.32" cy="-18" rx="40.09" ry="18"/>
<text text-anchor="middle" x="1067.32" y="-12.95" font-family="Times,serif" font-size="14.00">idBear1</text>
</g>
<!-- idPlayer&#45;&gt;idBear1 -->
<g id="edge11" class="edge">
<title>idPlayer&#45;&gt;idBear1</title>
<path fill="none" stroke="black" d="M952.72,-95.42C969.99,-89.46 991.01,-81.02 1008.32,-70.5 1021.15,-62.7 1033.9,-52.04 1044.24,-42.44"/>
<polygon fill="black" stroke="black" points="1046.17,-45.49 1050.98,-36.05 1041.33,-40.43 1046.17,-45.49"/>
<text text-anchor="middle" x="1054.57" y="-57.2" font-family="Times,serif" font-size="14.00">isEastOf</text>
</g>
<!-- idTaillight1 -->
<g id="node12" class="node">
<title>idTaillight1</title>
<ellipse fill="none" stroke="black" cx="1180.32" cy="-18" rx="54.42" ry="18"/>
<text text-anchor="middle" x="1180.32" y="-12.95" font-family="Times,serif" font-size="14.00">idTaillight1</text>
</g>
<!-- idPlayer&#45;&gt;idTaillight1 -->
<g id="edge12" class="edge">
<title>idPlayer&#45;&gt;idTaillight1</title>
<path fill="none" stroke="black" d="M958.76,-100C992.08,-94.65 1040.72,-85.15 1081.32,-70.5 1103.72,-62.42 1127.43,-50.23 1146.03,-39.73"/>
<polygon fill="black" stroke="black" points="1147.6,-42.29 1154.53,-34.27 1144.11,-36.22 1147.6,-42.29"/>
<text text-anchor="middle" x="1141.57" y="-57.2" font-family="Times,serif" font-size="14.00">isEastOf</text>
</g>
<!-- idTire1 -->
<g id="node13" class="node">
<title>idTire1</title>
<ellipse fill="none" stroke="black" cx="1290.32" cy="-18" rx="38.04" ry="18"/>
<text text-anchor="middle" x="1290.32" y="-12.95" font-family="Times,serif" font-size="14.00">idTire1</text>
</g>
<!-- idPlayer&#45;&gt;idTire1 -->
<g id="edge13" class="edge">
<title>idPlayer&#45;&gt;idTire1</title>
<path fill="none" stroke="black" d="M960.52,-102.99C1010.46,-99.21 1096.79,-90.26 1168.32,-70.5 1198.76,-62.09 1231.66,-47.88 1255.62,-36.51"/>
<polygon fill="black" stroke="black" points="1256.82,-39.33 1264.31,-31.84 1253.78,-33.03 1256.82,-39.33"/>
<text text-anchor="middle" x="1236.57" y="-57.2" font-family="Times,serif" font-size="14.00">isEastOf</text>
</g>
<!-- idClearing1 -->
<g id="node14" class="node">
<title>idClearing1</title>
<ellipse fill="none" stroke="black" cx="1400.32" cy="-18" rx="54.42" ry="18"/>
<text text-anchor="middle" x="1400.32" y="-12.95" font-family="Times,serif" font-size="14.00">idClearing1</text>
</g>
<!-- idPlayer&#45;&gt;idClearing1 -->
<g id="edge14" class="edge">
<title>idPlayer&#45;&gt;idClearing1</title>
<path fill="none" stroke="black" d="M961.19,-104.71C1026.54,-102.7 1156.37,-95.6 1263.32,-70.5 1296.66,-62.68 1332.87,-48.82 1359.69,-37.44"/>
<polygon fill="black" stroke="black" points="1360.68,-40.4 1368.48,-33.22 1357.91,-33.97 1360.68,-40.4"/>
<text text-anchor="middle" x="1342.82" y="-57.2" font-family="Times,serif" font-size="14.00">isWestOf</text>
</g>
<!-- idBush1 -->
<g id="node15" class="node">
<title>idBush1</title>
<ellipse fill="none" stroke="black" cx="1514.32" cy="-18" rx="41.63" ry="18"/>
<text text-anchor="middle" x="1514.32" y="-12.95" font-family="Times,serif" font-size="14.00">idBush1</text>
</g>
<!-- idPlayer&#45;&gt;idBush1 -->
<g id="edge15" class="edge">
<title>idPlayer&#45;&gt;idBush1</title>
<path fill="none" stroke="black" d="M961.4,-106.02C1042.07,-106.19 1223.7,-102.57 1372.32,-70.5 1408.73,-62.64 1448.46,-47.65 1476.61,-35.86"/>
<polygon fill="black" stroke="black" points="1477.6,-38.81 1485.43,-31.68 1474.86,-32.37 1477.6,-38.81"/>
<text text-anchor="middle" x="1453.82" y="-57.2" font-family="Times,serif" font-size="14.00">isWestOf</text>
</g>
<!-- idSideMirror1 -->
<g id="node16" class="node">
<title>idSideMirror1</title>
<ellipse fill="none" stroke="black" cx="1638.32" cy="-18" rx="64.15" ry="18"/>
<text text-anchor="middle" x="1638.32" y="-12.95" font-family="Times,serif" font-size="14.00">idSideMirror1</text>
</g>
<!-- idPlayer&#45;&gt;idSideMirror1 -->
<g id="edge16" class="edge">
<title>idPlayer&#45;&gt;idSideMirror1</title>
<path fill="none" stroke="black" d="M960.8,-104.32C1073.43,-100.88 1383.15,-89.91 1483.32,-70.5 1521.34,-63.13 1562.9,-48.97 1593.41,-37.36"/>
<polygon fill="black" stroke="black" points="1594.25,-40.4 1602.31,-33.53 1591.72,-33.87 1594.25,-40.4"/>
<text text-anchor="middle" x="1569.82" y="-57.2" font-family="Times,serif" font-size="14.00">isWestOf</text>
</g>
<!-- idWhistle1 -->
<g id="node17" class="node">
<title>idWhistle1</title>
<ellipse fill="none" stroke="black" cx="1772.32" cy="-18" rx="51.86" ry="18"/>
<text text-anchor="middle" x="1772.32" y="-12.95" font-family="Times,serif" font-size="14.00">idWhistle1</text>
</g>
<!-- idPlayer&#45;&gt;idWhistle1 -->
<g id="edge17" class="edge">
<title>idPlayer&#45;&gt;idWhistle1</title>
<path fill="none" stroke="black" d="M960.83,-104.66C1088.71,-101.85 1475.54,-91.8 1599.32,-70.5 1643.96,-62.82 1693.35,-47.39 1727.88,-35.42"/>
<polygon fill="black" stroke="black" points="1728.83,-38.44 1737.1,-31.82 1726.51,-31.84 1728.83,-38.44"/>
<text text-anchor="middle" x="1692.82" y="-57.2" font-family="Times,serif" font-size="14.00">isWestOf</text>
</g>
</g>
</svg>
