<?xml version="1.0" encoding="UTF-8" standalone="no"?>
<!DOCTYPE svg PUBLIC "-//W3C//DTD SVG 1.1//EN"
 "http://www.w3.org/Graphics/SVG/1.1/DTD/svg11.dtd">
<!-- Generated by graphviz version 8.1.0 (20230707.0739)
 -->
<!-- Pages: 1 -->
<svg width="3276pt" height="133pt"
 viewBox="0.00 0.00 3276.09 132.50" xmlns="http://www.w3.org/2000/svg" xmlns:xlink="http://www.w3.org/1999/xlink">
<g id="graph0" class="graph" transform="scale(1 1) rotate(0) translate(4 128.5)">
<polygon fill="white" stroke="none" points="-4,4 -4,-128.5 3272.09,-128.5 3272.09,4 -4,4"/>
<!-- idSideMirror1 -->
<g id="node1" class="node">
<title>idSideMirror1</title>
<ellipse fill="none" stroke="black" cx="1693.88" cy="-106.5" rx="64.15" ry="18"/>
<text text-anchor="middle" x="1693.88" y="-101.45" font-family="Times,serif" font-size="14.00">idSideMirror1</text>
</g>
<!-- idSideMirror1&#45;&gt;idSideMirror1 -->
<g id="edge6" class="edge">
<title>idSideMirror1&#45;&gt;idSideMirror1</title>
<path fill="none" stroke="black" d="M1751.83,-114.65C1765.73,-114.01 1776.03,-111.3 1776.03,-106.5 1776.03,-103.05 1770.71,-100.68 1762.56,-99.38"/>
<polygon fill="black" stroke="black" points="1763.12,-95.82 1752.83,-98.35 1762.45,-102.79 1763.12,-95.82"/>
<text text-anchor="middle" x="1793.65" y="-101.45" font-family="Times,serif" font-size="14.00">isNear</text>
</g>
<!-- shiny -->
<g id="node2" class="node">
<title>shiny</title>
<ellipse fill="none" stroke="black" cx="30.88" cy="-18" rx="30.88" ry="18"/>
<text text-anchor="middle" x="30.88" y="-12.95" font-family="Times,serif" font-size="14.00">shiny</text>
</g>
<!-- idSideMirror1&#45;&gt;shiny -->
<g id="edge1" class="edge">
<title>idSideMirror1&#45;&gt;shiny</title>
<path fill="none" stroke="black" d="M1629.62,-105.78C1336.17,-106.83 134.72,-108.76 65.13,-70.5 55.14,-65.01 47.55,-55.22 42.08,-45.64"/>
<polygon fill="black" stroke="black" points="44.79,-44.25 37.14,-36.92 38.55,-47.42 44.79,-44.25"/>
<text text-anchor="middle" x="157.75" y="-57.2" font-family="Times,serif" font-size="14.00">idSideMirror1_prop_idDescriptor</text>
</g>
<!-- idFace -->
<g id="node3" class="node">
<title>idFace</title>
<ellipse fill="none" stroke="black" cx="237.88" cy="-18" rx="35.49" ry="18"/>
<text text-anchor="middle" x="237.88" y="-12.95" font-family="Times,serif" font-size="14.00">idFace</text>
</g>
<!-- idSideMirror1&#45;&gt;idFace -->
<g id="edge2" class="edge">
<title>idSideMirror1&#45;&gt;idFace</title>
<path fill="none" stroke="black" d="M1629.65,-105.64C1359.67,-106.02 328.04,-105.19 268.63,-70.5 259.25,-65.02 252.41,-55.46 247.6,-46.06"/>
<polygon fill="black" stroke="black" points="250.42,-44.8 243.15,-37.11 244.04,-47.66 250.42,-44.8"/>
<text text-anchor="middle" x="367.5" y="-57.2" font-family="Times,serif" font-size="14.00">idSideMirror1_prop_idDescriptor_1</text>
</g>
<!-- broken -->
<g id="node4" class="node">
<title>broken</title>
<ellipse fill="none" stroke="black" cx="457.88" cy="-18" rx="36.51" ry="18"/>
<text text-anchor="middle" x="457.88" y="-12.95" font-family="Times,serif" font-size="14.00">broken</text>
</g>
<!-- idSideMirror1&#45;&gt;broken -->
<g id="edge3" class="edge">
<title>idSideMirror1&#45;&gt;broken</title>
<path fill="none" stroke="black" d="M1629.64,-105.46C1386.26,-105.07 532.22,-101.51 483.63,-70.5 475,-64.99 469.15,-55.64 465.24,-46.41"/>
<polygon fill="black" stroke="black" points="468.27,-45.49 461.61,-37.25 461.68,-47.84 468.27,-45.49"/>
<text text-anchor="middle" x="582.5" y="-57.2" font-family="Times,serif" font-size="14.00">idSideMirror1_prop_idDescriptor_2</text>
</g>
<!-- idClearing1 -->
<g id="node5" class="node">
<title>idClearing1</title>
<ellipse fill="none" stroke="black" cx="573.88" cy="-18" rx="54.42" ry="18"/>
<text text-anchor="middle" x="573.88" y="-12.95" font-family="Times,serif" font-size="14.00">idClearing1</text>
</g>
<!-- idSideMirror1&#45;&gt;idClearing1 -->
<g id="edge4" class="edge">
<title>idSideMirror1&#45;&gt;idClearing1</title>
<path fill="none" stroke="black" d="M1629.61,-105.1C1446.5,-103.64 924.48,-97.18 755.63,-70.5 708.6,-63.07 656.47,-47.51 620.14,-35.42"/>
<polygon fill="black" stroke="black" points="621.45,-31.84 610.86,-31.96 619.22,-38.47 621.45,-31.84"/>
<text text-anchor="middle" x="773.5" y="-57.2" font-family="Times,serif" font-size="14.00">isNear</text>
</g>
<!-- idTheCar1 -->
<g id="node6" class="node">
<title>idTheCar1</title>
<ellipse fill="none" stroke="black" cx="696.88" cy="-18" rx="50.33" ry="18"/>
<text text-anchor="middle" x="696.88" y="-12.95" font-family="Times,serif" font-size="14.00">idTheCar1</text>
</g>
<!-- idSideMirror1&#45;&gt;idTheCar1 -->
<g id="edge5" class="edge">
<title>idSideMirror1&#45;&gt;idTheCar1</title>
<path fill="none" stroke="black" d="M1629.66,-105.03C1460.52,-103.45 1005.61,-96.81 857.63,-70.5 816.36,-63.16 771.03,-47.95 739.06,-35.95"/>
<polygon fill="black" stroke="black" points="740.76,-32.47 730.17,-32.18 738.27,-39.01 740.76,-32.47"/>
<text text-anchor="middle" x="886" y="-57.2" font-family="Times,serif" font-size="14.00">isInsideOf</text>
</g>
<!-- idBush1 -->
<g id="node7" class="node">
<title>idBush1</title>
<ellipse fill="none" stroke="black" cx="806.88" cy="-18" rx="41.63" ry="18"/>
<text text-anchor="middle" x="806.88" y="-12.95" font-family="Times,serif" font-size="14.00">idBush1</text>
</g>
<!-- idSideMirror1&#45;&gt;idBush1 -->
<g id="edge7" class="edge">
<title>idSideMirror1&#45;&gt;idBush1</title>
<path fill="none" stroke="black" d="M1629.87,-104.02C1480.27,-100.27 1111.15,-89.37 988.63,-70.5 939.36,-62.91 884.53,-46.18 848.1,-33.84"/>
<polygon fill="black" stroke="black" points="849.47,-30.26 838.88,-30.32 847.2,-36.88 849.47,-30.26"/>
<text text-anchor="middle" x="1006.5" y="-57.2" font-family="Times,serif" font-size="14.00">isNear</text>
</g>
<!-- idWhistle1 -->
<g id="node8" class="node">
<title>idWhistle1</title>
<ellipse fill="none" stroke="black" cx="917.88" cy="-18" rx="51.86" ry="18"/>
<text text-anchor="middle" x="917.88" y="-12.95" font-family="Times,serif" font-size="14.00">idWhistle1</text>
</g>
<!-- idSideMirror1&#45;&gt;idWhistle1 -->
<g id="edge8" class="edge">
<title>idSideMirror1&#45;&gt;idWhistle1</title>
<path fill="none" stroke="black" d="M1629.27,-106.38C1519.13,-106.85 1288.33,-103.31 1096.63,-70.5 1050.27,-62.57 998.81,-46.99 963.06,-35.04"/>
<polygon fill="black" stroke="black" points="964.54,-31.51 953.95,-31.62 962.3,-38.14 964.54,-31.51"/>
<text text-anchor="middle" x="1114.5" y="-57.2" font-family="Times,serif" font-size="14.00">isNear</text>
</g>
<!-- idArea1 -->
<g id="node9" class="node">
<title>idArea1</title>
<ellipse fill="none" stroke="black" cx="1027.88" cy="-18" rx="40.6" ry="18"/>
<text text-anchor="middle" x="1027.88" y="-12.95" font-family="Times,serif" font-size="14.00">idArea1</text>
</g>
<!-- idSideMirror1&#45;&gt;idArea1 -->
<g id="edge9" class="edge">
<title>idSideMirror1&#45;&gt;idArea1</title>
<path fill="none" stroke="black" d="M1629.66,-104.84C1535.66,-102.99 1355.37,-96.08 1204.38,-70.5 1156.69,-62.42 1103.61,-45.86 1068.24,-33.69"/>
<polygon fill="black" stroke="black" points="1069.89,-30.21 1059.3,-30.23 1067.59,-36.82 1069.89,-30.21"/>
<text text-anchor="middle" x="1228.13" y="-57.2" font-family="Times,serif" font-size="14.00">isEastOf</text>
</g>
<!-- idBumper1 -->
<g id="node10" class="node">
<title>idBumper1</title>
<ellipse fill="none" stroke="black" cx="1138.88" cy="-18" rx="52.89" ry="18"/>
<text text-anchor="middle" x="1138.88" y="-12.95" font-family="Times,serif" font-size="14.00">idBumper1</text>
</g>
<!-- idSideMirror1&#45;&gt;idBumper1 -->
<g id="edge10" class="edge">
<title>idSideMirror1&#45;&gt;idBumper1</title>
<path fill="none" stroke="black" d="M1630.44,-103.14C1555.55,-99.54 1427.52,-90.8 1319.38,-70.5 1273.03,-61.8 1221.4,-46.48 1185.28,-34.8"/>
<polygon fill="black" stroke="black" points="1186.64,-31.24 1176.05,-31.46 1184.47,-37.89 1186.64,-31.24"/>
<text text-anchor="middle" x="1343.13" y="-57.2" font-family="Times,serif" font-size="14.00">isEastOf</text>
</g>
<!-- idCarKey1 -->
<g id="node11" class="node">
<title>idCarKey1</title>
<ellipse fill="none" stroke="black" cx="1260.88" cy="-18" rx="51.35" ry="18"/>
<text text-anchor="middle" x="1260.88" y="-12.95" font-family="Times,serif" font-size="14.00">idCarKey1</text>
</g>
<!-- idSideMirror1&#45;&gt;idCarKey1 -->
<g id="edge11" class="edge">
<title>idSideMirror1&#45;&gt;idCarKey1</title>
<path fill="none" stroke="black" d="M1633.19,-100.2C1579.68,-94.87 1499.8,-85.29 1431.38,-70.5 1388.24,-61.17 1340.2,-46.24 1306.14,-34.85"/>
<polygon fill="black" stroke="black" points="1307.63,-31.32 1297.04,-31.43 1305.39,-37.95 1307.63,-31.32"/>
<text text-anchor="middle" x="1455.13" y="-57.2" font-family="Times,serif" font-size="14.00">isEastOf</text>
</g>
<!-- idStump1 -->
<g id="node12" class="node">
<title>idStump1</title>
<ellipse fill="none" stroke="black" cx="1377.88" cy="-18" rx="47.26" ry="18"/>
<text text-anchor="middle" x="1377.88" y="-12.95" font-family="Times,serif" font-size="14.00">idStump1</text>
</g>
<!-- idSideMirror1&#45;&gt;idStump1 -->
<g id="edge12" class="edge">
<title>idSideMirror1&#45;&gt;idStump1</title>
<path fill="none" stroke="black" d="M1641.53,-95.65C1609.75,-89.3 1568.49,-80.4 1532.38,-70.5 1494.28,-60.06 1451.75,-45.67 1420.98,-34.76"/>
<polygon fill="black" stroke="black" points="1422.61,-31.27 1412.01,-31.2 1420.25,-37.86 1422.61,-31.27"/>
<text text-anchor="middle" x="1556.13" y="-57.2" font-family="Times,serif" font-size="14.00">isEastOf</text>
</g>
<!-- idTheCarRoom1 -->
<g id="node13" class="node">
<title>idTheCarRoom1</title>
<ellipse fill="none" stroke="black" cx="1516.88" cy="-18" rx="73.36" ry="18"/>
<text text-anchor="middle" x="1516.88" y="-12.95" font-family="Times,serif" font-size="14.00">idTheCarRoom1</text>
</g>
<!-- idSideMirror1&#45;&gt;idTheCarRoom1 -->
<g id="edge13" class="edge">
<title>idSideMirror1&#45;&gt;idTheCarRoom1</title>
<path fill="none" stroke="black" d="M1660.05,-90.97C1646.12,-84.84 1629.89,-77.52 1615.38,-70.5 1595.45,-60.86 1573.59,-49.51 1555.54,-39.93"/>
<polygon fill="black" stroke="black" points="1557.42,-36.42 1546.95,-34.81 1554.12,-42.6 1557.42,-36.42"/>
<text text-anchor="middle" x="1639.13" y="-57.2" font-family="Times,serif" font-size="14.00">isEastOf</text>
</g>
<!-- idDen1 -->
<g id="node14" class="node">
<title>idDen1</title>
<ellipse fill="none" stroke="black" cx="1645.88" cy="-18" rx="38.04" ry="18"/>
<text text-anchor="middle" x="1645.88" y="-12.95" font-family="Times,serif" font-size="14.00">idDen1</text>
</g>
<!-- idSideMirror1&#45;&gt;idDen1 -->
<g id="edge14" class="edge">
<title>idSideMirror1&#45;&gt;idDen1</title>
<path fill="none" stroke="black" d="M1683.73,-88.49C1680.39,-82.8 1676.68,-76.4 1673.38,-70.5 1668.85,-62.41 1664.06,-53.54 1659.75,-45.47"/>
<polygon fill="black" stroke="black" points="1662.4,-43.99 1654.63,-36.79 1656.22,-47.27 1662.4,-43.99"/>
<text text-anchor="middle" x="1697.13" y="-57.2" font-family="Times,serif" font-size="14.00">isEastOf</text>
</g>
<!-- idBear1 -->
<g id="node15" class="node">
<title>idBear1</title>
<ellipse fill="none" stroke="black" cx="1741.88" cy="-18" rx="40.09" ry="18"/>
<text text-anchor="middle" x="1741.88" y="-12.95" font-family="Times,serif" font-size="14.00">idBear1</text>
</g>
<!-- idSideMirror1&#45;&gt;idBear1 -->
<g id="edge15" class="edge">
<title>idSideMirror1&#45;&gt;idBear1</title>
<path fill="none" stroke="black" d="M1707.68,-88.6C1711.89,-83.03 1716.34,-76.67 1719.88,-70.5 1724.26,-62.88 1728.28,-54.22 1731.67,-46.2"/>
<polygon fill="black" stroke="black" points="1735.21,-47.76 1735.71,-37.18 1728.72,-45.14 1735.21,-47.76"/>
<text text-anchor="middle" x="1752.13" y="-57.2" font-family="Times,serif" font-size="14.00">isEastOf</text>
</g>
<!-- idCar1 -->
<g id="node16" class="node">
<title>idCar1</title>
<ellipse fill="none" stroke="black" cx="1835.88" cy="-18" rx="36" ry="18"/>
<text text-anchor="middle" x="1835.88" y="-12.95" font-family="Times,serif" font-size="14.00">idCar1</text>
</g>
<!-- idSideMirror1&#45;&gt;idCar1 -->
<g id="edge16" class="edge">
<title>idSideMirror1&#45;&gt;idCar1</title>
<path fill="none" stroke="black" d="M1734.2,-92.17C1748.82,-86.5 1765.11,-79.18 1778.88,-70.5 1791.39,-62.61 1803.77,-51.88 1813.77,-42.27"/>
<polygon fill="black" stroke="black" points="1815.93,-45.06 1820.57,-35.53 1811,-40.09 1815.93,-45.06"/>
<text text-anchor="middle" x="1824.13" y="-57.2" font-family="Times,serif" font-size="14.00">isEastOf</text>
</g>
<!-- idCrowbar1 -->
<g id="node17" class="node">
<title>idCrowbar1</title>
<ellipse fill="none" stroke="black" cx="1944.88" cy="-18" rx="54.93" ry="18"/>
<text text-anchor="middle" x="1944.88" y="-12.95" font-family="Times,serif" font-size="14.00">idCrowbar1</text>
</g>
<!-- idSideMirror1&#45;&gt;idCrowbar1 -->
<g id="edge17" class="edge">
<title>idSideMirror1&#45;&gt;idCrowbar1</title>
<path fill="none" stroke="black" d="M1749.11,-97.12C1779.71,-91.51 1818.08,-82.86 1850.88,-70.5 1872.04,-62.53 1894.28,-50.52 1911.82,-40.11"/>
<polygon fill="black" stroke="black" points="1913.31,-42.7 1920.04,-34.52 1909.68,-36.71 1913.31,-42.7"/>
<text text-anchor="middle" x="1909.13" y="-57.2" font-family="Times,serif" font-size="14.00">isEastOf</text>
</g>
<!-- idLock1 -->
<g id="node18" class="node">
<title>idLock1</title>
<ellipse fill="none" stroke="black" cx="2059.88" cy="-18" rx="41.63" ry="18"/>
<text text-anchor="middle" x="2059.88" y="-12.95" font-family="Times,serif" font-size="14.00">idLock1</text>
</g>
<!-- idSideMirror1&#45;&gt;idLock1 -->
<g id="edge18" class="edge">
<title>idSideMirror1&#45;&gt;idLock1</title>
<path fill="none" stroke="black" d="M1755.41,-100.88C1804.85,-96.14 1875.71,-87.06 1935.88,-70.5 1966.36,-62.11 1999.35,-48.15 2023.63,-36.89"/>
<polygon fill="black" stroke="black" points="2024.92,-39.68 2032.47,-32.25 2021.93,-33.34 2024.92,-39.68"/>
<text text-anchor="middle" x="2005.13" y="-57.2" font-family="Times,serif" font-size="14.00">isEastOf</text>
</g>
<!-- idPlayer -->
<g id="node19" class="node">
<title>idPlayer</title>
<ellipse fill="none" stroke="black" cx="2160.88" cy="-18" rx="41.63" ry="18"/>
<text text-anchor="middle" x="2160.88" y="-12.95" font-family="Times,serif" font-size="14.00">idPlayer</text>
</g>
<!-- idSideMirror1&#45;&gt;idPlayer -->
<g id="edge19" class="edge">
<title>idSideMirror1&#45;&gt;idPlayer</title>
<path fill="none" stroke="black" d="M1757.69,-104.13C1826.33,-101.45 1938.22,-93.57 2031.88,-70.5 2064.19,-62.54 2099.15,-48.2 2124.51,-36.67"/>
<polygon fill="black" stroke="black" points="2125.81,-39.46 2133.42,-32.09 2122.87,-33.11 2125.81,-39.46"/>
<text text-anchor="middle" x="2106.13" y="-57.2" font-family="Times,serif" font-size="14.00">isEastOf</text>
</g>
<!-- idPlayerBackside -->
<g id="node20" class="node">
<title>idPlayerBackside</title>
<ellipse fill="none" stroke="black" cx="2295.88" cy="-18" rx="75.41" ry="18"/>
<text text-anchor="middle" x="2295.88" y="-12.95" font-family="Times,serif" font-size="14.00">idPlayerBackside</text>
</g>
<!-- idSideMirror1&#45;&gt;idPlayerBackside -->
<g id="edge20" class="edge">
<title>idSideMirror1&#45;&gt;idPlayerBackside</title>
<path fill="none" stroke="black" d="M1758.11,-104.91C1844.18,-103.1 2001.37,-96.17 2132.88,-70.5 2172.17,-62.83 2215.32,-48.94 2247.34,-37.52"/>
<polygon fill="black" stroke="black" points="2248.12,-40.6 2256.33,-33.91 2245.74,-34.02 2248.12,-40.6"/>
<text text-anchor="middle" x="2220.13" y="-57.2" font-family="Times,serif" font-size="14.00">isEastOf</text>
</g>
<!-- idPlayerLeftHand -->
<g id="node21" class="node">
<title>idPlayerLeftHand</title>
<ellipse fill="none" stroke="black" cx="2465.88" cy="-18" rx="76.94" ry="18"/>
<text text-anchor="middle" x="2465.88" y="-12.95" font-family="Times,serif" font-size="14.00">idPlayerLeftHand</text>
</g>
<!-- idSideMirror1&#45;&gt;idPlayerLeftHand -->
<g id="edge21" class="edge">
<title>idSideMirror1&#45;&gt;idPlayerLeftHand</title>
<path fill="none" stroke="black" d="M1758.11,-104.92C1861.57,-103.21 2071.31,-96.51 2246.88,-70.5 2302.2,-62.3 2364.16,-47.16 2408.01,-35.41"/>
<polygon fill="black" stroke="black" points="2408.74,-38.57 2417.48,-32.58 2406.91,-31.81 2408.74,-38.57"/>
<text text-anchor="middle" x="2355.13" y="-57.2" font-family="Times,serif" font-size="14.00">isEastOf</text>
</g>
<!-- idPlayerRightHand -->
<g id="node22" class="node">
<title>idPlayerRightHand</title>
<ellipse fill="none" stroke="black" cx="2642.88" cy="-18" rx="82.06" ry="18"/>
<text text-anchor="middle" x="2642.88" y="-12.95" font-family="Times,serif" font-size="14.00">idPlayerRightHand</text>
</g>
<!-- idSideMirror1&#45;&gt;idPlayerRightHand -->
<g id="edge22" class="edge">
<title>idSideMirror1&#45;&gt;idPlayerRightHand</title>
<path fill="none" stroke="black" d="M1758.17,-105.31C1880.22,-104.27 2153.68,-98.67 2381.88,-70.5 2449.53,-62.15 2525.92,-46.31 2578.49,-34.39"/>
<polygon fill="black" stroke="black" points="2579.04,-37.63 2588.01,-31.99 2577.48,-30.81 2579.04,-37.63"/>
<text text-anchor="middle" x="2507.13" y="-57.2" font-family="Times,serif" font-size="14.00">isEastOf</text>
</g>
<!-- idSmoke1 -->
<g id="node23" class="node">
<title>idSmoke1</title>
<ellipse fill="none" stroke="black" cx="2791.88" cy="-18" rx="48.79" ry="18"/>
<text text-anchor="middle" x="2791.88" y="-12.95" font-family="Times,serif" font-size="14.00">idSmoke1</text>
</g>
<!-- idSideMirror1&#45;&gt;idSmoke1 -->
<g id="edge23" class="edge">
<title>idSideMirror1&#45;&gt;idSmoke1</title>
<path fill="none" stroke="black" d="M1758.37,-105.65C1899.43,-105.34 2245.78,-101.22 2533.88,-70.5 2623.57,-60.94 2646.01,-56.39 2733.88,-36 2737.52,-35.16 2741.26,-34.22 2745.02,-33.23"/>
<polygon fill="black" stroke="black" points="2745.82,-36.36 2754.54,-30.34 2743.97,-29.61 2745.82,-36.36"/>
<text text-anchor="middle" x="2675.13" y="-57.2" font-family="Times,serif" font-size="14.00">isEastOf</text>
</g>
<!-- idSpill1 -->
<g id="node24" class="node">
<title>idSpill1</title>
<ellipse fill="none" stroke="black" cx="2898.88" cy="-18" rx="40.09" ry="18"/>
<text text-anchor="middle" x="2898.88" y="-12.95" font-family="Times,serif" font-size="14.00">idSpill1</text>
</g>
<!-- idSideMirror1&#45;&gt;idSpill1 -->
<g id="edge24" class="edge">
<title>idSideMirror1&#45;&gt;idSpill1</title>
<path fill="none" stroke="black" d="M1758.02,-104.9C1950.04,-102.85 2518.31,-94.85 2701.88,-70.5 2768.83,-61.62 2785,-54.76 2849.88,-36 2852.62,-35.21 2855.44,-34.35 2858.27,-33.45"/>
<polygon fill="black" stroke="black" points="2859.05,-36.55 2867.46,-30.11 2856.86,-29.9 2859.05,-36.55"/>
<text text-anchor="middle" x="2810.13" y="-57.2" font-family="Times,serif" font-size="14.00">isEastOf</text>
</g>
<!-- idTaillight1 -->
<g id="node25" class="node">
<title>idTaillight1</title>
<ellipse fill="none" stroke="black" cx="3011.88" cy="-18" rx="54.42" ry="18"/>
<text text-anchor="middle" x="3011.88" y="-12.95" font-family="Times,serif" font-size="14.00">idTaillight1</text>
</g>
<!-- idSideMirror1&#45;&gt;idTaillight1 -->
<g id="edge25" class="edge">
<title>idSideMirror1&#45;&gt;idTaillight1</title>
<path fill="none" stroke="black" d="M1758.41,-105.69C1967.79,-105.96 2626.87,-104.05 2836.88,-70.5 2881.94,-63.3 2931.72,-47.89 2966.63,-35.79"/>
<polygon fill="black" stroke="black" points="2967.69,-38.78 2975.96,-32.16 2965.37,-32.17 2967.69,-38.78"/>
<text text-anchor="middle" x="2929.13" y="-57.2" font-family="Times,serif" font-size="14.00">isEastOf</text>
</g>
<!-- idTire1 -->
<g id="node26" class="node">
<title>idTire1</title>
<ellipse fill="none" stroke="black" cx="3121.88" cy="-18" rx="38.04" ry="18"/>
<text text-anchor="middle" x="3121.88" y="-12.95" font-family="Times,serif" font-size="14.00">idTire1</text>
</g>
<!-- idSideMirror1&#45;&gt;idTire1 -->
<g id="edge26" class="edge">
<title>idSideMirror1&#45;&gt;idTire1</title>
<path fill="none" stroke="black" d="M1758.39,-105.87C1981.79,-106.83 2721.59,-107.1 2955.88,-70.5 3000.8,-63.48 3050.36,-46.88 3083.53,-34.41"/>
<polygon fill="black" stroke="black" points="3084.6,-37.37 3092.69,-30.53 3082.1,-30.83 3084.6,-37.37"/>
<text text-anchor="middle" x="3049.13" y="-57.2" font-family="Times,serif" font-size="14.00">isEastOf</text>
</g>
<!-- idTrunk1 -->
<g id="node27" class="node">
<title>idTrunk1</title>
<ellipse fill="none" stroke="black" cx="3222.88" cy="-18" rx="45.21" ry="18"/>
<text text-anchor="middle" x="3222.88" y="-12.95" font-family="Times,serif" font-size="14.00">idTrunk1</text>
</g>
<!-- idSideMirror1&#45;&gt;idTrunk1 -->
<g id="edge27" class="edge">
<title>idSideMirror1&#45;&gt;idTrunk1</title>
<path fill="none" stroke="black" d="M1758.29,-105.05C2013.44,-103.09 2945.67,-94.35 3075.88,-70.5 3113.71,-63.57 3154.88,-48.44 3184,-36.37"/>
<polygon fill="black" stroke="black" points="3184.92,-39.36 3192.77,-32.24 3182.2,-32.91 3184.92,-39.36"/>
<text text-anchor="middle" x="3157.13" y="-57.2" font-family="Times,serif" font-size="14.00">isEastOf</text>
</g>
</g>
</svg>
