<?xml version="1.0" encoding="UTF-8" standalone="no"?>
<!DOCTYPE svg PUBLIC "-//W3C//DTD SVG 1.1//EN"
 "http://www.w3.org/Graphics/SVG/1.1/DTD/svg11.dtd">
<!-- Generated by graphviz version 8.1.0 (20230707.0739)
 -->
<!-- Pages: 1 -->
<svg width="1607pt" height="133pt"
 viewBox="0.00 0.00 1606.86 132.50" xmlns="http://www.w3.org/2000/svg" xmlns:xlink="http://www.w3.org/1999/xlink">
<g id="graph0" class="graph" transform="scale(1 1) rotate(0) translate(4 128.5)">
<polygon fill="white" stroke="none" points="-4,4 -4,-128.5 1602.86,-128.5 1602.86,4 -4,4"/>
<!-- idSmoke1 -->
<g id="node1" class="node">
<title>idSmoke1</title>
<ellipse fill="none" stroke="black" cx="794" cy="-106.5" rx="48.79" ry="18"/>
<text text-anchor="middle" x="794" y="-101.45" font-family="Times,serif" font-size="14.00">idSmoke1</text>
</g>
<!-- yes -->
<g id="node2" class="node">
<title>yes</title>
<ellipse fill="none" stroke="black" cx="27" cy="-18" rx="27" ry="18"/>
<text text-anchor="middle" x="27" y="-12.95" font-family="Times,serif" font-size="14.00">yes</text>
</g>
<!-- idSmoke1&#45;&gt;yes -->
<g id="edge1" class="edge">
<title>idSmoke1&#45;&gt;yes</title>
<path fill="none" stroke="black" d="M745.03,-105.85C610.29,-106.34 236.31,-104.51 118.75,-70.5 95.21,-63.69 71.14,-49.87 53.57,-38.27"/>
<polygon fill="black" stroke="black" points="55.75,-34.84 45.52,-32.1 51.81,-40.62 55.75,-34.84"/>
<text text-anchor="middle" x="202.62" y="-57.2" font-family="Times,serif" font-size="14.00">idSmoke1_prop_idImmovable</text>
</g>
<!-- idCar1 -->
<g id="node3" class="node">
<title>idCar1</title>
<ellipse fill="none" stroke="black" cx="198" cy="-18" rx="36" ry="18"/>
<text text-anchor="middle" x="198" y="-12.95" font-family="Times,serif" font-size="14.00">idCar1</text>
</g>
<!-- idSmoke1&#45;&gt;idCar1 -->
<g id="edge2" class="edge">
<title>idSmoke1&#45;&gt;idCar1</title>
<path fill="none" stroke="black" d="M744.94,-105.48C662.2,-104.59 490.04,-99.08 347.75,-70.5 307.97,-62.51 264.28,-46.61 234.41,-34.58"/>
<polygon fill="black" stroke="black" points="236.04,-31.06 225.45,-30.51 233.38,-37.54 236.04,-31.06"/>
<text text-anchor="middle" x="365.62" y="-57.2" font-family="Times,serif" font-size="14.00">isNear</text>
</g>
<!-- idArea1 -->
<g id="node4" class="node">
<title>idArea1</title>
<ellipse fill="none" stroke="black" cx="293" cy="-18" rx="40.6" ry="18"/>
<text text-anchor="middle" x="293" y="-12.95" font-family="Times,serif" font-size="14.00">idArea1</text>
</g>
<!-- idSmoke1&#45;&gt;idArea1 -->
<g id="edge3" class="edge">
<title>idSmoke1&#45;&gt;idArea1</title>
<path fill="none" stroke="black" d="M745.42,-103.95C677.76,-101.04 551.62,-92.87 446.5,-70.5 406.78,-62.05 363.01,-46.74 332.4,-35"/>
<polygon fill="black" stroke="black" points="333.74,-31.37 323.16,-31.01 331.21,-37.9 333.74,-31.37"/>
<text text-anchor="middle" x="470.25" y="-57.2" font-family="Times,serif" font-size="14.00">isEastOf</text>
</g>
<!-- idBumper1 -->
<g id="node5" class="node">
<title>idBumper1</title>
<ellipse fill="none" stroke="black" cx="404" cy="-18" rx="52.89" ry="18"/>
<text text-anchor="middle" x="404" y="-12.95" font-family="Times,serif" font-size="14.00">idBumper1</text>
</g>
<!-- idSmoke1&#45;&gt;idBumper1 -->
<g id="edge4" class="edge">
<title>idSmoke1&#45;&gt;idBumper1</title>
<path fill="none" stroke="black" d="M746.86,-101.61C697.03,-96.85 616.42,-87.26 548.5,-70.5 513.38,-61.83 474.85,-47.87 446.42,-36.66"/>
<polygon fill="black" stroke="black" points="448.01,-33.13 437.42,-32.67 445.41,-39.63 448.01,-33.13"/>
<text text-anchor="middle" x="572.25" y="-57.2" font-family="Times,serif" font-size="14.00">isEastOf</text>
</g>
<!-- idCarKey1 -->
<g id="node6" class="node">
<title>idCarKey1</title>
<ellipse fill="none" stroke="black" cx="526" cy="-18" rx="51.35" ry="18"/>
<text text-anchor="middle" x="526" y="-12.95" font-family="Times,serif" font-size="14.00">idCarKey1</text>
</g>
<!-- idSmoke1&#45;&gt;idCarKey1 -->
<g id="edge5" class="edge">
<title>idSmoke1&#45;&gt;idCarKey1</title>
<path fill="none" stroke="black" d="M750.36,-97.94C719.29,-91.99 676.78,-82.66 640.5,-70.5 614.15,-61.67 585.66,-48.86 563.68,-38.23"/>
<polygon fill="black" stroke="black" points="565.59,-34.78 555.07,-33.52 562.51,-41.07 565.59,-34.78"/>
<text text-anchor="middle" x="664.25" y="-57.2" font-family="Times,serif" font-size="14.00">isEastOf</text>
</g>
<!-- idStump1 -->
<g id="node7" class="node">
<title>idStump1</title>
<ellipse fill="none" stroke="black" cx="643" cy="-18" rx="47.26" ry="18"/>
<text text-anchor="middle" x="643" y="-12.95" font-family="Times,serif" font-size="14.00">idStump1</text>
</g>
<!-- idSmoke1&#45;&gt;idStump1 -->
<g id="edge6" class="edge">
<title>idSmoke1&#45;&gt;idStump1</title>
<path fill="none" stroke="black" d="M761.59,-92.76C747.16,-86.66 730.15,-78.86 715.5,-70.5 700.36,-61.86 684.46,-50.82 671.43,-41.18"/>
<polygon fill="black" stroke="black" points="674.01,-37.98 663.91,-34.77 669.8,-43.58 674.01,-37.98"/>
<text text-anchor="middle" x="739.25" y="-57.2" font-family="Times,serif" font-size="14.00">isEastOf</text>
</g>
<!-- idDen1 -->
<g id="node8" class="node">
<title>idDen1</title>
<ellipse fill="none" stroke="black" cx="746" cy="-18" rx="38.04" ry="18"/>
<text text-anchor="middle" x="746" y="-12.95" font-family="Times,serif" font-size="14.00">idDen1</text>
</g>
<!-- idSmoke1&#45;&gt;idDen1 -->
<g id="edge7" class="edge">
<title>idSmoke1&#45;&gt;idDen1</title>
<path fill="none" stroke="black" d="M783.85,-88.49C780.51,-82.8 776.8,-76.4 773.5,-70.5 768.98,-62.41 764.18,-53.54 759.88,-45.47"/>
<polygon fill="black" stroke="black" points="762.52,-43.99 754.75,-36.79 756.34,-47.27 762.52,-43.99"/>
<text text-anchor="middle" x="797.25" y="-57.2" font-family="Times,serif" font-size="14.00">isEastOf</text>
</g>
<!-- idBear1 -->
<g id="node9" class="node">
<title>idBear1</title>
<ellipse fill="none" stroke="black" cx="842" cy="-18" rx="40.09" ry="18"/>
<text text-anchor="middle" x="842" y="-12.95" font-family="Times,serif" font-size="14.00">idBear1</text>
</g>
<!-- idSmoke1&#45;&gt;idBear1 -->
<g id="edge8" class="edge">
<title>idSmoke1&#45;&gt;idBear1</title>
<path fill="none" stroke="black" d="M807.53,-88.96C811.82,-83.3 816.38,-76.8 820,-70.5 824.38,-62.88 828.41,-54.22 831.79,-46.2"/>
<polygon fill="black" stroke="black" points="835.33,-47.76 835.83,-37.18 828.84,-45.14 835.33,-47.76"/>
<text text-anchor="middle" x="852.25" y="-57.2" font-family="Times,serif" font-size="14.00">isEastOf</text>
</g>
<!-- idTaillight1 -->
<g id="node10" class="node">
<title>idTaillight1</title>
<ellipse fill="none" stroke="black" cx="955" cy="-18" rx="54.42" ry="18"/>
<text text-anchor="middle" x="955" y="-12.95" font-family="Times,serif" font-size="14.00">idTaillight1</text>
</g>
<!-- idSmoke1&#45;&gt;idTaillight1 -->
<g id="edge9" class="edge">
<title>idSmoke1&#45;&gt;idTaillight1</title>
<path fill="none" stroke="black" d="M828.24,-93.25C844.04,-87.13 862.83,-79.19 879,-70.5 895.01,-61.9 911.83,-50.74 925.57,-41.01"/>
<polygon fill="black" stroke="black" points="927.04,-43.55 933.12,-34.87 922.95,-37.87 927.04,-43.55"/>
<text text-anchor="middle" x="928.25" y="-57.2" font-family="Times,serif" font-size="14.00">isEastOf</text>
</g>
<!-- idTire1 -->
<g id="node11" class="node">
<title>idTire1</title>
<ellipse fill="none" stroke="black" cx="1065" cy="-18" rx="38.04" ry="18"/>
<text text-anchor="middle" x="1065" y="-12.95" font-family="Times,serif" font-size="14.00">idTire1</text>
</g>
<!-- idSmoke1&#45;&gt;idTire1 -->
<g id="edge10" class="edge">
<title>idSmoke1&#45;&gt;idTire1</title>
<path fill="none" stroke="black" d="M838.45,-98.6C871.19,-92.85 916.52,-83.51 955,-70.5 981.39,-61.58 1009.83,-48.16 1031.18,-37.25"/>
<polygon fill="black" stroke="black" points="1032.49,-40 1039.75,-32.28 1029.26,-33.78 1032.49,-40"/>
<text text-anchor="middle" x="1019.25" y="-57.2" font-family="Times,serif" font-size="14.00">isEastOf</text>
</g>
<!-- idClearing1 -->
<g id="node12" class="node">
<title>idClearing1</title>
<ellipse fill="none" stroke="black" cx="1175" cy="-18" rx="54.42" ry="18"/>
<text text-anchor="middle" x="1175" y="-12.95" font-family="Times,serif" font-size="14.00">idClearing1</text>
</g>
<!-- idSmoke1&#45;&gt;idClearing1 -->
<g id="edge11" class="edge">
<title>idSmoke1&#45;&gt;idClearing1</title>
<path fill="none" stroke="black" d="M841.58,-102.34C892.76,-98.14 976.19,-88.99 1046,-70.5 1076.73,-62.36 1110.02,-48.95 1135.09,-37.85"/>
<polygon fill="black" stroke="black" points="1136.26,-40.71 1143.95,-33.41 1133.39,-34.32 1136.26,-40.71"/>
<text text-anchor="middle" x="1119.5" y="-57.2" font-family="Times,serif" font-size="14.00">isWestOf</text>
</g>
<!-- idBush1 -->
<g id="node13" class="node">
<title>idBush1</title>
<ellipse fill="none" stroke="black" cx="1289" cy="-18" rx="41.63" ry="18"/>
<text text-anchor="middle" x="1289" y="-12.95" font-family="Times,serif" font-size="14.00">idBush1</text>
</g>
<!-- idSmoke1&#45;&gt;idBush1 -->
<g id="edge12" class="edge">
<title>idSmoke1&#45;&gt;idBush1</title>
<path fill="none" stroke="black" d="M842.86,-104.59C911.9,-102.43 1041.55,-95.14 1149,-70.5 1184.48,-62.37 1223.2,-47.64 1250.91,-36.01"/>
<polygon fill="black" stroke="black" points="1252.13,-38.87 1259.96,-31.73 1249.39,-32.43 1252.13,-38.87"/>
<text text-anchor="middle" x="1229.5" y="-57.2" font-family="Times,serif" font-size="14.00">isWestOf</text>
</g>
<!-- idSideMirror1 -->
<g id="node14" class="node">
<title>idSideMirror1</title>
<ellipse fill="none" stroke="black" cx="1413" cy="-18" rx="64.15" ry="18"/>
<text text-anchor="middle" x="1413" y="-12.95" font-family="Times,serif" font-size="14.00">idSideMirror1</text>
</g>
<!-- idSmoke1&#45;&gt;idSideMirror1 -->
<g id="edge13" class="edge">
<title>idSmoke1&#45;&gt;idSideMirror1</title>
<path fill="none" stroke="black" d="M843.08,-105.77C928.48,-105.37 1109.6,-100.62 1259,-70.5 1296.45,-62.95 1337.41,-48.96 1367.66,-37.47"/>
<polygon fill="black" stroke="black" points="1368.83,-40.38 1376.9,-33.52 1366.31,-33.85 1368.83,-40.38"/>
<text text-anchor="middle" x="1345.5" y="-57.2" font-family="Times,serif" font-size="14.00">isWestOf</text>
</g>
<!-- idWhistle1 -->
<g id="node15" class="node">
<title>idWhistle1</title>
<ellipse fill="none" stroke="black" cx="1547" cy="-18" rx="51.86" ry="18"/>
<text text-anchor="middle" x="1547" y="-12.95" font-family="Times,serif" font-size="14.00">idWhistle1</text>
</g>
<!-- idSmoke1&#45;&gt;idWhistle1 -->
<g id="edge14" class="edge">
<title>idSmoke1&#45;&gt;idWhistle1</title>
<path fill="none" stroke="black" d="M843.03,-106.34C943.62,-107.23 1180.23,-105.05 1375,-70.5 1419.23,-62.66 1468.16,-47.33 1502.49,-35.42"/>
<polygon fill="black" stroke="black" points="1503.38,-38.47 1511.65,-31.85 1501.06,-31.86 1503.38,-38.47"/>
<text text-anchor="middle" x="1468.5" y="-57.2" font-family="Times,serif" font-size="14.00">isWestOf</text>
</g>
</g>
</svg>
