<?xml version="1.0" encoding="UTF-8" standalone="no"?>
<!DOCTYPE svg PUBLIC "-//W3C//DTD SVG 1.1//EN"
 "http://www.w3.org/Graphics/SVG/1.1/DTD/svg11.dtd">
<!-- Generated by graphviz version 8.1.0 (20230707.0739)
 -->
<!-- Pages: 1 -->
<svg width="1945pt" height="133pt"
 viewBox="0.00 0.00 1944.74 132.50" xmlns="http://www.w3.org/2000/svg" xmlns:xlink="http://www.w3.org/1999/xlink">
<g id="graph0" class="graph" transform="scale(1 1) rotate(0) translate(4 128.5)">
<polygon fill="white" stroke="none" points="-4,4 -4,-128.5 1940.74,-128.5 1940.74,4 -4,4"/>
<!-- idSpill1 -->
<g id="node1" class="node">
<title>idSpill1</title>
<ellipse fill="none" stroke="black" cx="980.88" cy="-106.5" rx="40.09" ry="18"/>
<text text-anchor="middle" x="980.88" y="-101.45" font-family="Times,serif" font-size="14.00">idSpill1</text>
</g>
<!-- black -->
<g id="node2" class="node">
<title>black</title>
<ellipse fill="none" stroke="black" cx="30.88" cy="-18" rx="30.88" ry="18"/>
<text text-anchor="middle" x="30.88" y="-12.95" font-family="Times,serif" font-size="14.00">black</text>
</g>
<!-- idSpill1&#45;&gt;black -->
<g id="edge1" class="edge">
<title>idSpill1&#45;&gt;black</title>
<path fill="none" stroke="black" d="M940.38,-105.76C775.06,-106.6 156.39,-107.22 77.63,-70.5 65.27,-64.74 54.72,-54.04 46.78,-43.88"/>
<polygon fill="black" stroke="black" points="49.21,-42.27 40.51,-36.23 43.55,-46.38 49.21,-42.27"/>
<text text-anchor="middle" x="139" y="-57.2" font-family="Times,serif" font-size="14.00">idSpill1_prop_idColor</text>
</g>
<!-- yes -->
<g id="node3" class="node">
<title>yes</title>
<ellipse fill="none" stroke="black" cx="175.88" cy="-18" rx="27" ry="18"/>
<text text-anchor="middle" x="175.88" y="-12.95" font-family="Times,serif" font-size="14.00">yes</text>
</g>
<!-- idSpill1&#45;&gt;yes -->
<g id="edge2" class="edge">
<title>idSpill1&#45;&gt;yes</title>
<path fill="none" stroke="black" d="M940.44,-105.37C793.16,-104.66 290.59,-100.07 225.38,-70.5 212.32,-64.58 200.96,-53.5 192.43,-43.13"/>
<polygon fill="black" stroke="black" points="194.82,-41.51 185.95,-35.72 189.28,-45.78 194.82,-41.51"/>
<text text-anchor="middle" x="303.13" y="-57.2" font-family="Times,serif" font-size="14.00">idSpill1_prop_idImmovable</text>
</g>
<!-- idCar1 -->
<g id="node4" class="node">
<title>idCar1</title>
<ellipse fill="none" stroke="black" cx="270.88" cy="-18" rx="36" ry="18"/>
<text text-anchor="middle" x="270.88" y="-12.95" font-family="Times,serif" font-size="14.00">idCar1</text>
</g>
<!-- idSpill1&#45;&gt;idCar1 -->
<g id="edge3" class="edge">
<title>idSpill1&#45;&gt;idCar1</title>
<path fill="none" stroke="black" d="M940.81,-104.55C855.69,-102.13 650.72,-94.15 480.63,-70.5 406.53,-60.2 387.7,-56.95 315.88,-36 313.44,-35.29 310.95,-34.51 308.45,-33.68"/>
<polygon fill="black" stroke="black" points="309.85,-30.11 299.26,-30.11 307.54,-36.72 309.85,-30.11"/>
<text text-anchor="middle" x="498.5" y="-57.2" font-family="Times,serif" font-size="14.00">isNear</text>
</g>
<!-- idTheCarRoom1 -->
<g id="node5" class="node">
<title>idTheCarRoom1</title>
<ellipse fill="none" stroke="black" cx="397.88" cy="-18" rx="73.36" ry="18"/>
<text text-anchor="middle" x="397.88" y="-12.95" font-family="Times,serif" font-size="14.00">idTheCarRoom1</text>
</g>
<!-- idSpill1&#45;&gt;idTheCarRoom1 -->
<g id="edge4" class="edge">
<title>idSpill1&#45;&gt;idTheCarRoom1</title>
<path fill="none" stroke="black" d="M940.66,-104.26C869.13,-101.53 715.32,-93.33 587.63,-70.5 540.79,-62.13 488.7,-47.6 450.97,-36.11"/>
<polygon fill="black" stroke="black" points="452.31,-32.55 441.72,-32.96 450.25,-39.24 452.31,-32.55"/>
<text text-anchor="middle" x="605.5" y="-57.2" font-family="Times,serif" font-size="14.00">isNear</text>
</g>
<!-- idPlayer -->
<g id="node6" class="node">
<title>idPlayer</title>
<ellipse fill="none" stroke="black" cx="530.88" cy="-18" rx="41.63" ry="18"/>
<text text-anchor="middle" x="530.88" y="-12.95" font-family="Times,serif" font-size="14.00">idPlayer</text>
</g>
<!-- idSpill1&#45;&gt;idPlayer -->
<g id="edge5" class="edge">
<title>idSpill1&#45;&gt;idPlayer</title>
<path fill="none" stroke="black" d="M941.08,-103.59C883.14,-100.19 772.48,-91.39 680.63,-70.5 642.26,-61.77 599.99,-46.71 570.17,-35.12"/>
<polygon fill="black" stroke="black" points="571.75,-31.59 561.17,-31.18 569.19,-38.1 571.75,-31.59"/>
<text text-anchor="middle" x="698.5" y="-57.2" font-family="Times,serif" font-size="14.00">isNear</text>
</g>
<!-- idArea1 -->
<g id="node7" class="node">
<title>idArea1</title>
<ellipse fill="none" stroke="black" cx="630.88" cy="-18" rx="40.6" ry="18"/>
<text text-anchor="middle" x="630.88" y="-12.95" font-family="Times,serif" font-size="14.00">idArea1</text>
</g>
<!-- idSpill1&#45;&gt;idArea1 -->
<g id="edge6" class="edge">
<title>idSpill1&#45;&gt;idArea1</title>
<path fill="none" stroke="black" d="M942,-101.27C899.4,-96.12 829.29,-86.12 770.38,-70.5 735.42,-61.23 696.94,-46.68 669.27,-35.41"/>
<polygon fill="black" stroke="black" points="670.8,-31.84 660.22,-31.27 668.13,-38.31 670.8,-31.84"/>
<text text-anchor="middle" x="794.13" y="-57.2" font-family="Times,serif" font-size="14.00">isEastOf</text>
</g>
<!-- idBumper1 -->
<g id="node8" class="node">
<title>idBumper1</title>
<ellipse fill="none" stroke="black" cx="741.88" cy="-18" rx="52.89" ry="18"/>
<text text-anchor="middle" x="741.88" y="-12.95" font-family="Times,serif" font-size="14.00">idBumper1</text>
</g>
<!-- idSpill1&#45;&gt;idBumper1 -->
<g id="edge7" class="edge">
<title>idSpill1&#45;&gt;idBumper1</title>
<path fill="none" stroke="black" d="M946.49,-96.76C922.18,-90.28 888.96,-80.82 860.38,-70.5 833.66,-60.86 804.39,-48.16 781.62,-37.78"/>
<polygon fill="black" stroke="black" points="783.2,-34.19 772.65,-33.2 780.27,-40.55 783.2,-34.19"/>
<text text-anchor="middle" x="884.13" y="-57.2" font-family="Times,serif" font-size="14.00">isEastOf</text>
</g>
<!-- idCarKey1 -->
<g id="node9" class="node">
<title>idCarKey1</title>
<ellipse fill="none" stroke="black" cx="863.88" cy="-18" rx="51.35" ry="18"/>
<text text-anchor="middle" x="863.88" y="-12.95" font-family="Times,serif" font-size="14.00">idCarKey1</text>
</g>
<!-- idSpill1&#45;&gt;idCarKey1 -->
<g id="edge8" class="edge">
<title>idSpill1&#45;&gt;idCarKey1</title>
<path fill="none" stroke="black" d="M959.57,-91.1C950.5,-84.87 939.84,-77.44 930.38,-70.5 917.71,-61.21 903.94,-50.64 892.24,-41.5"/>
<polygon fill="black" stroke="black" points="894.78,-38.25 884.75,-34.83 890.45,-43.76 894.78,-38.25"/>
<text text-anchor="middle" x="954.13" y="-57.2" font-family="Times,serif" font-size="14.00">isEastOf</text>
</g>
<!-- idStump1 -->
<g id="node10" class="node">
<title>idStump1</title>
<ellipse fill="none" stroke="black" cx="980.88" cy="-18" rx="47.26" ry="18"/>
<text text-anchor="middle" x="980.88" y="-12.95" font-family="Times,serif" font-size="14.00">idStump1</text>
</g>
<!-- idSpill1&#45;&gt;idStump1 -->
<g id="edge9" class="edge">
<title>idSpill1&#45;&gt;idStump1</title>
<path fill="none" stroke="black" d="M980.88,-88.41C980.88,-76.64 980.88,-60.73 980.88,-47.11"/>
<polygon fill="black" stroke="black" points="984.38,-47.35 980.88,-37.35 977.38,-47.35 984.38,-47.35"/>
<text text-anchor="middle" x="1004.13" y="-57.2" font-family="Times,serif" font-size="14.00">isEastOf</text>
</g>
<!-- idDen1 -->
<g id="node11" class="node">
<title>idDen1</title>
<ellipse fill="none" stroke="black" cx="1083.88" cy="-18" rx="38.04" ry="18"/>
<text text-anchor="middle" x="1083.88" y="-12.95" font-family="Times,serif" font-size="14.00">idDen1</text>
</g>
<!-- idSpill1&#45;&gt;idDen1 -->
<g id="edge10" class="edge">
<title>idSpill1&#45;&gt;idDen1</title>
<path fill="none" stroke="black" d="M1002.85,-91.24C1011.78,-85.16 1022.06,-77.79 1030.88,-70.5 1041.28,-61.9 1052.08,-51.67 1061.2,-42.61"/>
<polygon fill="black" stroke="black" points="1063.17,-45.58 1067.72,-36.01 1058.2,-40.65 1063.17,-45.58"/>
<text text-anchor="middle" x="1073.13" y="-57.2" font-family="Times,serif" font-size="14.00">isEastOf</text>
</g>
<!-- idBear1 -->
<g id="node12" class="node">
<title>idBear1</title>
<ellipse fill="none" stroke="black" cx="1179.88" cy="-18" rx="40.09" ry="18"/>
<text text-anchor="middle" x="1179.88" y="-12.95" font-family="Times,serif" font-size="14.00">idBear1</text>
</g>
<!-- idSpill1&#45;&gt;idBear1 -->
<g id="edge11" class="edge">
<title>idSpill1&#45;&gt;idBear1</title>
<path fill="none" stroke="black" d="M1016.46,-97.86C1040.62,-92 1072.95,-82.82 1099.88,-70.5 1117.92,-62.25 1136.63,-50.41 1151.42,-40.16"/>
<polygon fill="black" stroke="black" points="1152.94,-42.66 1159.09,-34.03 1148.9,-36.95 1152.94,-42.66"/>
<text text-anchor="middle" x="1153.13" y="-57.2" font-family="Times,serif" font-size="14.00">isEastOf</text>
</g>
<!-- idTaillight1 -->
<g id="node13" class="node">
<title>idTaillight1</title>
<ellipse fill="none" stroke="black" cx="1292.88" cy="-18" rx="54.42" ry="18"/>
<text text-anchor="middle" x="1292.88" y="-12.95" font-family="Times,serif" font-size="14.00">idTaillight1</text>
</g>
<!-- idSpill1&#45;&gt;idTaillight1 -->
<g id="edge12" class="edge">
<title>idSpill1&#45;&gt;idTaillight1</title>
<path fill="none" stroke="black" d="M1019.71,-101.62C1060.33,-96.88 1125.6,-87.34 1179.88,-70.5 1206.01,-62.39 1234,-49.67 1255.59,-38.9"/>
<polygon fill="black" stroke="black" points="1257,-41.6 1264.33,-33.95 1253.83,-35.36 1257,-41.6"/>
<text text-anchor="middle" x="1245.13" y="-57.2" font-family="Times,serif" font-size="14.00">isEastOf</text>
</g>
<!-- idTire1 -->
<g id="node14" class="node">
<title>idTire1</title>
<ellipse fill="none" stroke="black" cx="1402.88" cy="-18" rx="38.04" ry="18"/>
<text text-anchor="middle" x="1402.88" y="-12.95" font-family="Times,serif" font-size="14.00">idTire1</text>
</g>
<!-- idSpill1&#45;&gt;idTire1 -->
<g id="edge13" class="edge">
<title>idSpill1&#45;&gt;idTire1</title>
<path fill="none" stroke="black" d="M1021,-103.9C1077.68,-100.92 1184.06,-92.66 1271.88,-70.5 1305.14,-62.11 1341.31,-47.44 1367.2,-35.89"/>
<polygon fill="black" stroke="black" points="1368.27,-38.8 1375.94,-31.48 1365.38,-32.42 1368.27,-38.8"/>
<text text-anchor="middle" x="1343.13" y="-57.2" font-family="Times,serif" font-size="14.00">isEastOf</text>
</g>
<!-- idClearing1 -->
<g id="node15" class="node">
<title>idClearing1</title>
<ellipse fill="none" stroke="black" cx="1512.88" cy="-18" rx="54.42" ry="18"/>
<text text-anchor="middle" x="1512.88" y="-12.95" font-family="Times,serif" font-size="14.00">idClearing1</text>
</g>
<!-- idSpill1&#45;&gt;idClearing1 -->
<g id="edge14" class="edge">
<title>idSpill1&#45;&gt;idClearing1</title>
<path fill="none" stroke="black" d="M1021.15,-105.25C1092.35,-104.07 1244.75,-98.18 1369.88,-70.5 1404.99,-62.73 1443.24,-48.64 1471.34,-37.16"/>
<polygon fill="black" stroke="black" points="1472.31,-40.13 1480.2,-33.07 1469.63,-33.67 1472.31,-40.13"/>
<text text-anchor="middle" x="1452.38" y="-57.2" font-family="Times,serif" font-size="14.00">isWestOf</text>
</g>
<!-- idBush1 -->
<g id="node16" class="node">
<title>idBush1</title>
<ellipse fill="none" stroke="black" cx="1626.88" cy="-18" rx="41.63" ry="18"/>
<text text-anchor="middle" x="1626.88" y="-12.95" font-family="Times,serif" font-size="14.00">idBush1</text>
</g>
<!-- idSpill1&#45;&gt;idBush1 -->
<g id="edge15" class="edge">
<title>idSpill1&#45;&gt;idBush1</title>
<path fill="none" stroke="black" d="M1021.06,-104.1C1123.79,-100.29 1394.07,-88.8 1481.88,-70.5 1519.15,-62.73 1559.85,-47.65 1588.62,-35.81"/>
<polygon fill="black" stroke="black" points="1589.78,-38.7 1597.65,-31.62 1587.08,-32.25 1589.78,-38.7"/>
<text text-anchor="middle" x="1564.38" y="-57.2" font-family="Times,serif" font-size="14.00">isWestOf</text>
</g>
<!-- idSideMirror1 -->
<g id="node17" class="node">
<title>idSideMirror1</title>
<ellipse fill="none" stroke="black" cx="1750.88" cy="-18" rx="64.15" ry="18"/>
<text text-anchor="middle" x="1750.88" y="-12.95" font-family="Times,serif" font-size="14.00">idSideMirror1</text>
</g>
<!-- idSpill1&#45;&gt;idSideMirror1 -->
<g id="edge16" class="edge">
<title>idSpill1&#45;&gt;idSideMirror1</title>
<path fill="none" stroke="black" d="M1021.22,-104.56C1139.42,-101.6 1483.51,-91.38 1593.88,-70.5 1632.5,-63.19 1674.75,-48.96 1705.68,-37.3"/>
<polygon fill="black" stroke="black" points="1706.63,-40.3 1714.72,-33.46 1704.13,-33.76 1706.63,-40.3"/>
<text text-anchor="middle" x="1681.38" y="-57.2" font-family="Times,serif" font-size="14.00">isWestOf</text>
</g>
<!-- idWhistle1 -->
<g id="node18" class="node">
<title>idWhistle1</title>
<ellipse fill="none" stroke="black" cx="1884.88" cy="-18" rx="51.86" ry="18"/>
<text text-anchor="middle" x="1884.88" y="-12.95" font-family="Times,serif" font-size="14.00">idWhistle1</text>
</g>
<!-- idSpill1&#45;&gt;idWhistle1 -->
<g id="edge17" class="edge">
<title>idSpill1&#45;&gt;idWhistle1</title>
<path fill="none" stroke="black" d="M1021.17,-104.84C1153.89,-102.46 1576.55,-93.26 1710.88,-70.5 1755.78,-62.89 1805.45,-47.46 1840.19,-35.46"/>
<polygon fill="black" stroke="black" points="1841.18,-38.47 1849.46,-31.86 1838.87,-31.86 1841.18,-38.47"/>
<text text-anchor="middle" x="1804.38" y="-57.2" font-family="Times,serif" font-size="14.00">isWestOf</text>
</g>
</g>
</svg>
