<?xml version="1.0" encoding="UTF-8" standalone="no"?>
<!DOCTYPE svg PUBLIC "-//W3C//DTD SVG 1.1//EN"
 "http://www.w3.org/Graphics/SVG/1.1/DTD/svg11.dtd">
<!-- Generated by graphviz version 8.1.0 (20230707.0739)
 -->
<!-- Pages: 1 -->
<svg width="3399pt" height="133pt"
 viewBox="0.00 0.00 3399.32 132.50" xmlns="http://www.w3.org/2000/svg" xmlns:xlink="http://www.w3.org/1999/xlink">
<g id="graph0" class="graph" transform="scale(1 1) rotate(0) translate(4 128.5)">
<polygon fill="white" stroke="none" points="-4,4 -4,-128.5 3395.32,-128.5 3395.32,4 -4,4"/>
<!-- idStump1 -->
<g id="node1" class="node">
<title>idStump1</title>
<ellipse fill="none" stroke="black" cx="1691.46" cy="-106.5" rx="47.26" ry="18"/>
<text text-anchor="middle" x="1691.46" y="-101.45" font-family="Times,serif" font-size="14.00">idStump1</text>
</g>
<!-- idStump1&#45;&gt;idStump1 -->
<g id="edge8" class="edge">
<title>idStump1&#45;&gt;idStump1</title>
<path fill="none" stroke="black" d="M1734.14,-114.78C1746.84,-114.53 1756.72,-111.77 1756.72,-106.5 1756.72,-102.88 1752.05,-100.44 1745,-99.19"/>
<polygon fill="black" stroke="black" points="1745.41,-95.62 1735.14,-98.22 1744.79,-102.59 1745.41,-95.62"/>
<text text-anchor="middle" x="1774.34" y="-101.45" font-family="Times,serif" font-size="14.00">isNear</text>
</g>
<!-- brown -->
<g id="node2" class="node">
<title>brown</title>
<ellipse fill="none" stroke="black" cx="34.46" cy="-18" rx="34.46" ry="18"/>
<text text-anchor="middle" x="34.46" y="-12.95" font-family="Times,serif" font-size="14.00">brown</text>
</g>
<!-- idStump1&#45;&gt;brown -->
<g id="edge1" class="edge">
<title>idStump1&#45;&gt;brown</title>
<path fill="none" stroke="black" d="M1643.98,-105.68C1383.97,-106.5 141.85,-108.4 70.71,-70.5 60.36,-64.99 52.32,-55.05 46.47,-45.37"/>
<polygon fill="black" stroke="black" points="49.2,-44.06 41.35,-36.95 43.05,-47.4 49.2,-44.06"/>
<text text-anchor="middle" x="137.84" y="-57.2" font-family="Times,serif" font-size="14.00">idStump1_prop_idColor</text>
</g>
<!-- chopped -->
<g id="node3" class="node">
<title>chopped</title>
<ellipse fill="none" stroke="black" cx="190.46" cy="-18" rx="42.14" ry="18"/>
<text text-anchor="middle" x="190.46" y="-12.95" font-family="Times,serif" font-size="14.00">chopped</text>
</g>
<!-- idStump1&#45;&gt;chopped -->
<g id="edge2" class="edge">
<title>idStump1&#45;&gt;chopped</title>
<path fill="none" stroke="black" d="M1644.09,-105.62C1399.31,-106.05 286.72,-106.08 223.46,-70.5 213.71,-65.01 206.39,-55.32 201.16,-45.8"/>
<polygon fill="black" stroke="black" points="203.98,-44.6 196.45,-37.14 197.69,-47.67 203.98,-44.6"/>
<text text-anchor="middle" x="302.96" y="-57.2" font-family="Times,serif" font-size="14.00">idStump1_prop_idDescriptor</text>
</g>
<!-- hollow -->
<g id="node4" class="node">
<title>hollow</title>
<ellipse fill="none" stroke="black" cx="372.46" cy="-18" rx="36.51" ry="18"/>
<text text-anchor="middle" x="372.46" y="-12.95" font-family="Times,serif" font-size="14.00">hollow</text>
</g>
<!-- idStump1&#45;&gt;hollow -->
<g id="edge3" class="edge">
<title>idStump1&#45;&gt;hollow</title>
<path fill="none" stroke="black" d="M1643.97,-105.51C1417.54,-105.38 456.2,-102.93 401.96,-70.5 392.8,-65.02 386.23,-55.55 381.64,-46.21"/>
<polygon fill="black" stroke="black" points="384.57,-45.15 377.42,-37.33 378.13,-47.9 384.57,-45.15"/>
<text text-anchor="middle" x="488.71" y="-57.2" font-family="Times,serif" font-size="14.00">idStump1_prop_idDescriptor_1</text>
</g>
<!-- yes -->
<g id="node5" class="node">
<title>yes</title>
<ellipse fill="none" stroke="black" cx="562.46" cy="-18" rx="27" ry="18"/>
<text text-anchor="middle" x="562.46" y="-12.95" font-family="Times,serif" font-size="14.00">yes</text>
</g>
<!-- idStump1&#45;&gt;yes -->
<g id="edge4" class="edge">
<title>idStump1&#45;&gt;yes</title>
<path fill="none" stroke="black" d="M1644.11,-105.23C1439.63,-103.91 640.49,-97.06 594.46,-70.5 584.95,-65.01 577.88,-55.45 572.84,-46.04"/>
<polygon fill="black" stroke="black" points="575.58,-44.65 568.15,-37.1 569.25,-47.64 575.58,-44.65"/>
<text text-anchor="middle" x="676.96" y="-57.2" font-family="Times,serif" font-size="14.00">idStump1_prop_idImmovable</text>
</g>
<!-- idArea1 -->
<g id="node6" class="node">
<title>idArea1</title>
<ellipse fill="none" stroke="black" cx="648.46" cy="-18" rx="40.6" ry="18"/>
<text text-anchor="middle" x="648.46" y="-12.95" font-family="Times,serif" font-size="14.00">idArea1</text>
</g>
<!-- idStump1&#45;&gt;idArea1 -->
<g id="edge5" class="edge">
<title>idStump1&#45;&gt;idArea1</title>
<path fill="none" stroke="black" d="M1644.03,-104.84C1488.37,-102.45 994.05,-93.25 836.21,-70.5 784.69,-63.07 727.2,-45.94 689.58,-33.47"/>
<polygon fill="black" stroke="black" points="691.11,-29.96 680.51,-30.09 688.88,-36.59 691.11,-29.96"/>
<text text-anchor="middle" x="854.09" y="-57.2" font-family="Times,serif" font-size="14.00">isNear</text>
</g>
<!-- idCarKey1 -->
<g id="node7" class="node">
<title>idCarKey1</title>
<ellipse fill="none" stroke="black" cx="758.46" cy="-18" rx="51.35" ry="18"/>
<text text-anchor="middle" x="758.46" y="-12.95" font-family="Times,serif" font-size="14.00">idCarKey1</text>
</g>
<!-- idStump1&#45;&gt;idCarKey1 -->
<g id="edge6" class="edge">
<title>idStump1&#45;&gt;idCarKey1</title>
<path fill="none" stroke="black" d="M1644.2,-104.59C1502.71,-101.64 1084.03,-91.36 949.21,-70.5 899.02,-62.73 843.07,-46.72 804.82,-34.6"/>
<polygon fill="black" stroke="black" points="806.11,-31.02 795.52,-31.29 803.97,-37.68 806.11,-31.02"/>
<text text-anchor="middle" x="967.09" y="-57.2" font-family="Times,serif" font-size="14.00">isNear</text>
</g>
<!-- idTheCar1 -->
<g id="node8" class="node">
<title>idTheCar1</title>
<ellipse fill="none" stroke="black" cx="878.46" cy="-18" rx="50.33" ry="18"/>
<text text-anchor="middle" x="878.46" y="-12.95" font-family="Times,serif" font-size="14.00">idTheCar1</text>
</g>
<!-- idStump1&#45;&gt;idTheCar1 -->
<g id="edge7" class="edge">
<title>idStump1&#45;&gt;idTheCar1</title>
<path fill="none" stroke="black" d="M1644.4,-104.28C1517.48,-100.76 1170.16,-89.63 1057.21,-70.5 1010.55,-62.6 958.74,-46.87 922.97,-34.86"/>
<polygon fill="black" stroke="black" points="924.45,-31.33 913.86,-31.42 922.2,-37.96 924.45,-31.33"/>
<text text-anchor="middle" x="1085.59" y="-57.2" font-family="Times,serif" font-size="14.00">isInsideOf</text>
</g>
<!-- idBumper1 -->
<g id="node9" class="node">
<title>idBumper1</title>
<ellipse fill="none" stroke="black" cx="999.46" cy="-18" rx="52.89" ry="18"/>
<text text-anchor="middle" x="999.46" y="-12.95" font-family="Times,serif" font-size="14.00">idBumper1</text>
</g>
<!-- idStump1&#45;&gt;idBumper1 -->
<g id="edge9" class="edge">
<title>idStump1&#45;&gt;idBumper1</title>
<path fill="none" stroke="black" d="M1643.97,-105.13C1554.82,-103.79 1356.58,-97.7 1192.21,-70.5 1141.92,-62.18 1085.75,-46.41 1047.09,-34.5"/>
<polygon fill="black" stroke="black" points="1048.25,-30.88 1037.66,-31.25 1046.17,-37.57 1048.25,-30.88"/>
<text text-anchor="middle" x="1210.09" y="-57.2" font-family="Times,serif" font-size="14.00">isNear</text>
</g>
<!-- idTheCarRoom1 -->
<g id="node10" class="node">
<title>idTheCarRoom1</title>
<ellipse fill="none" stroke="black" cx="1143.46" cy="-18" rx="73.36" ry="18"/>
<text text-anchor="middle" x="1143.46" y="-12.95" font-family="Times,serif" font-size="14.00">idTheCarRoom1</text>
</g>
<!-- idStump1&#45;&gt;idTheCarRoom1 -->
<g id="edge10" class="edge">
<title>idStump1&#45;&gt;idTheCarRoom1</title>
<path fill="none" stroke="black" d="M1643.91,-105.31C1567.77,-104.14 1414.19,-98.17 1287.46,-70.5 1253.27,-63.04 1216.11,-49.6 1188.11,-38.33"/>
<polygon fill="black" stroke="black" points="1189.81,-34.83 1179.23,-34.29 1187.16,-41.31 1189.81,-34.83"/>
<text text-anchor="middle" x="1312.96" y="-57.2" font-family="Times,serif" font-size="14.00">isWestOf</text>
</g>
<!-- idDen1 -->
<g id="node11" class="node">
<title>idDen1</title>
<ellipse fill="none" stroke="black" cx="1272.46" cy="-18" rx="38.04" ry="18"/>
<text text-anchor="middle" x="1272.46" y="-12.95" font-family="Times,serif" font-size="14.00">idDen1</text>
</g>
<!-- idStump1&#45;&gt;idDen1 -->
<g id="edge11" class="edge">
<title>idStump1&#45;&gt;idDen1</title>
<path fill="none" stroke="black" d="M1644.05,-104.49C1583.55,-102.2 1476.15,-94.74 1387.71,-70.5 1359.12,-62.66 1328.56,-48.73 1306.1,-37.33"/>
<polygon fill="black" stroke="black" points="1307.88,-33.79 1297.39,-32.3 1304.66,-40 1307.88,-33.79"/>
<text text-anchor="middle" x="1415.84" y="-57.2" font-family="Times,serif" font-size="14.00">isNorthOf</text>
</g>
<!-- idClearing1 -->
<g id="node12" class="node">
<title>idClearing1</title>
<ellipse fill="none" stroke="black" cx="1382.46" cy="-18" rx="54.42" ry="18"/>
<text text-anchor="middle" x="1382.46" y="-12.95" font-family="Times,serif" font-size="14.00">idClearing1</text>
</g>
<!-- idStump1&#45;&gt;idClearing1 -->
<g id="edge12" class="edge">
<title>idStump1&#45;&gt;idClearing1</title>
<path fill="none" stroke="black" d="M1645.46,-101.81C1602.66,-97.44 1537.53,-88.36 1483.46,-70.5 1460.23,-62.82 1435.74,-50.46 1416.69,-39.76"/>
<polygon fill="black" stroke="black" points="1418.68,-36.3 1408.27,-34.36 1415.2,-42.37 1418.68,-36.3"/>
<text text-anchor="middle" x="1508.96" y="-57.2" font-family="Times,serif" font-size="14.00">isWestOf</text>
</g>
<!-- idBear1 -->
<g id="node13" class="node">
<title>idBear1</title>
<ellipse fill="none" stroke="black" cx="1495.46" cy="-18" rx="40.09" ry="18"/>
<text text-anchor="middle" x="1495.46" y="-12.95" font-family="Times,serif" font-size="14.00">idBear1</text>
</g>
<!-- idStump1&#45;&gt;idBear1 -->
<g id="edge13" class="edge">
<title>idStump1&#45;&gt;idBear1</title>
<path fill="none" stroke="black" d="M1649.17,-98.12C1623.56,-92.64 1590.75,-83.79 1563.71,-70.5 1548.38,-62.96 1533.05,-51.8 1520.8,-41.79"/>
<polygon fill="black" stroke="black" points="1523.38,-38.54 1513.48,-34.77 1518.87,-43.89 1523.38,-38.54"/>
<text text-anchor="middle" x="1591.84" y="-57.2" font-family="Times,serif" font-size="14.00">isNorthOf</text>
</g>
<!-- idBush1 -->
<g id="node14" class="node">
<title>idBush1</title>
<ellipse fill="none" stroke="black" cx="1595.46" cy="-18" rx="41.63" ry="18"/>
<text text-anchor="middle" x="1595.46" y="-12.95" font-family="Times,serif" font-size="14.00">idBush1</text>
</g>
<!-- idStump1&#45;&gt;idBush1 -->
<g id="edge14" class="edge">
<title>idStump1&#45;&gt;idBush1</title>
<path fill="none" stroke="black" d="M1665.02,-91.12C1655.52,-85.35 1645.04,-78.22 1636.46,-70.5 1627.89,-62.79 1619.7,-53.15 1612.93,-44.3"/>
<polygon fill="black" stroke="black" points="1615.18,-42.46 1606.43,-36.49 1609.54,-46.61 1615.18,-42.46"/>
<text text-anchor="middle" x="1661.96" y="-57.2" font-family="Times,serif" font-size="14.00">isWestOf</text>
</g>
<!-- idCar1 -->
<g id="node15" class="node">
<title>idCar1</title>
<ellipse fill="none" stroke="black" cx="1691.46" cy="-18" rx="36" ry="18"/>
<text text-anchor="middle" x="1691.46" y="-12.95" font-family="Times,serif" font-size="14.00">idCar1</text>
</g>
<!-- idStump1&#45;&gt;idCar1 -->
<g id="edge15" class="edge">
<title>idStump1&#45;&gt;idCar1</title>
<path fill="none" stroke="black" d="M1691.46,-88.41C1691.46,-76.64 1691.46,-60.73 1691.46,-47.11"/>
<polygon fill="black" stroke="black" points="1694.96,-47.35 1691.46,-37.35 1687.96,-47.35 1694.96,-47.35"/>
<text text-anchor="middle" x="1716.96" y="-57.2" font-family="Times,serif" font-size="14.00">isWestOf</text>
</g>
<!-- idCrowbar1 -->
<g id="node16" class="node">
<title>idCrowbar1</title>
<ellipse fill="none" stroke="black" cx="1800.46" cy="-18" rx="54.93" ry="18"/>
<text text-anchor="middle" x="1800.46" y="-12.95" font-family="Times,serif" font-size="14.00">idCrowbar1</text>
</g>
<!-- idStump1&#45;&gt;idCrowbar1 -->
<g id="edge16" class="edge">
<title>idStump1&#45;&gt;idCrowbar1</title>
<path fill="none" stroke="black" d="M1716.53,-90.98C1726.17,-85.03 1737.1,-77.83 1746.46,-70.5 1757.03,-62.22 1767.9,-52.21 1777.08,-43.22"/>
<polygon fill="black" stroke="black" points="1779.06,-46.19 1783.67,-36.65 1774.12,-41.23 1779.06,-46.19"/>
<text text-anchor="middle" x="1790.96" y="-57.2" font-family="Times,serif" font-size="14.00">isWestOf</text>
</g>
<!-- idLock1 -->
<g id="node17" class="node">
<title>idLock1</title>
<ellipse fill="none" stroke="black" cx="1915.46" cy="-18" rx="41.63" ry="18"/>
<text text-anchor="middle" x="1915.46" y="-12.95" font-family="Times,serif" font-size="14.00">idLock1</text>
</g>
<!-- idStump1&#45;&gt;idLock1 -->
<g id="edge17" class="edge">
<title>idStump1&#45;&gt;idLock1</title>
<path fill="none" stroke="black" d="M1732.34,-96.97C1758.11,-90.97 1791.81,-81.97 1820.46,-70.5 1842.21,-61.79 1865.35,-49.33 1883.34,-38.84"/>
<polygon fill="black" stroke="black" points="1884.95,-41.36 1891.77,-33.25 1881.38,-35.34 1884.95,-41.36"/>
<text text-anchor="middle" x="1880.96" y="-57.2" font-family="Times,serif" font-size="14.00">isWestOf</text>
</g>
<!-- idPlayer -->
<g id="node18" class="node">
<title>idPlayer</title>
<ellipse fill="none" stroke="black" cx="2016.46" cy="-18" rx="41.63" ry="18"/>
<text text-anchor="middle" x="2016.46" y="-12.95" font-family="Times,serif" font-size="14.00">idPlayer</text>
</g>
<!-- idStump1&#45;&gt;idPlayer -->
<g id="edge18" class="edge">
<title>idStump1&#45;&gt;idPlayer</title>
<path fill="none" stroke="black" d="M1737.66,-102.08C1782.62,-97.84 1852.44,-88.79 1910.46,-70.5 1935.78,-62.52 1962.67,-49.4 1983.03,-38.39"/>
<polygon fill="black" stroke="black" points="1984.39,-41.09 1991.46,-33.2 1981.02,-34.96 1984.39,-41.09"/>
<text text-anchor="middle" x="1975.96" y="-57.2" font-family="Times,serif" font-size="14.00">isWestOf</text>
</g>
<!-- idPlayerBackside -->
<g id="node19" class="node">
<title>idPlayerBackside</title>
<ellipse fill="none" stroke="black" cx="2151.46" cy="-18" rx="75.41" ry="18"/>
<text text-anchor="middle" x="2151.46" y="-12.95" font-family="Times,serif" font-size="14.00">idPlayerBackside</text>
</g>
<!-- idStump1&#45;&gt;idPlayerBackside -->
<g id="edge19" class="edge">
<title>idStump1&#45;&gt;idPlayerBackside</title>
<path fill="none" stroke="black" d="M1738.57,-103.6C1800.48,-100.34 1912.29,-91.83 2005.46,-70.5 2039.76,-62.65 2077.17,-49.36 2105.53,-38.24"/>
<polygon fill="black" stroke="black" points="2106.54,-41.21 2114.54,-34.26 2103.96,-34.7 2106.54,-41.21"/>
<text text-anchor="middle" x="2084.96" y="-57.2" font-family="Times,serif" font-size="14.00">isWestOf</text>
</g>
<!-- idPlayerLeftHand -->
<g id="node20" class="node">
<title>idPlayerLeftHand</title>
<ellipse fill="none" stroke="black" cx="2321.46" cy="-18" rx="76.94" ry="18"/>
<text text-anchor="middle" x="2321.46" y="-12.95" font-family="Times,serif" font-size="14.00">idPlayerLeftHand</text>
</g>
<!-- idStump1&#45;&gt;idPlayerLeftHand -->
<g id="edge20" class="edge">
<title>idStump1&#45;&gt;idPlayerLeftHand</title>
<path fill="none" stroke="black" d="M1738.71,-104.08C1817.2,-101.15 1979.22,-92.77 2114.46,-70.5 2166.06,-62 2223.72,-47.21 2265.05,-35.65"/>
<polygon fill="black" stroke="black" points="2265.78,-38.8 2274.46,-32.72 2263.88,-32.06 2265.78,-38.8"/>
<text text-anchor="middle" x="2214.96" y="-57.2" font-family="Times,serif" font-size="14.00">isWestOf</text>
</g>
<!-- idPlayerRightHand -->
<g id="node21" class="node">
<title>idPlayerRightHand</title>
<ellipse fill="none" stroke="black" cx="2498.46" cy="-18" rx="82.06" ry="18"/>
<text text-anchor="middle" x="2498.46" y="-12.95" font-family="Times,serif" font-size="14.00">idPlayerRightHand</text>
</g>
<!-- idStump1&#45;&gt;idPlayerRightHand -->
<g id="edge21" class="edge">
<title>idStump1&#45;&gt;idPlayerRightHand</title>
<path fill="none" stroke="black" d="M1738.65,-104.69C1834.41,-102.56 2058.26,-95.15 2244.46,-70.5 2309.84,-61.84 2383.62,-46.22 2434.75,-34.44"/>
<polygon fill="black" stroke="black" points="2435.35,-37.66 2444.3,-31.99 2433.77,-30.84 2435.35,-37.66"/>
<text text-anchor="middle" x="2368.96" y="-57.2" font-family="Times,serif" font-size="14.00">isWestOf</text>
</g>
<!-- idSideMirror1 -->
<g id="node22" class="node">
<title>idSideMirror1</title>
<ellipse fill="none" stroke="black" cx="2662.46" cy="-18" rx="64.15" ry="18"/>
<text text-anchor="middle" x="2662.46" y="-12.95" font-family="Times,serif" font-size="14.00">idSideMirror1</text>
</g>
<!-- idStump1&#45;&gt;idSideMirror1 -->
<g id="edge22" class="edge">
<title>idStump1&#45;&gt;idSideMirror1</title>
<path fill="none" stroke="black" d="M1738.79,-105.26C1852.75,-104.24 2151.22,-98.83 2398.46,-70.5 2470.08,-62.29 2551.32,-45.26 2604.53,-33.03"/>
<polygon fill="black" stroke="black" points="2605.17,-36.24 2614.12,-30.57 2603.59,-29.42 2605.17,-36.24"/>
<text text-anchor="middle" x="2526.96" y="-57.2" font-family="Times,serif" font-size="14.00">isWestOf</text>
</g>
<!-- idSmoke1 -->
<g id="node23" class="node">
<title>idSmoke1</title>
<ellipse fill="none" stroke="black" cx="2793.46" cy="-18" rx="48.79" ry="18"/>
<text text-anchor="middle" x="2793.46" y="-12.95" font-family="Times,serif" font-size="14.00">idSmoke1</text>
</g>
<!-- idStump1&#45;&gt;idSmoke1 -->
<g id="edge23" class="edge">
<title>idStump1&#45;&gt;idSmoke1</title>
<path fill="none" stroke="black" d="M1739.01,-106.07C1869.88,-107.1 2246.3,-106.46 2556.46,-70.5 2636.94,-61.17 2656.72,-55.08 2735.46,-36 2739.04,-35.13 2742.72,-34.19 2746.42,-33.19"/>
<polygon fill="black" stroke="black" points="2747.08,-36.36 2755.78,-30.32 2745.21,-29.62 2747.08,-36.36"/>
<text text-anchor="middle" x="2684.96" y="-57.2" font-family="Times,serif" font-size="14.00">isWestOf</text>
</g>
<!-- idSpill1 -->
<g id="node24" class="node">
<title>idSpill1</title>
<ellipse fill="none" stroke="black" cx="2900.46" cy="-18" rx="40.09" ry="18"/>
<text text-anchor="middle" x="2900.46" y="-12.95" font-family="Times,serif" font-size="14.00">idSpill1</text>
</g>
<!-- idStump1&#45;&gt;idSpill1 -->
<g id="edge24" class="edge">
<title>idStump1&#45;&gt;idSpill1</title>
<path fill="none" stroke="black" d="M1738.81,-105.21C1913.6,-103.95 2522.34,-97.66 2714.46,-70.5 2765.71,-63.25 2822.84,-46 2860.09,-33.46"/>
<polygon fill="black" stroke="black" points="2860.71,-36.6 2869.04,-30.05 2858.45,-29.97 2860.71,-36.6"/>
<text text-anchor="middle" x="2817.96" y="-57.2" font-family="Times,serif" font-size="14.00">isWestOf</text>
</g>
<!-- idTaillight1 -->
<g id="node25" class="node">
<title>idTaillight1</title>
<ellipse fill="none" stroke="black" cx="3013.46" cy="-18" rx="54.42" ry="18"/>
<text text-anchor="middle" x="3013.46" y="-12.95" font-family="Times,serif" font-size="14.00">idTaillight1</text>
</g>
<!-- idStump1&#45;&gt;idTaillight1 -->
<g id="edge25" class="edge">
<title>idStump1&#45;&gt;idTaillight1</title>
<path fill="none" stroke="black" d="M1739.07,-105.77C1928.49,-106.58 2629,-107 2847.46,-70.5 2889.76,-63.43 2936.25,-48.34 2969.25,-36.31"/>
<polygon fill="black" stroke="black" points="2970.3,-39.28 2978.47,-32.53 2967.87,-32.72 2970.3,-39.28"/>
<text text-anchor="middle" x="2939.84" y="-57.2" font-family="Times,serif" font-size="14.00">isNorthOf</text>
</g>
<!-- idTire1 -->
<g id="node26" class="node">
<title>idTire1</title>
<ellipse fill="none" stroke="black" cx="3123.46" cy="-18" rx="38.04" ry="18"/>
<text text-anchor="middle" x="3123.46" y="-12.95" font-family="Times,serif" font-size="14.00">idTire1</text>
</g>
<!-- idStump1&#45;&gt;idTire1 -->
<g id="edge26" class="edge">
<title>idStump1&#45;&gt;idTire1</title>
<path fill="none" stroke="black" d="M1738.89,-105.02C1955.84,-102.7 2848.47,-91.92 2971.46,-70.5 3011.85,-63.47 3056.03,-47.5 3086.3,-35.2"/>
<polygon fill="black" stroke="black" points="3087.49,-38.08 3095.39,-31.02 3084.82,-31.61 3087.49,-38.08"/>
<text text-anchor="middle" x="3058.84" y="-57.2" font-family="Times,serif" font-size="14.00">isNorthOf</text>
</g>
<!-- idTrunk1 -->
<g id="node27" class="node">
<title>idTrunk1</title>
<ellipse fill="none" stroke="black" cx="3224.46" cy="-18" rx="45.21" ry="18"/>
<text text-anchor="middle" x="3224.46" y="-12.95" font-family="Times,serif" font-size="14.00">idTrunk1</text>
</g>
<!-- idStump1&#45;&gt;idTrunk1 -->
<g id="edge27" class="edge">
<title>idStump1&#45;&gt;idTrunk1</title>
<path fill="none" stroke="black" d="M1739.05,-105.27C1968.58,-104.04 2955.82,-97.23 3090.46,-70.5 3124.34,-63.77 3160.82,-49.23 3187.14,-37.31"/>
<polygon fill="black" stroke="black" points="3188.45,-40.1 3196.06,-32.73 3185.52,-33.75 3188.45,-40.1"/>
<text text-anchor="middle" x="3168.96" y="-57.2" font-family="Times,serif" font-size="14.00">isWestOf</text>
</g>
<!-- idWhistle1 -->
<g id="node28" class="node">
<title>idWhistle1</title>
<ellipse fill="none" stroke="black" cx="3339.46" cy="-18" rx="51.86" ry="18"/>
<text text-anchor="middle" x="3339.46" y="-12.95" font-family="Times,serif" font-size="14.00">idWhistle1</text>
</g>
<!-- idStump1&#45;&gt;idWhistle1 -->
<g id="edge28" class="edge">
<title>idStump1&#45;&gt;idWhistle1</title>
<path fill="none" stroke="black" d="M1739.08,-105.32C1979.31,-104.27 3052.45,-98.08 3198.46,-70.5 3233.93,-63.8 3272.29,-49.28 3300.03,-37.36"/>
<polygon fill="black" stroke="black" points="3300.99,-40.32 3308.74,-33.1 3298.18,-33.91 3300.99,-40.32"/>
<text text-anchor="middle" x="3279.96" y="-57.2" font-family="Times,serif" font-size="14.00">isWestOf</text>
</g>
</g>
</svg>
