<?xml version="1.0" encoding="UTF-8" standalone="no"?>
<!DOCTYPE svg PUBLIC "-//W3C//DTD SVG 1.1//EN"
 "http://www.w3.org/Graphics/SVG/1.1/DTD/svg11.dtd">
<!-- Generated by graphviz version 8.1.0 (20230707.0739)
 -->
<!-- Pages: 1 -->
<svg width="2921pt" height="133pt"
 viewBox="0.00 0.00 2920.67 132.50" xmlns="http://www.w3.org/2000/svg" xmlns:xlink="http://www.w3.org/1999/xlink">
<g id="graph0" class="graph" transform="scale(1 1) rotate(0) translate(4 128.5)">
<polygon fill="white" stroke="none" points="-4,4 -4,-128.5 2916.67,-128.5 2916.67,4 -4,4"/>
<!-- idTaillight1 -->
<g id="node1" class="node">
<title>idTaillight1</title>
<ellipse fill="none" stroke="black" cx="1385.81" cy="-106.5" rx="54.42" ry="18"/>
<text text-anchor="middle" x="1385.81" y="-101.45" font-family="Times,serif" font-size="14.00">idTaillight1</text>
</g>
<!-- idTaillight1&#45;&gt;idTaillight1 -->
<g id="edge6" class="edge">
<title>idTaillight1&#45;&gt;idTaillight1</title>
<path fill="none" stroke="black" d="M1434.89,-114.74C1448.15,-114.3 1458.23,-111.56 1458.23,-106.5 1458.23,-102.95 1453.24,-100.53 1445.68,-99.26"/>
<polygon fill="black" stroke="black" points="1446.17,-95.7 1435.89,-98.26 1445.52,-102.67 1446.17,-95.7"/>
<text text-anchor="middle" x="1475.86" y="-101.45" font-family="Times,serif" font-size="14.00">isNear</text>
</g>
<!-- unlit -->
<g id="node2" class="node">
<title>unlit</title>
<ellipse fill="none" stroke="black" cx="27.81" cy="-18" rx="27.81" ry="18"/>
<text text-anchor="middle" x="27.81" y="-12.95" font-family="Times,serif" font-size="14.00">unlit</text>
</g>
<!-- idTaillight1&#45;&gt;unlit -->
<g id="edge1" class="edge">
<title>idTaillight1&#45;&gt;unlit</title>
<path fill="none" stroke="black" d="M1331.16,-105.6C1103.05,-105.78 233.33,-104.25 115.56,-70.5 92.92,-64.01 70.06,-50.32 53.36,-38.68"/>
<polygon fill="black" stroke="black" points="55.91,-35.48 45.75,-32.48 51.82,-41.16 55.91,-35.48"/>
<text text-anchor="middle" x="193.43" y="-57.2" font-family="Times,serif" font-size="14.00">idTaillight1_prop_idLitState</text>
</g>
<!-- idDen1 -->
<g id="node3" class="node">
<title>idDen1</title>
<ellipse fill="none" stroke="black" cx="181.81" cy="-18" rx="38.04" ry="18"/>
<text text-anchor="middle" x="181.81" y="-12.95" font-family="Times,serif" font-size="14.00">idDen1</text>
</g>
<!-- idTaillight1&#45;&gt;idDen1 -->
<g id="edge2" class="edge">
<title>idTaillight1&#45;&gt;idDen1</title>
<path fill="none" stroke="black" d="M1331,-105.73C1143.41,-106.2 527.92,-105.01 333.56,-70.5 293.25,-63.34 249.14,-47.4 218.92,-35.13"/>
<polygon fill="black" stroke="black" points="220.42,-31.55 209.84,-30.97 217.74,-38.02 220.42,-31.55"/>
<text text-anchor="middle" x="351.43" y="-57.2" font-family="Times,serif" font-size="14.00">isNear</text>
</g>
<!-- idTheCar1 -->
<g id="node4" class="node">
<title>idTheCar1</title>
<ellipse fill="none" stroke="black" cx="287.81" cy="-18" rx="50.33" ry="18"/>
<text text-anchor="middle" x="287.81" y="-12.95" font-family="Times,serif" font-size="14.00">idTheCar1</text>
</g>
<!-- idTaillight1&#45;&gt;idTheCar1 -->
<g id="edge3" class="edge">
<title>idTaillight1&#45;&gt;idTheCar1</title>
<path fill="none" stroke="black" d="M1330.94,-105.79C1154.26,-106.35 601.46,-105.22 426.56,-70.5 391.81,-63.6 354.24,-49.19 326.97,-37.37"/>
<polygon fill="black" stroke="black" points="328.61,-33.83 318.05,-32.98 325.78,-40.23 328.61,-33.83"/>
<text text-anchor="middle" x="454.93" y="-57.2" font-family="Times,serif" font-size="14.00">isInsideOf</text>
</g>
<!-- idBear1 -->
<g id="node5" class="node">
<title>idBear1</title>
<ellipse fill="none" stroke="black" cx="395.81" cy="-18" rx="40.09" ry="18"/>
<text text-anchor="middle" x="395.81" y="-12.95" font-family="Times,serif" font-size="14.00">idBear1</text>
</g>
<!-- idTaillight1&#45;&gt;idBear1 -->
<g id="edge4" class="edge">
<title>idTaillight1&#45;&gt;idBear1</title>
<path fill="none" stroke="black" d="M1331.08,-105.27C1169.59,-104.28 696.94,-98.95 545.56,-70.5 506.28,-63.12 463.33,-47.52 433.53,-35.41"/>
<polygon fill="black" stroke="black" points="435.15,-31.87 424.57,-31.29 432.48,-38.34 435.15,-31.87"/>
<text text-anchor="middle" x="563.43" y="-57.2" font-family="Times,serif" font-size="14.00">isNear</text>
</g>
<!-- idTire1 -->
<g id="node6" class="node">
<title>idTire1</title>
<ellipse fill="none" stroke="black" cx="491.81" cy="-18" rx="38.04" ry="18"/>
<text text-anchor="middle" x="491.81" y="-12.95" font-family="Times,serif" font-size="14.00">idTire1</text>
</g>
<!-- idTaillight1&#45;&gt;idTire1 -->
<g id="edge5" class="edge">
<title>idTaillight1&#45;&gt;idTire1</title>
<path fill="none" stroke="black" d="M1331.22,-104.84C1183.03,-102.74 775.49,-94.87 643.56,-70.5 603.42,-63.09 559.45,-47.26 529.22,-35.09"/>
<polygon fill="black" stroke="black" points="530.71,-31.51 520.13,-30.96 528.06,-37.99 530.71,-31.51"/>
<text text-anchor="middle" x="661.43" y="-57.2" font-family="Times,serif" font-size="14.00">isNear</text>
</g>
<!-- idArea1 -->
<g id="node7" class="node">
<title>idArea1</title>
<ellipse fill="none" stroke="black" cx="588.81" cy="-18" rx="40.6" ry="18"/>
<text text-anchor="middle" x="588.81" y="-12.95" font-family="Times,serif" font-size="14.00">idArea1</text>
</g>
<!-- idTaillight1&#45;&gt;idArea1 -->
<g id="edge7" class="edge">
<title>idTaillight1&#45;&gt;idArea1</title>
<path fill="none" stroke="black" d="M1331.38,-104.37C1197.56,-101.29 855.23,-91.56 743.06,-70.5 702.55,-62.89 658.07,-47.21 627.34,-35.14"/>
<polygon fill="black" stroke="black" points="629.05,-31.66 618.46,-31.2 626.45,-38.16 629.05,-31.66"/>
<text text-anchor="middle" x="771.18" y="-57.2" font-family="Times,serif" font-size="14.00">isSouthOf</text>
</g>
<!-- idBumper1 -->
<g id="node8" class="node">
<title>idBumper1</title>
<ellipse fill="none" stroke="black" cx="699.81" cy="-18" rx="52.89" ry="18"/>
<text text-anchor="middle" x="699.81" y="-12.95" font-family="Times,serif" font-size="14.00">idBumper1</text>
</g>
<!-- idTaillight1&#45;&gt;idBumper1 -->
<g id="edge8" class="edge">
<title>idTaillight1&#45;&gt;idBumper1</title>
<path fill="none" stroke="black" d="M1331.04,-105.98C1235.7,-105.9 1033.44,-101.62 866.06,-70.5 823.84,-62.65 777.26,-47.64 744.17,-35.85"/>
<polygon fill="black" stroke="black" points="745.52,-32.25 734.93,-32.14 743.14,-38.83 745.52,-32.25"/>
<text text-anchor="middle" x="894.18" y="-57.2" font-family="Times,serif" font-size="14.00">isSouthOf</text>
</g>
<!-- idCarKey1 -->
<g id="node9" class="node">
<title>idCarKey1</title>
<ellipse fill="none" stroke="black" cx="821.81" cy="-18" rx="51.35" ry="18"/>
<text text-anchor="middle" x="821.81" y="-12.95" font-family="Times,serif" font-size="14.00">idCarKey1</text>
</g>
<!-- idTaillight1&#45;&gt;idCarKey1 -->
<g id="edge9" class="edge">
<title>idTaillight1&#45;&gt;idCarKey1</title>
<path fill="none" stroke="black" d="M1331.4,-104.32C1254.48,-101.83 1109.85,-94.15 989.06,-70.5 946.55,-62.18 899.52,-47.15 866.18,-35.47"/>
<polygon fill="black" stroke="black" points="867.46,-31.85 856.86,-31.81 865.11,-38.45 867.46,-31.85"/>
<text text-anchor="middle" x="1017.18" y="-57.2" font-family="Times,serif" font-size="14.00">isSouthOf</text>
</g>
<!-- idStump1 -->
<g id="node10" class="node">
<title>idStump1</title>
<ellipse fill="none" stroke="black" cx="938.81" cy="-18" rx="47.26" ry="18"/>
<text text-anchor="middle" x="938.81" y="-12.95" font-family="Times,serif" font-size="14.00">idStump1</text>
</g>
<!-- idTaillight1&#45;&gt;idStump1 -->
<g id="edge10" class="edge">
<title>idTaillight1&#45;&gt;idStump1</title>
<path fill="none" stroke="black" d="M1333.09,-101.48C1277.07,-96.6 1186.15,-86.91 1109.06,-70.5 1065.4,-61.21 1016.77,-45.99 982.69,-34.5"/>
<polygon fill="black" stroke="black" points="984.2,-30.98 973.61,-31.06 981.95,-37.6 984.2,-30.98"/>
<text text-anchor="middle" x="1137.18" y="-57.2" font-family="Times,serif" font-size="14.00">isSouthOf</text>
</g>
<!-- idTheCarRoom1 -->
<g id="node11" class="node">
<title>idTheCarRoom1</title>
<ellipse fill="none" stroke="black" cx="1077.81" cy="-18" rx="73.36" ry="18"/>
<text text-anchor="middle" x="1077.81" y="-12.95" font-family="Times,serif" font-size="14.00">idTheCarRoom1</text>
</g>
<!-- idTaillight1&#45;&gt;idTheCarRoom1 -->
<g id="edge11" class="edge">
<title>idTaillight1&#45;&gt;idTheCarRoom1</title>
<path fill="none" stroke="black" d="M1338.22,-97.41C1304.56,-91.23 1258.54,-81.86 1218.81,-70.5 1186.81,-61.36 1151.66,-48.52 1124.45,-37.95"/>
<polygon fill="black" stroke="black" points="1126.03,-34.42 1115.44,-34.03 1123.47,-40.93 1126.03,-34.42"/>
<text text-anchor="middle" x="1244.31" y="-57.2" font-family="Times,serif" font-size="14.00">isWestOf</text>
</g>
<!-- idClearing1 -->
<g id="node12" class="node">
<title>idClearing1</title>
<ellipse fill="none" stroke="black" cx="1223.81" cy="-18" rx="54.42" ry="18"/>
<text text-anchor="middle" x="1223.81" y="-12.95" font-family="Times,serif" font-size="14.00">idClearing1</text>
</g>
<!-- idTaillight1&#45;&gt;idClearing1 -->
<g id="edge12" class="edge">
<title>idTaillight1&#45;&gt;idClearing1</title>
<path fill="none" stroke="black" d="M1349.45,-92.91C1333.54,-86.89 1314.88,-79.12 1298.81,-70.5 1283.09,-62.07 1266.64,-51.06 1253.17,-41.38"/>
<polygon fill="black" stroke="black" points="1255.5,-38.02 1245.36,-34.94 1251.37,-43.67 1255.5,-38.02"/>
<text text-anchor="middle" x="1324.31" y="-57.2" font-family="Times,serif" font-size="14.00">isWestOf</text>
</g>
<!-- idBush1 -->
<g id="node13" class="node">
<title>idBush1</title>
<ellipse fill="none" stroke="black" cx="1337.81" cy="-18" rx="41.63" ry="18"/>
<text text-anchor="middle" x="1337.81" y="-12.95" font-family="Times,serif" font-size="14.00">idBush1</text>
</g>
<!-- idTaillight1&#45;&gt;idBush1 -->
<g id="edge13" class="edge">
<title>idTaillight1&#45;&gt;idBush1</title>
<path fill="none" stroke="black" d="M1372.89,-88.86C1368.78,-83.2 1364.37,-76.72 1360.81,-70.5 1356.41,-62.82 1352.25,-54.14 1348.71,-46.13"/>
<polygon fill="black" stroke="black" points="1351.58,-44.95 1344.44,-37.12 1345.14,-47.69 1351.58,-44.95"/>
<text text-anchor="middle" x="1386.31" y="-57.2" font-family="Times,serif" font-size="14.00">isWestOf</text>
</g>
<!-- idCar1 -->
<g id="node14" class="node">
<title>idCar1</title>
<ellipse fill="none" stroke="black" cx="1433.81" cy="-18" rx="36" ry="18"/>
<text text-anchor="middle" x="1433.81" y="-12.95" font-family="Times,serif" font-size="14.00">idCar1</text>
</g>
<!-- idTaillight1&#45;&gt;idCar1 -->
<g id="edge14" class="edge">
<title>idTaillight1&#45;&gt;idCar1</title>
<path fill="none" stroke="black" d="M1399.61,-88.6C1403.82,-83.03 1408.26,-76.67 1411.81,-70.5 1416.19,-62.88 1420.21,-54.22 1423.59,-46.2"/>
<polygon fill="black" stroke="black" points="1427.14,-47.76 1427.64,-37.18 1420.65,-45.14 1427.14,-47.76"/>
<text text-anchor="middle" x="1446.31" y="-57.2" font-family="Times,serif" font-size="14.00">isWestOf</text>
</g>
<!-- idCrowbar1 -->
<g id="node15" class="node">
<title>idCrowbar1</title>
<ellipse fill="none" stroke="black" cx="1542.81" cy="-18" rx="54.93" ry="18"/>
<text text-anchor="middle" x="1542.81" y="-12.95" font-family="Times,serif" font-size="14.00">idCrowbar1</text>
</g>
<!-- idTaillight1&#45;&gt;idCrowbar1 -->
<g id="edge15" class="edge">
<title>idTaillight1&#45;&gt;idCrowbar1</title>
<path fill="none" stroke="black" d="M1424.12,-93.33C1440.52,-87.43 1459.6,-79.64 1475.81,-70.5 1490,-62.5 1504.49,-51.75 1516.34,-42.14"/>
<polygon fill="black" stroke="black" points="1518.01,-44.48 1523.47,-35.4 1513.54,-39.09 1518.01,-44.48"/>
<text text-anchor="middle" x="1525.31" y="-57.2" font-family="Times,serif" font-size="14.00">isWestOf</text>
</g>
<!-- idLock1 -->
<g id="node16" class="node">
<title>idLock1</title>
<ellipse fill="none" stroke="black" cx="1657.81" cy="-18" rx="41.63" ry="18"/>
<text text-anchor="middle" x="1657.81" y="-12.95" font-family="Times,serif" font-size="14.00">idLock1</text>
</g>
<!-- idTaillight1&#45;&gt;idLock1 -->
<g id="edge16" class="edge">
<title>idTaillight1&#45;&gt;idLock1</title>
<path fill="none" stroke="black" d="M1435.53,-98.68C1469.69,-93.16 1515.74,-84.05 1554.81,-70.5 1579.05,-62.09 1604.86,-49.17 1624.59,-38.38"/>
<polygon fill="black" stroke="black" points="1625.99,-41.04 1633.03,-33.12 1622.59,-34.93 1625.99,-41.04"/>
<text text-anchor="middle" x="1618.31" y="-57.2" font-family="Times,serif" font-size="14.00">isWestOf</text>
</g>
<!-- idPlayer -->
<g id="node17" class="node">
<title>idPlayer</title>
<ellipse fill="none" stroke="black" cx="1758.81" cy="-18" rx="41.63" ry="18"/>
<text text-anchor="middle" x="1758.81" y="-12.95" font-family="Times,serif" font-size="14.00">idPlayer</text>
</g>
<!-- idTaillight1&#45;&gt;idPlayer -->
<g id="edge17" class="edge">
<title>idTaillight1&#45;&gt;idPlayer</title>
<path fill="none" stroke="black" d="M1439.72,-103.04C1493.39,-99.5 1577.65,-90.95 1647.81,-70.5 1674.75,-62.65 1703.44,-49.19 1724.9,-38"/>
<polygon fill="black" stroke="black" points="1726.33,-40.67 1733.52,-32.89 1723.04,-34.49 1726.33,-40.67"/>
<text text-anchor="middle" x="1717.31" y="-57.2" font-family="Times,serif" font-size="14.00">isWestOf</text>
</g>
<!-- idPlayerBackside -->
<g id="node18" class="node">
<title>idPlayerBackside</title>
<ellipse fill="none" stroke="black" cx="1893.81" cy="-18" rx="75.41" ry="18"/>
<text text-anchor="middle" x="1893.81" y="-12.95" font-family="Times,serif" font-size="14.00">idPlayerBackside</text>
</g>
<!-- idTaillight1&#45;&gt;idPlayerBackside -->
<g id="edge18" class="edge">
<title>idTaillight1&#45;&gt;idPlayerBackside</title>
<path fill="none" stroke="black" d="M1440.26,-104.28C1511.49,-101.77 1639.81,-94.07 1746.81,-70.5 1781.5,-62.86 1819.3,-49.5 1847.88,-38.3"/>
<polygon fill="black" stroke="black" points="1848.97,-41.24 1856.97,-34.29 1846.38,-34.73 1848.97,-41.24"/>
<text text-anchor="middle" x="1830.31" y="-57.2" font-family="Times,serif" font-size="14.00">isWestOf</text>
</g>
<!-- idPlayerLeftHand -->
<g id="node19" class="node">
<title>idPlayerLeftHand</title>
<ellipse fill="none" stroke="black" cx="2063.81" cy="-18" rx="76.94" ry="18"/>
<text text-anchor="middle" x="2063.81" y="-12.95" font-family="Times,serif" font-size="14.00">idPlayerLeftHand</text>
</g>
<!-- idTaillight1&#45;&gt;idPlayerLeftHand -->
<g id="edge19" class="edge">
<title>idTaillight1&#45;&gt;idPlayerLeftHand</title>
<path fill="none" stroke="black" d="M1440.19,-104.55C1528.68,-102.31 1709.12,-94.9 1859.81,-70.5 1910.62,-62.27 1967.3,-47.5 2007.99,-35.88"/>
<polygon fill="black" stroke="black" points="2008.87,-38.98 2017.51,-32.85 2006.93,-32.26 2008.87,-38.98"/>
<text text-anchor="middle" x="1965.31" y="-57.2" font-family="Times,serif" font-size="14.00">isWestOf</text>
</g>
<!-- idPlayerRightHand -->
<g id="node20" class="node">
<title>idPlayerRightHand</title>
<ellipse fill="none" stroke="black" cx="2240.81" cy="-18" rx="82.06" ry="18"/>
<text text-anchor="middle" x="2240.81" y="-12.95" font-family="Times,serif" font-size="14.00">idPlayerRightHand</text>
</g>
<!-- idTaillight1&#45;&gt;idPlayerRightHand -->
<g id="edge20" class="edge">
<title>idTaillight1&#45;&gt;idPlayerRightHand</title>
<path fill="none" stroke="black" d="M1440.24,-105.08C1547.05,-103.67 1791.4,-97.48 1994.81,-70.5 2057.88,-62.13 2128.9,-46.59 2178.36,-34.76"/>
<polygon fill="black" stroke="black" points="2178.99,-37.97 2187.89,-32.22 2177.35,-31.17 2178.99,-37.97"/>
<text text-anchor="middle" x="2116.31" y="-57.2" font-family="Times,serif" font-size="14.00">isWestOf</text>
</g>
<!-- idSideMirror1 -->
<g id="node21" class="node">
<title>idSideMirror1</title>
<ellipse fill="none" stroke="black" cx="2404.81" cy="-18" rx="64.15" ry="18"/>
<text text-anchor="middle" x="2404.81" y="-12.95" font-family="Times,serif" font-size="14.00">idSideMirror1</text>
</g>
<!-- idTaillight1&#45;&gt;idSideMirror1 -->
<g id="edge21" class="edge">
<title>idTaillight1&#45;&gt;idSideMirror1</title>
<path fill="none" stroke="black" d="M1440.39,-105.55C1565.55,-105.11 1882.72,-100.81 2145.81,-70.5 2215.9,-62.42 2295.32,-45.45 2347.52,-33.19"/>
<polygon fill="black" stroke="black" points="2347.99,-36.44 2356.91,-30.73 2346.37,-29.63 2347.99,-36.44"/>
<text text-anchor="middle" x="2272.31" y="-57.2" font-family="Times,serif" font-size="14.00">isWestOf</text>
</g>
<!-- idSmoke1 -->
<g id="node22" class="node">
<title>idSmoke1</title>
<ellipse fill="none" stroke="black" cx="2535.81" cy="-18" rx="48.79" ry="18"/>
<text text-anchor="middle" x="2535.81" y="-12.95" font-family="Times,serif" font-size="14.00">idSmoke1</text>
</g>
<!-- idTaillight1&#45;&gt;idSmoke1 -->
<g id="edge22" class="edge">
<title>idTaillight1&#45;&gt;idSmoke1</title>
<path fill="none" stroke="black" d="M1440.41,-104.53C1611.13,-101.31 2133.46,-90.1 2301.81,-70.5 2380.98,-61.28 2400.37,-54.9 2477.81,-36 2481.38,-35.13 2485.07,-34.18 2488.76,-33.18"/>
<polygon fill="black" stroke="black" points="2489.43,-36.35 2498.13,-30.3 2487.55,-29.61 2489.43,-36.35"/>
<text text-anchor="middle" x="2428.31" y="-57.2" font-family="Times,serif" font-size="14.00">isWestOf</text>
</g>
<!-- idSpill1 -->
<g id="node23" class="node">
<title>idSpill1</title>
<ellipse fill="none" stroke="black" cx="2642.81" cy="-18" rx="40.09" ry="18"/>
<text text-anchor="middle" x="2642.81" y="-12.95" font-family="Times,serif" font-size="14.00">idSpill1</text>
</g>
<!-- idTaillight1&#45;&gt;idSpill1 -->
<g id="edge23" class="edge">
<title>idTaillight1&#45;&gt;idSpill1</title>
<path fill="none" stroke="black" d="M1440.57,-105.27C1630.23,-104.24 2258.34,-98.72 2457.81,-70.5 2508.58,-63.32 2565.13,-46.17 2602.18,-33.63"/>
<polygon fill="black" stroke="black" points="2603.24,-36.63 2611.56,-30.07 2600.97,-30.01 2603.24,-36.63"/>
<text text-anchor="middle" x="2561.31" y="-57.2" font-family="Times,serif" font-size="14.00">isWestOf</text>
</g>
<!-- idTrunk1 -->
<g id="node24" class="node">
<title>idTrunk1</title>
<ellipse fill="none" stroke="black" cx="2745.81" cy="-18" rx="45.21" ry="18"/>
<text text-anchor="middle" x="2745.81" y="-12.95" font-family="Times,serif" font-size="14.00">idTrunk1</text>
</g>
<!-- idTaillight1&#45;&gt;idTrunk1 -->
<g id="edge24" class="edge">
<title>idTaillight1&#45;&gt;idTrunk1</title>
<path fill="none" stroke="black" d="M1440.46,-104.85C1660.72,-102.1 2476.88,-90.63 2590.81,-70.5 2631.07,-63.38 2675.16,-47.94 2705.98,-35.82"/>
<polygon fill="black" stroke="black" points="2706.92,-38.81 2714.9,-31.85 2704.32,-32.31 2706.92,-38.81"/>
<text text-anchor="middle" x="2677.31" y="-57.2" font-family="Times,serif" font-size="14.00">isWestOf</text>
</g>
<!-- idWhistle1 -->
<g id="node25" class="node">
<title>idWhistle1</title>
<ellipse fill="none" stroke="black" cx="2860.81" cy="-18" rx="51.86" ry="18"/>
<text text-anchor="middle" x="2860.81" y="-12.95" font-family="Times,serif" font-size="14.00">idWhistle1</text>
</g>
<!-- idTaillight1&#45;&gt;idWhistle1 -->
<g id="edge25" class="edge">
<title>idTaillight1&#45;&gt;idWhistle1</title>
<path fill="none" stroke="black" d="M1440.51,-105.01C1673.99,-102.76 2580.99,-92.69 2706.81,-70.5 2745.97,-63.59 2788.73,-48.66 2819.23,-36.65"/>
<polygon fill="black" stroke="black" points="2820.1,-39.67 2828.08,-32.7 2817.5,-33.17 2820.1,-39.67"/>
<text text-anchor="middle" x="2793.31" y="-57.2" font-family="Times,serif" font-size="14.00">isWestOf</text>
</g>
</g>
</svg>
