<?xml version="1.0" encoding="UTF-8" standalone="no"?>
<!DOCTYPE svg PUBLIC "-//W3C//DTD SVG 1.1//EN"
 "http://www.w3.org/Graphics/SVG/1.1/DTD/svg11.dtd">
<!-- Generated by graphviz version 8.1.0 (20230707.0739)
 -->
<!-- Pages: 1 -->
<svg width="1711pt" height="133pt"
 viewBox="0.00 0.00 1710.71 132.50" xmlns="http://www.w3.org/2000/svg" xmlns:xlink="http://www.w3.org/1999/xlink">
<g id="graph0" class="graph" transform="scale(1 1) rotate(0) translate(4 128.5)">
<polygon fill="white" stroke="none" points="-4,4 -4,-128.5 1706.71,-128.5 1706.71,4 -4,4"/>
<!-- idTheCar1 -->
<g id="node1" class="node">
<title>idTheCar1</title>
<ellipse fill="none" stroke="black" cx="864.36" cy="-106.5" rx="50.33" ry="18"/>
<text text-anchor="middle" x="864.36" y="-101.45" font-family="Times,serif" font-size="14.00">idTheCar1</text>
</g>
<!-- idTheCarRoom1 -->
<g id="node2" class="node">
<title>idTheCarRoom1</title>
<ellipse fill="none" stroke="black" cx="73.36" cy="-18" rx="73.36" ry="18"/>
<text text-anchor="middle" x="73.36" y="-12.95" font-family="Times,serif" font-size="14.00">idTheCarRoom1</text>
</g>
<!-- idTheCar1&#45;&gt;idTheCarRoom1 -->
<g id="edge1" class="edge">
<title>idTheCar1&#45;&gt;idTheCarRoom1</title>
<path fill="none" stroke="black" d="M813.8,-105.54C712.37,-104.95 477.08,-100.16 282.11,-70.5 229.32,-62.47 170.35,-47.33 128.58,-35.54"/>
<polygon fill="black" stroke="black" points="129.66,-31.92 119.08,-32.54 127.74,-38.65 129.66,-31.92"/>
<text text-anchor="middle" x="299.98" y="-57.2" font-family="Times,serif" font-size="14.00">isNear</text>
</g>
<!-- idClearing1 -->
<g id="node3" class="node">
<title>idClearing1</title>
<ellipse fill="none" stroke="black" cx="219.36" cy="-18" rx="54.42" ry="18"/>
<text text-anchor="middle" x="219.36" y="-12.95" font-family="Times,serif" font-size="14.00">idClearing1</text>
</g>
<!-- idTheCar1&#45;&gt;idClearing1 -->
<g id="edge2" class="edge">
<title>idTheCar1&#45;&gt;idClearing1</title>
<path fill="none" stroke="black" d="M813.61,-105.54C725.74,-104.78 539.91,-99.49 386.11,-70.5 343.93,-62.55 297.37,-47.63 264.19,-35.88"/>
<polygon fill="black" stroke="black" points="265.51,-32.28 254.91,-32.2 263.14,-38.87 265.51,-32.28"/>
<text text-anchor="middle" x="403.98" y="-57.2" font-family="Times,serif" font-size="14.00">isNear</text>
</g>
<!-- idDen1 -->
<g id="node4" class="node">
<title>idDen1</title>
<ellipse fill="none" stroke="black" cx="329.36" cy="-18" rx="38.04" ry="18"/>
<text text-anchor="middle" x="329.36" y="-12.95" font-family="Times,serif" font-size="14.00">idDen1</text>
</g>
<!-- idTheCar1&#45;&gt;idDen1 -->
<g id="edge3" class="edge">
<title>idTheCar1&#45;&gt;idDen1</title>
<path fill="none" stroke="black" d="M814,-104.23C741.05,-101.63 602,-93.8 486.11,-70.5 444.6,-62.15 398.78,-46.28 367.45,-34.35"/>
<polygon fill="black" stroke="black" points="369,-30.81 358.41,-30.47 366.48,-37.34 369,-30.81"/>
<text text-anchor="middle" x="503.98" y="-57.2" font-family="Times,serif" font-size="14.00">isNear</text>
</g>
<!-- idArea1 -->
<g id="node5" class="node">
<title>idArea1</title>
<ellipse fill="none" stroke="black" cx="426.36" cy="-18" rx="40.6" ry="18"/>
<text text-anchor="middle" x="426.36" y="-12.95" font-family="Times,serif" font-size="14.00">idArea1</text>
</g>
<!-- idTheCar1&#45;&gt;idArea1 -->
<g id="edge4" class="edge">
<title>idTheCar1&#45;&gt;idArea1</title>
<path fill="none" stroke="black" d="M814.89,-102.43C757.6,-98.18 660.64,-88.87 579.11,-70.5 531.7,-59.82 521.37,-51.63 475.36,-36 472.95,-35.18 470.47,-34.34 467.98,-33.48"/>
<polygon fill="black" stroke="black" points="469.3,-29.89 458.71,-29.94 467.02,-36.51 469.3,-29.89"/>
<text text-anchor="middle" x="596.98" y="-57.2" font-family="Times,serif" font-size="14.00">isNear</text>
</g>
<!-- idPlayer -->
<g id="node6" class="node">
<title>idPlayer</title>
<ellipse fill="none" stroke="black" cx="526.36" cy="-18" rx="41.63" ry="18"/>
<text text-anchor="middle" x="526.36" y="-12.95" font-family="Times,serif" font-size="14.00">idPlayer</text>
</g>
<!-- idTheCar1&#45;&gt;idPlayer -->
<g id="edge5" class="edge">
<title>idTheCar1&#45;&gt;idPlayer</title>
<path fill="none" stroke="black" d="M817.57,-99.29C777.92,-93.51 719.77,-83.77 670.11,-70.5 634.07,-60.87 594.22,-46.26 565.63,-35.07"/>
<polygon fill="black" stroke="black" points="567.22,-31.54 556.64,-31.11 564.65,-38.04 567.22,-31.54"/>
<text text-anchor="middle" x="687.98" y="-57.2" font-family="Times,serif" font-size="14.00">isNear</text>
</g>
<!-- idCar1 -->
<g id="node7" class="node">
<title>idCar1</title>
<ellipse fill="none" stroke="black" cx="622.36" cy="-18" rx="36" ry="18"/>
<text text-anchor="middle" x="622.36" y="-12.95" font-family="Times,serif" font-size="14.00">idCar1</text>
</g>
<!-- idTheCar1&#45;&gt;idCar1 -->
<g id="edge6" class="edge">
<title>idTheCar1&#45;&gt;idCar1</title>
<path fill="none" stroke="black" d="M826.19,-94.38C804.37,-87.83 776.55,-79.15 752.11,-70.5 720.38,-59.27 684.9,-45.07 659.07,-34.43"/>
<polygon fill="black" stroke="black" points="660.55,-30.84 649.97,-30.25 657.87,-37.31 660.55,-30.84"/>
<text text-anchor="middle" x="769.98" y="-57.2" font-family="Times,serif" font-size="14.00">isNear</text>
</g>
<!-- idSideMirror1 -->
<g id="node8" class="node">
<title>idSideMirror1</title>
<ellipse fill="none" stroke="black" cx="740.36" cy="-18" rx="64.15" ry="18"/>
<text text-anchor="middle" x="740.36" y="-12.95" font-family="Times,serif" font-size="14.00">idSideMirror1</text>
</g>
<!-- idTheCar1&#45;&gt;idSideMirror1 -->
<g id="edge7" class="edge">
<title>idTheCar1&#45;&gt;idSideMirror1</title>
<path fill="none" stroke="black" d="M842.19,-90.04C822.81,-76.51 794.42,-56.71 772.53,-41.44"/>
<polygon fill="black" stroke="black" points="774.8,-38.06 764.6,-35.21 770.8,-43.8 774.8,-38.06"/>
<text text-anchor="middle" x="831.98" y="-57.2" font-family="Times,serif" font-size="14.00">isNear</text>
</g>
<!-- idBush1 -->
<g id="node9" class="node">
<title>idBush1</title>
<ellipse fill="none" stroke="black" cx="864.36" cy="-18" rx="41.63" ry="18"/>
<text text-anchor="middle" x="864.36" y="-12.95" font-family="Times,serif" font-size="14.00">idBush1</text>
</g>
<!-- idTheCar1&#45;&gt;idBush1 -->
<g id="edge8" class="edge">
<title>idTheCar1&#45;&gt;idBush1</title>
<path fill="none" stroke="black" d="M864.36,-88.41C864.36,-76.64 864.36,-60.73 864.36,-47.11"/>
<polygon fill="black" stroke="black" points="867.86,-47.35 864.36,-37.35 860.86,-47.35 867.86,-47.35"/>
<text text-anchor="middle" x="881.98" y="-57.2" font-family="Times,serif" font-size="14.00">isNear</text>
</g>
<!-- idWhistle1 -->
<g id="node10" class="node">
<title>idWhistle1</title>
<ellipse fill="none" stroke="black" cx="975.36" cy="-18" rx="51.86" ry="18"/>
<text text-anchor="middle" x="975.36" y="-12.95" font-family="Times,serif" font-size="14.00">idWhistle1</text>
</g>
<!-- idTheCar1&#45;&gt;idWhistle1 -->
<g id="edge9" class="edge">
<title>idTheCar1&#45;&gt;idWhistle1</title>
<path fill="none" stroke="black" d="M884.72,-89.63C902.09,-76.1 927.25,-56.49 946.66,-41.36"/>
<polygon fill="black" stroke="black" points="948.39,-43.67 954.13,-34.76 944.09,-38.15 948.39,-43.67"/>
<text text-anchor="middle" x="947.98" y="-57.2" font-family="Times,serif" font-size="14.00">isNear</text>
</g>
<!-- idBear1 -->
<g id="node11" class="node">
<title>idBear1</title>
<ellipse fill="none" stroke="black" cx="1085.36" cy="-18" rx="40.09" ry="18"/>
<text text-anchor="middle" x="1085.36" y="-12.95" font-family="Times,serif" font-size="14.00">idBear1</text>
</g>
<!-- idTheCar1&#45;&gt;idBear1 -->
<g id="edge10" class="edge">
<title>idTheCar1&#45;&gt;idBear1</title>
<path fill="none" stroke="black" d="M901.6,-94.05C921.81,-87.59 947.14,-79.11 969.36,-70.5 996.26,-60.07 1025.99,-46.84 1048.62,-36.4"/>
<polygon fill="black" stroke="black" points="1049.89,-39.2 1057.48,-31.82 1046.94,-32.85 1049.89,-39.2"/>
<text text-anchor="middle" x="1025.98" y="-57.2" font-family="Times,serif" font-size="14.00">isNear</text>
</g>
<!-- idTire1 -->
<g id="node12" class="node">
<title>idTire1</title>
<ellipse fill="none" stroke="black" cx="1181.36" cy="-18" rx="38.04" ry="18"/>
<text text-anchor="middle" x="1181.36" y="-12.95" font-family="Times,serif" font-size="14.00">idTire1</text>
</g>
<!-- idTheCar1&#45;&gt;idTire1 -->
<g id="edge11" class="edge">
<title>idTheCar1&#45;&gt;idTire1</title>
<path fill="none" stroke="black" d="M910.77,-98.96C948.08,-93.15 1001.63,-83.55 1047.36,-70.5 1080.89,-60.93 1117.8,-46.44 1144.38,-35.26"/>
<polygon fill="black" stroke="black" points="1145.55,-38.14 1153.38,-31 1142.81,-31.7 1145.55,-38.14"/>
<text text-anchor="middle" x="1113.98" y="-57.2" font-family="Times,serif" font-size="14.00">isNear</text>
</g>
<!-- idTaillight1 -->
<g id="node13" class="node">
<title>idTaillight1</title>
<ellipse fill="none" stroke="black" cx="1291.36" cy="-18" rx="54.42" ry="18"/>
<text text-anchor="middle" x="1291.36" y="-12.95" font-family="Times,serif" font-size="14.00">idTaillight1</text>
</g>
<!-- idTheCar1&#45;&gt;idTaillight1 -->
<g id="edge12" class="edge">
<title>idTheCar1&#45;&gt;idTaillight1</title>
<path fill="none" stroke="black" d="M913.31,-102C967.97,-97.44 1058.8,-87.91 1135.36,-70.5 1173.84,-61.75 1216.29,-47.41 1247.18,-36.09"/>
<polygon fill="black" stroke="black" points="1248.04,-39.13 1256.2,-32.37 1245.6,-32.57 1248.04,-39.13"/>
<text text-anchor="middle" x="1209.98" y="-57.2" font-family="Times,serif" font-size="14.00">isNear</text>
</g>
<!-- idStump1 -->
<g id="node14" class="node">
<title>idStump1</title>
<ellipse fill="none" stroke="black" cx="1411.36" cy="-18" rx="47.26" ry="18"/>
<text text-anchor="middle" x="1411.36" y="-12.95" font-family="Times,serif" font-size="14.00">idStump1</text>
</g>
<!-- idTheCar1&#45;&gt;idStump1 -->
<g id="edge13" class="edge">
<title>idTheCar1&#45;&gt;idStump1</title>
<path fill="none" stroke="black" d="M914.32,-103.56C985.3,-100.17 1119.2,-91.4 1231.36,-70.5 1278.47,-61.72 1331.03,-45.97 1367.13,-34.19"/>
<polygon fill="black" stroke="black" points="1367.91,-37.29 1376.31,-30.83 1365.72,-30.64 1367.91,-37.29"/>
<text text-anchor="middle" x="1319.98" y="-57.2" font-family="Times,serif" font-size="14.00">isNear</text>
</g>
<!-- idBumper1 -->
<g id="node15" class="node">
<title>idBumper1</title>
<ellipse fill="none" stroke="black" cx="1529.36" cy="-18" rx="52.89" ry="18"/>
<text text-anchor="middle" x="1529.36" y="-12.95" font-family="Times,serif" font-size="14.00">idBumper1</text>
</g>
<!-- idTheCar1&#45;&gt;idBumper1 -->
<g id="edge14" class="edge">
<title>idTheCar1&#45;&gt;idBumper1</title>
<path fill="none" stroke="black" d="M914.88,-105C1002.38,-103.43 1187.51,-96.95 1341.36,-70.5 1390.29,-62.09 1444.88,-46.4 1482.57,-34.55"/>
<polygon fill="black" stroke="black" points="1483.27,-37.68 1491.74,-31.31 1481.15,-31.01 1483.27,-37.68"/>
<text text-anchor="middle" x="1432.98" y="-57.2" font-family="Times,serif" font-size="14.00">isNear</text>
</g>
<!-- idCarKey1 -->
<g id="node16" class="node">
<title>idCarKey1</title>
<ellipse fill="none" stroke="black" cx="1651.36" cy="-18" rx="51.35" ry="18"/>
<text text-anchor="middle" x="1651.36" y="-12.95" font-family="Times,serif" font-size="14.00">idCarKey1</text>
</g>
<!-- idTheCar1&#45;&gt;idCarKey1 -->
<g id="edge15" class="edge">
<title>idTheCar1&#45;&gt;idCarKey1</title>
<path fill="none" stroke="black" d="M914.81,-105.68C1017.18,-105.35 1256.35,-101.03 1454.36,-70.5 1506.53,-62.46 1564.85,-46.28 1604.41,-34.19"/>
<polygon fill="black" stroke="black" points="1605.28,-37.27 1613.8,-30.98 1603.21,-30.59 1605.28,-37.27"/>
<text text-anchor="middle" x="1548.98" y="-57.2" font-family="Times,serif" font-size="14.00">isNear</text>
</g>
</g>
</svg>
