<?xml version="1.0" encoding="UTF-8" standalone="no"?>
<!DOCTYPE svg PUBLIC "-//W3C//DTD SVG 1.1//EN"
 "http://www.w3.org/Graphics/SVG/1.1/DTD/svg11.dtd">
<!-- Generated by graphviz version 8.1.0 (20230707.0739)
 -->
<!-- Pages: 1 -->
<svg width="1861pt" height="133pt"
 viewBox="0.00 0.00 1860.88 132.50" xmlns="http://www.w3.org/2000/svg" xmlns:xlink="http://www.w3.org/1999/xlink">
<g id="graph0" class="graph" transform="scale(1 1) rotate(0) translate(4 128.5)">
<polygon fill="white" stroke="none" points="-4,4 -4,-128.5 1856.88,-128.5 1856.88,4 -4,4"/>
<!-- idTheCarRoom1 -->
<g id="node1" class="node">
<title>idTheCarRoom1</title>
<ellipse fill="none" stroke="black" cx="952" cy="-106.5" rx="73.36" ry="18"/>
<text text-anchor="middle" x="952" y="-101.45" font-family="Times,serif" font-size="14.00">idTheCarRoom1</text>
</g>
<!-- idTheCarRoom1&#45;&gt;idTheCarRoom1 -->
<g id="edge5" class="edge">
<title>idTheCarRoom1&#45;&gt;idTheCarRoom1</title>
<path fill="none" stroke="black" d="M1018.11,-114.57C1032.72,-113.81 1043.36,-111.12 1043.36,-106.5 1043.36,-103.1 1037.62,-100.75 1028.78,-99.44"/>
<polygon fill="black" stroke="black" points="1029.39,-95.89 1019.11,-98.43 1028.73,-102.86 1029.39,-95.89"/>
<text text-anchor="middle" x="1060.98" y="-101.45" font-family="Times,serif" font-size="14.00">isNear</text>
</g>
<!-- smoky -->
<g id="node2" class="node">
<title>smoky</title>
<ellipse fill="none" stroke="black" cx="36" cy="-18" rx="36" ry="18"/>
<text text-anchor="middle" x="36" y="-12.95" font-family="Times,serif" font-size="14.00">smoky</text>
</g>
<!-- idTheCarRoom1&#45;&gt;smoky -->
<g id="edge1" class="edge">
<title>idTheCarRoom1&#45;&gt;smoky</title>
<path fill="none" stroke="black" d="M878.76,-104.34C690.37,-101.07 198.78,-90.69 127.75,-70.5 105.06,-64.05 81.93,-51.01 64.56,-39.67"/>
<polygon fill="black" stroke="black" points="66.8,-36.28 56.55,-33.59 62.88,-42.08 66.8,-36.28"/>
<text text-anchor="middle" x="226.62" y="-57.2" font-family="Times,serif" font-size="14.00">idTheCarRoom1_prop_idDescriptor</text>
</g>
<!-- idPlayer -->
<g id="node3" class="node">
<title>idPlayer</title>
<ellipse fill="none" stroke="black" cx="237" cy="-18" rx="41.63" ry="18"/>
<text text-anchor="middle" x="237" y="-12.95" font-family="Times,serif" font-size="14.00">idPlayer</text>
</g>
<!-- idTheCarRoom1&#45;&gt;idPlayer -->
<g id="edge2" class="edge">
<title>idTheCarRoom1&#45;&gt;idPlayer</title>
<path fill="none" stroke="black" d="M879.25,-103.43C748.51,-99.31 478.9,-88.85 386.75,-70.5 347.91,-62.77 305.38,-47.44 275.6,-35.5"/>
<polygon fill="black" stroke="black" points="277.21,-31.97 266.62,-31.44 274.57,-38.45 277.21,-31.97"/>
<text text-anchor="middle" x="404.62" y="-57.2" font-family="Times,serif" font-size="14.00">isNear</text>
</g>
<!-- idCar1 -->
<g id="node4" class="node">
<title>idCar1</title>
<ellipse fill="none" stroke="black" cx="333" cy="-18" rx="36" ry="18"/>
<text text-anchor="middle" x="333" y="-12.95" font-family="Times,serif" font-size="14.00">idCar1</text>
</g>
<!-- idTheCarRoom1&#45;&gt;idCar1 -->
<g id="edge3" class="edge">
<title>idTheCarRoom1&#45;&gt;idCar1</title>
<path fill="none" stroke="black" d="M878.61,-105.29C786.15,-103.82 622.79,-97.2 485.75,-70.5 445.08,-62.58 400.36,-46.6 369.88,-34.52"/>
<polygon fill="black" stroke="black" points="371.31,-30.92 360.72,-30.44 368.7,-37.42 371.31,-30.92"/>
<text text-anchor="middle" x="503.62" y="-57.2" font-family="Times,serif" font-size="14.00">isNear</text>
</g>
<!-- idTheCar1 -->
<g id="node5" class="node">
<title>idTheCar1</title>
<ellipse fill="none" stroke="black" cx="437" cy="-18" rx="50.33" ry="18"/>
<text text-anchor="middle" x="437" y="-12.95" font-family="Times,serif" font-size="14.00">idTheCar1</text>
</g>
<!-- idTheCarRoom1&#45;&gt;idTheCar1 -->
<g id="edge4" class="edge">
<title>idTheCarRoom1&#45;&gt;idTheCar1</title>
<path fill="none" stroke="black" d="M878.95,-103.99C803.47,-101.17 682.65,-93.18 580.75,-70.5 545.03,-62.55 506.03,-48.2 477.68,-36.66"/>
<polygon fill="black" stroke="black" points="479.32,-33.14 468.74,-32.55 476.64,-39.61 479.32,-33.14"/>
<text text-anchor="middle" x="609.12" y="-57.2" font-family="Times,serif" font-size="14.00">isInsideOf</text>
</g>
<!-- idClearing1 -->
<g id="node6" class="node">
<title>idClearing1</title>
<ellipse fill="none" stroke="black" cx="560" cy="-18" rx="54.42" ry="18"/>
<text text-anchor="middle" x="560" y="-12.95" font-family="Times,serif" font-size="14.00">idClearing1</text>
</g>
<!-- idTheCarRoom1&#45;&gt;idClearing1 -->
<g id="edge6" class="edge">
<title>idTheCarRoom1&#45;&gt;idClearing1</title>
<path fill="none" stroke="black" d="M881.59,-101.09C827.64,-96.54 751.72,-87.6 687,-70.5 656.67,-62.49 623.9,-49.07 599.24,-37.94"/>
<polygon fill="black" stroke="black" points="601.09,-34.48 590.54,-33.49 598.17,-40.84 601.09,-34.48"/>
<text text-anchor="middle" x="712.5" y="-57.2" font-family="Times,serif" font-size="14.00">isWestOf</text>
</g>
<!-- idDen1 -->
<g id="node7" class="node">
<title>idDen1</title>
<ellipse fill="none" stroke="black" cx="670" cy="-18" rx="38.04" ry="18"/>
<text text-anchor="middle" x="670" y="-12.95" font-family="Times,serif" font-size="14.00">idDen1</text>
</g>
<!-- idTheCarRoom1&#45;&gt;idDen1 -->
<g id="edge7" class="edge">
<title>idTheCarRoom1&#45;&gt;idDen1</title>
<path fill="none" stroke="black" d="M890.72,-96.29C858.12,-90.53 817.62,-82 782.5,-70.5 755.24,-61.57 725.8,-47.94 703.88,-36.95"/>
<polygon fill="black" stroke="black" points="705.87,-33.53 695.37,-32.11 702.7,-39.76 705.87,-33.53"/>
<text text-anchor="middle" x="806.25" y="-57.2" font-family="Times,serif" font-size="14.00">isEastOf</text>
</g>
<!-- idArea1 -->
<g id="node8" class="node">
<title>idArea1</title>
<ellipse fill="none" stroke="black" cx="767" cy="-18" rx="40.6" ry="18"/>
<text text-anchor="middle" x="767" y="-12.95" font-family="Times,serif" font-size="14.00">idArea1</text>
</g>
<!-- idTheCarRoom1&#45;&gt;idArea1 -->
<g id="edge8" class="edge">
<title>idTheCarRoom1&#45;&gt;idArea1</title>
<path fill="none" stroke="black" d="M913.33,-90.79C898.26,-84.81 880.94,-77.64 865.5,-70.5 843.67,-60.41 819.76,-47.94 800.96,-37.8"/>
<polygon fill="black" stroke="black" points="802.82,-34.28 792.36,-32.58 799.47,-40.43 802.82,-34.28"/>
<text text-anchor="middle" x="889.25" y="-57.2" font-family="Times,serif" font-size="14.00">isEastOf</text>
</g>
<!-- idSideMirror1 -->
<g id="node9" class="node">
<title>idSideMirror1</title>
<ellipse fill="none" stroke="black" cx="890" cy="-18" rx="64.15" ry="18"/>
<text text-anchor="middle" x="890" y="-12.95" font-family="Times,serif" font-size="14.00">idSideMirror1</text>
</g>
<!-- idTheCarRoom1&#45;&gt;idSideMirror1 -->
<g id="edge9" class="edge">
<title>idTheCarRoom1&#45;&gt;idSideMirror1</title>
<path fill="none" stroke="black" d="M939.75,-88.41C930.83,-75.97 918.6,-58.91 908.5,-44.81"/>
<polygon fill="black" stroke="black" points="910.89,-43.14 902.22,-37.05 905.2,-47.22 910.89,-43.14"/>
<text text-anchor="middle" x="952.5" y="-57.2" font-family="Times,serif" font-size="14.00">isWestOf</text>
</g>
<!-- idBush1 -->
<g id="node10" class="node">
<title>idBush1</title>
<ellipse fill="none" stroke="black" cx="1014" cy="-18" rx="41.63" ry="18"/>
<text text-anchor="middle" x="1014" y="-12.95" font-family="Times,serif" font-size="14.00">idBush1</text>
</g>
<!-- idTheCarRoom1&#45;&gt;idBush1 -->
<g id="edge10" class="edge">
<title>idTheCarRoom1&#45;&gt;idBush1</title>
<path fill="none" stroke="black" d="M967.49,-88.48C972.33,-82.9 977.55,-76.57 982,-70.5 987.9,-62.44 993.82,-53.29 998.94,-44.95"/>
<polygon fill="black" stroke="black" points="1002.37,-47.03 1004.53,-36.65 996.37,-43.42 1002.37,-47.03"/>
<text text-anchor="middle" x="1018.5" y="-57.2" font-family="Times,serif" font-size="14.00">isWestOf</text>
</g>
<!-- idWhistle1 -->
<g id="node11" class="node">
<title>idWhistle1</title>
<ellipse fill="none" stroke="black" cx="1125" cy="-18" rx="51.86" ry="18"/>
<text text-anchor="middle" x="1125" y="-12.95" font-family="Times,serif" font-size="14.00">idWhistle1</text>
</g>
<!-- idTheCarRoom1&#45;&gt;idWhistle1 -->
<g id="edge11" class="edge">
<title>idTheCarRoom1&#45;&gt;idWhistle1</title>
<path fill="none" stroke="black" d="M996.42,-91.8C1012.98,-86.05 1031.7,-78.77 1048,-70.5 1064.47,-62.14 1081.66,-50.92 1095.61,-41.08"/>
<polygon fill="black" stroke="black" points="1097.18,-43.54 1103.26,-34.86 1093.1,-37.86 1097.18,-43.54"/>
<text text-anchor="middle" x="1100.5" y="-57.2" font-family="Times,serif" font-size="14.00">isWestOf</text>
</g>
<!-- idBear1 -->
<g id="node12" class="node">
<title>idBear1</title>
<ellipse fill="none" stroke="black" cx="1235" cy="-18" rx="40.09" ry="18"/>
<text text-anchor="middle" x="1235" y="-12.95" font-family="Times,serif" font-size="14.00">idBear1</text>
</g>
<!-- idTheCarRoom1&#45;&gt;idBear1 -->
<g id="edge12" class="edge">
<title>idTheCarRoom1&#45;&gt;idBear1</title>
<path fill="none" stroke="black" d="M1015.65,-97.13C1050.07,-91.57 1092.99,-82.97 1130,-70.5 1154.85,-62.12 1181.36,-49.09 1201.52,-38.23"/>
<polygon fill="black" stroke="black" points="1203.07,-40.82 1210.16,-32.94 1199.71,-34.68 1203.07,-40.82"/>
<text text-anchor="middle" x="1192.25" y="-57.2" font-family="Times,serif" font-size="14.00">isEastOf</text>
</g>
<!-- idTire1 -->
<g id="node13" class="node">
<title>idTire1</title>
<ellipse fill="none" stroke="black" cx="1331" cy="-18" rx="38.04" ry="18"/>
<text text-anchor="middle" x="1331" y="-12.95" font-family="Times,serif" font-size="14.00">idTire1</text>
</g>
<!-- idTheCarRoom1&#45;&gt;idTire1 -->
<g id="edge13" class="edge">
<title>idTheCarRoom1&#45;&gt;idTire1</title>
<path fill="none" stroke="black" d="M1023.45,-101.97C1077.92,-97.89 1154.31,-89.15 1219,-70.5 1246.64,-62.53 1276.13,-48.73 1297.91,-37.42"/>
<polygon fill="black" stroke="black" points="1299.14,-40.2 1306.34,-32.43 1295.86,-34.02 1299.14,-40.2"/>
<text text-anchor="middle" x="1287.25" y="-57.2" font-family="Times,serif" font-size="14.00">isEastOf</text>
</g>
<!-- idTaillight1 -->
<g id="node14" class="node">
<title>idTaillight1</title>
<ellipse fill="none" stroke="black" cx="1441" cy="-18" rx="54.42" ry="18"/>
<text text-anchor="middle" x="1441" y="-12.95" font-family="Times,serif" font-size="14.00">idTaillight1</text>
</g>
<!-- idTheCarRoom1&#45;&gt;idTaillight1 -->
<g id="edge14" class="edge">
<title>idTheCarRoom1&#45;&gt;idTaillight1</title>
<path fill="none" stroke="black" d="M1025.15,-104.59C1099.01,-102.24 1215.89,-94.59 1314,-70.5 1344.66,-62.97 1377.66,-49.41 1402.34,-38.09"/>
<polygon fill="black" stroke="black" points="1403.46,-40.96 1411.04,-33.56 1400.49,-34.62 1403.46,-40.96"/>
<text text-anchor="middle" x="1388.25" y="-57.2" font-family="Times,serif" font-size="14.00">isEastOf</text>
</g>
<!-- idStump1 -->
<g id="node15" class="node">
<title>idStump1</title>
<ellipse fill="none" stroke="black" cx="1561" cy="-18" rx="47.26" ry="18"/>
<text text-anchor="middle" x="1561" y="-12.95" font-family="Times,serif" font-size="14.00">idStump1</text>
</g>
<!-- idTheCarRoom1&#45;&gt;idStump1 -->
<g id="edge15" class="edge">
<title>idTheCarRoom1&#45;&gt;idStump1</title>
<path fill="none" stroke="black" d="M1025.81,-105.88C1117.89,-104.99 1279.71,-98.95 1415,-70.5 1451.78,-62.77 1491.93,-48.12 1520.81,-36.41"/>
<polygon fill="black" stroke="black" points="1522,-39.3 1529.91,-32.25 1519.33,-32.82 1522,-39.3"/>
<text text-anchor="middle" x="1496.25" y="-57.2" font-family="Times,serif" font-size="14.00">isEastOf</text>
</g>
<!-- idCarKey1 -->
<g id="node16" class="node">
<title>idCarKey1</title>
<ellipse fill="none" stroke="black" cx="1678" cy="-18" rx="51.35" ry="18"/>
<text text-anchor="middle" x="1678" y="-12.95" font-family="Times,serif" font-size="14.00">idCarKey1</text>
</g>
<!-- idTheCarRoom1&#45;&gt;idCarKey1 -->
<g id="edge16" class="edge">
<title>idTheCarRoom1&#45;&gt;idCarKey1</title>
<path fill="none" stroke="black" d="M1024.69,-103.39C1156.43,-99.18 1429.63,-88.55 1523,-70.5 1562.27,-62.91 1605.32,-48.05 1636.06,-36.23"/>
<polygon fill="black" stroke="black" points="1636.95,-39.25 1644.99,-32.36 1634.41,-32.73 1636.95,-39.25"/>
<text text-anchor="middle" x="1607.25" y="-57.2" font-family="Times,serif" font-size="14.00">isEastOf</text>
</g>
<!-- idBumper1 -->
<g id="node17" class="node">
<title>idBumper1</title>
<ellipse fill="none" stroke="black" cx="1800" cy="-18" rx="52.89" ry="18"/>
<text text-anchor="middle" x="1800" y="-12.95" font-family="Times,serif" font-size="14.00">idBumper1</text>
</g>
<!-- idTheCarRoom1&#45;&gt;idBumper1 -->
<g id="edge17" class="edge">
<title>idTheCarRoom1&#45;&gt;idBumper1</title>
<path fill="none" stroke="black" d="M1025.08,-104.05C1176.27,-100.68 1518.88,-90.98 1634,-70.5 1676.35,-62.97 1723.02,-47.85 1756.05,-35.93"/>
<polygon fill="black" stroke="black" points="1757.09,-38.92 1765.28,-32.19 1754.68,-32.34 1757.09,-38.92"/>
<text text-anchor="middle" x="1722.25" y="-57.2" font-family="Times,serif" font-size="14.00">isEastOf</text>
</g>
</g>
</svg>
