<?xml version="1.0" encoding="UTF-8" standalone="no"?>
<!DOCTYPE svg PUBLIC "-//W3C//DTD SVG 1.1//EN"
 "http://www.w3.org/Graphics/SVG/1.1/DTD/svg11.dtd">
<!-- Generated by graphviz version 8.1.0 (20230707.0739)
 -->
<!-- Pages: 1 -->
<svg width="2921pt" height="133pt"
 viewBox="0.00 0.00 2920.74 132.50" xmlns="http://www.w3.org/2000/svg" xmlns:xlink="http://www.w3.org/1999/xlink">
<g id="graph0" class="graph" transform="scale(1 1) rotate(0) translate(4 128.5)">
<polygon fill="white" stroke="none" points="-4,4 -4,-128.5 2916.74,-128.5 2916.74,4 -4,4"/>
<!-- idTire1 -->
<g id="node1" class="node">
<title>idTire1</title>
<ellipse fill="none" stroke="black" cx="1385.88" cy="-106.5" rx="38.04" ry="18"/>
<text text-anchor="middle" x="1385.88" y="-101.45" font-family="Times,serif" font-size="14.00">idTire1</text>
</g>
<!-- idTire1&#45;&gt;idTire1 -->
<g id="edge5" class="edge">
<title>idTire1&#45;&gt;idTire1</title>
<path fill="none" stroke="black" d="M1420.08,-114.79C1432.14,-114.92 1441.92,-112.16 1441.92,-106.5 1441.92,-102.7 1437.51,-100.2 1430.95,-99.01"/>
<polygon fill="black" stroke="black" points="1431.31,-95.46 1421.08,-98.21 1430.8,-102.44 1431.31,-95.46"/>
<text text-anchor="middle" x="1459.55" y="-101.45" font-family="Times,serif" font-size="14.00">isNear</text>
</g>
<!-- black -->
<g id="node2" class="node">
<title>black</title>
<ellipse fill="none" stroke="black" cx="30.88" cy="-18" rx="30.88" ry="18"/>
<text text-anchor="middle" x="30.88" y="-12.95" font-family="Times,serif" font-size="14.00">black</text>
</g>
<!-- idTire1&#45;&gt;black -->
<g id="edge1" class="edge">
<title>idTire1&#45;&gt;black</title>
<path fill="none" stroke="black" d="M1347.59,-105.51C1149.44,-105.41 245,-103.17 124.63,-70.5 100.67,-64 76.17,-50.24 58.22,-38.58"/>
<polygon fill="black" stroke="black" points="60.73,-35.38 50.47,-32.72 56.84,-41.19 60.73,-35.38"/>
<text text-anchor="middle" x="184.5" y="-57.2" font-family="Times,serif" font-size="14.00">idTire1_prop_idColor</text>
</g>
<!-- idDen1 -->
<g id="node3" class="node">
<title>idDen1</title>
<ellipse fill="none" stroke="black" cx="148.88" cy="-18" rx="38.04" ry="18"/>
<text text-anchor="middle" x="148.88" y="-12.95" font-family="Times,serif" font-size="14.00">idDen1</text>
</g>
<!-- idTire1&#45;&gt;idDen1 -->
<g id="edge2" class="edge">
<title>idTire1&#45;&gt;idDen1</title>
<path fill="none" stroke="black" d="M1347.41,-105.58C1180.26,-105.74 516.26,-104.17 310.63,-70.5 267.07,-63.37 219.1,-46.95 186.81,-34.56"/>
<polygon fill="black" stroke="black" points="188.48,-31.06 177.9,-30.69 185.94,-37.58 188.48,-31.06"/>
<text text-anchor="middle" x="328.5" y="-57.2" font-family="Times,serif" font-size="14.00">isNear</text>
</g>
<!-- idTheCar1 -->
<g id="node4" class="node">
<title>idTheCar1</title>
<ellipse fill="none" stroke="black" cx="254.88" cy="-18" rx="50.33" ry="18"/>
<text text-anchor="middle" x="254.88" y="-12.95" font-family="Times,serif" font-size="14.00">idTheCar1</text>
</g>
<!-- idTire1&#45;&gt;idTheCar1 -->
<g id="edge3" class="edge">
<title>idTire1&#45;&gt;idTheCar1</title>
<path fill="none" stroke="black" d="M1347.58,-105.57C1190.51,-105.64 595.31,-103.65 410.63,-70.5 370.84,-63.36 327.29,-48.3 296.38,-36.3"/>
<polygon fill="black" stroke="black" points="297.99,-32.78 287.41,-32.37 295.42,-39.29 297.99,-32.78"/>
<text text-anchor="middle" x="439" y="-57.2" font-family="Times,serif" font-size="14.00">isInsideOf</text>
</g>
<!-- idBear1 -->
<g id="node5" class="node">
<title>idBear1</title>
<ellipse fill="none" stroke="black" cx="362.88" cy="-18" rx="40.09" ry="18"/>
<text text-anchor="middle" x="362.88" y="-12.95" font-family="Times,serif" font-size="14.00">idBear1</text>
</g>
<!-- idTire1&#45;&gt;idBear1 -->
<g id="edge4" class="edge">
<title>idTire1&#45;&gt;idBear1</title>
<path fill="none" stroke="black" d="M1347.93,-105.06C1204.93,-103.23 698.75,-95.13 539.63,-70.5 491.62,-63.07 438.31,-46.31 402.92,-33.91"/>
<polygon fill="black" stroke="black" points="404.58,-30.44 393.99,-30.39 402.24,-37.03 404.58,-30.44"/>
<text text-anchor="middle" x="557.5" y="-57.2" font-family="Times,serif" font-size="14.00">isNear</text>
</g>
<!-- idTaillight1 -->
<g id="node6" class="node">
<title>idTaillight1</title>
<ellipse fill="none" stroke="black" cx="475.88" cy="-18" rx="54.42" ry="18"/>
<text text-anchor="middle" x="475.88" y="-12.95" font-family="Times,serif" font-size="14.00">idTaillight1</text>
</g>
<!-- idTire1&#45;&gt;idTaillight1 -->
<g id="edge6" class="edge">
<title>idTire1&#45;&gt;idTaillight1</title>
<path fill="none" stroke="black" d="M1347.69,-104.96C1215.95,-102.91 781.05,-94.44 643.63,-70.5 600.98,-63.07 553.98,-48.02 520.61,-36.09"/>
<polygon fill="black" stroke="black" points="521.87,-32.47 511.28,-32.35 519.49,-39.05 521.87,-32.47"/>
<text text-anchor="middle" x="661.5" y="-57.2" font-family="Times,serif" font-size="14.00">isNear</text>
</g>
<!-- idArea1 -->
<g id="node7" class="node">
<title>idArea1</title>
<ellipse fill="none" stroke="black" cx="588.88" cy="-18" rx="40.6" ry="18"/>
<text text-anchor="middle" x="588.88" y="-12.95" font-family="Times,serif" font-size="14.00">idArea1</text>
</g>
<!-- idTire1&#45;&gt;idArea1 -->
<g id="edge7" class="edge">
<title>idTire1&#45;&gt;idArea1</title>
<path fill="none" stroke="black" d="M1347.89,-104.74C1228.25,-102.13 860.24,-92.49 743.13,-70.5 702.62,-62.89 658.15,-47.21 627.41,-35.14"/>
<polygon fill="black" stroke="black" points="629.12,-31.66 618.53,-31.2 626.52,-38.16 629.12,-31.66"/>
<text text-anchor="middle" x="771.25" y="-57.2" font-family="Times,serif" font-size="14.00">isSouthOf</text>
</g>
<!-- idBumper1 -->
<g id="node8" class="node">
<title>idBumper1</title>
<ellipse fill="none" stroke="black" cx="699.88" cy="-18" rx="52.89" ry="18"/>
<text text-anchor="middle" x="699.88" y="-12.95" font-family="Times,serif" font-size="14.00">idBumper1</text>
</g>
<!-- idTire1&#45;&gt;idBumper1 -->
<g id="edge8" class="edge">
<title>idTire1&#45;&gt;idBumper1</title>
<path fill="none" stroke="black" d="M1347.68,-105.95C1261.16,-106.33 1043.96,-103.56 866.13,-70.5 823.91,-62.65 777.33,-47.64 744.24,-35.85"/>
<polygon fill="black" stroke="black" points="745.59,-32.25 735,-32.14 743.21,-38.83 745.59,-32.25"/>
<text text-anchor="middle" x="894.25" y="-57.2" font-family="Times,serif" font-size="14.00">isSouthOf</text>
</g>
<!-- idCarKey1 -->
<g id="node9" class="node">
<title>idCarKey1</title>
<ellipse fill="none" stroke="black" cx="821.88" cy="-18" rx="51.35" ry="18"/>
<text text-anchor="middle" x="821.88" y="-12.95" font-family="Times,serif" font-size="14.00">idCarKey1</text>
</g>
<!-- idTire1&#45;&gt;idCarKey1 -->
<g id="edge9" class="edge">
<title>idTire1&#45;&gt;idCarKey1</title>
<path fill="none" stroke="black" d="M1347.76,-104.8C1276.62,-102.91 1119.08,-95.94 989.13,-70.5 946.62,-62.18 899.59,-47.15 866.25,-35.47"/>
<polygon fill="black" stroke="black" points="867.53,-31.85 856.93,-31.81 865.19,-38.45 867.53,-31.85"/>
<text text-anchor="middle" x="1017.25" y="-57.2" font-family="Times,serif" font-size="14.00">isSouthOf</text>
</g>
<!-- idStump1 -->
<g id="node10" class="node">
<title>idStump1</title>
<ellipse fill="none" stroke="black" cx="938.88" cy="-18" rx="47.26" ry="18"/>
<text text-anchor="middle" x="938.88" y="-12.95" font-family="Times,serif" font-size="14.00">idStump1</text>
</g>
<!-- idTire1&#45;&gt;idStump1 -->
<g id="edge10" class="edge">
<title>idTire1&#45;&gt;idStump1</title>
<path fill="none" stroke="black" d="M1348.39,-102.77C1294.87,-98.42 1193.68,-88.5 1109.13,-70.5 1065.47,-61.21 1016.84,-45.99 982.76,-34.5"/>
<polygon fill="black" stroke="black" points="984.27,-30.98 973.68,-31.06 982.02,-37.6 984.27,-30.98"/>
<text text-anchor="middle" x="1137.25" y="-57.2" font-family="Times,serif" font-size="14.00">isSouthOf</text>
</g>
<!-- idTheCarRoom1 -->
<g id="node11" class="node">
<title>idTheCarRoom1</title>
<ellipse fill="none" stroke="black" cx="1077.88" cy="-18" rx="73.36" ry="18"/>
<text text-anchor="middle" x="1077.88" y="-12.95" font-family="Times,serif" font-size="14.00">idTheCarRoom1</text>
</g>
<!-- idTire1&#45;&gt;idTheCarRoom1 -->
<g id="edge11" class="edge">
<title>idTire1&#45;&gt;idTheCarRoom1</title>
<path fill="none" stroke="black" d="M1350.33,-99.58C1316.28,-93.55 1263.6,-83.28 1218.88,-70.5 1186.88,-61.36 1151.73,-48.52 1124.52,-37.95"/>
<polygon fill="black" stroke="black" points="1126.1,-34.42 1115.51,-34.03 1123.54,-40.93 1126.1,-34.42"/>
<text text-anchor="middle" x="1244.38" y="-57.2" font-family="Times,serif" font-size="14.00">isWestOf</text>
</g>
<!-- idClearing1 -->
<g id="node12" class="node">
<title>idClearing1</title>
<ellipse fill="none" stroke="black" cx="1223.88" cy="-18" rx="54.42" ry="18"/>
<text text-anchor="middle" x="1223.88" y="-12.95" font-family="Times,serif" font-size="14.00">idClearing1</text>
</g>
<!-- idTire1&#45;&gt;idClearing1 -->
<g id="edge12" class="edge">
<title>idTire1&#45;&gt;idClearing1</title>
<path fill="none" stroke="black" d="M1355.75,-95.24C1338.66,-88.96 1317.1,-80.27 1298.88,-70.5 1283.16,-62.07 1266.71,-51.06 1253.24,-41.38"/>
<polygon fill="black" stroke="black" points="1255.57,-38.02 1245.43,-34.94 1251.44,-43.67 1255.57,-38.02"/>
<text text-anchor="middle" x="1324.38" y="-57.2" font-family="Times,serif" font-size="14.00">isWestOf</text>
</g>
<!-- idBush1 -->
<g id="node13" class="node">
<title>idBush1</title>
<ellipse fill="none" stroke="black" cx="1337.88" cy="-18" rx="41.63" ry="18"/>
<text text-anchor="middle" x="1337.88" y="-12.95" font-family="Times,serif" font-size="14.00">idBush1</text>
</g>
<!-- idTire1&#45;&gt;idBush1 -->
<g id="edge13" class="edge">
<title>idTire1&#45;&gt;idBush1</title>
<path fill="none" stroke="black" d="M1373.22,-89.22C1369.03,-83.47 1364.52,-76.85 1360.88,-70.5 1356.48,-62.82 1352.32,-54.14 1348.78,-46.13"/>
<polygon fill="black" stroke="black" points="1351.65,-44.95 1344.51,-37.12 1345.21,-47.69 1351.65,-44.95"/>
<text text-anchor="middle" x="1386.38" y="-57.2" font-family="Times,serif" font-size="14.00">isWestOf</text>
</g>
<!-- idCar1 -->
<g id="node14" class="node">
<title>idCar1</title>
<ellipse fill="none" stroke="black" cx="1433.88" cy="-18" rx="36" ry="18"/>
<text text-anchor="middle" x="1433.88" y="-12.95" font-family="Times,serif" font-size="14.00">idCar1</text>
</g>
<!-- idTire1&#45;&gt;idCar1 -->
<g id="edge14" class="edge">
<title>idTire1&#45;&gt;idCar1</title>
<path fill="none" stroke="black" d="M1399.14,-89.31C1403.51,-83.57 1408.18,-76.93 1411.88,-70.5 1416.26,-62.88 1420.28,-54.22 1423.67,-46.2"/>
<polygon fill="black" stroke="black" points="1427.21,-47.76 1427.71,-37.18 1420.72,-45.14 1427.21,-47.76"/>
<text text-anchor="middle" x="1446.38" y="-57.2" font-family="Times,serif" font-size="14.00">isWestOf</text>
</g>
<!-- idCrowbar1 -->
<g id="node15" class="node">
<title>idCrowbar1</title>
<ellipse fill="none" stroke="black" cx="1542.88" cy="-18" rx="54.93" ry="18"/>
<text text-anchor="middle" x="1542.88" y="-12.95" font-family="Times,serif" font-size="14.00">idCrowbar1</text>
</g>
<!-- idTire1&#45;&gt;idCrowbar1 -->
<g id="edge15" class="edge">
<title>idTire1&#45;&gt;idCrowbar1</title>
<path fill="none" stroke="black" d="M1416.86,-95.9C1434.68,-89.78 1457.18,-81.03 1475.88,-70.5 1490.07,-62.5 1504.56,-51.75 1516.41,-42.14"/>
<polygon fill="black" stroke="black" points="1518.08,-44.48 1523.54,-35.4 1513.61,-39.09 1518.08,-44.48"/>
<text text-anchor="middle" x="1525.38" y="-57.2" font-family="Times,serif" font-size="14.00">isWestOf</text>
</g>
<!-- idLock1 -->
<g id="node16" class="node">
<title>idLock1</title>
<ellipse fill="none" stroke="black" cx="1657.88" cy="-18" rx="41.63" ry="18"/>
<text text-anchor="middle" x="1657.88" y="-12.95" font-family="Times,serif" font-size="14.00">idLock1</text>
</g>
<!-- idTire1&#45;&gt;idLock1 -->
<g id="edge16" class="edge">
<title>idTire1&#45;&gt;idLock1</title>
<path fill="none" stroke="black" d="M1422.21,-100.76C1456.94,-95.59 1510.44,-85.92 1554.88,-70.5 1579.12,-62.09 1604.93,-49.17 1624.66,-38.38"/>
<polygon fill="black" stroke="black" points="1626.07,-41.04 1633.1,-33.12 1622.66,-34.93 1626.07,-41.04"/>
<text text-anchor="middle" x="1618.38" y="-57.2" font-family="Times,serif" font-size="14.00">isWestOf</text>
</g>
<!-- idPlayer -->
<g id="node17" class="node">
<title>idPlayer</title>
<ellipse fill="none" stroke="black" cx="1758.88" cy="-18" rx="41.63" ry="18"/>
<text text-anchor="middle" x="1758.88" y="-12.95" font-family="Times,serif" font-size="14.00">idPlayer</text>
</g>
<!-- idTire1&#45;&gt;idPlayer -->
<g id="edge17" class="edge">
<title>idTire1&#45;&gt;idPlayer</title>
<path fill="none" stroke="black" d="M1423.93,-104C1475.58,-101.17 1570.34,-93.1 1647.88,-70.5 1674.82,-62.65 1703.51,-49.19 1724.97,-38"/>
<polygon fill="black" stroke="black" points="1726.4,-40.67 1733.59,-32.89 1723.11,-34.49 1726.4,-40.67"/>
<text text-anchor="middle" x="1717.38" y="-57.2" font-family="Times,serif" font-size="14.00">isWestOf</text>
</g>
<!-- idPlayerBackside -->
<g id="node18" class="node">
<title>idPlayerBackside</title>
<ellipse fill="none" stroke="black" cx="1893.88" cy="-18" rx="75.41" ry="18"/>
<text text-anchor="middle" x="1893.88" y="-12.95" font-family="Times,serif" font-size="14.00">idPlayerBackside</text>
</g>
<!-- idTire1&#45;&gt;idPlayerBackside -->
<g id="edge18" class="edge">
<title>idTire1&#45;&gt;idPlayerBackside</title>
<path fill="none" stroke="black" d="M1424.03,-104.8C1490.4,-102.92 1631.12,-96 1746.88,-70.5 1781.57,-62.86 1819.37,-49.5 1847.95,-38.3"/>
<polygon fill="black" stroke="black" points="1849.04,-41.24 1857.04,-34.29 1846.45,-34.73 1849.04,-41.24"/>
<text text-anchor="middle" x="1830.38" y="-57.2" font-family="Times,serif" font-size="14.00">isWestOf</text>
</g>
<!-- idPlayerLeftHand -->
<g id="node19" class="node">
<title>idPlayerLeftHand</title>
<ellipse fill="none" stroke="black" cx="2063.88" cy="-18" rx="76.94" ry="18"/>
<text text-anchor="middle" x="2063.88" y="-12.95" font-family="Times,serif" font-size="14.00">idPlayerLeftHand</text>
</g>
<!-- idTire1&#45;&gt;idPlayerLeftHand -->
<g id="edge19" class="edge">
<title>idTire1&#45;&gt;idPlayerLeftHand</title>
<path fill="none" stroke="black" d="M1424.23,-104.92C1505.22,-103.2 1699.41,-96.48 1859.88,-70.5 1910.69,-62.27 1967.37,-47.5 2008.06,-35.88"/>
<polygon fill="black" stroke="black" points="2008.94,-38.98 2017.58,-32.85 2007,-32.26 2008.94,-38.98"/>
<text text-anchor="middle" x="1965.38" y="-57.2" font-family="Times,serif" font-size="14.00">isWestOf</text>
</g>
<!-- idPlayerRightHand -->
<g id="node20" class="node">
<title>idPlayerRightHand</title>
<ellipse fill="none" stroke="black" cx="2240.88" cy="-18" rx="82.06" ry="18"/>
<text text-anchor="middle" x="2240.88" y="-12.95" font-family="Times,serif" font-size="14.00">idPlayerRightHand</text>
</g>
<!-- idTire1&#45;&gt;idPlayerRightHand -->
<g id="edge20" class="edge">
<title>idTire1&#45;&gt;idPlayerRightHand</title>
<path fill="none" stroke="black" d="M1424.19,-105.27C1520.52,-104.28 1780.45,-98.95 1994.88,-70.5 2057.95,-62.13 2128.97,-46.59 2178.43,-34.76"/>
<polygon fill="black" stroke="black" points="2179.06,-37.97 2187.96,-32.22 2177.42,-31.17 2179.06,-37.97"/>
<text text-anchor="middle" x="2116.38" y="-57.2" font-family="Times,serif" font-size="14.00">isWestOf</text>
</g>
<!-- idSideMirror1 -->
<g id="node21" class="node">
<title>idSideMirror1</title>
<ellipse fill="none" stroke="black" cx="2404.88" cy="-18" rx="64.15" ry="18"/>
<text text-anchor="middle" x="2404.88" y="-12.95" font-family="Times,serif" font-size="14.00">idSideMirror1</text>
</g>
<!-- idTire1&#45;&gt;idSideMirror1 -->
<g id="edge21" class="edge">
<title>idTire1&#45;&gt;idSideMirror1</title>
<path fill="none" stroke="black" d="M1423.99,-105.59C1535.44,-105.46 1870.32,-102.25 2145.88,-70.5 2215.97,-62.42 2295.39,-45.45 2347.59,-33.19"/>
<polygon fill="black" stroke="black" points="2348.06,-36.44 2356.98,-30.73 2346.45,-29.63 2348.06,-36.44"/>
<text text-anchor="middle" x="2272.38" y="-57.2" font-family="Times,serif" font-size="14.00">isWestOf</text>
</g>
<!-- idSmoke1 -->
<g id="node22" class="node">
<title>idSmoke1</title>
<ellipse fill="none" stroke="black" cx="2535.88" cy="-18" rx="48.79" ry="18"/>
<text text-anchor="middle" x="2535.88" y="-12.95" font-family="Times,serif" font-size="14.00">idSmoke1</text>
</g>
<!-- idTire1&#45;&gt;idSmoke1 -->
<g id="edge22" class="edge">
<title>idTire1&#45;&gt;idSmoke1</title>
<path fill="none" stroke="black" d="M1424.04,-104.83C1574.6,-102.08 2127.7,-90.77 2301.88,-70.5 2381.06,-61.28 2400.44,-54.9 2477.88,-36 2481.45,-35.13 2485.14,-34.18 2488.83,-33.18"/>
<polygon fill="black" stroke="black" points="2489.5,-36.35 2498.2,-30.3 2487.63,-29.61 2489.5,-36.35"/>
<text text-anchor="middle" x="2428.38" y="-57.2" font-family="Times,serif" font-size="14.00">isWestOf</text>
</g>
<!-- idSpill1 -->
<g id="node23" class="node">
<title>idSpill1</title>
<ellipse fill="none" stroke="black" cx="2642.88" cy="-18" rx="40.09" ry="18"/>
<text text-anchor="middle" x="2642.88" y="-12.95" font-family="Times,serif" font-size="14.00">idSpill1</text>
</g>
<!-- idTire1&#45;&gt;idSpill1 -->
<g id="edge23" class="edge">
<title>idTire1&#45;&gt;idSpill1</title>
<path fill="none" stroke="black" d="M1424.2,-105.36C1590.7,-104.56 2252.19,-99.6 2457.88,-70.5 2508.65,-63.32 2565.2,-46.17 2602.25,-33.63"/>
<polygon fill="black" stroke="black" points="2603.31,-36.63 2611.63,-30.07 2601.04,-30.01 2603.31,-36.63"/>
<text text-anchor="middle" x="2561.38" y="-57.2" font-family="Times,serif" font-size="14.00">isWestOf</text>
</g>
<!-- idTrunk1 -->
<g id="node24" class="node">
<title>idTrunk1</title>
<ellipse fill="none" stroke="black" cx="2745.88" cy="-18" rx="45.21" ry="18"/>
<text text-anchor="middle" x="2745.88" y="-12.95" font-family="Times,serif" font-size="14.00">idTrunk1</text>
</g>
<!-- idTire1&#45;&gt;idTrunk1 -->
<g id="edge24" class="edge">
<title>idTire1&#45;&gt;idTrunk1</title>
<path fill="none" stroke="black" d="M1424.26,-105.05C1616.92,-102.7 2473.92,-91.17 2590.88,-70.5 2631.14,-63.38 2675.23,-47.94 2706.05,-35.82"/>
<polygon fill="black" stroke="black" points="2706.99,-38.81 2714.97,-31.85 2704.39,-32.31 2706.99,-38.81"/>
<text text-anchor="middle" x="2677.38" y="-57.2" font-family="Times,serif" font-size="14.00">isWestOf</text>
</g>
<!-- idWhistle1 -->
<g id="node25" class="node">
<title>idWhistle1</title>
<ellipse fill="none" stroke="black" cx="2860.88" cy="-18" rx="51.86" ry="18"/>
<text text-anchor="middle" x="2860.88" y="-12.95" font-family="Times,serif" font-size="14.00">idWhistle1</text>
</g>
<!-- idTire1&#45;&gt;idWhistle1 -->
<g id="edge25" class="edge">
<title>idTire1&#45;&gt;idWhistle1</title>
<path fill="none" stroke="black" d="M1424.2,-105.16C1627.76,-103.26 2577.89,-93.25 2706.88,-70.5 2746.04,-63.59 2788.8,-48.66 2819.3,-36.65"/>
<polygon fill="black" stroke="black" points="2820.17,-39.67 2828.16,-32.7 2817.57,-33.17 2820.17,-39.67"/>
<text text-anchor="middle" x="2793.38" y="-57.2" font-family="Times,serif" font-size="14.00">isWestOf</text>
</g>
</g>
</svg>
