<?xml version="1.0" encoding="UTF-8" standalone="no"?>
<!DOCTYPE svg PUBLIC "-//W3C//DTD SVG 1.1//EN"
 "http://www.w3.org/Graphics/SVG/1.1/DTD/svg11.dtd">
<!-- Generated by graphviz version 8.1.0 (20230707.0739)
 -->
<!-- Pages: 1 -->
<svg width="2104pt" height="133pt"
 viewBox="0.00 0.00 2103.74 132.50" xmlns="http://www.w3.org/2000/svg" xmlns:xlink="http://www.w3.org/1999/xlink">
<g id="graph0" class="graph" transform="scale(1 1) rotate(0) translate(4 128.5)">
<polygon fill="white" stroke="none" points="-4,4 -4,-128.5 2099.74,-128.5 2099.74,4 -4,4"/>
<!-- idTrunk1 -->
<g id="node1" class="node">
<title>idTrunk1</title>
<ellipse fill="none" stroke="black" cx="1080.88" cy="-106.5" rx="45.21" ry="18"/>
<text text-anchor="middle" x="1080.88" y="-101.45" font-family="Times,serif" font-size="14.00">idTrunk1</text>
</g>
<!-- black -->
<g id="node2" class="node">
<title>black</title>
<ellipse fill="none" stroke="black" cx="30.88" cy="-18" rx="30.88" ry="18"/>
<text text-anchor="middle" x="30.88" y="-12.95" font-family="Times,serif" font-size="14.00">black</text>
</g>
<!-- idTrunk1&#45;&gt;black -->
<g id="edge1" class="edge">
<title>idTrunk1&#45;&gt;black</title>
<path fill="none" stroke="black" d="M1035.39,-105.01C844.19,-102.8 113.49,-92.91 70.13,-70.5 59.23,-64.87 50.49,-54.68 44.05,-44.84"/>
<polygon fill="black" stroke="black" points="46.72,-43.47 38.59,-36.68 40.7,-47.06 46.72,-43.47"/>
<text text-anchor="middle" x="135.75" y="-57.2" font-family="Times,serif" font-size="14.00">idTrunk1_prop_idColor</text>
</g>
<!-- unbroken -->
<g id="node3" class="node">
<title>unbroken</title>
<ellipse fill="none" stroke="black" cx="183.88" cy="-18" rx="45.72" ry="18"/>
<text text-anchor="middle" x="183.88" y="-12.95" font-family="Times,serif" font-size="14.00">unbroken</text>
</g>
<!-- idTrunk1&#45;&gt;unbroken -->
<g id="edge2" class="edge">
<title>idTrunk1&#45;&gt;unbroken</title>
<path fill="none" stroke="black" d="M1035.33,-105.93C868.09,-107.2 293.86,-108.7 221.88,-70.5 211.43,-64.95 203.09,-55.11 196.93,-45.5"/>
<polygon fill="black" stroke="black" points="199.54,-44.03 191.48,-37.14 193.49,-47.55 199.54,-44.03"/>
<text text-anchor="middle" x="299.88" y="-57.2" font-family="Times,serif" font-size="14.00">idTrunk1_prop_idDescriptor</text>
</g>
<!-- untouched -->
<g id="node4" class="node">
<title>untouched</title>
<ellipse fill="none" stroke="black" cx="362.88" cy="-18" rx="49.3" ry="18"/>
<text text-anchor="middle" x="362.88" y="-12.95" font-family="Times,serif" font-size="14.00">untouched</text>
</g>
<!-- idTrunk1&#45;&gt;untouched -->
<g id="edge3" class="edge">
<title>idTrunk1&#45;&gt;untouched</title>
<path fill="none" stroke="black" d="M1035.26,-105.48C891.44,-105.09 453.67,-101.37 398.38,-70.5 388.39,-64.92 380.6,-55.21 374.91,-45.71"/>
<polygon fill="black" stroke="black" points="377.54,-44.22 369.72,-37.07 371.38,-47.53 377.54,-44.22"/>
<text text-anchor="middle" x="483.63" y="-57.2" font-family="Times,serif" font-size="14.00">idTrunk1_prop_idDescriptor_1</text>
</g>
<!-- idCrowbar1 -->
<g id="node5" class="node">
<title>idCrowbar1</title>
<ellipse fill="none" stroke="black" cx="484.88" cy="-18" rx="54.93" ry="18"/>
<text text-anchor="middle" x="484.88" y="-12.95" font-family="Times,serif" font-size="14.00">idCrowbar1</text>
</g>
<!-- idTrunk1&#45;&gt;idCrowbar1 -->
<g id="edge4" class="edge">
<title>idTrunk1&#45;&gt;idCrowbar1</title>
<path fill="none" stroke="black" d="M1035.49,-106.05C953.06,-106.15 773.72,-102.27 626.63,-70.5 591.75,-62.97 553.84,-48.86 526.01,-37.32"/>
<polygon fill="black" stroke="black" points="527.81,-33.86 517.24,-33.2 525.09,-40.31 527.81,-33.86"/>
<text text-anchor="middle" x="653.5" y="-57.2" font-family="Times,serif" font-size="14.00">isBeneath</text>
</g>
<!-- idCar1 -->
<g id="node6" class="node">
<title>idCar1</title>
<ellipse fill="none" stroke="black" cx="593.88" cy="-18" rx="36" ry="18"/>
<text text-anchor="middle" x="593.88" y="-12.95" font-family="Times,serif" font-size="14.00">idCar1</text>
</g>
<!-- idTrunk1&#45;&gt;idCar1 -->
<g id="edge5" class="edge">
<title>idTrunk1&#45;&gt;idCar1</title>
<path fill="none" stroke="black" d="M1035.79,-104.08C970.15,-101.28 844.77,-93.21 740.63,-70.5 702.1,-62.1 659.76,-46.52 630.51,-34.69"/>
<polygon fill="black" stroke="black" points="631.93,-31.08 621.35,-30.52 629.27,-37.55 631.93,-31.08"/>
<text text-anchor="middle" x="758.5" y="-57.2" font-family="Times,serif" font-size="14.00">isNear</text>
</g>
<!-- idLock1 -->
<g id="node7" class="node">
<title>idLock1</title>
<ellipse fill="none" stroke="black" cx="689.88" cy="-18" rx="41.63" ry="18"/>
<text text-anchor="middle" x="689.88" y="-12.95" font-family="Times,serif" font-size="14.00">idLock1</text>
</g>
<!-- idTrunk1&#45;&gt;idLock1 -->
<g id="edge6" class="edge">
<title>idTrunk1&#45;&gt;idLock1</title>
<path fill="none" stroke="black" d="M1036.49,-102.15C986.04,-97.69 901.49,-88.21 830.63,-70.5 795.26,-61.66 756.45,-47.07 728.56,-35.68"/>
<polygon fill="black" stroke="black" points="730.01,-32.07 719.43,-31.48 727.33,-38.54 730.01,-32.07"/>
<text text-anchor="middle" x="848.5" y="-57.2" font-family="Times,serif" font-size="14.00">isNear</text>
</g>
<!-- idArea1 -->
<g id="node8" class="node">
<title>idArea1</title>
<ellipse fill="none" stroke="black" cx="789.88" cy="-18" rx="40.6" ry="18"/>
<text text-anchor="middle" x="789.88" y="-12.95" font-family="Times,serif" font-size="14.00">idArea1</text>
</g>
<!-- idTrunk1&#45;&gt;idArea1 -->
<g id="edge7" class="edge">
<title>idTrunk1&#45;&gt;idArea1</title>
<path fill="none" stroke="black" d="M1039.28,-98.96C1005.27,-93.09 956.15,-83.41 914.38,-70.5 884.07,-61.13 850.93,-47.24 826.47,-36.24"/>
<polygon fill="black" stroke="black" points="828.1,-32.68 817.55,-31.72 825.2,-39.05 828.1,-32.68"/>
<text text-anchor="middle" x="938.13" y="-57.2" font-family="Times,serif" font-size="14.00">isEastOf</text>
</g>
<!-- idBumper1 -->
<g id="node9" class="node">
<title>idBumper1</title>
<ellipse fill="none" stroke="black" cx="900.88" cy="-18" rx="52.89" ry="18"/>
<text text-anchor="middle" x="900.88" y="-12.95" font-family="Times,serif" font-size="14.00">idBumper1</text>
</g>
<!-- idTrunk1&#45;&gt;idBumper1 -->
<g id="edge8" class="edge">
<title>idTrunk1&#45;&gt;idBumper1</title>
<path fill="none" stroke="black" d="M1049.24,-93.29C1033.23,-86.88 1013.59,-78.68 996.38,-70.5 976.14,-60.88 954.09,-49.08 936.28,-39.2"/>
<polygon fill="black" stroke="black" points="938.29,-35.76 927.86,-33.94 934.88,-41.87 938.29,-35.76"/>
<text text-anchor="middle" x="1020.13" y="-57.2" font-family="Times,serif" font-size="14.00">isEastOf</text>
</g>
<!-- idCarKey1 -->
<g id="node10" class="node">
<title>idCarKey1</title>
<ellipse fill="none" stroke="black" cx="1022.88" cy="-18" rx="51.35" ry="18"/>
<text text-anchor="middle" x="1022.88" y="-12.95" font-family="Times,serif" font-size="14.00">idCarKey1</text>
</g>
<!-- idTrunk1&#45;&gt;idCarKey1 -->
<g id="edge9" class="edge">
<title>idTrunk1&#45;&gt;idCarKey1</title>
<path fill="none" stroke="black" d="M1069.7,-88.82C1061.33,-76.34 1049.72,-59.03 1040.16,-44.77"/>
<polygon fill="black" stroke="black" points="1042.7,-43.28 1034.23,-36.92 1036.89,-47.18 1042.7,-43.28"/>
<text text-anchor="middle" x="1081.13" y="-57.2" font-family="Times,serif" font-size="14.00">isEastOf</text>
</g>
<!-- idStump1 -->
<g id="node11" class="node">
<title>idStump1</title>
<ellipse fill="none" stroke="black" cx="1139.88" cy="-18" rx="47.26" ry="18"/>
<text text-anchor="middle" x="1139.88" y="-12.95" font-family="Times,serif" font-size="14.00">idStump1</text>
</g>
<!-- idTrunk1&#45;&gt;idStump1 -->
<g id="edge10" class="edge">
<title>idTrunk1&#45;&gt;idStump1</title>
<path fill="none" stroke="black" d="M1094.14,-89.02C1098.63,-83.26 1103.59,-76.68 1107.88,-70.5 1113.49,-62.42 1119.26,-53.38 1124.34,-45.15"/>
<polygon fill="black" stroke="black" points="1127.71,-47.34 1129.92,-36.98 1121.73,-43.7 1127.71,-47.34"/>
<text text-anchor="middle" x="1142.13" y="-57.2" font-family="Times,serif" font-size="14.00">isEastOf</text>
</g>
<!-- idDen1 -->
<g id="node12" class="node">
<title>idDen1</title>
<ellipse fill="none" stroke="black" cx="1242.88" cy="-18" rx="38.04" ry="18"/>
<text text-anchor="middle" x="1242.88" y="-12.95" font-family="Times,serif" font-size="14.00">idDen1</text>
</g>
<!-- idTrunk1&#45;&gt;idDen1 -->
<g id="edge11" class="edge">
<title>idTrunk1&#45;&gt;idDen1</title>
<path fill="none" stroke="black" d="M1114.71,-94.12C1131.42,-87.98 1151.65,-79.76 1168.88,-70.5 1184.9,-61.89 1201.62,-50.49 1215.1,-40.6"/>
<polygon fill="black" stroke="black" points="1216.96,-42.84 1222.88,-34.05 1212.77,-37.23 1216.96,-42.84"/>
<text text-anchor="middle" x="1218.13" y="-57.2" font-family="Times,serif" font-size="14.00">isEastOf</text>
</g>
<!-- idBear1 -->
<g id="node13" class="node">
<title>idBear1</title>
<ellipse fill="none" stroke="black" cx="1338.88" cy="-18" rx="40.09" ry="18"/>
<text text-anchor="middle" x="1338.88" y="-12.95" font-family="Times,serif" font-size="14.00">idBear1</text>
</g>
<!-- idTrunk1&#45;&gt;idBear1 -->
<g id="edge12" class="edge">
<title>idTrunk1&#45;&gt;idBear1</title>
<path fill="none" stroke="black" d="M1123.28,-99.92C1156.97,-94.67 1204.9,-85.35 1244.88,-70.5 1266.81,-62.35 1289.87,-49.79 1307.66,-39.11"/>
<polygon fill="black" stroke="black" points="1309.26,-41.62 1315.96,-33.41 1305.61,-35.65 1309.26,-41.62"/>
<text text-anchor="middle" x="1303.13" y="-57.2" font-family="Times,serif" font-size="14.00">isEastOf</text>
</g>
<!-- idTaillight1 -->
<g id="node14" class="node">
<title>idTaillight1</title>
<ellipse fill="none" stroke="black" cx="1451.88" cy="-18" rx="54.42" ry="18"/>
<text text-anchor="middle" x="1451.88" y="-12.95" font-family="Times,serif" font-size="14.00">idTaillight1</text>
</g>
<!-- idTrunk1&#45;&gt;idTaillight1 -->
<g id="edge13" class="edge">
<title>idTrunk1&#45;&gt;idTaillight1</title>
<path fill="none" stroke="black" d="M1125.21,-102.75C1175.56,-98.84 1259.82,-89.86 1329.88,-70.5 1358.64,-62.55 1389.6,-49.43 1413.13,-38.42"/>
<polygon fill="black" stroke="black" points="1414.54,-41.15 1422.06,-33.69 1411.53,-34.83 1414.54,-41.15"/>
<text text-anchor="middle" x="1398.13" y="-57.2" font-family="Times,serif" font-size="14.00">isEastOf</text>
</g>
<!-- idTire1 -->
<g id="node15" class="node">
<title>idTire1</title>
<ellipse fill="none" stroke="black" cx="1561.88" cy="-18" rx="38.04" ry="18"/>
<text text-anchor="middle" x="1561.88" y="-12.95" font-family="Times,serif" font-size="14.00">idTire1</text>
</g>
<!-- idTrunk1&#45;&gt;idTire1 -->
<g id="edge14" class="edge">
<title>idTrunk1&#45;&gt;idTire1</title>
<path fill="none" stroke="black" d="M1126.29,-104.6C1192.7,-102.44 1319.83,-95.15 1424.88,-70.5 1460.09,-62.24 1498.49,-47.25 1525.65,-35.56"/>
<polygon fill="black" stroke="black" points="1526.72,-38.48 1534.48,-31.26 1523.92,-32.06 1526.72,-38.48"/>
<text text-anchor="middle" x="1502.13" y="-57.2" font-family="Times,serif" font-size="14.00">isEastOf</text>
</g>
<!-- idClearing1 -->
<g id="node16" class="node">
<title>idClearing1</title>
<ellipse fill="none" stroke="black" cx="1671.88" cy="-18" rx="54.42" ry="18"/>
<text text-anchor="middle" x="1671.88" y="-12.95" font-family="Times,serif" font-size="14.00">idClearing1</text>
</g>
<!-- idTrunk1&#45;&gt;idClearing1 -->
<g id="edge15" class="edge">
<title>idTrunk1&#45;&gt;idClearing1</title>
<path fill="none" stroke="black" d="M1126.28,-105.93C1207.84,-105.84 1384.15,-101.62 1528.88,-70.5 1564.15,-62.92 1602.53,-48.74 1630.64,-37.19"/>
<polygon fill="black" stroke="black" points="1631.63,-40.15 1639.51,-33.06 1628.93,-33.69 1631.63,-40.15"/>
<text text-anchor="middle" x="1611.38" y="-57.2" font-family="Times,serif" font-size="14.00">isWestOf</text>
</g>
<!-- idBush1 -->
<g id="node17" class="node">
<title>idBush1</title>
<ellipse fill="none" stroke="black" cx="1785.88" cy="-18" rx="41.63" ry="18"/>
<text text-anchor="middle" x="1785.88" y="-12.95" font-family="Times,serif" font-size="14.00">idBush1</text>
</g>
<!-- idTrunk1&#45;&gt;idBush1 -->
<g id="edge16" class="edge">
<title>idTrunk1&#45;&gt;idBush1</title>
<path fill="none" stroke="black" d="M1126.21,-104.29C1241.34,-100.97 1542.82,-90.57 1640.88,-70.5 1678.17,-62.87 1718.88,-47.78 1747.64,-35.89"/>
<polygon fill="black" stroke="black" points="1748.8,-38.78 1756.67,-31.68 1746.09,-32.33 1748.8,-38.78"/>
<text text-anchor="middle" x="1723.38" y="-57.2" font-family="Times,serif" font-size="14.00">isWestOf</text>
</g>
<!-- idSideMirror1 -->
<g id="node18" class="node">
<title>idSideMirror1</title>
<ellipse fill="none" stroke="black" cx="1909.88" cy="-18" rx="64.15" ry="18"/>
<text text-anchor="middle" x="1909.88" y="-12.95" font-family="Times,serif" font-size="14.00">idSideMirror1</text>
</g>
<!-- idTrunk1&#45;&gt;idSideMirror1 -->
<g id="edge17" class="edge">
<title>idTrunk1&#45;&gt;idSideMirror1</title>
<path fill="none" stroke="black" d="M1126.03,-104.7C1256.45,-102.16 1632.15,-93.03 1752.88,-70.5 1791.52,-63.29 1833.77,-49.05 1864.7,-37.36"/>
<polygon fill="black" stroke="black" points="1865.65,-40.36 1873.73,-33.51 1863.14,-33.83 1865.65,-40.36"/>
<text text-anchor="middle" x="1840.38" y="-57.2" font-family="Times,serif" font-size="14.00">isWestOf</text>
</g>
<!-- idWhistle1 -->
<g id="node19" class="node">
<title>idWhistle1</title>
<ellipse fill="none" stroke="black" cx="2043.88" cy="-18" rx="51.86" ry="18"/>
<text text-anchor="middle" x="2043.88" y="-12.95" font-family="Times,serif" font-size="14.00">idWhistle1</text>
</g>
<!-- idTrunk1&#45;&gt;idWhistle1 -->
<g id="edge18" class="edge">
<title>idTrunk1&#45;&gt;idWhistle1</title>
<path fill="none" stroke="black" d="M1126.19,-104.94C1271.59,-102.9 1725.27,-94.74 1869.88,-70.5 1914.79,-62.97 1964.46,-47.53 1999.19,-35.5"/>
<polygon fill="black" stroke="black" points="2000.2,-38.51 2008.47,-31.9 1997.88,-31.91 2000.2,-38.51"/>
<text text-anchor="middle" x="1963.38" y="-57.2" font-family="Times,serif" font-size="14.00">isWestOf</text>
</g>
</g>
</svg>
