<?xml version="1.0" encoding="UTF-8" standalone="no"?>
<!DOCTYPE svg PUBLIC "-//W3C//DTD SVG 1.1//EN"
 "http://www.w3.org/Graphics/SVG/1.1/DTD/svg11.dtd">
<!-- Generated by graphviz version 8.1.0 (20230707.0739)
 -->
<!-- Pages: 1 -->
<svg width="2922pt" height="133pt"
 viewBox="0.00 0.00 2921.79 132.50" xmlns="http://www.w3.org/2000/svg" xmlns:xlink="http://www.w3.org/1999/xlink">
<g id="graph0" class="graph" transform="scale(1 1) rotate(0) translate(4 128.5)">
<polygon fill="white" stroke="none" points="-4,4 -4,-128.5 2917.79,-128.5 2917.79,4 -4,4"/>
<!-- idWhistle1 -->
<g id="node1" class="node">
<title>idWhistle1</title>
<ellipse fill="none" stroke="black" cx="1434.58" cy="-106.5" rx="51.86" ry="18"/>
<text text-anchor="middle" x="1434.58" y="-101.45" font-family="Times,serif" font-size="14.00">idWhistle1</text>
</g>
<!-- idWhistle1&#45;&gt;idWhistle1 -->
<g id="edge6" class="edge">
<title>idWhistle1&#45;&gt;idWhistle1</title>
<path fill="none" stroke="black" d="M1481.27,-114.76C1494.38,-114.39 1504.44,-111.64 1504.44,-106.5 1504.44,-102.92 1499.58,-100.5 1492.21,-99.24"/>
<polygon fill="black" stroke="black" points="1492.54,-95.67 1482.27,-98.24 1491.91,-102.64 1492.54,-95.67"/>
<text text-anchor="middle" x="1522.07" y="-101.45" font-family="Times,serif" font-size="14.00">isNear</text>
</g>
<!-- cracked -->
<g id="node2" class="node">
<title>cracked</title>
<ellipse fill="none" stroke="black" cx="39.58" cy="-18" rx="39.58" ry="18"/>
<text text-anchor="middle" x="39.58" y="-12.95" font-family="Times,serif" font-size="14.00">cracked</text>
</g>
<!-- idWhistle1&#45;&gt;cracked -->
<g id="edge1" class="edge">
<title>idWhistle1&#45;&gt;cracked</title>
<path fill="none" stroke="black" d="M1382.44,-105.12C1143.2,-103.24 159.57,-94.12 98.83,-70.5 84.05,-64.75 70.47,-53.59 60.05,-43.13"/>
<polygon fill="black" stroke="black" points="63.13,-41.24 53.72,-36.36 58.04,-46.04 63.13,-41.24"/>
<text text-anchor="middle" x="182.45" y="-57.2" font-family="Times,serif" font-size="14.00">idWhistle1_prop_idDescriptor</text>
</g>
<!-- white -->
<g id="node3" class="node">
<title>white</title>
<ellipse fill="none" stroke="black" cx="228.58" cy="-18" rx="31.39" ry="18"/>
<text text-anchor="middle" x="228.58" y="-12.95" font-family="Times,serif" font-size="14.00">white</text>
</g>
<!-- idWhistle1&#45;&gt;white -->
<g id="edge2" class="edge">
<title>idWhistle1&#45;&gt;white</title>
<path fill="none" stroke="black" d="M1382.38,-105.74C1172.97,-106.47 400.07,-106.67 297.08,-70.5 279.97,-64.49 263.63,-52.53 251.2,-41.65"/>
<polygon fill="black" stroke="black" points="253.99,-39.55 244.26,-35.37 249.26,-44.71 253.99,-39.55"/>
<text text-anchor="middle" x="367.33" y="-57.2" font-family="Times,serif" font-size="14.00">idWhistle1_prop_idColor</text>
</g>
<!-- idBush1 -->
<g id="node4" class="node">
<title>idBush1</title>
<ellipse fill="none" stroke="black" cx="327.58" cy="-18" rx="41.63" ry="18"/>
<text text-anchor="middle" x="327.58" y="-12.95" font-family="Times,serif" font-size="14.00">idBush1</text>
</g>
<!-- idWhistle1&#45;&gt;idBush1 -->
<g id="edge3" class="edge">
<title>idWhistle1&#45;&gt;idBush1</title>
<path fill="none" stroke="black" d="M1382.54,-104.99C1213.69,-103.11 682.17,-95.33 512.33,-70.5 462.1,-63.16 406.18,-46.3 369.15,-33.86"/>
<polygon fill="black" stroke="black" points="370.36,-30.23 359.77,-30.32 368.1,-36.86 370.36,-30.23"/>
<text text-anchor="middle" x="530.2" y="-57.2" font-family="Times,serif" font-size="14.00">isNear</text>
</g>
<!-- idClearing1 -->
<g id="node5" class="node">
<title>idClearing1</title>
<ellipse fill="none" stroke="black" cx="441.58" cy="-18" rx="54.42" ry="18"/>
<text text-anchor="middle" x="441.58" y="-12.95" font-family="Times,serif" font-size="14.00">idClearing1</text>
</g>
<!-- idWhistle1&#45;&gt;idClearing1 -->
<g id="edge4" class="edge">
<title>idWhistle1&#45;&gt;idClearing1</title>
<path fill="none" stroke="black" d="M1382.43,-104.88C1226.9,-102.76 767.92,-94.58 620.33,-70.5 574.2,-62.97 523.11,-47.5 487.4,-35.47"/>
<polygon fill="black" stroke="black" points="488.89,-31.94 478.29,-32.02 486.63,-38.56 488.89,-31.94"/>
<text text-anchor="middle" x="638.2" y="-57.2" font-family="Times,serif" font-size="14.00">isNear</text>
</g>
<!-- idTheCar1 -->
<g id="node6" class="node">
<title>idTheCar1</title>
<ellipse fill="none" stroke="black" cx="564.58" cy="-18" rx="50.33" ry="18"/>
<text text-anchor="middle" x="564.58" y="-12.95" font-family="Times,serif" font-size="14.00">idTheCar1</text>
</g>
<!-- idWhistle1&#45;&gt;idTheCar1 -->
<g id="edge5" class="edge">
<title>idWhistle1&#45;&gt;idTheCar1</title>
<path fill="none" stroke="black" d="M1382.49,-104.79C1240.11,-102.55 846.57,-94.32 719.33,-70.5 679.95,-63.13 636.82,-48.17 606.12,-36.27"/>
<polygon fill="black" stroke="black" points="607.8,-32.77 597.21,-32.36 605.23,-39.28 607.8,-32.77"/>
<text text-anchor="middle" x="747.7" y="-57.2" font-family="Times,serif" font-size="14.00">isInsideOf</text>
</g>
<!-- idArea1 -->
<g id="node7" class="node">
<title>idArea1</title>
<ellipse fill="none" stroke="black" cx="673.58" cy="-18" rx="40.6" ry="18"/>
<text text-anchor="middle" x="673.58" y="-12.95" font-family="Times,serif" font-size="14.00">idArea1</text>
</g>
<!-- idWhistle1&#45;&gt;idArea1 -->
<g id="edge7" class="edge">
<title>idWhistle1&#45;&gt;idArea1</title>
<path fill="none" stroke="black" d="M1382.6,-106.1C1279.51,-106.49 1042.17,-103.33 846.08,-70.5 799.71,-62.74 748.27,-46.31 713.73,-34.09"/>
<polygon fill="black" stroke="black" points="715.17,-30.53 704.58,-30.44 712.81,-37.12 715.17,-30.53"/>
<text text-anchor="middle" x="869.83" y="-57.2" font-family="Times,serif" font-size="14.00">isEastOf</text>
</g>
<!-- idBumper1 -->
<g id="node8" class="node">
<title>idBumper1</title>
<ellipse fill="none" stroke="black" cx="784.58" cy="-18" rx="52.89" ry="18"/>
<text text-anchor="middle" x="784.58" y="-12.95" font-family="Times,serif" font-size="14.00">idBumper1</text>
</g>
<!-- idWhistle1&#45;&gt;idBumper1 -->
<g id="edge8" class="edge">
<title>idWhistle1&#45;&gt;idBumper1</title>
<path fill="none" stroke="black" d="M1382.62,-105C1295.88,-103.4 1116.36,-96.88 967.08,-70.5 920.02,-62.18 867.64,-46.74 831.12,-34.92"/>
<polygon fill="black" stroke="black" points="832.38,-31.33 821.78,-31.54 830.2,-37.98 832.38,-31.33"/>
<text text-anchor="middle" x="990.83" y="-57.2" font-family="Times,serif" font-size="14.00">isEastOf</text>
</g>
<!-- idCarKey1 -->
<g id="node9" class="node">
<title>idCarKey1</title>
<ellipse fill="none" stroke="black" cx="906.58" cy="-18" rx="51.35" ry="18"/>
<text text-anchor="middle" x="906.58" y="-12.95" font-family="Times,serif" font-size="14.00">idCarKey1</text>
</g>
<!-- idWhistle1&#45;&gt;idCarKey1 -->
<g id="edge9" class="edge">
<title>idWhistle1&#45;&gt;idCarKey1</title>
<path fill="none" stroke="black" d="M1382.91,-103.52C1313.32,-100.15 1185.88,-91.5 1079.08,-70.5 1035.03,-61.84 986.1,-46.68 951.64,-35.05"/>
<polygon fill="black" stroke="black" points="953.03,-31.48 942.43,-31.56 950.77,-38.11 953.03,-31.48"/>
<text text-anchor="middle" x="1102.83" y="-57.2" font-family="Times,serif" font-size="14.00">isEastOf</text>
</g>
<!-- idStump1 -->
<g id="node10" class="node">
<title>idStump1</title>
<ellipse fill="none" stroke="black" cx="1023.58" cy="-18" rx="47.26" ry="18"/>
<text text-anchor="middle" x="1023.58" y="-12.95" font-family="Times,serif" font-size="14.00">idStump1</text>
</g>
<!-- idWhistle1&#45;&gt;idStump1 -->
<g id="edge10" class="edge">
<title>idWhistle1&#45;&gt;idStump1</title>
<path fill="none" stroke="black" d="M1385.25,-100.81C1335.38,-95.53 1256.28,-85.64 1189.08,-70.5 1147.1,-61.04 1100.37,-46.07 1067.3,-34.71"/>
<polygon fill="black" stroke="black" points="1068.66,-31.13 1058.07,-31.16 1066.36,-37.74 1068.66,-31.13"/>
<text text-anchor="middle" x="1212.83" y="-57.2" font-family="Times,serif" font-size="14.00">isEastOf</text>
</g>
<!-- idTheCarRoom1 -->
<g id="node11" class="node">
<title>idTheCarRoom1</title>
<ellipse fill="none" stroke="black" cx="1162.58" cy="-18" rx="73.36" ry="18"/>
<text text-anchor="middle" x="1162.58" y="-12.95" font-family="Times,serif" font-size="14.00">idTheCarRoom1</text>
</g>
<!-- idWhistle1&#45;&gt;idTheCarRoom1 -->
<g id="edge11" class="edge">
<title>idWhistle1&#45;&gt;idTheCarRoom1</title>
<path fill="none" stroke="black" d="M1389.6,-97.28C1359.15,-91.19 1318.24,-81.97 1283.08,-70.5 1256.33,-61.77 1227.29,-49.45 1204.43,-39.05"/>
<polygon fill="black" stroke="black" points="1206.26,-35.58 1195.71,-34.58 1203.33,-41.94 1206.26,-35.58"/>
<text text-anchor="middle" x="1306.83" y="-57.2" font-family="Times,serif" font-size="14.00">isEastOf</text>
</g>
<!-- idDen1 -->
<g id="node12" class="node">
<title>idDen1</title>
<ellipse fill="none" stroke="black" cx="1291.58" cy="-18" rx="38.04" ry="18"/>
<text text-anchor="middle" x="1291.58" y="-12.95" font-family="Times,serif" font-size="14.00">idDen1</text>
</g>
<!-- idWhistle1&#45;&gt;idDen1 -->
<g id="edge12" class="edge">
<title>idWhistle1&#45;&gt;idDen1</title>
<path fill="none" stroke="black" d="M1400.32,-92.77C1385.91,-86.82 1369.24,-79.14 1355.08,-70.5 1341.47,-62.19 1327.57,-51.25 1316.26,-41.6"/>
<polygon fill="black" stroke="black" points="1319,-38.47 1309.17,-34.53 1314.4,-43.74 1319,-38.47"/>
<text text-anchor="middle" x="1378.83" y="-57.2" font-family="Times,serif" font-size="14.00">isEastOf</text>
</g>
<!-- idBear1 -->
<g id="node13" class="node">
<title>idBear1</title>
<ellipse fill="none" stroke="black" cx="1387.58" cy="-18" rx="40.09" ry="18"/>
<text text-anchor="middle" x="1387.58" y="-12.95" font-family="Times,serif" font-size="14.00">idBear1</text>
</g>
<!-- idWhistle1&#45;&gt;idBear1 -->
<g id="edge13" class="edge">
<title>idWhistle1&#45;&gt;idBear1</title>
<path fill="none" stroke="black" d="M1423.77,-88.59C1420.25,-82.91 1416.39,-76.49 1413.08,-70.5 1408.67,-62.52 1404.15,-53.67 1400.17,-45.6"/>
<polygon fill="black" stroke="black" points="1402.98,-44.37 1395.47,-36.9 1396.69,-47.42 1402.98,-44.37"/>
<text text-anchor="middle" x="1436.83" y="-57.2" font-family="Times,serif" font-size="14.00">isEastOf</text>
</g>
<!-- idCar1 -->
<g id="node14" class="node">
<title>idCar1</title>
<ellipse fill="none" stroke="black" cx="1481.58" cy="-18" rx="36" ry="18"/>
<text text-anchor="middle" x="1481.58" y="-12.95" font-family="Times,serif" font-size="14.00">idCar1</text>
</g>
<!-- idWhistle1&#45;&gt;idCar1 -->
<g id="edge14" class="edge">
<title>idWhistle1&#45;&gt;idCar1</title>
<path fill="none" stroke="black" d="M1447.55,-88.9C1451.67,-83.23 1456.07,-76.75 1459.58,-70.5 1463.89,-62.84 1467.89,-54.17 1471.28,-46.15"/>
<polygon fill="black" stroke="black" points="1474.82,-47.72 1475.34,-37.14 1468.34,-45.09 1474.82,-47.72"/>
<text text-anchor="middle" x="1491.83" y="-57.2" font-family="Times,serif" font-size="14.00">isEastOf</text>
</g>
<!-- idCrowbar1 -->
<g id="node15" class="node">
<title>idCrowbar1</title>
<ellipse fill="none" stroke="black" cx="1590.58" cy="-18" rx="54.93" ry="18"/>
<text text-anchor="middle" x="1590.58" y="-12.95" font-family="Times,serif" font-size="14.00">idCrowbar1</text>
</g>
<!-- idWhistle1&#45;&gt;idCrowbar1 -->
<g id="edge15" class="edge">
<title>idWhistle1&#45;&gt;idCrowbar1</title>
<path fill="none" stroke="black" d="M1469.74,-92.9C1485.11,-86.88 1503.12,-79.1 1518.58,-70.5 1533.64,-62.12 1549.32,-51.2 1562.18,-41.58"/>
<polygon fill="black" stroke="black" points="1563.77,-44.01 1569.6,-35.16 1559.53,-38.44 1563.77,-44.01"/>
<text text-anchor="middle" x="1566.83" y="-57.2" font-family="Times,serif" font-size="14.00">isEastOf</text>
</g>
<!-- idLock1 -->
<g id="node16" class="node">
<title>idLock1</title>
<ellipse fill="none" stroke="black" cx="1705.58" cy="-18" rx="41.63" ry="18"/>
<text text-anchor="middle" x="1705.58" y="-12.95" font-family="Times,serif" font-size="14.00">idLock1</text>
</g>
<!-- idWhistle1&#45;&gt;idLock1 -->
<g id="edge16" class="edge">
<title>idWhistle1&#45;&gt;idLock1</title>
<path fill="none" stroke="black" d="M1480.86,-98.02C1512.97,-92.18 1556.47,-82.96 1593.58,-70.5 1620.2,-61.56 1648.96,-48.26 1670.67,-37.41"/>
<polygon fill="black" stroke="black" points="1672.08,-40.11 1679.41,-32.47 1668.91,-33.87 1672.08,-40.11"/>
<text text-anchor="middle" x="1657.83" y="-57.2" font-family="Times,serif" font-size="14.00">isEastOf</text>
</g>
<!-- idPlayer -->
<g id="node17" class="node">
<title>idPlayer</title>
<ellipse fill="none" stroke="black" cx="1806.58" cy="-18" rx="41.63" ry="18"/>
<text text-anchor="middle" x="1806.58" y="-12.95" font-family="Times,serif" font-size="14.00">idPlayer</text>
</g>
<!-- idWhistle1&#45;&gt;idPlayer -->
<g id="edge17" class="edge">
<title>idWhistle1&#45;&gt;idPlayer</title>
<path fill="none" stroke="black" d="M1485.16,-102.3C1536.23,-98.16 1616.98,-89.15 1684.58,-70.5 1714.64,-62.21 1747.09,-48.24 1770.96,-36.95"/>
<polygon fill="black" stroke="black" points="1772.14,-39.79 1779.64,-32.3 1769.11,-33.48 1772.14,-39.79"/>
<text text-anchor="middle" x="1752.83" y="-57.2" font-family="Times,serif" font-size="14.00">isEastOf</text>
</g>
<!-- idPlayerBackside -->
<g id="node18" class="node">
<title>idPlayerBackside</title>
<ellipse fill="none" stroke="black" cx="1941.58" cy="-18" rx="75.41" ry="18"/>
<text text-anchor="middle" x="1941.58" y="-12.95" font-family="Times,serif" font-size="14.00">idPlayerBackside</text>
</g>
<!-- idWhistle1&#45;&gt;idPlayerBackside -->
<g id="edge18" class="edge">
<title>idWhistle1&#45;&gt;idPlayerBackside</title>
<path fill="none" stroke="black" d="M1486.23,-103.59C1554.14,-100.32 1676.86,-91.8 1779.58,-70.5 1818.26,-62.48 1860.79,-48.76 1892.56,-37.5"/>
<polygon fill="black" stroke="black" points="1893.67,-40.46 1901.9,-33.79 1891.31,-33.88 1893.67,-40.46"/>
<text text-anchor="middle" x="1861.83" y="-57.2" font-family="Times,serif" font-size="14.00">isEastOf</text>
</g>
<!-- idPlayerLeftHand -->
<g id="node19" class="node">
<title>idPlayerLeftHand</title>
<ellipse fill="none" stroke="black" cx="2111.58" cy="-18" rx="76.94" ry="18"/>
<text text-anchor="middle" x="2111.58" y="-12.95" font-family="Times,serif" font-size="14.00">idPlayerLeftHand</text>
</g>
<!-- idWhistle1&#45;&gt;idPlayerLeftHand -->
<g id="edge19" class="edge">
<title>idWhistle1&#45;&gt;idPlayerLeftHand</title>
<path fill="none" stroke="black" d="M1486.27,-104.04C1570.83,-101.08 1743.82,-92.67 1888.58,-70.5 1944.94,-61.87 2008.18,-46.73 2052.88,-35.1"/>
<polygon fill="black" stroke="black" points="2053.48,-38.3 2062.26,-32.37 2051.7,-31.53 2053.48,-38.3"/>
<text text-anchor="middle" x="1992.83" y="-57.2" font-family="Times,serif" font-size="14.00">isEastOf</text>
</g>
<!-- idPlayerRightHand -->
<g id="node20" class="node">
<title>idPlayerRightHand</title>
<ellipse fill="none" stroke="black" cx="2288.58" cy="-18" rx="82.06" ry="18"/>
<text text-anchor="middle" x="2288.58" y="-12.95" font-family="Times,serif" font-size="14.00">idPlayerRightHand</text>
</g>
<!-- idWhistle1&#45;&gt;idPlayerRightHand -->
<g id="edge20" class="edge">
<title>idWhistle1&#45;&gt;idPlayerRightHand</title>
<path fill="none" stroke="black" d="M1486.43,-104.65C1588.76,-102.47 1823.72,-95 2019.58,-70.5 2089.58,-61.74 2168.79,-45.84 2223.03,-34.01"/>
<polygon fill="black" stroke="black" points="2223.51,-37.27 2232.53,-31.71 2222.01,-30.43 2223.51,-37.27"/>
<text text-anchor="middle" x="2147.83" y="-57.2" font-family="Times,serif" font-size="14.00">isEastOf</text>
</g>
<!-- idSmoke1 -->
<g id="node21" class="node">
<title>idSmoke1</title>
<ellipse fill="none" stroke="black" cx="2437.58" cy="-18" rx="48.79" ry="18"/>
<text text-anchor="middle" x="2437.58" y="-12.95" font-family="Times,serif" font-size="14.00">idSmoke1</text>
</g>
<!-- idWhistle1&#45;&gt;idSmoke1 -->
<g id="edge21" class="edge">
<title>idWhistle1&#45;&gt;idSmoke1</title>
<path fill="none" stroke="black" d="M1486.78,-105.17C1607.95,-103.94 1917.54,-98.11 2174.58,-70.5 2266.44,-60.63 2289.54,-56.7 2379.58,-36 2383.22,-35.16 2386.97,-34.23 2390.72,-33.25"/>
<polygon fill="black" stroke="black" points="2391.52,-36.38 2400.24,-30.36 2389.67,-29.63 2391.52,-36.38"/>
<text text-anchor="middle" x="2318.83" y="-57.2" font-family="Times,serif" font-size="14.00">isEastOf</text>
</g>
<!-- idSpill1 -->
<g id="node22" class="node">
<title>idSpill1</title>
<ellipse fill="none" stroke="black" cx="2544.58" cy="-18" rx="40.09" ry="18"/>
<text text-anchor="middle" x="2544.58" y="-12.95" font-family="Times,serif" font-size="14.00">idSpill1</text>
</g>
<!-- idWhistle1&#45;&gt;idSpill1 -->
<g id="edge22" class="edge">
<title>idWhistle1&#45;&gt;idSpill1</title>
<path fill="none" stroke="black" d="M1486.54,-104.79C1653.9,-102.28 2177.7,-92.83 2345.58,-70.5 2413.39,-61.48 2429.84,-54.91 2495.58,-36 2498.32,-35.21 2501.14,-34.36 2503.97,-33.46"/>
<polygon fill="black" stroke="black" points="2504.75,-36.56 2513.16,-30.12 2502.57,-29.91 2504.75,-36.56"/>
<text text-anchor="middle" x="2454.83" y="-57.2" font-family="Times,serif" font-size="14.00">isEastOf</text>
</g>
<!-- idTaillight1 -->
<g id="node23" class="node">
<title>idTaillight1</title>
<ellipse fill="none" stroke="black" cx="2657.58" cy="-18" rx="54.42" ry="18"/>
<text text-anchor="middle" x="2657.58" y="-12.95" font-family="Times,serif" font-size="14.00">idTaillight1</text>
</g>
<!-- idWhistle1&#45;&gt;idTaillight1 -->
<g id="edge23" class="edge">
<title>idWhistle1&#45;&gt;idTaillight1</title>
<path fill="none" stroke="black" d="M1486.83,-105.49C1670.63,-105.17 2286.85,-101.73 2481.58,-70.5 2527.07,-63.2 2577.37,-47.7 2612.51,-35.6"/>
<polygon fill="black" stroke="black" points="2613.16,-38.73 2621.45,-32.13 2610.86,-32.12 2613.16,-38.73"/>
<text text-anchor="middle" x="2573.83" y="-57.2" font-family="Times,serif" font-size="14.00">isEastOf</text>
</g>
<!-- idTire1 -->
<g id="node24" class="node">
<title>idTire1</title>
<ellipse fill="none" stroke="black" cx="2767.58" cy="-18" rx="38.04" ry="18"/>
<text text-anchor="middle" x="2767.58" y="-12.95" font-family="Times,serif" font-size="14.00">idTire1</text>
</g>
<!-- idWhistle1&#45;&gt;idTire1 -->
<g id="edge24" class="edge">
<title>idWhistle1&#45;&gt;idTire1</title>
<path fill="none" stroke="black" d="M1486.88,-105.66C1683.94,-106.01 2381.48,-104.73 2600.58,-70.5 2645.75,-63.44 2695.61,-46.85 2728.98,-34.39"/>
<polygon fill="black" stroke="black" points="2730.11,-37.33 2738.21,-30.51 2727.62,-30.79 2730.11,-37.33"/>
<text text-anchor="middle" x="2693.83" y="-57.2" font-family="Times,serif" font-size="14.00">isEastOf</text>
</g>
<!-- idTrunk1 -->
<g id="node25" class="node">
<title>idTrunk1</title>
<ellipse fill="none" stroke="black" cx="2868.58" cy="-18" rx="45.21" ry="18"/>
<text text-anchor="middle" x="2868.58" y="-12.95" font-family="Times,serif" font-size="14.00">idTrunk1</text>
</g>
<!-- idWhistle1&#45;&gt;idTrunk1 -->
<g id="edge25" class="edge">
<title>idWhistle1&#45;&gt;idTrunk1</title>
<path fill="none" stroke="black" d="M1486.69,-105.03C1712.19,-102.85 2598.03,-92.93 2720.58,-70.5 2758.76,-63.51 2800.36,-48.32 2829.7,-36.23"/>
<polygon fill="black" stroke="black" points="2830.67,-39.2 2838.54,-32.11 2827.96,-32.74 2830.67,-39.2"/>
<text text-anchor="middle" x="2802.83" y="-57.2" font-family="Times,serif" font-size="14.00">isEastOf</text>
</g>
</g>
</svg>
