<?xml version="1.0" encoding="UTF-8" standalone="no"?>
<!DOCTYPE svg PUBLIC "-//W3C//DTD SVG 1.1//EN"
 "http://www.w3.org/Graphics/SVG/1.1/DTD/svg11.dtd">
<!-- Generated by graphviz version 8.1.0 (20230707.0739)
 -->
<!-- Pages: 1 -->
<svg width="1785pt" height="133pt"
 viewBox="0.00 0.00 1784.80 132.50" xmlns="http://www.w3.org/2000/svg" xmlns:xlink="http://www.w3.org/1999/xlink">
<g id="graph0" class="graph" transform="scale(1 1) rotate(0) translate(4 128.5)">
<polygon fill="white" stroke="none" points="-4,4 -4,-128.5 1780.8,-128.5 1780.8,4 -4,4"/>
<!-- idWindow1 -->
<g id="node1" class="node">
<title>idWindow1</title>
<ellipse fill="none" stroke="black" cx="838.3" cy="-106.5" rx="54.42" ry="18"/>
<text text-anchor="middle" x="838.3" y="-101.45" font-family="Times,serif" font-size="14.00">idWindow1</text>
</g>
<!-- dark -->
<g id="node2" class="node">
<title>dark</title>
<ellipse fill="none" stroke="black" cx="27.3" cy="-18" rx="27.3" ry="18"/>
<text text-anchor="middle" x="27.3" y="-12.95" font-family="Times,serif" font-size="14.00">dark</text>
</g>
<!-- idWindow1&#45;&gt;dark -->
<g id="edge1" class="edge">
<title>idWindow1&#45;&gt;dark</title>
<path fill="none" stroke="black" d="M783.57,-105.82C617.26,-106.41 125.34,-105.17 62.8,-70.5 52.72,-64.91 44.89,-55.11 39.19,-45.54"/>
<polygon fill="black" stroke="black" points="41.8,-44.01 34,-36.84 35.63,-47.31 41.8,-44.01"/>
<text text-anchor="middle" x="148.05" y="-57.2" font-family="Times,serif" font-size="14.00">idWindow1_prop_idDescriptor</text>
</g>
<!-- tinted -->
<g id="node3" class="node">
<title>tinted</title>
<ellipse fill="none" stroke="black" cx="220.3" cy="-18" rx="31.9" ry="18"/>
<text text-anchor="middle" x="220.3" y="-12.95" font-family="Times,serif" font-size="14.00">tinted</text>
</g>
<!-- idWindow1&#45;&gt;tinted -->
<g id="edge2" class="edge">
<title>idWindow1&#45;&gt;tinted</title>
<path fill="none" stroke="black" d="M783.64,-105.07C646.8,-103.61 297.23,-97.26 252.3,-70.5 242.87,-64.88 235.81,-55.3 230.76,-45.91"/>
<polygon fill="black" stroke="black" points="233.5,-44.52 226.04,-36.99 227.17,-47.53 233.5,-44.52"/>
<text text-anchor="middle" x="343.8" y="-57.2" font-family="Times,serif" font-size="14.00">idWindow1_prop_idDescriptor_1</text>
</g>
<!-- intact -->
<g id="node4" class="node">
<title>intact</title>
<ellipse fill="none" stroke="black" cx="426.3" cy="-18" rx="31.39" ry="18"/>
<text text-anchor="middle" x="426.3" y="-12.95" font-family="Times,serif" font-size="14.00">intact</text>
</g>
<!-- idWindow1&#45;&gt;intact -->
<g id="edge3" class="edge">
<title>idWindow1&#45;&gt;intact</title>
<path fill="none" stroke="black" d="M784.33,-103.44C684.84,-99.22 480.18,-88.47 453.3,-70.5 444.76,-64.79 438.74,-55.49 434.59,-46.35"/>
<polygon fill="black" stroke="black" points="437.57,-45.34 430.67,-37.3 431.05,-47.89 437.57,-45.34"/>
<text text-anchor="middle" x="544.8" y="-57.2" font-family="Times,serif" font-size="14.00">idWindow1_prop_idDescriptor_2</text>
</g>
<!-- unbroken -->
<g id="node5" class="node">
<title>unbroken</title>
<ellipse fill="none" stroke="black" cx="632.3" cy="-18" rx="45.72" ry="18"/>
<text text-anchor="middle" x="632.3" y="-12.95" font-family="Times,serif" font-size="14.00">unbroken</text>
</g>
<!-- idWindow1&#45;&gt;unbroken -->
<g id="edge4" class="edge">
<title>idWindow1&#45;&gt;unbroken</title>
<path fill="none" stroke="black" d="M785.83,-101.44C737.79,-96.72 671.23,-87.33 651.3,-70.5 644.15,-64.47 639.69,-55.5 636.91,-46.72"/>
<polygon fill="black" stroke="black" points="640.13,-46.17 634.28,-37.33 633.34,-47.88 640.13,-46.17"/>
<text text-anchor="middle" x="742.8" y="-57.2" font-family="Times,serif" font-size="14.00">idWindow1_prop_idDescriptor_3</text>
</g>
<!-- cracked -->
<g id="node6" class="node">
<title>cracked</title>
<ellipse fill="none" stroke="black" cx="838.3" cy="-18" rx="39.58" ry="18"/>
<text text-anchor="middle" x="838.3" y="-12.95" font-family="Times,serif" font-size="14.00">cracked</text>
</g>
<!-- idWindow1&#45;&gt;cracked -->
<g id="edge5" class="edge">
<title>idWindow1&#45;&gt;cracked</title>
<path fill="none" stroke="black" d="M838.3,-88.41C838.3,-76.64 838.3,-60.73 838.3,-47.11"/>
<polygon fill="black" stroke="black" points="841.8,-47.35 838.3,-37.35 834.8,-47.35 841.8,-47.35"/>
<text text-anchor="middle" x="929.8" y="-57.2" font-family="Times,serif" font-size="14.00">idWindow1_prop_idDescriptor_4</text>
</g>
<!-- visible -->
<g id="node7" class="node">
<title>visible</title>
<ellipse fill="none" stroke="black" cx="1044.3" cy="-18" rx="35.49" ry="18"/>
<text text-anchor="middle" x="1044.3" y="-12.95" font-family="Times,serif" font-size="14.00">visible</text>
</g>
<!-- idWindow1&#45;&gt;visible -->
<g id="edge6" class="edge">
<title>idWindow1&#45;&gt;visible</title>
<path fill="none" stroke="black" d="M890.64,-101.02C937.71,-96.04 1002.41,-86.5 1022.3,-70.5 1029.73,-64.52 1034.7,-55.56 1037.99,-46.78"/>
<polygon fill="black" stroke="black" points="1041.6,-47.97 1041.25,-37.38 1034.92,-45.88 1041.6,-47.97"/>
<text text-anchor="middle" x="1125.8" y="-57.2" font-family="Times,serif" font-size="14.00">idWindow1_prop_idDescriptor_5</text>
</g>
<!-- idDriver -->
<g id="node8" class="node">
<title>idDriver</title>
<ellipse fill="none" stroke="black" cx="1250.3" cy="-18" rx="42.14" ry="18"/>
<text text-anchor="middle" x="1250.3" y="-12.95" font-family="Times,serif" font-size="14.00">idDriver</text>
</g>
<!-- idWindow1&#45;&gt;idDriver -->
<g id="edge7" class="edge">
<title>idWindow1&#45;&gt;idDriver</title>
<path fill="none" stroke="black" d="M892.32,-103.33C991.35,-98.95 1194.32,-87.96 1221.3,-70.5 1230.06,-64.83 1236.44,-55.53 1240.94,-46.39"/>
<polygon fill="black" stroke="black" points="1244.53,-47.9 1245.26,-37.33 1238.1,-45.14 1244.53,-47.9"/>
<text text-anchor="middle" x="1315.3" y="-57.2" font-family="Times,serif" font-size="14.00">idWindow1_prop_idCarSide</text>
</g>
<!-- idDriver1 -->
<g id="node9" class="node">
<title>idDriver1</title>
<ellipse fill="none" stroke="black" cx="1429.3" cy="-18" rx="46.75" ry="18"/>
<text text-anchor="middle" x="1429.3" y="-12.95" font-family="Times,serif" font-size="14.00">idDriver1</text>
</g>
<!-- idWindow1&#45;&gt;idDriver1 -->
<g id="edge8" class="edge">
<title>idWindow1&#45;&gt;idDriver1</title>
<path fill="none" stroke="black" d="M892.85,-104.9C1025.03,-103.06 1354.73,-95.94 1397.3,-70.5 1406.65,-64.91 1413.68,-55.41 1418.72,-46.09"/>
<polygon fill="black" stroke="black" points="1422.28,-47.76 1423.44,-37.23 1415.97,-44.74 1422.28,-47.76"/>
<text text-anchor="middle" x="1497.92" y="-57.2" font-family="Times,serif" font-size="14.00">idWindow1_prop_idOwnedBy</text>
</g>
<!-- yes -->
<g id="node10" class="node">
<title>yes</title>
<ellipse fill="none" stroke="black" cx="1619.3" cy="-18" rx="27" ry="18"/>
<text text-anchor="middle" x="1619.3" y="-12.95" font-family="Times,serif" font-size="14.00">yes</text>
</g>
<!-- idWindow1&#45;&gt;yes -->
<g id="edge9" class="edge">
<title>idWindow1&#45;&gt;yes</title>
<path fill="none" stroke="black" d="M893.04,-105.77C1055.23,-106.18 1525.66,-104.41 1585.3,-70.5 1595.18,-64.88 1602.71,-55.07 1608.15,-45.51"/>
<polygon fill="black" stroke="black" points="1611.66,-47.32 1613.06,-36.82 1605.41,-44.15 1611.66,-47.32"/>
<text text-anchor="middle" x="1689.05" y="-57.2" font-family="Times,serif" font-size="14.00">idWindow1_prop_idImmovable</text>
</g>
</g>
</svg>
