<?xml version="1.0" encoding="UTF-8" standalone="no"?>
<!DOCTYPE svg PUBLIC "-//W3C//DTD SVG 1.1//EN"
 "http://www.w3.org/Graphics/SVG/1.1/DTD/svg11.dtd">
<!-- Generated by graphviz version 8.1.0 (20230707.0739)
 -->
<!-- Pages: 1 -->
<svg width="544pt" height="221pt"
 viewBox="0.00 0.00 544.24 221.00" xmlns="http://www.w3.org/2000/svg" xmlns:xlink="http://www.w3.org/1999/xlink">
<g id="graph0" class="graph" transform="scale(1 1) rotate(0) translate(4 217)">
<polygon fill="white" stroke="none" points="-4,4 -4,-217 540.24,-217 540.24,4 -4,4"/>
<!-- idDesk1 -->
<g id="node1" class="node">
<title>idDesk1</title>
<ellipse fill="none" stroke="black" cx="199" cy="-195" rx="41.63" ry="18"/>
<text text-anchor="middle" x="199" y="-189.95" font-family="Times,serif" font-size="14.00">idDesk1</text>
</g>
<!-- yes -->
<g id="node2" class="node">
<title>yes</title>
<ellipse fill="none" stroke="black" cx="27" cy="-106.5" rx="27" ry="18"/>
<text text-anchor="middle" x="27" y="-101.45" font-family="Times,serif" font-size="14.00">yes</text>
</g>
<!-- idDesk1&#45;&gt;yes -->
<g id="edge1" class="edge">
<title>idDesk1&#45;&gt;yes</title>
<path fill="none" stroke="black" d="M157.72,-191.31C112.59,-187.43 44.51,-178.44 28.25,-159 22.82,-152.51 21.24,-143.79 21.39,-135.37"/>
<polygon fill="black" stroke="black" points="24.95,-135.98 22.42,-125.69 17.98,-135.31 24.95,-135.98"/>
<text text-anchor="middle" x="107.38" y="-145.7" font-family="Times,serif" font-size="14.00">idDesk1_prop_idImmovable</text>
</g>
<!-- true -->
<g id="node3" class="node">
<title>true</title>
<ellipse fill="none" stroke="black" cx="216" cy="-18" rx="27" ry="18"/>
<text text-anchor="middle" x="216" y="-12.95" font-family="Times,serif" font-size="14.00">true</text>
</g>
<!-- idDesk1&#45;&gt;true -->
<g id="edge2" class="edge">
<title>idDesk1&#45;&gt;true</title>
<path fill="none" stroke="black" d="M200.31,-176.81C201.94,-155.91 204.88,-119.59 208,-88.5 209.36,-74.9 211.07,-59.82 212.56,-47.2"/>
<polygon fill="black" stroke="black" points="216.14,-47.75 213.85,-37.41 209.19,-46.92 216.14,-47.75"/>
<text text-anchor="middle" x="299.5" y="-101.45" font-family="Times,serif" font-size="14.00">idDesk1_prop_idUnknownObject</text>
</g>
<!-- idGameRoom1 -->
<g id="node4" class="node">
<title>idGameRoom1</title>
<ellipse fill="none" stroke="black" cx="468" cy="-106.5" rx="68.24" ry="18"/>
<text text-anchor="middle" x="468" y="-101.45" font-family="Times,serif" font-size="14.00">idGameRoom1</text>
</g>
<!-- idDesk1&#45;&gt;idGameRoom1 -->
<g id="edge3" class="edge">
<title>idDesk1&#45;&gt;idGameRoom1</title>
<path fill="none" stroke="black" d="M231.72,-183.48C277.49,-168.76 361.15,-141.86 415.64,-124.34"/>
<polygon fill="black" stroke="black" points="416.35,-127.46 424.8,-121.07 414.21,-120.8 416.35,-127.46"/>
<text text-anchor="middle" x="384.38" y="-145.7" font-family="Times,serif" font-size="14.00">isSouthOf</text>
</g>
<!-- idGameRoom1&#45;&gt;true -->
<g id="edge4" class="edge">
<title>idGameRoom1&#45;&gt;true</title>
<path fill="none" stroke="black" d="M416.94,-94.28C406.72,-92.21 396.04,-90.18 386,-88.5 354.85,-83.29 271.2,-88.14 245,-70.5 236.12,-64.52 229.67,-54.87 225.13,-45.53"/>
<polygon fill="black" stroke="black" points="228.08,-44.53 220.94,-36.7 221.64,-47.27 228.08,-44.53"/>
<text text-anchor="middle" x="356" y="-57.2" font-family="Times,serif" font-size="14.00">idGameRoom1_prop_idUnknownObject</text>
</g>
<!-- idPlayer -->
<g id="node5" class="node">
<title>idPlayer</title>
<ellipse fill="none" stroke="black" cx="477" cy="-18" rx="41.63" ry="18"/>
<text text-anchor="middle" x="477" y="-12.95" font-family="Times,serif" font-size="14.00">idPlayer</text>
</g>
<!-- idGameRoom1&#45;&gt;idPlayer -->
<g id="edge5" class="edge">
<title>idGameRoom1&#45;&gt;idPlayer</title>
<path fill="none" stroke="black" d="M469.78,-88.41C471,-76.64 472.66,-60.73 474.08,-47.11"/>
<polygon fill="black" stroke="black" points="477.64,-47.66 475.19,-37.35 470.68,-46.93 477.64,-47.66"/>
<text text-anchor="middle" x="500.38" y="-57.2" font-family="Times,serif" font-size="14.00">isNorthOf</text>
</g>
</g>
</svg>
