<?xml version="1.0" encoding="UTF-8" standalone="no"?>
<!DOCTYPE svg PUBLIC "-//W3C//DTD SVG 1.1//EN"
 "http://www.w3.org/Graphics/SVG/1.1/DTD/svg11.dtd">
<!-- Generated by graphviz version 8.1.0 (20230707.0739)
 -->
<!-- Pages: 1 -->
<svg width="698pt" height="221pt"
 viewBox="0.00 0.00 698.34 221.00" xmlns="http://www.w3.org/2000/svg" xmlns:xlink="http://www.w3.org/1999/xlink">
<g id="graph0" class="graph" transform="scale(1 1) rotate(0) translate(4 217)">
<polygon fill="white" stroke="none" points="-4,4 -4,-217 694.34,-217 694.34,4 -4,4"/>
<!-- idDrawer1 -->
<g id="node1" class="node">
<title>idDrawer1</title>
<ellipse fill="none" stroke="black" cx="283" cy="-195" rx="50.33" ry="18"/>
<text text-anchor="middle" x="283" y="-189.95" font-family="Times,serif" font-size="14.00">idDrawer1</text>
</g>
<!-- closed -->
<g id="node2" class="node">
<title>closed</title>
<ellipse fill="none" stroke="black" cx="97" cy="-106.5" rx="34.46" ry="18"/>
<text text-anchor="middle" x="97" y="-101.45" font-family="Times,serif" font-size="14.00">closed</text>
</g>
<!-- idDrawer1&#45;&gt;closed -->
<g id="edge1" class="edge">
<title>idDrawer1&#45;&gt;closed</title>
<path fill="none" stroke="black" d="M233.24,-191.77C183.39,-188.36 111.62,-179.88 94.25,-159 88.84,-152.49 87.8,-143.76 88.64,-135.34"/>
<polygon fill="black" stroke="black" points="92.24,-136.14 90.62,-125.67 85.36,-134.86 92.24,-136.14"/>
<text text-anchor="middle" x="176.38" y="-145.7" font-family="Times,serif" font-size="14.00">idDrawer1_prop_idOpenState</text>
</g>
<!-- idKeyBlue -->
<g id="node3" class="node">
<title>idKeyBlue</title>
<ellipse fill="none" stroke="black" cx="241" cy="-106.5" rx="50.84" ry="18"/>
<text text-anchor="middle" x="241" y="-101.45" font-family="Times,serif" font-size="14.00">idKeyBlue</text>
</g>
<!-- idDrawer1&#45;&gt;idKeyBlue -->
<g id="edge2" class="edge">
<title>idDrawer1&#45;&gt;idKeyBlue</title>
<path fill="none" stroke="black" d="M276.35,-177.08C272.21,-166.92 266.63,-153.82 261,-142.5 259.6,-139.68 258.07,-136.77 256.51,-133.89"/>
<polygon fill="black" stroke="black" points="259.11,-132.38 251.17,-125.38 253.01,-135.81 259.11,-132.38"/>
<text text-anchor="middle" x="295.62" y="-145.7" font-family="Times,serif" font-size="14.00">isBeneath</text>
</g>
<!-- idTutorialRoom1FrontOpening -->
<g id="node6" class="node">
<title>idTutorialRoom1FrontOpening</title>
<ellipse fill="none" stroke="black" cx="543" cy="-106.5" rx="127.1" ry="18"/>
<text text-anchor="middle" x="543" y="-101.45" font-family="Times,serif" font-size="14.00">idTutorialRoom1FrontOpening</text>
</g>
<!-- idDrawer1&#45;&gt;idTutorialRoom1FrontOpening -->
<g id="edge3" class="edge">
<title>idDrawer1&#45;&gt;idTutorialRoom1FrontOpening</title>
<path fill="none" stroke="black" d="M318.88,-182.06C361.63,-167.84 433.64,-143.88 484.48,-126.97"/>
<polygon fill="black" stroke="black" points="485.29,-130.06 493.67,-123.58 483.08,-123.41 485.29,-130.06"/>
<text text-anchor="middle" x="463.38" y="-145.7" font-family="Times,serif" font-size="14.00">isSouthOf</text>
</g>
<!-- blue -->
<g id="node4" class="node">
<title>blue</title>
<ellipse fill="none" stroke="black" cx="27" cy="-18" rx="27" ry="18"/>
<text text-anchor="middle" x="27" y="-12.95" font-family="Times,serif" font-size="14.00">blue</text>
</g>
<!-- idKeyBlue&#45;&gt;blue -->
<g id="edge4" class="edge">
<title>idKeyBlue&#45;&gt;blue</title>
<path fill="none" stroke="black" d="M195.99,-97.84C138.02,-87.93 44.44,-71.77 43,-70.5 36.18,-64.49 32.24,-55.64 29.96,-46.97"/>
<polygon fill="black" stroke="black" points="33.23,-46.44 27.89,-37.29 26.36,-47.78 33.23,-46.44"/>
<text text-anchor="middle" x="112" y="-57.2" font-family="Times,serif" font-size="14.00">idKeyBlue_prop_idColor</text>
</g>
<!-- true -->
<g id="node5" class="node">
<title>true</title>
<ellipse fill="none" stroke="black" cx="188" cy="-18" rx="27" ry="18"/>
<text text-anchor="middle" x="188" y="-12.95" font-family="Times,serif" font-size="14.00">true</text>
</g>
<!-- idKeyBlue&#45;&gt;true -->
<g id="edge5" class="edge">
<title>idKeyBlue&#45;&gt;true</title>
<path fill="none" stroke="black" d="M210.83,-91.72C202.45,-86.35 194.33,-79.32 189.5,-70.5 185.64,-63.46 184.3,-55.03 184.19,-47.05"/>
<polygon fill="black" stroke="black" points="187.73,-47.41 184.72,-37.26 180.74,-47.07 187.73,-47.41"/>
<text text-anchor="middle" x="288.25" y="-57.2" font-family="Times,serif" font-size="14.00">idKeyBlue_prop_idUnknownObject</text>
</g>
<!-- idTutorialRoom1 -->
<g id="node7" class="node">
<title>idTutorialRoom1</title>
<ellipse fill="none" stroke="black" cx="408" cy="-18" rx="75.41" ry="18"/>
<text text-anchor="middle" x="408" y="-12.95" font-family="Times,serif" font-size="14.00">idTutorialRoom1</text>
</g>
<!-- idKeyBlue&#45;&gt;idTutorialRoom1 -->
<g id="edge6" class="edge">
<title>idKeyBlue&#45;&gt;idTutorialRoom1</title>
<path fill="none" stroke="black" d="M291.73,-104.36C322.16,-101.19 359.9,-92.57 386,-70.5 393.28,-64.34 398.22,-55.34 401.53,-46.58"/>
<polygon fill="black" stroke="black" points="405.13,-47.81 404.82,-37.22 398.46,-45.69 405.13,-47.81"/>
<text text-anchor="middle" x="415.62" y="-57.2" font-family="Times,serif" font-size="14.00">isNear</text>
</g>
<!-- idTutorialRoom1Door -->
<g id="node8" class="node">
<title>idTutorialRoom1Door</title>
<ellipse fill="none" stroke="black" cx="596" cy="-18" rx="94.34" ry="18"/>
<text text-anchor="middle" x="596" y="-12.95" font-family="Times,serif" font-size="14.00">idTutorialRoom1Door</text>
</g>
<!-- idTutorialRoom1FrontOpening&#45;&gt;idTutorialRoom1Door -->
<g id="edge7" class="edge">
<title>idTutorialRoom1FrontOpening&#45;&gt;idTutorialRoom1Door</title>
<path fill="none" stroke="black" d="M553.47,-88.41C560.97,-76.17 571.22,-59.45 579.77,-45.49"/>
<polygon fill="black" stroke="black" points="583.13,-47.71 585.37,-37.35 577.16,-44.05 583.13,-47.71"/>
<text text-anchor="middle" x="601.38" y="-57.2" font-family="Times,serif" font-size="14.00">isSouthOf</text>
</g>
</g>
</svg>
