<?xml version="1.0" encoding="UTF-8" standalone="no"?>
<!DOCTYPE svg PUBLIC "-//W3C//DTD SVG 1.1//EN"
 "http://www.w3.org/Graphics/SVG/1.1/DTD/svg11.dtd">
<!-- Generated by graphviz version 8.1.0 (20230707.0739)
 -->
<!-- Pages: 1 -->
<svg width="407pt" height="133pt"
 viewBox="0.00 0.00 407.10 132.50" xmlns="http://www.w3.org/2000/svg" xmlns:xlink="http://www.w3.org/1999/xlink">
<g id="graph0" class="graph" transform="scale(1 1) rotate(0) translate(4 128.5)">
<polygon fill="white" stroke="none" points="-4,4 -4,-128.5 403.1,-128.5 403.1,4 -4,4"/>
<!-- idGameRoom1 -->
<g id="node1" class="node">
<title>idGameRoom1</title>
<ellipse fill="none" stroke="black" cx="149" cy="-106.5" rx="68.24" ry="18"/>
<text text-anchor="middle" x="149" y="-101.45" font-family="Times,serif" font-size="14.00">idGameRoom1</text>
</g>
<!-- true -->
<g id="node2" class="node">
<title>true</title>
<ellipse fill="none" stroke="black" cx="27" cy="-18" rx="27" ry="18"/>
<text text-anchor="middle" x="27" y="-12.95" font-family="Times,serif" font-size="14.00">true</text>
</g>
<!-- idGameRoom1&#45;&gt;true -->
<g id="edge1" class="edge">
<title>idGameRoom1&#45;&gt;true</title>
<path fill="none" stroke="black" d="M83.16,-101.54C62.26,-96.8 41.18,-87.68 28,-70.5 22.91,-63.87 21.41,-55.21 21.55,-46.89"/>
<polygon fill="black" stroke="black" points="25.12,-47.26 22.57,-36.98 18.15,-46.61 25.12,-47.26"/>
<text text-anchor="middle" x="139" y="-57.2" font-family="Times,serif" font-size="14.00">idGameRoom1_prop_idUnknownObject</text>
</g>
<!-- idTutorialRoom1FrontOpening -->
<g id="node3" class="node">
<title>idTutorialRoom1FrontOpening</title>
<ellipse fill="none" stroke="black" cx="272" cy="-18" rx="127.1" ry="18"/>
<text text-anchor="middle" x="272" y="-12.95" font-family="Times,serif" font-size="14.00">idTutorialRoom1FrontOpening</text>
</g>
<!-- idGameRoom1&#45;&gt;idTutorialRoom1FrontOpening -->
<g id="edge2" class="edge">
<title>idGameRoom1&#45;&gt;idTutorialRoom1FrontOpening</title>
<path fill="none" stroke="black" d="M203.82,-95.48C220.23,-90.27 237.24,-82.39 250,-70.5 256.88,-64.09 261.7,-55.18 265.03,-46.56"/>
<polygon fill="black" stroke="black" points="268.58,-47.99 268.41,-37.4 261.94,-45.79 268.58,-47.99"/>
<text text-anchor="middle" x="288.38" y="-57.2" font-family="Times,serif" font-size="14.00">isNorthOf</text>
</g>
</g>
</svg>
