<?xml version="1.0" encoding="UTF-8" standalone="no"?>
<!DOCTYPE svg PUBLIC "-//W3C//DTD SVG 1.1//EN"
 "http://www.w3.org/Graphics/SVG/1.1/DTD/svg11.dtd">
<!-- Generated by graphviz version 8.1.0 (20230707.0739)
 -->
<!-- Pages: 1 -->
<svg width="381pt" height="133pt"
 viewBox="0.00 0.00 380.50 132.50" xmlns="http://www.w3.org/2000/svg" xmlns:xlink="http://www.w3.org/1999/xlink">
<g id="graph0" class="graph" transform="scale(1 1) rotate(0) translate(4 128.5)">
<polygon fill="white" stroke="none" points="-4,4 -4,-128.5 376.5,-128.5 376.5,4 -4,4"/>
<!-- idKeyBlue -->
<g id="node1" class="node">
<title>idKeyBlue</title>
<ellipse fill="none" stroke="black" cx="107" cy="-106.5" rx="50.84" ry="18"/>
<text text-anchor="middle" x="107" y="-101.45" font-family="Times,serif" font-size="14.00">idKeyBlue</text>
</g>
<!-- blue -->
<g id="node2" class="node">
<title>blue</title>
<ellipse fill="none" stroke="black" cx="27" cy="-18" rx="27" ry="18"/>
<text text-anchor="middle" x="27" y="-12.95" font-family="Times,serif" font-size="14.00">blue</text>
</g>
<!-- idKeyBlue&#45;&gt;blue -->
<g id="edge1" class="edge">
<title>idKeyBlue&#45;&gt;blue</title>
<path fill="none" stroke="black" d="M64.41,-96.42C50.45,-91.23 36.39,-83.12 28,-70.5 23.44,-63.64 22.03,-55.05 22.1,-46.86"/>
<polygon fill="black" stroke="black" points="25.65,-47.39 22.95,-37.14 18.67,-46.83 25.65,-47.39"/>
<text text-anchor="middle" x="97" y="-57.2" font-family="Times,serif" font-size="14.00">idKeyBlue_prop_idColor</text>
</g>
<!-- true -->
<g id="node3" class="node">
<title>true</title>
<ellipse fill="none" stroke="black" cx="188" cy="-18" rx="27" ry="18"/>
<text text-anchor="middle" x="188" y="-12.95" font-family="Times,serif" font-size="14.00">true</text>
</g>
<!-- idKeyBlue&#45;&gt;true -->
<g id="edge2" class="edge">
<title>idKeyBlue&#45;&gt;true</title>
<path fill="none" stroke="black" d="M138.2,-91.82C148.07,-86.32 158.39,-79.19 166,-70.5 172.13,-63.51 176.75,-54.55 180.13,-46.08"/>
<polygon fill="black" stroke="black" points="183.74,-47.38 183.77,-36.78 177.14,-45.04 183.74,-47.38"/>
<text text-anchor="middle" x="274.25" y="-57.2" font-family="Times,serif" font-size="14.00">idKeyBlue_prop_idUnknownObject</text>
</g>
</g>
</svg>
