<?xml version="1.0" encoding="UTF-8" standalone="no"?>
<!DOCTYPE svg PUBLIC "-//W3C//DTD SVG 1.1//EN"
 "http://www.w3.org/Graphics/SVG/1.1/DTD/svg11.dtd">
<!-- Generated by graphviz version 8.1.0 (20230707.0739)
 -->
<!-- Pages: 1 -->
<svg width="657pt" height="221pt"
 viewBox="0.00 0.00 656.67 221.00" xmlns="http://www.w3.org/2000/svg" xmlns:xlink="http://www.w3.org/1999/xlink">
<g id="graph0" class="graph" transform="scale(1 1) rotate(0) translate(4 217)">
<polygon fill="white" stroke="none" points="-4,4 -4,-217 652.67,-217 652.67,4 -4,4"/>
<!-- idPlayerLeftHand -->
<g id="node1" class="node">
<title>idPlayerLeftHand</title>
<ellipse fill="none" stroke="black" cx="162.42" cy="-195" rx="76.94" ry="18"/>
<text text-anchor="middle" x="162.42" y="-189.95" font-family="Times,serif" font-size="14.00">idPlayerLeftHand</text>
</g>
<!-- idLocalLeft -->
<g id="node2" class="node">
<title>idLocalLeft</title>
<ellipse fill="none" stroke="black" cx="54.42" cy="-106.5" rx="54.42" ry="18"/>
<text text-anchor="middle" x="54.42" y="-101.45" font-family="Times,serif" font-size="14.00">idLocalLeft</text>
</g>
<!-- idPlayerLeftHand&#45;&gt;idLocalLeft -->
<g id="edge1" class="edge">
<title>idPlayerLeftHand&#45;&gt;idLocalLeft</title>
<path fill="none" stroke="black" d="M96.04,-185.57C80.53,-180.37 65.7,-172.1 55.92,-159 50.99,-152.4 49.42,-143.88 49.42,-135.67"/>
<polygon fill="black" stroke="black" points="52.97,-136.13 50.23,-125.9 45.99,-135.6 52.97,-136.13"/>
<text text-anchor="middle" x="153.17" y="-145.7" font-family="Times,serif" font-size="14.00">idPlayerLeftHand_prop_idLocation</text>
</g>
<!-- idTutorialRoom1Door -->
<g id="node3" class="node">
<title>idTutorialRoom1Door</title>
<ellipse fill="none" stroke="black" cx="271.42" cy="-106.5" rx="94.34" ry="18"/>
<text text-anchor="middle" x="271.42" y="-101.45" font-family="Times,serif" font-size="14.00">idTutorialRoom1Door</text>
</g>
<!-- idPlayerLeftHand&#45;&gt;idTutorialRoom1Door -->
<g id="edge2" class="edge">
<title>idPlayerLeftHand&#45;&gt;idTutorialRoom1Door</title>
<path fill="none" stroke="black" d="M213.33,-181.15C226.32,-175.96 239.42,-168.79 249.42,-159 256.07,-152.5 260.82,-143.67 264.16,-135.15"/>
<polygon fill="black" stroke="black" points="267.79,-136.34 267.68,-125.74 261.16,-134.09 267.79,-136.34"/>
<text text-anchor="middle" x="287.8" y="-145.7" font-family="Times,serif" font-size="14.00">isSouthOf</text>
</g>
<!-- closed -->
<g id="node4" class="node">
<title>closed</title>
<ellipse fill="none" stroke="black" cx="146.42" cy="-18" rx="34.46" ry="18"/>
<text text-anchor="middle" x="146.42" y="-12.95" font-family="Times,serif" font-size="14.00">closed</text>
</g>
<!-- idTutorialRoom1Door&#45;&gt;closed -->
<g id="edge3" class="edge">
<title>idTutorialRoom1Door&#45;&gt;closed</title>
<path fill="none" stroke="black" d="M202.93,-93.71C178.25,-87.97 154.62,-80.18 147.17,-70.5 142.08,-63.87 140.6,-55.22 140.79,-46.9"/>
<polygon fill="black" stroke="black" points="144.36,-47.28 141.88,-36.98 137.4,-46.59 144.36,-47.28"/>
<text text-anchor="middle" x="261.05" y="-57.2" font-family="Times,serif" font-size="14.00">idTutorialRoom1Door_prop_idOpenState</text>
</g>
<!-- idTutorialRoom1DoorLock -->
<g id="node5" class="node">
<title>idTutorialRoom1DoorLock</title>
<ellipse fill="none" stroke="black" cx="396.42" cy="-18" rx="113.28" ry="18"/>
<text text-anchor="middle" x="396.42" y="-12.95" font-family="Times,serif" font-size="14.00">idTutorialRoom1DoorLock</text>
</g>
<!-- idTutorialRoom1Door&#45;&gt;idTutorialRoom1DoorLock -->
<g id="edge4" class="edge">
<title>idTutorialRoom1Door&#45;&gt;idTutorialRoom1DoorLock</title>
<path fill="none" stroke="black" d="M335.62,-92.89C349.66,-87.76 363.55,-80.58 374.42,-70.5 381.32,-64.11 386.14,-55.2 389.48,-46.59"/>
<polygon fill="black" stroke="black" points="393.03,-48.01 392.85,-37.41 386.38,-45.81 393.03,-48.01"/>
<text text-anchor="middle" x="517.05" y="-57.2" font-family="Times,serif" font-size="14.00">idTutorialRoom1Door_prop_idLockMechanism</text>
</g>
</g>
</svg>
