<?xml version="1.0" encoding="UTF-8" standalone="no"?>
<!DOCTYPE svg PUBLIC "-//W3C//DTD SVG 1.1//EN"
 "http://www.w3.org/Graphics/SVG/1.1/DTD/svg11.dtd">
<!-- Generated by graphviz version 8.1.0 (20230707.0739)
 -->
<!-- Pages: 1 -->
<svg width="490pt" height="221pt"
 viewBox="0.00 0.00 490.41 221.00" xmlns="http://www.w3.org/2000/svg" xmlns:xlink="http://www.w3.org/1999/xlink">
<g id="graph0" class="graph" transform="scale(1 1) rotate(0) translate(4 217)">
<polygon fill="white" stroke="none" points="-4,4 -4,-217 486.41,-217 486.41,4 -4,4"/>
<!-- idPlayerRightHand -->
<g id="node1" class="node">
<title>idPlayerRightHand</title>
<ellipse fill="none" stroke="black" cx="286" cy="-195" rx="82.06" ry="18"/>
<text text-anchor="middle" x="286" y="-189.95" font-family="Times,serif" font-size="14.00">idPlayerRightHand</text>
</g>
<!-- right -->
<g id="node2" class="node">
<title>right</title>
<ellipse fill="none" stroke="black" cx="62" cy="-106.5" rx="28.32" ry="18"/>
<text text-anchor="middle" x="62" y="-101.45" font-family="Times,serif" font-size="14.00">right</text>
</g>
<!-- idPlayerRightHand&#45;&gt;right -->
<g id="edge1" class="edge">
<title>idPlayerRightHand&#45;&gt;right</title>
<path fill="none" stroke="black" d="M206.41,-190.13C154.13,-185.9 92.02,-177.14 73,-159 66.65,-152.95 63.52,-144.2 62.08,-135.62"/>
<polygon fill="black" stroke="black" points="65.47,-135.31 61.04,-125.69 58.5,-135.98 65.47,-135.31"/>
<text text-anchor="middle" x="173.5" y="-145.7" font-family="Times,serif" font-size="14.00">idPlayerRightHand_prop_idLocation</text>
</g>
<!-- idGameRoom1 -->
<g id="node3" class="node">
<title>idGameRoom1</title>
<ellipse fill="none" stroke="black" cx="272" cy="-106.5" rx="68.24" ry="18"/>
<text text-anchor="middle" x="272" y="-101.45" font-family="Times,serif" font-size="14.00">idGameRoom1</text>
</g>
<!-- idPlayerRightHand&#45;&gt;idGameRoom1 -->
<g id="edge2" class="edge">
<title>idPlayerRightHand&#45;&gt;idGameRoom1</title>
<path fill="none" stroke="black" d="M283.23,-176.91C281.33,-165.14 278.75,-149.23 276.55,-135.61"/>
<polygon fill="black" stroke="black" points="279.86,-135.16 274.81,-125.85 272.95,-136.28 279.86,-135.16"/>
<text text-anchor="middle" x="308.38" y="-145.7" font-family="Times,serif" font-size="14.00">isSouthOf</text>
</g>
<!-- idPlayer -->
<g id="node5" class="node">
<title>idPlayer</title>
<ellipse fill="none" stroke="black" cx="403" cy="-106.5" rx="41.63" ry="18"/>
<text text-anchor="middle" x="403" y="-101.45" font-family="Times,serif" font-size="14.00">idPlayer</text>
</g>
<!-- idPlayerRightHand&#45;&gt;idPlayer -->
<g id="edge3" class="edge">
<title>idPlayerRightHand&#45;&gt;idPlayer</title>
<path fill="none" stroke="black" d="M312.48,-177.66C321.37,-171.96 331.24,-165.39 340,-159 352.34,-150 365.49,-139.42 376.57,-130.19"/>
<polygon fill="black" stroke="black" points="378.55,-132.26 383.95,-123.15 374.05,-126.9 378.55,-132.26"/>
<text text-anchor="middle" x="378.62" y="-145.7" font-family="Times,serif" font-size="14.00">isNear</text>
</g>
<!-- true -->
<g id="node4" class="node">
<title>true</title>
<ellipse fill="none" stroke="black" cx="27" cy="-18" rx="27" ry="18"/>
<text text-anchor="middle" x="27" y="-12.95" font-family="Times,serif" font-size="14.00">true</text>
</g>
<!-- idGameRoom1&#45;&gt;true -->
<g id="edge4" class="edge">
<title>idGameRoom1&#45;&gt;true</title>
<path fill="none" stroke="black" d="M209.15,-99.05C146.72,-92.13 58.52,-80.74 46,-70.5 38.76,-64.58 34.28,-55.63 31.51,-46.85"/>
<polygon fill="black" stroke="black" points="34.72,-46.28 28.9,-37.43 27.93,-47.98 34.72,-46.28"/>
<text text-anchor="middle" x="157" y="-57.2" font-family="Times,serif" font-size="14.00">idGameRoom1_prop_idUnknownObject</text>
</g>
<!-- idDesk1 -->
<g id="node6" class="node">
<title>idDesk1</title>
<ellipse fill="none" stroke="black" cx="272" cy="-18" rx="41.63" ry="18"/>
<text text-anchor="middle" x="272" y="-12.95" font-family="Times,serif" font-size="14.00">idDesk1</text>
</g>
<!-- idGameRoom1&#45;&gt;idDesk1 -->
<g id="edge5" class="edge">
<title>idGameRoom1&#45;&gt;idDesk1</title>
<path fill="none" stroke="black" d="M272,-88.41C272,-76.64 272,-60.73 272,-47.11"/>
<polygon fill="black" stroke="black" points="275.5,-47.35 272,-37.35 268.5,-47.35 275.5,-47.35"/>
<text text-anchor="middle" x="299.38" y="-57.2" font-family="Times,serif" font-size="14.00">isNorthOf</text>
</g>
<!-- idTutorialRoom1 -->
<g id="node7" class="node">
<title>idTutorialRoom1</title>
<ellipse fill="none" stroke="black" cx="407" cy="-18" rx="75.41" ry="18"/>
<text text-anchor="middle" x="407" y="-12.95" font-family="Times,serif" font-size="14.00">idTutorialRoom1</text>
</g>
<!-- idPlayer&#45;&gt;idTutorialRoom1 -->
<g id="edge6" class="edge">
<title>idPlayer&#45;&gt;idTutorialRoom1</title>
<path fill="none" stroke="black" d="M403.79,-88.41C404.33,-76.64 405.07,-60.73 405.7,-47.11"/>
<polygon fill="black" stroke="black" points="409.23,-47.5 406.2,-37.35 402.24,-47.18 409.23,-47.5"/>
<text text-anchor="middle" x="422.62" y="-57.2" font-family="Times,serif" font-size="14.00">isNear</text>
</g>
</g>
</svg>
