<?xml version="1.0" encoding="UTF-8" standalone="no"?>
<!DOCTYPE svg PUBLIC "-//W3C//DTD SVG 1.1//EN"
 "http://www.w3.org/Graphics/SVG/1.1/DTD/svg11.dtd">
<!-- Generated by graphviz version 8.1.0 (20230707.0739)
 -->
<!-- Pages: 1 -->
<svg width="262pt" height="133pt"
 viewBox="0.00 0.00 262.20 132.50" xmlns="http://www.w3.org/2000/svg" xmlns:xlink="http://www.w3.org/1999/xlink">
<g id="graph0" class="graph" transform="scale(1 1) rotate(0) translate(4 128.5)">
<polygon fill="white" stroke="none" points="-4,4 -4,-128.5 258.2,-128.5 258.2,4 -4,4"/>
<!-- idPlayer -->
<g id="node1" class="node">
<title>idPlayer</title>
<ellipse fill="none" stroke="black" cx="127.1" cy="-106.5" rx="41.63" ry="18"/>
<text text-anchor="middle" x="127.1" y="-101.45" font-family="Times,serif" font-size="14.00">idPlayer</text>
</g>
<!-- idPlayer&#45;&gt;idPlayer -->
<g id="edge1" class="edge">
<title>idPlayer&#45;&gt;idPlayer</title>
<path fill="none" stroke="black" d="M164.66,-114.8C176.94,-114.75 186.73,-111.99 186.73,-106.5 186.73,-102.73 182.1,-100.24 175.22,-99.04"/>
<polygon fill="black" stroke="black" points="175.9,-95.51 165.66,-98.2 175.35,-102.48 175.9,-95.51"/>
<text text-anchor="middle" x="204.35" y="-101.45" font-family="Times,serif" font-size="14.00">isNear</text>
</g>
<!-- idTutorialRoom1FrontOpening -->
<g id="node2" class="node">
<title>idTutorialRoom1FrontOpening</title>
<ellipse fill="none" stroke="black" cx="127.1" cy="-18" rx="127.1" ry="18"/>
<text text-anchor="middle" x="127.1" y="-12.95" font-family="Times,serif" font-size="14.00">idTutorialRoom1FrontOpening</text>
</g>
<!-- idPlayer&#45;&gt;idTutorialRoom1FrontOpening -->
<g id="edge2" class="edge">
<title>idPlayer&#45;&gt;idTutorialRoom1FrontOpening</title>
<path fill="none" stroke="black" d="M127.1,-88.41C127.1,-76.64 127.1,-60.73 127.1,-47.11"/>
<polygon fill="black" stroke="black" points="130.6,-47.35 127.1,-37.35 123.6,-47.35 130.6,-47.35"/>
<text text-anchor="middle" x="154.47" y="-57.2" font-family="Times,serif" font-size="14.00">isSouthOf</text>
</g>
</g>
</svg>
