<?xml version="1.0" encoding="UTF-8" standalone="no"?>
<!DOCTYPE svg PUBLIC "-//W3C//DTD SVG 1.1//EN"
 "http://www.w3.org/Graphics/SVG/1.1/DTD/svg11.dtd">
<!-- Generated by graphviz version 8.1.0 (20230707.0739)
 -->
<!-- Pages: 1 -->
<svg width="715pt" height="221pt"
 viewBox="0.00 0.00 714.75 221.00" xmlns="http://www.w3.org/2000/svg" xmlns:xlink="http://www.w3.org/1999/xlink">
<g id="graph0" class="graph" transform="scale(1 1) rotate(0) translate(4 217)">
<polygon fill="white" stroke="none" points="-4,4 -4,-217 710.75,-217 710.75,4 -4,4"/>
<!-- idSign1 -->
<g id="node1" class="node">
<title>idSign1</title>
<ellipse fill="none" stroke="black" cx="305" cy="-195" rx="39.58" ry="18"/>
<text text-anchor="middle" x="305" y="-189.95" font-family="Times,serif" font-size="14.00">idSign1</text>
</g>
<!-- yes -->
<g id="node2" class="node">
<title>yes</title>
<ellipse fill="none" stroke="black" cx="27" cy="-106.5" rx="27" ry="18"/>
<text text-anchor="middle" x="27" y="-101.45" font-family="Times,serif" font-size="14.00">yes</text>
</g>
<!-- idSign1&#45;&gt;yes -->
<g id="edge1" class="edge">
<title>idSign1&#45;&gt;yes</title>
<path fill="none" stroke="black" d="M265.12,-194.19C198.94,-193.64 70.54,-188.67 38.25,-159 31.71,-152.99 28.51,-144.14 27.06,-135.46"/>
<polygon fill="black" stroke="black" points="30.48,-135.41 26.04,-125.79 23.51,-136.08 30.48,-135.41"/>
<text text-anchor="middle" x="115.88" y="-145.7" font-family="Times,serif" font-size="14.00">idSign1_prop_idImmovable</text>
</g>
<!-- true -->
<g id="node3" class="node">
<title>true</title>
<ellipse fill="none" stroke="black" cx="204" cy="-106.5" rx="27" ry="18"/>
<text text-anchor="middle" x="204" y="-101.45" font-family="Times,serif" font-size="14.00">true</text>
</g>
<!-- idSign1&#45;&gt;true -->
<g id="edge2" class="edge">
<title>idSign1&#45;&gt;true</title>
<path fill="none" stroke="black" d="M265.77,-191.69C242.87,-188.09 215.67,-179.42 201,-159 196.06,-152.12 195.18,-143.3 196.03,-134.91"/>
<polygon fill="black" stroke="black" points="199.61,-135.78 197.96,-125.32 192.72,-134.53 199.61,-135.78"/>
<text text-anchor="middle" x="291" y="-145.7" font-family="Times,serif" font-size="14.00">idSign1_prop_idUnknownObject</text>
</g>
<!-- idTutorialRoom1Door -->
<g id="node4" class="node">
<title>idTutorialRoom1Door</title>
<ellipse fill="none" stroke="black" cx="375" cy="-106.5" rx="94.34" ry="18"/>
<text text-anchor="middle" x="375" y="-101.45" font-family="Times,serif" font-size="14.00">idTutorialRoom1Door</text>
</g>
<!-- idSign1&#45;&gt;idTutorialRoom1Door -->
<g id="edge3" class="edge">
<title>idSign1&#45;&gt;idTutorialRoom1Door</title>
<path fill="none" stroke="black" d="M341.14,-187.5C357.45,-182.58 375.21,-173.97 385,-159 389.64,-151.9 389.58,-143.14 387.63,-134.88"/>
<polygon fill="black" stroke="black" points="390.65,-133.88 384.2,-125.48 384.01,-136.07 390.65,-133.88"/>
<text text-anchor="middle" x="406.62" y="-145.7" font-family="Times,serif" font-size="14.00">isNear</text>
</g>
<!-- idSign1Text -->
<g id="node7" class="node">
<title>idSign1Text</title>
<ellipse fill="none" stroke="black" cx="544" cy="-106.5" rx="56.47" ry="18"/>
<text text-anchor="middle" x="544" y="-101.45" font-family="Times,serif" font-size="14.00">idSign1Text</text>
</g>
<!-- idSign1&#45;&gt;idSign1Text -->
<g id="edge4" class="edge">
<title>idSign1&#45;&gt;idSign1Text</title>
<path fill="none" stroke="black" d="M339.34,-185.61C364.24,-179.2 398.57,-169.66 428,-159 454.05,-149.56 482.5,-136.97 504.7,-126.6"/>
<polygon fill="black" stroke="black" points="505.88,-129.44 513.43,-122.01 502.89,-123.11 505.88,-129.44"/>
<text text-anchor="middle" x="484.62" y="-145.7" font-family="Times,serif" font-size="14.00">isNear</text>
</g>
<!-- closed -->
<g id="node5" class="node">
<title>closed</title>
<ellipse fill="none" stroke="black" cx="125" cy="-18" rx="34.46" ry="18"/>
<text text-anchor="middle" x="125" y="-12.95" font-family="Times,serif" font-size="14.00">closed</text>
</g>
<!-- idTutorialRoom1Door&#45;&gt;closed -->
<g id="edge5" class="edge">
<title>idTutorialRoom1Door&#45;&gt;closed</title>
<path fill="none" stroke="black" d="M297.95,-95.74C233.06,-87.22 149.83,-75.47 143.75,-70.5 136.53,-64.59 132.09,-55.64 129.36,-46.86"/>
<polygon fill="black" stroke="black" points="132.58,-46.32 126.8,-37.44 125.78,-47.98 132.58,-46.32"/>
<text text-anchor="middle" x="257.62" y="-57.2" font-family="Times,serif" font-size="14.00">idTutorialRoom1Door_prop_idOpenState</text>
</g>
<!-- idTutorialRoom1DoorLock -->
<g id="node6" class="node">
<title>idTutorialRoom1DoorLock</title>
<ellipse fill="none" stroke="black" cx="375" cy="-18" rx="113.28" ry="18"/>
<text text-anchor="middle" x="375" y="-12.95" font-family="Times,serif" font-size="14.00">idTutorialRoom1DoorLock</text>
</g>
<!-- idTutorialRoom1Door&#45;&gt;idTutorialRoom1DoorLock -->
<g id="edge6" class="edge">
<title>idTutorialRoom1Door&#45;&gt;idTutorialRoom1DoorLock</title>
<path fill="none" stroke="black" d="M375,-88.41C375,-76.64 375,-60.73 375,-47.11"/>
<polygon fill="black" stroke="black" points="378.5,-47.35 375,-37.35 371.5,-47.35 378.5,-47.35"/>
<text text-anchor="middle" x="506.62" y="-57.2" font-family="Times,serif" font-size="14.00">idTutorialRoom1Door_prop_idLockMechanism</text>
</g>
<!-- idPlayer -->
<g id="node8" class="node">
<title>idPlayer</title>
<ellipse fill="none" stroke="black" cx="661" cy="-18" rx="41.63" ry="18"/>
<text text-anchor="middle" x="661" y="-12.95" font-family="Times,serif" font-size="14.00">idPlayer</text>
</g>
<!-- idTutorialRoom1Door&#45;&gt;idPlayer -->
<g id="edge7" class="edge">
<title>idTutorialRoom1Door&#45;&gt;idPlayer</title>
<path fill="none" stroke="black" d="M443.74,-93.77C455.49,-91.9 467.58,-90.07 479,-88.5 514.44,-83.61 610.29,-91.85 639,-70.5 646.85,-64.66 651.93,-55.46 655.2,-46.43"/>
<polygon fill="black" stroke="black" points="658.77,-47.72 658.27,-37.14 652.06,-45.72 658.77,-47.72"/>
<text text-anchor="middle" x="679.38" y="-57.2" font-family="Times,serif" font-size="14.00">isNorthOf</text>
</g>
</g>
</svg>
