<?xml version="1.0" encoding="UTF-8" standalone="no"?>
<!DOCTYPE svg PUBLIC "-//W3C//DTD SVG 1.1//EN"
 "http://www.w3.org/Graphics/SVG/1.1/DTD/svg11.dtd">
<!-- Generated by graphviz version 8.1.0 (20230707.0739)
 -->
<!-- Pages: 1 -->
<svg width="549pt" height="221pt"
 viewBox="0.00 0.00 548.64 221.00" xmlns="http://www.w3.org/2000/svg" xmlns:xlink="http://www.w3.org/1999/xlink">
<g id="graph0" class="graph" transform="scale(1 1) rotate(0) translate(4 217)">
<polygon fill="white" stroke="none" points="-4,4 -4,-217 544.64,-217 544.64,4 -4,4"/>
<!-- idTutorialRoom1 -->
<g id="node1" class="node">
<title>idTutorialRoom1</title>
<ellipse fill="none" stroke="black" cx="228.39" cy="-195" rx="75.41" ry="18"/>
<text text-anchor="middle" x="228.39" y="-189.95" font-family="Times,serif" font-size="14.00">idTutorialRoom1</text>
</g>
<!-- white -->
<g id="node2" class="node">
<title>white</title>
<ellipse fill="none" stroke="black" cx="31.39" cy="-106.5" rx="31.39" ry="18"/>
<text text-anchor="middle" x="31.39" y="-101.45" font-family="Times,serif" font-size="14.00">white</text>
</g>
<!-- idTutorialRoom1&#45;&gt;white -->
<g id="edge1" class="edge">
<title>idTutorialRoom1&#45;&gt;white</title>
<path fill="none" stroke="black" d="M159.41,-187.41C116.63,-182.03 66.81,-172.99 50.39,-159 43.27,-152.94 38.82,-143.96 36.04,-135.19"/>
<polygon fill="black" stroke="black" points="39.25,-134.63 33.4,-125.8 32.47,-136.36 39.25,-134.63"/>
<text text-anchor="middle" x="137.39" y="-145.7" font-family="Times,serif" font-size="14.00">idTutorialRoom1_prop_idColor</text>
</g>
<!-- true -->
<g id="node3" class="node">
<title>true</title>
<ellipse fill="none" stroke="black" cx="228.39" cy="-106.5" rx="27" ry="18"/>
<text text-anchor="middle" x="228.39" y="-101.45" font-family="Times,serif" font-size="14.00">true</text>
</g>
<!-- idTutorialRoom1&#45;&gt;true -->
<g id="edge2" class="edge">
<title>idTutorialRoom1&#45;&gt;true</title>
<path fill="none" stroke="black" d="M228.39,-176.91C228.39,-165.14 228.39,-149.23 228.39,-135.61"/>
<polygon fill="black" stroke="black" points="231.89,-135.85 228.39,-125.85 224.89,-135.85 231.89,-135.85"/>
<text text-anchor="middle" x="344.64" y="-145.7" font-family="Times,serif" font-size="14.00">idTutorialRoom1_prop_idUnknownObject</text>
</g>
<!-- idPlayer -->
<g id="node4" class="node">
<title>idPlayer</title>
<ellipse fill="none" stroke="black" cx="484.39" cy="-106.5" rx="41.63" ry="18"/>
<text text-anchor="middle" x="484.39" y="-101.45" font-family="Times,serif" font-size="14.00">idPlayer</text>
</g>
<!-- idTutorialRoom1&#45;&gt;idPlayer -->
<g id="edge3" class="edge">
<title>idTutorialRoom1&#45;&gt;idPlayer</title>
<path fill="none" stroke="black" d="M302.1,-190.71C361.1,-186.7 437.89,-177.93 462.39,-159 470.13,-153.02 475.19,-143.78 478.47,-134.77"/>
<polygon fill="black" stroke="black" points="482.03,-136.1 481.57,-125.51 475.33,-134.08 482.03,-136.1"/>
<text text-anchor="middle" x="493.02" y="-145.7" font-family="Times,serif" font-size="14.00">isNear</text>
</g>
<!-- idWorld1 -->
<g id="node5" class="node">
<title>idWorld1</title>
<ellipse fill="none" stroke="black" cx="484.39" cy="-18" rx="46.23" ry="18"/>
<text text-anchor="middle" x="484.39" y="-12.95" font-family="Times,serif" font-size="14.00">idWorld1</text>
</g>
<!-- idPlayer&#45;&gt;idWorld1 -->
<g id="edge4" class="edge">
<title>idPlayer&#45;&gt;idWorld1</title>
<path fill="none" stroke="black" d="M484.39,-88.41C484.39,-76.64 484.39,-60.73 484.39,-47.11"/>
<polygon fill="black" stroke="black" points="487.89,-47.35 484.39,-37.35 480.89,-47.35 487.89,-47.35"/>
<text text-anchor="middle" x="512.52" y="-57.2" font-family="Times,serif" font-size="14.00">isInsideOf</text>
</g>
</g>
</svg>
