<?xml version="1.0" encoding="UTF-8" standalone="no"?>
<!DOCTYPE svg PUBLIC "-//W3C//DTD SVG 1.1//EN"
 "http://www.w3.org/Graphics/SVG/1.1/DTD/svg11.dtd">
<!-- Generated by graphviz version 8.1.0 (20230707.0739)
 -->
<!-- Pages: 1 -->
<svg width="842pt" height="221pt"
 viewBox="0.00 0.00 841.56 221.00" xmlns="http://www.w3.org/2000/svg" xmlns:xlink="http://www.w3.org/1999/xlink">
<g id="graph0" class="graph" transform="scale(1 1) rotate(0) translate(4 217)">
<polygon fill="white" stroke="none" points="-4,4 -4,-217 837.56,-217 837.56,4 -4,4"/>
<!-- idTutorialRoom1Door -->
<g id="node1" class="node">
<title>idTutorialRoom1Door</title>
<ellipse fill="none" stroke="black" cx="570.46" cy="-195" rx="94.34" ry="18"/>
<text text-anchor="middle" x="570.46" y="-189.95" font-family="Times,serif" font-size="14.00">idTutorialRoom1Door</text>
</g>
<!-- closed -->
<g id="node2" class="node">
<title>closed</title>
<ellipse fill="none" stroke="black" cx="34.46" cy="-106.5" rx="34.46" ry="18"/>
<text text-anchor="middle" x="34.46" y="-101.45" font-family="Times,serif" font-size="14.00">closed</text>
</g>
<!-- idTutorialRoom1Door&#45;&gt;closed -->
<g id="edge1" class="edge">
<title>idTutorialRoom1Door&#45;&gt;closed</title>
<path fill="none" stroke="black" d="M475.89,-193.88C333.11,-192.78 75.69,-186.89 44.21,-159 37.6,-153.14 34.6,-144.33 33.43,-135.64"/>
<polygon fill="black" stroke="black" points="36.88,-135.7 32.78,-125.93 29.89,-136.12 36.88,-135.7"/>
<text text-anchor="middle" x="158.09" y="-145.7" font-family="Times,serif" font-size="14.00">idTutorialRoom1Door_prop_idOpenState</text>
</g>
<!-- idTutorialRoom1DoorLock -->
<g id="node3" class="node">
<title>idTutorialRoom1DoorLock</title>
<ellipse fill="none" stroke="black" cx="284.46" cy="-106.5" rx="113.28" ry="18"/>
<text text-anchor="middle" x="284.46" y="-101.45" font-family="Times,serif" font-size="14.00">idTutorialRoom1DoorLock</text>
</g>
<!-- idTutorialRoom1Door&#45;&gt;idTutorialRoom1DoorLock -->
<g id="edge2" class="edge">
<title>idTutorialRoom1Door&#45;&gt;idTutorialRoom1DoorLock</title>
<path fill="none" stroke="black" d="M480.82,-189.06C400.86,-183.72 294.42,-173.91 281.21,-159 275.59,-152.66 274.57,-143.98 275.51,-135.55"/>
<polygon fill="black" stroke="black" points="279.13,-136.32 277.66,-125.83 272.26,-134.94 279.13,-136.32"/>
<text text-anchor="middle" x="413.09" y="-145.7" font-family="Times,serif" font-size="14.00">idTutorialRoom1Door_prop_idLockMechanism</text>
</g>
<!-- idSign1 -->
<g id="node4" class="node">
<title>idSign1</title>
<ellipse fill="none" stroke="black" cx="521.46" cy="-106.5" rx="39.58" ry="18"/>
<text text-anchor="middle" x="521.46" y="-101.45" font-family="Times,serif" font-size="14.00">idSign1</text>
</g>
<!-- idTutorialRoom1Door&#45;&gt;idSign1 -->
<g id="edge4" class="edge">
<title>idTutorialRoom1Door&#45;&gt;idSign1</title>
<path fill="none" stroke="black" d="M564.37,-176.78C560.43,-166.51 554.86,-153.4 548.46,-142.5 546.44,-139.05 544.12,-135.56 541.72,-132.18"/>
<polygon fill="black" stroke="black" points="544.08,-130.51 535.27,-124.63 538.49,-134.72 544.08,-130.51"/>
<text text-anchor="middle" x="575.09" y="-145.7" font-family="Times,serif" font-size="14.00">isNear</text>
</g>
<!-- idTutorialRoom1FrontOpening -->
<g id="node7" class="node">
<title>idTutorialRoom1FrontOpening</title>
<ellipse fill="none" stroke="black" cx="706.46" cy="-106.5" rx="127.1" ry="18"/>
<text text-anchor="middle" x="706.46" y="-101.45" font-family="Times,serif" font-size="14.00">idTutorialRoom1FrontOpening</text>
</g>
<!-- idTutorialRoom1Door&#45;&gt;idTutorialRoom1FrontOpening -->
<g id="edge3" class="edge">
<title>idTutorialRoom1Door&#45;&gt;idTutorialRoom1FrontOpening</title>
<path fill="none" stroke="black" d="M587.29,-177.03C598.61,-166.23 614.24,-152.46 629.71,-142.5 637.59,-137.43 646.31,-132.72 654.98,-128.49"/>
<polygon fill="black" stroke="black" points="656.12,-131.35 663.69,-123.93 653.15,-125.01 656.12,-131.35"/>
<text text-anchor="middle" x="657.84" y="-145.7" font-family="Times,serif" font-size="14.00">isNorthOf</text>
</g>
<!-- yes -->
<g id="node5" class="node">
<title>yes</title>
<ellipse fill="none" stroke="black" cx="433.46" cy="-18" rx="27" ry="18"/>
<text text-anchor="middle" x="433.46" y="-12.95" font-family="Times,serif" font-size="14.00">yes</text>
</g>
<!-- idSign1&#45;&gt;yes -->
<g id="edge5" class="edge">
<title>idSign1&#45;&gt;yes</title>
<path fill="none" stroke="black" d="M484.31,-100.16C466.22,-95.5 445.99,-86.79 434.71,-70.5 430.02,-63.73 428.54,-55.16 428.58,-46.97"/>
<polygon fill="black" stroke="black" points="432.12,-47.47 429.39,-37.23 425.14,-46.93 432.12,-47.47"/>
<text text-anchor="middle" x="512.34" y="-57.2" font-family="Times,serif" font-size="14.00">idSign1_prop_idImmovable</text>
</g>
<!-- true -->
<g id="node6" class="node">
<title>true</title>
<ellipse fill="none" stroke="black" cx="610.46" cy="-18" rx="27" ry="18"/>
<text text-anchor="middle" x="610.46" y="-12.95" font-family="Times,serif" font-size="14.00">true</text>
</g>
<!-- idSign1&#45;&gt;true -->
<g id="edge6" class="edge">
<title>idSign1&#45;&gt;true</title>
<path fill="none" stroke="black" d="M552.08,-94.83C564.66,-89.19 578.57,-81.19 588.46,-70.5 594.78,-63.68 599.44,-54.76 602.81,-46.28"/>
<polygon fill="black" stroke="black" points="606.43,-47.54 606.41,-36.94 599.82,-45.23 606.43,-47.54"/>
<text text-anchor="middle" x="689.46" y="-57.2" font-family="Times,serif" font-size="14.00">idSign1_prop_idUnknownObject</text>
</g>
<!-- idTutorialRoom1FrontOpening&#45;&gt;idTutorialRoom1Door -->
<g id="edge7" class="edge">
<title>idTutorialRoom1FrontOpening&#45;&gt;idTutorialRoom1Door</title>
<path fill="none" stroke="black" d="M703.11,-124.52C700.05,-135.76 694.44,-150.03 684.46,-159 674.9,-167.6 663.27,-174.09 651.13,-178.98"/>
<polygon fill="black" stroke="black" points="650.05,-176.01 641.86,-182.73 652.45,-182.59 650.05,-176.01"/>
<text text-anchor="middle" x="723.84" y="-145.7" font-family="Times,serif" font-size="14.00">isSouthOf</text>
</g>
</g>
</svg>
