<?xml version="1.0" encoding="UTF-8" standalone="no"?>
<!DOCTYPE svg PUBLIC "-//W3C//DTD SVG 1.1//EN"
 "http://www.w3.org/Graphics/SVG/1.1/DTD/svg11.dtd">
<!-- Generated by graphviz version 8.1.0 (20230707.0739)
 -->
<!-- Pages: 1 -->
<svg width="322pt" height="221pt"
 viewBox="0.00 0.00 321.63 221.00" xmlns="http://www.w3.org/2000/svg" xmlns:xlink="http://www.w3.org/1999/xlink">
<g id="graph0" class="graph" transform="scale(1 1) rotate(0) translate(4 217)">
<polygon fill="white" stroke="none" points="-4,4 -4,-217 317.63,-217 317.63,4 -4,4"/>
<!-- idWorld1 -->
<g id="node1" class="node">
<title>idWorld1</title>
<ellipse fill="none" stroke="black" cx="149" cy="-195" rx="46.23" ry="18"/>
<text text-anchor="middle" x="149" y="-189.95" font-family="Times,serif" font-size="14.00">idWorld1</text>
</g>
<!-- idGameRoom1 -->
<g id="node2" class="node">
<title>idGameRoom1</title>
<ellipse fill="none" stroke="black" cx="85" cy="-106.5" rx="68.24" ry="18"/>
<text text-anchor="middle" x="85" y="-101.45" font-family="Times,serif" font-size="14.00">idGameRoom1</text>
</g>
<!-- idWorld1&#45;&gt;idGameRoom1 -->
<g id="edge1" class="edge">
<title>idWorld1&#45;&gt;idGameRoom1</title>
<path fill="none" stroke="black" d="M136.66,-177.32C127.34,-164.72 114.37,-147.2 103.77,-132.86"/>
<polygon fill="black" stroke="black" points="106.28,-131.38 97.52,-125.42 100.65,-135.54 106.28,-131.38"/>
<text text-anchor="middle" x="140.62" y="-145.7" font-family="Times,serif" font-size="14.00">isNear</text>
</g>
<!-- idPlayer -->
<g id="node4" class="node">
<title>idPlayer</title>
<ellipse fill="none" stroke="black" cx="242" cy="-106.5" rx="41.63" ry="18"/>
<text text-anchor="middle" x="242" y="-101.45" font-family="Times,serif" font-size="14.00">idPlayer</text>
</g>
<!-- idWorld1&#45;&gt;idPlayer -->
<g id="edge2" class="edge">
<title>idWorld1&#45;&gt;idPlayer</title>
<path fill="none" stroke="black" d="M166.06,-178.13C180.35,-164.84 200.94,-145.69 217.07,-130.68"/>
<polygon fill="black" stroke="black" points="219.11,-133.64 224.05,-124.26 214.34,-128.51 219.11,-133.64"/>
<text text-anchor="middle" x="221.62" y="-145.7" font-family="Times,serif" font-size="14.00">isNear</text>
</g>
<!-- true -->
<g id="node3" class="node">
<title>true</title>
<ellipse fill="none" stroke="black" cx="27" cy="-18" rx="27" ry="18"/>
<text text-anchor="middle" x="27" y="-12.95" font-family="Times,serif" font-size="14.00">true</text>
</g>
<!-- idGameRoom1&#45;&gt;true -->
<g id="edge3" class="edge">
<title>idGameRoom1&#45;&gt;true</title>
<path fill="none" stroke="black" d="M49.97,-90.8C41.7,-85.62 33.89,-78.93 29,-70.5 24.97,-63.56 23.52,-55.15 23.34,-47.17"/>
<polygon fill="black" stroke="black" points="26.87,-47.49 23.78,-37.35 19.87,-47.2 26.87,-47.49"/>
<text text-anchor="middle" x="140" y="-57.2" font-family="Times,serif" font-size="14.00">idGameRoom1_prop_idUnknownObject</text>
</g>
<!-- idDesk1 -->
<g id="node5" class="node">
<title>idDesk1</title>
<ellipse fill="none" stroke="black" cx="272" cy="-18" rx="41.63" ry="18"/>
<text text-anchor="middle" x="272" y="-12.95" font-family="Times,serif" font-size="14.00">idDesk1</text>
</g>
<!-- idPlayer&#45;&gt;idDesk1 -->
<g id="edge4" class="edge">
<title>idPlayer&#45;&gt;idDesk1</title>
<path fill="none" stroke="black" d="M247.93,-88.41C252.08,-76.44 257.71,-60.2 262.49,-46.43"/>
<polygon fill="black" stroke="black" points="266.12,-47.65 266.09,-37.05 259.5,-45.36 266.12,-47.65"/>
<text text-anchor="middle" x="277.62" y="-57.2" font-family="Times,serif" font-size="14.00">isNear</text>
</g>
</g>
</svg>
