<?xml version="1.0" encoding="UTF-8" standalone="no"?>
<!DOCTYPE svg PUBLIC "-//W3C//DTD SVG 1.1//EN"
 "http://www.w3.org/Graphics/SVG/1.1/DTD/svg11.dtd">
<!-- Generated by graphviz version 8.1.0 (20230707.0739)
 -->
<!-- Pages: 1 -->
<svg width="1029pt" height="221pt"
 viewBox="0.00 0.00 1029.01 221.00" xmlns="http://www.w3.org/2000/svg" xmlns:xlink="http://www.w3.org/1999/xlink">
<g id="graph0" class="graph" transform="scale(1 1) rotate(0) translate(4 217)">
<polygon fill="white" stroke="none" points="-4,4 -4,-217 1025.01,-217 1025.01,4 -4,4"/>
<!-- idBottle1 -->
<g id="node1" class="node">
<title>idBottle1</title>
<ellipse fill="none" stroke="black" cx="384.51" cy="-195" rx="45.21" ry="18"/>
<text text-anchor="middle" x="384.51" y="-189.95" font-family="Times,serif" font-size="14.00">idBottle1</text>
</g>
<!-- broken -->
<g id="node2" class="node">
<title>broken</title>
<ellipse fill="none" stroke="black" cx="36.51" cy="-106.5" rx="36.51" ry="18"/>
<text text-anchor="middle" x="36.51" y="-101.45" font-family="Times,serif" font-size="14.00">broken</text>
</g>
<!-- idBottle1&#45;&gt;broken -->
<g id="edge1" class="edge">
<title>idBottle1&#45;&gt;broken</title>
<path fill="none" stroke="black" d="M339.14,-194.15C261.64,-193.59 107.83,-188.63 64.01,-159 55.47,-153.22 49.37,-143.91 45.13,-134.78"/>
<polygon fill="black" stroke="black" points="48.07,-133.71 41.09,-125.74 41.58,-136.33 48.07,-133.71"/>
<text text-anchor="middle" x="137.26" y="-145.7" font-family="Times,serif" font-size="14.00">idBottle1_prop_idIntegrity</text>
</g>
<!-- sharp -->
<g id="node3" class="node">
<title>sharp</title>
<ellipse fill="none" stroke="black" cx="205.51" cy="-106.5" rx="30.88" ry="18"/>
<text text-anchor="middle" x="205.51" y="-101.45" font-family="Times,serif" font-size="14.00">sharp</text>
</g>
<!-- idBottle1&#45;&gt;sharp -->
<g id="edge2" class="edge">
<title>idBottle1&#45;&gt;sharp</title>
<path fill="none" stroke="black" d="M341.12,-189.23C299.88,-183.87 241.67,-173.94 224.51,-159 217.46,-152.86 213.02,-143.86 210.23,-135.1"/>
<polygon fill="black" stroke="black" points="213.45,-134.55 207.58,-125.73 206.66,-136.29 213.45,-134.55"/>
<text text-anchor="middle" x="302.51" y="-145.7" font-family="Times,serif" font-size="14.00">idBottle1_prop_idDescriptor</text>
</g>
<!-- brown -->
<g id="node4" class="node">
<title>brown</title>
<ellipse fill="none" stroke="black" cx="384.51" cy="-106.5" rx="34.46" ry="18"/>
<text text-anchor="middle" x="384.51" y="-101.45" font-family="Times,serif" font-size="14.00">brown</text>
</g>
<!-- idBottle1&#45;&gt;brown -->
<g id="edge3" class="edge">
<title>idBottle1&#45;&gt;brown</title>
<path fill="none" stroke="black" d="M384.51,-176.91C384.51,-165.14 384.51,-149.23 384.51,-135.61"/>
<polygon fill="black" stroke="black" points="388.01,-135.85 384.51,-125.85 381.01,-135.85 388.01,-135.85"/>
<text text-anchor="middle" x="449.38" y="-145.7" font-family="Times,serif" font-size="14.00">idBottle1_prop_idColor</text>
</g>
<!-- idPlayer -->
<g id="node5" class="node">
<title>idPlayer</title>
<ellipse fill="none" stroke="black" cx="507.51" cy="-106.5" rx="41.63" ry="18"/>
<text text-anchor="middle" x="507.51" y="-101.45" font-family="Times,serif" font-size="14.00">idPlayer</text>
</g>
<!-- idBottle1&#45;&gt;idPlayer -->
<g id="edge4" class="edge">
<title>idBottle1&#45;&gt;idPlayer</title>
<path fill="none" stroke="black" d="M427.08,-188.28C461.05,-182.74 504.68,-173.1 515.51,-159 520.78,-152.14 521,-143.22 519.2,-134.73"/>
<polygon fill="black" stroke="black" points="522.32,-133.96 516.07,-125.41 515.62,-135.99 522.32,-133.96"/>
<text text-anchor="middle" x="546.01" y="-145.7" font-family="Times,serif" font-size="14.00">isWestOf</text>
</g>
<!-- idRockPile1 -->
<g id="node7" class="node">
<title>idRockPile1</title>
<ellipse fill="none" stroke="black" cx="657.51" cy="-106.5" rx="56.47" ry="18"/>
<text text-anchor="middle" x="657.51" y="-101.45" font-family="Times,serif" font-size="14.00">idRockPile1</text>
</g>
<!-- idBottle1&#45;&gt;idRockPile1 -->
<g id="edge5" class="edge">
<title>idBottle1&#45;&gt;idRockPile1</title>
<path fill="none" stroke="black" d="M428.65,-190.68C468.22,-186.61 527.28,-177.76 575.51,-159 594.06,-151.78 613,-140.22 627.99,-129.88"/>
<polygon fill="black" stroke="black" points="629.65,-132.29 635.78,-123.65 625.6,-126.58 629.65,-132.29"/>
<text text-anchor="middle" x="624.13" y="-145.7" font-family="Times,serif" font-size="14.00">isNear</text>
</g>
<!-- false -->
<g id="node6" class="node">
<title>false</title>
<ellipse fill="none" stroke="black" cx="473.51" cy="-18" rx="28.32" ry="18"/>
<text text-anchor="middle" x="473.51" y="-12.95" font-family="Times,serif" font-size="14.00">false</text>
</g>
<!-- idPlayer&#45;&gt;false -->
<g id="edge6" class="edge">
<title>idPlayer&#45;&gt;false</title>
<path fill="none" stroke="black" d="M499.85,-88.5C497.35,-82.81 494.62,-76.41 492.26,-70.5 489.1,-62.6 485.87,-53.94 482.99,-46.01"/>
<polygon fill="black" stroke="black" points="486,-45.03 479.33,-36.8 479.41,-47.39 486,-45.03"/>
<text text-anchor="middle" x="573.13" y="-57.2" font-family="Times,serif" font-size="14.00">idPlayer_prop_idBottleFound</text>
</g>
<!-- yes -->
<g id="node8" class="node">
<title>yes</title>
<ellipse fill="none" stroke="black" cx="657.51" cy="-18" rx="27" ry="18"/>
<text text-anchor="middle" x="657.51" y="-12.95" font-family="Times,serif" font-size="14.00">yes</text>
</g>
<!-- idRockPile1&#45;&gt;yes -->
<g id="edge7" class="edge">
<title>idRockPile1&#45;&gt;yes</title>
<path fill="none" stroke="black" d="M657.51,-88.41C657.51,-76.64 657.51,-60.73 657.51,-47.11"/>
<polygon fill="black" stroke="black" points="661.01,-47.35 657.51,-37.35 654.01,-47.35 661.01,-47.35"/>
<text text-anchor="middle" x="746.76" y="-57.2" font-family="Times,serif" font-size="14.00">idRockPile1_prop_idImmovable</text>
</g>
<!-- bumpy -->
<g id="node9" class="node">
<title>bumpy</title>
<ellipse fill="none" stroke="black" cx="859.51" cy="-18" rx="37.02" ry="18"/>
<text text-anchor="middle" x="859.51" y="-12.95" font-family="Times,serif" font-size="14.00">bumpy</text>
</g>
<!-- idRockPile1&#45;&gt;bumpy -->
<g id="edge8" class="edge">
<title>idRockPile1&#45;&gt;bumpy</title>
<path fill="none" stroke="black" d="M711.38,-100.6C757.18,-95.44 818.44,-85.91 837.51,-70.5 844.93,-64.51 849.89,-55.54 853.19,-46.76"/>
<polygon fill="black" stroke="black" points="856.8,-47.95 856.45,-37.36 850.12,-45.86 856.8,-47.95"/>
<text text-anchor="middle" x="934.76" y="-57.2" font-family="Times,serif" font-size="14.00">idRockPile1_prop_idDescriptor</text>
</g>
</g>
</svg>
