<?xml version="1.0" encoding="UTF-8" standalone="no"?>
<!DOCTYPE svg PUBLIC "-//W3C//DTD SVG 1.1//EN"
 "http://www.w3.org/Graphics/SVG/1.1/DTD/svg11.dtd">
<!-- Generated by graphviz version 8.1.0 (20230707.0739)
 -->
<!-- Pages: 1 -->
<svg width="564pt" height="221pt"
 viewBox="0.00 0.00 564.41 221.00" xmlns="http://www.w3.org/2000/svg" xmlns:xlink="http://www.w3.org/1999/xlink">
<g id="graph0" class="graph" transform="scale(1 1) rotate(0) translate(4 217)">
<polygon fill="white" stroke="none" points="-4,4 -4,-217 560.41,-217 560.41,4 -4,4"/>
<!-- idBranch1 -->
<g id="node1" class="node">
<title>idBranch1</title>
<ellipse fill="none" stroke="black" cx="177" cy="-195" rx="49.3" ry="18"/>
<text text-anchor="middle" x="177" y="-189.95" font-family="Times,serif" font-size="14.00">idBranch1</text>
</g>
<!-- brown -->
<g id="node2" class="node">
<title>brown</title>
<ellipse fill="none" stroke="black" cx="98" cy="-106.5" rx="34.46" ry="18"/>
<text text-anchor="middle" x="98" y="-101.45" font-family="Times,serif" font-size="14.00">brown</text>
</g>
<!-- idBranch1&#45;&gt;brown -->
<g id="edge1" class="edge">
<title>idBranch1&#45;&gt;brown</title>
<path fill="none" stroke="black" d="M135.51,-184.9C121.64,-179.69 107.6,-171.58 99.25,-159 94.69,-152.14 93.25,-143.54 93.28,-135.35"/>
<polygon fill="black" stroke="black" points="96.82,-135.87 94.07,-125.64 89.84,-135.35 96.82,-135.87"/>
<text text-anchor="middle" x="167.88" y="-145.7" font-family="Times,serif" font-size="14.00">idBranch1_prop_idColor</text>
</g>
<!-- idGlowingGrass1 -->
<g id="node3" class="node">
<title>idGlowingGrass1</title>
<ellipse fill="none" stroke="black" cx="257" cy="-106.5" rx="75.92" ry="18"/>
<text text-anchor="middle" x="257" y="-101.45" font-family="Times,serif" font-size="14.00">idGlowingGrass1</text>
</g>
<!-- idBranch1&#45;&gt;idGlowingGrass1 -->
<g id="edge2" class="edge">
<title>idBranch1&#45;&gt;idGlowingGrass1</title>
<path fill="none" stroke="black" d="M207.37,-180.4C217.16,-174.86 227.44,-167.7 235,-159 241.01,-152.09 245.58,-143.29 248.95,-134.93"/>
<polygon fill="black" stroke="black" points="252.52,-136.34 252.6,-125.74 245.93,-133.98 252.52,-136.34"/>
<text text-anchor="middle" x="272.38" y="-145.7" font-family="Times,serif" font-size="14.00">isNorthOf</text>
</g>
<!-- yes -->
<g id="node4" class="node">
<title>yes</title>
<ellipse fill="none" stroke="black" cx="27" cy="-18" rx="27" ry="18"/>
<text text-anchor="middle" x="27" y="-12.95" font-family="Times,serif" font-size="14.00">yes</text>
</g>
<!-- idGlowingGrass1&#45;&gt;yes -->
<g id="edge3" class="edge">
<title>idGlowingGrass1&#45;&gt;yes</title>
<path fill="none" stroke="black" d="M194.57,-95.91C133.4,-86.4 48.91,-72.91 46,-70.5 38.79,-64.54 34.32,-55.59 31.54,-46.81"/>
<polygon fill="black" stroke="black" points="34.76,-46.24 28.93,-37.4 27.97,-47.95 34.76,-46.24"/>
<text text-anchor="middle" x="149.5" y="-57.2" font-family="Times,serif" font-size="14.00">idGlowingGrass1_prop_idImmovable</text>
</g>
<!-- glowing -->
<g id="node5" class="node">
<title>glowing</title>
<ellipse fill="none" stroke="black" cx="257" cy="-18" rx="41.12" ry="18"/>
<text text-anchor="middle" x="257" y="-12.95" font-family="Times,serif" font-size="14.00">glowing</text>
</g>
<!-- idGlowingGrass1&#45;&gt;glowing -->
<g id="edge4" class="edge">
<title>idGlowingGrass1&#45;&gt;glowing</title>
<path fill="none" stroke="black" d="M257,-88.41C257,-76.64 257,-60.73 257,-47.11"/>
<polygon fill="black" stroke="black" points="260.5,-47.35 257,-37.35 253.5,-47.35 260.5,-47.35"/>
<text text-anchor="middle" x="357.5" y="-57.2" font-family="Times,serif" font-size="14.00">idGlowingGrass1_prop_idDescriptor</text>
</g>
<!-- idPlayerBackside -->
<g id="node6" class="node">
<title>idPlayerBackside</title>
<ellipse fill="none" stroke="black" cx="481" cy="-18" rx="75.41" ry="18"/>
<text text-anchor="middle" x="481" y="-12.95" font-family="Times,serif" font-size="14.00">idPlayerBackside</text>
</g>
<!-- idGlowingGrass1&#45;&gt;idPlayerBackside -->
<g id="edge5" class="edge">
<title>idGlowingGrass1&#45;&gt;idPlayerBackside</title>
<path fill="none" stroke="black" d="M328.92,-100.27C378.56,-95.33 439.08,-86.26 459,-70.5 466.48,-64.58 471.46,-55.64 474.75,-46.85"/>
<polygon fill="black" stroke="black" points="478.37,-48.02 477.99,-37.43 471.68,-45.94 478.37,-48.02"/>
<text text-anchor="middle" x="498.38" y="-57.2" font-family="Times,serif" font-size="14.00">isSouthOf</text>
</g>
</g>
</svg>
