<?xml version="1.0" encoding="UTF-8" standalone="no"?>
<!DOCTYPE svg PUBLIC "-//W3C//DTD SVG 1.1//EN"
 "http://www.w3.org/Graphics/SVG/1.1/DTD/svg11.dtd">
<!-- Generated by graphviz version 8.1.0 (20230707.0739)
 -->
<!-- Pages: 1 -->
<svg width="344pt" height="221pt"
 viewBox="0.00 0.00 343.80 221.00" xmlns="http://www.w3.org/2000/svg" xmlns:xlink="http://www.w3.org/1999/xlink">
<g id="graph0" class="graph" transform="scale(1 1) rotate(0) translate(4 217)">
<polygon fill="white" stroke="none" points="-4,4 -4,-217 339.8,-217 339.8,4 -4,4"/>
<!-- idCave1 -->
<g id="node1" class="node">
<title>idCave1</title>
<ellipse fill="none" stroke="black" cx="96.3" cy="-195" rx="41.63" ry="18"/>
<text text-anchor="middle" x="96.3" y="-189.95" font-family="Times,serif" font-size="14.00">idCave1</text>
</g>
<!-- dark -->
<g id="node2" class="node">
<title>dark</title>
<ellipse fill="none" stroke="black" cx="27.3" cy="-106.5" rx="27.3" ry="18"/>
<text text-anchor="middle" x="27.3" y="-101.45" font-family="Times,serif" font-size="14.00">dark</text>
</g>
<!-- idCave1&#45;&gt;dark -->
<g id="edge1" class="edge">
<title>idCave1&#45;&gt;dark</title>
<path fill="none" stroke="black" d="M61.85,-184.68C48.97,-179.36 35.63,-171.22 28.05,-159 23.75,-152.08 22.42,-143.57 22.48,-135.47"/>
<polygon fill="black" stroke="black" points="26.05,-135.75 23.34,-125.51 19.07,-135.2 26.05,-135.75"/>
<text text-anchor="middle" x="86.42" y="-145.7" font-family="Times,serif" font-size="14.00">idCave1_prop_idTint</text>
</g>
<!-- idClearing1 -->
<g id="node3" class="node">
<title>idClearing1</title>
<ellipse fill="none" stroke="black" cx="166.3" cy="-106.5" rx="54.42" ry="18"/>
<text text-anchor="middle" x="166.3" y="-101.45" font-family="Times,serif" font-size="14.00">idClearing1</text>
</g>
<!-- idCave1&#45;&gt;idClearing1 -->
<g id="edge2" class="edge">
<title>idCave1&#45;&gt;idClearing1</title>
<path fill="none" stroke="black" d="M120.4,-180.18C128.79,-174.46 137.75,-167.23 144.3,-159 150,-151.83 154.49,-142.97 157.88,-134.62"/>
<polygon fill="black" stroke="black" points="161.43,-136.09 161.6,-125.5 154.86,-133.68 161.43,-136.09"/>
<text text-anchor="middle" x="181.67" y="-145.7" font-family="Times,serif" font-size="14.00">isNorthOf</text>
</g>
<!-- grassy -->
<g id="node4" class="node">
<title>grassy</title>
<ellipse fill="none" stroke="black" cx="166.3" cy="-18" rx="34.46" ry="18"/>
<text text-anchor="middle" x="166.3" y="-12.95" font-family="Times,serif" font-size="14.00">grassy</text>
</g>
<!-- idClearing1&#45;&gt;grassy -->
<g id="edge3" class="edge">
<title>idClearing1&#45;&gt;grassy</title>
<path fill="none" stroke="black" d="M166.3,-88.41C166.3,-76.64 166.3,-60.73 166.3,-47.11"/>
<polygon fill="black" stroke="black" points="169.8,-47.35 166.3,-37.35 162.8,-47.35 169.8,-47.35"/>
<text text-anchor="middle" x="251.05" y="-57.2" font-family="Times,serif" font-size="14.00">idClearing1_prop_idDescriptor</text>
</g>
</g>
</svg>
