<?xml version="1.0" encoding="UTF-8" standalone="no"?>
<!DOCTYPE svg PUBLIC "-//W3C//DTD SVG 1.1//EN"
 "http://www.w3.org/Graphics/SVG/1.1/DTD/svg11.dtd">
<!-- Generated by graphviz version 8.1.0 (20230707.0739)
 -->
<!-- Pages: 1 -->
<svg width="542pt" height="221pt"
 viewBox="0.00 0.00 541.75 221.00" xmlns="http://www.w3.org/2000/svg" xmlns:xlink="http://www.w3.org/1999/xlink">
<g id="graph0" class="graph" transform="scale(1 1) rotate(0) translate(4 217)">
<polygon fill="white" stroke="none" points="-4,4 -4,-217 537.75,-217 537.75,4 -4,4"/>
<!-- idClearing1 -->
<g id="node1" class="node">
<title>idClearing1</title>
<ellipse fill="none" stroke="black" cx="160" cy="-195" rx="54.42" ry="18"/>
<text text-anchor="middle" x="160" y="-189.95" font-family="Times,serif" font-size="14.00">idClearing1</text>
</g>
<!-- grassy -->
<g id="node2" class="node">
<title>grassy</title>
<ellipse fill="none" stroke="black" cx="64" cy="-106.5" rx="34.46" ry="18"/>
<text text-anchor="middle" x="64" y="-101.45" font-family="Times,serif" font-size="14.00">grassy</text>
</g>
<!-- idClearing1&#45;&gt;grassy -->
<g id="edge1" class="edge">
<title>idClearing1&#45;&gt;grassy</title>
<path fill="none" stroke="black" d="M110.34,-187.13C93.36,-182.16 76.01,-173.64 65.5,-159 60.69,-152.31 59.15,-143.76 59.15,-135.56"/>
<polygon fill="black" stroke="black" points="62.7,-136.03 59.94,-125.81 55.72,-135.53 62.7,-136.03"/>
<text text-anchor="middle" x="150.75" y="-145.7" font-family="Times,serif" font-size="14.00">idClearing1_prop_idDescriptor</text>
</g>
<!-- idGlowingGrass1 -->
<g id="node3" class="node">
<title>idGlowingGrass1</title>
<ellipse fill="none" stroke="black" cx="257" cy="-106.5" rx="75.92" ry="18"/>
<text text-anchor="middle" x="257" y="-101.45" font-family="Times,serif" font-size="14.00">idGlowingGrass1</text>
</g>
<!-- idClearing1&#45;&gt;idGlowingGrass1 -->
<g id="edge2" class="edge">
<title>idClearing1&#45;&gt;idGlowingGrass1</title>
<path fill="none" stroke="black" d="M198.86,-182.19C211.65,-176.77 225.11,-169.22 235,-159 241.47,-152.32 246.17,-143.44 249.53,-134.94"/>
<polygon fill="black" stroke="black" points="253.15,-136.17 253.09,-125.58 246.53,-133.89 253.15,-136.17"/>
<text text-anchor="middle" x="274.38" y="-145.7" font-family="Times,serif" font-size="14.00">isNorthOf</text>
</g>
<!-- yes -->
<g id="node4" class="node">
<title>yes</title>
<ellipse fill="none" stroke="black" cx="27" cy="-18" rx="27" ry="18"/>
<text text-anchor="middle" x="27" y="-12.95" font-family="Times,serif" font-size="14.00">yes</text>
</g>
<!-- idGlowingGrass1&#45;&gt;yes -->
<g id="edge3" class="edge">
<title>idGlowingGrass1&#45;&gt;yes</title>
<path fill="none" stroke="black" d="M189.84,-97.77C132.34,-90.6 57.11,-79.68 46,-70.5 38.79,-64.54 34.32,-55.59 31.54,-46.81"/>
<polygon fill="black" stroke="black" points="34.76,-46.24 28.93,-37.4 27.97,-47.95 34.76,-46.24"/>
<text text-anchor="middle" x="149.5" y="-57.2" font-family="Times,serif" font-size="14.00">idGlowingGrass1_prop_idImmovable</text>
</g>
<!-- uncountable -->
<g id="node5" class="node">
<title>uncountable</title>
<ellipse fill="none" stroke="black" cx="257" cy="-18" rx="55.96" ry="18"/>
<text text-anchor="middle" x="257" y="-12.95" font-family="Times,serif" font-size="14.00">uncountable</text>
</g>
<!-- idGlowingGrass1&#45;&gt;uncountable -->
<g id="edge4" class="edge">
<title>idGlowingGrass1&#45;&gt;uncountable</title>
<path fill="none" stroke="black" d="M257,-88.41C257,-76.64 257,-60.73 257,-47.11"/>
<polygon fill="black" stroke="black" points="260.5,-47.35 257,-37.35 253.5,-47.35 260.5,-47.35"/>
<text text-anchor="middle" x="361.62" y="-57.2" font-family="Times,serif" font-size="14.00">idGlowingGrass1_prop_idArticleType</text>
</g>
<!-- idPlayer -->
<g id="node6" class="node">
<title>idPlayer</title>
<ellipse fill="none" stroke="black" cx="489" cy="-18" rx="41.63" ry="18"/>
<text text-anchor="middle" x="489" y="-12.95" font-family="Times,serif" font-size="14.00">idPlayer</text>
</g>
<!-- idGlowingGrass1&#45;&gt;idPlayer -->
<g id="edge5" class="edge">
<title>idGlowingGrass1&#45;&gt;idPlayer</title>
<path fill="none" stroke="black" d="M329.59,-100.78C381.58,-96.06 445.97,-87.03 467,-70.5 474.69,-64.45 479.74,-55.2 483.03,-46.2"/>
<polygon fill="black" stroke="black" points="486.58,-47.54 486.13,-36.96 479.88,-45.51 486.58,-47.54"/>
<text text-anchor="middle" x="506.38" y="-57.2" font-family="Times,serif" font-size="14.00">isSouthOf</text>
</g>
</g>
</svg>
