<?xml version="1.0" encoding="UTF-8" standalone="no"?>
<!DOCTYPE svg PUBLIC "-//W3C//DTD SVG 1.1//EN"
 "http://www.w3.org/Graphics/SVG/1.1/DTD/svg11.dtd">
<!-- Generated by graphviz version 8.1.0 (20230707.0739)
 -->
<!-- Pages: 1 -->
<svg width="716pt" height="133pt"
 viewBox="0.00 0.00 715.87 132.50" xmlns="http://www.w3.org/2000/svg" xmlns:xlink="http://www.w3.org/1999/xlink">
<g id="graph0" class="graph" transform="scale(1 1) rotate(0) translate(4 128.5)">
<polygon fill="white" stroke="none" points="-4,4 -4,-128.5 711.87,-128.5 711.87,4 -4,4"/>
<!-- idGlowingFlower1 -->
<g id="node1" class="node">
<title>idGlowingFlower1</title>
<ellipse fill="none" stroke="black" cx="273.12" cy="-106.5" rx="81.04" ry="18"/>
<text text-anchor="middle" x="273.12" y="-101.45" font-family="Times,serif" font-size="14.00">idGlowingFlower1</text>
</g>
<!-- glowing -->
<g id="node2" class="node">
<title>glowing</title>
<ellipse fill="none" stroke="black" cx="41.12" cy="-18" rx="41.12" ry="18"/>
<text text-anchor="middle" x="41.12" y="-12.95" font-family="Times,serif" font-size="14.00">glowing</text>
</g>
<!-- idGlowingFlower1&#45;&gt;glowing -->
<g id="edge1" class="edge">
<title>idGlowingFlower1&#45;&gt;glowing</title>
<path fill="none" stroke="black" d="M195.62,-100.79C143.63,-96.15 81.05,-87.23 60.62,-70.5 53.36,-64.56 48.8,-55.61 45.94,-46.83"/>
<polygon fill="black" stroke="black" points="49.13,-46.2 43.22,-37.41 42.36,-47.97 49.13,-46.2"/>
<text text-anchor="middle" x="165.37" y="-57.2" font-family="Times,serif" font-size="14.00">idGlowingFlower1_prop_idDescriptor</text>
</g>
<!-- green -->
<g id="node3" class="node">
<title>green</title>
<ellipse fill="none" stroke="black" cx="273.12" cy="-18" rx="31.39" ry="18"/>
<text text-anchor="middle" x="273.12" y="-12.95" font-family="Times,serif" font-size="14.00">green</text>
</g>
<!-- idGlowingFlower1&#45;&gt;green -->
<g id="edge2" class="edge">
<title>idGlowingFlower1&#45;&gt;green</title>
<path fill="none" stroke="black" d="M273.12,-88.41C273.12,-76.64 273.12,-60.73 273.12,-47.11"/>
<polygon fill="black" stroke="black" points="276.62,-47.35 273.12,-37.35 269.62,-47.35 276.62,-47.35"/>
<text text-anchor="middle" x="364.24" y="-57.2" font-family="Times,serif" font-size="14.00">idGlowingFlower1_prop_idColor</text>
</g>
<!-- true -->
<g id="node4" class="node">
<title>true</title>
<ellipse fill="none" stroke="black" cx="478.12" cy="-18" rx="27" ry="18"/>
<text text-anchor="middle" x="478.12" y="-12.95" font-family="Times,serif" font-size="14.00">true</text>
</g>
<!-- idGlowingFlower1&#45;&gt;true -->
<g id="edge3" class="edge">
<title>idGlowingFlower1&#45;&gt;true</title>
<path fill="none" stroke="black" d="M346.2,-98.55C389.52,-93.11 439.17,-84.14 456.12,-70.5 463.54,-64.52 468.51,-55.56 471.81,-46.78"/>
<polygon fill="black" stroke="black" points="475.42,-47.96 475.06,-37.37 468.74,-45.87 475.42,-47.96"/>
<text text-anchor="middle" x="587.49" y="-57.2" font-family="Times,serif" font-size="14.00">idGlowingFlower1_prop_idUnknownObject</text>
</g>
</g>
</svg>
