<?xml version="1.0" encoding="UTF-8" standalone="no"?>
<!DOCTYPE svg PUBLIC "-//W3C//DTD SVG 1.1//EN"
 "http://www.w3.org/Graphics/SVG/1.1/DTD/svg11.dtd">
<!-- Generated by graphviz version 8.1.0 (20230707.0739)
 -->
<!-- Pages: 1 -->
<svg width="345pt" height="133pt"
 viewBox="0.00 0.00 344.52 132.50" xmlns="http://www.w3.org/2000/svg" xmlns:xlink="http://www.w3.org/1999/xlink">
<g id="graph0" class="graph" transform="scale(1 1) rotate(0) translate(4 128.5)">
<polygon fill="white" stroke="none" points="-4,4 -4,-128.5 340.52,-128.5 340.52,4 -4,4"/>
<!-- idGlowingArea1 -->
<g id="node1" class="node">
<title>idGlowingArea1</title>
<ellipse fill="none" stroke="black" cx="151.12" cy="-106.5" rx="72.85" ry="18"/>
<text text-anchor="middle" x="151.12" y="-101.45" font-family="Times,serif" font-size="14.00">idGlowingArea1</text>
</g>
<!-- glowing -->
<g id="node2" class="node">
<title>glowing</title>
<ellipse fill="none" stroke="black" cx="41.12" cy="-18" rx="41.12" ry="18"/>
<text text-anchor="middle" x="41.12" y="-12.95" font-family="Times,serif" font-size="14.00">glowing</text>
</g>
<!-- idGlowingArea1&#45;&gt;glowing -->
<g id="edge1" class="edge">
<title>idGlowingArea1&#45;&gt;glowing</title>
<path fill="none" stroke="black" d="M86.06,-98.15C69.34,-93.01 53.13,-84.51 42.62,-70.5 37.59,-63.81 36.04,-55.14 36.09,-46.82"/>
<polygon fill="black" stroke="black" points="39.66,-47.18 36.98,-36.93 32.68,-46.61 39.66,-47.18"/>
<text text-anchor="middle" x="141.37" y="-57.2" font-family="Times,serif" font-size="14.00">idGlowingArea1_prop_idDescriptor</text>
</g>
<!-- idPlayerBackside -->
<g id="node3" class="node">
<title>idPlayerBackside</title>
<ellipse fill="none" stroke="black" cx="261.12" cy="-18" rx="75.41" ry="18"/>
<text text-anchor="middle" x="261.12" y="-12.95" font-family="Times,serif" font-size="14.00">idPlayerBackside</text>
</g>
<!-- idGlowingArea1&#45;&gt;idPlayerBackside -->
<g id="edge2" class="edge">
<title>idGlowingArea1&#45;&gt;idPlayerBackside</title>
<path fill="none" stroke="black" d="M201.69,-93.11C215.12,-87.89 228.76,-80.6 239.12,-70.5 245.77,-64.01 250.52,-55.18 253.87,-46.67"/>
<polygon fill="black" stroke="black" points="257.5,-47.85 257.39,-37.25 250.87,-45.61 257.5,-47.85"/>
<text text-anchor="middle" x="277.49" y="-57.2" font-family="Times,serif" font-size="14.00">isSouthOf</text>
</g>
</g>
</svg>
