<?xml version="1.0" encoding="UTF-8" standalone="no"?>
<!DOCTYPE svg PUBLIC "-//W3C//DTD SVG 1.1//EN"
 "http://www.w3.org/Graphics/SVG/1.1/DTD/svg11.dtd">
<!-- Generated by graphviz version 8.1.0 (20230707.0739)
 -->
<!-- Pages: 1 -->
<svg width="911pt" height="221pt"
 viewBox="0.00 0.00 910.90 221.00" xmlns="http://www.w3.org/2000/svg" xmlns:xlink="http://www.w3.org/1999/xlink">
<g id="graph0" class="graph" transform="scale(1 1) rotate(0) translate(4 217)">
<polygon fill="white" stroke="none" points="-4,4 -4,-217 906.9,-217 906.9,4 -4,4"/>
<!-- idGlowingGrass1 -->
<g id="node1" class="node">
<title>idGlowingGrass1</title>
<ellipse fill="none" stroke="black" cx="386.96" cy="-195" rx="75.92" ry="18"/>
<text text-anchor="middle" x="386.96" y="-189.95" font-family="Times,serif" font-size="14.00">idGlowingGrass1</text>
</g>
<!-- uncountable -->
<g id="node2" class="node">
<title>uncountable</title>
<ellipse fill="none" stroke="black" cx="55.96" cy="-106.5" rx="55.96" ry="18"/>
<text text-anchor="middle" x="55.96" y="-101.45" font-family="Times,serif" font-size="14.00">uncountable</text>
</g>
<!-- idGlowingGrass1&#45;&gt;uncountable -->
<g id="edge1" class="edge">
<title>idGlowingGrass1&#45;&gt;uncountable</title>
<path fill="none" stroke="black" d="M313.4,-190.14C225.78,-184.88 88.89,-174.34 70.71,-159 63.81,-153.18 60.02,-144.37 57.98,-135.68"/>
<polygon fill="black" stroke="black" points="61.29,-135.26 56.22,-125.96 54.39,-136.4 61.29,-135.26"/>
<text text-anchor="middle" x="175.58" y="-145.7" font-family="Times,serif" font-size="14.00">idGlowingGrass1_prop_idArticleType</text>
</g>
<!-- green -->
<g id="node3" class="node">
<title>green</title>
<ellipse fill="none" stroke="black" cx="287.96" cy="-106.5" rx="31.39" ry="18"/>
<text text-anchor="middle" x="287.96" y="-101.45" font-family="Times,serif" font-size="14.00">green</text>
</g>
<!-- idGlowingGrass1&#45;&gt;green -->
<g id="edge2" class="edge">
<title>idGlowingGrass1&#45;&gt;green</title>
<path fill="none" stroke="black" d="M325.12,-184.17C311.16,-178.97 297.92,-171.05 289.21,-159 284.38,-152.32 282.87,-143.78 282.91,-135.58"/>
<polygon fill="black" stroke="black" points="286.46,-136.07 283.76,-125.82 279.48,-135.52 286.46,-136.07"/>
<text text-anchor="middle" x="377.33" y="-145.7" font-family="Times,serif" font-size="14.00">idGlowingGrass1_prop_idColor</text>
</g>
<!-- yes -->
<g id="node4" class="node">
<title>yes</title>
<ellipse fill="none" stroke="black" cx="485.96" cy="-106.5" rx="27" ry="18"/>
<text text-anchor="middle" x="485.96" y="-101.45" font-family="Times,serif" font-size="14.00">yes</text>
</g>
<!-- idGlowingGrass1&#45;&gt;yes -->
<g id="edge3" class="edge">
<title>idGlowingGrass1&#45;&gt;yes</title>
<path fill="none" stroke="black" d="M432.05,-180.14C443.54,-174.94 455.13,-168.03 463.96,-159 470.46,-152.35 475.17,-143.48 478.52,-134.98"/>
<polygon fill="black" stroke="black" points="482.15,-136.2 482.08,-125.61 475.53,-133.93 482.15,-136.2"/>
<text text-anchor="middle" x="579.46" y="-145.7" font-family="Times,serif" font-size="14.00">idGlowingGrass1_prop_idImmovable</text>
</g>
<!-- idGlowingArea1 -->
<g id="node5" class="node">
<title>idGlowingArea1</title>
<ellipse fill="none" stroke="black" cx="715.96" cy="-106.5" rx="72.85" ry="18"/>
<text text-anchor="middle" x="715.96" y="-101.45" font-family="Times,serif" font-size="14.00">idGlowingArea1</text>
</g>
<!-- idGlowingGrass1&#45;&gt;idGlowingArea1 -->
<g id="edge4" class="edge">
<title>idGlowingGrass1&#45;&gt;idGlowingArea1</title>
<path fill="none" stroke="black" d="M462.53,-192.88C539.14,-190.41 651.32,-182.71 686.96,-159 695.65,-153.22 702.01,-143.9 706.52,-134.77"/>
<polygon fill="black" stroke="black" points="710.1,-136.31 710.86,-125.74 703.68,-133.53 710.1,-136.31"/>
<text text-anchor="middle" x="719.58" y="-145.7" font-family="Times,serif" font-size="14.00">isNear</text>
</g>
<!-- glowing -->
<g id="node6" class="node">
<title>glowing</title>
<ellipse fill="none" stroke="black" cx="605.96" cy="-18" rx="41.12" ry="18"/>
<text text-anchor="middle" x="605.96" y="-12.95" font-family="Times,serif" font-size="14.00">glowing</text>
</g>
<!-- idGlowingArea1&#45;&gt;glowing -->
<g id="edge5" class="edge">
<title>idGlowingArea1&#45;&gt;glowing</title>
<path fill="none" stroke="black" d="M650.9,-98.15C634.19,-93.01 617.97,-84.51 607.46,-70.5 602.44,-63.81 600.88,-55.14 600.93,-46.82"/>
<polygon fill="black" stroke="black" points="604.5,-47.18 601.82,-36.93 597.52,-46.61 604.5,-47.18"/>
<text text-anchor="middle" x="706.21" y="-57.2" font-family="Times,serif" font-size="14.00">idGlowingArea1_prop_idDescriptor</text>
</g>
<!-- idPlayerLeftHand -->
<g id="node7" class="node">
<title>idPlayerLeftHand</title>
<ellipse fill="none" stroke="black" cx="825.96" cy="-18" rx="76.94" ry="18"/>
<text text-anchor="middle" x="825.96" y="-12.95" font-family="Times,serif" font-size="14.00">idPlayerLeftHand</text>
</g>
<!-- idGlowingArea1&#45;&gt;idPlayerLeftHand -->
<g id="edge6" class="edge">
<title>idGlowingArea1&#45;&gt;idPlayerLeftHand</title>
<path fill="none" stroke="black" d="M766.53,-93.11C779.96,-87.89 793.6,-80.6 803.96,-70.5 810.61,-64.01 815.37,-55.18 818.71,-46.67"/>
<polygon fill="black" stroke="black" points="822.34,-47.85 822.23,-37.25 815.71,-45.61 822.34,-47.85"/>
<text text-anchor="middle" x="842.33" y="-57.2" font-family="Times,serif" font-size="14.00">isSouthOf</text>
</g>
</g>
</svg>
