<?xml version="1.0" encoding="UTF-8" standalone="no"?>
<!DOCTYPE svg PUBLIC "-//W3C//DTD SVG 1.1//EN"
 "http://www.w3.org/Graphics/SVG/1.1/DTD/svg11.dtd">
<!-- Generated by graphviz version 8.1.0 (20230707.0739)
 -->
<!-- Pages: 1 -->
<svg width="779pt" height="221pt"
 viewBox="0.00 0.00 778.50 221.00" xmlns="http://www.w3.org/2000/svg" xmlns:xlink="http://www.w3.org/1999/xlink">
<g id="graph0" class="graph" transform="scale(1 1) rotate(0) translate(4 217)">
<polygon fill="white" stroke="none" points="-4,4 -4,-217 774.5,-217 774.5,4 -4,4"/>
<!-- idGrass1 -->
<g id="node1" class="node">
<title>idGrass1</title>
<ellipse fill="none" stroke="black" cx="259" cy="-195" rx="43.67" ry="18"/>
<text text-anchor="middle" x="259" y="-189.95" font-family="Times,serif" font-size="14.00">idGrass1</text>
</g>
<!-- tall -->
<g id="node2" class="node">
<title>tall</title>
<ellipse fill="none" stroke="black" cx="27" cy="-106.5" rx="27" ry="18"/>
<text text-anchor="middle" x="27" y="-101.45" font-family="Times,serif" font-size="14.00">tall</text>
</g>
<!-- idGrass1&#45;&gt;tall -->
<g id="edge1" class="edge">
<title>idGrass1&#45;&gt;tall</title>
<path fill="none" stroke="black" d="M215.48,-192.2C160.11,-189.05 68.63,-180.64 43.5,-159 36.6,-153.06 32.56,-144.22 30.2,-135.54"/>
<polygon fill="black" stroke="black" points="33.45,-134.95 28.03,-125.85 26.59,-136.35 33.45,-134.95"/>
<text text-anchor="middle" x="110.75" y="-145.7" font-family="Times,serif" font-size="14.00">idGrass1_prop_idHeight</text>
</g>
<!-- green -->
<g id="node3" class="node">
<title>green</title>
<ellipse fill="none" stroke="black" cx="184" cy="-106.5" rx="31.39" ry="18"/>
<text text-anchor="middle" x="184" y="-101.45" font-family="Times,serif" font-size="14.00">green</text>
</g>
<!-- idGrass1&#45;&gt;green -->
<g id="edge2" class="edge">
<title>idGrass1&#45;&gt;green</title>
<path fill="none" stroke="black" d="M221.68,-185.11C207.95,-179.86 193.76,-171.67 185.5,-159 181,-152.1 179.54,-143.49 179.52,-135.31"/>
<polygon fill="black" stroke="black" points="183.07,-135.81 180.24,-125.6 176.08,-135.35 183.07,-135.81"/>
<text text-anchor="middle" x="249.75" y="-145.7" font-family="Times,serif" font-size="14.00">idGrass1_prop_idColor</text>
</g>
<!-- uncountable -->
<g id="node4" class="node">
<title>uncountable</title>
<ellipse fill="none" stroke="black" cx="335" cy="-106.5" rx="55.96" ry="18"/>
<text text-anchor="middle" x="335" y="-101.45" font-family="Times,serif" font-size="14.00">uncountable</text>
</g>
<!-- idGrass1&#45;&gt;uncountable -->
<g id="edge3" class="edge">
<title>idGrass1&#45;&gt;uncountable</title>
<path fill="none" stroke="black" d="M286.42,-180.54C295.8,-174.9 305.73,-167.63 313,-159 318.9,-151.99 323.44,-143.17 326.81,-134.81"/>
<polygon fill="black" stroke="black" points="330.38,-136.24 330.49,-125.65 323.8,-133.86 330.38,-136.24"/>
<text text-anchor="middle" x="404" y="-145.7" font-family="Times,serif" font-size="14.00">idGrass1_prop_idArticleType</text>
</g>
<!-- idRockPile1 -->
<g id="node5" class="node">
<title>idRockPile1</title>
<ellipse fill="none" stroke="black" cx="520" cy="-106.5" rx="56.47" ry="18"/>
<text text-anchor="middle" x="520" y="-101.45" font-family="Times,serif" font-size="14.00">idRockPile1</text>
</g>
<!-- idGrass1&#45;&gt;idRockPile1 -->
<g id="edge4" class="edge">
<title>idGrass1&#45;&gt;idRockPile1</title>
<path fill="none" stroke="black" d="M302.21,-191.77C360.16,-188.06 459.21,-178.94 489,-159 497.92,-153.03 504.67,-143.55 509.56,-134.34"/>
<polygon fill="black" stroke="black" points="513.04,-136.17 514.15,-125.63 506.71,-133.18 513.04,-136.17"/>
<text text-anchor="middle" x="528.25" y="-145.7" font-family="Times,serif" font-size="14.00">isEastOf</text>
</g>
<!-- grey -->
<g id="node6" class="node">
<title>grey</title>
<ellipse fill="none" stroke="black" cx="435" cy="-18" rx="27.3" ry="18"/>
<text text-anchor="middle" x="435" y="-12.95" font-family="Times,serif" font-size="14.00">grey</text>
</g>
<!-- idRockPile1&#45;&gt;grey -->
<g id="edge5" class="edge">
<title>idRockPile1&#45;&gt;grey</title>
<path fill="none" stroke="black" d="M471.02,-97.23C455.88,-92.12 440.83,-83.86 431.75,-70.5 426.99,-63.49 426.19,-54.63 427.07,-46.25"/>
<polygon fill="black" stroke="black" points="430.65,-47.16 429.01,-36.7 423.76,-45.9 430.65,-47.16"/>
<text text-anchor="middle" x="505.12" y="-57.2" font-family="Times,serif" font-size="14.00">idRockPile1_prop_idColor</text>
</g>
<!-- yes -->
<g id="node7" class="node">
<title>yes</title>
<ellipse fill="none" stroke="black" cx="604" cy="-18" rx="27" ry="18"/>
<text text-anchor="middle" x="604" y="-12.95" font-family="Times,serif" font-size="14.00">yes</text>
</g>
<!-- idRockPile1&#45;&gt;yes -->
<g id="edge6" class="edge">
<title>idRockPile1&#45;&gt;yes</title>
<path fill="none" stroke="black" d="M553.43,-91.76C563.61,-86.32 574.17,-79.25 582,-70.5 588.2,-63.57 592.84,-54.64 596.22,-46.16"/>
<polygon fill="black" stroke="black" points="599.83,-47.44 599.84,-36.85 593.22,-45.12 599.83,-47.44"/>
<text text-anchor="middle" x="681.25" y="-57.2" font-family="Times,serif" font-size="14.00">idRockPile1_prop_idImmovable</text>
</g>
</g>
</svg>
