<?xml version="1.0" encoding="UTF-8" standalone="no"?>
<!DOCTYPE svg PUBLIC "-//W3C//DTD SVG 1.1//EN"
 "http://www.w3.org/Graphics/SVG/1.1/DTD/svg11.dtd">
<!-- Generated by graphviz version 8.1.0 (20230707.0739)
 -->
<!-- Pages: 1 -->
<svg width="572pt" height="221pt"
 viewBox="0.00 0.00 571.80 221.00" xmlns="http://www.w3.org/2000/svg" xmlns:xlink="http://www.w3.org/1999/xlink">
<g id="graph0" class="graph" transform="scale(1 1) rotate(0) translate(4 217)">
<polygon fill="white" stroke="none" points="-4,4 -4,-217 567.8,-217 567.8,4 -4,4"/>
<!-- idPebble1 -->
<g id="node1" class="node">
<title>idPebble1</title>
<ellipse fill="none" stroke="black" cx="184.3" cy="-195" rx="47.77" ry="18"/>
<text text-anchor="middle" x="184.3" y="-189.95" font-family="Times,serif" font-size="14.00">idPebble1</text>
</g>
<!-- grey -->
<g id="node2" class="node">
<title>grey</title>
<ellipse fill="none" stroke="black" cx="27.3" cy="-106.5" rx="27.3" ry="18"/>
<text text-anchor="middle" x="27.3" y="-101.45" font-family="Times,serif" font-size="14.00">grey</text>
</g>
<!-- idPebble1&#45;&gt;grey -->
<g id="edge1" class="edge">
<title>idPebble1&#45;&gt;grey</title>
<path fill="none" stroke="black" d="M136.49,-192.64C107.39,-189.42 71.23,-180.82 46.8,-159 39.8,-152.75 35.3,-143.73 32.42,-134.98"/>
<polygon fill="black" stroke="black" points="35.61,-134.38 29.63,-125.64 28.85,-136.2 35.61,-134.38"/>
<text text-anchor="middle" x="114.05" y="-145.7" font-family="Times,serif" font-size="14.00">idPebble1_prop_idColor</text>
</g>
<!-- smooth -->
<g id="node3" class="node">
<title>smooth</title>
<ellipse fill="none" stroke="black" cx="184.3" cy="-106.5" rx="38.56" ry="18"/>
<text text-anchor="middle" x="184.3" y="-101.45" font-family="Times,serif" font-size="14.00">smooth</text>
</g>
<!-- idPebble1&#45;&gt;smooth -->
<g id="edge2" class="edge">
<title>idPebble1&#45;&gt;smooth</title>
<path fill="none" stroke="black" d="M184.3,-176.91C184.3,-165.14 184.3,-149.23 184.3,-135.61"/>
<polygon fill="black" stroke="black" points="187.8,-135.85 184.3,-125.85 180.8,-135.85 187.8,-135.85"/>
<text text-anchor="middle" x="264.17" y="-145.7" font-family="Times,serif" font-size="14.00">idPebble1_prop_idDescriptor</text>
</g>
<!-- idGlowingArea1 -->
<g id="node4" class="node">
<title>idGlowingArea1</title>
<ellipse fill="none" stroke="black" cx="367.3" cy="-106.5" rx="72.85" ry="18"/>
<text text-anchor="middle" x="367.3" y="-101.45" font-family="Times,serif" font-size="14.00">idGlowingArea1</text>
</g>
<!-- idPebble1&#45;&gt;idGlowingArea1 -->
<g id="edge3" class="edge">
<title>idPebble1&#45;&gt;idGlowingArea1</title>
<path fill="none" stroke="black" d="M229.75,-188.82C270.99,-183.29 327.93,-173.35 345.3,-159 352.65,-152.92 357.6,-143.94 360.9,-135.17"/>
<polygon fill="black" stroke="black" points="364.51,-136.38 364.18,-125.79 357.83,-134.28 364.51,-136.38"/>
<text text-anchor="middle" x="382.8" y="-145.7" font-family="Times,serif" font-size="14.00">isWestOf</text>
</g>
<!-- glowing -->
<g id="node5" class="node">
<title>glowing</title>
<ellipse fill="none" stroke="black" cx="367.3" cy="-18" rx="41.12" ry="18"/>
<text text-anchor="middle" x="367.3" y="-12.95" font-family="Times,serif" font-size="14.00">glowing</text>
</g>
<!-- idGlowingArea1&#45;&gt;glowing -->
<g id="edge4" class="edge">
<title>idGlowingArea1&#45;&gt;glowing</title>
<path fill="none" stroke="black" d="M367.3,-88.41C367.3,-76.64 367.3,-60.73 367.3,-47.11"/>
<polygon fill="black" stroke="black" points="370.8,-47.35 367.3,-37.35 363.8,-47.35 370.8,-47.35"/>
<text text-anchor="middle" x="465.55" y="-57.2" font-family="Times,serif" font-size="14.00">idGlowingArea1_prop_idDescriptor</text>
</g>
</g>
</svg>
