<?xml version="1.0" encoding="UTF-8" standalone="no"?>
<!DOCTYPE svg PUBLIC "-//W3C//DTD SVG 1.1//EN"
 "http://www.w3.org/Graphics/SVG/1.1/DTD/svg11.dtd">
<!-- Generated by graphviz version 8.1.0 (20230707.0739)
 -->
<!-- Pages: 1 -->
<svg width="239pt" height="221pt"
 viewBox="0.00 0.00 238.95 221.00" xmlns="http://www.w3.org/2000/svg" xmlns:xlink="http://www.w3.org/1999/xlink">
<g id="graph0" class="graph" transform="scale(1 1) rotate(0) translate(4 217)">
<polygon fill="white" stroke="none" points="-4,4 -4,-217 234.95,-217 234.95,4 -4,4"/>
<!-- idPlayerBackside -->
<g id="node1" class="node">
<title>idPlayerBackside</title>
<ellipse fill="none" stroke="black" cx="96.3" cy="-195" rx="75.41" ry="18"/>
<text text-anchor="middle" x="96.3" y="-189.95" font-family="Times,serif" font-size="14.00">idPlayerBackside</text>
</g>
<!-- idCave1 -->
<g id="node2" class="node">
<title>idCave1</title>
<ellipse fill="none" stroke="black" cx="96.3" cy="-106.5" rx="41.63" ry="18"/>
<text text-anchor="middle" x="96.3" y="-101.45" font-family="Times,serif" font-size="14.00">idCave1</text>
</g>
<!-- idPlayerBackside&#45;&gt;idCave1 -->
<g id="edge1" class="edge">
<title>idPlayerBackside&#45;&gt;idCave1</title>
<path fill="none" stroke="black" d="M96.3,-176.91C96.3,-165.14 96.3,-149.23 96.3,-135.61"/>
<polygon fill="black" stroke="black" points="99.8,-135.85 96.3,-125.85 92.8,-135.85 99.8,-135.85"/>
<text text-anchor="middle" x="123.67" y="-145.7" font-family="Times,serif" font-size="14.00">isSouthOf</text>
</g>
<!-- dark -->
<g id="node3" class="node">
<title>dark</title>
<ellipse fill="none" stroke="black" cx="27.3" cy="-18" rx="27.3" ry="18"/>
<text text-anchor="middle" x="27.3" y="-12.95" font-family="Times,serif" font-size="14.00">dark</text>
</g>
<!-- idCave1&#45;&gt;dark -->
<g id="edge2" class="edge">
<title>idCave1&#45;&gt;dark</title>
<path fill="none" stroke="black" d="M61.85,-96.18C48.97,-90.86 35.63,-82.72 28.05,-70.5 23.75,-63.58 22.42,-55.07 22.48,-46.97"/>
<polygon fill="black" stroke="black" points="26.05,-47.25 23.34,-37.01 19.07,-46.7 26.05,-47.25"/>
<text text-anchor="middle" x="86.42" y="-57.2" font-family="Times,serif" font-size="14.00">idCave1_prop_idTint</text>
</g>
<!-- idRockyArea1 -->
<g id="node4" class="node">
<title>idRockyArea1</title>
<ellipse fill="none" stroke="black" cx="166.3" cy="-18" rx="64.66" ry="18"/>
<text text-anchor="middle" x="166.3" y="-12.95" font-family="Times,serif" font-size="14.00">idRockyArea1</text>
</g>
<!-- idCave1&#45;&gt;idRockyArea1 -->
<g id="edge3" class="edge">
<title>idCave1&#45;&gt;idRockyArea1</title>
<path fill="none" stroke="black" d="M120.4,-91.68C128.79,-85.96 137.75,-78.73 144.3,-70.5 150,-63.33 154.49,-54.47 157.88,-46.12"/>
<polygon fill="black" stroke="black" points="161.43,-47.59 161.6,-37 154.86,-45.18 161.43,-47.59"/>
<text text-anchor="middle" x="176.55" y="-57.2" font-family="Times,serif" font-size="14.00">isEastOf</text>
</g>
</g>
</svg>
