<?xml version="1.0" encoding="UTF-8" standalone="no"?>
<!DOCTYPE svg PUBLIC "-//W3C//DTD SVG 1.1//EN"
 "http://www.w3.org/Graphics/SVG/1.1/DTD/svg11.dtd">
<!-- Generated by graphviz version 8.1.0 (20230707.0739)
 -->
<!-- Pages: 1 -->
<svg width="663pt" height="221pt"
 viewBox="0.00 0.00 663.07 221.00" xmlns="http://www.w3.org/2000/svg" xmlns:xlink="http://www.w3.org/1999/xlink">
<g id="graph0" class="graph" transform="scale(1 1) rotate(0) translate(4 217)">
<polygon fill="white" stroke="none" points="-4,4 -4,-217 659.07,-217 659.07,4 -4,4"/>
<!-- idPlayer -->
<g id="node1" class="node">
<title>idPlayer</title>
<ellipse fill="none" stroke="black" cx="212.32" cy="-195" rx="41.63" ry="18"/>
<text text-anchor="middle" x="212.32" y="-189.95" font-family="Times,serif" font-size="14.00">idPlayer</text>
</g>
<!-- false -->
<g id="node2" class="node">
<title>false</title>
<ellipse fill="none" stroke="black" cx="28.32" cy="-106.5" rx="28.32" ry="18"/>
<text text-anchor="middle" x="28.32" y="-101.45" font-family="Times,serif" font-size="14.00">false</text>
</g>
<!-- idPlayer&#45;&gt;false -->
<g id="edge1" class="edge">
<title>idPlayer&#45;&gt;false</title>
<path fill="none" stroke="black" d="M170.94,-192.24C121.52,-189.16 43.24,-180.88 25.07,-159 19.52,-152.31 18.64,-143.3 19.69,-134.68"/>
<polygon fill="black" stroke="black" points="23.27,-135.68 21.85,-125.18 16.41,-134.27 23.27,-135.68"/>
<text text-anchor="middle" x="105.95" y="-145.7" font-family="Times,serif" font-size="14.00">idPlayer_prop_idBottleFound</text>
</g>
<!-- idRockyArea1 -->
<g id="node3" class="node">
<title>idRockyArea1</title>
<ellipse fill="none" stroke="black" cx="175.32" cy="-106.5" rx="64.66" ry="18"/>
<text text-anchor="middle" x="175.32" y="-101.45" font-family="Times,serif" font-size="14.00">idRockyArea1</text>
</g>
<!-- idPlayer&#45;&gt;idRockyArea1 -->
<g id="edge2" class="edge">
<title>idPlayer&#45;&gt;idRockyArea1</title>
<path fill="none" stroke="black" d="M204.99,-176.83C200.72,-166.82 195.22,-153.94 190.32,-142.5 189.23,-139.95 188.09,-137.29 186.95,-134.63"/>
<polygon fill="black" stroke="black" points="189.8,-133.4 182.65,-125.59 183.37,-136.16 189.8,-133.4"/>
<text text-anchor="middle" x="220.57" y="-145.7" font-family="Times,serif" font-size="14.00">isEastOf</text>
</g>
<!-- idBottle1 -->
<g id="node5" class="node">
<title>idBottle1</title>
<ellipse fill="none" stroke="black" cx="343.32" cy="-106.5" rx="45.21" ry="18"/>
<text text-anchor="middle" x="343.32" y="-101.45" font-family="Times,serif" font-size="14.00">idBottle1</text>
</g>
<!-- idPlayer&#45;&gt;idBottle1 -->
<g id="edge3" class="edge">
<title>idPlayer&#45;&gt;idBottle1</title>
<path fill="none" stroke="black" d="M234.54,-179.33C255.68,-165.37 287.7,-144.23 311.53,-128.49"/>
<polygon fill="black" stroke="black" points="313.13,-130.97 319.55,-122.54 309.27,-125.13 313.13,-130.97"/>
<text text-anchor="middle" x="313.57" y="-145.7" font-family="Times,serif" font-size="14.00">isEastOf</text>
</g>
<!-- rocky -->
<g id="node4" class="node">
<title>rocky</title>
<ellipse fill="none" stroke="black" cx="135.32" cy="-18" rx="31.9" ry="18"/>
<text text-anchor="middle" x="135.32" y="-12.95" font-family="Times,serif" font-size="14.00">rocky</text>
</g>
<!-- idRockyArea1&#45;&gt;rocky -->
<g id="edge4" class="edge">
<title>idRockyArea1&#45;&gt;rocky</title>
<path fill="none" stroke="black" d="M164.51,-88.37C161.2,-82.78 157.67,-76.47 154.82,-70.5 151.13,-62.79 147.65,-54.19 144.67,-46.25"/>
<polygon fill="black" stroke="black" points="147.65,-45.2 140.95,-37 141.07,-47.59 147.65,-45.2"/>
<text text-anchor="middle" x="247.57" y="-57.2" font-family="Times,serif" font-size="14.00">idRockyArea1_prop_idDescriptor</text>
</g>
<!-- shiny -->
<g id="node6" class="node">
<title>shiny</title>
<ellipse fill="none" stroke="black" cx="343.32" cy="-18" rx="30.88" ry="18"/>
<text text-anchor="middle" x="343.32" y="-12.95" font-family="Times,serif" font-size="14.00">shiny</text>
</g>
<!-- idBottle1&#45;&gt;shiny -->
<g id="edge5" class="edge">
<title>idBottle1&#45;&gt;shiny</title>
<path fill="none" stroke="black" d="M343.32,-88.41C343.32,-76.64 343.32,-60.73 343.32,-47.11"/>
<polygon fill="black" stroke="black" points="346.82,-47.35 343.32,-37.35 339.82,-47.35 346.82,-47.35"/>
<text text-anchor="middle" x="428.07" y="-57.2" font-family="Times,serif" font-size="14.00">idBottle1_prop_idDescriptor_1</text>
</g>
<!-- brown -->
<g id="node7" class="node">
<title>brown</title>
<ellipse fill="none" stroke="black" cx="536.32" cy="-18" rx="34.46" ry="18"/>
<text text-anchor="middle" x="536.32" y="-12.95" font-family="Times,serif" font-size="14.00">brown</text>
</g>
<!-- idBottle1&#45;&gt;brown -->
<g id="edge6" class="edge">
<title>idBottle1&#45;&gt;brown</title>
<path fill="none" stroke="black" d="M387.05,-101.18C431.09,-96.03 495.19,-86.12 514.32,-70.5 521.71,-64.47 526.67,-55.5 529.97,-46.72"/>
<polygon fill="black" stroke="black" points="533.58,-47.92 533.23,-37.33 526.9,-45.82 533.58,-47.92"/>
<text text-anchor="middle" x="590.2" y="-57.2" font-family="Times,serif" font-size="14.00">idBottle1_prop_idColor</text>
</g>
</g>
</svg>
