<?xml version="1.0" encoding="UTF-8" standalone="no"?>
<!DOCTYPE svg PUBLIC "-//W3C//DTD SVG 1.1//EN"
 "http://www.w3.org/Graphics/SVG/1.1/DTD/svg11.dtd">
<!-- Generated by graphviz version 8.1.0 (20230707.0739)
 -->
<!-- Pages: 1 -->
<svg width="623pt" height="221pt"
 viewBox="0.00 0.00 623.21 221.00" xmlns="http://www.w3.org/2000/svg" xmlns:xlink="http://www.w3.org/1999/xlink">
<g id="graph0" class="graph" transform="scale(1 1) rotate(0) translate(4 217)">
<polygon fill="white" stroke="none" points="-4,4 -4,-217 619.21,-217 619.21,4 -4,4"/>
<!-- idPlayerLeftHand -->
<g id="node1" class="node">
<title>idPlayerLeftHand</title>
<ellipse fill="none" stroke="black" cx="360.96" cy="-195" rx="76.94" ry="18"/>
<text text-anchor="middle" x="360.96" y="-189.95" font-family="Times,serif" font-size="14.00">idPlayerLeftHand</text>
</g>
<!-- idLocalLeft -->
<g id="node2" class="node">
<title>idLocalLeft</title>
<ellipse fill="none" stroke="black" cx="104.96" cy="-106.5" rx="54.42" ry="18"/>
<text text-anchor="middle" x="104.96" y="-101.45" font-family="Times,serif" font-size="14.00">idLocalLeft</text>
</g>
<!-- idPlayerLeftHand&#45;&gt;idLocalLeft -->
<g id="edge1" class="edge">
<title>idPlayerLeftHand&#45;&gt;idLocalLeft</title>
<path fill="none" stroke="black" d="M284.22,-192.82C220.7,-190.15 137.16,-182.16 113.46,-159 107.24,-152.92 104.49,-144.17 103.48,-135.59"/>
<polygon fill="black" stroke="black" points="106.94,-135.51 103.01,-125.67 99.94,-135.81 106.94,-135.51"/>
<text text-anchor="middle" x="210.71" y="-145.7" font-family="Times,serif" font-size="14.00">idPlayerLeftHand_prop_idLocation</text>
</g>
<!-- idGlowingGrass1 -->
<g id="node3" class="node">
<title>idGlowingGrass1</title>
<ellipse fill="none" stroke="black" cx="287.96" cy="-106.5" rx="75.92" ry="18"/>
<text text-anchor="middle" x="287.96" y="-101.45" font-family="Times,serif" font-size="14.00">idGlowingGrass1</text>
</g>
<!-- idPlayerLeftHand&#45;&gt;idGlowingGrass1 -->
<g id="edge2" class="edge">
<title>idPlayerLeftHand&#45;&gt;idGlowingGrass1</title>
<path fill="none" stroke="black" d="M341.33,-177.33C335.24,-171.77 328.69,-165.36 323.21,-159 316.42,-151.13 309.77,-141.93 304.11,-133.5"/>
<polygon fill="black" stroke="black" points="306.58,-131.88 298.18,-125.42 300.72,-135.71 306.58,-131.88"/>
<text text-anchor="middle" x="351.33" y="-145.7" font-family="Times,serif" font-size="14.00">isNorthOf</text>
</g>
<!-- idCave1 -->
<g id="node6" class="node">
<title>idCave1</title>
<ellipse fill="none" stroke="black" cx="477.96" cy="-106.5" rx="41.63" ry="18"/>
<text text-anchor="middle" x="477.96" y="-101.45" font-family="Times,serif" font-size="14.00">idCave1</text>
</g>
<!-- idPlayerLeftHand&#45;&gt;idCave1 -->
<g id="edge3" class="edge">
<title>idPlayerLeftHand&#45;&gt;idCave1</title>
<path fill="none" stroke="black" d="M371.21,-176.96C378.49,-165.99 389.09,-152.05 401.21,-142.5 411.54,-134.35 424.07,-127.61 435.99,-122.3"/>
<polygon fill="black" stroke="black" points="436.94,-125.28 444.79,-118.17 434.22,-118.83 436.94,-125.28"/>
<text text-anchor="middle" x="429.33" y="-145.7" font-family="Times,serif" font-size="14.00">isSouthOf</text>
</g>
<!-- uncountable -->
<g id="node4" class="node">
<title>uncountable</title>
<ellipse fill="none" stroke="black" cx="55.96" cy="-18" rx="55.96" ry="18"/>
<text text-anchor="middle" x="55.96" y="-12.95" font-family="Times,serif" font-size="14.00">uncountable</text>
</g>
<!-- idGlowingGrass1&#45;&gt;uncountable -->
<g id="edge4" class="edge">
<title>idGlowingGrass1&#45;&gt;uncountable</title>
<path fill="none" stroke="black" d="M223.77,-96.57C163.11,-87.88 80.51,-75.31 74.71,-70.5 67.52,-64.54 63.09,-55.59 60.36,-46.81"/>
<polygon fill="black" stroke="black" points="63.58,-46.27 57.79,-37.4 56.78,-47.94 63.58,-46.27"/>
<text text-anchor="middle" x="179.58" y="-57.2" font-family="Times,serif" font-size="14.00">idGlowingGrass1_prop_idArticleType</text>
</g>
<!-- glowing -->
<g id="node5" class="node">
<title>glowing</title>
<ellipse fill="none" stroke="black" cx="287.96" cy="-18" rx="41.12" ry="18"/>
<text text-anchor="middle" x="287.96" y="-12.95" font-family="Times,serif" font-size="14.00">glowing</text>
</g>
<!-- idGlowingGrass1&#45;&gt;glowing -->
<g id="edge5" class="edge">
<title>idGlowingGrass1&#45;&gt;glowing</title>
<path fill="none" stroke="black" d="M287.96,-88.41C287.96,-76.64 287.96,-60.73 287.96,-47.11"/>
<polygon fill="black" stroke="black" points="291.46,-47.35 287.96,-37.35 284.46,-47.35 291.46,-47.35"/>
<text text-anchor="middle" x="388.46" y="-57.2" font-family="Times,serif" font-size="14.00">idGlowingGrass1_prop_idDescriptor</text>
</g>
<!-- idCave1&#45;&gt;idPlayerLeftHand -->
<g id="edge7" class="edge">
<title>idCave1&#45;&gt;idPlayerLeftHand</title>
<path fill="none" stroke="black" d="M474.31,-124.83C471.15,-135.92 465.54,-149.89 455.96,-159 447.47,-167.07 436.97,-173.3 426.08,-178.12"/>
<polygon fill="black" stroke="black" points="424.99,-175.19 417.01,-182.15 427.59,-181.68 424.99,-175.19"/>
<text text-anchor="middle" x="495.33" y="-145.7" font-family="Times,serif" font-size="14.00">isNorthOf</text>
</g>
<!-- dark -->
<g id="node7" class="node">
<title>dark</title>
<ellipse fill="none" stroke="black" cx="511.96" cy="-18" rx="27.3" ry="18"/>
<text text-anchor="middle" x="511.96" y="-12.95" font-family="Times,serif" font-size="14.00">dark</text>
</g>
<!-- idCave1&#45;&gt;dark -->
<g id="edge6" class="edge">
<title>idCave1&#45;&gt;dark</title>
<path fill="none" stroke="black" d="M484.67,-88.41C489.46,-76.25 495.97,-59.66 501.44,-45.76"/>
<polygon fill="black" stroke="black" points="504.97,-47.35 505.37,-36.76 498.45,-44.79 504.97,-47.35"/>
<text text-anchor="middle" x="557.08" y="-57.2" font-family="Times,serif" font-size="14.00">idCave1_prop_idTint</text>
</g>
</g>
</svg>
