<?xml version="1.0" encoding="UTF-8" standalone="no"?>
<!DOCTYPE svg PUBLIC "-//W3C//DTD SVG 1.1//EN"
 "http://www.w3.org/Graphics/SVG/1.1/DTD/svg11.dtd">
<!-- Generated by graphviz version 8.1.0 (20230707.0739)
 -->
<!-- Pages: 1 -->
<svg width="889pt" height="221pt"
 viewBox="0.00 0.00 888.80 221.00" xmlns="http://www.w3.org/2000/svg" xmlns:xlink="http://www.w3.org/1999/xlink">
<g id="graph0" class="graph" transform="scale(1 1) rotate(0) translate(4 217)">
<polygon fill="white" stroke="none" points="-4,4 -4,-217 884.8,-217 884.8,4 -4,4"/>
<!-- idRockPile1 -->
<g id="node1" class="node">
<title>idRockPile1</title>
<ellipse fill="none" stroke="black" cx="392.3" cy="-195" rx="56.47" ry="18"/>
<text text-anchor="middle" x="392.3" y="-189.95" font-family="Times,serif" font-size="14.00">idRockPile1</text>
</g>
<!-- grey -->
<g id="node2" class="node">
<title>grey</title>
<ellipse fill="none" stroke="black" cx="27.3" cy="-106.5" rx="27.3" ry="18"/>
<text text-anchor="middle" x="27.3" y="-101.45" font-family="Times,serif" font-size="14.00">grey</text>
</g>
<!-- idRockPile1&#45;&gt;grey -->
<g id="edge1" class="edge">
<title>idRockPile1&#45;&gt;grey</title>
<path fill="none" stroke="black" d="M335.55,-194.39C251.65,-193.93 99.62,-188.84 55.05,-159 46.34,-153.17 40.14,-143.67 35.85,-134.42"/>
<polygon fill="black" stroke="black" points="38.75,-133.24 31.77,-125.27 32.25,-135.85 38.75,-133.24"/>
<text text-anchor="middle" x="128.42" y="-145.7" font-family="Times,serif" font-size="14.00">idRockPile1_prop_idColor</text>
</g>
<!-- bumpy -->
<g id="node3" class="node">
<title>bumpy</title>
<ellipse fill="none" stroke="black" cx="196.3" cy="-106.5" rx="37.02" ry="18"/>
<text text-anchor="middle" x="196.3" y="-101.45" font-family="Times,serif" font-size="14.00">bumpy</text>
</g>
<!-- idRockPile1&#45;&gt;bumpy -->
<g id="edge2" class="edge">
<title>idRockPile1&#45;&gt;bumpy</title>
<path fill="none" stroke="black" d="M338.43,-189.06C293.52,-183.92 234.04,-174.44 215.8,-159 208.64,-152.94 204.1,-143.96 201.23,-135.19"/>
<polygon fill="black" stroke="black" points="204.42,-134.58 198.49,-125.81 197.66,-136.37 204.42,-134.58"/>
<text text-anchor="middle" x="302.55" y="-145.7" font-family="Times,serif" font-size="14.00">idRockPile1_prop_idDescriptor</text>
</g>
<!-- yes -->
<g id="node4" class="node">
<title>yes</title>
<ellipse fill="none" stroke="black" cx="392.3" cy="-106.5" rx="27" ry="18"/>
<text text-anchor="middle" x="392.3" y="-101.45" font-family="Times,serif" font-size="14.00">yes</text>
</g>
<!-- idRockPile1&#45;&gt;yes -->
<g id="edge3" class="edge">
<title>idRockPile1&#45;&gt;yes</title>
<path fill="none" stroke="black" d="M392.3,-176.91C392.3,-165.14 392.3,-149.23 392.3,-135.61"/>
<polygon fill="black" stroke="black" points="395.8,-135.85 392.3,-125.85 388.8,-135.85 395.8,-135.85"/>
<text text-anchor="middle" x="481.55" y="-145.7" font-family="Times,serif" font-size="14.00">idRockPile1_prop_idImmovable</text>
</g>
<!-- idRockyArea1 -->
<g id="node5" class="node">
<title>idRockyArea1</title>
<ellipse fill="none" stroke="black" cx="574.3" cy="-106.5" rx="64.66" ry="18"/>
<text text-anchor="middle" x="574.3" y="-101.45" font-family="Times,serif" font-size="14.00">idRockyArea1</text>
</g>
<!-- idRockPile1&#45;&gt;idRockyArea1 -->
<g id="edge4" class="edge">
<title>idRockPile1&#45;&gt;idRockyArea1</title>
<path fill="none" stroke="black" d="M447.2,-190.66C494.04,-186.55 556.29,-177.67 572.3,-159 577.8,-152.58 579.52,-143.87 579.48,-135.45"/>
<polygon fill="black" stroke="black" points="582.91,-135.43 578.61,-125.75 575.94,-136 582.91,-135.43"/>
<text text-anchor="middle" x="596.92" y="-145.7" font-family="Times,serif" font-size="14.00">isNear</text>
</g>
<!-- idClearing1 -->
<g id="node7" class="node">
<title>idClearing1</title>
<ellipse fill="none" stroke="black" cx="711.3" cy="-106.5" rx="54.42" ry="18"/>
<text text-anchor="middle" x="711.3" y="-101.45" font-family="Times,serif" font-size="14.00">idClearing1</text>
</g>
<!-- idRockPile1&#45;&gt;idClearing1 -->
<g id="edge5" class="edge">
<title>idRockPile1&#45;&gt;idClearing1</title>
<path fill="none" stroke="black" d="M447.47,-190.88C494.04,-186.98 561.95,-178.28 618.3,-159 639.66,-151.69 661.84,-139.6 679.19,-128.98"/>
<polygon fill="black" stroke="black" points="680.68,-131.55 687.29,-123.26 676.96,-125.62 680.68,-131.55"/>
<text text-anchor="middle" x="678.8" y="-145.7" font-family="Times,serif" font-size="14.00">isWestOf</text>
</g>
<!-- rocky -->
<g id="node6" class="node">
<title>rocky</title>
<ellipse fill="none" stroke="black" cx="388.3" cy="-18" rx="31.9" ry="18"/>
<text text-anchor="middle" x="388.3" y="-12.95" font-family="Times,serif" font-size="14.00">rocky</text>
</g>
<!-- idRockyArea1&#45;&gt;rocky -->
<g id="edge6" class="edge">
<title>idRockyArea1&#45;&gt;rocky</title>
<path fill="none" stroke="black" d="M512.55,-100.91C467.52,-96.23 411.69,-87.2 395.8,-70.5 389.82,-64.22 387.27,-55.41 386.42,-46.86"/>
<polygon fill="black" stroke="black" points="389.89,-46.89 386.13,-36.98 382.89,-47.07 389.89,-46.89"/>
<text text-anchor="middle" x="488.55" y="-57.2" font-family="Times,serif" font-size="14.00">idRockyArea1_prop_idDescriptor</text>
</g>
<!-- idCave1 -->
<g id="node9" class="node">
<title>idCave1</title>
<ellipse fill="none" stroke="black" cx="596.3" cy="-18" rx="41.63" ry="18"/>
<text text-anchor="middle" x="596.3" y="-12.95" font-family="Times,serif" font-size="14.00">idCave1</text>
</g>
<!-- idRockyArea1&#45;&gt;idCave1 -->
<g id="edge7" class="edge">
<title>idRockyArea1&#45;&gt;idCave1</title>
<path fill="none" stroke="black" d="M578.64,-88.41C581.67,-76.52 585.76,-60.41 589.25,-46.7"/>
<polygon fill="black" stroke="black" points="592.81,-47.9 591.88,-37.35 586.03,-46.18 592.81,-47.9"/>
<text text-anchor="middle" x="612.8" y="-57.2" font-family="Times,serif" font-size="14.00">isWestOf</text>
</g>
<!-- grassy -->
<g id="node8" class="node">
<title>grassy</title>
<ellipse fill="none" stroke="black" cx="711.3" cy="-18" rx="34.46" ry="18"/>
<text text-anchor="middle" x="711.3" y="-12.95" font-family="Times,serif" font-size="14.00">grassy</text>
</g>
<!-- idClearing1&#45;&gt;grassy -->
<g id="edge8" class="edge">
<title>idClearing1&#45;&gt;grassy</title>
<path fill="none" stroke="black" d="M711.3,-88.41C711.3,-76.64 711.3,-60.73 711.3,-47.11"/>
<polygon fill="black" stroke="black" points="714.8,-47.35 711.3,-37.35 707.8,-47.35 714.8,-47.35"/>
<text text-anchor="middle" x="796.05" y="-57.2" font-family="Times,serif" font-size="14.00">idClearing1_prop_idDescriptor</text>
</g>
</g>
</svg>
