<?xml version="1.0" encoding="UTF-8" standalone="no"?>
<!DOCTYPE svg PUBLIC "-//W3C//DTD SVG 1.1//EN"
 "http://www.w3.org/Graphics/SVG/1.1/DTD/svg11.dtd">
<!-- Generated by graphviz version 8.1.0 (20230707.0739)
 -->
<!-- Pages: 1 -->
<svg width="454pt" height="221pt"
 viewBox="0.00 0.00 454.31 221.00" xmlns="http://www.w3.org/2000/svg" xmlns:xlink="http://www.w3.org/1999/xlink">
<g id="graph0" class="graph" transform="scale(1 1) rotate(0) translate(4 217)">
<polygon fill="white" stroke="none" points="-4,4 -4,-217 450.31,-217 450.31,4 -4,4"/>
<!-- idRockyArea1 -->
<g id="node1" class="node">
<title>idRockyArea1</title>
<ellipse fill="none" stroke="black" cx="239.9" cy="-195" rx="64.66" ry="18"/>
<text text-anchor="middle" x="239.9" y="-189.95" font-family="Times,serif" font-size="14.00">idRockyArea1</text>
</g>
<!-- rocky -->
<g id="node2" class="node">
<title>rocky</title>
<ellipse fill="none" stroke="black" cx="31.9" cy="-106.5" rx="31.9" ry="18"/>
<text text-anchor="middle" x="31.9" y="-101.45" font-family="Times,serif" font-size="14.00">rocky</text>
</g>
<!-- idRockyArea1&#45;&gt;rocky -->
<g id="edge1" class="edge">
<title>idRockyArea1&#45;&gt;rocky</title>
<path fill="none" stroke="black" d="M175.6,-192.15C120.75,-189.06 47.91,-180.83 29.4,-159 23.85,-152.45 22.81,-143.57 23.68,-135.03"/>
<polygon fill="black" stroke="black" points="27.3,-135.71 25.71,-125.23 20.42,-134.41 27.3,-135.71"/>
<text text-anchor="middle" x="122.15" y="-145.7" font-family="Times,serif" font-size="14.00">idRockyArea1_prop_idDescriptor</text>
</g>
<!-- idPlayer -->
<g id="node3" class="node">
<title>idPlayer</title>
<ellipse fill="none" stroke="black" cx="182.9" cy="-106.5" rx="41.63" ry="18"/>
<text text-anchor="middle" x="182.9" y="-101.45" font-family="Times,serif" font-size="14.00">idPlayer</text>
</g>
<!-- idRockyArea1&#45;&gt;idPlayer -->
<g id="edge3" class="edge">
<title>idRockyArea1&#45;&gt;idPlayer</title>
<path fill="none" stroke="black" d="M234.48,-176.94C230.72,-166.49 225.09,-153.13 217.9,-142.5 215.18,-138.47 211.94,-134.5 208.56,-130.78"/>
<polygon fill="black" stroke="black" points="211.53,-128.79 202.05,-124.07 206.52,-133.67 211.53,-128.79"/>
<text text-anchor="middle" x="251.4" y="-145.7" font-family="Times,serif" font-size="14.00">isWestOf</text>
</g>
<!-- idPlayerBackside -->
<g id="node5" class="node">
<title>idPlayerBackside</title>
<ellipse fill="none" stroke="black" cx="370.9" cy="-106.5" rx="75.41" ry="18"/>
<text text-anchor="middle" x="370.9" y="-101.45" font-family="Times,serif" font-size="14.00">idPlayerBackside</text>
</g>
<!-- idRockyArea1&#45;&gt;idPlayerBackside -->
<g id="edge2" class="edge">
<title>idRockyArea1&#45;&gt;idPlayerBackside</title>
<path fill="none" stroke="black" d="M264.24,-177.93C284.79,-164.36 314.43,-144.79 337.25,-129.72"/>
<polygon fill="black" stroke="black" points="338.84,-132.21 345.26,-123.77 334.98,-126.36 338.84,-132.21"/>
<text text-anchor="middle" x="342.4" y="-145.7" font-family="Times,serif" font-size="14.00">isWestOf</text>
</g>
<!-- idPlayer&#45;&gt;idPlayer -->
<g id="edge5" class="edge">
<title>idPlayer&#45;&gt;idPlayer</title>
<path fill="none" stroke="black" d="M220.46,-114.8C232.75,-114.75 242.53,-111.99 242.53,-106.5 242.53,-102.73 237.91,-100.24 231.02,-99.04"/>
<polygon fill="black" stroke="black" points="231.71,-95.51 221.46,-98.2 231.15,-102.48 231.71,-95.51"/>
<text text-anchor="middle" x="260.15" y="-101.45" font-family="Times,serif" font-size="14.00">isNear</text>
</g>
<!-- false -->
<g id="node4" class="node">
<title>false</title>
<ellipse fill="none" stroke="black" cx="182.9" cy="-18" rx="28.32" ry="18"/>
<text text-anchor="middle" x="182.9" y="-12.95" font-family="Times,serif" font-size="14.00">false</text>
</g>
<!-- idPlayer&#45;&gt;false -->
<g id="edge4" class="edge">
<title>idPlayer&#45;&gt;false</title>
<path fill="none" stroke="black" d="M182.9,-88.41C182.9,-76.64 182.9,-60.73 182.9,-47.11"/>
<polygon fill="black" stroke="black" points="186.4,-47.35 182.9,-37.35 179.4,-47.35 186.4,-47.35"/>
<text text-anchor="middle" x="263.53" y="-57.2" font-family="Times,serif" font-size="14.00">idPlayer_prop_idBottleFound</text>
</g>
</g>
</svg>
