<?xml version="1.0" encoding="UTF-8" standalone="no"?>
<!DOCTYPE svg PUBLIC "-//W3C//DTD SVG 1.1//EN"
 "http://www.w3.org/Graphics/SVG/1.1/DTD/svg11.dtd">
<!-- Generated by graphviz version 8.1.0 (20230707.0739)
 -->
<!-- Pages: 1 -->
<svg width="508pt" height="221pt"
 viewBox="0.00 0.00 507.54 221.00" xmlns="http://www.w3.org/2000/svg" xmlns:xlink="http://www.w3.org/1999/xlink">
<g id="graph0" class="graph" transform="scale(1 1) rotate(0) translate(4 217)">
<polygon fill="white" stroke="none" points="-4,4 -4,-217 503.54,-217 503.54,4 -4,4"/>
<!-- idTheTrees1 -->
<g id="node1" class="node">
<title>idTheTrees1</title>
<ellipse fill="none" stroke="black" cx="140.12" cy="-195" rx="57.49" ry="18"/>
<text text-anchor="middle" x="140.12" y="-189.95" font-family="Times,serif" font-size="14.00">idTheTrees1</text>
</g>
<!-- idGlowingArea1 -->
<g id="node2" class="node">
<title>idGlowingArea1</title>
<ellipse fill="none" stroke="black" cx="82.12" cy="-106.5" rx="72.85" ry="18"/>
<text text-anchor="middle" x="82.12" y="-101.45" font-family="Times,serif" font-size="14.00">idGlowingArea1</text>
</g>
<!-- idTheTrees1&#45;&gt;idGlowingArea1 -->
<g id="edge1" class="edge">
<title>idTheTrees1&#45;&gt;idGlowingArea1</title>
<path fill="none" stroke="black" d="M105.37,-180.25C96.49,-174.98 88,-168.01 82.87,-159 78.89,-152.03 77.61,-143.62 77.62,-135.64"/>
<polygon fill="black" stroke="black" points="81.17,-136.04 78.36,-125.83 74.19,-135.57 81.17,-136.04"/>
<text text-anchor="middle" x="100.74" y="-145.7" font-family="Times,serif" font-size="14.00">isNear</text>
</g>
<!-- idPlayer -->
<g id="node4" class="node">
<title>idPlayer</title>
<ellipse fill="none" stroke="black" cx="261.12" cy="-106.5" rx="41.63" ry="18"/>
<text text-anchor="middle" x="261.12" y="-101.45" font-family="Times,serif" font-size="14.00">idPlayer</text>
</g>
<!-- idTheTrees1&#45;&gt;idPlayer -->
<g id="edge2" class="edge">
<title>idTheTrees1&#45;&gt;idPlayer</title>
<path fill="none" stroke="black" d="M162.31,-178.13C181.77,-164.22 210.22,-143.89 231.59,-128.6"/>
<polygon fill="black" stroke="black" points="233.18,-131.06 239.28,-122.4 229.11,-125.37 233.18,-131.06"/>
<text text-anchor="middle" x="229.74" y="-145.7" font-family="Times,serif" font-size="14.00">isNear</text>
</g>
<!-- idGlowingArea1&#45;&gt;idTheTrees1 -->
<g id="edge4" class="edge">
<title>idGlowingArea1&#45;&gt;idTheTrees1</title>
<path fill="none" stroke="black" d="M101.92,-124.05C107.65,-129.51 113.58,-135.89 118.12,-142.5 123.17,-149.86 127.42,-158.56 130.81,-166.69"/>
<polygon fill="black" stroke="black" points="127.88,-167.83 134.74,-175.9 134.41,-165.31 127.88,-167.83"/>
<text text-anchor="middle" x="156.24" y="-145.7" font-family="Times,serif" font-size="14.00">isInsideOf</text>
</g>
<!-- glowing -->
<g id="node3" class="node">
<title>glowing</title>
<ellipse fill="none" stroke="black" cx="41.12" cy="-18" rx="41.12" ry="18"/>
<text text-anchor="middle" x="41.12" y="-12.95" font-family="Times,serif" font-size="14.00">glowing</text>
</g>
<!-- idGlowingArea1&#45;&gt;glowing -->
<g id="edge3" class="edge">
<title>idGlowingArea1&#45;&gt;glowing</title>
<path fill="none" stroke="black" d="M70.73,-88.42C67.25,-82.83 63.57,-76.52 60.62,-70.5 56.85,-62.83 53.34,-54.24 50.36,-46.3"/>
<polygon fill="black" stroke="black" points="53.34,-45.26 46.66,-37.04 46.76,-47.63 53.34,-45.26"/>
<text text-anchor="middle" x="159.37" y="-57.2" font-family="Times,serif" font-size="14.00">idGlowingArea1_prop_idDescriptor</text>
</g>
<!-- false -->
<g id="node5" class="node">
<title>false</title>
<ellipse fill="none" stroke="black" cx="261.12" cy="-18" rx="28.32" ry="18"/>
<text text-anchor="middle" x="261.12" y="-12.95" font-family="Times,serif" font-size="14.00">false</text>
</g>
<!-- idPlayer&#45;&gt;false -->
<g id="edge5" class="edge">
<title>idPlayer&#45;&gt;false</title>
<path fill="none" stroke="black" d="M261.12,-88.41C261.12,-76.64 261.12,-60.73 261.12,-47.11"/>
<polygon fill="black" stroke="black" points="264.62,-47.35 261.12,-37.35 257.62,-47.35 264.62,-47.35"/>
<text text-anchor="middle" x="341.74" y="-57.2" font-family="Times,serif" font-size="14.00">idPlayer_prop_idBottleFound</text>
</g>
<!-- idClearing1 -->
<g id="node6" class="node">
<title>idClearing1</title>
<ellipse fill="none" stroke="black" cx="445.12" cy="-18" rx="54.42" ry="18"/>
<text text-anchor="middle" x="445.12" y="-12.95" font-family="Times,serif" font-size="14.00">idClearing1</text>
</g>
<!-- idPlayer&#45;&gt;idClearing1 -->
<g id="edge6" class="edge">
<title>idPlayer&#45;&gt;idClearing1</title>
<path fill="none" stroke="black" d="M301.03,-101.1C342.8,-95.78 404.81,-85.61 423.12,-70.5 430.47,-64.43 435.42,-55.45 438.73,-46.68"/>
<polygon fill="black" stroke="black" points="442.33,-47.88 442,-37.3 435.66,-45.78 442.33,-47.88"/>
<text text-anchor="middle" x="451.74" y="-57.2" font-family="Times,serif" font-size="14.00">isNear</text>
</g>
</g>
</svg>
