<?xml version="1.0" encoding="UTF-8" standalone="no"?>
<!DOCTYPE svg PUBLIC "-//W3C//DTD SVG 1.1//EN"
 "http://www.w3.org/Graphics/SVG/1.1/DTD/svg11.dtd">
<!-- Generated by graphviz version 8.1.0 (20230707.0739)
 -->
<!-- Pages: 1 -->
<svg width="1514pt" height="133pt"
 viewBox="0.00 0.00 1514.10 132.50" xmlns="http://www.w3.org/2000/svg" xmlns:xlink="http://www.w3.org/1999/xlink">
<g id="graph0" class="graph" transform="scale(1 1) rotate(0) translate(4 128.5)">
<polygon fill="white" stroke="none" points="-4,4 -4,-128.5 1510.1,-128.5 1510.1,4 -4,4"/>
<!-- idDesk1 -->
<g id="node1" class="node">
<title>idDesk1</title>
<ellipse fill="none" stroke="black" cx="575" cy="-106.5" rx="41.63" ry="18"/>
<text text-anchor="middle" x="575" y="-101.45" font-family="Times,serif" font-size="14.00">idDesk1</text>
</g>
<!-- idDesk1&#45;&gt;idDesk1 -->
<g id="edge6" class="edge">
<title>idDesk1&#45;&gt;idDesk1</title>
<path fill="none" stroke="black" d="M612.56,-114.8C624.84,-114.75 634.63,-111.99 634.63,-106.5 634.63,-102.73 630,-100.24 623.12,-99.04"/>
<polygon fill="black" stroke="black" points="623.8,-95.51 613.56,-98.2 623.25,-102.48 623.8,-95.51"/>
<text text-anchor="middle" x="652.25" y="-101.45" font-family="Times,serif" font-size="14.00">isNear</text>
</g>
<!-- yes -->
<g id="node2" class="node">
<title>yes</title>
<ellipse fill="none" stroke="black" cx="27" cy="-18" rx="27" ry="18"/>
<text text-anchor="middle" x="27" y="-12.95" font-family="Times,serif" font-size="14.00">yes</text>
</g>
<!-- idDesk1&#45;&gt;yes -->
<g id="edge1" class="edge">
<title>idDesk1&#45;&gt;yes</title>
<path fill="none" stroke="black" d="M533.42,-104.94C417.44,-103.06 96.24,-95.62 56.25,-70.5 47.23,-64.84 40.73,-55.33 36.17,-46.01"/>
<polygon fill="black" stroke="black" points="39.12,-45 31.97,-37.17 32.68,-47.74 39.12,-45"/>
<text text-anchor="middle" x="135.38" y="-57.2" font-family="Times,serif" font-size="14.00">idDesk1_prop_idImmovable</text>
</g>
<!-- true -->
<g id="node3" class="node">
<title>true</title>
<ellipse fill="none" stroke="black" cx="207" cy="-18" rx="27" ry="18"/>
<text text-anchor="middle" x="207" y="-12.95" font-family="Times,serif" font-size="14.00">true</text>
</g>
<!-- idDesk1&#45;&gt;true -->
<g id="edge2" class="edge">
<title>idDesk1&#45;&gt;true</title>
<path fill="none" stroke="black" d="M533.05,-106.35C451.95,-107.18 277.45,-104.8 230,-70.5 222.01,-64.73 216.75,-55.54 213.31,-46.51"/>
<polygon fill="black" stroke="black" points="216.4,-45.67 210.04,-37.19 209.73,-47.78 216.4,-45.67"/>
<text text-anchor="middle" x="321.5" y="-57.2" font-family="Times,serif" font-size="14.00">idDesk1_prop_idUnknownObject</text>
</g>
<!-- idTutorialRoom1 -->
<g id="node4" class="node">
<title>idTutorialRoom1</title>
<ellipse fill="none" stroke="black" cx="329" cy="-18" rx="75.41" ry="18"/>
<text text-anchor="middle" x="329" y="-12.95" font-family="Times,serif" font-size="14.00">idTutorialRoom1</text>
</g>
<!-- idDesk1&#45;&gt;idTutorialRoom1 -->
<g id="edge3" class="edge">
<title>idDesk1&#45;&gt;idTutorialRoom1</title>
<path fill="none" stroke="black" d="M540.73,-95.88C517.68,-89.21 486.71,-79.88 459.75,-70.5 431.4,-60.63 400.1,-48.35 375.23,-38.26"/>
<polygon fill="black" stroke="black" points="376.92,-34.76 366.34,-34.22 374.28,-41.24 376.92,-34.76"/>
<text text-anchor="middle" x="477.62" y="-57.2" font-family="Times,serif" font-size="14.00">isNear</text>
</g>
<!-- idWorld1 -->
<g id="node5" class="node">
<title>idWorld1</title>
<ellipse fill="none" stroke="black" cx="469" cy="-18" rx="46.23" ry="18"/>
<text text-anchor="middle" x="469" y="-12.95" font-family="Times,serif" font-size="14.00">idWorld1</text>
</g>
<!-- idDesk1&#45;&gt;idWorld1 -->
<g id="edge4" class="edge">
<title>idDesk1&#45;&gt;idWorld1</title>
<path fill="none" stroke="black" d="M548.31,-92.39C537.4,-86.43 524.96,-78.85 514.75,-70.5 505.21,-62.7 495.93,-52.83 488.26,-43.83"/>
<polygon fill="black" stroke="black" points="490.5,-42.04 481.43,-36.55 485.1,-46.49 490.5,-42.04"/>
<text text-anchor="middle" x="543.12" y="-57.2" font-family="Times,serif" font-size="14.00">isInsideOf</text>
</g>
<!-- idPlayer -->
<g id="node6" class="node">
<title>idPlayer</title>
<ellipse fill="none" stroke="black" cx="575" cy="-18" rx="41.63" ry="18"/>
<text text-anchor="middle" x="575" y="-12.95" font-family="Times,serif" font-size="14.00">idPlayer</text>
</g>
<!-- idDesk1&#45;&gt;idPlayer -->
<g id="edge5" class="edge">
<title>idDesk1&#45;&gt;idPlayer</title>
<path fill="none" stroke="black" d="M575,-88.41C575,-76.64 575,-60.73 575,-47.11"/>
<polygon fill="black" stroke="black" points="578.5,-47.35 575,-37.35 571.5,-47.35 578.5,-47.35"/>
<text text-anchor="middle" x="592.62" y="-57.2" font-family="Times,serif" font-size="14.00">isNear</text>
</g>
<!-- idGameRoom1 -->
<g id="node7" class="node">
<title>idGameRoom1</title>
<ellipse fill="none" stroke="black" cx="703" cy="-18" rx="68.24" ry="18"/>
<text text-anchor="middle" x="703" y="-12.95" font-family="Times,serif" font-size="14.00">idGameRoom1</text>
</g>
<!-- idDesk1&#45;&gt;idGameRoom1 -->
<g id="edge7" class="edge">
<title>idDesk1&#45;&gt;idGameRoom1</title>
<path fill="none" stroke="black" d="M596.71,-90.83C616.77,-77.27 646.87,-56.93 669.92,-41.36"/>
<polygon fill="black" stroke="black" points="671.67,-43.72 678,-35.22 667.75,-37.92 671.67,-43.72"/>
<text text-anchor="middle" x="678.38" y="-57.2" font-family="Times,serif" font-size="14.00">isSouthOf</text>
</g>
<!-- idTutorialRoom1Door -->
<g id="node8" class="node">
<title>idTutorialRoom1Door</title>
<ellipse fill="none" stroke="black" cx="884" cy="-18" rx="94.34" ry="18"/>
<text text-anchor="middle" x="884" y="-12.95" font-family="Times,serif" font-size="14.00">idTutorialRoom1Door</text>
</g>
<!-- idDesk1&#45;&gt;idTutorialRoom1Door -->
<g id="edge8" class="edge">
<title>idDesk1&#45;&gt;idTutorialRoom1Door</title>
<path fill="none" stroke="black" d="M610.33,-96.69C637.62,-89.8 676.29,-79.86 710,-70.5 748.51,-59.81 791.59,-47.07 825.25,-36.93"/>
<polygon fill="black" stroke="black" points="825.81,-40.11 834.38,-33.87 823.79,-33.41 825.81,-40.11"/>
<text text-anchor="middle" x="795.38" y="-57.2" font-family="Times,serif" font-size="14.00">isSouthOf</text>
</g>
<!-- idGameRoom1BackOpening -->
<g id="node9" class="node">
<title>idGameRoom1BackOpening</title>
<ellipse fill="none" stroke="black" cx="1115" cy="-18" rx="118.91" ry="18"/>
<text text-anchor="middle" x="1115" y="-12.95" font-family="Times,serif" font-size="14.00">idGameRoom1BackOpening</text>
</g>
<!-- idDesk1&#45;&gt;idGameRoom1BackOpening -->
<g id="edge9" class="edge">
<title>idDesk1&#45;&gt;idGameRoom1BackOpening</title>
<path fill="none" stroke="black" d="M614.79,-100.46C664.51,-94.05 752.19,-82.38 827,-70.5 896.42,-59.48 974.95,-45.32 1032.45,-34.64"/>
<polygon fill="black" stroke="black" points="1032.74,-37.96 1041.93,-32.69 1031.46,-31.08 1032.74,-37.96"/>
<text text-anchor="middle" x="950.38" y="-57.2" font-family="Times,serif" font-size="14.00">isSouthOf</text>
</g>
<!-- idTutorialRoom1FrontOpening -->
<g id="node10" class="node">
<title>idTutorialRoom1FrontOpening</title>
<ellipse fill="none" stroke="black" cx="1379" cy="-18" rx="127.1" ry="18"/>
<text text-anchor="middle" x="1379" y="-12.95" font-family="Times,serif" font-size="14.00">idTutorialRoom1FrontOpening</text>
</g>
<!-- idDesk1&#45;&gt;idTutorialRoom1FrontOpening -->
<g id="edge10" class="edge">
<title>idDesk1&#45;&gt;idTutorialRoom1FrontOpening</title>
<path fill="none" stroke="black" d="M616.07,-102.56C689.57,-97.16 848.38,-84.91 982,-70.5 1084.17,-59.48 1200.76,-44.01 1281.02,-32.91"/>
<polygon fill="black" stroke="black" points="1281.19,-36.28 1290.61,-31.44 1280.22,-29.35 1281.19,-36.28"/>
<text text-anchor="middle" x="1141.38" y="-57.2" font-family="Times,serif" font-size="14.00">isSouthOf</text>
</g>
</g>
</svg>
