<?xml version="1.0" encoding="UTF-8" standalone="no"?>
<!DOCTYPE svg PUBLIC "-//W3C//DTD SVG 1.1//EN"
 "http://www.w3.org/Graphics/SVG/1.1/DTD/svg11.dtd">
<!-- Generated by graphviz version 8.1.0 (20230707.0739)
 -->
<!-- Pages: 1 -->
<svg width="1253pt" height="133pt"
 viewBox="0.00 0.00 1252.56 132.50" xmlns="http://www.w3.org/2000/svg" xmlns:xlink="http://www.w3.org/1999/xlink">
<g id="graph0" class="graph" transform="scale(1 1) rotate(0) translate(4 128.5)">
<polygon fill="white" stroke="none" points="-4,4 -4,-128.5 1248.56,-128.5 1248.56,4 -4,4"/>
<!-- idDrawer1 -->
<g id="node1" class="node">
<title>idDrawer1</title>
<ellipse fill="none" stroke="black" cx="441.46" cy="-106.5" rx="50.33" ry="18"/>
<text text-anchor="middle" x="441.46" y="-101.45" font-family="Times,serif" font-size="14.00">idDrawer1</text>
</g>
<!-- closed -->
<g id="node2" class="node">
<title>closed</title>
<ellipse fill="none" stroke="black" cx="34.46" cy="-18" rx="34.46" ry="18"/>
<text text-anchor="middle" x="34.46" y="-12.95" font-family="Times,serif" font-size="14.00">closed</text>
</g>
<!-- idDrawer1&#45;&gt;closed -->
<g id="edge1" class="edge">
<title>idDrawer1&#45;&gt;closed</title>
<path fill="none" stroke="black" d="M391.46,-103.51C310.79,-99.76 155.78,-90.2 104.71,-70.5 87.75,-63.96 71.22,-52.2 58.46,-41.57"/>
<polygon fill="black" stroke="black" points="61.12,-38.37 51.27,-34.46 56.53,-43.66 61.12,-38.37"/>
<text text-anchor="middle" x="186.84" y="-57.2" font-family="Times,serif" font-size="14.00">idDrawer1_prop_idOpenState</text>
</g>
<!-- idKeyBlue -->
<g id="node3" class="node">
<title>idKeyBlue</title>
<ellipse fill="none" stroke="black" cx="203.46" cy="-18" rx="50.84" ry="18"/>
<text text-anchor="middle" x="203.46" y="-12.95" font-family="Times,serif" font-size="14.00">idKeyBlue</text>
</g>
<!-- idDrawer1&#45;&gt;idKeyBlue -->
<g id="edge2" class="edge">
<title>idDrawer1&#45;&gt;idKeyBlue</title>
<path fill="none" stroke="black" d="M398.82,-96.44C372.58,-90.32 338.49,-81.38 309.21,-70.5 285.31,-61.61 259.55,-49.14 239.45,-38.69"/>
<polygon fill="black" stroke="black" points="241.26,-35.16 230.78,-33.6 238,-41.36 241.26,-35.16"/>
<text text-anchor="middle" x="336.09" y="-57.2" font-family="Times,serif" font-size="14.00">isBeneath</text>
</g>
<!-- idDesk1 -->
<g id="node4" class="node">
<title>idDesk1</title>
<ellipse fill="none" stroke="black" cx="313.46" cy="-18" rx="41.63" ry="18"/>
<text text-anchor="middle" x="313.46" y="-12.95" font-family="Times,serif" font-size="14.00">idDesk1</text>
</g>
<!-- idDrawer1&#45;&gt;idDesk1 -->
<g id="edge3" class="edge">
<title>idDrawer1&#45;&gt;idDesk1</title>
<path fill="none" stroke="black" d="M418.58,-90.04C397.85,-76.03 367.14,-55.27 344.26,-39.81"/>
<polygon fill="black" stroke="black" points="346.54,-36.45 336.29,-33.75 342.62,-42.25 346.54,-36.45"/>
<text text-anchor="middle" x="407.09" y="-57.2" font-family="Times,serif" font-size="14.00">isNear</text>
</g>
<!-- idGameRoom1 -->
<g id="node5" class="node">
<title>idGameRoom1</title>
<ellipse fill="none" stroke="black" cx="441.46" cy="-18" rx="68.24" ry="18"/>
<text text-anchor="middle" x="441.46" y="-12.95" font-family="Times,serif" font-size="14.00">idGameRoom1</text>
</g>
<!-- idDrawer1&#45;&gt;idGameRoom1 -->
<g id="edge4" class="edge">
<title>idDrawer1&#45;&gt;idGameRoom1</title>
<path fill="none" stroke="black" d="M441.46,-88.41C441.46,-76.64 441.46,-60.73 441.46,-47.11"/>
<polygon fill="black" stroke="black" points="444.96,-47.35 441.46,-37.35 437.96,-47.35 444.96,-47.35"/>
<text text-anchor="middle" x="468.84" y="-57.2" font-family="Times,serif" font-size="14.00">isSouthOf</text>
</g>
<!-- idTutorialRoom1Door -->
<g id="node6" class="node">
<title>idTutorialRoom1Door</title>
<ellipse fill="none" stroke="black" cx="622.46" cy="-18" rx="94.34" ry="18"/>
<text text-anchor="middle" x="622.46" y="-12.95" font-family="Times,serif" font-size="14.00">idTutorialRoom1Door</text>
</g>
<!-- idDrawer1&#45;&gt;idTutorialRoom1Door -->
<g id="edge5" class="edge">
<title>idDrawer1&#45;&gt;idTutorialRoom1Door</title>
<path fill="none" stroke="black" d="M470.54,-91.6C499.83,-77.61 545.36,-55.85 578.95,-39.79"/>
<polygon fill="black" stroke="black" points="580.01,-42.69 587.52,-35.22 576.99,-36.37 580.01,-42.69"/>
<text text-anchor="middle" x="575.84" y="-57.2" font-family="Times,serif" font-size="14.00">isSouthOf</text>
</g>
<!-- idGameRoom1BackOpening -->
<g id="node7" class="node">
<title>idGameRoom1BackOpening</title>
<ellipse fill="none" stroke="black" cx="853.46" cy="-18" rx="118.91" ry="18"/>
<text text-anchor="middle" x="853.46" y="-12.95" font-family="Times,serif" font-size="14.00">idGameRoom1BackOpening</text>
</g>
<!-- idDrawer1&#45;&gt;idGameRoom1BackOpening -->
<g id="edge6" class="edge">
<title>idDrawer1&#45;&gt;idGameRoom1BackOpening</title>
<path fill="none" stroke="black" d="M484,-96.57C552.68,-82.15 689.03,-53.52 775.5,-35.37"/>
<polygon fill="black" stroke="black" points="775.98,-38.63 785.05,-33.15 774.54,-31.78 775.98,-38.63"/>
<text text-anchor="middle" x="711.84" y="-57.2" font-family="Times,serif" font-size="14.00">isSouthOf</text>
</g>
<!-- idTutorialRoom1FrontOpening -->
<g id="node8" class="node">
<title>idTutorialRoom1FrontOpening</title>
<ellipse fill="none" stroke="black" cx="1117.46" cy="-18" rx="127.1" ry="18"/>
<text text-anchor="middle" x="1117.46" y="-12.95" font-family="Times,serif" font-size="14.00">idTutorialRoom1FrontOpening</text>
</g>
<!-- idDrawer1&#45;&gt;idTutorialRoom1FrontOpening -->
<g id="edge7" class="edge">
<title>idDrawer1&#45;&gt;idTutorialRoom1FrontOpening</title>
<path fill="none" stroke="black" d="M489.1,-100.3C548.64,-93.72 653.66,-81.89 743.46,-70.5 837.55,-58.57 944.75,-43.68 1020.2,-32.98"/>
<polygon fill="black" stroke="black" points="1020.22,-36.37 1029.63,-31.5 1019.23,-29.44 1020.22,-36.37"/>
<text text-anchor="middle" x="894.84" y="-57.2" font-family="Times,serif" font-size="14.00">isSouthOf</text>
</g>
</g>
</svg>
