<?xml version="1.0" encoding="UTF-8" standalone="no"?>
<!DOCTYPE svg PUBLIC "-//W3C//DTD SVG 1.1//EN"
 "http://www.w3.org/Graphics/SVG/1.1/DTD/svg11.dtd">
<!-- Generated by graphviz version 8.1.0 (20230707.0739)
 -->
<!-- Pages: 1 -->
<svg width="2161pt" height="133pt"
 viewBox="0.00 0.00 2161.06 132.50" xmlns="http://www.w3.org/2000/svg" xmlns:xlink="http://www.w3.org/1999/xlink">
<g id="graph0" class="graph" transform="scale(1 1) rotate(0) translate(4 128.5)">
<polygon fill="white" stroke="none" points="-4,4 -4,-128.5 2157.06,-128.5 2157.06,4 -4,4"/>
<!-- idGameRoom1 -->
<g id="node1" class="node">
<title>idGameRoom1</title>
<ellipse fill="none" stroke="black" cx="1002" cy="-106.5" rx="68.24" ry="18"/>
<text text-anchor="middle" x="1002" y="-101.45" font-family="Times,serif" font-size="14.00">idGameRoom1</text>
</g>
<!-- idGameRoom1&#45;&gt;idGameRoom1 -->
<g id="edge3" class="edge">
<title>idGameRoom1&#45;&gt;idGameRoom1</title>
<path fill="none" stroke="black" d="M1063.63,-114.61C1077.82,-113.91 1088.24,-111.21 1088.24,-106.5 1088.24,-103.11 1082.86,-100.77 1074.56,-99.45"/>
<polygon fill="black" stroke="black" points="1074.92,-95.87 1064.63,-98.39 1074.24,-102.84 1074.92,-95.87"/>
<text text-anchor="middle" x="1105.87" y="-101.45" font-family="Times,serif" font-size="14.00">isNear</text>
</g>
<!-- true -->
<g id="node2" class="node">
<title>true</title>
<ellipse fill="none" stroke="black" cx="27" cy="-18" rx="27" ry="18"/>
<text text-anchor="middle" x="27" y="-12.95" font-family="Times,serif" font-size="14.00">true</text>
</g>
<!-- idGameRoom1&#45;&gt;true -->
<g id="edge1" class="edge">
<title>idGameRoom1&#45;&gt;true</title>
<path fill="none" stroke="black" d="M933.75,-104.41C741.91,-101.12 206.85,-90.28 130,-70.5 103.04,-63.56 74.95,-48.94 54.92,-37.04"/>
<polygon fill="black" stroke="black" points="57.14,-33.69 46.78,-31.47 53.49,-39.66 57.14,-33.69"/>
<text text-anchor="middle" x="241" y="-57.2" font-family="Times,serif" font-size="14.00">idGameRoom1_prop_idUnknownObject</text>
</g>
<!-- idWorld1 -->
<g id="node3" class="node">
<title>idWorld1</title>
<ellipse fill="none" stroke="black" cx="241" cy="-18" rx="46.23" ry="18"/>
<text text-anchor="middle" x="241" y="-12.95" font-family="Times,serif" font-size="14.00">idWorld1</text>
</g>
<!-- idGameRoom1&#45;&gt;idWorld1 -->
<g id="edge2" class="edge">
<title>idGameRoom1&#45;&gt;idWorld1</title>
<path fill="none" stroke="black" d="M933.46,-105.67C825.29,-104.96 608.71,-99.6 427.75,-70.5 377.82,-62.47 322.12,-46.11 284.65,-33.97"/>
<polygon fill="black" stroke="black" points="286.18,-30.46 275.58,-30.67 283.99,-37.11 286.18,-30.46"/>
<text text-anchor="middle" x="456.12" y="-57.2" font-family="Times,serif" font-size="14.00">isInsideOf</text>
</g>
<!-- idTutorialRoom1 -->
<g id="node4" class="node">
<title>idTutorialRoom1</title>
<ellipse fill="none" stroke="black" cx="381" cy="-18" rx="75.41" ry="18"/>
<text text-anchor="middle" x="381" y="-12.95" font-family="Times,serif" font-size="14.00">idTutorialRoom1</text>
</g>
<!-- idGameRoom1&#45;&gt;idTutorialRoom1 -->
<g id="edge4" class="edge">
<title>idGameRoom1&#45;&gt;idTutorialRoom1</title>
<path fill="none" stroke="black" d="M933.69,-104.57C845.55,-102.37 687.79,-95 555.25,-70.5 512.8,-62.65 465.94,-48.48 431.52,-36.99"/>
<polygon fill="black" stroke="black" points="432.85,-33.4 422.26,-33.51 430.61,-40.03 432.85,-33.4"/>
<text text-anchor="middle" x="583.38" y="-57.2" font-family="Times,serif" font-size="14.00">isNorthOf</text>
</g>
<!-- idPlayer -->
<g id="node5" class="node">
<title>idPlayer</title>
<ellipse fill="none" stroke="black" cx="516" cy="-18" rx="41.63" ry="18"/>
<text text-anchor="middle" x="516" y="-12.95" font-family="Times,serif" font-size="14.00">idPlayer</text>
</g>
<!-- idGameRoom1&#45;&gt;idPlayer -->
<g id="edge5" class="edge">
<title>idGameRoom1&#45;&gt;idPlayer</title>
<path fill="none" stroke="black" d="M935.27,-102.17C869.01,-97.96 764.79,-88.92 676.25,-70.5 634.61,-61.84 588.52,-46.38 556.5,-34.65"/>
<polygon fill="black" stroke="black" points="557.8,-31.03 547.2,-30.83 555.36,-37.59 557.8,-31.03"/>
<text text-anchor="middle" x="704.38" y="-57.2" font-family="Times,serif" font-size="14.00">isNorthOf</text>
</g>
<!-- idDesk1 -->
<g id="node6" class="node">
<title>idDesk1</title>
<ellipse fill="none" stroke="black" cx="617" cy="-18" rx="41.63" ry="18"/>
<text text-anchor="middle" x="617" y="-12.95" font-family="Times,serif" font-size="14.00">idDesk1</text>
</g>
<!-- idGameRoom1&#45;&gt;idDesk1 -->
<g id="edge6" class="edge">
<title>idGameRoom1&#45;&gt;idDesk1</title>
<path fill="none" stroke="black" d="M945.14,-96.28C906.2,-89.73 853.44,-80.36 807.25,-70.5 744.9,-57.19 729.24,-53.76 668,-36 665.06,-35.15 662.03,-34.23 658.99,-33.29"/>
<polygon fill="black" stroke="black" points="660.3,-29.71 649.71,-30 658.17,-36.38 660.3,-29.71"/>
<text text-anchor="middle" x="835.38" y="-57.2" font-family="Times,serif" font-size="14.00">isNorthOf</text>
</g>
<!-- idTutorialRoom1Door -->
<g id="node7" class="node">
<title>idTutorialRoom1Door</title>
<ellipse fill="none" stroke="black" cx="771" cy="-18" rx="94.34" ry="18"/>
<text text-anchor="middle" x="771" y="-12.95" font-family="Times,serif" font-size="14.00">idTutorialRoom1Door</text>
</g>
<!-- idGameRoom1&#45;&gt;idTutorialRoom1Door -->
<g id="edge7" class="edge">
<title>idGameRoom1&#45;&gt;idTutorialRoom1Door</title>
<path fill="none" stroke="black" d="M963.86,-91.22C925.26,-76.76 865.34,-54.33 822.54,-38.3"/>
<polygon fill="black" stroke="black" points="823.92,-34.7 813.32,-34.47 821.46,-41.26 823.92,-34.7"/>
<text text-anchor="middle" x="935.38" y="-57.2" font-family="Times,serif" font-size="14.00">isNorthOf</text>
</g>
<!-- idGameRoom1BackOpening -->
<g id="node8" class="node">
<title>idGameRoom1BackOpening</title>
<ellipse fill="none" stroke="black" cx="1002" cy="-18" rx="118.91" ry="18"/>
<text text-anchor="middle" x="1002" y="-12.95" font-family="Times,serif" font-size="14.00">idGameRoom1BackOpening</text>
</g>
<!-- idGameRoom1&#45;&gt;idGameRoom1BackOpening -->
<g id="edge8" class="edge">
<title>idGameRoom1&#45;&gt;idGameRoom1BackOpening</title>
<path fill="none" stroke="black" d="M1002,-88.41C1002,-76.64 1002,-60.73 1002,-47.11"/>
<polygon fill="black" stroke="black" points="1005.5,-47.35 1002,-37.35 998.5,-47.35 1005.5,-47.35"/>
<text text-anchor="middle" x="1029.38" y="-57.2" font-family="Times,serif" font-size="14.00">isNorthOf</text>
</g>
<!-- idTutorialRoom1FrontOpening -->
<g id="node9" class="node">
<title>idTutorialRoom1FrontOpening</title>
<ellipse fill="none" stroke="black" cx="1266" cy="-18" rx="127.1" ry="18"/>
<text text-anchor="middle" x="1266" y="-12.95" font-family="Times,serif" font-size="14.00">idTutorialRoom1FrontOpening</text>
</g>
<!-- idGameRoom1&#45;&gt;idTutorialRoom1FrontOpening -->
<g id="edge9" class="edge">
<title>idGameRoom1&#45;&gt;idTutorialRoom1FrontOpening</title>
<path fill="none" stroke="black" d="M1043.54,-91.89C1087.46,-77.5 1157.13,-54.67 1206.8,-38.4"/>
<polygon fill="black" stroke="black" points="1207.66,-41.47 1216.08,-35.03 1205.48,-34.82 1207.66,-41.47"/>
<text text-anchor="middle" x="1185.38" y="-57.2" font-family="Times,serif" font-size="14.00">isNorthOf</text>
</g>
<!-- idDrawer1 -->
<g id="node10" class="node">
<title>idDrawer1</title>
<ellipse fill="none" stroke="black" cx="1461" cy="-18" rx="50.33" ry="18"/>
<text text-anchor="middle" x="1461" y="-12.95" font-family="Times,serif" font-size="14.00">idDrawer1</text>
</g>
<!-- idGameRoom1&#45;&gt;idDrawer1 -->
<g id="edge10" class="edge">
<title>idGameRoom1&#45;&gt;idDrawer1</title>
<path fill="none" stroke="black" d="M1061.76,-97.42C1140.35,-86.27 1282.48,-64.29 1402,-36 1405.58,-35.15 1409.27,-34.22 1412.98,-33.25"/>
<polygon fill="black" stroke="black" points="1413.64,-36.43 1422.37,-30.43 1411.81,-29.67 1413.64,-36.43"/>
<text text-anchor="middle" x="1343.38" y="-57.2" font-family="Times,serif" font-size="14.00">isNorthOf</text>
</g>
<!-- idKeyBlue -->
<g id="node11" class="node">
<title>idKeyBlue</title>
<ellipse fill="none" stroke="black" cx="1580" cy="-18" rx="50.84" ry="18"/>
<text text-anchor="middle" x="1580" y="-12.95" font-family="Times,serif" font-size="14.00">idKeyBlue</text>
</g>
<!-- idGameRoom1&#45;&gt;idKeyBlue -->
<g id="edge11" class="edge">
<title>idGameRoom1&#45;&gt;idKeyBlue</title>
<path fill="none" stroke="black" d="M1068.73,-102.06C1143.64,-97.55 1268.63,-88.06 1375,-70.5 1440.36,-59.71 1455.9,-52.7 1520,-36 1523.62,-35.06 1527.35,-34.06 1531.11,-33.04"/>
<polygon fill="black" stroke="black" points="1531.95,-36.16 1540.66,-30.13 1530.09,-29.41 1531.95,-36.16"/>
<text text-anchor="middle" x="1480.38" y="-57.2" font-family="Times,serif" font-size="14.00">isNorthOf</text>
</g>
<!-- idPlayerBackside -->
<g id="node12" class="node">
<title>idPlayerBackside</title>
<ellipse fill="none" stroke="black" cx="1724" cy="-18" rx="75.41" ry="18"/>
<text text-anchor="middle" x="1724" y="-12.95" font-family="Times,serif" font-size="14.00">idPlayerBackside</text>
</g>
<!-- idGameRoom1&#45;&gt;idPlayerBackside -->
<g id="edge12" class="edge">
<title>idGameRoom1&#45;&gt;idPlayerBackside</title>
<path fill="none" stroke="black" d="M1070.05,-104.49C1168.21,-102.22 1355,-94.78 1512,-70.5 1565.31,-62.26 1624.93,-47.24 1667.33,-35.55"/>
<polygon fill="black" stroke="black" points="1668.03,-38.71 1676.72,-32.65 1666.15,-31.96 1668.03,-38.71"/>
<text text-anchor="middle" x="1622.38" y="-57.2" font-family="Times,serif" font-size="14.00">isNorthOf</text>
</g>
<!-- idPlayerLeftHand -->
<g id="node13" class="node">
<title>idPlayerLeftHand</title>
<ellipse fill="none" stroke="black" cx="1894" cy="-18" rx="76.94" ry="18"/>
<text text-anchor="middle" x="1894" y="-12.95" font-family="Times,serif" font-size="14.00">idPlayerLeftHand</text>
</g>
<!-- idGameRoom1&#45;&gt;idPlayerLeftHand -->
<g id="edge13" class="edge">
<title>idGameRoom1&#45;&gt;idPlayerLeftHand</title>
<path fill="none" stroke="black" d="M1070.38,-105.37C1189.48,-104.35 1442.48,-98.69 1654,-70.5 1715.85,-62.26 1785.47,-46.59 1833.73,-34.7"/>
<polygon fill="black" stroke="black" points="1834.44,-37.88 1843.3,-32.07 1832.75,-31.09 1834.44,-37.88"/>
<text text-anchor="middle" x="1775.38" y="-57.2" font-family="Times,serif" font-size="14.00">isNorthOf</text>
</g>
<!-- idPlayerRightHand -->
<g id="node14" class="node">
<title>idPlayerRightHand</title>
<ellipse fill="none" stroke="black" cx="2071" cy="-18" rx="82.06" ry="18"/>
<text text-anchor="middle" x="2071" y="-12.95" font-family="Times,serif" font-size="14.00">idPlayerRightHand</text>
</g>
<!-- idGameRoom1&#45;&gt;idPlayerRightHand -->
<g id="edge14" class="edge">
<title>idGameRoom1&#45;&gt;idPlayerRightHand</title>
<path fill="none" stroke="black" d="M1070.66,-105.96C1210,-106.13 1535.77,-102.67 1807,-70.5 1875.65,-62.36 1953.2,-46.41 2006.38,-34.41"/>
<polygon fill="black" stroke="black" points="2007.05,-37.62 2016.02,-31.98 2005.49,-30.79 2007.05,-37.62"/>
<text text-anchor="middle" x="1937.38" y="-57.2" font-family="Times,serif" font-size="14.00">isNorthOf</text>
</g>
</g>
</svg>
