<?xml version="1.0" encoding="UTF-8" standalone="no"?>
<!DOCTYPE svg PUBLIC "-//W3C//DTD SVG 1.1//EN"
 "http://www.w3.org/Graphics/SVG/1.1/DTD/svg11.dtd">
<!-- Generated by graphviz version 8.1.0 (20230707.0739)
 -->
<!-- Pages: 1 -->
<svg width="1601pt" height="133pt"
 viewBox="0.00 0.00 1601.40 132.50" xmlns="http://www.w3.org/2000/svg" xmlns:xlink="http://www.w3.org/1999/xlink">
<g id="graph0" class="graph" transform="scale(1 1) rotate(0) translate(4 128.5)">
<polygon fill="white" stroke="none" points="-4,4 -4,-128.5 1597.4,-128.5 1597.4,4 -4,4"/>
<!-- idGameRoom1BackOpening -->
<g id="node1" class="node">
<title>idGameRoom1BackOpening</title>
<ellipse fill="none" stroke="black" cx="859.34" cy="-106.5" rx="118.91" ry="18"/>
<text text-anchor="middle" x="859.34" y="-101.45" font-family="Times,serif" font-size="14.00">idGameRoom1BackOpening</text>
</g>
<!-- idTutorialRoom1Door -->
<g id="node2" class="node">
<title>idTutorialRoom1Door</title>
<ellipse fill="none" stroke="black" cx="94.34" cy="-18" rx="94.34" ry="18"/>
<text text-anchor="middle" x="94.34" y="-12.95" font-family="Times,serif" font-size="14.00">idTutorialRoom1Door</text>
</g>
<!-- idGameRoom1BackOpening&#45;&gt;idTutorialRoom1Door -->
<g id="edge1" class="edge">
<title>idGameRoom1BackOpening&#45;&gt;idTutorialRoom1Door</title>
<path fill="none" stroke="black" d="M748.62,-99.57C657,-94.03 523.57,-84.5 407.59,-70.5 326.13,-60.67 233.47,-44.85 170.19,-33.34"/>
<polygon fill="black" stroke="black" points="170.97,-29.74 160.51,-31.39 169.71,-36.63 170.97,-29.74"/>
<text text-anchor="middle" x="435.72" y="-57.2" font-family="Times,serif" font-size="14.00">isNorthOf</text>
</g>
<!-- idTutorialRoom1 -->
<g id="node3" class="node">
<title>idTutorialRoom1</title>
<ellipse fill="none" stroke="black" cx="282.34" cy="-18" rx="75.41" ry="18"/>
<text text-anchor="middle" x="282.34" y="-12.95" font-family="Times,serif" font-size="14.00">idTutorialRoom1</text>
</g>
<!-- idGameRoom1BackOpening&#45;&gt;idTutorialRoom1 -->
<g id="edge2" class="edge">
<title>idGameRoom1BackOpening&#45;&gt;idTutorialRoom1</title>
<path fill="none" stroke="black" d="M763.59,-95.48C705.85,-89.1 630.87,-80.22 564.59,-70.5 476.54,-57.58 454.82,-52.39 367.34,-36 361.28,-34.86 354.98,-33.65 348.67,-32.43"/>
<polygon fill="black" stroke="black" points="349.57,-28.84 339.09,-30.35 348.23,-35.71 349.57,-28.84"/>
<text text-anchor="middle" x="592.72" y="-57.2" font-family="Times,serif" font-size="14.00">isNorthOf</text>
</g>
<!-- idTutorialRoom1FrontOpening -->
<g id="node4" class="node">
<title>idTutorialRoom1FrontOpening</title>
<ellipse fill="none" stroke="black" cx="503.34" cy="-18" rx="127.1" ry="18"/>
<text text-anchor="middle" x="503.34" y="-12.95" font-family="Times,serif" font-size="14.00">idTutorialRoom1FrontOpening</text>
</g>
<!-- idGameRoom1BackOpening&#45;&gt;idTutorialRoom1FrontOpening -->
<g id="edge3" class="edge">
<title>idGameRoom1BackOpening&#45;&gt;idTutorialRoom1FrontOpening</title>
<path fill="none" stroke="black" d="M784.65,-92.15C753.03,-86.13 715.88,-78.56 682.59,-70.5 643.09,-60.93 599.24,-48.37 564.79,-38.04"/>
<polygon fill="black" stroke="black" points="566,-34.45 555.42,-34.92 563.98,-41.15 566,-34.45"/>
<text text-anchor="middle" x="710.72" y="-57.2" font-family="Times,serif" font-size="14.00">isNorthOf</text>
</g>
<!-- idDesk1 -->
<g id="node5" class="node">
<title>idDesk1</title>
<ellipse fill="none" stroke="black" cx="690.34" cy="-18" rx="41.63" ry="18"/>
<text text-anchor="middle" x="690.34" y="-12.95" font-family="Times,serif" font-size="14.00">idDesk1</text>
</g>
<!-- idGameRoom1BackOpening&#45;&gt;idDesk1 -->
<g id="edge4" class="edge">
<title>idGameRoom1BackOpening&#45;&gt;idDesk1</title>
<path fill="none" stroke="black" d="M811.23,-89.77C796.59,-84.34 780.66,-77.78 766.59,-70.5 749.95,-61.89 732.55,-50.36 718.58,-40.39"/>
<polygon fill="black" stroke="black" points="721.09,-37.16 710.94,-34.11 716.97,-42.82 721.09,-37.16"/>
<text text-anchor="middle" x="794.72" y="-57.2" font-family="Times,serif" font-size="14.00">isNorthOf</text>
</g>
<!-- idDrawer1 -->
<g id="node6" class="node">
<title>idDrawer1</title>
<ellipse fill="none" stroke="black" cx="800.34" cy="-18" rx="50.33" ry="18"/>
<text text-anchor="middle" x="800.34" y="-12.95" font-family="Times,serif" font-size="14.00">idDrawer1</text>
</g>
<!-- idGameRoom1BackOpening&#45;&gt;idDrawer1 -->
<g id="edge5" class="edge">
<title>idGameRoom1BackOpening&#45;&gt;idDrawer1</title>
<path fill="none" stroke="black" d="M847.69,-88.41C839.15,-75.89 827.41,-58.68 817.76,-44.54"/>
<polygon fill="black" stroke="black" points="820.3,-43.05 811.77,-36.76 814.52,-46.99 820.3,-43.05"/>
<text text-anchor="middle" x="862.72" y="-57.2" font-family="Times,serif" font-size="14.00">isNorthOf</text>
</g>
<!-- idKeyBlue -->
<g id="node7" class="node">
<title>idKeyBlue</title>
<ellipse fill="none" stroke="black" cx="919.34" cy="-18" rx="50.84" ry="18"/>
<text text-anchor="middle" x="919.34" y="-12.95" font-family="Times,serif" font-size="14.00">idKeyBlue</text>
</g>
<!-- idGameRoom1BackOpening&#45;&gt;idKeyBlue -->
<g id="edge6" class="edge">
<title>idGameRoom1BackOpening&#45;&gt;idKeyBlue</title>
<path fill="none" stroke="black" d="M878.75,-88.38C884.2,-83 889.86,-76.8 894.34,-70.5 899.69,-62.99 904.45,-54.15 908.34,-45.94"/>
<polygon fill="black" stroke="black" points="911.89,-47.58 912.78,-37.02 905.5,-44.72 911.89,-47.58"/>
<text text-anchor="middle" x="931.72" y="-57.2" font-family="Times,serif" font-size="14.00">isNorthOf</text>
</g>
<!-- idPlayer -->
<g id="node8" class="node">
<title>idPlayer</title>
<ellipse fill="none" stroke="black" cx="1029.34" cy="-18" rx="41.63" ry="18"/>
<text text-anchor="middle" x="1029.34" y="-12.95" font-family="Times,serif" font-size="14.00">idPlayer</text>
</g>
<!-- idGameRoom1BackOpening&#45;&gt;idPlayer -->
<g id="edge7" class="edge">
<title>idGameRoom1BackOpening&#45;&gt;idPlayer</title>
<path fill="none" stroke="black" d="M916.12,-90.24C931.87,-84.99 948.66,-78.4 963.34,-70.5 977.97,-62.63 992.69,-51.53 1004.5,-41.64"/>
<polygon fill="black" stroke="black" points="1006.25,-43.9 1011.55,-34.72 1001.68,-38.59 1006.25,-43.9"/>
<text text-anchor="middle" x="1016.72" y="-57.2" font-family="Times,serif" font-size="14.00">isNorthOf</text>
</g>
<!-- idPlayerBackside -->
<g id="node9" class="node">
<title>idPlayerBackside</title>
<ellipse fill="none" stroke="black" cx="1164.34" cy="-18" rx="75.41" ry="18"/>
<text text-anchor="middle" x="1164.34" y="-12.95" font-family="Times,serif" font-size="14.00">idPlayerBackside</text>
</g>
<!-- idGameRoom1BackOpening&#45;&gt;idPlayerBackside -->
<g id="edge8" class="edge">
<title>idGameRoom1BackOpening&#45;&gt;idPlayerBackside</title>
<path fill="none" stroke="black" d="M946,-93.84C978.5,-88.33 1015.51,-80.67 1048.34,-70.5 1074.44,-62.41 1102.48,-50.08 1124.45,-39.5"/>
<polygon fill="black" stroke="black" points="1125.64,-42.33 1133.08,-34.79 1122.56,-36.04 1125.64,-42.33"/>
<text text-anchor="middle" x="1118.72" y="-57.2" font-family="Times,serif" font-size="14.00">isNorthOf</text>
</g>
<!-- idPlayerLeftHand -->
<g id="node10" class="node">
<title>idPlayerLeftHand</title>
<ellipse fill="none" stroke="black" cx="1334.34" cy="-18" rx="76.94" ry="18"/>
<text text-anchor="middle" x="1334.34" y="-12.95" font-family="Times,serif" font-size="14.00">idPlayerLeftHand</text>
</g>
<!-- idGameRoom1BackOpening&#45;&gt;idPlayerLeftHand -->
<g id="edge9" class="edge">
<title>idGameRoom1BackOpening&#45;&gt;idPlayerLeftHand</title>
<path fill="none" stroke="black" d="M961.62,-97.06C1017.68,-91.47 1088.21,-82.86 1150.34,-70.5 1194.76,-61.67 1244.13,-47.61 1280.54,-36.41"/>
<polygon fill="black" stroke="black" points="1281.42,-39.49 1289.93,-33.18 1279.34,-32.81 1281.42,-39.49"/>
<text text-anchor="middle" x="1244.72" y="-57.2" font-family="Times,serif" font-size="14.00">isNorthOf</text>
</g>
<!-- idPlayerRightHand -->
<g id="node11" class="node">
<title>idPlayerRightHand</title>
<ellipse fill="none" stroke="black" cx="1511.34" cy="-18" rx="82.06" ry="18"/>
<text text-anchor="middle" x="1511.34" y="-12.95" font-family="Times,serif" font-size="14.00">idPlayerRightHand</text>
</g>
<!-- idGameRoom1BackOpening&#45;&gt;idPlayerRightHand -->
<g id="edge10" class="edge">
<title>idGameRoom1BackOpening&#45;&gt;idPlayerRightHand</title>
<path fill="none" stroke="black" d="M971.31,-100.12C1055.54,-95.1 1173.62,-86 1276.34,-70.5 1335.54,-61.57 1402.12,-46.49 1449.25,-34.96"/>
<polygon fill="black" stroke="black" points="1450.03,-38.12 1458.9,-32.33 1448.36,-31.33 1450.03,-38.12"/>
<text text-anchor="middle" x="1388.72" y="-57.2" font-family="Times,serif" font-size="14.00">isNorthOf</text>
</g>
</g>
</svg>
