<?xml version="1.0" encoding="UTF-8" standalone="no"?>
<!DOCTYPE svg PUBLIC "-//W3C//DTD SVG 1.1//EN"
 "http://www.w3.org/Graphics/SVG/1.1/DTD/svg11.dtd">
<!-- Generated by graphviz version 8.1.0 (20230707.0739)
 -->
<!-- Pages: 1 -->
<svg width="1537pt" height="133pt"
 viewBox="0.00 0.00 1537.10 132.50" xmlns="http://www.w3.org/2000/svg" xmlns:xlink="http://www.w3.org/1999/xlink">
<g id="graph0" class="graph" transform="scale(1 1) rotate(0) translate(4 128.5)">
<polygon fill="white" stroke="none" points="-4,4 -4,-128.5 1533.1,-128.5 1533.1,4 -4,4"/>
<!-- idKeyBlue -->
<g id="node1" class="node">
<title>idKeyBlue</title>
<ellipse fill="none" stroke="black" cx="564" cy="-106.5" rx="50.84" ry="18"/>
<text text-anchor="middle" x="564" y="-101.45" font-family="Times,serif" font-size="14.00">idKeyBlue</text>
</g>
<!-- idKeyBlue&#45;&gt;idKeyBlue -->
<g id="edge6" class="edge">
<title>idKeyBlue&#45;&gt;idKeyBlue</title>
<path fill="none" stroke="black" d="M609.68,-114.76C622.76,-114.44 632.84,-111.69 632.84,-106.5 632.84,-102.89 627.96,-100.46 620.6,-99.21"/>
<polygon fill="black" stroke="black" points="620.95,-95.64 610.68,-98.24 620.33,-102.61 620.95,-95.64"/>
<text text-anchor="middle" x="650.46" y="-101.45" font-family="Times,serif" font-size="14.00">isNear</text>
</g>
<!-- blue -->
<g id="node2" class="node">
<title>blue</title>
<ellipse fill="none" stroke="black" cx="27" cy="-18" rx="27" ry="18"/>
<text text-anchor="middle" x="27" y="-12.95" font-family="Times,serif" font-size="14.00">blue</text>
</g>
<!-- idKeyBlue&#45;&gt;blue -->
<g id="edge1" class="edge">
<title>idKeyBlue&#45;&gt;blue</title>
<path fill="none" stroke="black" d="M512.85,-104.93C390.52,-103.16 88.45,-96.2 51,-70.5 42.82,-64.88 37.36,-55.73 33.75,-46.68"/>
<polygon fill="black" stroke="black" points="36.78,-45.71 30.3,-37.33 30.14,-47.92 36.78,-45.71"/>
<text text-anchor="middle" x="120" y="-57.2" font-family="Times,serif" font-size="14.00">idKeyBlue_prop_idColor</text>
</g>
<!-- true -->
<g id="node3" class="node">
<title>true</title>
<ellipse fill="none" stroke="black" cx="188" cy="-18" rx="27" ry="18"/>
<text text-anchor="middle" x="188" y="-12.95" font-family="Times,serif" font-size="14.00">true</text>
</g>
<!-- idKeyBlue&#45;&gt;true -->
<g id="edge2" class="edge">
<title>idKeyBlue&#45;&gt;true</title>
<path fill="none" stroke="black" d="M513.51,-103.68C419.94,-99.87 226.95,-89.76 203.5,-70.5 196.32,-64.6 192.38,-55.5 190.24,-46.59"/>
<polygon fill="black" stroke="black" points="193.57,-46.3 188.44,-37.03 186.67,-47.48 193.57,-46.3"/>
<text text-anchor="middle" x="302.25" y="-57.2" font-family="Times,serif" font-size="14.00">idKeyBlue_prop_idUnknownObject</text>
</g>
<!-- idDrawer1 -->
<g id="node4" class="node">
<title>idDrawer1</title>
<ellipse fill="none" stroke="black" cx="319" cy="-18" rx="50.33" ry="18"/>
<text text-anchor="middle" x="319" y="-12.95" font-family="Times,serif" font-size="14.00">idDrawer1</text>
</g>
<!-- idKeyBlue&#45;&gt;idDrawer1 -->
<g id="edge3" class="edge">
<title>idKeyBlue&#45;&gt;idDrawer1</title>
<path fill="none" stroke="black" d="M524.27,-94.79C501.18,-88.31 471.61,-79.56 445.75,-70.5 416.72,-60.33 384.63,-47.27 360,-36.85"/>
<polygon fill="black" stroke="black" points="361.5,-33.26 350.93,-32.56 358.76,-39.7 361.5,-33.26"/>
<text text-anchor="middle" x="463.62" y="-57.2" font-family="Times,serif" font-size="14.00">isNear</text>
</g>
<!-- idDesk1 -->
<g id="node5" class="node">
<title>idDesk1</title>
<ellipse fill="none" stroke="black" cx="429" cy="-18" rx="41.63" ry="18"/>
<text text-anchor="middle" x="429" y="-12.95" font-family="Times,serif" font-size="14.00">idDesk1</text>
</g>
<!-- idKeyBlue&#45;&gt;idDesk1 -->
<g id="edge4" class="edge">
<title>idKeyBlue&#45;&gt;idDesk1</title>
<path fill="none" stroke="black" d="M540.18,-90.23C518.12,-76.1 485.17,-54.99 460.86,-39.42"/>
<polygon fill="black" stroke="black" points="463,-35.98 452.69,-33.54 459.22,-41.88 463,-35.98"/>
<text text-anchor="middle" x="526.62" y="-57.2" font-family="Times,serif" font-size="14.00">isNear</text>
</g>
<!-- idTutorialRoom1 -->
<g id="node6" class="node">
<title>idTutorialRoom1</title>
<ellipse fill="none" stroke="black" cx="564" cy="-18" rx="75.41" ry="18"/>
<text text-anchor="middle" x="564" y="-12.95" font-family="Times,serif" font-size="14.00">idTutorialRoom1</text>
</g>
<!-- idKeyBlue&#45;&gt;idTutorialRoom1 -->
<g id="edge5" class="edge">
<title>idKeyBlue&#45;&gt;idTutorialRoom1</title>
<path fill="none" stroke="black" d="M564,-88.41C564,-76.64 564,-60.73 564,-47.11"/>
<polygon fill="black" stroke="black" points="567.5,-47.35 564,-37.35 560.5,-47.35 567.5,-47.35"/>
<text text-anchor="middle" x="581.62" y="-57.2" font-family="Times,serif" font-size="14.00">isNear</text>
</g>
<!-- idGameRoom1 -->
<g id="node7" class="node">
<title>idGameRoom1</title>
<ellipse fill="none" stroke="black" cx="726" cy="-18" rx="68.24" ry="18"/>
<text text-anchor="middle" x="726" y="-12.95" font-family="Times,serif" font-size="14.00">idGameRoom1</text>
</g>
<!-- idKeyBlue&#45;&gt;idGameRoom1 -->
<g id="edge7" class="edge">
<title>idKeyBlue&#45;&gt;idGameRoom1</title>
<path fill="none" stroke="black" d="M591.12,-91.02C617.33,-77.02 657.34,-55.66 686.98,-39.83"/>
<polygon fill="black" stroke="black" points="688.43,-42.5 695.6,-34.7 685.13,-36.32 688.43,-42.5"/>
<text text-anchor="middle" x="687.38" y="-57.2" font-family="Times,serif" font-size="14.00">isSouthOf</text>
</g>
<!-- idTutorialRoom1Door -->
<g id="node8" class="node">
<title>idTutorialRoom1Door</title>
<ellipse fill="none" stroke="black" cx="907" cy="-18" rx="94.34" ry="18"/>
<text text-anchor="middle" x="907" y="-12.95" font-family="Times,serif" font-size="14.00">idTutorialRoom1Door</text>
</g>
<!-- idKeyBlue&#45;&gt;idTutorialRoom1Door -->
<g id="edge8" class="edge">
<title>idKeyBlue&#45;&gt;idTutorialRoom1Door</title>
<path fill="none" stroke="black" d="M606.89,-96.36C638.07,-89.59 681.26,-79.92 719,-70.5 761.58,-59.87 809.27,-46.79 845.97,-36.47"/>
<polygon fill="black" stroke="black" points="846.82,-39.59 855.49,-33.5 844.92,-32.85 846.82,-39.59"/>
<text text-anchor="middle" x="809.38" y="-57.2" font-family="Times,serif" font-size="14.00">isSouthOf</text>
</g>
<!-- idGameRoom1BackOpening -->
<g id="node9" class="node">
<title>idGameRoom1BackOpening</title>
<ellipse fill="none" stroke="black" cx="1138" cy="-18" rx="118.91" ry="18"/>
<text text-anchor="middle" x="1138" y="-12.95" font-family="Times,serif" font-size="14.00">idGameRoom1BackOpening</text>
</g>
<!-- idKeyBlue&#45;&gt;idGameRoom1BackOpening -->
<g id="edge9" class="edge">
<title>idKeyBlue&#45;&gt;idGameRoom1BackOpening</title>
<path fill="none" stroke="black" d="M612.13,-100.1C667.46,-93.73 760.94,-82.49 841,-70.5 913.38,-59.66 995.32,-45.29 1054.76,-34.49"/>
<polygon fill="black" stroke="black" points="1055.01,-37.82 1064.22,-32.58 1053.76,-30.93 1055.01,-37.82"/>
<text text-anchor="middle" x="967.38" y="-57.2" font-family="Times,serif" font-size="14.00">isSouthOf</text>
</g>
<!-- idTutorialRoom1FrontOpening -->
<g id="node10" class="node">
<title>idTutorialRoom1FrontOpening</title>
<ellipse fill="none" stroke="black" cx="1402" cy="-18" rx="127.1" ry="18"/>
<text text-anchor="middle" x="1402" y="-12.95" font-family="Times,serif" font-size="14.00">idTutorialRoom1FrontOpening</text>
</g>
<!-- idKeyBlue&#45;&gt;idTutorialRoom1FrontOpening -->
<g id="edge10" class="edge">
<title>idKeyBlue&#45;&gt;idTutorialRoom1FrontOpening</title>
<path fill="none" stroke="black" d="M613.65,-102.26C694.5,-96.83 859.59,-85.01 999,-70.5 1103.24,-59.65 1222.23,-44.05 1303.74,-32.86"/>
<polygon fill="black" stroke="black" points="1304.05,-36.22 1313.48,-31.38 1303.1,-29.28 1304.05,-36.22"/>
<text text-anchor="middle" x="1160.38" y="-57.2" font-family="Times,serif" font-size="14.00">isSouthOf</text>
</g>
</g>
</svg>
