<?xml version="1.0" encoding="UTF-8" standalone="no"?>
<!DOCTYPE svg PUBLIC "-//W3C//DTD SVG 1.1//EN"
 "http://www.w3.org/Graphics/SVG/1.1/DTD/svg11.dtd">
<!-- Generated by graphviz version 8.1.0 (20230707.0739)
 -->
<!-- Pages: 1 -->
<svg width="1176pt" height="133pt"
 viewBox="0.00 0.00 1175.52 132.50" xmlns="http://www.w3.org/2000/svg" xmlns:xlink="http://www.w3.org/1999/xlink">
<g id="graph0" class="graph" transform="scale(1 1) rotate(0) translate(4 128.5)">
<polygon fill="white" stroke="none" points="-4,4 -4,-128.5 1171.52,-128.5 1171.52,4 -4,4"/>
<!-- idPlayerLeftHand -->
<g id="node1" class="node">
<title>idPlayerLeftHand</title>
<ellipse fill="none" stroke="black" cx="454.42" cy="-106.5" rx="76.94" ry="18"/>
<text text-anchor="middle" x="454.42" y="-101.45" font-family="Times,serif" font-size="14.00">idPlayerLeftHand</text>
</g>
<!-- idLocalLeft -->
<g id="node2" class="node">
<title>idLocalLeft</title>
<ellipse fill="none" stroke="black" cx="54.42" cy="-18" rx="54.42" ry="18"/>
<text text-anchor="middle" x="54.42" y="-12.95" font-family="Times,serif" font-size="14.00">idLocalLeft</text>
</g>
<!-- idPlayerLeftHand&#45;&gt;idLocalLeft -->
<g id="edge1" class="edge">
<title>idPlayerLeftHand&#45;&gt;idLocalLeft</title>
<path fill="none" stroke="black" d="M379.75,-101.9C297.71,-97.18 171.64,-87.44 126.92,-70.5 110.03,-64.1 93.43,-52.79 80.39,-42.4"/>
<polygon fill="black" stroke="black" points="82.91,-39.11 72.97,-35.43 78.44,-44.5 82.91,-39.11"/>
<text text-anchor="middle" x="224.17" y="-57.2" font-family="Times,serif" font-size="14.00">idPlayerLeftHand_prop_idLocation</text>
</g>
<!-- idPlayer -->
<g id="node3" class="node">
<title>idPlayer</title>
<ellipse fill="none" stroke="black" cx="236.42" cy="-18" rx="41.63" ry="18"/>
<text text-anchor="middle" x="236.42" y="-12.95" font-family="Times,serif" font-size="14.00">idPlayer</text>
</g>
<!-- idPlayerLeftHand&#45;&gt;idPlayer -->
<g id="edge2" class="edge">
<title>idPlayerLeftHand&#45;&gt;idPlayer</title>
<path fill="none" stroke="black" d="M414.83,-90.74C398.49,-84.58 379.38,-77.29 362.17,-70.5 333.08,-59.03 300.4,-45.63 275.65,-35.37"/>
<polygon fill="black" stroke="black" points="277.13,-31.78 266.56,-31.18 274.45,-38.25 277.13,-31.78"/>
<text text-anchor="middle" x="380.05" y="-57.2" font-family="Times,serif" font-size="14.00">isNear</text>
</g>
<!-- idGameRoom1 -->
<g id="node4" class="node">
<title>idGameRoom1</title>
<ellipse fill="none" stroke="black" cx="364.42" cy="-18" rx="68.24" ry="18"/>
<text text-anchor="middle" x="364.42" y="-12.95" font-family="Times,serif" font-size="14.00">idGameRoom1</text>
</g>
<!-- idPlayerLeftHand&#45;&gt;idGameRoom1 -->
<g id="edge3" class="edge">
<title>idPlayerLeftHand&#45;&gt;idGameRoom1</title>
<path fill="none" stroke="black" d="M437.07,-88.82C423.5,-75.78 404.45,-57.47 389.26,-42.87"/>
<polygon fill="black" stroke="black" points="392.36,-41.03 382.72,-36.63 387.51,-46.08 392.36,-41.03"/>
<text text-anchor="middle" x="445.8" y="-57.2" font-family="Times,serif" font-size="14.00">isSouthOf</text>
</g>
<!-- idTutorialRoom1Door -->
<g id="node5" class="node">
<title>idTutorialRoom1Door</title>
<ellipse fill="none" stroke="black" cx="545.42" cy="-18" rx="94.34" ry="18"/>
<text text-anchor="middle" x="545.42" y="-12.95" font-family="Times,serif" font-size="14.00">idTutorialRoom1Door</text>
</g>
<!-- idPlayerLeftHand&#45;&gt;idTutorialRoom1Door -->
<g id="edge4" class="edge">
<title>idPlayerLeftHand&#45;&gt;idTutorialRoom1Door</title>
<path fill="none" stroke="black" d="M471.97,-88.82C485.6,-75.86 504.7,-57.7 520.01,-43.16"/>
<polygon fill="black" stroke="black" points="521.78,-46.35 526.62,-36.92 516.96,-41.27 521.78,-46.35"/>
<text text-anchor="middle" x="535.8" y="-57.2" font-family="Times,serif" font-size="14.00">isSouthOf</text>
</g>
<!-- idGameRoom1BackOpening -->
<g id="node6" class="node">
<title>idGameRoom1BackOpening</title>
<ellipse fill="none" stroke="black" cx="776.42" cy="-18" rx="118.91" ry="18"/>
<text text-anchor="middle" x="776.42" y="-12.95" font-family="Times,serif" font-size="14.00">idGameRoom1BackOpening</text>
</g>
<!-- idPlayerLeftHand&#45;&gt;idGameRoom1BackOpening -->
<g id="edge5" class="edge">
<title>idPlayerLeftHand&#45;&gt;idGameRoom1BackOpening</title>
<path fill="none" stroke="black" d="M503.68,-92.27C558.72,-77.48 648.14,-53.46 709.5,-36.98"/>
<polygon fill="black" stroke="black" points="710.1,-40.17 718.85,-34.2 708.28,-33.41 710.1,-40.17"/>
<text text-anchor="middle" x="671.8" y="-57.2" font-family="Times,serif" font-size="14.00">isSouthOf</text>
</g>
<!-- idTutorialRoom1FrontOpening -->
<g id="node7" class="node">
<title>idTutorialRoom1FrontOpening</title>
<ellipse fill="none" stroke="black" cx="1040.42" cy="-18" rx="127.1" ry="18"/>
<text text-anchor="middle" x="1040.42" y="-12.95" font-family="Times,serif" font-size="14.00">idTutorialRoom1FrontOpening</text>
</g>
<!-- idPlayerLeftHand&#45;&gt;idTutorialRoom1FrontOpening -->
<g id="edge6" class="edge">
<title>idPlayerLeftHand&#45;&gt;idTutorialRoom1FrontOpening</title>
<path fill="none" stroke="black" d="M519.46,-96.58C569.72,-89.63 641.01,-79.65 703.42,-70.5 785.69,-58.43 879.15,-44.1 946.75,-33.62"/>
<polygon fill="black" stroke="black" points="947.02,-36.97 956.37,-31.98 945.95,-30.05 947.02,-36.97"/>
<text text-anchor="middle" x="832.8" y="-57.2" font-family="Times,serif" font-size="14.00">isSouthOf</text>
</g>
</g>
</svg>
