<?xml version="1.0" encoding="UTF-8" standalone="no"?>
<!DOCTYPE svg PUBLIC "-//W3C//DTD SVG 1.1//EN"
 "http://www.w3.org/Graphics/SVG/1.1/DTD/svg11.dtd">
<!-- Generated by graphviz version 8.1.0 (20230707.0739)
 -->
<!-- Pages: 1 -->
<svg width="1261pt" height="133pt"
 viewBox="0.00 0.00 1260.51 132.50" xmlns="http://www.w3.org/2000/svg" xmlns:xlink="http://www.w3.org/1999/xlink">
<g id="graph0" class="graph" transform="scale(1 1) rotate(0) translate(4 128.5)">
<polygon fill="white" stroke="none" points="-4,4 -4,-128.5 1256.51,-128.5 1256.51,4 -4,4"/>
<!-- idPlayer -->
<g id="node1" class="node">
<title>idPlayer</title>
<ellipse fill="none" stroke="black" cx="449.41" cy="-106.5" rx="41.63" ry="18"/>
<text text-anchor="middle" x="449.41" y="-101.45" font-family="Times,serif" font-size="14.00">idPlayer</text>
</g>
<!-- idPlayer&#45;&gt;idPlayer -->
<g id="edge3" class="edge">
<title>idPlayer&#45;&gt;idPlayer</title>
<path fill="none" stroke="black" d="M486.96,-114.8C499.25,-114.75 509.03,-111.99 509.03,-106.5 509.03,-102.73 504.41,-100.24 497.53,-99.04"/>
<polygon fill="black" stroke="black" points="498.21,-95.51 487.96,-98.2 497.66,-102.48 498.21,-95.51"/>
<text text-anchor="middle" x="526.66" y="-101.45" font-family="Times,serif" font-size="14.00">isNear</text>
</g>
<!-- idTutorialRoom1 -->
<g id="node2" class="node">
<title>idTutorialRoom1</title>
<ellipse fill="none" stroke="black" cx="75.41" cy="-18" rx="75.41" ry="18"/>
<text text-anchor="middle" x="75.41" y="-12.95" font-family="Times,serif" font-size="14.00">idTutorialRoom1</text>
</g>
<!-- idPlayer&#45;&gt;idTutorialRoom1 -->
<g id="edge1" class="edge">
<title>idPlayer&#45;&gt;idTutorialRoom1</title>
<path fill="none" stroke="black" d="M409.55,-100.56C367.01,-94.89 297.82,-84.53 239.16,-70.5 200.71,-61.3 158.14,-47.81 126.05,-36.94"/>
<polygon fill="black" stroke="black" points="127.61,-33.44 117.01,-33.51 125.35,-40.06 127.61,-33.44"/>
<text text-anchor="middle" x="257.03" y="-57.2" font-family="Times,serif" font-size="14.00">isNear</text>
</g>
<!-- idWorld1 -->
<g id="node3" class="node">
<title>idWorld1</title>
<ellipse fill="none" stroke="black" cx="215.41" cy="-18" rx="46.23" ry="18"/>
<text text-anchor="middle" x="215.41" y="-12.95" font-family="Times,serif" font-size="14.00">idWorld1</text>
</g>
<!-- idPlayer&#45;&gt;idWorld1 -->
<g id="edge2" class="edge">
<title>idPlayer&#45;&gt;idWorld1</title>
<path fill="none" stroke="black" d="M411.96,-98.21C384.4,-92.27 346.3,-82.86 314.16,-70.5 291.82,-61.91 268,-49.59 249.35,-39.16"/>
<polygon fill="black" stroke="black" points="251.26,-35.65 240.84,-33.74 247.8,-41.73 251.26,-35.65"/>
<text text-anchor="middle" x="342.53" y="-57.2" font-family="Times,serif" font-size="14.00">isInsideOf</text>
</g>
<!-- idDesk1 -->
<g id="node4" class="node">
<title>idDesk1</title>
<ellipse fill="none" stroke="black" cx="321.41" cy="-18" rx="41.63" ry="18"/>
<text text-anchor="middle" x="321.41" y="-12.95" font-family="Times,serif" font-size="14.00">idDesk1</text>
</g>
<!-- idPlayer&#45;&gt;idDesk1 -->
<g id="edge4" class="edge">
<title>idPlayer&#45;&gt;idDesk1</title>
<path fill="none" stroke="black" d="M427.69,-90.83C406.91,-76.78 375.37,-55.47 352.04,-39.7"/>
<polygon fill="black" stroke="black" points="354.47,-36.44 344.23,-33.75 350.55,-42.24 354.47,-36.44"/>
<text text-anchor="middle" x="415.03" y="-57.2" font-family="Times,serif" font-size="14.00">isNear</text>
</g>
<!-- idGameRoom1 -->
<g id="node5" class="node">
<title>idGameRoom1</title>
<ellipse fill="none" stroke="black" cx="449.41" cy="-18" rx="68.24" ry="18"/>
<text text-anchor="middle" x="449.41" y="-12.95" font-family="Times,serif" font-size="14.00">idGameRoom1</text>
</g>
<!-- idPlayer&#45;&gt;idGameRoom1 -->
<g id="edge5" class="edge">
<title>idPlayer&#45;&gt;idGameRoom1</title>
<path fill="none" stroke="black" d="M449.41,-88.41C449.41,-76.64 449.41,-60.73 449.41,-47.11"/>
<polygon fill="black" stroke="black" points="452.91,-47.35 449.41,-37.35 445.91,-47.35 452.91,-47.35"/>
<text text-anchor="middle" x="476.78" y="-57.2" font-family="Times,serif" font-size="14.00">isSouthOf</text>
</g>
<!-- idTutorialRoom1Door -->
<g id="node6" class="node">
<title>idTutorialRoom1Door</title>
<ellipse fill="none" stroke="black" cx="630.41" cy="-18" rx="94.34" ry="18"/>
<text text-anchor="middle" x="630.41" y="-12.95" font-family="Times,serif" font-size="14.00">idTutorialRoom1Door</text>
</g>
<!-- idPlayer&#45;&gt;idTutorialRoom1Door -->
<g id="edge6" class="edge">
<title>idPlayer&#45;&gt;idTutorialRoom1Door</title>
<path fill="none" stroke="black" d="M476.5,-92.55C505.68,-78.61 552.51,-56.23 586.86,-39.81"/>
<polygon fill="black" stroke="black" points="588.13,-42.61 595.64,-35.14 585.11,-36.29 588.13,-42.61"/>
<text text-anchor="middle" x="583.78" y="-57.2" font-family="Times,serif" font-size="14.00">isSouthOf</text>
</g>
<!-- idGameRoom1BackOpening -->
<g id="node7" class="node">
<title>idGameRoom1BackOpening</title>
<ellipse fill="none" stroke="black" cx="861.41" cy="-18" rx="118.91" ry="18"/>
<text text-anchor="middle" x="861.41" y="-12.95" font-family="Times,serif" font-size="14.00">idGameRoom1BackOpening</text>
</g>
<!-- idPlayer&#45;&gt;idGameRoom1BackOpening -->
<g id="edge7" class="edge">
<title>idPlayer&#45;&gt;idGameRoom1BackOpening</title>
<path fill="none" stroke="black" d="M486.33,-97.75C552.85,-83.78 694.17,-54.11 783.08,-35.44"/>
<polygon fill="black" stroke="black" points="783.59,-38.7 792.66,-33.22 782.15,-31.85 783.59,-38.7"/>
<text text-anchor="middle" x="719.78" y="-57.2" font-family="Times,serif" font-size="14.00">isSouthOf</text>
</g>
<!-- idTutorialRoom1FrontOpening -->
<g id="node8" class="node">
<title>idTutorialRoom1FrontOpening</title>
<ellipse fill="none" stroke="black" cx="1125.41" cy="-18" rx="127.1" ry="18"/>
<text text-anchor="middle" x="1125.41" y="-12.95" font-family="Times,serif" font-size="14.00">idTutorialRoom1FrontOpening</text>
</g>
<!-- idPlayer&#45;&gt;idTutorialRoom1FrontOpening -->
<g id="edge8" class="edge">
<title>idPlayer&#45;&gt;idTutorialRoom1FrontOpening</title>
<path fill="none" stroke="black" d="M489.5,-101.13C547.37,-94.76 657.68,-82.38 751.41,-70.5 845.49,-58.57 952.7,-43.68 1028.14,-32.98"/>
<polygon fill="black" stroke="black" points="1028.16,-36.37 1037.57,-31.5 1027.18,-29.44 1028.16,-36.37"/>
<text text-anchor="middle" x="902.78" y="-57.2" font-family="Times,serif" font-size="14.00">isSouthOf</text>
</g>
</g>
</svg>
