<?xml version="1.0" encoding="UTF-8" standalone="no"?>
<!DOCTYPE svg PUBLIC "-//W3C//DTD SVG 1.1//EN"
 "http://www.w3.org/Graphics/SVG/1.1/DTD/svg11.dtd">
<!-- Generated by graphviz version 8.1.0 (20230707.0739)
 -->
<!-- Pages: 1 -->
<svg width="1156pt" height="133pt"
 viewBox="0.00 0.00 1156.42 132.50" xmlns="http://www.w3.org/2000/svg" xmlns:xlink="http://www.w3.org/1999/xlink">
<g id="graph0" class="graph" transform="scale(1 1) rotate(0) translate(4 128.5)">
<polygon fill="white" stroke="none" points="-4,4 -4,-128.5 1152.42,-128.5 1152.42,4 -4,4"/>
<!-- idPlayerRightHand -->
<g id="node1" class="node">
<title>idPlayerRightHand</title>
<ellipse fill="none" stroke="black" cx="435.32" cy="-106.5" rx="82.06" ry="18"/>
<text text-anchor="middle" x="435.32" y="-101.45" font-family="Times,serif" font-size="14.00">idPlayerRightHand</text>
</g>
<!-- right -->
<g id="node2" class="node">
<title>right</title>
<ellipse fill="none" stroke="black" cx="28.32" cy="-18" rx="28.32" ry="18"/>
<text text-anchor="middle" x="28.32" y="-12.95" font-family="Times,serif" font-size="14.00">right</text>
</g>
<!-- idPlayerRightHand&#45;&gt;right -->
<g id="edge1" class="edge">
<title>idPlayerRightHand&#45;&gt;right</title>
<path fill="none" stroke="black" d="M355.52,-101.86C271.55,-97.2 145.43,-87.61 100.32,-70.5 82.4,-63.7 64.86,-51.31 51.57,-40.39"/>
<polygon fill="black" stroke="black" points="54.38,-37.32 44.5,-33.49 49.83,-42.65 54.38,-37.32"/>
<text text-anchor="middle" x="200.82" y="-57.2" font-family="Times,serif" font-size="14.00">idPlayerRightHand_prop_idLocation</text>
</g>
<!-- idPlayer -->
<g id="node3" class="node">
<title>idPlayer</title>
<ellipse fill="none" stroke="black" cx="217.32" cy="-18" rx="41.63" ry="18"/>
<text text-anchor="middle" x="217.32" y="-12.95" font-family="Times,serif" font-size="14.00">idPlayer</text>
</g>
<!-- idPlayerRightHand&#45;&gt;idPlayer -->
<g id="edge2" class="edge">
<title>idPlayerRightHand&#45;&gt;idPlayer</title>
<path fill="none" stroke="black" d="M394.82,-90.39C378.68,-84.31 359.96,-77.16 343.07,-70.5 313.98,-59.03 281.3,-45.63 256.54,-35.37"/>
<polygon fill="black" stroke="black" points="258.03,-31.78 247.45,-31.18 255.35,-38.25 258.03,-31.78"/>
<text text-anchor="middle" x="360.95" y="-57.2" font-family="Times,serif" font-size="14.00">isNear</text>
</g>
<!-- idGameRoom1 -->
<g id="node4" class="node">
<title>idGameRoom1</title>
<ellipse fill="none" stroke="black" cx="345.32" cy="-18" rx="68.24" ry="18"/>
<text text-anchor="middle" x="345.32" y="-12.95" font-family="Times,serif" font-size="14.00">idGameRoom1</text>
</g>
<!-- idPlayerRightHand&#45;&gt;idGameRoom1 -->
<g id="edge3" class="edge">
<title>idPlayerRightHand&#45;&gt;idGameRoom1</title>
<path fill="none" stroke="black" d="M417.97,-88.82C404.4,-75.78 385.35,-57.47 370.16,-42.87"/>
<polygon fill="black" stroke="black" points="373.25,-41.03 363.62,-36.63 368.4,-46.08 373.25,-41.03"/>
<text text-anchor="middle" x="426.7" y="-57.2" font-family="Times,serif" font-size="14.00">isSouthOf</text>
</g>
<!-- idTutorialRoom1Door -->
<g id="node5" class="node">
<title>idTutorialRoom1Door</title>
<ellipse fill="none" stroke="black" cx="526.32" cy="-18" rx="94.34" ry="18"/>
<text text-anchor="middle" x="526.32" y="-12.95" font-family="Times,serif" font-size="14.00">idTutorialRoom1Door</text>
</g>
<!-- idPlayerRightHand&#45;&gt;idTutorialRoom1Door -->
<g id="edge4" class="edge">
<title>idPlayerRightHand&#45;&gt;idTutorialRoom1Door</title>
<path fill="none" stroke="black" d="M452.87,-88.82C466.5,-75.86 485.6,-57.7 500.91,-43.16"/>
<polygon fill="black" stroke="black" points="502.68,-46.35 507.52,-36.92 497.86,-41.27 502.68,-46.35"/>
<text text-anchor="middle" x="516.7" y="-57.2" font-family="Times,serif" font-size="14.00">isSouthOf</text>
</g>
<!-- idGameRoom1BackOpening -->
<g id="node6" class="node">
<title>idGameRoom1BackOpening</title>
<ellipse fill="none" stroke="black" cx="757.32" cy="-18" rx="118.91" ry="18"/>
<text text-anchor="middle" x="757.32" y="-12.95" font-family="Times,serif" font-size="14.00">idGameRoom1BackOpening</text>
</g>
<!-- idPlayerRightHand&#45;&gt;idGameRoom1BackOpening -->
<g id="edge5" class="edge">
<title>idPlayerRightHand&#45;&gt;idGameRoom1BackOpening</title>
<path fill="none" stroke="black" d="M485.63,-91.98C540.73,-77.18 629.34,-53.38 690.3,-37"/>
<polygon fill="black" stroke="black" points="690.84,-40.22 699.59,-34.24 689.02,-33.45 690.84,-40.22"/>
<text text-anchor="middle" x="652.7" y="-57.2" font-family="Times,serif" font-size="14.00">isSouthOf</text>
</g>
<!-- idTutorialRoom1FrontOpening -->
<g id="node7" class="node">
<title>idTutorialRoom1FrontOpening</title>
<ellipse fill="none" stroke="black" cx="1021.32" cy="-18" rx="127.1" ry="18"/>
<text text-anchor="middle" x="1021.32" y="-12.95" font-family="Times,serif" font-size="14.00">idTutorialRoom1FrontOpening</text>
</g>
<!-- idPlayerRightHand&#45;&gt;idTutorialRoom1FrontOpening -->
<g id="edge6" class="edge">
<title>idPlayerRightHand&#45;&gt;idTutorialRoom1FrontOpening</title>
<path fill="none" stroke="black" d="M503.52,-96.14C553.58,-89.21 623.2,-79.46 684.32,-70.5 766.59,-58.43 860.05,-44.1 927.65,-33.62"/>
<polygon fill="black" stroke="black" points="927.92,-36.97 937.27,-31.98 926.85,-30.05 927.92,-36.97"/>
<text text-anchor="middle" x="813.7" y="-57.2" font-family="Times,serif" font-size="14.00">isSouthOf</text>
</g>
</g>
</svg>
