<?xml version="1.0" encoding="UTF-8" standalone="no"?>
<!DOCTYPE svg PUBLIC "-//W3C//DTD SVG 1.1//EN"
 "http://www.w3.org/Graphics/SVG/1.1/DTD/svg11.dtd">
<!-- Generated by graphviz version 8.1.0 (20230707.0739)
 -->
<!-- Pages: 1 -->
<svg width="981pt" height="133pt"
 viewBox="0.00 0.00 980.73 132.50" xmlns="http://www.w3.org/2000/svg" xmlns:xlink="http://www.w3.org/1999/xlink">
<g id="graph0" class="graph" transform="scale(1 1) rotate(0) translate(4 128.5)">
<polygon fill="white" stroke="none" points="-4,4 -4,-128.5 976.73,-128.5 976.73,4 -4,4"/>
<!-- idPlayerBackside -->
<g id="node1" class="node">
<title>idPlayerBackside</title>
<ellipse fill="none" stroke="black" cx="350.63" cy="-106.5" rx="75.41" ry="18"/>
<text text-anchor="middle" x="350.63" y="-101.45" font-family="Times,serif" font-size="14.00">idPlayerBackside</text>
</g>
<!-- idPlayer -->
<g id="node2" class="node">
<title>idPlayer</title>
<ellipse fill="none" stroke="black" cx="41.63" cy="-18" rx="41.63" ry="18"/>
<text text-anchor="middle" x="41.63" y="-12.95" font-family="Times,serif" font-size="14.00">idPlayer</text>
</g>
<!-- idPlayerBackside&#45;&gt;idPlayer -->
<g id="edge1" class="edge">
<title>idPlayerBackside&#45;&gt;idPlayer</title>
<path fill="none" stroke="black" d="M297.31,-93.47C269.76,-87.04 235.65,-78.77 205.38,-70.5 154.83,-56.69 142.54,-51.95 92.63,-36 89.85,-35.11 86.99,-34.19 84.1,-33.25"/>
<polygon fill="black" stroke="black" points="85.28,-29.62 74.69,-29.82 83.1,-36.27 85.28,-29.62"/>
<text text-anchor="middle" x="223.25" y="-57.2" font-family="Times,serif" font-size="14.00">isNear</text>
</g>
<!-- idGameRoom1 -->
<g id="node3" class="node">
<title>idGameRoom1</title>
<ellipse fill="none" stroke="black" cx="169.63" cy="-18" rx="68.24" ry="18"/>
<text text-anchor="middle" x="169.63" y="-12.95" font-family="Times,serif" font-size="14.00">idGameRoom1</text>
</g>
<!-- idPlayerBackside&#45;&gt;idGameRoom1 -->
<g id="edge2" class="edge">
<title>idPlayerBackside&#45;&gt;idGameRoom1</title>
<path fill="none" stroke="black" d="M317.85,-89.84C287.94,-75.54 243.58,-54.34 211.19,-38.86"/>
<polygon fill="black" stroke="black" points="213.09,-35.41 202.55,-34.26 210.07,-41.73 213.09,-35.41"/>
<text text-anchor="middle" x="304" y="-57.2" font-family="Times,serif" font-size="14.00">isSouthOf</text>
</g>
<!-- idTutorialRoom1Door -->
<g id="node4" class="node">
<title>idTutorialRoom1Door</title>
<ellipse fill="none" stroke="black" cx="350.63" cy="-18" rx="94.34" ry="18"/>
<text text-anchor="middle" x="350.63" y="-12.95" font-family="Times,serif" font-size="14.00">idTutorialRoom1Door</text>
</g>
<!-- idPlayerBackside&#45;&gt;idTutorialRoom1Door -->
<g id="edge3" class="edge">
<title>idPlayerBackside&#45;&gt;idTutorialRoom1Door</title>
<path fill="none" stroke="black" d="M350.63,-88.41C350.63,-76.64 350.63,-60.73 350.63,-47.11"/>
<polygon fill="black" stroke="black" points="354.13,-47.35 350.63,-37.35 347.13,-47.35 354.13,-47.35"/>
<text text-anchor="middle" x="378" y="-57.2" font-family="Times,serif" font-size="14.00">isSouthOf</text>
</g>
<!-- idGameRoom1BackOpening -->
<g id="node5" class="node">
<title>idGameRoom1BackOpening</title>
<ellipse fill="none" stroke="black" cx="581.63" cy="-18" rx="118.91" ry="18"/>
<text text-anchor="middle" x="581.63" y="-12.95" font-family="Times,serif" font-size="14.00">idGameRoom1BackOpening</text>
</g>
<!-- idPlayerBackside&#45;&gt;idGameRoom1BackOpening -->
<g id="edge4" class="edge">
<title>idPlayerBackside&#45;&gt;idGameRoom1BackOpening</title>
<path fill="none" stroke="black" d="M390.07,-90.73C428.17,-76.46 486.13,-54.76 528.32,-38.96"/>
<polygon fill="black" stroke="black" points="529.28,-41.97 537.41,-35.18 526.82,-35.41 529.28,-41.97"/>
<text text-anchor="middle" x="515" y="-57.2" font-family="Times,serif" font-size="14.00">isSouthOf</text>
</g>
<!-- idTutorialRoom1FrontOpening -->
<g id="node6" class="node">
<title>idTutorialRoom1FrontOpening</title>
<ellipse fill="none" stroke="black" cx="845.63" cy="-18" rx="127.1" ry="18"/>
<text text-anchor="middle" x="845.63" y="-12.95" font-family="Times,serif" font-size="14.00">idTutorialRoom1FrontOpening</text>
</g>
<!-- idPlayerBackside&#45;&gt;idTutorialRoom1FrontOpening -->
<g id="edge5" class="edge">
<title>idPlayerBackside&#45;&gt;idTutorialRoom1FrontOpening</title>
<path fill="none" stroke="black" d="M409.84,-95.15C496.01,-80.1 656.57,-52.04 756.9,-34.5"/>
<polygon fill="black" stroke="black" points="757.38,-37.8 766.62,-32.63 756.17,-30.9 757.38,-37.8"/>
<text text-anchor="middle" x="670" y="-57.2" font-family="Times,serif" font-size="14.00">isSouthOf</text>
</g>
</g>
</svg>
