<?xml version="1.0" encoding="UTF-8" standalone="no"?>
<!DOCTYPE svg PUBLIC "-//W3C//DTD SVG 1.1//EN"
 "http://www.w3.org/Graphics/SVG/1.1/DTD/svg11.dtd">
<!-- Generated by graphviz version 8.1.0 (20230707.0739)
 -->
<!-- Pages: 1 -->
<svg width="640pt" height="133pt"
 viewBox="0.00 0.00 640.47 132.50" xmlns="http://www.w3.org/2000/svg" xmlns:xlink="http://www.w3.org/1999/xlink">
<g id="graph0" class="graph" transform="scale(1 1) rotate(0) translate(4 128.5)">
<polygon fill="white" stroke="none" points="-4,4 -4,-128.5 636.47,-128.5 636.47,4 -4,4"/>
<!-- idSign1 -->
<g id="node1" class="node">
<title>idSign1</title>
<ellipse fill="none" stroke="black" cx="305" cy="-106.5" rx="39.58" ry="18"/>
<text text-anchor="middle" x="305" y="-101.45" font-family="Times,serif" font-size="14.00">idSign1</text>
</g>
<!-- yes -->
<g id="node2" class="node">
<title>yes</title>
<ellipse fill="none" stroke="black" cx="27" cy="-18" rx="27" ry="18"/>
<text text-anchor="middle" x="27" y="-12.95" font-family="Times,serif" font-size="14.00">yes</text>
</g>
<!-- idSign1&#45;&gt;yes -->
<g id="edge1" class="edge">
<title>idSign1&#45;&gt;yes</title>
<path fill="none" stroke="black" d="M265.15,-105.34C200.07,-104.25 74.95,-98.47 42.25,-70.5 35.37,-64.62 31.52,-55.8 29.38,-47.11"/>
<polygon fill="black" stroke="black" points="32.68,-46.65 27.5,-37.41 25.79,-47.86 32.68,-46.65"/>
<text text-anchor="middle" x="119.88" y="-57.2" font-family="Times,serif" font-size="14.00">idSign1_prop_idImmovable</text>
</g>
<!-- true -->
<g id="node3" class="node">
<title>true</title>
<ellipse fill="none" stroke="black" cx="204" cy="-18" rx="27" ry="18"/>
<text text-anchor="middle" x="204" y="-12.95" font-family="Times,serif" font-size="14.00">true</text>
</g>
<!-- idSign1&#45;&gt;true -->
<g id="edge2" class="edge">
<title>idSign1&#45;&gt;true</title>
<path fill="none" stroke="black" d="M266.11,-102.44C244.4,-98.52 218.97,-89.79 205,-70.5 200.1,-63.73 198.64,-55.03 198.77,-46.72"/>
<polygon fill="black" stroke="black" points="202.34,-47.12 199.75,-36.85 195.37,-46.49 202.34,-47.12"/>
<text text-anchor="middle" x="295" y="-57.2" font-family="Times,serif" font-size="14.00">idSign1_prop_idUnknownObject</text>
</g>
<!-- idTutorialRoom1Door -->
<g id="node4" class="node">
<title>idTutorialRoom1Door</title>
<ellipse fill="none" stroke="black" cx="407" cy="-18" rx="94.34" ry="18"/>
<text text-anchor="middle" x="407" y="-12.95" font-family="Times,serif" font-size="14.00">idTutorialRoom1Door</text>
</g>
<!-- idSign1&#45;&gt;idTutorialRoom1Door -->
<g id="edge3" class="edge">
<title>idSign1&#45;&gt;idTutorialRoom1Door</title>
<path fill="none" stroke="black" d="M339.1,-96.89C354.73,-91.49 372.51,-83.1 385,-70.5 391.55,-63.9 396.27,-55.04 399.62,-46.54"/>
<polygon fill="black" stroke="black" points="403.25,-47.74 403.17,-37.15 396.62,-45.48 403.25,-47.74"/>
<text text-anchor="middle" x="414.62" y="-57.2" font-family="Times,serif" font-size="14.00">isNear</text>
</g>
<!-- idSign1Text -->
<g id="node5" class="node">
<title>idSign1Text</title>
<ellipse fill="none" stroke="black" cx="576" cy="-18" rx="56.47" ry="18"/>
<text text-anchor="middle" x="576" y="-12.95" font-family="Times,serif" font-size="14.00">idSign1Text</text>
</g>
<!-- idSign1&#45;&gt;idSign1Text -->
<g id="edge4" class="edge">
<title>idSign1&#45;&gt;idSign1Text</title>
<path fill="none" stroke="black" d="M339.45,-97.21C366.01,-90.6 403.57,-80.77 436,-70.5 468.29,-60.27 504.13,-47.05 531.46,-36.57"/>
<polygon fill="black" stroke="black" points="532.43,-39.56 540.5,-32.69 529.91,-33.03 532.43,-39.56"/>
<text text-anchor="middle" x="499.62" y="-57.2" font-family="Times,serif" font-size="14.00">isNear</text>
</g>
</g>
</svg>
