<?xml version="1.0" encoding="UTF-8" standalone="no"?>
<!DOCTYPE svg PUBLIC "-//W3C//DTD SVG 1.1//EN"
 "http://www.w3.org/Graphics/SVG/1.1/DTD/svg11.dtd">
<!-- Generated by graphviz version 8.1.0 (20230707.0739)
 -->
<!-- Pages: 1 -->
<svg width="607pt" height="133pt"
 viewBox="0.00 0.00 607.25 132.50" xmlns="http://www.w3.org/2000/svg" xmlns:xlink="http://www.w3.org/1999/xlink">
<g id="graph0" class="graph" transform="scale(1 1) rotate(0) translate(4 128.5)">
<polygon fill="white" stroke="none" points="-4,4 -4,-128.5 603.25,-128.5 603.25,4 -4,4"/>
<!-- idTutorialRoom1FrontOpening -->
<g id="node1" class="node">
<title>idTutorialRoom1FrontOpening</title>
<ellipse fill="none" stroke="black" cx="275.34" cy="-106.5" rx="127.1" ry="18"/>
<text text-anchor="middle" x="275.34" y="-101.45" font-family="Times,serif" font-size="14.00">idTutorialRoom1FrontOpening</text>
</g>
<!-- idTutorialRoom1Door -->
<g id="node2" class="node">
<title>idTutorialRoom1Door</title>
<ellipse fill="none" stroke="black" cx="94.34" cy="-18" rx="94.34" ry="18"/>
<text text-anchor="middle" x="94.34" y="-12.95" font-family="Times,serif" font-size="14.00">idTutorialRoom1Door</text>
</g>
<!-- idTutorialRoom1FrontOpening&#45;&gt;idTutorialRoom1Door -->
<g id="edge1" class="edge">
<title>idTutorialRoom1FrontOpening&#45;&gt;idTutorialRoom1Door</title>
<path fill="none" stroke="black" d="M240.44,-88.82C211.25,-74.87 169.44,-54.89 138.02,-39.87"/>
<polygon fill="black" stroke="black" points="139.75,-36.34 129.22,-35.19 136.73,-42.66 139.75,-36.34"/>
<text text-anchor="middle" x="228.72" y="-57.2" font-family="Times,serif" font-size="14.00">isSouthOf</text>
</g>
<!-- idGameRoom1 -->
<g id="node3" class="node">
<title>idGameRoom1</title>
<ellipse fill="none" stroke="black" cx="275.34" cy="-18" rx="68.24" ry="18"/>
<text text-anchor="middle" x="275.34" y="-12.95" font-family="Times,serif" font-size="14.00">idGameRoom1</text>
</g>
<!-- idTutorialRoom1FrontOpening&#45;&gt;idGameRoom1 -->
<g id="edge2" class="edge">
<title>idTutorialRoom1FrontOpening&#45;&gt;idGameRoom1</title>
<path fill="none" stroke="black" d="M275.34,-88.41C275.34,-76.64 275.34,-60.73 275.34,-47.11"/>
<polygon fill="black" stroke="black" points="278.84,-47.35 275.34,-37.35 271.84,-47.35 278.84,-47.35"/>
<text text-anchor="middle" x="302.72" y="-57.2" font-family="Times,serif" font-size="14.00">isSouthOf</text>
</g>
<!-- idGameRoom1BackOpening -->
<g id="node4" class="node">
<title>idGameRoom1BackOpening</title>
<ellipse fill="none" stroke="black" cx="480.34" cy="-18" rx="118.91" ry="18"/>
<text text-anchor="middle" x="480.34" y="-12.95" font-family="Times,serif" font-size="14.00">idGameRoom1BackOpening</text>
</g>
<!-- idTutorialRoom1FrontOpening&#45;&gt;idGameRoom1BackOpening -->
<g id="edge3" class="edge">
<title>idTutorialRoom1FrontOpening&#45;&gt;idGameRoom1BackOpening</title>
<path fill="none" stroke="black" d="M314.38,-89.03C347.73,-74.96 395.84,-54.66 431.68,-39.53"/>
<polygon fill="black" stroke="black" points="432.59,-42.52 440.45,-35.41 429.87,-36.08 432.59,-42.52"/>
<text text-anchor="middle" x="423.72" y="-57.2" font-family="Times,serif" font-size="14.00">isSouthOf</text>
</g>
</g>
</svg>
