<?xml version="1.0" encoding="UTF-8" standalone="no"?>
<!DOCTYPE svg PUBLIC "-//W3C//DTD SVG 1.1//EN"
 "http://www.w3.org/Graphics/SVG/1.1/DTD/svg11.dtd">
<!-- Generated by graphviz version 8.1.0 (20230707.0739)
 -->
<!-- Pages: 1 -->
<svg width="2316pt" height="133pt"
 viewBox="0.00 0.00 2315.70 132.50" xmlns="http://www.w3.org/2000/svg" xmlns:xlink="http://www.w3.org/1999/xlink">
<g id="graph0" class="graph" transform="scale(1 1) rotate(0) translate(4 128.5)">
<polygon fill="white" stroke="none" points="-4,4 -4,-128.5 2311.7,-128.5 2311.7,4 -4,4"/>
<!-- idTutorialRoom1Door -->
<g id="node1" class="node">
<title>idTutorialRoom1Door</title>
<ellipse fill="none" stroke="black" cx="1305.46" cy="-106.5" rx="94.34" ry="18"/>
<text text-anchor="middle" x="1305.46" y="-101.45" font-family="Times,serif" font-size="14.00">idTutorialRoom1Door</text>
</g>
<!-- closed -->
<g id="node2" class="node">
<title>closed</title>
<ellipse fill="none" stroke="black" cx="34.46" cy="-18" rx="34.46" ry="18"/>
<text text-anchor="middle" x="34.46" y="-12.95" font-family="Times,serif" font-size="14.00">closed</text>
</g>
<!-- idTutorialRoom1Door&#45;&gt;closed -->
<g id="edge1" class="edge">
<title>idTutorialRoom1Door&#45;&gt;closed</title>
<path fill="none" stroke="black" d="M1211.03,-106.15C978.1,-107.18 380.83,-106.14 185.21,-70.5 144.69,-63.12 100.29,-46.89 70.24,-34.61"/>
<polygon fill="black" stroke="black" points="71.82,-31.06 61.24,-30.46 69.13,-37.53 71.82,-31.06"/>
<text text-anchor="middle" x="299.09" y="-57.2" font-family="Times,serif" font-size="14.00">idTutorialRoom1Door_prop_idOpenState</text>
</g>
<!-- idTutorialRoom1DoorLock -->
<g id="node3" class="node">
<title>idTutorialRoom1DoorLock</title>
<ellipse fill="none" stroke="black" cx="284.46" cy="-18" rx="113.28" ry="18"/>
<text text-anchor="middle" x="284.46" y="-12.95" font-family="Times,serif" font-size="14.00">idTutorialRoom1DoorLock</text>
</g>
<!-- idTutorialRoom1Door&#45;&gt;idTutorialRoom1DoorLock -->
<g id="edge2" class="edge">
<title>idTutorialRoom1Door&#45;&gt;idTutorialRoom1DoorLock</title>
<path fill="none" stroke="black" d="M1211.94,-103.7C1029.95,-99.81 634.23,-89.44 499.21,-70.5 447.23,-63.21 389.44,-48.99 346.91,-37.33"/>
<polygon fill="black" stroke="black" points="348.01,-33.73 337.44,-34.43 346.14,-40.48 348.01,-33.73"/>
<text text-anchor="middle" x="631.09" y="-57.2" font-family="Times,serif" font-size="14.00">idTutorialRoom1Door_prop_idLockMechanism</text>
</g>
<!-- idTutorialRoom1FrontOpening -->
<g id="node4" class="node">
<title>idTutorialRoom1FrontOpening</title>
<ellipse fill="none" stroke="black" cx="542.46" cy="-18" rx="127.1" ry="18"/>
<text text-anchor="middle" x="542.46" y="-12.95" font-family="Times,serif" font-size="14.00">idTutorialRoom1FrontOpening</text>
</g>
<!-- idTutorialRoom1Door&#45;&gt;idTutorialRoom1FrontOpening -->
<g id="edge3" class="edge">
<title>idTutorialRoom1Door&#45;&gt;idTutorialRoom1FrontOpening</title>
<path fill="none" stroke="black" d="M1217.51,-99.68C1133.45,-93.74 1003.23,-83.55 890.71,-70.5 803.08,-60.33 703.56,-45.26 633.41,-34.04"/>
<polygon fill="black" stroke="black" points="634.27,-30.48 623.85,-32.35 633.17,-37.39 634.27,-30.48"/>
<text text-anchor="middle" x="918.84" y="-57.2" font-family="Times,serif" font-size="14.00">isNorthOf</text>
</g>
<!-- idGameRoom1BackOpening -->
<g id="node5" class="node">
<title>idGameRoom1BackOpening</title>
<ellipse fill="none" stroke="black" cx="806.46" cy="-18" rx="118.91" ry="18"/>
<text text-anchor="middle" x="806.46" y="-12.95" font-family="Times,serif" font-size="14.00">idGameRoom1BackOpening</text>
</g>
<!-- idTutorialRoom1Door&#45;&gt;idGameRoom1BackOpening -->
<g id="edge4" class="edge">
<title>idTutorialRoom1Door&#45;&gt;idGameRoom1BackOpening</title>
<path fill="none" stroke="black" d="M1223.39,-97.34C1168.15,-91.3 1093.79,-82.12 1028.71,-70.5 976.66,-61.2 918.46,-47.6 874.68,-36.71"/>
<polygon fill="black" stroke="black" points="875.71,-33.11 865.15,-34.07 874.01,-39.9 875.71,-33.11"/>
<text text-anchor="middle" x="1056.84" y="-57.2" font-family="Times,serif" font-size="14.00">isSouthOf</text>
</g>
<!-- idSign1 -->
<g id="node6" class="node">
<title>idSign1</title>
<ellipse fill="none" stroke="black" cx="982.46" cy="-18" rx="39.58" ry="18"/>
<text text-anchor="middle" x="982.46" y="-12.95" font-family="Times,serif" font-size="14.00">idSign1</text>
</g>
<!-- idTutorialRoom1Door&#45;&gt;idSign1 -->
<g id="edge5" class="edge">
<title>idTutorialRoom1Door&#45;&gt;idSign1</title>
<path fill="none" stroke="black" d="M1241.2,-92.98C1211.27,-86.8 1175.27,-78.89 1143.21,-70.5 1092.93,-57.34 1080.86,-52.19 1031.46,-36 1028.75,-35.11 1025.95,-34.18 1023.14,-33.23"/>
<polygon fill="black" stroke="black" points="1024.58,-29.69 1013.99,-29.77 1022.33,-36.31 1024.58,-29.69"/>
<text text-anchor="middle" x="1161.09" y="-57.2" font-family="Times,serif" font-size="14.00">isNear</text>
</g>
<!-- idTutorialRoom1 -->
<g id="node7" class="node">
<title>idTutorialRoom1</title>
<ellipse fill="none" stroke="black" cx="1115.46" cy="-18" rx="75.41" ry="18"/>
<text text-anchor="middle" x="1115.46" y="-12.95" font-family="Times,serif" font-size="14.00">idTutorialRoom1</text>
</g>
<!-- idTutorialRoom1Door&#45;&gt;idTutorialRoom1 -->
<g id="edge6" class="edge">
<title>idTutorialRoom1Door&#45;&gt;idTutorialRoom1</title>
<path fill="none" stroke="black" d="M1262.59,-90.08C1247.32,-84.3 1230.11,-77.44 1214.71,-70.5 1194.25,-61.28 1172.03,-49.89 1153.82,-40.16"/>
<polygon fill="black" stroke="black" points="1155.61,-36.61 1145.14,-34.96 1152.29,-42.78 1155.61,-36.61"/>
<text text-anchor="middle" x="1242.84" y="-57.2" font-family="Times,serif" font-size="14.00">isNorthOf</text>
</g>
<!-- idDesk1 -->
<g id="node8" class="node">
<title>idDesk1</title>
<ellipse fill="none" stroke="black" cx="1250.46" cy="-18" rx="41.63" ry="18"/>
<text text-anchor="middle" x="1250.46" y="-12.95" font-family="Times,serif" font-size="14.00">idDesk1</text>
</g>
<!-- idTutorialRoom1Door&#45;&gt;idDesk1 -->
<g id="edge7" class="edge">
<title>idTutorialRoom1Door&#45;&gt;idDesk1</title>
<path fill="none" stroke="black" d="M1294.6,-88.41C1286.71,-76.01 1275.9,-59.01 1266.96,-44.94"/>
<polygon fill="black" stroke="black" points="1269.44,-43.32 1261.12,-36.76 1263.53,-47.08 1269.44,-43.32"/>
<text text-anchor="middle" x="1310.84" y="-57.2" font-family="Times,serif" font-size="14.00">isNorthOf</text>
</g>
<!-- idDrawer1 -->
<g id="node9" class="node">
<title>idDrawer1</title>
<ellipse fill="none" stroke="black" cx="1360.46" cy="-18" rx="50.33" ry="18"/>
<text text-anchor="middle" x="1360.46" y="-12.95" font-family="Times,serif" font-size="14.00">idDrawer1</text>
</g>
<!-- idTutorialRoom1Door&#45;&gt;idDrawer1 -->
<g id="edge8" class="edge">
<title>idTutorialRoom1Door&#45;&gt;idDrawer1</title>
<path fill="none" stroke="black" d="M1323.9,-88.37C1329.04,-82.98 1334.34,-76.79 1338.46,-70.5 1343.35,-63.04 1347.56,-54.3 1350.95,-46.17"/>
<polygon fill="black" stroke="black" points="1354.55,-47.57 1354.93,-36.99 1348.03,-45.03 1354.55,-47.57"/>
<text text-anchor="middle" x="1374.84" y="-57.2" font-family="Times,serif" font-size="14.00">isNorthOf</text>
</g>
<!-- idKeyBlue -->
<g id="node10" class="node">
<title>idKeyBlue</title>
<ellipse fill="none" stroke="black" cx="1479.46" cy="-18" rx="50.84" ry="18"/>
<text text-anchor="middle" x="1479.46" y="-12.95" font-family="Times,serif" font-size="14.00">idKeyBlue</text>
</g>
<!-- idTutorialRoom1Door&#45;&gt;idKeyBlue -->
<g id="edge9" class="edge">
<title>idTutorialRoom1Door&#45;&gt;idKeyBlue</title>
<path fill="none" stroke="black" d="M1356.45,-90.93C1372.82,-85.44 1390.78,-78.55 1406.46,-70.5 1422.16,-62.45 1438.32,-51.38 1451.43,-41.57"/>
<polygon fill="black" stroke="black" points="1453.16,-43.89 1458.98,-35.03 1448.91,-38.33 1453.16,-43.89"/>
<text text-anchor="middle" x="1461.84" y="-57.2" font-family="Times,serif" font-size="14.00">isNorthOf</text>
</g>
<!-- idPlayer -->
<g id="node11" class="node">
<title>idPlayer</title>
<ellipse fill="none" stroke="black" cx="1589.46" cy="-18" rx="41.63" ry="18"/>
<text text-anchor="middle" x="1589.46" y="-12.95" font-family="Times,serif" font-size="14.00">idPlayer</text>
</g>
<!-- idTutorialRoom1Door&#45;&gt;idPlayer -->
<g id="edge10" class="edge">
<title>idTutorialRoom1Door&#45;&gt;idPlayer</title>
<path fill="none" stroke="black" d="M1384.16,-96.38C1418.38,-91.01 1458.54,-82.78 1493.46,-70.5 1516,-62.57 1539.66,-49.93 1557.86,-39.16"/>
<polygon fill="black" stroke="black" points="1559.36,-41.74 1566.1,-33.57 1555.73,-35.75 1559.36,-41.74"/>
<text text-anchor="middle" x="1556.84" y="-57.2" font-family="Times,serif" font-size="14.00">isNorthOf</text>
</g>
<!-- idPlayerBackside -->
<g id="node12" class="node">
<title>idPlayerBackside</title>
<ellipse fill="none" stroke="black" cx="1724.46" cy="-18" rx="75.41" ry="18"/>
<text text-anchor="middle" x="1724.46" y="-12.95" font-family="Times,serif" font-size="14.00">idPlayerBackside</text>
</g>
<!-- idTutorialRoom1Door&#45;&gt;idPlayerBackside -->
<g id="edge11" class="edge">
<title>idTutorialRoom1Door&#45;&gt;idPlayerBackside</title>
<path fill="none" stroke="black" d="M1394.09,-100C1450.38,-95.17 1524.43,-86.34 1588.46,-70.5 1620.05,-62.69 1654.31,-49.68 1680.53,-38.7"/>
<polygon fill="black" stroke="black" points="1681.7,-41.59 1689.53,-34.45 1678.96,-35.14 1681.7,-41.59"/>
<text text-anchor="middle" x="1665.84" y="-57.2" font-family="Times,serif" font-size="14.00">isNorthOf</text>
</g>
<!-- idPlayerLeftHand -->
<g id="node13" class="node">
<title>idPlayerLeftHand</title>
<ellipse fill="none" stroke="black" cx="1894.46" cy="-18" rx="76.94" ry="18"/>
<text text-anchor="middle" x="1894.46" y="-12.95" font-family="Times,serif" font-size="14.00">idPlayerLeftHand</text>
</g>
<!-- idTutorialRoom1Door&#45;&gt;idPlayerLeftHand -->
<g id="edge12" class="edge">
<title>idTutorialRoom1Door&#45;&gt;idPlayerLeftHand</title>
<path fill="none" stroke="black" d="M1396.72,-101.66C1476.53,-97.28 1595.31,-88.28 1697.46,-70.5 1745.95,-62.06 1799.97,-47.56 1839.16,-36.1"/>
<polygon fill="black" stroke="black" points="1839.95,-39.22 1848.55,-33.03 1837.97,-32.51 1839.95,-39.22"/>
<text text-anchor="middle" x="1796.84" y="-57.2" font-family="Times,serif" font-size="14.00">isNorthOf</text>
</g>
<!-- idPlayerRightHand -->
<g id="node14" class="node">
<title>idPlayerRightHand</title>
<ellipse fill="none" stroke="black" cx="2071.46" cy="-18" rx="82.06" ry="18"/>
<text text-anchor="middle" x="2071.46" y="-12.95" font-family="Times,serif" font-size="14.00">idPlayerRightHand</text>
</g>
<!-- idTutorialRoom1Door&#45;&gt;idPlayerRightHand -->
<g id="edge13" class="edge">
<title>idTutorialRoom1Door&#45;&gt;idPlayerRightHand</title>
<path fill="none" stroke="black" d="M1398.45,-103.26C1503.35,-99.81 1678.83,-91.26 1828.46,-70.5 1890.34,-61.92 1960.01,-46.56 2008.83,-34.84"/>
<polygon fill="black" stroke="black" points="2009.33,-38.07 2018.23,-32.32 2007.68,-31.27 2009.33,-38.07"/>
<text text-anchor="middle" x="1950.84" y="-57.2" font-family="Times,serif" font-size="14.00">isNorthOf</text>
</g>
<!-- idGameRoom1 -->
<g id="node15" class="node">
<title>idGameRoom1</title>
<ellipse fill="none" stroke="black" cx="2239.46" cy="-18" rx="68.24" ry="18"/>
<text text-anchor="middle" x="2239.46" y="-12.95" font-family="Times,serif" font-size="14.00">idGameRoom1</text>
</g>
<!-- idTutorialRoom1Door&#45;&gt;idGameRoom1 -->
<g id="edge14" class="edge">
<title>idTutorialRoom1Door&#45;&gt;idGameRoom1</title>
<path fill="none" stroke="black" d="M1399.72,-104.72C1530.85,-102.7 1775.51,-95.56 1982.46,-70.5 2051,-62.2 2128.56,-45.65 2180.38,-33.55"/>
<polygon fill="black" stroke="black" points="2181.1,-36.73 2190.03,-31.03 2179.5,-29.92 2181.1,-36.73"/>
<text text-anchor="middle" x="2109.84" y="-57.2" font-family="Times,serif" font-size="14.00">isSouthOf</text>
</g>
</g>
</svg>
