<?xml version="1.0" encoding="UTF-8" standalone="no"?>
<!DOCTYPE svg PUBLIC "-//W3C//DTD SVG 1.1//EN"
 "http://www.w3.org/Graphics/SVG/1.1/DTD/svg11.dtd">
<!-- Generated by graphviz version 8.1.0 (20230707.0739)
 -->
<!-- Pages: 1 -->
<svg width="1567pt" height="133pt"
 viewBox="0.00 0.00 1567.49 132.50" xmlns="http://www.w3.org/2000/svg" xmlns:xlink="http://www.w3.org/1999/xlink">
<g id="graph0" class="graph" transform="scale(1 1) rotate(0) translate(4 128.5)">
<polygon fill="white" stroke="none" points="-4,4 -4,-128.5 1563.49,-128.5 1563.49,4 -4,4"/>
<!-- idTutorialRoom1 -->
<g id="node1" class="node">
<title>idTutorialRoom1</title>
<ellipse fill="none" stroke="black" cx="624.39" cy="-106.5" rx="75.41" ry="18"/>
<text text-anchor="middle" x="624.39" y="-101.45" font-family="Times,serif" font-size="14.00">idTutorialRoom1</text>
</g>
<!-- idTutorialRoom1&#45;&gt;idTutorialRoom1 -->
<g id="edge7" class="edge">
<title>idTutorialRoom1&#45;&gt;idTutorialRoom1</title>
<path fill="none" stroke="black" d="M692.4,-114.55C707.12,-113.76 717.8,-111.08 717.8,-106.5 717.8,-103.14 712.04,-100.8 703.15,-99.48"/>
<polygon fill="black" stroke="black" points="703.69,-95.92 693.4,-98.45 703.02,-102.89 703.69,-95.92"/>
<text text-anchor="middle" x="735.42" y="-101.45" font-family="Times,serif" font-size="14.00">isNear</text>
</g>
<!-- white -->
<g id="node2" class="node">
<title>white</title>
<ellipse fill="none" stroke="black" cx="31.39" cy="-18" rx="31.39" ry="18"/>
<text text-anchor="middle" x="31.39" y="-12.95" font-family="Times,serif" font-size="14.00">white</text>
</g>
<!-- idTutorialRoom1&#45;&gt;white -->
<g id="edge1" class="edge">
<title>idTutorialRoom1&#45;&gt;white</title>
<path fill="none" stroke="black" d="M548.99,-104.73C405.07,-102.7 101.87,-95.47 61.39,-70.5 52.27,-64.88 45.62,-55.37 40.93,-46.05"/>
<polygon fill="black" stroke="black" points="43.83,-44.94 36.6,-37.2 37.42,-47.77 43.83,-44.94"/>
<text text-anchor="middle" x="148.39" y="-57.2" font-family="Times,serif" font-size="14.00">idTutorialRoom1_prop_idColor</text>
</g>
<!-- true -->
<g id="node3" class="node">
<title>true</title>
<ellipse fill="none" stroke="black" cx="228.39" cy="-18" rx="27" ry="18"/>
<text text-anchor="middle" x="228.39" y="-12.95" font-family="Times,serif" font-size="14.00">true</text>
</g>
<!-- idTutorialRoom1&#45;&gt;true -->
<g id="edge2" class="edge">
<title>idTutorialRoom1&#45;&gt;true</title>
<path fill="none" stroke="black" d="M550.42,-102.5C448.74,-97.77 275.61,-87.37 251.89,-70.5 243.83,-64.77 238.48,-55.59 234.95,-46.55"/>
<polygon fill="black" stroke="black" points="238.01,-45.65 231.59,-37.23 231.35,-47.82 238.01,-45.65"/>
<text text-anchor="middle" x="368.64" y="-57.2" font-family="Times,serif" font-size="14.00">idTutorialRoom1_prop_idUnknownObject</text>
</g>
<!-- idPlayer -->
<g id="node4" class="node">
<title>idPlayer</title>
<ellipse fill="none" stroke="black" cx="417.39" cy="-18" rx="41.63" ry="18"/>
<text text-anchor="middle" x="417.39" y="-12.95" font-family="Times,serif" font-size="14.00">idPlayer</text>
</g>
<!-- idTutorialRoom1&#45;&gt;idPlayer -->
<g id="edge3" class="edge">
<title>idTutorialRoom1&#45;&gt;idPlayer</title>
<path fill="none" stroke="black" d="M580.1,-91.48C562.23,-85.49 541.52,-78.12 523.14,-70.5 499.26,-60.6 473.13,-47.89 452.82,-37.58"/>
<polygon fill="black" stroke="black" points="454.56,-34.03 444.07,-32.58 451.37,-40.26 454.56,-34.03"/>
<text text-anchor="middle" x="541.02" y="-57.2" font-family="Times,serif" font-size="14.00">isNear</text>
</g>
<!-- idDesk1 -->
<g id="node5" class="node">
<title>idDesk1</title>
<ellipse fill="none" stroke="black" cx="518.39" cy="-18" rx="41.63" ry="18"/>
<text text-anchor="middle" x="518.39" y="-12.95" font-family="Times,serif" font-size="14.00">idDesk1</text>
</g>
<!-- idTutorialRoom1&#45;&gt;idDesk1 -->
<g id="edge4" class="edge">
<title>idTutorialRoom1&#45;&gt;idDesk1</title>
<path fill="none" stroke="black" d="M603.95,-88.82C587.41,-75.32 563.95,-56.18 545.78,-41.35"/>
<polygon fill="black" stroke="black" points="548.3,-38.08 538.34,-34.46 543.88,-43.5 548.3,-38.08"/>
<text text-anchor="middle" x="599.02" y="-57.2" font-family="Times,serif" font-size="14.00">isNear</text>
</g>
<!-- idWorld1 -->
<g id="node6" class="node">
<title>idWorld1</title>
<ellipse fill="none" stroke="black" cx="624.39" cy="-18" rx="46.23" ry="18"/>
<text text-anchor="middle" x="624.39" y="-12.95" font-family="Times,serif" font-size="14.00">idWorld1</text>
</g>
<!-- idTutorialRoom1&#45;&gt;idWorld1 -->
<g id="edge5" class="edge">
<title>idTutorialRoom1&#45;&gt;idWorld1</title>
<path fill="none" stroke="black" d="M624.39,-88.41C624.39,-76.64 624.39,-60.73 624.39,-47.11"/>
<polygon fill="black" stroke="black" points="627.89,-47.35 624.39,-37.35 620.89,-47.35 627.89,-47.35"/>
<text text-anchor="middle" x="652.52" y="-57.2" font-family="Times,serif" font-size="14.00">isInsideOf</text>
</g>
<!-- idGameRoom1 -->
<g id="node7" class="node">
<title>idGameRoom1</title>
<ellipse fill="none" stroke="black" cx="756.39" cy="-18" rx="68.24" ry="18"/>
<text text-anchor="middle" x="756.39" y="-12.95" font-family="Times,serif" font-size="14.00">idGameRoom1</text>
</g>
<!-- idTutorialRoom1&#45;&gt;idGameRoom1 -->
<g id="edge6" class="edge">
<title>idTutorialRoom1&#45;&gt;idGameRoom1</title>
<path fill="none" stroke="black" d="M653.1,-89.47C663.12,-83.69 674.37,-76.99 684.39,-70.5 698.3,-61.49 713.27,-50.94 725.93,-41.74"/>
<polygon fill="black" stroke="black" points="727.7,-44.05 733.7,-35.32 723.56,-38.4 727.7,-44.05"/>
<text text-anchor="middle" x="736.77" y="-57.2" font-family="Times,serif" font-size="14.00">isSouthOf</text>
</g>
<!-- idTutorialRoom1Door -->
<g id="node8" class="node">
<title>idTutorialRoom1Door</title>
<ellipse fill="none" stroke="black" cx="937.39" cy="-18" rx="94.34" ry="18"/>
<text text-anchor="middle" x="937.39" y="-12.95" font-family="Times,serif" font-size="14.00">idTutorialRoom1Door</text>
</g>
<!-- idTutorialRoom1&#45;&gt;idTutorialRoom1Door -->
<g id="edge8" class="edge">
<title>idTutorialRoom1&#45;&gt;idTutorialRoom1Door</title>
<path fill="none" stroke="black" d="M677.58,-93.34C704.83,-86.92 738.49,-78.68 768.39,-70.5 805.9,-60.24 847.7,-47.51 880.35,-37.27"/>
<polygon fill="black" stroke="black" points="881.12,-40.38 889.61,-34.04 879.02,-33.71 881.12,-40.38"/>
<text text-anchor="middle" x="852.77" y="-57.2" font-family="Times,serif" font-size="14.00">isSouthOf</text>
</g>
<!-- idGameRoom1BackOpening -->
<g id="node9" class="node">
<title>idGameRoom1BackOpening</title>
<ellipse fill="none" stroke="black" cx="1168.39" cy="-18" rx="118.91" ry="18"/>
<text text-anchor="middle" x="1168.39" y="-12.95" font-family="Times,serif" font-size="14.00">idGameRoom1BackOpening</text>
</g>
<!-- idTutorialRoom1&#45;&gt;idGameRoom1BackOpening -->
<g id="edge9" class="edge">
<title>idTutorialRoom1&#45;&gt;idGameRoom1BackOpening</title>
<path fill="none" stroke="black" d="M690.5,-97.45C743.12,-90.83 818.59,-80.89 884.39,-70.5 952.75,-59.71 1030,-45.57 1086.66,-34.84"/>
<polygon fill="black" stroke="black" points="1087.18,-38.12 1096.35,-32.81 1085.87,-31.24 1087.18,-38.12"/>
<text text-anchor="middle" x="1005.77" y="-57.2" font-family="Times,serif" font-size="14.00">isSouthOf</text>
</g>
<!-- idTutorialRoom1FrontOpening -->
<g id="node10" class="node">
<title>idTutorialRoom1FrontOpening</title>
<ellipse fill="none" stroke="black" cx="1432.39" cy="-18" rx="127.1" ry="18"/>
<text text-anchor="middle" x="1432.39" y="-12.95" font-family="Times,serif" font-size="14.00">idTutorialRoom1FrontOpening</text>
</g>
<!-- idTutorialRoom1&#45;&gt;idTutorialRoom1FrontOpening -->
<g id="edge10" class="edge">
<title>idTutorialRoom1&#45;&gt;idTutorialRoom1FrontOpening</title>
<path fill="none" stroke="black" d="M695.74,-100.44C778.14,-94.36 917.73,-83.36 1037.39,-70.5 1139.06,-59.57 1255.06,-44.09 1334.91,-32.95"/>
<polygon fill="black" stroke="black" points="1335.03,-36.33 1344.45,-31.48 1334.06,-29.4 1335.03,-36.33"/>
<text text-anchor="middle" x="1195.77" y="-57.2" font-family="Times,serif" font-size="14.00">isSouthOf</text>
</g>
</g>
</svg>
