<?xml version="1.0" encoding="UTF-8" standalone="no"?>
<!DOCTYPE svg PUBLIC "-//W3C//DTD SVG 1.1//EN"
 "http://www.w3.org/Graphics/SVG/1.1/DTD/svg11.dtd">
<!-- Generated by graphviz version 8.1.0 (20230707.0739)
 -->
<!-- Pages: 1 -->
<svg width="609pt" height="133pt"
 viewBox="0.00 0.00 609.49 132.50" xmlns="http://www.w3.org/2000/svg" xmlns:xlink="http://www.w3.org/1999/xlink">
<g id="graph0" class="graph" transform="scale(1 1) rotate(0) translate(4 128.5)">
<polygon fill="white" stroke="none" points="-4,4 -4,-128.5 605.49,-128.5 605.49,4 -4,4"/>
<!-- idTutorialRoom1DoorLock -->
<g id="node1" class="node">
<title>idTutorialRoom1DoorLock</title>
<ellipse fill="none" stroke="black" cx="179.49" cy="-106.5" rx="113.28" ry="18"/>
<text text-anchor="middle" x="179.49" y="-101.45" font-family="Times,serif" font-size="14.00">idTutorialRoom1DoorLock</text>
</g>
<!-- locked -->
<g id="node2" class="node">
<title>locked</title>
<ellipse fill="none" stroke="black" cx="35.49" cy="-18" rx="35.49" ry="18"/>
<text text-anchor="middle" x="35.49" y="-12.95" font-family="Times,serif" font-size="14.00">locked</text>
</g>
<!-- idTutorialRoom1DoorLock&#45;&gt;locked -->
<g id="edge1" class="edge">
<title>idTutorialRoom1DoorLock&#45;&gt;locked</title>
<path fill="none" stroke="black" d="M95.95,-93.99C69.25,-88.49 44.45,-80.81 36.24,-70.5 31.02,-63.96 29.52,-55.33 29.71,-47.01"/>
<polygon fill="black" stroke="black" points="33.29,-47.37 30.83,-37.07 26.33,-46.66 33.29,-47.37"/>
<text text-anchor="middle" x="169.61" y="-57.2" font-family="Times,serif" font-size="14.00">idTutorialRoom1DoorLock_prop_idLockedState</text>
</g>
<!-- true -->
<g id="node3" class="node">
<title>true</title>
<ellipse fill="none" stroke="black" cx="324.49" cy="-18" rx="27" ry="18"/>
<text text-anchor="middle" x="324.49" y="-12.95" font-family="Times,serif" font-size="14.00">true</text>
</g>
<!-- idTutorialRoom1DoorLock&#45;&gt;true -->
<g id="edge2" class="edge">
<title>idTutorialRoom1DoorLock&#45;&gt;true</title>
<path fill="none" stroke="black" d="M260.5,-93.52C275.72,-88.35 290.57,-80.99 302.49,-70.5 309.64,-64.19 314.55,-55.16 317.87,-46.41"/>
<polygon fill="black" stroke="black" points="321.46,-47.68 321.19,-37.09 314.8,-45.54 321.46,-47.68"/>
<text text-anchor="middle" x="457.49" y="-57.2" font-family="Times,serif" font-size="14.00">idTutorialRoom1DoorLock_prop_idUnknownObject</text>
</g>
</g>
</svg>
