<?xml version="1.0" encoding="UTF-8" standalone="no"?>
<!DOCTYPE svg PUBLIC "-//W3C//DTD SVG 1.1//EN"
 "http://www.w3.org/Graphics/SVG/1.1/DTD/svg11.dtd">
<!-- Generated by graphviz version 8.1.0 (20230707.0739)
 -->
<!-- Pages: 1 -->
<svg width="516pt" height="133pt"
 viewBox="0.00 0.00 515.87 132.50" xmlns="http://www.w3.org/2000/svg" xmlns:xlink="http://www.w3.org/1999/xlink">
<g id="graph0" class="graph" transform="scale(1 1) rotate(0) translate(4 128.5)">
<polygon fill="white" stroke="none" points="-4,4 -4,-128.5 511.87,-128.5 511.87,4 -4,4"/>
<!-- idWorld1 -->
<g id="node1" class="node">
<title>idWorld1</title>
<ellipse fill="none" stroke="black" cx="297.24" cy="-106.5" rx="46.23" ry="18"/>
<text text-anchor="middle" x="297.24" y="-101.45" font-family="Times,serif" font-size="14.00">idWorld1</text>
</g>
<!-- idGameRoom1 -->
<g id="node2" class="node">
<title>idGameRoom1</title>
<ellipse fill="none" stroke="black" cx="68.24" cy="-18" rx="68.24" ry="18"/>
<text text-anchor="middle" x="68.24" y="-12.95" font-family="Times,serif" font-size="14.00">idGameRoom1</text>
</g>
<!-- idWorld1&#45;&gt;idGameRoom1 -->
<g id="edge1" class="edge">
<title>idWorld1&#45;&gt;idGameRoom1</title>
<path fill="none" stroke="black" d="M264.92,-93.29C226.14,-78.64 160.79,-53.96 116.15,-37.1"/>
<polygon fill="black" stroke="black" points="117.71,-33.57 107.11,-33.31 115.23,-40.11 117.71,-33.57"/>
<text text-anchor="middle" x="221.87" y="-57.2" font-family="Times,serif" font-size="14.00">isNear</text>
</g>
<!-- idTutorialRoom1 -->
<g id="node3" class="node">
<title>idTutorialRoom1</title>
<ellipse fill="none" stroke="black" cx="230.24" cy="-18" rx="75.41" ry="18"/>
<text text-anchor="middle" x="230.24" y="-12.95" font-family="Times,serif" font-size="14.00">idTutorialRoom1</text>
</g>
<!-- idWorld1&#45;&gt;idTutorialRoom1 -->
<g id="edge2" class="edge">
<title>idWorld1&#45;&gt;idTutorialRoom1</title>
<path fill="none" stroke="black" d="M284.32,-88.82C274.56,-76.22 260.99,-58.7 249.89,-44.36"/>
<polygon fill="black" stroke="black" points="252.24,-42.68 243.35,-36.92 246.7,-46.97 252.24,-42.68"/>
<text text-anchor="middle" x="287.87" y="-57.2" font-family="Times,serif" font-size="14.00">isNear</text>
</g>
<!-- idPlayer -->
<g id="node4" class="node">
<title>idPlayer</title>
<ellipse fill="none" stroke="black" cx="365.24" cy="-18" rx="41.63" ry="18"/>
<text text-anchor="middle" x="365.24" y="-12.95" font-family="Times,serif" font-size="14.00">idPlayer</text>
</g>
<!-- idWorld1&#45;&gt;idPlayer -->
<g id="edge3" class="edge">
<title>idWorld1&#45;&gt;idPlayer</title>
<path fill="none" stroke="black" d="M310.35,-88.82C320.39,-76.06 334.39,-58.25 345.74,-43.81"/>
<polygon fill="black" stroke="black" points="348.97,-46.36 352.4,-36.33 343.47,-42.03 348.97,-46.36"/>
<text text-anchor="middle" x="355.87" y="-57.2" font-family="Times,serif" font-size="14.00">isNear</text>
</g>
<!-- idDesk1 -->
<g id="node5" class="node">
<title>idDesk1</title>
<ellipse fill="none" stroke="black" cx="466.24" cy="-18" rx="41.63" ry="18"/>
<text text-anchor="middle" x="466.24" y="-12.95" font-family="Times,serif" font-size="14.00">idDesk1</text>
</g>
<!-- idWorld1&#45;&gt;idDesk1 -->
<g id="edge4" class="edge">
<title>idWorld1&#45;&gt;idDesk1</title>
<path fill="none" stroke="black" d="M328.39,-92.83C343.34,-86.51 361.42,-78.51 377.24,-70.5 396.41,-60.8 417.23,-48.83 433.91,-38.88"/>
<polygon fill="black" stroke="black" points="435.45,-41.44 442.21,-33.28 431.84,-35.44 435.45,-41.44"/>
<text text-anchor="middle" x="424.87" y="-57.2" font-family="Times,serif" font-size="14.00">isNear</text>
</g>
</g>
</svg>
