<?xml version="1.0" encoding="UTF-8" standalone="no"?>
<!DOCTYPE svg PUBLIC "-//W3C//DTD SVG 1.1//EN"
 "http://www.w3.org/Graphics/SVG/1.1/DTD/svg11.dtd">
<!-- Generated by graphviz version 8.1.0 (20230707.0739)
 -->
<!-- Pages: 1 -->
<svg width="367pt" height="133pt"
 viewBox="0.00 0.00 366.75 132.50" xmlns="http://www.w3.org/2000/svg" xmlns:xlink="http://www.w3.org/1999/xlink">
<g id="graph0" class="graph" transform="scale(1 1) rotate(0) translate(4 128.5)">
<polygon fill="white" stroke="none" points="-4,4 -4,-128.5 362.75,-128.5 362.75,4 -4,4"/>
<!-- idArea1 -->
<g id="node1" class="node">
<title>idArea1</title>
<ellipse fill="none" stroke="black" cx="122" cy="-106.5" rx="40.6" ry="18"/>
<text text-anchor="middle" x="122" y="-101.45" font-family="Times,serif" font-size="14.00">idArea1</text>
</g>
<!-- logged -->
<g id="node2" class="node">
<title>logged</title>
<ellipse fill="none" stroke="black" cx="36" cy="-18" rx="36" ry="18"/>
<text text-anchor="middle" x="36" y="-12.95" font-family="Times,serif" font-size="14.00">logged</text>
</g>
<!-- idArea1&#45;&gt;logged -->
<g id="edge1" class="edge">
<title>idArea1&#45;&gt;logged</title>
<path fill="none" stroke="black" d="M84.09,-99.68C66.64,-94.91 47.46,-86.24 36.75,-70.5 32.11,-63.69 30.71,-55.11 30.83,-46.92"/>
<polygon fill="black" stroke="black" points="34.38,-47.46 31.75,-37.19 27.4,-46.86 34.38,-47.46"/>
<text text-anchor="middle" x="111.62" y="-57.2" font-family="Times,serif" font-size="14.00">idArea1_prop_idDescriptor</text>
</g>
<!-- stumpy -->
<g id="node3" class="node">
<title>stumpy</title>
<ellipse fill="none" stroke="black" cx="208" cy="-18" rx="38.56" ry="18"/>
<text text-anchor="middle" x="208" y="-12.95" font-family="Times,serif" font-size="14.00">stumpy</text>
</g>
<!-- idArea1&#45;&gt;stumpy -->
<g id="edge2" class="edge">
<title>idArea1&#45;&gt;stumpy</title>
<path fill="none" stroke="black" d="M152.22,-94.09C163.98,-88.44 176.8,-80.63 186,-70.5 192.15,-63.72 196.76,-54.95 200.12,-46.58"/>
<polygon fill="black" stroke="black" points="203.7,-47.96 203.74,-37.37 197.1,-45.63 203.7,-47.96"/>
<text text-anchor="middle" x="277.37" y="-57.2" font-family="Times,serif" font-size="14.00">idArea1_prop_idDescriptor_1</text>
</g>
</g>
</svg>
