<?xml version="1.0" encoding="UTF-8" standalone="no"?>
<!DOCTYPE svg PUBLIC "-//W3C//DTD SVG 1.1//EN"
 "http://www.w3.org/Graphics/SVG/1.1/DTD/svg11.dtd">
<!-- Generated by graphviz version 8.1.0 (20230707.0739)
 -->
<!-- Pages: 1 -->
<svg width="1210pt" height="221pt"
 viewBox="0.00 0.00 1210.42 221.00" xmlns="http://www.w3.org/2000/svg" xmlns:xlink="http://www.w3.org/1999/xlink">
<g id="graph0" class="graph" transform="scale(1 1) rotate(0) translate(4 217)">
<polygon fill="white" stroke="none" points="-4,4 -4,-217 1206.42,-217 1206.42,4 -4,4"/>
<!-- idBear1 -->
<g id="node1" class="node">
<title>idBear1</title>
<ellipse fill="none" stroke="black" cx="343" cy="-195" rx="40.09" ry="18"/>
<text text-anchor="middle" x="343" y="-189.95" font-family="Times,serif" font-size="14.00">idBear1</text>
</g>
<!-- yes -->
<g id="node2" class="node">
<title>yes</title>
<ellipse fill="none" stroke="black" cx="27" cy="-106.5" rx="27" ry="18"/>
<text text-anchor="middle" x="27" y="-101.45" font-family="Times,serif" font-size="14.00">yes</text>
</g>
<!-- idBear1&#45;&gt;yes -->
<g id="edge1" class="edge">
<title>idBear1&#45;&gt;yes</title>
<path fill="none" stroke="black" d="M302.6,-193.53C233.19,-192 94.95,-185.6 55.5,-159 46.76,-153.11 40.43,-143.6 36,-134.35"/>
<polygon fill="black" stroke="black" points="38.85,-133.09 31.76,-125.22 32.39,-135.79 38.85,-133.09"/>
<text text-anchor="middle" x="133.25" y="-145.7" font-family="Times,serif" font-size="14.00">idBear1_prop_idImmovable</text>
</g>
<!-- large -->
<g id="node3" class="node">
<title>large</title>
<ellipse fill="none" stroke="black" cx="205" cy="-106.5" rx="29.34" ry="18"/>
<text text-anchor="middle" x="205" y="-101.45" font-family="Times,serif" font-size="14.00">large</text>
</g>
<!-- idBear1&#45;&gt;large -->
<g id="edge2" class="edge">
<title>idBear1&#45;&gt;large</title>
<path fill="none" stroke="black" d="M303.28,-191.27C277.82,-187.55 245.64,-178.92 224.25,-159 217.47,-152.69 213.07,-143.76 210.21,-135.11"/>
<polygon fill="black" stroke="black" points="213.34,-134.26 207.36,-125.52 206.58,-136.08 213.34,-134.26"/>
<text text-anchor="middle" x="282.38" y="-145.7" font-family="Times,serif" font-size="14.00">idBear1_prop_idSize</text>
</g>
<!-- angry -->
<g id="node4" class="node">
<title>angry</title>
<ellipse fill="none" stroke="black" cx="343" cy="-106.5" rx="31.9" ry="18"/>
<text text-anchor="middle" x="343" y="-101.45" font-family="Times,serif" font-size="14.00">angry</text>
</g>
<!-- idBear1&#45;&gt;angry -->
<g id="edge3" class="edge">
<title>idBear1&#45;&gt;angry</title>
<path fill="none" stroke="black" d="M343,-176.91C343,-165.14 343,-149.23 343,-135.61"/>
<polygon fill="black" stroke="black" points="346.5,-135.85 343,-125.85 339.5,-135.85 346.5,-135.85"/>
<text text-anchor="middle" x="417.25" y="-145.7" font-family="Times,serif" font-size="14.00">idBear1_prop_idDescriptor</text>
</g>
<!-- idCarKey1 -->
<g id="node5" class="node">
<title>idCarKey1</title>
<ellipse fill="none" stroke="black" cx="479" cy="-106.5" rx="51.35" ry="18"/>
<text text-anchor="middle" x="479" y="-101.45" font-family="Times,serif" font-size="14.00">idCarKey1</text>
</g>
<!-- idBear1&#45;&gt;idCarKey1 -->
<g id="edge4" class="edge">
<title>idBear1&#45;&gt;idCarKey1</title>
<path fill="none" stroke="black" d="M381.91,-190.34C421.64,-185.71 479.37,-176.18 493,-159 498.57,-151.98 497.93,-142.92 494.99,-134.36"/>
<polygon fill="black" stroke="black" points="497.78,-133.03 490.51,-125.33 491.39,-135.89 497.78,-133.03"/>
<text text-anchor="middle" x="525.38" y="-145.7" font-family="Times,serif" font-size="14.00">isSouthOf</text>
</g>
<!-- idSideMirror1 -->
<g id="node8" class="node">
<title>idSideMirror1</title>
<ellipse fill="none" stroke="black" cx="818" cy="-106.5" rx="64.15" ry="18"/>
<text text-anchor="middle" x="818" y="-101.45" font-family="Times,serif" font-size="14.00">idSideMirror1</text>
</g>
<!-- idBear1&#45;&gt;idSideMirror1 -->
<g id="edge5" class="edge">
<title>idBear1&#45;&gt;idSideMirror1</title>
<path fill="none" stroke="black" d="M380.56,-188.24C423.34,-181.59 495.31,-170.13 557,-159 625.67,-146.61 704.2,-130.91 757.03,-120.12"/>
<polygon fill="black" stroke="black" points="757.47,-123.39 766.57,-117.96 756.07,-116.54 757.47,-123.39"/>
<text text-anchor="middle" x="669.5" y="-145.7" font-family="Times,serif" font-size="14.00">isWestOf</text>
</g>
<!-- black -->
<g id="node6" class="node">
<title>black</title>
<ellipse fill="none" stroke="black" cx="221" cy="-18" rx="30.88" ry="18"/>
<text text-anchor="middle" x="221" y="-12.95" font-family="Times,serif" font-size="14.00">black</text>
</g>
<!-- idCarKey1&#45;&gt;black -->
<g id="edge6" class="edge">
<title>idCarKey1&#45;&gt;black</title>
<path fill="none" stroke="black" d="M434.62,-97.03C418.69,-94.13 400.57,-90.99 384,-88.5 351.29,-83.58 261.5,-91.86 236.25,-70.5 229.34,-64.66 225.48,-55.84 223.35,-47.15"/>
<polygon fill="black" stroke="black" points="226.64,-46.69 221.47,-37.44 219.75,-47.9 226.64,-46.69"/>
<text text-anchor="middle" x="306.38" y="-57.2" font-family="Times,serif" font-size="14.00">idCarKey1_prop_idColor</text>
</g>
<!-- true -->
<g id="node7" class="node">
<title>true</title>
<ellipse fill="none" stroke="black" cx="383" cy="-18" rx="27" ry="18"/>
<text text-anchor="middle" x="383" y="-12.95" font-family="Times,serif" font-size="14.00">true</text>
</g>
<!-- idCarKey1&#45;&gt;true -->
<g id="edge7" class="edge">
<title>idCarKey1&#45;&gt;true</title>
<path fill="none" stroke="black" d="M431.34,-99.5C413.42,-94.68 394.75,-86.02 383.75,-70.5 378.92,-63.68 377.51,-54.97 377.68,-46.66"/>
<polygon fill="black" stroke="black" points="381.25,-47.08 378.7,-36.8 374.28,-46.43 381.25,-47.08"/>
<text text-anchor="middle" x="482.62" y="-57.2" font-family="Times,serif" font-size="14.00">idCarKey1_prop_idUnknownObject</text>
</g>
<!-- idTheCar1 -->
<g id="node11" class="node">
<title>idTheCar1</title>
<ellipse fill="none" stroke="black" cx="603" cy="-18" rx="50.33" ry="18"/>
<text text-anchor="middle" x="603" y="-12.95" font-family="Times,serif" font-size="14.00">idTheCar1</text>
</g>
<!-- idCarKey1&#45;&gt;idTheCar1 -->
<g id="edge8" class="edge">
<title>idCarKey1&#45;&gt;idTheCar1</title>
<path fill="none" stroke="black" d="M525.19,-98.22C544.39,-93.18 565.71,-84.71 581,-70.5 587.89,-64.1 592.71,-55.19 596.04,-46.58"/>
<polygon fill="black" stroke="black" points="599.59,-48 599.41,-37.41 592.95,-45.8 599.59,-48"/>
<text text-anchor="middle" x="621.12" y="-57.2" font-family="Times,serif" font-size="14.00">isInsideOf</text>
</g>
<!-- broken -->
<g id="node9" class="node">
<title>broken</title>
<ellipse fill="none" stroke="black" cx="708" cy="-18" rx="36.51" ry="18"/>
<text text-anchor="middle" x="708" y="-12.95" font-family="Times,serif" font-size="14.00">broken</text>
</g>
<!-- idSideMirror1&#45;&gt;broken -->
<g id="edge9" class="edge">
<title>idSideMirror1&#45;&gt;broken</title>
<path fill="none" stroke="black" d="M757.8,-99.88C739.1,-94.99 720.37,-86.18 708.75,-70.5 703.77,-63.78 702.33,-55.1 702.51,-46.79"/>
<polygon fill="black" stroke="black" points="706.08,-47.19 703.57,-36.9 699.11,-46.51 706.08,-47.19"/>
<text text-anchor="middle" x="807.62" y="-57.2" font-family="Times,serif" font-size="14.00">idSideMirror1_prop_idDescriptor_2</text>
</g>
<!-- idFace -->
<g id="node10" class="node">
<title>idFace</title>
<ellipse fill="none" stroke="black" cx="928" cy="-18" rx="35.49" ry="18"/>
<text text-anchor="middle" x="928" y="-12.95" font-family="Times,serif" font-size="14.00">idFace</text>
</g>
<!-- idSideMirror1&#45;&gt;idFace -->
<g id="edge10" class="edge">
<title>idSideMirror1&#45;&gt;idFace</title>
<path fill="none" stroke="black" d="M865.83,-94.15C880.13,-88.88 894.93,-81.29 906,-70.5 912.66,-64.01 917.41,-55.18 920.75,-46.67"/>
<polygon fill="black" stroke="black" points="924.39,-47.85 924.27,-37.25 917.75,-45.61 924.39,-47.85"/>
<text text-anchor="middle" x="1016.62" y="-57.2" font-family="Times,serif" font-size="14.00">idSideMirror1_prop_idDescriptor_1</text>
</g>
<!-- idClearing1 -->
<g id="node12" class="node">
<title>idClearing1</title>
<ellipse fill="none" stroke="black" cx="1148" cy="-18" rx="54.42" ry="18"/>
<text text-anchor="middle" x="1148" y="-12.95" font-family="Times,serif" font-size="14.00">idClearing1</text>
</g>
<!-- idSideMirror1&#45;&gt;idClearing1 -->
<g id="edge11" class="edge">
<title>idSideMirror1&#45;&gt;idClearing1</title>
<path fill="none" stroke="black" d="M882.12,-104.75C958.76,-102.72 1081.38,-95.52 1119,-70.5 1127.69,-64.72 1134.05,-55.4 1138.57,-46.27"/>
<polygon fill="black" stroke="black" points="1142.15,-47.81 1142.9,-37.24 1135.72,-45.03 1142.15,-47.81"/>
<text text-anchor="middle" x="1151.62" y="-57.2" font-family="Times,serif" font-size="14.00">isNear</text>
</g>
</g>
</svg>
