<?xml version="1.0" encoding="UTF-8" standalone="no"?>
<!DOCTYPE svg PUBLIC "-//W3C//DTD SVG 1.1//EN"
 "http://www.w3.org/Graphics/SVG/1.1/DTD/svg11.dtd">
<!-- Generated by graphviz version 8.1.0 (20230707.0739)
 -->
<!-- Pages: 1 -->
<svg width="331pt" height="133pt"
 viewBox="0.00 0.00 331.14 132.50" xmlns="http://www.w3.org/2000/svg" xmlns:xlink="http://www.w3.org/1999/xlink">
<g id="graph0" class="graph" transform="scale(1 1) rotate(0) translate(4 128.5)">
<polygon fill="white" stroke="none" points="-4,4 -4,-128.5 327.14,-128.5 327.14,4 -4,4"/>
<!-- idBush1 -->
<g id="node1" class="node">
<title>idBush1</title>
<ellipse fill="none" stroke="black" cx="105.39" cy="-106.5" rx="41.63" ry="18"/>
<text text-anchor="middle" x="105.39" y="-101.45" font-family="Times,serif" font-size="14.00">idBush1</text>
</g>
<!-- green -->
<g id="node2" class="node">
<title>green</title>
<ellipse fill="none" stroke="black" cx="31.39" cy="-18" rx="31.39" ry="18"/>
<text text-anchor="middle" x="31.39" y="-12.95" font-family="Times,serif" font-size="14.00">green</text>
</g>
<!-- idBush1&#45;&gt;green -->
<g id="edge1" class="edge">
<title>idBush1&#45;&gt;green</title>
<path fill="none" stroke="black" d="M69.7,-96.92C55.81,-91.68 41.25,-83.4 32.89,-70.5 28.41,-63.59 26.96,-54.98 26.94,-46.79"/>
<polygon fill="black" stroke="black" points="30.48,-47.3 27.65,-37.09 23.49,-46.83 30.48,-47.3"/>
<text text-anchor="middle" x="95.64" y="-57.2" font-family="Times,serif" font-size="14.00">idBush1_prop_idColor</text>
</g>
<!-- yes -->
<g id="node3" class="node">
<title>yes</title>
<ellipse fill="none" stroke="black" cx="179.39" cy="-18" rx="27" ry="18"/>
<text text-anchor="middle" x="179.39" y="-12.95" font-family="Times,serif" font-size="14.00">yes</text>
</g>
<!-- idBush1&#45;&gt;yes -->
<g id="edge2" class="edge">
<title>idBush1&#45;&gt;yes</title>
<path fill="none" stroke="black" d="M131.52,-92.03C140.62,-86.35 150.32,-79.05 157.39,-70.5 163.23,-63.44 167.75,-54.6 171.13,-46.25"/>
<polygon fill="black" stroke="black" points="174.69,-47.69 174.82,-37.1 168.12,-45.3 174.69,-47.69"/>
<text text-anchor="middle" x="244.77" y="-57.2" font-family="Times,serif" font-size="14.00">idBush1_prop_idImmovable</text>
</g>
</g>
</svg>
