<?xml version="1.0" encoding="UTF-8" standalone="no"?>
<!DOCTYPE svg PUBLIC "-//W3C//DTD SVG 1.1//EN"
 "http://www.w3.org/Graphics/SVG/1.1/DTD/svg11.dtd">
<!-- Generated by graphviz version 8.1.0 (20230707.0739)
 -->
<!-- Pages: 1 -->
<svg width="463pt" height="221pt"
 viewBox="0.00 0.00 462.51 221.00" xmlns="http://www.w3.org/2000/svg" xmlns:xlink="http://www.w3.org/1999/xlink">
<g id="graph0" class="graph" transform="scale(1 1) rotate(0) translate(4 217)">
<polygon fill="white" stroke="none" points="-4,4 -4,-217 458.51,-217 458.51,4 -4,4"/>
<!-- idBumper1 -->
<g id="node1" class="node">
<title>idBumper1</title>
<ellipse fill="none" stroke="black" cx="252.88" cy="-195" rx="52.89" ry="18"/>
<text text-anchor="middle" x="252.88" y="-189.95" font-family="Times,serif" font-size="14.00">idBumper1</text>
</g>
<!-- idCarKey1 -->
<g id="node2" class="node">
<title>idCarKey1</title>
<ellipse fill="none" stroke="black" cx="192.88" cy="-106.5" rx="51.35" ry="18"/>
<text text-anchor="middle" x="192.88" y="-101.45" font-family="Times,serif" font-size="14.00">idCarKey1</text>
</g>
<!-- idBumper1&#45;&gt;idCarKey1 -->
<g id="edge2" class="edge">
<title>idBumper1&#45;&gt;idCarKey1</title>
<path fill="none" stroke="black" d="M241.31,-177.32C232.65,-164.84 220.65,-147.53 210.75,-133.27"/>
<polygon fill="black" stroke="black" points="213.19,-131.64 204.62,-125.42 207.44,-135.63 213.19,-131.64"/>
<text text-anchor="middle" x="246.5" y="-145.7" font-family="Times,serif" font-size="14.00">isNear</text>
</g>
<!-- idTheCar1 -->
<g id="node5" class="node">
<title>idTheCar1</title>
<ellipse fill="none" stroke="black" cx="362.88" cy="-106.5" rx="50.33" ry="18"/>
<text text-anchor="middle" x="362.88" y="-101.45" font-family="Times,serif" font-size="14.00">idTheCar1</text>
</g>
<!-- idBumper1&#45;&gt;idTheCar1 -->
<g id="edge1" class="edge">
<title>idBumper1&#45;&gt;idTheCar1</title>
<path fill="none" stroke="black" d="M273.31,-177.93C290.48,-164.44 315.19,-145 334.31,-129.96"/>
<polygon fill="black" stroke="black" points="336.23,-132.12 341.93,-123.19 331.9,-126.62 336.23,-132.12"/>
<text text-anchor="middle" x="346" y="-145.7" font-family="Times,serif" font-size="14.00">isInsideOf</text>
</g>
<!-- black -->
<g id="node3" class="node">
<title>black</title>
<ellipse fill="none" stroke="black" cx="30.88" cy="-18" rx="30.88" ry="18"/>
<text text-anchor="middle" x="30.88" y="-12.95" font-family="Times,serif" font-size="14.00">black</text>
</g>
<!-- idCarKey1&#45;&gt;black -->
<g id="edge3" class="edge">
<title>idCarKey1&#45;&gt;black</title>
<path fill="none" stroke="black" d="M141.54,-104.47C111.62,-101.29 75.01,-92.63 50.13,-70.5 43.13,-64.28 38.67,-55.26 35.83,-46.5"/>
<polygon fill="black" stroke="black" points="39.03,-45.94 33.1,-37.16 32.27,-47.72 39.03,-45.94"/>
<text text-anchor="middle" x="120.25" y="-57.2" font-family="Times,serif" font-size="14.00">idCarKey1_prop_idColor</text>
</g>
<!-- true -->
<g id="node4" class="node">
<title>true</title>
<ellipse fill="none" stroke="black" cx="192.88" cy="-18" rx="27" ry="18"/>
<text text-anchor="middle" x="192.88" y="-12.95" font-family="Times,serif" font-size="14.00">true</text>
</g>
<!-- idCarKey1&#45;&gt;true -->
<g id="edge4" class="edge">
<title>idCarKey1&#45;&gt;true</title>
<path fill="none" stroke="black" d="M192.88,-88.41C192.88,-76.64 192.88,-60.73 192.88,-47.11"/>
<polygon fill="black" stroke="black" points="196.38,-47.35 192.88,-37.35 189.38,-47.35 196.38,-47.35"/>
<text text-anchor="middle" x="291.5" y="-57.2" font-family="Times,serif" font-size="14.00">idCarKey1_prop_idUnknownObject</text>
</g>
<!-- idPlayer -->
<g id="node6" class="node">
<title>idPlayer</title>
<ellipse fill="none" stroke="black" cx="412.88" cy="-18" rx="41.63" ry="18"/>
<text text-anchor="middle" x="412.88" y="-12.95" font-family="Times,serif" font-size="14.00">idPlayer</text>
</g>
<!-- idTheCar1&#45;&gt;idPlayer -->
<g id="edge5" class="edge">
<title>idTheCar1&#45;&gt;idPlayer</title>
<path fill="none" stroke="black" d="M377.52,-89.09C382.15,-83.43 387.04,-76.91 390.88,-70.5 395.39,-62.96 399.46,-54.32 402.84,-46.3"/>
<polygon fill="black" stroke="black" points="406.39,-47.85 406.85,-37.26 399.89,-45.25 406.39,-47.85"/>
<text text-anchor="middle" x="416.5" y="-57.2" font-family="Times,serif" font-size="14.00">isNear</text>
</g>
</g>
</svg>
