<?xml version="1.0" encoding="UTF-8" standalone="no"?>
<!DOCTYPE svg PUBLIC "-//W3C//DTD SVG 1.1//EN"
 "http://www.w3.org/Graphics/SVG/1.1/DTD/svg11.dtd">
<!-- Generated by graphviz version 8.1.0 (20230707.0739)
 -->
<!-- Pages: 1 -->
<svg width="640pt" height="221pt"
 viewBox="0.00 0.00 640.38 221.00" xmlns="http://www.w3.org/2000/svg" xmlns:xlink="http://www.w3.org/1999/xlink">
<g id="graph0" class="graph" transform="scale(1 1) rotate(0) translate(4 217)">
<polygon fill="white" stroke="none" points="-4,4 -4,-217 636.38,-217 636.38,4 -4,4"/>
<!-- idCarKey1 -->
<g id="node1" class="node">
<title>idCarKey1</title>
<ellipse fill="none" stroke="black" cx="192.88" cy="-195" rx="51.35" ry="18"/>
<text text-anchor="middle" x="192.88" y="-189.95" font-family="Times,serif" font-size="14.00">idCarKey1</text>
</g>
<!-- black -->
<g id="node2" class="node">
<title>black</title>
<ellipse fill="none" stroke="black" cx="30.88" cy="-106.5" rx="30.88" ry="18"/>
<text text-anchor="middle" x="30.88" y="-101.45" font-family="Times,serif" font-size="14.00">black</text>
</g>
<!-- idCarKey1&#45;&gt;black -->
<g id="edge1" class="edge">
<title>idCarKey1&#45;&gt;black</title>
<path fill="none" stroke="black" d="M141.54,-192.97C111.62,-189.79 75.01,-181.13 50.13,-159 43.13,-152.78 38.67,-143.76 35.83,-135"/>
<polygon fill="black" stroke="black" points="39.03,-134.44 33.1,-125.66 32.27,-136.22 39.03,-134.44"/>
<text text-anchor="middle" x="120.25" y="-145.7" font-family="Times,serif" font-size="14.00">idCarKey1_prop_idColor</text>
</g>
<!-- true -->
<g id="node3" class="node">
<title>true</title>
<ellipse fill="none" stroke="black" cx="192.88" cy="-106.5" rx="27" ry="18"/>
<text text-anchor="middle" x="192.88" y="-101.45" font-family="Times,serif" font-size="14.00">true</text>
</g>
<!-- idCarKey1&#45;&gt;true -->
<g id="edge2" class="edge">
<title>idCarKey1&#45;&gt;true</title>
<path fill="none" stroke="black" d="M192.88,-176.91C192.88,-165.14 192.88,-149.23 192.88,-135.61"/>
<polygon fill="black" stroke="black" points="196.38,-135.85 192.88,-125.85 189.38,-135.85 196.38,-135.85"/>
<text text-anchor="middle" x="291.5" y="-145.7" font-family="Times,serif" font-size="14.00">idCarKey1_prop_idUnknownObject</text>
</g>
<!-- idCar1 -->
<g id="node4" class="node">
<title>idCar1</title>
<ellipse fill="none" stroke="black" cx="412.88" cy="-106.5" rx="36" ry="18"/>
<text text-anchor="middle" x="412.88" y="-101.45" font-family="Times,serif" font-size="14.00">idCar1</text>
</g>
<!-- idCarKey1&#45;&gt;idCar1 -->
<g id="edge3" class="edge">
<title>idCarKey1&#45;&gt;idCar1</title>
<path fill="none" stroke="black" d="M243,-190.54C293.96,-186.1 368.53,-176.74 390.88,-159 398.35,-153.07 403.33,-144.12 406.62,-135.34"/>
<polygon fill="black" stroke="black" points="410.23,-136.51 409.86,-125.92 403.55,-134.43 410.23,-136.51"/>
<text text-anchor="middle" x="429.38" y="-145.7" font-family="Times,serif" font-size="14.00">isWestOf</text>
</g>
<!-- old -->
<g id="node5" class="node">
<title>old</title>
<ellipse fill="none" stroke="black" cx="329.88" cy="-18" rx="27" ry="18"/>
<text text-anchor="middle" x="329.88" y="-12.95" font-family="Times,serif" font-size="14.00">old</text>
</g>
<!-- idCar1&#45;&gt;old -->
<g id="edge4" class="edge">
<title>idCar1&#45;&gt;old</title>
<path fill="none" stroke="black" d="M379.2,-99.89C361.89,-95.14 342.2,-86.42 331.38,-70.5 326.75,-63.69 325.25,-55.11 325.24,-46.92"/>
<polygon fill="black" stroke="black" points="328.78,-47.41 325.98,-37.19 321.8,-46.92 328.78,-47.41"/>
<text text-anchor="middle" x="403.13" y="-57.2" font-family="Times,serif" font-size="14.00">idCar1_prop_idDescriptor</text>
</g>
<!-- yes -->
<g id="node6" class="node">
<title>yes</title>
<ellipse fill="none" stroke="black" cx="495.88" cy="-18" rx="27" ry="18"/>
<text text-anchor="middle" x="495.88" y="-12.95" font-family="Times,serif" font-size="14.00">yes</text>
</g>
<!-- idCar1&#45;&gt;yes -->
<g id="edge5" class="edge">
<title>idCar1&#45;&gt;yes</title>
<path fill="none" stroke="black" d="M440.44,-94.44C451.98,-88.7 464.79,-80.72 473.88,-70.5 480.06,-63.55 484.69,-54.61 488.07,-46.13"/>
<polygon fill="black" stroke="black" points="491.68,-47.42 491.7,-36.83 485.08,-45.09 491.68,-47.42"/>
<text text-anchor="middle" x="558.13" y="-57.2" font-family="Times,serif" font-size="14.00">idCar1_prop_idImmovable</text>
</g>
</g>
</svg>
