<?xml version="1.0" encoding="UTF-8" standalone="no"?>
<!DOCTYPE svg PUBLIC "-//W3C//DTD SVG 1.1//EN"
 "http://www.w3.org/Graphics/SVG/1.1/DTD/svg11.dtd">
<!-- Generated by graphviz version 8.1.0 (20230707.0739)
 -->
<!-- Pages: 1 -->
<svg width="645pt" height="221pt"
 viewBox="0.00 0.00 644.97 221.00" xmlns="http://www.w3.org/2000/svg" xmlns:xlink="http://www.w3.org/1999/xlink">
<g id="graph0" class="graph" transform="scale(1 1) rotate(0) translate(4 217)">
<polygon fill="white" stroke="none" points="-4,4 -4,-217 640.97,-217 640.97,4 -4,4"/>
<!-- idCar1 -->
<g id="node1" class="node">
<title>idCar1</title>
<ellipse fill="none" stroke="black" cx="252.88" cy="-195" rx="36" ry="18"/>
<text text-anchor="middle" x="252.88" y="-189.95" font-family="Times,serif" font-size="14.00">idCar1</text>
</g>
<!-- black -->
<g id="node2" class="node">
<title>black</title>
<ellipse fill="none" stroke="black" cx="30.88" cy="-106.5" rx="30.88" ry="18"/>
<text text-anchor="middle" x="30.88" y="-101.45" font-family="Times,serif" font-size="14.00">black</text>
</g>
<!-- idCar1&#45;&gt;black -->
<g id="edge1" class="edge">
<title>idCar1&#45;&gt;black</title>
<path fill="none" stroke="black" d="M217.14,-192.47C164.69,-189.49 70.38,-181.13 45.63,-159 38.9,-152.98 35.16,-144.13 33.1,-135.45"/>
<polygon fill="black" stroke="black" points="36.41,-135.06 31.29,-125.79 29.51,-136.23 36.41,-135.06"/>
<text text-anchor="middle" x="104" y="-145.7" font-family="Times,serif" font-size="14.00">idCar1_prop_idColor</text>
</g>
<!-- old -->
<g id="node3" class="node">
<title>old</title>
<ellipse fill="none" stroke="black" cx="169.88" cy="-106.5" rx="27" ry="18"/>
<text text-anchor="middle" x="169.88" y="-101.45" font-family="Times,serif" font-size="14.00">old</text>
</g>
<!-- idCar1&#45;&gt;old -->
<g id="edge2" class="edge">
<title>idCar1&#45;&gt;old</title>
<path fill="none" stroke="black" d="M219.2,-188.39C201.89,-183.64 182.2,-174.92 171.38,-159 166.75,-152.19 165.25,-143.61 165.24,-135.42"/>
<polygon fill="black" stroke="black" points="168.78,-135.91 165.98,-125.69 161.8,-135.42 168.78,-135.91"/>
<text text-anchor="middle" x="243.13" y="-145.7" font-family="Times,serif" font-size="14.00">idCar1_prop_idDescriptor</text>
</g>
<!-- yes -->
<g id="node4" class="node">
<title>yes</title>
<ellipse fill="none" stroke="black" cx="335.88" cy="-106.5" rx="27" ry="18"/>
<text text-anchor="middle" x="335.88" y="-101.45" font-family="Times,serif" font-size="14.00">yes</text>
</g>
<!-- idCar1&#45;&gt;yes -->
<g id="edge3" class="edge">
<title>idCar1&#45;&gt;yes</title>
<path fill="none" stroke="black" d="M280.44,-182.94C291.98,-177.2 304.79,-169.22 313.88,-159 320.06,-152.05 324.69,-143.11 328.07,-134.63"/>
<polygon fill="black" stroke="black" points="331.68,-135.92 331.7,-125.33 325.08,-133.59 331.68,-135.92"/>
<text text-anchor="middle" x="399.13" y="-145.7" font-family="Times,serif" font-size="14.00">idCar1_prop_idImmovable</text>
</g>
<!-- idTaillight1 -->
<g id="node5" class="node">
<title>idTaillight1</title>
<ellipse fill="none" stroke="black" cx="507.88" cy="-106.5" rx="54.42" ry="18"/>
<text text-anchor="middle" x="507.88" y="-101.45" font-family="Times,serif" font-size="14.00">idTaillight1</text>
</g>
<!-- idCar1&#45;&gt;idTaillight1 -->
<g id="edge4" class="edge">
<title>idCar1&#45;&gt;idTaillight1</title>
<path fill="none" stroke="black" d="M288.49,-192.08C343.7,-188.5 446.75,-179.26 476.88,-159 485.78,-153.01 492.53,-143.53 497.43,-134.32"/>
<polygon fill="black" stroke="black" points="500.91,-136.15 502.02,-125.62 494.58,-133.16 500.91,-136.15"/>
<text text-anchor="middle" x="516.13" y="-145.7" font-family="Times,serif" font-size="14.00">isEastOf</text>
</g>
<!-- unlit -->
<g id="node6" class="node">
<title>unlit</title>
<ellipse fill="none" stroke="black" cx="418.88" cy="-18" rx="27.81" ry="18"/>
<text text-anchor="middle" x="418.88" y="-12.95" font-family="Times,serif" font-size="14.00">unlit</text>
</g>
<!-- idTaillight1&#45;&gt;unlit -->
<g id="edge5" class="edge">
<title>idTaillight1&#45;&gt;unlit</title>
<path fill="none" stroke="black" d="M460.4,-97.61C444.81,-92.54 429.08,-84.2 419.63,-70.5 414.95,-63.72 413.54,-55.15 413.66,-46.96"/>
<polygon fill="black" stroke="black" points="417.21,-47.49 414.59,-37.22 410.24,-46.88 417.21,-47.49"/>
<text text-anchor="middle" x="497.5" y="-57.2" font-family="Times,serif" font-size="14.00">idTaillight1_prop_idLitState</text>
</g>
<!-- idSpill1 -->
<g id="node7" class="node">
<title>idSpill1</title>
<ellipse fill="none" stroke="black" cx="596.88" cy="-18" rx="40.09" ry="18"/>
<text text-anchor="middle" x="596.88" y="-12.95" font-family="Times,serif" font-size="14.00">idSpill1</text>
</g>
<!-- idTaillight1&#45;&gt;idSpill1 -->
<g id="edge6" class="edge">
<title>idTaillight1&#45;&gt;idSpill1</title>
<path fill="none" stroke="black" d="M543.31,-92.58C554.52,-87.13 566.23,-79.84 574.88,-70.5 581.19,-63.68 585.86,-54.76 589.23,-46.28"/>
<polygon fill="black" stroke="black" points="592.84,-47.54 592.83,-36.94 586.23,-45.23 592.84,-47.54"/>
<text text-anchor="middle" x="610.38" y="-57.2" font-family="Times,serif" font-size="14.00">isWestOf</text>
</g>
</g>
</svg>
