<?xml version="1.0" encoding="UTF-8" standalone="no"?>
<!DOCTYPE svg PUBLIC "-//W3C//DTD SVG 1.1//EN"
 "http://www.w3.org/Graphics/SVG/1.1/DTD/svg11.dtd">
<!-- Generated by graphviz version 8.1.0 (20230707.0739)
 -->
<!-- Pages: 1 -->
<svg width="676pt" height="133pt"
 viewBox="0.00 0.00 676.37 132.50" xmlns="http://www.w3.org/2000/svg" xmlns:xlink="http://www.w3.org/1999/xlink">
<g id="graph0" class="graph" transform="scale(1 1) rotate(0) translate(4 128.5)">
<polygon fill="white" stroke="none" points="-4,4 -4,-128.5 672.37,-128.5 672.37,4 -4,4"/>
<!-- idCarDoor1 -->
<g id="node1" class="node">
<title>idCarDoor1</title>
<ellipse fill="none" stroke="black" cx="302.87" cy="-106.5" rx="54.93" ry="18"/>
<text text-anchor="middle" x="302.87" y="-101.45" font-family="Times,serif" font-size="14.00">idCarDoor1</text>
</g>
<!-- idCarDoorLock1 -->
<g id="node2" class="node">
<title>idCarDoorLock1</title>
<ellipse fill="none" stroke="black" cx="73.87" cy="-18" rx="73.87" ry="18"/>
<text text-anchor="middle" x="73.87" y="-12.95" font-family="Times,serif" font-size="14.00">idCarDoorLock1</text>
</g>
<!-- idCarDoor1&#45;&gt;idCarDoorLock1 -->
<g id="edge1" class="edge">
<title>idCarDoor1&#45;&gt;idCarDoorLock1</title>
<path fill="none" stroke="black" d="M249.21,-102.55C195.18,-98.54 116.6,-89.56 93.37,-70.5 86.12,-64.55 81.56,-55.6 78.7,-46.82"/>
<polygon fill="black" stroke="black" points="81.89,-46.19 75.98,-37.4 75.12,-47.96 81.89,-46.19"/>
<text text-anchor="middle" x="196.62" y="-57.2" font-family="Times,serif" font-size="14.00">idCarDoor1_prop_idLockMechanism</text>
</g>
<!-- crumpled -->
<g id="node3" class="node">
<title>crumpled</title>
<ellipse fill="none" stroke="black" cx="302.87" cy="-18" rx="46.23" ry="18"/>
<text text-anchor="middle" x="302.87" y="-12.95" font-family="Times,serif" font-size="14.00">crumpled</text>
</g>
<!-- idCarDoor1&#45;&gt;crumpled -->
<g id="edge2" class="edge">
<title>idCarDoor1&#45;&gt;crumpled</title>
<path fill="none" stroke="black" d="M302.87,-88.41C302.87,-76.64 302.87,-60.73 302.87,-47.11"/>
<polygon fill="black" stroke="black" points="306.37,-47.35 302.87,-37.35 299.37,-47.35 306.37,-47.35"/>
<text text-anchor="middle" x="394.75" y="-57.2" font-family="Times,serif" font-size="14.00">idCarDoor1_prop_idDescriptor_1</text>
</g>
<!-- closed -->
<g id="node4" class="node">
<title>closed</title>
<ellipse fill="none" stroke="black" cx="509.87" cy="-18" rx="34.46" ry="18"/>
<text text-anchor="middle" x="509.87" y="-12.95" font-family="Times,serif" font-size="14.00">closed</text>
</g>
<!-- idCarDoor1&#45;&gt;closed -->
<g id="edge3" class="edge">
<title>idCarDoor1&#45;&gt;closed</title>
<path fill="none" stroke="black" d="M355.5,-101.06C402.82,-96.1 467.87,-86.58 487.87,-70.5 495.31,-64.52 500.27,-55.56 503.57,-46.79"/>
<polygon fill="black" stroke="black" points="507.18,-47.97 506.82,-37.38 500.5,-45.88 507.18,-47.97"/>
<text text-anchor="middle" x="583.62" y="-57.2" font-family="Times,serif" font-size="14.00">idCarDoor1_prop_idOpenState</text>
</g>
</g>
</svg>
