<?xml version="1.0" encoding="UTF-8" standalone="no"?>
<!DOCTYPE svg PUBLIC "-//W3C//DTD SVG 1.1//EN"
 "http://www.w3.org/Graphics/SVG/1.1/DTD/svg11.dtd">
<!-- Generated by graphviz version 8.1.0 (20230707.0739)
 -->
<!-- Pages: 1 -->
<svg width="500pt" height="221pt"
 viewBox="0.00 0.00 500.18 221.00" xmlns="http://www.w3.org/2000/svg" xmlns:xlink="http://www.w3.org/1999/xlink">
<g id="graph0" class="graph" transform="scale(1 1) rotate(0) translate(4 217)">
<polygon fill="white" stroke="none" points="-4,4 -4,-217 496.18,-217 496.18,4 -4,4"/>
<!-- idClearing1 -->
<g id="node1" class="node">
<title>idClearing1</title>
<ellipse fill="none" stroke="black" cx="128.93" cy="-195" rx="54.42" ry="18"/>
<text text-anchor="middle" x="128.93" y="-189.95" font-family="Times,serif" font-size="14.00">idClearing1</text>
</g>
<!-- bushy -->
<g id="node2" class="node">
<title>bushy</title>
<ellipse fill="none" stroke="black" cx="32.93" cy="-106.5" rx="32.93" ry="18"/>
<text text-anchor="middle" x="32.93" y="-101.45" font-family="Times,serif" font-size="14.00">bushy</text>
</g>
<!-- idClearing1&#45;&gt;bushy -->
<g id="edge1" class="edge">
<title>idClearing1&#45;&gt;bushy</title>
<path fill="none" stroke="black" d="M79.27,-187.13C62.29,-182.16 44.93,-173.64 34.43,-159 29.62,-152.31 28.08,-143.76 28.08,-135.56"/>
<polygon fill="black" stroke="black" points="31.62,-136.03 28.86,-125.81 24.64,-135.53 31.62,-136.03"/>
<text text-anchor="middle" x="119.68" y="-145.7" font-family="Times,serif" font-size="14.00">idClearing1_prop_idDescriptor</text>
</g>
<!-- idCarKey1 -->
<g id="node3" class="node">
<title>idCarKey1</title>
<ellipse fill="none" stroke="black" cx="225.93" cy="-106.5" rx="51.35" ry="18"/>
<text text-anchor="middle" x="225.93" y="-101.45" font-family="Times,serif" font-size="14.00">idCarKey1</text>
</g>
<!-- idClearing1&#45;&gt;idCarKey1 -->
<g id="edge2" class="edge">
<title>idClearing1&#45;&gt;idCarKey1</title>
<path fill="none" stroke="black" d="M167.79,-182.19C180.58,-176.77 194.03,-169.22 203.93,-159 210.39,-152.32 215.1,-143.44 218.45,-134.94"/>
<polygon fill="black" stroke="black" points="222.08,-136.17 222.02,-125.58 215.46,-133.89 222.08,-136.17"/>
<text text-anchor="middle" x="239.18" y="-145.7" font-family="Times,serif" font-size="14.00">isEastOf</text>
</g>
<!-- black -->
<g id="node4" class="node">
<title>black</title>
<ellipse fill="none" stroke="black" cx="144.93" cy="-18" rx="30.88" ry="18"/>
<text text-anchor="middle" x="144.93" y="-12.95" font-family="Times,serif" font-size="14.00">black</text>
</g>
<!-- idCarKey1&#45;&gt;black -->
<g id="edge3" class="edge">
<title>idCarKey1&#45;&gt;black</title>
<path fill="none" stroke="black" d="M182.98,-96.49C168.89,-91.31 154.68,-83.18 146.18,-70.5 141.59,-63.66 140.14,-55.07 140.17,-46.88"/>
<polygon fill="black" stroke="black" points="143.71,-47.39 140.96,-37.16 136.73,-46.87 143.71,-47.39"/>
<text text-anchor="middle" x="216.3" y="-57.2" font-family="Times,serif" font-size="14.00">idCarKey1_prop_idColor</text>
</g>
<!-- true -->
<g id="node5" class="node">
<title>true</title>
<ellipse fill="none" stroke="black" cx="306.93" cy="-18" rx="27" ry="18"/>
<text text-anchor="middle" x="306.93" y="-12.95" font-family="Times,serif" font-size="14.00">true</text>
</g>
<!-- idCarKey1&#45;&gt;true -->
<g id="edge4" class="edge">
<title>idCarKey1&#45;&gt;true</title>
<path fill="none" stroke="black" d="M257.12,-91.82C267,-86.32 277.31,-79.19 284.93,-70.5 291.05,-63.51 295.67,-54.55 299.06,-46.08"/>
<polygon fill="black" stroke="black" points="302.66,-47.38 302.7,-36.78 296.06,-45.04 302.66,-47.38"/>
<text text-anchor="middle" x="393.55" y="-57.2" font-family="Times,serif" font-size="14.00">idCarKey1_prop_idUnknownObject</text>
</g>
</g>
</svg>
