<?xml version="1.0" encoding="UTF-8" standalone="no"?>
<!DOCTYPE svg PUBLIC "-//W3C//DTD SVG 1.1//EN"
 "http://www.w3.org/Graphics/SVG/1.1/DTD/svg11.dtd">
<!-- Generated by graphviz version 8.1.0 (20230707.0739)
 -->
<!-- Pages: 1 -->
<svg width="871pt" height="221pt"
 viewBox="0.00 0.00 871.03 221.00" xmlns="http://www.w3.org/2000/svg" xmlns:xlink="http://www.w3.org/1999/xlink">
<g id="graph0" class="graph" transform="scale(1 1) rotate(0) translate(4 217)">
<polygon fill="white" stroke="none" points="-4,4 -4,-217 867.03,-217 867.03,4 -4,4"/>
<!-- idCrowbar1 -->
<g id="node1" class="node">
<title>idCrowbar1</title>
<ellipse fill="none" stroke="black" cx="293.88" cy="-195" rx="54.93" ry="18"/>
<text text-anchor="middle" x="293.88" y="-189.95" font-family="Times,serif" font-size="14.00">idCrowbar1</text>
</g>
<!-- black -->
<g id="node2" class="node">
<title>black</title>
<ellipse fill="none" stroke="black" cx="30.88" cy="-106.5" rx="30.88" ry="18"/>
<text text-anchor="middle" x="30.88" y="-101.45" font-family="Times,serif" font-size="14.00">black</text>
</g>
<!-- idCrowbar1&#45;&gt;black -->
<g id="edge1" class="edge">
<title>idCrowbar1&#45;&gt;black</title>
<path fill="none" stroke="black" d="M239.03,-193.03C174.9,-190.76 73.94,-183.3 45.88,-159 39.05,-153.08 35.24,-144.25 33.15,-135.57"/>
<polygon fill="black" stroke="black" points="36.45,-135.14 31.31,-125.88 29.55,-136.32 36.45,-135.14"/>
<text text-anchor="middle" x="117.88" y="-145.7" font-family="Times,serif" font-size="14.00">idCrowbar1_prop_idColor</text>
</g>
<!-- cool -->
<g id="node3" class="node">
<title>cool</title>
<ellipse fill="none" stroke="black" cx="197.88" cy="-106.5" rx="27" ry="18"/>
<text text-anchor="middle" x="197.88" y="-101.45" font-family="Times,serif" font-size="14.00">cool</text>
</g>
<!-- idCrowbar1&#45;&gt;cool -->
<g id="edge2" class="edge">
<title>idCrowbar1&#45;&gt;cool</title>
<path fill="none" stroke="black" d="M243.72,-187.3C226.59,-182.36 209.12,-173.8 198.63,-159 193.79,-152.18 192.39,-143.47 192.56,-135.16"/>
<polygon fill="black" stroke="black" points="196.13,-135.58 193.58,-125.3 189.16,-134.93 196.13,-135.58"/>
<text text-anchor="middle" x="284" y="-145.7" font-family="Times,serif" font-size="14.00">idCrowbar1_prop_idDescriptor</text>
</g>
<!-- true -->
<g id="node4" class="node">
<title>true</title>
<ellipse fill="none" stroke="black" cx="390.88" cy="-106.5" rx="27" ry="18"/>
<text text-anchor="middle" x="390.88" y="-101.45" font-family="Times,serif" font-size="14.00">true</text>
</g>
<!-- idCrowbar1&#45;&gt;true -->
<g id="edge3" class="edge">
<title>idCrowbar1&#45;&gt;true</title>
<path fill="none" stroke="black" d="M333.13,-182.02C345.8,-176.62 359.09,-169.12 368.88,-159 375.34,-152.32 380.05,-143.44 383.41,-134.94"/>
<polygon fill="black" stroke="black" points="387.03,-136.17 386.97,-125.58 380.41,-133.89 387.03,-136.17"/>
<text text-anchor="middle" x="482.13" y="-145.7" font-family="Times,serif" font-size="14.00">idCrowbar1_prop_idUnknownObject</text>
</g>
<!-- idStump1 -->
<g id="node5" class="node">
<title>idStump1</title>
<ellipse fill="none" stroke="black" cx="616.88" cy="-106.5" rx="47.26" ry="18"/>
<text text-anchor="middle" x="616.88" y="-101.45" font-family="Times,serif" font-size="14.00">idStump1</text>
</g>
<!-- idCrowbar1&#45;&gt;idStump1 -->
<g id="edge4" class="edge">
<title>idCrowbar1&#45;&gt;idStump1</title>
<path fill="none" stroke="black" d="M348.91,-193.19C422.71,-191.13 548.88,-183.96 586.88,-159 595.77,-153.16 602.36,-143.7 607.06,-134.48"/>
<polygon fill="black" stroke="black" points="610.53,-136.3 611.44,-125.74 604.15,-133.43 610.53,-136.3"/>
<text text-anchor="middle" x="626.13" y="-145.7" font-family="Times,serif" font-size="14.00">isEastOf</text>
</g>
<!-- yes -->
<g id="node6" class="node">
<title>yes</title>
<ellipse fill="none" stroke="black" cx="428.88" cy="-18" rx="27" ry="18"/>
<text text-anchor="middle" x="428.88" y="-12.95" font-family="Times,serif" font-size="14.00">yes</text>
</g>
<!-- idStump1&#45;&gt;yes -->
<g id="edge5" class="edge">
<title>idStump1&#45;&gt;yes</title>
<path fill="none" stroke="black" d="M571.48,-101.07C527.9,-95.96 466.1,-86.19 447.88,-70.5 440.79,-64.4 436.35,-55.41 433.56,-46.64"/>
<polygon fill="black" stroke="black" points="436.78,-46.1 430.92,-37.27 429.99,-47.82 436.78,-46.1"/>
<text text-anchor="middle" x="530.38" y="-57.2" font-family="Times,serif" font-size="14.00">idStump1_prop_idImmovable</text>
</g>
<!-- chopped -->
<g id="node7" class="node">
<title>chopped</title>
<ellipse fill="none" stroke="black" cx="616.88" cy="-18" rx="42.14" ry="18"/>
<text text-anchor="middle" x="616.88" y="-12.95" font-family="Times,serif" font-size="14.00">chopped</text>
</g>
<!-- idStump1&#45;&gt;chopped -->
<g id="edge6" class="edge">
<title>idStump1&#45;&gt;chopped</title>
<path fill="none" stroke="black" d="M616.88,-88.41C616.88,-76.64 616.88,-60.73 616.88,-47.11"/>
<polygon fill="black" stroke="black" points="620.38,-47.35 616.88,-37.35 613.38,-47.35 620.38,-47.35"/>
<text text-anchor="middle" x="696.38" y="-57.2" font-family="Times,serif" font-size="14.00">idStump1_prop_idDescriptor</text>
</g>
<!-- idSideMirror1 -->
<g id="node8" class="node">
<title>idSideMirror1</title>
<ellipse fill="none" stroke="black" cx="798.88" cy="-18" rx="64.15" ry="18"/>
<text text-anchor="middle" x="798.88" y="-12.95" font-family="Times,serif" font-size="14.00">idSideMirror1</text>
</g>
<!-- idStump1&#45;&gt;idSideMirror1 -->
<g id="edge7" class="edge">
<title>idStump1&#45;&gt;idSideMirror1</title>
<path fill="none" stroke="black" d="M661.66,-100.34C702.68,-94.8 759.57,-84.82 776.88,-70.5 784.23,-64.42 789.18,-55.44 792.48,-46.67"/>
<polygon fill="black" stroke="black" points="796.09,-47.88 795.75,-37.29 789.41,-45.77 796.09,-47.88"/>
<text text-anchor="middle" x="813.38" y="-57.2" font-family="Times,serif" font-size="14.00">isWestOf</text>
</g>
</g>
</svg>
