<?xml version="1.0" encoding="UTF-8" standalone="no"?>
<!DOCTYPE svg PUBLIC "-//W3C//DTD SVG 1.1//EN"
 "http://www.w3.org/Graphics/SVG/1.1/DTD/svg11.dtd">
<!-- Generated by graphviz version 8.1.0 (20230707.0739)
 -->
<!-- Pages: 1 -->
<svg width="445pt" height="221pt"
 viewBox="0.00 0.00 445.24 221.00" xmlns="http://www.w3.org/2000/svg" xmlns:xlink="http://www.w3.org/1999/xlink">
<g id="graph0" class="graph" transform="scale(1 1) rotate(0) translate(4 217)">
<polygon fill="white" stroke="none" points="-4,4 -4,-217 441.24,-217 441.24,4 -4,4"/>
<!-- idLock1 -->
<g id="node1" class="node">
<title>idLock1</title>
<ellipse fill="none" stroke="black" cx="127.49" cy="-195" rx="41.63" ry="18"/>
<text text-anchor="middle" x="127.49" y="-189.95" font-family="Times,serif" font-size="14.00">idLock1</text>
</g>
<!-- locked -->
<g id="node2" class="node">
<title>locked</title>
<ellipse fill="none" stroke="black" cx="35.49" cy="-106.5" rx="35.49" ry="18"/>
<text text-anchor="middle" x="35.49" y="-101.45" font-family="Times,serif" font-size="14.00">locked</text>
</g>
<!-- idLock1&#45;&gt;locked -->
<g id="edge1" class="edge">
<title>idLock1&#45;&gt;locked</title>
<path fill="none" stroke="black" d="M87.93,-189.11C69.02,-184.57 47.99,-175.83 36.24,-159 31.52,-152.25 30.1,-143.68 30.22,-135.49"/>
<polygon fill="black" stroke="black" points="33.77,-136.02 31.16,-125.75 26.8,-135.4 33.77,-136.02"/>
<text text-anchor="middle" x="117.11" y="-145.7" font-family="Times,serif" font-size="14.00">idLock1_prop_idLockedState</text>
</g>
<!-- idBush1 -->
<g id="node3" class="node">
<title>idBush1</title>
<ellipse fill="none" stroke="black" cx="219.49" cy="-106.5" rx="41.63" ry="18"/>
<text text-anchor="middle" x="219.49" y="-101.45" font-family="Times,serif" font-size="14.00">idBush1</text>
</g>
<!-- idLock1&#45;&gt;idBush1 -->
<g id="edge2" class="edge">
<title>idLock1&#45;&gt;idBush1</title>
<path fill="none" stroke="black" d="M159.82,-183.45C172.87,-177.87 187.24,-169.88 197.49,-159 203.86,-152.23 208.54,-143.33 211.91,-134.84"/>
<polygon fill="black" stroke="black" points="215.52,-136.09 215.49,-125.49 208.91,-133.8 215.52,-136.09"/>
<text text-anchor="middle" x="233.99" y="-145.7" font-family="Times,serif" font-size="14.00">isWestOf</text>
</g>
<!-- green -->
<g id="node4" class="node">
<title>green</title>
<ellipse fill="none" stroke="black" cx="145.49" cy="-18" rx="31.39" ry="18"/>
<text text-anchor="middle" x="145.49" y="-12.95" font-family="Times,serif" font-size="14.00">green</text>
</g>
<!-- idBush1&#45;&gt;green -->
<g id="edge3" class="edge">
<title>idBush1&#45;&gt;green</title>
<path fill="none" stroke="black" d="M183.8,-96.92C169.91,-91.68 155.35,-83.4 146.99,-70.5 142.5,-63.59 141.05,-54.98 141.03,-46.79"/>
<polygon fill="black" stroke="black" points="144.57,-47.3 141.74,-37.09 137.59,-46.83 144.57,-47.3"/>
<text text-anchor="middle" x="209.74" y="-57.2" font-family="Times,serif" font-size="14.00">idBush1_prop_idColor</text>
</g>
<!-- yes -->
<g id="node5" class="node">
<title>yes</title>
<ellipse fill="none" stroke="black" cx="293.49" cy="-18" rx="27" ry="18"/>
<text text-anchor="middle" x="293.49" y="-12.95" font-family="Times,serif" font-size="14.00">yes</text>
</g>
<!-- idBush1&#45;&gt;yes -->
<g id="edge4" class="edge">
<title>idBush1&#45;&gt;yes</title>
<path fill="none" stroke="black" d="M245.62,-92.03C254.72,-86.35 264.41,-79.05 271.49,-70.5 277.32,-63.44 281.84,-54.6 285.23,-46.25"/>
<polygon fill="black" stroke="black" points="288.79,-47.69 288.92,-37.1 282.21,-45.3 288.79,-47.69"/>
<text text-anchor="middle" x="358.86" y="-57.2" font-family="Times,serif" font-size="14.00">idBush1_prop_idImmovable</text>
</g>
</g>
</svg>
