<?xml version="1.0" encoding="UTF-8" standalone="no"?>
<!DOCTYPE svg PUBLIC "-//W3C//DTD SVG 1.1//EN"
 "http://www.w3.org/Graphics/SVG/1.1/DTD/svg11.dtd">
<!-- Generated by graphviz version 8.1.0 (20230707.0739)
 -->
<!-- Pages: 1 -->
<svg width="568pt" height="133pt"
 viewBox="0.00 0.00 568.00 132.50" xmlns="http://www.w3.org/2000/svg" xmlns:xlink="http://www.w3.org/1999/xlink">
<g id="graph0" class="graph" transform="scale(1 1) rotate(0) translate(4 128.5)">
<polygon fill="white" stroke="none" points="-4,4 -4,-128.5 564,-128.5 564,4 -4,4"/>
<!-- idMan1 -->
<g id="node1" class="node">
<title>idMan1</title>
<ellipse fill="none" stroke="black" cx="231" cy="-106.5" rx="40.09" ry="18"/>
<text text-anchor="middle" x="231" y="-101.45" font-family="Times,serif" font-size="14.00">idMan1</text>
</g>
<!-- true -->
<g id="node2" class="node">
<title>true</title>
<ellipse fill="none" stroke="black" cx="27" cy="-18" rx="27" ry="18"/>
<text text-anchor="middle" x="27" y="-12.95" font-family="Times,serif" font-size="14.00">true</text>
</g>
<!-- idMan1&#45;&gt;true -->
<g id="edge1" class="edge">
<title>idMan1&#45;&gt;true</title>
<path fill="none" stroke="black" d="M191.73,-102.55C144.18,-98.23 67.78,-88.64 46.25,-70.5 39.09,-64.47 34.59,-55.49 31.76,-46.72"/>
<polygon fill="black" stroke="black" points="34.97,-46.14 29.08,-37.33 28.19,-47.89 34.97,-46.14"/>
<text text-anchor="middle" x="137.38" y="-57.2" font-family="Times,serif" font-size="14.00">idMan1_prop_idUnknownObject</text>
</g>
<!-- yes -->
<g id="node3" class="node">
<title>yes</title>
<ellipse fill="none" stroke="black" cx="231" cy="-18" rx="27" ry="18"/>
<text text-anchor="middle" x="231" y="-12.95" font-family="Times,serif" font-size="14.00">yes</text>
</g>
<!-- idMan1&#45;&gt;yes -->
<g id="edge2" class="edge">
<title>idMan1&#45;&gt;yes</title>
<path fill="none" stroke="black" d="M231,-88.41C231,-76.64 231,-60.73 231,-47.11"/>
<polygon fill="black" stroke="black" points="234.5,-47.35 231,-37.35 227.5,-47.35 234.5,-47.35"/>
<text text-anchor="middle" x="308.25" y="-57.2" font-family="Times,serif" font-size="14.00">idMan1_prop_idImmovable</text>
</g>
<!-- familiar -->
<g id="node4" class="node">
<title>familiar</title>
<ellipse fill="none" stroke="black" cx="409" cy="-18" rx="40.6" ry="18"/>
<text text-anchor="middle" x="409" y="-12.95" font-family="Times,serif" font-size="14.00">familiar</text>
</g>
<!-- idMan1&#45;&gt;familiar -->
<g id="edge3" class="edge">
<title>idMan1&#45;&gt;familiar</title>
<path fill="none" stroke="black" d="M269.45,-100.93C309.68,-95.45 369.4,-85.14 387,-70.5 394.33,-64.4 399.28,-55.41 402.59,-46.64"/>
<polygon fill="black" stroke="black" points="406.19,-47.86 405.86,-37.27 399.51,-45.75 406.19,-47.86"/>
<text text-anchor="middle" x="479" y="-57.2" font-family="Times,serif" font-size="14.00">idMan1_prop_idDescriptor_1</text>
</g>
</g>
</svg>
