<?xml version="1.0" encoding="UTF-8" standalone="no"?>
<!DOCTYPE svg PUBLIC "-//W3C//DTD SVG 1.1//EN"
 "http://www.w3.org/Graphics/SVG/1.1/DTD/svg11.dtd">
<!-- Generated by graphviz version 8.1.0 (20230707.0739)
 -->
<!-- Pages: 1 -->
<svg width="252pt" height="133pt"
 viewBox="0.00 0.00 252.36 132.50" xmlns="http://www.w3.org/2000/svg" xmlns:xlink="http://www.w3.org/1999/xlink">
<g id="graph0" class="graph" transform="scale(1 1) rotate(0) translate(4 128.5)">
<polygon fill="white" stroke="none" points="-4,4 -4,-128.5 248.36,-128.5 248.36,4 -4,4"/>
<!-- idPlayer -->
<g id="node1" class="node">
<title>idPlayer</title>
<ellipse fill="none" stroke="black" cx="117.32" cy="-106.5" rx="41.63" ry="18"/>
<text text-anchor="middle" x="117.32" y="-101.45" font-family="Times,serif" font-size="14.00">idPlayer</text>
</g>
<!-- false -->
<g id="node2" class="node">
<title>false</title>
<ellipse fill="none" stroke="black" cx="28.32" cy="-18" rx="28.32" ry="18"/>
<text text-anchor="middle" x="28.32" y="-12.95" font-family="Times,serif" font-size="14.00">false</text>
</g>
<!-- idPlayer&#45;&gt;false -->
<g id="edge1" class="edge">
<title>idPlayer&#45;&gt;false</title>
<path fill="none" stroke="black" d="M78.12,-100.03C60.06,-95.34 40.21,-86.64 29.07,-70.5 24.39,-63.72 22.98,-55.15 23.1,-46.96"/>
<polygon fill="black" stroke="black" points="26.65,-47.49 24.03,-37.22 19.68,-46.88 26.65,-47.49"/>
<text text-anchor="middle" x="106.95" y="-57.2" font-family="Times,serif" font-size="14.00">idPlayer_prop_idEatenBerry</text>
</g>
<!-- idDen1 -->
<g id="node3" class="node">
<title>idDen1</title>
<ellipse fill="none" stroke="black" cx="206.32" cy="-18" rx="38.04" ry="18"/>
<text text-anchor="middle" x="206.32" y="-12.95" font-family="Times,serif" font-size="14.00">idDen1</text>
</g>
<!-- idPlayer&#45;&gt;idDen1 -->
<g id="edge2" class="edge">
<title>idPlayer&#45;&gt;idDen1</title>
<path fill="none" stroke="black" d="M148.96,-94.36C161.27,-88.76 174.69,-80.9 184.32,-70.5 190.63,-63.68 195.3,-54.76 198.67,-46.28"/>
<polygon fill="black" stroke="black" points="202.29,-47.54 202.27,-36.94 195.67,-45.23 202.29,-47.54"/>
<text text-anchor="middle" x="217.57" y="-57.2" font-family="Times,serif" font-size="14.00">isEastOf</text>
</g>
</g>
</svg>
