<?xml version="1.0" encoding="UTF-8" standalone="no"?>
<!DOCTYPE svg PUBLIC "-//W3C//DTD SVG 1.1//EN"
 "http://www.w3.org/Graphics/SVG/1.1/DTD/svg11.dtd">
<!-- Generated by graphviz version 8.1.0 (20230707.0739)
 -->
<!-- Pages: 1 -->
<svg width="576pt" height="221pt"
 viewBox="0.00 0.00 575.67 221.00" xmlns="http://www.w3.org/2000/svg" xmlns:xlink="http://www.w3.org/1999/xlink">
<g id="graph0" class="graph" transform="scale(1 1) rotate(0) translate(4 217)">
<polygon fill="white" stroke="none" points="-4,4 -4,-217 571.67,-217 571.67,4 -4,4"/>
<!-- idPlayerLeftHand -->
<g id="node1" class="node">
<title>idPlayerLeftHand</title>
<ellipse fill="none" stroke="black" cx="162.42" cy="-195" rx="76.94" ry="18"/>
<text text-anchor="middle" x="162.42" y="-189.95" font-family="Times,serif" font-size="14.00">idPlayerLeftHand</text>
</g>
<!-- idLocalLeft -->
<g id="node2" class="node">
<title>idLocalLeft</title>
<ellipse fill="none" stroke="black" cx="54.42" cy="-106.5" rx="54.42" ry="18"/>
<text text-anchor="middle" x="54.42" y="-101.45" font-family="Times,serif" font-size="14.00">idLocalLeft</text>
</g>
<!-- idPlayerLeftHand&#45;&gt;idLocalLeft -->
<g id="edge1" class="edge">
<title>idPlayerLeftHand&#45;&gt;idLocalLeft</title>
<path fill="none" stroke="black" d="M96.04,-185.57C80.53,-180.37 65.7,-172.1 55.92,-159 50.99,-152.4 49.42,-143.88 49.42,-135.67"/>
<polygon fill="black" stroke="black" points="52.97,-136.13 50.23,-125.9 45.99,-135.6 52.97,-136.13"/>
<text text-anchor="middle" x="153.17" y="-145.7" font-family="Times,serif" font-size="14.00">idPlayerLeftHand_prop_idLocation</text>
</g>
<!-- idSideMirror1 -->
<g id="node3" class="node">
<title>idSideMirror1</title>
<ellipse fill="none" stroke="black" cx="271.42" cy="-106.5" rx="64.15" ry="18"/>
<text text-anchor="middle" x="271.42" y="-101.45" font-family="Times,serif" font-size="14.00">idSideMirror1</text>
</g>
<!-- idPlayerLeftHand&#45;&gt;idSideMirror1 -->
<g id="edge2" class="edge">
<title>idPlayerLeftHand&#45;&gt;idSideMirror1</title>
<path fill="none" stroke="black" d="M213.33,-181.15C226.32,-175.96 239.42,-168.79 249.42,-159 256.07,-152.5 260.82,-143.67 264.16,-135.15"/>
<polygon fill="black" stroke="black" points="267.79,-136.34 267.68,-125.74 261.16,-134.09 267.79,-136.34"/>
<text text-anchor="middle" x="286.92" y="-145.7" font-family="Times,serif" font-size="14.00">isWestOf</text>
</g>
<!-- idFace -->
<g id="node4" class="node">
<title>idFace</title>
<ellipse fill="none" stroke="black" cx="161.42" cy="-18" rx="35.49" ry="18"/>
<text text-anchor="middle" x="161.42" y="-12.95" font-family="Times,serif" font-size="14.00">idFace</text>
</g>
<!-- idSideMirror1&#45;&gt;idFace -->
<g id="edge3" class="edge">
<title>idSideMirror1&#45;&gt;idFace</title>
<path fill="none" stroke="black" d="M211.22,-99.88C192.53,-94.99 173.79,-86.18 162.17,-70.5 157.19,-63.78 155.75,-55.1 155.93,-46.79"/>
<polygon fill="black" stroke="black" points="159.5,-47.19 156.99,-36.9 152.54,-46.51 159.5,-47.19"/>
<text text-anchor="middle" x="261.05" y="-57.2" font-family="Times,serif" font-size="14.00">idSideMirror1_prop_idDescriptor_1</text>
</g>
<!-- broken -->
<g id="node5" class="node">
<title>broken</title>
<ellipse fill="none" stroke="black" cx="381.42" cy="-18" rx="36.51" ry="18"/>
<text text-anchor="middle" x="381.42" y="-12.95" font-family="Times,serif" font-size="14.00">broken</text>
</g>
<!-- idSideMirror1&#45;&gt;broken -->
<g id="edge4" class="edge">
<title>idSideMirror1&#45;&gt;broken</title>
<path fill="none" stroke="black" d="M319.25,-94.15C333.55,-88.88 348.36,-81.29 359.42,-70.5 366.08,-64.01 370.83,-55.18 374.17,-46.67"/>
<polygon fill="black" stroke="black" points="377.81,-47.85 377.69,-37.25 371.18,-45.61 377.81,-47.85"/>
<text text-anchor="middle" x="469.05" y="-57.2" font-family="Times,serif" font-size="14.00">idSideMirror1_prop_idDescriptor_2</text>
</g>
</g>
</svg>
