<?xml version="1.0" encoding="UTF-8" standalone="no"?>
<!DOCTYPE svg PUBLIC "-//W3C//DTD SVG 1.1//EN"
 "http://www.w3.org/Graphics/SVG/1.1/DTD/svg11.dtd">
<!-- Generated by graphviz version 8.1.0 (20230707.0739)
 -->
<!-- Pages: 1 -->
<svg width="765pt" height="221pt"
 viewBox="0.00 0.00 764.79 221.00" xmlns="http://www.w3.org/2000/svg" xmlns:xlink="http://www.w3.org/1999/xlink">
<g id="graph0" class="graph" transform="scale(1 1) rotate(0) translate(4 217)">
<polygon fill="white" stroke="none" points="-4,4 -4,-217 760.79,-217 760.79,4 -4,4"/>
<!-- idPlayerBackside -->
<g id="node1" class="node">
<title>idPlayerBackside</title>
<ellipse fill="none" stroke="black" cx="285.93" cy="-195" rx="75.41" ry="18"/>
<text text-anchor="middle" x="285.93" y="-189.95" font-family="Times,serif" font-size="14.00">idPlayerBackside</text>
</g>
<!-- idClearing1 -->
<g id="node2" class="node">
<title>idClearing1</title>
<ellipse fill="none" stroke="black" cx="225.93" cy="-106.5" rx="54.42" ry="18"/>
<text text-anchor="middle" x="225.93" y="-101.45" font-family="Times,serif" font-size="14.00">idClearing1</text>
</g>
<!-- idPlayerBackside&#45;&gt;idClearing1 -->
<g id="edge1" class="edge">
<title>idPlayerBackside&#45;&gt;idClearing1</title>
<path fill="none" stroke="black" d="M273.64,-176.97C269.56,-171.27 265.02,-164.88 260.93,-159 255.09,-150.62 248.79,-141.42 243.17,-133.13"/>
<polygon fill="black" stroke="black" points="245.68,-131.59 237.18,-125.27 239.88,-135.51 245.68,-131.59"/>
<text text-anchor="middle" x="286.43" y="-145.7" font-family="Times,serif" font-size="14.00">isWestOf</text>
</g>
<!-- idStump1 -->
<g id="node4" class="node">
<title>idStump1</title>
<ellipse fill="none" stroke="black" cx="426.93" cy="-106.5" rx="47.26" ry="18"/>
<text text-anchor="middle" x="426.93" y="-101.45" font-family="Times,serif" font-size="14.00">idStump1</text>
</g>
<!-- idPlayerBackside&#45;&gt;idStump1 -->
<g id="edge2" class="edge">
<title>idPlayerBackside&#45;&gt;idStump1</title>
<path fill="none" stroke="black" d="M312.45,-177.73C335.41,-163.65 368.73,-143.2 393.5,-128"/>
<polygon fill="black" stroke="black" points="395.18,-130.47 401.88,-122.25 391.52,-124.5 395.18,-130.47"/>
<text text-anchor="middle" x="393.18" y="-145.7" font-family="Times,serif" font-size="14.00">isEastOf</text>
</g>
<!-- bushy -->
<g id="node3" class="node">
<title>bushy</title>
<ellipse fill="none" stroke="black" cx="32.93" cy="-18" rx="32.93" ry="18"/>
<text text-anchor="middle" x="32.93" y="-12.95" font-family="Times,serif" font-size="14.00">bushy</text>
</g>
<!-- idClearing1&#45;&gt;bushy -->
<g id="edge3" class="edge">
<title>idClearing1&#45;&gt;bushy</title>
<path fill="none" stroke="black" d="M174.26,-100.6C129.97,-95.43 70.52,-85.86 52.43,-70.5 45.28,-64.43 40.74,-55.45 37.87,-46.68"/>
<polygon fill="black" stroke="black" points="41.07,-46.07 35.13,-37.3 34.3,-47.86 41.07,-46.07"/>
<text text-anchor="middle" x="137.68" y="-57.2" font-family="Times,serif" font-size="14.00">idClearing1_prop_idDescriptor</text>
</g>
<!-- idArea1 -->
<g id="node7" class="node">
<title>idArea1</title>
<ellipse fill="none" stroke="black" cx="225.93" cy="-18" rx="40.6" ry="18"/>
<text text-anchor="middle" x="225.93" y="-12.95" font-family="Times,serif" font-size="14.00">idArea1</text>
</g>
<!-- idClearing1&#45;&gt;idArea1 -->
<g id="edge4" class="edge">
<title>idClearing1&#45;&gt;idArea1</title>
<path fill="none" stroke="black" d="M225.93,-88.41C225.93,-76.64 225.93,-60.73 225.93,-47.11"/>
<polygon fill="black" stroke="black" points="229.43,-47.35 225.93,-37.35 222.43,-47.35 229.43,-47.35"/>
<text text-anchor="middle" x="249.18" y="-57.2" font-family="Times,serif" font-size="14.00">isEastOf</text>
</g>
<!-- chopped -->
<g id="node5" class="node">
<title>chopped</title>
<ellipse fill="none" stroke="black" cx="326.93" cy="-18" rx="42.14" ry="18"/>
<text text-anchor="middle" x="326.93" y="-12.95" font-family="Times,serif" font-size="14.00">chopped</text>
</g>
<!-- idStump1&#45;&gt;chopped -->
<g id="edge5" class="edge">
<title>idStump1&#45;&gt;chopped</title>
<path fill="none" stroke="black" d="M380.98,-101.8C360,-97.54 336.96,-88.69 323.93,-70.5 319.12,-63.79 318.16,-55.24 318.91,-47.05"/>
<polygon fill="black" stroke="black" points="322.51,-47.74 320.77,-37.29 315.61,-46.55 322.51,-47.74"/>
<text text-anchor="middle" x="403.43" y="-57.2" font-family="Times,serif" font-size="14.00">idStump1_prop_idDescriptor</text>
</g>
<!-- hollow -->
<g id="node6" class="node">
<title>hollow</title>
<ellipse fill="none" stroke="black" cx="508.93" cy="-18" rx="36.51" ry="18"/>
<text text-anchor="middle" x="508.93" y="-12.95" font-family="Times,serif" font-size="14.00">hollow</text>
</g>
<!-- idStump1&#45;&gt;hollow -->
<g id="edge6" class="edge">
<title>idStump1&#45;&gt;hollow</title>
<path fill="none" stroke="black" d="M457.72,-92.42C468.04,-86.86 478.95,-79.54 486.93,-70.5 492.99,-63.63 497.57,-54.84 500.94,-46.48"/>
<polygon fill="black" stroke="black" points="504.51,-47.88 504.57,-37.29 497.92,-45.53 504.51,-47.88"/>
<text text-anchor="middle" x="584.18" y="-57.2" font-family="Times,serif" font-size="14.00">idStump1_prop_idDescriptor_1</text>
</g>
<!-- idWhistle1 -->
<g id="node8" class="node">
<title>idWhistle1</title>
<ellipse fill="none" stroke="black" cx="704.93" cy="-18" rx="51.86" ry="18"/>
<text text-anchor="middle" x="704.93" y="-12.95" font-family="Times,serif" font-size="14.00">idWhistle1</text>
</g>
<!-- idStump1&#45;&gt;idWhistle1 -->
<g id="edge7" class="edge">
<title>idStump1&#45;&gt;idWhistle1</title>
<path fill="none" stroke="black" d="M474.08,-103.69C536.66,-100.48 642.99,-91.97 674.93,-70.5 683.66,-64.63 690.19,-55.29 694.89,-46.17"/>
<polygon fill="black" stroke="black" points="698.49,-47.71 699.44,-37.16 692.11,-44.82 698.49,-47.71"/>
<text text-anchor="middle" x="715.43" y="-57.2" font-family="Times,serif" font-size="14.00">isWestOf</text>
</g>
</g>
</svg>
