<?xml version="1.0" encoding="UTF-8" standalone="no"?>
<!DOCTYPE svg PUBLIC "-//W3C//DTD SVG 1.1//EN"
 "http://www.w3.org/Graphics/SVG/1.1/DTD/svg11.dtd">
<!-- Generated by graphviz version 8.1.0 (20230707.0739)
 -->
<!-- Pages: 1 -->
<svg width="906pt" height="221pt"
 viewBox="0.00 0.00 905.63 221.00" xmlns="http://www.w3.org/2000/svg" xmlns:xlink="http://www.w3.org/1999/xlink">
<g id="graph0" class="graph" transform="scale(1 1) rotate(0) translate(4 217)">
<polygon fill="white" stroke="none" points="-4,4 -4,-217 901.63,-217 901.63,4 -4,4"/>
<!-- idSideMirror1 -->
<g id="node1" class="node">
<title>idSideMirror1</title>
<ellipse fill="none" stroke="black" cx="347.88" cy="-195" rx="64.15" ry="18"/>
<text text-anchor="middle" x="347.88" y="-189.95" font-family="Times,serif" font-size="14.00">idSideMirror1</text>
</g>
<!-- idSideMirror1&#45;&gt;idSideMirror1 -->
<g id="edge5" class="edge">
<title>idSideMirror1&#45;&gt;idSideMirror1</title>
<path fill="none" stroke="black" d="M405.83,-203.15C419.73,-202.51 430.03,-199.8 430.03,-195 430.03,-191.55 424.71,-189.18 416.56,-187.88"/>
<polygon fill="black" stroke="black" points="417.12,-184.32 406.83,-186.85 416.45,-191.29 417.12,-184.32"/>
<text text-anchor="middle" x="447.65" y="-189.95" font-family="Times,serif" font-size="14.00">isNear</text>
</g>
<!-- shiny -->
<g id="node2" class="node">
<title>shiny</title>
<ellipse fill="none" stroke="black" cx="30.88" cy="-106.5" rx="30.88" ry="18"/>
<text text-anchor="middle" x="30.88" y="-101.45" font-family="Times,serif" font-size="14.00">shiny</text>
</g>
<!-- idSideMirror1&#45;&gt;shiny -->
<g id="edge1" class="edge">
<title>idSideMirror1&#45;&gt;shiny</title>
<path fill="none" stroke="black" d="M283.33,-194.73C205.21,-194.25 79.8,-188.68 45.13,-159 38.29,-153.15 34.59,-144.33 32.63,-135.64"/>
<polygon fill="black" stroke="black" points="35.96,-135.28 30.97,-125.93 29.04,-136.35 35.96,-135.28"/>
<text text-anchor="middle" x="137.75" y="-145.7" font-family="Times,serif" font-size="14.00">idSideMirror1_prop_idDescriptor</text>
</g>
<!-- idFace -->
<g id="node3" class="node">
<title>idFace</title>
<ellipse fill="none" stroke="black" cx="237.88" cy="-106.5" rx="35.49" ry="18"/>
<text text-anchor="middle" x="237.88" y="-101.45" font-family="Times,serif" font-size="14.00">idFace</text>
</g>
<!-- idSideMirror1&#45;&gt;idFace -->
<g id="edge2" class="edge">
<title>idSideMirror1&#45;&gt;idFace</title>
<path fill="none" stroke="black" d="M287.68,-188.38C268.98,-183.49 250.25,-174.68 238.63,-159 233.65,-152.28 232.21,-143.6 232.39,-135.29"/>
<polygon fill="black" stroke="black" points="235.96,-135.69 233.45,-125.4 228.99,-135.01 235.96,-135.69"/>
<text text-anchor="middle" x="337.5" y="-145.7" font-family="Times,serif" font-size="14.00">idSideMirror1_prop_idDescriptor_1</text>
</g>
<!-- broken -->
<g id="node4" class="node">
<title>broken</title>
<ellipse fill="none" stroke="black" cx="457.88" cy="-106.5" rx="36.51" ry="18"/>
<text text-anchor="middle" x="457.88" y="-101.45" font-family="Times,serif" font-size="14.00">broken</text>
</g>
<!-- idSideMirror1&#45;&gt;broken -->
<g id="edge3" class="edge">
<title>idSideMirror1&#45;&gt;broken</title>
<path fill="none" stroke="black" d="M395.7,-182.65C410.01,-177.38 424.81,-169.79 435.88,-159 442.54,-152.51 447.29,-143.68 450.63,-135.17"/>
<polygon fill="black" stroke="black" points="454.27,-136.35 454.15,-125.75 447.63,-134.11 454.27,-136.35"/>
<text text-anchor="middle" x="546.5" y="-145.7" font-family="Times,serif" font-size="14.00">idSideMirror1_prop_idDescriptor_2</text>
</g>
<!-- idStump1 -->
<g id="node5" class="node">
<title>idStump1</title>
<ellipse fill="none" stroke="black" cx="677.88" cy="-106.5" rx="47.26" ry="18"/>
<text text-anchor="middle" x="677.88" y="-101.45" font-family="Times,serif" font-size="14.00">idStump1</text>
</g>
<!-- idSideMirror1&#45;&gt;idStump1 -->
<g id="edge4" class="edge">
<title>idSideMirror1&#45;&gt;idStump1</title>
<path fill="none" stroke="black" d="M412,-193.25C488.64,-191.22 611.26,-184.02 648.88,-159 657.57,-153.22 663.93,-143.9 668.45,-134.77"/>
<polygon fill="black" stroke="black" points="672.03,-136.31 672.78,-125.74 665.6,-133.53 672.03,-136.31"/>
<text text-anchor="middle" x="688.13" y="-145.7" font-family="Times,serif" font-size="14.00">isEastOf</text>
</g>
<!-- hollow -->
<g id="node6" class="node">
<title>hollow</title>
<ellipse fill="none" stroke="black" cx="579.88" cy="-18" rx="36.51" ry="18"/>
<text text-anchor="middle" x="579.88" y="-12.95" font-family="Times,serif" font-size="14.00">hollow</text>
</g>
<!-- idStump1&#45;&gt;hollow -->
<g id="edge6" class="edge">
<title>idStump1&#45;&gt;hollow</title>
<path fill="none" stroke="black" d="M633.23,-100.46C614.08,-95.86 593.39,-87.11 581.38,-70.5 576.55,-63.82 575,-55.28 575,-47.08"/>
<polygon fill="black" stroke="black" points="578.55,-47.55 575.79,-37.32 571.57,-47.04 578.55,-47.55"/>
<text text-anchor="middle" x="668.13" y="-57.2" font-family="Times,serif" font-size="14.00">idStump1_prop_idDescriptor_1</text>
</g>
<!-- brown -->
<g id="node7" class="node">
<title>brown</title>
<ellipse fill="none" stroke="black" cx="775.88" cy="-18" rx="34.46" ry="18"/>
<text text-anchor="middle" x="775.88" y="-12.95" font-family="Times,serif" font-size="14.00">brown</text>
</g>
<!-- idStump1&#45;&gt;brown -->
<g id="edge7" class="edge">
<title>idStump1&#45;&gt;brown</title>
<path fill="none" stroke="black" d="M714.52,-94.9C728.27,-89.44 743.14,-81.54 753.88,-70.5 760.36,-63.83 765.07,-54.96 768.43,-46.46"/>
<polygon fill="black" stroke="black" points="772.05,-47.69 771.99,-37.09 765.43,-45.41 772.05,-47.69"/>
<text text-anchor="middle" x="831.25" y="-57.2" font-family="Times,serif" font-size="14.00">idStump1_prop_idColor</text>
</g>
</g>
</svg>
