<?xml version="1.0" encoding="UTF-8" standalone="no"?>
<!DOCTYPE svg PUBLIC "-//W3C//DTD SVG 1.1//EN"
 "http://www.w3.org/Graphics/SVG/1.1/DTD/svg11.dtd">
<!-- Generated by graphviz version 8.1.0 (20230707.0739)
 -->
<!-- Pages: 1 -->
<svg width="381pt" height="221pt"
 viewBox="0.00 0.00 380.54 221.00" xmlns="http://www.w3.org/2000/svg" xmlns:xlink="http://www.w3.org/1999/xlink">
<g id="graph0" class="graph" transform="scale(1 1) rotate(0) translate(4 217)">
<polygon fill="white" stroke="none" points="-4,4 -4,-217 376.54,-217 376.54,4 -4,4"/>
<!-- idSmoke1 -->
<g id="node1" class="node">
<title>idSmoke1</title>
<ellipse fill="none" stroke="black" cx="48.79" cy="-195" rx="48.79" ry="18"/>
<text text-anchor="middle" x="48.79" y="-189.95" font-family="Times,serif" font-size="14.00">idSmoke1</text>
</g>
<!-- yes -->
<g id="node2" class="node">
<title>yes</title>
<ellipse fill="none" stroke="black" cx="49.79" cy="-18" rx="27" ry="18"/>
<text text-anchor="middle" x="49.79" y="-12.95" font-family="Times,serif" font-size="14.00">yes</text>
</g>
<!-- idSmoke1&#45;&gt;yes -->
<g id="edge1" class="edge">
<title>idSmoke1&#45;&gt;yes</title>
<path fill="none" stroke="black" d="M46.26,-176.83C43.5,-155.96 39.7,-119.66 41.54,-88.5 42.35,-74.85 44.04,-59.77 45.68,-47.15"/>
<polygon fill="black" stroke="black" points="49.27,-47.75 47.15,-37.37 42.34,-46.81 49.27,-47.75"/>
<text text-anchor="middle" x="125.42" y="-101.45" font-family="Times,serif" font-size="14.00">idSmoke1_prop_idImmovable</text>
</g>
<!-- idBear1 -->
<g id="node3" class="node">
<title>idBear1</title>
<ellipse fill="none" stroke="black" cx="257.79" cy="-106.5" rx="40.09" ry="18"/>
<text text-anchor="middle" x="257.79" y="-101.45" font-family="Times,serif" font-size="14.00">idBear1</text>
</g>
<!-- idSmoke1&#45;&gt;idBear1 -->
<g id="edge2" class="edge">
<title>idSmoke1&#45;&gt;idBear1</title>
<path fill="none" stroke="black" d="M80.53,-180.86C117.64,-165.5 179.05,-140.09 218.97,-123.57"/>
<polygon fill="black" stroke="black" points="220.22,-126.43 228.12,-119.37 217.54,-119.96 220.22,-126.43"/>
<text text-anchor="middle" x="196.04" y="-145.7" font-family="Times,serif" font-size="14.00">isEastOf</text>
</g>
<!-- idBear1&#45;&gt;yes -->
<g id="edge4" class="edge">
<title>idBear1&#45;&gt;yes</title>
<path fill="none" stroke="black" d="M226.58,-94.89C219.17,-92.59 211.24,-90.31 203.79,-88.5 157.99,-77.4 140.92,-92.59 99.29,-70.5 86.92,-63.94 75.83,-53.14 67.3,-43.13"/>
<polygon fill="black" stroke="black" points="69.49,-41.26 60.5,-35.65 64.03,-45.64 69.49,-41.26"/>
<text text-anchor="middle" x="177.04" y="-57.2" font-family="Times,serif" font-size="14.00">idBear1_prop_idImmovable</text>
</g>
<!-- large -->
<g id="node4" class="node">
<title>large</title>
<ellipse fill="none" stroke="black" cx="257.79" cy="-18" rx="29.34" ry="18"/>
<text text-anchor="middle" x="257.79" y="-12.95" font-family="Times,serif" font-size="14.00">large</text>
</g>
<!-- idBear1&#45;&gt;large -->
<g id="edge3" class="edge">
<title>idBear1&#45;&gt;large</title>
<path fill="none" stroke="black" d="M257.79,-88.41C257.79,-76.64 257.79,-60.73 257.79,-47.11"/>
<polygon fill="black" stroke="black" points="261.29,-47.35 257.79,-37.35 254.29,-47.35 261.29,-47.35"/>
<text text-anchor="middle" x="315.17" y="-57.2" font-family="Times,serif" font-size="14.00">idBear1_prop_idSize</text>
</g>
</g>
</svg>
