<?xml version="1.0" encoding="UTF-8" standalone="no"?>
<!DOCTYPE svg PUBLIC "-//W3C//DTD SVG 1.1//EN"
 "http://www.w3.org/Graphics/SVG/1.1/DTD/svg11.dtd">
<!-- Generated by graphviz version 8.1.0 (20230707.0739)
 -->
<!-- Pages: 1 -->
<svg width="400pt" height="133pt"
 viewBox="0.00 0.00 399.92 132.50" xmlns="http://www.w3.org/2000/svg" xmlns:xlink="http://www.w3.org/1999/xlink">
<g id="graph0" class="graph" transform="scale(1 1) rotate(0) translate(4 128.5)">
<polygon fill="white" stroke="none" points="-4,4 -4,-128.5 395.92,-128.5 395.92,4 -4,4"/>
<!-- idSpill1 -->
<g id="node1" class="node">
<title>idSpill1</title>
<ellipse fill="none" stroke="black" cx="175.88" cy="-106.5" rx="40.09" ry="18"/>
<text text-anchor="middle" x="175.88" y="-101.45" font-family="Times,serif" font-size="14.00">idSpill1</text>
</g>
<!-- black -->
<g id="node2" class="node">
<title>black</title>
<ellipse fill="none" stroke="black" cx="30.88" cy="-18" rx="30.88" ry="18"/>
<text text-anchor="middle" x="30.88" y="-12.95" font-family="Times,serif" font-size="14.00">black</text>
</g>
<!-- idSpill1&#45;&gt;black -->
<g id="edge1" class="edge">
<title>idSpill1&#45;&gt;black</title>
<path fill="none" stroke="black" d="M136.01,-103.77C108.58,-100.55 73.01,-92.11 49.63,-70.5 42.85,-64.23 38.51,-55.32 35.75,-46.66"/>
<polygon fill="black" stroke="black" points="38.9,-45.87 33.01,-37.06 32.12,-47.62 38.9,-45.87"/>
<text text-anchor="middle" x="111" y="-57.2" font-family="Times,serif" font-size="14.00">idSpill1_prop_idColor</text>
</g>
<!-- yes -->
<g id="node3" class="node">
<title>yes</title>
<ellipse fill="none" stroke="black" cx="175.88" cy="-18" rx="27" ry="18"/>
<text text-anchor="middle" x="175.88" y="-12.95" font-family="Times,serif" font-size="14.00">yes</text>
</g>
<!-- idSpill1&#45;&gt;yes -->
<g id="edge2" class="edge">
<title>idSpill1&#45;&gt;yes</title>
<path fill="none" stroke="black" d="M175.88,-88.41C175.88,-76.64 175.88,-60.73 175.88,-47.11"/>
<polygon fill="black" stroke="black" points="179.38,-47.35 175.88,-37.35 172.38,-47.35 179.38,-47.35"/>
<text text-anchor="middle" x="253.13" y="-57.2" font-family="Times,serif" font-size="14.00">idSpill1_prop_idImmovable</text>
</g>
<!-- idDen1 -->
<g id="node4" class="node">
<title>idDen1</title>
<ellipse fill="none" stroke="black" cx="353.88" cy="-18" rx="38.04" ry="18"/>
<text text-anchor="middle" x="353.88" y="-12.95" font-family="Times,serif" font-size="14.00">idDen1</text>
</g>
<!-- idSpill1&#45;&gt;idDen1 -->
<g id="edge3" class="edge">
<title>idSpill1&#45;&gt;idDen1</title>
<path fill="none" stroke="black" d="M214.33,-100.93C254.56,-95.45 314.28,-85.14 331.88,-70.5 339.21,-64.4 344.16,-55.41 347.46,-46.64"/>
<polygon fill="black" stroke="black" points="351.07,-47.86 350.74,-37.27 344.39,-45.75 351.07,-47.86"/>
<text text-anchor="middle" x="366.13" y="-57.2" font-family="Times,serif" font-size="14.00">isEastOf</text>
</g>
</g>
</svg>
