<?xml version="1.0" encoding="UTF-8" standalone="no"?>
<!DOCTYPE svg PUBLIC "-//W3C//DTD SVG 1.1//EN"
 "http://www.w3.org/Graphics/SVG/1.1/DTD/svg11.dtd">
<!-- Generated by graphviz version 8.1.0 (20230707.0739)
 -->
<!-- Pages: 1 -->
<svg width="900pt" height="221pt"
 viewBox="0.00 0.00 899.76 221.00" xmlns="http://www.w3.org/2000/svg" xmlns:xlink="http://www.w3.org/1999/xlink">
<g id="graph0" class="graph" transform="scale(1 1) rotate(0) translate(4 217)">
<polygon fill="white" stroke="none" points="-4,4 -4,-217 895.76,-217 895.76,4 -4,4"/>
<!-- idStump1 -->
<g id="node1" class="node">
<title>idStump1</title>
<ellipse fill="none" stroke="black" cx="414.51" cy="-195" rx="47.26" ry="18"/>
<text text-anchor="middle" x="414.51" y="-189.95" font-family="Times,serif" font-size="14.00">idStump1</text>
</g>
<!-- hollow -->
<g id="node2" class="node">
<title>hollow</title>
<ellipse fill="none" stroke="black" cx="36.51" cy="-106.5" rx="36.51" ry="18"/>
<text text-anchor="middle" x="36.51" y="-101.45" font-family="Times,serif" font-size="14.00">hollow</text>
</g>
<!-- idStump1&#45;&gt;hollow -->
<g id="edge1" class="edge">
<title>idStump1&#45;&gt;hollow</title>
<path fill="none" stroke="black" d="M366.92,-194.66C282.87,-194.96 112.41,-191.4 64.01,-159 55.44,-153.26 49.34,-143.96 45.1,-134.82"/>
<polygon fill="black" stroke="black" points="48.04,-133.75 41.07,-125.78 41.55,-136.36 48.04,-133.75"/>
<text text-anchor="middle" x="150.76" y="-145.7" font-family="Times,serif" font-size="14.00">idStump1_prop_idDescriptor_1</text>
</g>
<!-- chopped -->
<g id="node3" class="node">
<title>chopped</title>
<ellipse fill="none" stroke="black" cx="232.51" cy="-106.5" rx="42.14" ry="18"/>
<text text-anchor="middle" x="232.51" y="-101.45" font-family="Times,serif" font-size="14.00">chopped</text>
</g>
<!-- idStump1&#45;&gt;chopped -->
<g id="edge2" class="edge">
<title>idStump1&#45;&gt;chopped</title>
<path fill="none" stroke="black" d="M369.52,-189.23C327.56,-183.93 268.89,-174.08 251.51,-159 244.45,-152.87 240.01,-143.88 237.22,-135.11"/>
<polygon fill="black" stroke="black" points="240.43,-134.57 234.57,-125.75 233.65,-136.3 240.43,-134.57"/>
<text text-anchor="middle" x="331.01" y="-145.7" font-family="Times,serif" font-size="14.00">idStump1_prop_idDescriptor</text>
</g>
<!-- yes -->
<g id="node4" class="node">
<title>yes</title>
<ellipse fill="none" stroke="black" cx="414.51" cy="-106.5" rx="27" ry="18"/>
<text text-anchor="middle" x="414.51" y="-101.45" font-family="Times,serif" font-size="14.00">yes</text>
</g>
<!-- idStump1&#45;&gt;yes -->
<g id="edge3" class="edge">
<title>idStump1&#45;&gt;yes</title>
<path fill="none" stroke="black" d="M414.51,-176.91C414.51,-165.14 414.51,-149.23 414.51,-135.61"/>
<polygon fill="black" stroke="black" points="418.01,-135.85 414.51,-125.85 411.01,-135.85 418.01,-135.85"/>
<text text-anchor="middle" x="497.01" y="-145.7" font-family="Times,serif" font-size="14.00">idStump1_prop_idImmovable</text>
</g>
<!-- idSideMirror1 -->
<g id="node5" class="node">
<title>idSideMirror1</title>
<ellipse fill="none" stroke="black" cx="576.51" cy="-106.5" rx="64.15" ry="18"/>
<text text-anchor="middle" x="576.51" y="-101.45" font-family="Times,serif" font-size="14.00">idSideMirror1</text>
</g>
<!-- idStump1&#45;&gt;idSideMirror1 -->
<g id="edge4" class="edge">
<title>idStump1&#45;&gt;idSideMirror1</title>
<path fill="none" stroke="black" d="M460.77,-190.65C504.53,-186.4 565.67,-177.3 580.51,-159 585.85,-152.41 586.7,-143.67 585.65,-135.25"/>
<polygon fill="black" stroke="black" points="588.89,-134.65 583.39,-125.6 582.04,-136.1 588.89,-134.65"/>
<text text-anchor="middle" x="612.01" y="-145.7" font-family="Times,serif" font-size="14.00">isWestOf</text>
</g>
<!-- idTire1 -->
<g id="node8" class="node">
<title>idTire1</title>
<ellipse fill="none" stroke="black" cx="724.51" cy="-106.5" rx="38.04" ry="18"/>
<text text-anchor="middle" x="724.51" y="-101.45" font-family="Times,serif" font-size="14.00">idTire1</text>
</g>
<!-- idStump1&#45;&gt;idTire1 -->
<g id="edge5" class="edge">
<title>idStump1&#45;&gt;idTire1</title>
<path fill="none" stroke="black" d="M461.53,-192.23C508.42,-189.22 581.85,-181.06 641.51,-159 661.32,-151.67 681.5,-139.29 697,-128.5"/>
<polygon fill="black" stroke="black" points="698.46,-131.04 704.55,-122.38 694.38,-125.35 698.46,-131.04"/>
<text text-anchor="middle" x="701.88" y="-145.7" font-family="Times,serif" font-size="14.00">isNorthOf</text>
</g>
<!-- shiny -->
<g id="node6" class="node">
<title>shiny</title>
<ellipse fill="none" stroke="black" cx="288.51" cy="-18" rx="30.88" ry="18"/>
<text text-anchor="middle" x="288.51" y="-12.95" font-family="Times,serif" font-size="14.00">shiny</text>
</g>
<!-- idSideMirror1&#45;&gt;shiny -->
<g id="edge6" class="edge">
<title>idSideMirror1&#45;&gt;shiny</title>
<path fill="none" stroke="black" d="M519.76,-97.7C498.1,-94.76 473.17,-91.42 450.51,-88.5 417.92,-84.3 328.84,-91.73 303.76,-70.5 296.85,-64.65 292.99,-55.84 290.86,-47.15"/>
<polygon fill="black" stroke="black" points="294.16,-46.69 288.98,-37.44 287.26,-47.89 294.16,-46.69"/>
<text text-anchor="middle" x="396.38" y="-57.2" font-family="Times,serif" font-size="14.00">idSideMirror1_prop_idDescriptor</text>
</g>
<!-- idFace -->
<g id="node7" class="node">
<title>idFace</title>
<ellipse fill="none" stroke="black" cx="495.51" cy="-18" rx="35.49" ry="18"/>
<text text-anchor="middle" x="495.51" y="-12.95" font-family="Times,serif" font-size="14.00">idFace</text>
</g>
<!-- idSideMirror1&#45;&gt;idFace -->
<g id="edge7" class="edge">
<title>idSideMirror1&#45;&gt;idFace</title>
<path fill="none" stroke="black" d="M527.76,-94.45C515.47,-89.25 503.67,-81.64 496.26,-70.5 491.7,-63.64 490.32,-55.05 490.43,-46.86"/>
<polygon fill="black" stroke="black" points="493.98,-47.4 491.34,-37.14 487,-46.81 493.98,-47.4"/>
<text text-anchor="middle" x="595.13" y="-57.2" font-family="Times,serif" font-size="14.00">idSideMirror1_prop_idDescriptor_1</text>
</g>
<!-- idBush1 -->
<g id="node10" class="node">
<title>idBush1</title>
<ellipse fill="none" stroke="black" cx="715.51" cy="-18" rx="41.63" ry="18"/>
<text text-anchor="middle" x="715.51" y="-12.95" font-family="Times,serif" font-size="14.00">idBush1</text>
</g>
<!-- idSideMirror1&#45;&gt;idBush1 -->
<g id="edge8" class="edge">
<title>idSideMirror1&#45;&gt;idBush1</title>
<path fill="none" stroke="black" d="M634.47,-98.52C655.1,-93.55 677.22,-85.04 693.51,-70.5 700.62,-64.15 705.52,-55.1 708.85,-46.36"/>
<polygon fill="black" stroke="black" points="712.43,-47.63 712.17,-37.04 705.77,-45.48 712.43,-47.63"/>
<text text-anchor="middle" x="722.13" y="-57.2" font-family="Times,serif" font-size="14.00">isNear</text>
</g>
<!-- black -->
<g id="node9" class="node">
<title>black</title>
<ellipse fill="none" stroke="black" cx="806.51" cy="-18" rx="30.88" ry="18"/>
<text text-anchor="middle" x="806.51" y="-12.95" font-family="Times,serif" font-size="14.00">black</text>
</g>
<!-- idTire1&#45;&gt;black -->
<g id="edge9" class="edge">
<title>idTire1&#45;&gt;black</title>
<path fill="none" stroke="black" d="M739.55,-89.63C752.19,-76.3 770.42,-57.07 784.67,-42.04"/>
<polygon fill="black" stroke="black" points="786.77,-44.85 791.11,-35.18 781.69,-40.03 786.77,-44.85"/>
<text text-anchor="middle" x="832.13" y="-57.2" font-family="Times,serif" font-size="14.00">idTire1_prop_idColor</text>
</g>
</g>
</svg>
