<?xml version="1.0" encoding="UTF-8" standalone="no"?>
<!DOCTYPE svg PUBLIC "-//W3C//DTD SVG 1.1//EN"
 "http://www.w3.org/Graphics/SVG/1.1/DTD/svg11.dtd">
<!-- Generated by graphviz version 8.1.0 (20230707.0739)
 -->
<!-- Pages: 1 -->
<svg width="252pt" height="133pt"
 viewBox="0.00 0.00 251.85 132.50" xmlns="http://www.w3.org/2000/svg" xmlns:xlink="http://www.w3.org/1999/xlink">
<g id="graph0" class="graph" transform="scale(1 1) rotate(0) translate(4 128.5)">
<polygon fill="white" stroke="none" points="-4,4 -4,-128.5 247.85,-128.5 247.85,4 -4,4"/>
<!-- idTaillight1 -->
<g id="node1" class="node">
<title>idTaillight1</title>
<ellipse fill="none" stroke="black" cx="116.81" cy="-106.5" rx="54.42" ry="18"/>
<text text-anchor="middle" x="116.81" y="-101.45" font-family="Times,serif" font-size="14.00">idTaillight1</text>
</g>
<!-- idTaillight1&#45;&gt;idTaillight1 -->
<g id="edge2" class="edge">
<title>idTaillight1&#45;&gt;idTaillight1</title>
<path fill="none" stroke="black" d="M165.89,-114.74C179.15,-114.3 189.23,-111.56 189.23,-106.5 189.23,-102.95 184.24,-100.53 176.68,-99.26"/>
<polygon fill="black" stroke="black" points="177.17,-95.7 166.89,-98.26 176.52,-102.67 177.17,-95.7"/>
<text text-anchor="middle" x="206.86" y="-101.45" font-family="Times,serif" font-size="14.00">isNear</text>
</g>
<!-- unlit -->
<g id="node2" class="node">
<title>unlit</title>
<ellipse fill="none" stroke="black" cx="27.81" cy="-18" rx="27.81" ry="18"/>
<text text-anchor="middle" x="27.81" y="-12.95" font-family="Times,serif" font-size="14.00">unlit</text>
</g>
<!-- idTaillight1&#45;&gt;unlit -->
<g id="edge1" class="edge">
<title>idTaillight1&#45;&gt;unlit</title>
<path fill="none" stroke="black" d="M69.33,-97.61C53.74,-92.54 38.01,-84.2 28.56,-70.5 23.88,-63.72 22.47,-55.15 22.59,-46.96"/>
<polygon fill="black" stroke="black" points="26.14,-47.49 23.52,-37.22 19.17,-46.88 26.14,-47.49"/>
<text text-anchor="middle" x="106.43" y="-57.2" font-family="Times,serif" font-size="14.00">idTaillight1_prop_idLitState</text>
</g>
<!-- idDen1 -->
<g id="node3" class="node">
<title>idDen1</title>
<ellipse fill="none" stroke="black" cx="205.81" cy="-18" rx="38.04" ry="18"/>
<text text-anchor="middle" x="205.81" y="-12.95" font-family="Times,serif" font-size="14.00">idDen1</text>
</g>
<!-- idTaillight1&#45;&gt;idDen1 -->
<g id="edge3" class="edge">
<title>idTaillight1&#45;&gt;idDen1</title>
<path fill="none" stroke="black" d="M152.24,-92.58C163.45,-87.13 175.16,-79.84 183.81,-70.5 190.12,-63.68 194.79,-54.76 198.16,-46.28"/>
<polygon fill="black" stroke="black" points="201.77,-47.54 201.76,-36.94 195.16,-45.23 201.77,-47.54"/>
<text text-anchor="middle" x="211.43" y="-57.2" font-family="Times,serif" font-size="14.00">isNear</text>
</g>
</g>
</svg>
