<?xml version="1.0" encoding="UTF-8" standalone="no"?>
<!DOCTYPE svg PUBLIC "-//W3C//DTD SVG 1.1//EN"
 "http://www.w3.org/Graphics/SVG/1.1/DTD/svg11.dtd">
<!-- Generated by graphviz version 8.1.0 (20230707.0739)
 -->
<!-- Pages: 1 -->
<svg width="499pt" height="221pt"
 viewBox="0.00 0.00 498.93 221.00" xmlns="http://www.w3.org/2000/svg" xmlns:xlink="http://www.w3.org/1999/xlink">
<g id="graph0" class="graph" transform="scale(1 1) rotate(0) translate(4 217)">
<polygon fill="white" stroke="none" points="-4,4 -4,-217 494.93,-217 494.93,4 -4,4"/>
<!-- idTheCarRoom1 -->
<g id="node1" class="node">
<title>idTheCarRoom1</title>
<ellipse fill="none" stroke="black" cx="146" cy="-195" rx="73.36" ry="18"/>
<text text-anchor="middle" x="146" y="-189.95" font-family="Times,serif" font-size="14.00">idTheCarRoom1</text>
</g>
<!-- smoky -->
<g id="node2" class="node">
<title>smoky</title>
<ellipse fill="none" stroke="black" cx="36" cy="-106.5" rx="36" ry="18"/>
<text text-anchor="middle" x="36" y="-101.45" font-family="Times,serif" font-size="14.00">smoky</text>
</g>
<!-- idTheCarRoom1&#45;&gt;smoky -->
<g id="edge1" class="edge">
<title>idTheCarRoom1&#45;&gt;smoky</title>
<path fill="none" stroke="black" d="M80.08,-186.76C63.35,-181.62 47.18,-173.08 36.75,-159 31.77,-152.28 30.33,-143.6 30.5,-135.29"/>
<polygon fill="black" stroke="black" points="34.08,-135.69 31.56,-125.4 27.11,-135.01 34.08,-135.69"/>
<text text-anchor="middle" x="135.62" y="-145.7" font-family="Times,serif" font-size="14.00">idTheCarRoom1_prop_idDescriptor</text>
</g>
<!-- idBush1 -->
<g id="node3" class="node">
<title>idBush1</title>
<ellipse fill="none" stroke="black" cx="256" cy="-106.5" rx="41.63" ry="18"/>
<text text-anchor="middle" x="256" y="-101.45" font-family="Times,serif" font-size="14.00">idBush1</text>
</g>
<!-- idTheCarRoom1&#45;&gt;idBush1 -->
<g id="edge2" class="edge">
<title>idTheCarRoom1&#45;&gt;idBush1</title>
<path fill="none" stroke="black" d="M196.57,-181.61C210,-176.39 223.64,-169.1 234,-159 240.65,-152.51 245.41,-143.68 248.75,-135.17"/>
<polygon fill="black" stroke="black" points="252.38,-136.35 252.27,-125.75 245.75,-134.11 252.38,-136.35"/>
<text text-anchor="middle" x="271.5" y="-145.7" font-family="Times,serif" font-size="14.00">isWestOf</text>
</g>
<!-- green -->
<g id="node4" class="node">
<title>green</title>
<ellipse fill="none" stroke="black" cx="108" cy="-18" rx="31.39" ry="18"/>
<text text-anchor="middle" x="108" y="-12.95" font-family="Times,serif" font-size="14.00">green</text>
</g>
<!-- idBush1&#45;&gt;green -->
<g id="edge3" class="edge">
<title>idBush1&#45;&gt;green</title>
<path fill="none" stroke="black" d="M214.62,-103.76C186.87,-100.51 151.2,-92.03 127.5,-70.5 120.63,-64.26 116.17,-55.36 113.27,-46.7"/>
<polygon fill="black" stroke="black" points="116.39,-45.81 110.38,-37.08 109.63,-47.65 116.39,-45.81"/>
<text text-anchor="middle" x="190.25" y="-57.2" font-family="Times,serif" font-size="14.00">idBush1_prop_idColor</text>
</g>
<!-- yes -->
<g id="node5" class="node">
<title>yes</title>
<ellipse fill="none" stroke="black" cx="256" cy="-18" rx="27" ry="18"/>
<text text-anchor="middle" x="256" y="-12.95" font-family="Times,serif" font-size="14.00">yes</text>
</g>
<!-- idBush1&#45;&gt;yes -->
<g id="edge4" class="edge">
<title>idBush1&#45;&gt;yes</title>
<path fill="none" stroke="black" d="M256,-88.41C256,-76.64 256,-60.73 256,-47.11"/>
<polygon fill="black" stroke="black" points="259.5,-47.35 256,-37.35 252.5,-47.35 259.5,-47.35"/>
<text text-anchor="middle" x="334.37" y="-57.2" font-family="Times,serif" font-size="14.00">idBush1_prop_idImmovable</text>
</g>
<!-- idCrowbar1 -->
<g id="node6" class="node">
<title>idCrowbar1</title>
<ellipse fill="none" stroke="black" cx="436" cy="-18" rx="54.93" ry="18"/>
<text text-anchor="middle" x="436" y="-12.95" font-family="Times,serif" font-size="14.00">idCrowbar1</text>
</g>
<!-- idBush1&#45;&gt;idCrowbar1 -->
<g id="edge5" class="edge">
<title>idBush1&#45;&gt;idCrowbar1</title>
<path fill="none" stroke="black" d="M296.05,-100.84C336.77,-95.37 396.32,-85.16 414,-70.5 421.34,-64.41 426.28,-55.42 429.59,-46.66"/>
<polygon fill="black" stroke="black" points="433.19,-47.87 432.87,-37.28 426.52,-45.76 433.19,-47.87"/>
<text text-anchor="middle" x="448.25" y="-57.2" font-family="Times,serif" font-size="14.00">isEastOf</text>
</g>
</g>
</svg>
