<?xml version="1.0" encoding="UTF-8" standalone="no"?>
<!DOCTYPE svg PUBLIC "-//W3C//DTD SVG 1.1//EN"
 "http://www.w3.org/Graphics/SVG/1.1/DTD/svg11.dtd">
<!-- Generated by graphviz version 8.1.0 (20230707.0739)
 -->
<!-- Pages: 1 -->
<svg width="918pt" height="221pt"
 viewBox="0.00 0.00 918.38 221.00" xmlns="http://www.w3.org/2000/svg" xmlns:xlink="http://www.w3.org/1999/xlink">
<g id="graph0" class="graph" transform="scale(1 1) rotate(0) translate(4 217)">
<polygon fill="white" stroke="none" points="-4,4 -4,-217 914.38,-217 914.38,4 -4,4"/>
<!-- idTrunk1 -->
<g id="node1" class="node">
<title>idTrunk1</title>
<ellipse fill="none" stroke="black" cx="315.88" cy="-195" rx="45.21" ry="18"/>
<text text-anchor="middle" x="315.88" y="-189.95" font-family="Times,serif" font-size="14.00">idTrunk1</text>
</g>
<!-- black -->
<g id="node2" class="node">
<title>black</title>
<ellipse fill="none" stroke="black" cx="30.88" cy="-18" rx="30.88" ry="18"/>
<text text-anchor="middle" x="30.88" y="-12.95" font-family="Times,serif" font-size="14.00">black</text>
</g>
<!-- idTrunk1&#45;&gt;black -->
<g id="edge1" class="edge">
<title>idTrunk1&#45;&gt;black</title>
<path fill="none" stroke="black" d="M271.92,-190.11C197.95,-182.55 53.66,-163.13 23.13,-124.5 5.73,-102.48 11.86,-69.16 19.63,-45.88"/>
<polygon fill="black" stroke="black" points="23.22,-47.25 23.36,-36.65 16.65,-44.85 23.22,-47.25"/>
<text text-anchor="middle" x="88.75" y="-101.45" font-family="Times,serif" font-size="14.00">idTrunk1_prop_idColor</text>
</g>
<!-- unbroken -->
<g id="node3" class="node">
<title>unbroken</title>
<ellipse fill="none" stroke="black" cx="327.88" cy="-106.5" rx="45.72" ry="18"/>
<text text-anchor="middle" x="327.88" y="-101.45" font-family="Times,serif" font-size="14.00">unbroken</text>
</g>
<!-- idTrunk1&#45;&gt;unbroken -->
<g id="edge2" class="edge">
<title>idTrunk1&#45;&gt;unbroken</title>
<path fill="none" stroke="black" d="M314.99,-176.72C314.78,-166.67 315.03,-153.8 316.88,-142.5 317.27,-140.1 317.79,-137.64 318.39,-135.18"/>
<polygon fill="black" stroke="black" points="322,-136.29 321.4,-125.71 315.28,-134.36 322,-136.29"/>
<text text-anchor="middle" x="394.88" y="-145.7" font-family="Times,serif" font-size="14.00">idTrunk1_prop_idDescriptor</text>
</g>
<!-- untouched -->
<g id="node4" class="node">
<title>untouched</title>
<ellipse fill="none" stroke="black" cx="494.88" cy="-106.5" rx="49.3" ry="18"/>
<text text-anchor="middle" x="494.88" y="-101.45" font-family="Times,serif" font-size="14.00">untouched</text>
</g>
<!-- idTrunk1&#45;&gt;untouched -->
<g id="edge3" class="edge">
<title>idTrunk1&#45;&gt;untouched</title>
<path fill="none" stroke="black" d="M358.68,-188.9C399.02,-183.32 455.75,-173.23 472.88,-159 480.22,-152.9 485.16,-143.92 488.47,-135.15"/>
<polygon fill="black" stroke="black" points="492.07,-136.36 491.74,-125.77 485.4,-134.26 492.07,-136.36"/>
<text text-anchor="middle" x="569.63" y="-145.7" font-family="Times,serif" font-size="14.00">idTrunk1_prop_idDescriptor_1</text>
</g>
<!-- idWhistle1 -->
<g id="node5" class="node">
<title>idWhistle1</title>
<ellipse fill="none" stroke="black" cx="687.88" cy="-106.5" rx="51.86" ry="18"/>
<text text-anchor="middle" x="687.88" y="-101.45" font-family="Times,serif" font-size="14.00">idWhistle1</text>
</g>
<!-- idTrunk1&#45;&gt;idWhistle1 -->
<g id="edge4" class="edge">
<title>idTrunk1&#45;&gt;idWhistle1</title>
<path fill="none" stroke="black" d="M361.24,-194.35C442.74,-194.18 609.91,-189.93 657.88,-159 666.82,-153.24 673.42,-143.79 678.11,-134.56"/>
<polygon fill="black" stroke="black" points="681.59,-136.36 682.48,-125.8 675.2,-133.5 681.59,-136.36"/>
<text text-anchor="middle" x="699.38" y="-145.7" font-family="Times,serif" font-size="14.00">isWestOf</text>
</g>
<!-- idCarKey1 -->
<g id="node8" class="node">
<title>idCarKey1</title>
<ellipse fill="none" stroke="black" cx="212.88" cy="-106.5" rx="51.35" ry="18"/>
<text text-anchor="middle" x="212.88" y="-101.45" font-family="Times,serif" font-size="14.00">idCarKey1</text>
</g>
<!-- idTrunk1&#45;&gt;idCarKey1 -->
<g id="edge5" class="edge">
<title>idTrunk1&#45;&gt;idCarKey1</title>
<path fill="none" stroke="black" d="M292.65,-179.11C283.87,-173.17 273.93,-166.07 265.38,-159 255.28,-150.65 244.85,-140.72 235.97,-131.82"/>
<polygon fill="black" stroke="black" points="238.8,-129.7 229.3,-125.01 233.81,-134.6 238.8,-129.7"/>
<text text-anchor="middle" x="289.13" y="-145.7" font-family="Times,serif" font-size="14.00">isEastOf</text>
</g>
<!-- cracked -->
<g id="node6" class="node">
<title>cracked</title>
<ellipse fill="none" stroke="black" cx="592.88" cy="-18" rx="39.58" ry="18"/>
<text text-anchor="middle" x="592.88" y="-12.95" font-family="Times,serif" font-size="14.00">cracked</text>
</g>
<!-- idWhistle1&#45;&gt;cracked -->
<g id="edge6" class="edge">
<title>idWhistle1&#45;&gt;cracked</title>
<path fill="none" stroke="black" d="M639.14,-99.96C620.66,-95.21 601.39,-86.49 590.13,-70.5 585.38,-63.76 584.41,-55.2 585.1,-47"/>
<polygon fill="black" stroke="black" points="588.7,-47.7 586.89,-37.26 581.8,-46.55 588.7,-47.7"/>
<text text-anchor="middle" x="673.75" y="-57.2" font-family="Times,serif" font-size="14.00">idWhistle1_prop_idDescriptor</text>
</g>
<!-- white -->
<g id="node7" class="node">
<title>white</title>
<ellipse fill="none" stroke="black" cx="781.88" cy="-18" rx="31.39" ry="18"/>
<text text-anchor="middle" x="781.88" y="-12.95" font-family="Times,serif" font-size="14.00">white</text>
</g>
<!-- idWhistle1&#45;&gt;white -->
<g id="edge7" class="edge">
<title>idWhistle1&#45;&gt;white</title>
<path fill="none" stroke="black" d="M724.82,-93.56C737.21,-88.11 750.29,-80.56 759.88,-70.5 766.29,-63.77 770.98,-54.88 774.34,-46.38"/>
<polygon fill="black" stroke="black" points="777.96,-47.62 777.92,-37.03 771.35,-45.34 777.96,-47.62"/>
<text text-anchor="middle" x="840.63" y="-57.2" font-family="Times,serif" font-size="14.00">idWhistle1_prop_idColor</text>
</g>
<!-- idCarKey1&#45;&gt;black -->
<g id="edge8" class="edge">
<title>idCarKey1&#45;&gt;black</title>
<path fill="none" stroke="black" d="M173.05,-94.89C164.74,-92.73 156.03,-90.51 147.88,-88.5 113.44,-80.01 99.92,-89.75 70.13,-70.5 60.07,-64 51.59,-54 45.11,-44.53"/>
<polygon fill="black" stroke="black" points="47.63,-42.96 39.32,-36.39 41.72,-46.71 47.63,-42.96"/>
<text text-anchor="middle" x="140.25" y="-57.2" font-family="Times,serif" font-size="14.00">idCarKey1_prop_idColor</text>
</g>
<!-- true -->
<g id="node9" class="node">
<title>true</title>
<ellipse fill="none" stroke="black" cx="212.88" cy="-18" rx="27" ry="18"/>
<text text-anchor="middle" x="212.88" y="-12.95" font-family="Times,serif" font-size="14.00">true</text>
</g>
<!-- idCarKey1&#45;&gt;true -->
<g id="edge9" class="edge">
<title>idCarKey1&#45;&gt;true</title>
<path fill="none" stroke="black" d="M212.88,-88.41C212.88,-76.64 212.88,-60.73 212.88,-47.11"/>
<polygon fill="black" stroke="black" points="216.38,-47.35 212.88,-37.35 209.38,-47.35 216.38,-47.35"/>
<text text-anchor="middle" x="311.5" y="-57.2" font-family="Times,serif" font-size="14.00">idCarKey1_prop_idUnknownObject</text>
</g>
</g>
</svg>
