<?xml version="1.0" encoding="UTF-8" standalone="no"?>
<!DOCTYPE svg PUBLIC "-//W3C//DTD SVG 1.1//EN"
 "http://www.w3.org/Graphics/SVG/1.1/DTD/svg11.dtd">
<!-- Generated by graphviz version 8.1.0 (20230707.0739)
 -->
<!-- Pages: 1 -->
<svg width="687pt" height="221pt"
 viewBox="0.00 0.00 686.83 221.00" xmlns="http://www.w3.org/2000/svg" xmlns:xlink="http://www.w3.org/1999/xlink">
<g id="graph0" class="graph" transform="scale(1 1) rotate(0) translate(4 217)">
<polygon fill="white" stroke="none" points="-4,4 -4,-217 682.83,-217 682.83,4 -4,4"/>
<!-- idWhistle1 -->
<g id="node1" class="node">
<title>idWhistle1</title>
<ellipse fill="none" stroke="black" cx="309.58" cy="-195" rx="51.86" ry="18"/>
<text text-anchor="middle" x="309.58" y="-189.95" font-family="Times,serif" font-size="14.00">idWhistle1</text>
</g>
<!-- cracked -->
<g id="node2" class="node">
<title>cracked</title>
<ellipse fill="none" stroke="black" cx="39.58" cy="-106.5" rx="39.58" ry="18"/>
<text text-anchor="middle" x="39.58" y="-101.45" font-family="Times,serif" font-size="14.00">cracked</text>
</g>
<!-- idWhistle1&#45;&gt;cracked -->
<g id="edge1" class="edge">
<title>idWhistle1&#45;&gt;cracked</title>
<path fill="none" stroke="black" d="M257.58,-193.68C191.12,-192.16 81.15,-185.57 51.83,-159 45.22,-153.01 41.86,-144.17 40.24,-135.49"/>
<polygon fill="black" stroke="black" points="43.63,-135.34 39,-125.81 36.68,-136.15 43.63,-135.34"/>
<text text-anchor="middle" x="135.45" y="-145.7" font-family="Times,serif" font-size="14.00">idWhistle1_prop_idDescriptor</text>
</g>
<!-- white -->
<g id="node3" class="node">
<title>white</title>
<ellipse fill="none" stroke="black" cx="228.58" cy="-106.5" rx="31.39" ry="18"/>
<text text-anchor="middle" x="228.58" y="-101.45" font-family="Times,serif" font-size="14.00">white</text>
</g>
<!-- idWhistle1&#45;&gt;white -->
<g id="edge2" class="edge">
<title>idWhistle1&#45;&gt;white</title>
<path fill="none" stroke="black" d="M264.92,-185.73C250.02,-180.62 234.96,-172.35 226.08,-159 221.51,-152.13 220.56,-143.54 221.2,-135.35"/>
<polygon fill="black" stroke="black" points="224.79,-136.06 222.89,-125.64 217.88,-134.97 224.79,-136.06"/>
<text text-anchor="middle" x="296.33" y="-145.7" font-family="Times,serif" font-size="14.00">idWhistle1_prop_idColor</text>
</g>
<!-- idSmoke1 -->
<g id="node4" class="node">
<title>idSmoke1</title>
<ellipse fill="none" stroke="black" cx="368.58" cy="-106.5" rx="48.79" ry="18"/>
<text text-anchor="middle" x="368.58" y="-101.45" font-family="Times,serif" font-size="14.00">idSmoke1</text>
</g>
<!-- idWhistle1&#45;&gt;idSmoke1 -->
<g id="edge3" class="edge">
<title>idWhistle1&#45;&gt;idSmoke1</title>
<path fill="none" stroke="black" d="M344.78,-181.33C354.55,-176 363.99,-168.73 369.58,-159 373.58,-152.04 374.65,-143.64 374.36,-135.65"/>
<polygon fill="black" stroke="black" points="377.74,-135.41 373.19,-125.84 370.78,-136.16 377.74,-135.41"/>
<text text-anchor="middle" x="397.83" y="-145.7" font-family="Times,serif" font-size="14.00">isEastOf</text>
</g>
<!-- idTaillight1 -->
<g id="node6" class="node">
<title>idTaillight1</title>
<ellipse fill="none" stroke="black" cx="508.58" cy="-106.5" rx="54.42" ry="18"/>
<text text-anchor="middle" x="508.58" y="-101.45" font-family="Times,serif" font-size="14.00">idTaillight1</text>
</g>
<!-- idWhistle1&#45;&gt;idTaillight1 -->
<g id="edge4" class="edge">
<title>idWhistle1&#45;&gt;idTaillight1</title>
<path fill="none" stroke="black" d="M351.49,-184C373.71,-178.02 401.17,-169.53 424.58,-159 442.8,-150.81 461.87,-139.37 477.23,-129.36"/>
<polygon fill="black" stroke="black" points="478.88,-131.8 485.27,-123.35 475.01,-125.97 478.88,-131.8"/>
<text text-anchor="middle" x="479.83" y="-145.7" font-family="Times,serif" font-size="14.00">isEastOf</text>
</g>
<!-- yes -->
<g id="node5" class="node">
<title>yes</title>
<ellipse fill="none" stroke="black" cx="343.58" cy="-18" rx="27" ry="18"/>
<text text-anchor="middle" x="343.58" y="-12.95" font-family="Times,serif" font-size="14.00">yes</text>
</g>
<!-- idSmoke1&#45;&gt;yes -->
<g id="edge5" class="edge">
<title>idSmoke1&#45;&gt;yes</title>
<path fill="none" stroke="black" d="M354.29,-89.14C350.28,-83.59 346.45,-77.12 344.33,-70.5 341.95,-63.06 341.1,-54.71 341.02,-46.92"/>
<polygon fill="black" stroke="black" points="344.55,-47.21 341.37,-37.1 337.55,-46.99 344.55,-47.21"/>
<text text-anchor="middle" x="428.2" y="-57.2" font-family="Times,serif" font-size="14.00">idSmoke1_prop_idImmovable</text>
</g>
<!-- unlit -->
<g id="node7" class="node">
<title>unlit</title>
<ellipse fill="none" stroke="black" cx="533.58" cy="-18" rx="27.81" ry="18"/>
<text text-anchor="middle" x="533.58" y="-12.95" font-family="Times,serif" font-size="14.00">unlit</text>
</g>
<!-- idTaillight1&#45;&gt;unlit -->
<g id="edge6" class="edge">
<title>idTaillight1&#45;&gt;unlit</title>
<path fill="none" stroke="black" d="M513.52,-88.41C516.98,-76.44 521.67,-60.2 525.65,-46.43"/>
<polygon fill="black" stroke="black" points="529.24,-47.63 528.65,-37.05 522.51,-45.69 529.24,-47.63"/>
<text text-anchor="middle" x="601.2" y="-57.2" font-family="Times,serif" font-size="14.00">idTaillight1_prop_idLitState</text>
</g>
</g>
</svg>
