<?xml version="1.0" encoding="UTF-8" standalone="no"?>
<!DOCTYPE svg PUBLIC "-//W3C//DTD SVG 1.1//EN"
 "http://www.w3.org/Graphics/SVG/1.1/DTD/svg11.dtd">
<!-- Generated by graphviz version 8.1.0 (20230707.0739)
 -->
<!-- Pages: 1 -->
<svg width="602pt" height="133pt"
 viewBox="0.00 0.00 602.25 132.50" xmlns="http://www.w3.org/2000/svg" xmlns:xlink="http://www.w3.org/1999/xlink">
<g id="graph0" class="graph" transform="scale(1 1) rotate(0) translate(4 128.5)">
<polygon fill="white" stroke="none" points="-4,4 -4,-128.5 598.25,-128.5 598.25,4 -4,4"/>
<!-- idWindow1 -->
<g id="node1" class="node">
<title>idWindow1</title>
<ellipse fill="none" stroke="black" cx="236.75" cy="-106.5" rx="54.42" ry="18"/>
<text text-anchor="middle" x="236.75" y="-101.45" font-family="Times,serif" font-size="14.00">idWindow1</text>
</g>
<!-- idDriver1 -->
<g id="node2" class="node">
<title>idDriver1</title>
<ellipse fill="none" stroke="black" cx="46.75" cy="-18" rx="46.75" ry="18"/>
<text text-anchor="middle" x="46.75" y="-12.95" font-family="Times,serif" font-size="14.00">idDriver1</text>
</g>
<!-- idWindow1&#45;&gt;idDriver1 -->
<g id="edge1" class="edge">
<title>idWindow1&#45;&gt;idDriver1</title>
<path fill="none" stroke="black" d="M184.85,-100.48C141.19,-95.26 83.13,-85.71 65.5,-70.5 58.5,-64.47 54.12,-55.61 51.37,-46.94"/>
<polygon fill="black" stroke="black" points="54.52,-46.12 48.69,-37.27 47.73,-47.82 54.52,-46.12"/>
<text text-anchor="middle" x="149.37" y="-57.2" font-family="Times,serif" font-size="14.00">idWindow1_prop_idOwnedBy</text>
</g>
<!-- yes -->
<g id="node3" class="node">
<title>yes</title>
<ellipse fill="none" stroke="black" cx="236.75" cy="-18" rx="27" ry="18"/>
<text text-anchor="middle" x="236.75" y="-12.95" font-family="Times,serif" font-size="14.00">yes</text>
</g>
<!-- idWindow1&#45;&gt;yes -->
<g id="edge2" class="edge">
<title>idWindow1&#45;&gt;yes</title>
<path fill="none" stroke="black" d="M236.75,-88.41C236.75,-76.64 236.75,-60.73 236.75,-47.11"/>
<polygon fill="black" stroke="black" points="240.25,-47.35 236.75,-37.35 233.25,-47.35 240.25,-47.35"/>
<text text-anchor="middle" x="324.5" y="-57.2" font-family="Times,serif" font-size="14.00">idWindow1_prop_idImmovable</text>
</g>
<!-- dark -->
<g id="node4" class="node">
<title>dark</title>
<ellipse fill="none" stroke="black" cx="435.75" cy="-18" rx="27.3" ry="18"/>
<text text-anchor="middle" x="435.75" y="-12.95" font-family="Times,serif" font-size="14.00">dark</text>
</g>
<!-- idWindow1&#45;&gt;dark -->
<g id="edge3" class="edge">
<title>idWindow1&#45;&gt;dark</title>
<path fill="none" stroke="black" d="M288.42,-100.64C333.58,-95.45 394.83,-85.84 413.75,-70.5 421.16,-64.49 426.12,-55.53 429.42,-46.75"/>
<polygon fill="black" stroke="black" points="433.03,-47.94 432.68,-37.35 426.35,-45.85 433.03,-47.94"/>
<text text-anchor="middle" x="509.5" y="-57.2" font-family="Times,serif" font-size="14.00">idWindow1_prop_idDescriptor</text>
</g>
</g>
</svg>
